G04 #@! TF.GenerationSoftware,KiCad,Pcbnew,5.1.5+dfsg1-2~bpo10+1*
G04 #@! TF.CreationDate,2020-02-19T22:44:21+01:00*
G04 #@! TF.ProjectId,gem-demo-board,67656d2d-6465-46d6-9f2d-626f6172642e,rev?*
G04 #@! TF.SameCoordinates,Original*
G04 #@! TF.FileFunction,Copper,L3,Inr*
G04 #@! TF.FilePolarity,Positive*
%FSLAX46Y46*%
G04 Gerber Fmt 4.6, Leading zero omitted, Abs format (unit mm)*
G04 Created by KiCad (PCBNEW 5.1.5+dfsg1-2~bpo10+1) date 2020-02-19 22:44:21*
%MOMM*%
%LPD*%
G04 APERTURE LIST*
%ADD10C,1.100000*%
%ADD11C,0.500000*%
%ADD12C,6.200000*%
%ADD13C,2.000000*%
%ADD14C,0.550000*%
%ADD15C,0.200000*%
%ADD16C,0.150000*%
%ADD17C,0.250000*%
G04 APERTURE END LIST*
D10*
X52440000Y-92240000D03*
X52440000Y-93510000D03*
X51170000Y-92240000D03*
X51170000Y-93510000D03*
X49900000Y-92240000D03*
X49900000Y-93510000D03*
X48630000Y-92240000D03*
X48630000Y-93510000D03*
X47360000Y-92240000D03*
X47360000Y-93510000D03*
D11*
X50450000Y-42350000D03*
X51850000Y-42350000D03*
X53250000Y-42350000D03*
X54650000Y-42350000D03*
X50450000Y-40950000D03*
X51850000Y-40950000D03*
X53250000Y-40950000D03*
X54650000Y-40950000D03*
X50450000Y-39550000D03*
X51850000Y-39550000D03*
X53250000Y-39550000D03*
X54650000Y-39550000D03*
X50450000Y-38150000D03*
X51850000Y-38150000D03*
X53250000Y-38150000D03*
X54650000Y-38150000D03*
D10*
X36990000Y-49740000D03*
X38260000Y-49740000D03*
X36990000Y-51010000D03*
X38260000Y-51010000D03*
X36990000Y-52280000D03*
X38260000Y-52280000D03*
X36990000Y-53550000D03*
X38260000Y-53550000D03*
X36990000Y-54820000D03*
X38260000Y-54820000D03*
D12*
X31300000Y-34250000D03*
X31300000Y-92250000D03*
X80300000Y-92250000D03*
X80300000Y-34250000D03*
D13*
X32570000Y-87380000D03*
X30030000Y-87380000D03*
X32570000Y-84840000D03*
X30030000Y-84840000D03*
X32570000Y-82300000D03*
X30030000Y-82300000D03*
X32570000Y-79760000D03*
X30030000Y-79760000D03*
X32570000Y-77220000D03*
X30030000Y-77220000D03*
X32570000Y-74680000D03*
X30030000Y-74680000D03*
X32570000Y-72140000D03*
X30030000Y-72140000D03*
X32570000Y-69600000D03*
X30030000Y-69600000D03*
X32570000Y-67060000D03*
X30030000Y-67060000D03*
X32570000Y-64520000D03*
X30030000Y-64520000D03*
X32570000Y-61980000D03*
X30030000Y-61980000D03*
X32570000Y-59440000D03*
X30030000Y-59440000D03*
X32570000Y-56900000D03*
X30030000Y-56900000D03*
X32570000Y-54360000D03*
X30030000Y-54360000D03*
X32570000Y-51820000D03*
X30030000Y-51820000D03*
X32570000Y-49280000D03*
X30030000Y-49280000D03*
X32570000Y-46740000D03*
X30030000Y-46740000D03*
X32570000Y-44200000D03*
X30030000Y-44200000D03*
X32570000Y-41660000D03*
X30030000Y-41660000D03*
X32570000Y-39120000D03*
X30030000Y-39120000D03*
D14*
X51078649Y-59048649D03*
X69508649Y-72698649D03*
X69835801Y-46504351D03*
X36270000Y-70950000D03*
X68730000Y-49960000D03*
X73970876Y-56979124D03*
X41165000Y-41550000D03*
X35615000Y-43760000D03*
X58274987Y-76000000D03*
X39540000Y-91480000D03*
X39510000Y-88630000D03*
X42770000Y-34120000D03*
X43120000Y-45680000D03*
X53110000Y-74425000D03*
X63580000Y-93040000D03*
X62520000Y-35370000D03*
X58530000Y-43900000D03*
X65290000Y-50370000D03*
X69220000Y-55080000D03*
X74560000Y-62110000D03*
X60300000Y-43850000D03*
X51800000Y-57650000D03*
X74300000Y-49750000D03*
X73900000Y-55800000D03*
X34480494Y-86588254D03*
X34820000Y-85860000D03*
X43700000Y-63375010D03*
X44039117Y-43360883D03*
X75358420Y-56784458D03*
X38200000Y-32050000D03*
X75290000Y-70287510D03*
X74800000Y-51050000D03*
X67900000Y-61750000D03*
X67900000Y-64950000D03*
X67700000Y-68050000D03*
X61400000Y-66050000D03*
X60600000Y-65250000D03*
X61400000Y-63050000D03*
X58700000Y-62050000D03*
X60500000Y-59250000D03*
X60100000Y-58450000D03*
X50200000Y-65950000D03*
X50200000Y-64550000D03*
X51100000Y-63950000D03*
X51300000Y-61450000D03*
X47400000Y-58450000D03*
X51000000Y-57750000D03*
X43900000Y-61550000D03*
X71300000Y-46750000D03*
X76550000Y-55000000D03*
X76550000Y-54000000D03*
X78550000Y-60750000D03*
X78800000Y-51500000D03*
X77300000Y-69250000D03*
X77550000Y-68350000D03*
X78800000Y-74500000D03*
X79050000Y-66000000D03*
X45800000Y-38100000D03*
X44800000Y-38100000D03*
X52300000Y-78000000D03*
X37050000Y-89050000D03*
X55300000Y-45600000D03*
X49800000Y-47850000D03*
X56300000Y-47850000D03*
X57550000Y-48600000D03*
X59300000Y-47850000D03*
X58420000Y-37490000D03*
X60300000Y-39850000D03*
X47135883Y-42014117D03*
X47050000Y-44100000D03*
X45800000Y-42600000D03*
X44800000Y-42600000D03*
X47050000Y-37850000D03*
X47050000Y-36850000D03*
X52800000Y-34600000D03*
X67370000Y-76760000D03*
X70370000Y-76760000D03*
X73370000Y-76760000D03*
X76370000Y-79760000D03*
X51048649Y-62411351D03*
X71831351Y-74521351D03*
X50571351Y-62888649D03*
X72308649Y-74998649D03*
X50761351Y-60081351D03*
X75181351Y-73121351D03*
X51238649Y-60558649D03*
X75658649Y-73598649D03*
X50601351Y-58571351D03*
X69031351Y-72221351D03*
X58270000Y-80250000D03*
X60750000Y-91910000D03*
X58995876Y-45725876D03*
X50670000Y-72350010D03*
X37058471Y-46666283D03*
X41810000Y-46850000D03*
X74700000Y-58220000D03*
X51520000Y-76670000D03*
X75260000Y-53060000D03*
X38920000Y-88060000D03*
X54300000Y-46150000D03*
X59889124Y-51160876D03*
X46875000Y-48550000D03*
X61400000Y-55150000D03*
X79200000Y-45650000D03*
X54700000Y-62150000D03*
X62370000Y-79310000D03*
X59970000Y-82360000D03*
X66370000Y-80760000D03*
X44600000Y-72160000D03*
X73137500Y-46000000D03*
X64888649Y-59761351D03*
X66382500Y-50220000D03*
X59501351Y-60208649D03*
X67057500Y-50220000D03*
X59978649Y-59731351D03*
X69482500Y-50080000D03*
X60328649Y-62908649D03*
X70157500Y-50080000D03*
X59851351Y-62431351D03*
X72462500Y-46000000D03*
X64411351Y-60238649D03*
X77245010Y-71809999D03*
X74997079Y-57354610D03*
X46654986Y-40594838D03*
X75000000Y-56150000D03*
X47139654Y-40125010D03*
X62390000Y-41270000D03*
X76800000Y-58500000D03*
X76816211Y-60834772D03*
X74600000Y-70487500D03*
X51338649Y-66588649D03*
X74600000Y-69812500D03*
X50861351Y-66111351D03*
X42420000Y-47875000D03*
X45920000Y-31040000D03*
X71790000Y-49840000D03*
X44550000Y-49600000D03*
X44550000Y-51840000D03*
X73600000Y-49750000D03*
X45090000Y-54365000D03*
X46930000Y-31040000D03*
X46040000Y-49650000D03*
X46040000Y-51800000D03*
X72660000Y-51280000D03*
X71000000Y-50050000D03*
X65845261Y-49696491D03*
X70980000Y-43410000D03*
X46800000Y-66150000D03*
X41200871Y-64399386D03*
X72200000Y-41150000D03*
X70428868Y-45717220D03*
X38100000Y-62647018D03*
X57294393Y-53569252D03*
X46030000Y-65610000D03*
X38380000Y-61630000D03*
X57719475Y-53044912D03*
X71160000Y-45780000D03*
X46500000Y-65035010D03*
X71880000Y-45605010D03*
X57970000Y-52370000D03*
X45940000Y-64600000D03*
X37705000Y-61380000D03*
X47910000Y-31040000D03*
X61222746Y-55994857D03*
X47090000Y-56590000D03*
X47480000Y-49620000D03*
X67616541Y-52166541D03*
X44930000Y-31040000D03*
X42980000Y-49580000D03*
X42990000Y-51900000D03*
X67810000Y-50575000D03*
X55950000Y-31040000D03*
X53840000Y-57860000D03*
X54020000Y-51590000D03*
X54010000Y-49600000D03*
X69400000Y-57450000D03*
X53920000Y-31040000D03*
X51207227Y-57107594D03*
X51530000Y-52930000D03*
X52570000Y-49680000D03*
X69190000Y-56499999D03*
X51888000Y-31040000D03*
X49550000Y-51830000D03*
X49490000Y-49670000D03*
X57900000Y-78600000D03*
X55100000Y-53450000D03*
X40750000Y-65710000D03*
X40790000Y-67000000D03*
X48480000Y-49860000D03*
X59300000Y-52430000D03*
X47825000Y-35475000D03*
X59700000Y-50300000D03*
X60550000Y-56050000D03*
X46050000Y-44400000D03*
X44650000Y-48675000D03*
X46900000Y-74550000D03*
X40750000Y-68410000D03*
X56890000Y-31040000D03*
X57040000Y-51600000D03*
X57080000Y-49590000D03*
X57280000Y-79110000D03*
X54930000Y-31040000D03*
X73210000Y-55970000D03*
X55640000Y-56525000D03*
X46390000Y-56590000D03*
X55590000Y-51630000D03*
X55600000Y-49600000D03*
X52900000Y-31040000D03*
X52990000Y-57650000D03*
X51070000Y-51790000D03*
X51080000Y-49690000D03*
X68340000Y-57070000D03*
X43700000Y-38150000D03*
X49000000Y-45550000D03*
X49703749Y-45851874D03*
X43050000Y-35850000D03*
X39800000Y-37350000D03*
X37535000Y-44680000D03*
X50474990Y-45950000D03*
X35770000Y-50610000D03*
X43020000Y-82710000D03*
X50700000Y-69050000D03*
X50800000Y-67850000D03*
X75300000Y-63000000D03*
X78300000Y-63000000D03*
X78050000Y-76000000D03*
X45400000Y-89920000D03*
X75820000Y-76260000D03*
X38280000Y-91550000D03*
X38270000Y-88630000D03*
X39790000Y-87700000D03*
X40420000Y-81460000D03*
X34625000Y-88175000D03*
X51280000Y-75300000D03*
X59294989Y-78760000D03*
X74250021Y-64490000D03*
X72450000Y-56130000D03*
X73975010Y-65410000D03*
X71720000Y-56310000D03*
X73900000Y-66560000D03*
X70900000Y-56310000D03*
X73900000Y-67520000D03*
X70130000Y-56130000D03*
X40975020Y-75510000D03*
X68510000Y-53170000D03*
X73100000Y-55150000D03*
X60820000Y-78759996D03*
X43920000Y-75560000D03*
X68436316Y-59493684D03*
X72610000Y-61050000D03*
X60070000Y-78759994D03*
X70560000Y-63060000D03*
X74020000Y-72280000D03*
X71324748Y-63604339D03*
X73880000Y-71220000D03*
X71950000Y-63350000D03*
X74660000Y-69110000D03*
X72600000Y-63020000D03*
X73840000Y-68990000D03*
X43800000Y-59500000D03*
X49570000Y-90980000D03*
X43300000Y-60000000D03*
X43300000Y-59000000D03*
X43800000Y-58500000D03*
X60940000Y-31040000D03*
X63020000Y-32160000D03*
X61950000Y-31040000D03*
X36260000Y-58884659D03*
X35710000Y-56360000D03*
X47150000Y-63650000D03*
X37181843Y-58714583D03*
X36729124Y-56440876D03*
X47200000Y-62900000D03*
X40158916Y-57648667D03*
X34710000Y-56390000D03*
X46600000Y-62300000D03*
X47274980Y-66675000D03*
X42210000Y-60080000D03*
X45870000Y-94810000D03*
X46130000Y-61730000D03*
X43300000Y-61000000D03*
X42790000Y-60490000D03*
X40960000Y-33130000D03*
X57490000Y-59270000D03*
X34170000Y-31210000D03*
X36730000Y-60220000D03*
X59339444Y-71125000D03*
X35820330Y-60109670D03*
X60900000Y-72000000D03*
X34780000Y-60170000D03*
X60050000Y-72000000D03*
X65500000Y-58550000D03*
X71154767Y-64655233D03*
X71050000Y-65480000D03*
X71120000Y-66510000D03*
X71200000Y-67430000D03*
X41775000Y-53220000D03*
X61400000Y-75922500D03*
X62630000Y-76110000D03*
X65500000Y-61550000D03*
X71090000Y-68920000D03*
X70677779Y-69487500D03*
X71210000Y-70960000D03*
X71160000Y-72050000D03*
X65200000Y-64450000D03*
X64559637Y-65150000D03*
X39663251Y-56450000D03*
X36270000Y-53970000D03*
X65200000Y-65450000D03*
X64639844Y-66100001D03*
X65162623Y-66527000D03*
X60600000Y-67150000D03*
X64722702Y-67072702D03*
X43040000Y-54380000D03*
X40850000Y-57830000D03*
X60600000Y-68050000D03*
X65200000Y-67550000D03*
X48670000Y-33130000D03*
X58640000Y-48270000D03*
X52800000Y-47850000D03*
X61200000Y-39350000D03*
X60300000Y-34350000D03*
X55800000Y-34850000D03*
X49670000Y-41500000D03*
X46550000Y-43100000D03*
X47960000Y-33280000D03*
X50175426Y-32482515D03*
X40829710Y-32467692D03*
X35430000Y-37460000D03*
X60500000Y-38350000D03*
X44900000Y-35850000D03*
X50910000Y-31040000D03*
X49360000Y-38390000D03*
X47200000Y-44850000D03*
X58200000Y-38150000D03*
X55400000Y-47750000D03*
X57000000Y-45450000D03*
X57950000Y-31040000D03*
X37199999Y-74260000D03*
X58570000Y-51650000D03*
X58570000Y-49630000D03*
X58540000Y-79390000D03*
X54200000Y-78050000D03*
X40070000Y-32249999D03*
X37910000Y-64920000D03*
X37390000Y-31200000D03*
X40970000Y-34700000D03*
X36460000Y-32040000D03*
X37400000Y-62890000D03*
X40230047Y-60679952D03*
X40250001Y-42160000D03*
X35615000Y-40435000D03*
X37598248Y-57050000D03*
X35915200Y-48255200D03*
X40970000Y-37870000D03*
X37706633Y-57868702D03*
X40920000Y-35540000D03*
X35780000Y-46550000D03*
X41750000Y-38275000D03*
X35615000Y-39260000D03*
X35420000Y-58870000D03*
X37484989Y-62174989D03*
X40717558Y-61146814D03*
X42240000Y-41360000D03*
X78350000Y-44350000D03*
X68120000Y-39560000D03*
X75320656Y-39557156D03*
X77350000Y-44300000D03*
X75170000Y-40210000D03*
X68070000Y-43510000D03*
X76178459Y-49591541D03*
X76210000Y-51720000D03*
X70170000Y-41290000D03*
X63370000Y-80809998D03*
X69272500Y-43107500D03*
X70890000Y-41787500D03*
X64370000Y-80760000D03*
X68709454Y-43710000D03*
X61020000Y-86650000D03*
X65370000Y-80810000D03*
X68675000Y-46869124D03*
X63760000Y-46810000D03*
X68043524Y-49397625D03*
X60840000Y-54199999D03*
X63620000Y-47490000D03*
X62240000Y-54480000D03*
X68292341Y-46232341D03*
X62970000Y-54580000D03*
X65120002Y-43210000D03*
X65125001Y-40760000D03*
X63490000Y-53930000D03*
X63440000Y-43200000D03*
X65170000Y-39509994D03*
X63772124Y-48866124D03*
X75000000Y-41150000D03*
X63300000Y-48250000D03*
X75000000Y-42325000D03*
X62659637Y-48036546D03*
X75000000Y-43550000D03*
X61900000Y-48050000D03*
X75000000Y-44750000D03*
X58910000Y-31040000D03*
X50474990Y-48475000D03*
X61320000Y-36260000D03*
X61970000Y-33510000D03*
X59900000Y-31040000D03*
X61860000Y-34250000D03*
X60275000Y-36270000D03*
X48775000Y-48575000D03*
X60970000Y-33590000D03*
X65116356Y-46017947D03*
X70370000Y-46930000D03*
X69150000Y-46340000D03*
X65630000Y-45580000D03*
X50090000Y-31710000D03*
X54360000Y-46950000D03*
X40730000Y-69820000D03*
D15*
X69261161Y-72698649D02*
X69508649Y-72698649D01*
X69137310Y-72822500D02*
X69261161Y-72698649D01*
X63132690Y-72822500D02*
X69137310Y-72822500D01*
X59993396Y-69550196D02*
X60014876Y-69644309D01*
X60288535Y-68954942D02*
X60288536Y-68984622D01*
X60281931Y-68926008D02*
X60288535Y-68954942D01*
X60250551Y-68876067D02*
X60269054Y-68899269D01*
X60131936Y-68762152D02*
X60155140Y-68780656D01*
X60105197Y-68749275D02*
X60131936Y-68762152D01*
X60046585Y-68742671D02*
X60076263Y-68742671D01*
X59852802Y-68895561D02*
X59967708Y-68780656D01*
X58977467Y-69753361D02*
X59064070Y-69684297D01*
X60281932Y-69013556D02*
X60269055Y-69040295D01*
X58550912Y-69801422D02*
X58658905Y-69826071D01*
X58321608Y-69641396D02*
X58364509Y-69684297D01*
X58252544Y-69554793D02*
X58321608Y-69641396D01*
X58179834Y-69347001D02*
X58204483Y-69454993D01*
X58179834Y-69236231D02*
X58179834Y-69347001D01*
X58204483Y-69128239D02*
X58179834Y-69236231D01*
X58252544Y-69028439D02*
X58204483Y-69128239D01*
X58321608Y-68941836D02*
X58252544Y-69028439D01*
X59488308Y-67768043D02*
X59460385Y-67803058D01*
X59517707Y-67684031D02*
X59507740Y-67727693D01*
X59064070Y-69684297D02*
X59085521Y-69662847D01*
X59488309Y-67555231D02*
X59507740Y-67595581D01*
X58769674Y-69826071D02*
X58877667Y-69801422D01*
X59385020Y-67472861D02*
X59425370Y-67492293D01*
X58658905Y-69826071D02*
X58769674Y-69826071D01*
X59341358Y-67462896D02*
X59385020Y-67472861D01*
X59296572Y-67462896D02*
X59341358Y-67462896D01*
X59252908Y-67472861D02*
X59296572Y-67462896D01*
X59212558Y-67492294D02*
X59252908Y-67472861D01*
X59177543Y-67520217D02*
X59212558Y-67492294D01*
X58733784Y-67963975D02*
X59177543Y-67520217D01*
X58618883Y-68078882D02*
X58618880Y-68078880D01*
X58060220Y-68637546D02*
X58618883Y-68078882D01*
X57852366Y-68776121D02*
X57952166Y-68728060D01*
X57296307Y-68616095D02*
X57339208Y-68658996D01*
X57227243Y-68529491D02*
X57296307Y-68616095D01*
X57154533Y-68321699D02*
X57179182Y-68429692D01*
X57179182Y-68102937D02*
X57154533Y-68210930D01*
X57620095Y-67592747D02*
X57296307Y-67916534D01*
X60014876Y-69644309D02*
X60056761Y-69731284D01*
X57648018Y-67557732D02*
X57620095Y-67592747D01*
X59085521Y-69662847D02*
X59644182Y-69104182D01*
X59507740Y-67595581D02*
X59517707Y-67639245D01*
X57667450Y-67517382D02*
X57648018Y-67557732D01*
X57677416Y-67473719D02*
X57667450Y-67517382D01*
X59990912Y-68762152D02*
X60017651Y-68749275D01*
X57667450Y-67385270D02*
X57677416Y-67428933D01*
X60155140Y-68780656D02*
X60250551Y-68876067D01*
X57227243Y-68003138D02*
X57179182Y-68102937D01*
X59460385Y-67803058D02*
X58321608Y-68941836D01*
X58364509Y-69684297D02*
X58451113Y-69753361D01*
X60056761Y-69272570D02*
X60014876Y-69359545D01*
X60135644Y-69825453D02*
X63132690Y-72822500D01*
X57620095Y-67309904D02*
X57648018Y-67344919D01*
X57525611Y-68776121D02*
X57633604Y-68800770D01*
X60269054Y-68899269D02*
X60281931Y-68926008D01*
X60288536Y-68984622D02*
X60281932Y-69013556D01*
X58451113Y-69753361D02*
X58550912Y-69801422D01*
X58204483Y-69454993D02*
X58252544Y-69554793D01*
X60056761Y-69731284D02*
X60116951Y-69806759D01*
X60116951Y-69197097D02*
X60056761Y-69272570D01*
X57425812Y-68728060D02*
X57525611Y-68776121D01*
X60250550Y-69063497D02*
X60116951Y-69197097D01*
X57339208Y-68658996D02*
X57425812Y-68728060D01*
X60017651Y-68749275D02*
X60046585Y-68742671D01*
X60076263Y-68742671D02*
X60105197Y-68749275D01*
X51078649Y-58801161D02*
X51217310Y-58662500D01*
X51078649Y-59048649D02*
X51078649Y-58801161D01*
X58877667Y-69801422D02*
X58977467Y-69753361D01*
X59425370Y-67492293D02*
X59460385Y-67520216D01*
X59967708Y-68780656D02*
X59990912Y-68762152D01*
X60014876Y-69359545D02*
X59993395Y-69453660D01*
X57633604Y-68800770D02*
X57744373Y-68800770D01*
X57952166Y-68728060D02*
X58038769Y-68658996D01*
X59507740Y-67727693D02*
X59488308Y-67768043D01*
X57677416Y-67428933D02*
X57677416Y-67473719D01*
X57296307Y-67916534D02*
X57227243Y-68003138D01*
X57154533Y-68210930D02*
X57154533Y-68321699D01*
X59460385Y-67520216D02*
X59488309Y-67555231D01*
X58618880Y-68078880D02*
X58733784Y-67963975D01*
X60269055Y-69040295D02*
X60250550Y-69063497D01*
X59993395Y-69453660D02*
X59993396Y-69550196D01*
X57744373Y-68800770D02*
X57852366Y-68776121D01*
X60116951Y-69806759D02*
X60135644Y-69825453D01*
X57648018Y-67344919D02*
X57667450Y-67385270D01*
X59644182Y-69104182D02*
X59852802Y-68895561D01*
X59517707Y-67639245D02*
X59517707Y-67684031D01*
X57179182Y-68429692D02*
X57227243Y-68529491D01*
X51217310Y-58662500D02*
X53522690Y-58662500D01*
X58038769Y-68658996D02*
X58060220Y-68637546D01*
X53522690Y-58662500D02*
X57267500Y-62407310D01*
X57267500Y-62407310D02*
X57267500Y-66957310D01*
X57267500Y-66957310D02*
X57620095Y-67309904D01*
D16*
X52440000Y-93510000D02*
X49900000Y-93510000D01*
D15*
X71502701Y-75097489D02*
X71831351Y-74768839D01*
X55600805Y-73050873D02*
X55590838Y-73094535D01*
X55949087Y-72521959D02*
X55924438Y-72629952D01*
X55620236Y-73010521D02*
X55600805Y-73050873D01*
X55949086Y-72411189D02*
X55949087Y-72521959D01*
X55807312Y-72116793D02*
X55876376Y-72203397D01*
X55764412Y-72073894D02*
X55807312Y-72116793D01*
X55677808Y-72004829D02*
X55764412Y-72073894D01*
X55578009Y-71956769D02*
X55677808Y-72004829D01*
X55151456Y-72004831D02*
X55251255Y-71956769D01*
X54255345Y-72883402D02*
X55064852Y-72073894D01*
X54220330Y-72911325D02*
X54255345Y-72883402D01*
X55620237Y-73223335D02*
X55648160Y-73258349D01*
X54179980Y-72930757D02*
X54220330Y-72911325D01*
X54136317Y-72940723D02*
X54179980Y-72930757D01*
X54091531Y-72940723D02*
X54136317Y-72940723D01*
X55359248Y-71932121D02*
X55470016Y-71932119D01*
X54047868Y-72930757D02*
X54091531Y-72940723D01*
X71831351Y-74768839D02*
X71831351Y-74521351D01*
X55590838Y-73094535D02*
X55590838Y-73139321D01*
X54007517Y-72911325D02*
X54047868Y-72930757D01*
X52982216Y-71886024D02*
X53022567Y-71905456D01*
X52889880Y-71694287D02*
X52889880Y-71739073D01*
X55876376Y-72203397D02*
X55924437Y-72303196D01*
X55251255Y-71956769D02*
X55359248Y-71932121D01*
X53175419Y-71329503D02*
X53106355Y-71416106D01*
X54739110Y-71048592D02*
X54782010Y-71091491D01*
X52947202Y-71858101D02*
X52982216Y-71886024D01*
X52889880Y-71739073D02*
X52899846Y-71782736D01*
X53106355Y-71416106D02*
X52947202Y-71575258D01*
X53022567Y-71905456D02*
X53066230Y-71915422D01*
X55876376Y-72729751D02*
X55807313Y-72816355D01*
X51048649Y-62411351D02*
X52312511Y-63675213D01*
X54333946Y-70906819D02*
X54444714Y-70906817D01*
X55648161Y-72975507D02*
X55620236Y-73010521D01*
X55924437Y-72303196D02*
X55949086Y-72411189D01*
X53915182Y-72764374D02*
X53925148Y-72808037D01*
X52899846Y-71650624D02*
X52889880Y-71694287D01*
X54652506Y-70979527D02*
X54739110Y-71048592D01*
X53066230Y-71915422D02*
X53111016Y-71915422D01*
X52899846Y-71782736D02*
X52919278Y-71823086D01*
X53248129Y-71121710D02*
X53223480Y-71229703D01*
X55600805Y-73182985D02*
X55620237Y-73223335D01*
X55807313Y-72816355D02*
X55785862Y-72837805D01*
X54444714Y-70906817D02*
X54552707Y-70931467D01*
X53175419Y-70803149D02*
X53223480Y-70902949D01*
X55785862Y-72837805D02*
X55648161Y-72975507D01*
X52312511Y-69922701D02*
X53106355Y-70716546D01*
X53915182Y-72719588D02*
X53915182Y-72764374D01*
X52919278Y-71610273D02*
X52899846Y-71650624D01*
X55064852Y-72073894D02*
X55151456Y-72004831D01*
X53223480Y-71229703D02*
X53175419Y-71329503D01*
X54552707Y-70931467D02*
X54652506Y-70979527D01*
X53248129Y-71010941D02*
X53248129Y-71121710D01*
X55924438Y-72629952D02*
X55876376Y-72729751D01*
X52919278Y-71823086D02*
X52947202Y-71858101D01*
X53925148Y-72808037D02*
X53944580Y-72848387D01*
X52312511Y-63675213D02*
X52312511Y-69922701D01*
X54039550Y-71048592D02*
X54126154Y-70979529D01*
X53944580Y-72848387D02*
X53972503Y-72883402D01*
X54126154Y-70979529D02*
X54225953Y-70931467D01*
X53972503Y-72883402D02*
X54007517Y-72911325D01*
X54225953Y-70931467D02*
X54333946Y-70906819D01*
X57487299Y-75097489D02*
X71502701Y-75097489D01*
X54782010Y-71091491D02*
X54851074Y-71178095D01*
X54851074Y-71178095D02*
X54899135Y-71277894D01*
X53106355Y-70716546D02*
X53175419Y-70803149D01*
X54899135Y-71277894D02*
X54923784Y-71385887D01*
X54923784Y-71385887D02*
X54923785Y-71496657D01*
X55470016Y-71932119D02*
X55578009Y-71956769D01*
X53111016Y-71915422D02*
X53154679Y-71905456D01*
X54899136Y-71604650D02*
X54851074Y-71704449D01*
X53154679Y-71905456D02*
X53195029Y-71886024D01*
X54851074Y-71704449D02*
X54782011Y-71791053D01*
X53223480Y-70902949D02*
X53248129Y-71010941D01*
X53195029Y-71886024D02*
X53230044Y-71858101D01*
X54782011Y-71791053D02*
X54760560Y-71812503D01*
X55648160Y-73258349D02*
X57487299Y-75097489D01*
X53230044Y-71858101D02*
X54039550Y-71048592D01*
X54760560Y-71812503D02*
X53972503Y-72600560D01*
X55590838Y-73139321D02*
X55600805Y-73182985D01*
X54923785Y-71496657D02*
X54899136Y-71604650D01*
X53972503Y-72600560D02*
X53944580Y-72635574D01*
X53944580Y-72635574D02*
X53925148Y-72675925D01*
X52947202Y-71575258D02*
X52919278Y-71610273D01*
X53925148Y-72675925D02*
X53915182Y-72719588D01*
X71637310Y-75422500D02*
X72061161Y-74998649D01*
X72061161Y-74998649D02*
X72308649Y-74998649D01*
X52912416Y-71088719D02*
X52902450Y-71132382D01*
X51987500Y-70057310D02*
X52855095Y-70924904D01*
X54530750Y-71582693D02*
X53721243Y-72392201D01*
X54455385Y-71252496D02*
X54495735Y-71271928D01*
X54411723Y-71242531D02*
X54455385Y-71252496D01*
X54366937Y-71242531D02*
X54411723Y-71242531D01*
X54323273Y-71252496D02*
X54366937Y-71242531D01*
X52554168Y-71661295D02*
X52554168Y-71772064D01*
X54247908Y-71299851D02*
X54282923Y-71271929D01*
X55521037Y-72297230D02*
X55556052Y-72325153D01*
X52578817Y-71553302D02*
X52554168Y-71661295D01*
X53853880Y-71693880D02*
X54247908Y-71299851D01*
X52912416Y-71043933D02*
X52912416Y-71088719D01*
X55556052Y-72325153D02*
X55583976Y-72360168D01*
X54282923Y-71271929D02*
X54323273Y-71252496D01*
X54495735Y-71271928D02*
X54530750Y-71299851D01*
X54530750Y-71299851D02*
X54558674Y-71334866D01*
X53604118Y-72905358D02*
X53652179Y-73005158D01*
X52902450Y-71000270D02*
X52912416Y-71043933D01*
X55327836Y-73380106D02*
X55396899Y-73466708D01*
X52902450Y-71132382D02*
X52883018Y-71172732D01*
X53351801Y-72178425D02*
X53438404Y-72109361D01*
X52825447Y-72178425D02*
X52925246Y-72226486D01*
X53721243Y-72392201D02*
X53652179Y-72478804D01*
X55437025Y-72267833D02*
X55480687Y-72277798D01*
X52855095Y-70924904D02*
X52883018Y-70959919D01*
X55255125Y-73172312D02*
X55279774Y-73280305D01*
X55255126Y-73061544D02*
X55255125Y-73172312D01*
X55327836Y-72853752D02*
X55279775Y-72953551D01*
X50571351Y-62888649D02*
X50846350Y-63163648D01*
X52883018Y-70959919D02*
X52902450Y-71000270D01*
X55279774Y-73280305D02*
X55327836Y-73380106D01*
X53652179Y-73005158D02*
X53721243Y-73091761D01*
X53721243Y-73091761D02*
X53764143Y-73134662D01*
X54169308Y-73276436D02*
X54277301Y-73251787D01*
X54588072Y-71463666D02*
X54578105Y-71507328D01*
X51987500Y-64057310D02*
X51987500Y-70057310D01*
X54588072Y-71418880D02*
X54588072Y-71463666D01*
X50846350Y-63163648D02*
X51093838Y-63163648D01*
X53652179Y-72478804D02*
X53604118Y-72578604D01*
X52883018Y-71172732D02*
X52855095Y-71207747D01*
X52695942Y-72066460D02*
X52738843Y-72109361D01*
X52855095Y-71207747D02*
X52695942Y-71366899D01*
X52695942Y-71366899D02*
X52626878Y-71453503D01*
X53459855Y-72087911D02*
X53853883Y-71693882D01*
X52626878Y-71453503D02*
X52578817Y-71553302D01*
X53853883Y-71693882D02*
X53853880Y-71693880D01*
X52554168Y-71772064D02*
X52578817Y-71880057D01*
X55396899Y-73466708D02*
X57352690Y-75422500D01*
X52578817Y-71880057D02*
X52626878Y-71979857D01*
X52626878Y-71979857D02*
X52695942Y-72066460D01*
X52925246Y-72226486D02*
X53033239Y-72251135D01*
X52738843Y-72109361D02*
X52825447Y-72178425D01*
X53033239Y-72251135D02*
X53144008Y-72251135D01*
X53144008Y-72251135D02*
X53252001Y-72226486D01*
X53252001Y-72226486D02*
X53351801Y-72178425D01*
X55603407Y-72532630D02*
X55583975Y-72572980D01*
X53438404Y-72109361D02*
X53459855Y-72087911D01*
X55392239Y-72267833D02*
X55437025Y-72267833D01*
X54558674Y-71334866D02*
X54578105Y-71375216D01*
X54578105Y-71375216D02*
X54588072Y-71418880D01*
X54578105Y-71507328D02*
X54558673Y-71547678D01*
X53604118Y-72578604D02*
X53579469Y-72686596D01*
X53579469Y-72686596D02*
X53579469Y-72797366D01*
X53579469Y-72797366D02*
X53604118Y-72905358D01*
X53850747Y-73203726D02*
X53950546Y-73251787D01*
X55583976Y-72360168D02*
X55603407Y-72400518D01*
X53950546Y-73251787D02*
X54058539Y-73276436D01*
X54058539Y-73276436D02*
X54169308Y-73276436D01*
X54277301Y-73251787D02*
X54377101Y-73203726D01*
X54377101Y-73203726D02*
X54463704Y-73134662D01*
X54463704Y-73134662D02*
X54485155Y-73113212D01*
X54485155Y-73113212D02*
X55273210Y-72325153D01*
X51093838Y-63163648D02*
X51987500Y-64057310D01*
X55273210Y-72325153D02*
X55308225Y-72297231D01*
X55348575Y-72277798D02*
X55392239Y-72267833D01*
X55480687Y-72277798D02*
X55521037Y-72297230D01*
X55308225Y-72297231D02*
X55348575Y-72277798D01*
X55603407Y-72400518D02*
X55613374Y-72444182D01*
X55613374Y-72444182D02*
X55613374Y-72488968D01*
X55613374Y-72488968D02*
X55603407Y-72532630D01*
X55583975Y-72572980D02*
X55556052Y-72607995D01*
X55556052Y-72607995D02*
X55396900Y-72767148D01*
X55396900Y-72767148D02*
X55327836Y-72853752D01*
X55279775Y-72953551D02*
X55255126Y-73061544D01*
X53764143Y-73134662D02*
X53850747Y-73203726D01*
X54558673Y-71547678D02*
X54530750Y-71582693D01*
X57352690Y-75422500D02*
X71637310Y-75422500D01*
X52267310Y-59667500D02*
X51422690Y-59667500D01*
X54072500Y-61472690D02*
X52267310Y-59667500D01*
X54072500Y-68732690D02*
X54072500Y-61472690D01*
X70962049Y-73534546D02*
X70914546Y-73582049D01*
X70997790Y-73477665D02*
X70962049Y-73534546D01*
X71027500Y-73347500D02*
X71019978Y-73414256D01*
X71027500Y-73167949D02*
X71027500Y-73347500D01*
X71035021Y-73101192D02*
X71027500Y-73167949D01*
X71057209Y-73037783D02*
X71035021Y-73101192D01*
X51422690Y-59667500D02*
X51008839Y-60081351D01*
X71092950Y-72980902D02*
X71057209Y-73037783D01*
X71327500Y-72867949D02*
X71260743Y-72875470D01*
X71394256Y-72875470D02*
X71327500Y-72867949D01*
X71019978Y-73414256D02*
X70997790Y-73477665D01*
X72292950Y-72980902D02*
X72257209Y-73037783D01*
X72340453Y-72933399D02*
X72292950Y-72980902D01*
X58987310Y-73647500D02*
X54072500Y-68732690D01*
X71260743Y-72875470D02*
X71197334Y-72897658D01*
X72594256Y-72875470D02*
X72527500Y-72867949D01*
X72827500Y-73167949D02*
X72819978Y-73101192D01*
X72657665Y-72897658D02*
X72594256Y-72875470D01*
X70857665Y-73617790D02*
X70794256Y-73639978D01*
X71740453Y-73582049D02*
X71692950Y-73534546D01*
X71457665Y-72897658D02*
X71394256Y-72875470D01*
X72397334Y-72897658D02*
X72340453Y-72933399D01*
X70914546Y-73582049D02*
X70857665Y-73617790D01*
X71797334Y-73617790D02*
X71740453Y-73582049D01*
X71514546Y-72933399D02*
X71457665Y-72897658D01*
X73060743Y-73639978D02*
X72997334Y-73617790D01*
X72235021Y-73101192D02*
X72227500Y-73167949D01*
X72827500Y-73347500D02*
X72827500Y-73167949D01*
X73127500Y-73647500D02*
X73060743Y-73639978D01*
X72857209Y-73477665D02*
X72835021Y-73414256D01*
X75181351Y-73121351D02*
X75181351Y-73368839D01*
X72819978Y-73101192D02*
X72797790Y-73037783D01*
X72057665Y-73617790D02*
X71994256Y-73639978D01*
X71635021Y-73414256D02*
X71627500Y-73347500D01*
X74902690Y-73647500D02*
X73127500Y-73647500D01*
X75181351Y-73368839D02*
X74902690Y-73647500D01*
X71927500Y-73647500D02*
X71860743Y-73639978D01*
X72527500Y-72867949D02*
X72460743Y-72875470D01*
X72997334Y-73617790D02*
X72940453Y-73582049D01*
X72460743Y-72875470D02*
X72397334Y-72897658D01*
X72940453Y-73582049D02*
X72892950Y-73534546D01*
X51008839Y-60081351D02*
X50761351Y-60081351D01*
X70727500Y-73647500D02*
X58987310Y-73647500D01*
X72227500Y-73347500D02*
X72219978Y-73414256D01*
X72835021Y-73414256D02*
X72827500Y-73347500D01*
X71994256Y-73639978D02*
X71927500Y-73647500D01*
X71197334Y-72897658D02*
X71140453Y-72933399D01*
X72257209Y-73037783D02*
X72235021Y-73101192D01*
X71627500Y-73347500D02*
X71627500Y-73167949D01*
X72892950Y-73534546D02*
X72857209Y-73477665D01*
X72227500Y-73167949D02*
X72227500Y-73347500D01*
X72219978Y-73414256D02*
X72197790Y-73477665D01*
X70794256Y-73639978D02*
X70727500Y-73647500D01*
X71692950Y-73534546D02*
X71657209Y-73477665D01*
X72797790Y-73037783D02*
X72762049Y-72980902D01*
X72197790Y-73477665D02*
X72162049Y-73534546D01*
X71140453Y-72933399D02*
X71092950Y-72980902D01*
X72762049Y-72980902D02*
X72714546Y-72933399D01*
X72162049Y-73534546D02*
X72114546Y-73582049D01*
X71619978Y-73101192D02*
X71597790Y-73037783D01*
X71860743Y-73639978D02*
X71797334Y-73617790D01*
X71657209Y-73477665D02*
X71635021Y-73414256D01*
X71627500Y-73167949D02*
X71619978Y-73101192D01*
X71597790Y-73037783D02*
X71562049Y-72980902D01*
X72714546Y-72933399D02*
X72657665Y-72897658D01*
X72114546Y-73582049D02*
X72057665Y-73617790D01*
X71562049Y-72980902D02*
X71514546Y-72933399D01*
X58852690Y-73972500D02*
X75037310Y-73972500D01*
X53747500Y-68867310D02*
X58852690Y-73972500D01*
X52132690Y-59992500D02*
X53747500Y-61607310D01*
X75411161Y-73598649D02*
X75658649Y-73598649D01*
X75037310Y-73972500D02*
X75411161Y-73598649D01*
X51557310Y-59992500D02*
X52132690Y-59992500D01*
X51238649Y-60558649D02*
X51238649Y-60311161D01*
X53747500Y-61607310D02*
X53747500Y-68867310D01*
X51238649Y-60311161D02*
X51557310Y-59992500D01*
X59828771Y-67498261D02*
X59853420Y-67606254D01*
X59668745Y-67268957D02*
X59711646Y-67311858D01*
X59780710Y-67398462D02*
X59828771Y-67498261D01*
X59853420Y-67606254D02*
X59853419Y-67717022D01*
X58969185Y-67268957D02*
X59055789Y-67199894D01*
X60365455Y-69595645D02*
X63267310Y-72497500D01*
X59482342Y-67151832D02*
X59582141Y-67199892D01*
X59711646Y-67311858D02*
X59780710Y-67398462D01*
X50601351Y-58571351D02*
X50848839Y-58571351D01*
X57795394Y-68435659D02*
X57830409Y-68407736D01*
X57711381Y-68465057D02*
X57755044Y-68455091D01*
X59711645Y-68011418D02*
X59690196Y-68032870D01*
X59582141Y-67199892D02*
X59668745Y-67268957D01*
X59780710Y-67924816D02*
X59711645Y-68011418D01*
X57622932Y-68455091D02*
X57666595Y-68465057D01*
X58855710Y-69433037D02*
X59756594Y-68532153D01*
X59155588Y-67151832D02*
X59263581Y-67127184D01*
X69031351Y-72468839D02*
X69031351Y-72221351D01*
X57988480Y-67287949D02*
X58013129Y-67395941D01*
X58607882Y-69460960D02*
X58648233Y-69480392D01*
X60622610Y-68921516D02*
X60622609Y-69018050D01*
X58013129Y-67395941D02*
X58013129Y-67506710D01*
X59690196Y-68032870D02*
X59016627Y-68706436D01*
X58544945Y-69398022D02*
X58572868Y-69433037D01*
X69002690Y-72497500D02*
X69031351Y-72468839D01*
X57871355Y-67101546D02*
X57940419Y-67188149D01*
X60327469Y-69516768D02*
X60334073Y-69545702D01*
X57666595Y-68465057D02*
X57711381Y-68465057D01*
X57582581Y-68435659D02*
X57622932Y-68455091D01*
X57988480Y-67614703D02*
X57940419Y-67714503D01*
X51082690Y-58337500D02*
X53657310Y-58337500D01*
X59756594Y-68532153D02*
X59832068Y-68471965D01*
X57755044Y-68455091D02*
X57795394Y-68435659D01*
X60480361Y-69293309D02*
X60365454Y-69408213D01*
X60334073Y-69545702D02*
X60346950Y-69572441D01*
X57500211Y-68200259D02*
X57490245Y-68243922D01*
X63267310Y-72497500D02*
X69002690Y-72497500D01*
X57592500Y-62272690D02*
X57592500Y-66822690D01*
X57940419Y-67714503D02*
X57871355Y-67801106D01*
X57519643Y-68159908D02*
X57500211Y-68200259D01*
X57547567Y-68124893D02*
X57519643Y-68159908D01*
X60346951Y-69431417D02*
X60334073Y-69458156D01*
X57940419Y-67188149D02*
X57988480Y-67287949D01*
X60559244Y-68740426D02*
X60601129Y-68827401D01*
X57490245Y-68243922D02*
X57490245Y-68288708D01*
X57830409Y-68407736D02*
X58969185Y-67268957D01*
X57519643Y-68372721D02*
X57547567Y-68407736D01*
X57871355Y-67801106D02*
X57547567Y-68124893D01*
X60601129Y-68827401D02*
X60622610Y-68921516D01*
X57500211Y-68332371D02*
X57519643Y-68372721D01*
X57547567Y-68407736D02*
X57582581Y-68435659D01*
X58572868Y-69150194D02*
X58544945Y-69185209D01*
X59828770Y-67825015D02*
X59780710Y-67924816D01*
X58525513Y-69357672D02*
X58544945Y-69398022D01*
X59832068Y-68471965D02*
X59919043Y-68430080D01*
X58544945Y-69185209D02*
X58525513Y-69225560D01*
X50848839Y-58571351D02*
X51082690Y-58337500D01*
X60622609Y-69018050D02*
X60601129Y-69112165D01*
X53657310Y-58337500D02*
X57592500Y-62272690D01*
X58515547Y-69269223D02*
X58515547Y-69314009D01*
X59263581Y-67127184D02*
X59374349Y-67127182D01*
X58691896Y-69490358D02*
X58736682Y-69490358D01*
X58515547Y-69314009D02*
X58525513Y-69357672D01*
X58572868Y-69433037D02*
X58607882Y-69460960D01*
X58648233Y-69480392D02*
X58691896Y-69490358D01*
X58780345Y-69480392D02*
X58820695Y-69460960D01*
X58820695Y-69460960D02*
X58855710Y-69433037D01*
X59919043Y-68430080D02*
X60013158Y-68408599D01*
X60499054Y-69274613D02*
X60480361Y-69293309D01*
X59055789Y-67199894D02*
X59155588Y-67151832D01*
X60013158Y-68408599D02*
X60109692Y-68408598D01*
X57490245Y-68288708D02*
X57500211Y-68332371D01*
X60109692Y-68408598D02*
X60203805Y-68430078D01*
X58013129Y-67506710D02*
X57988480Y-67614703D01*
X60203805Y-68430078D02*
X60290780Y-68471963D01*
X60366254Y-68532151D02*
X60499054Y-68664951D01*
X60499054Y-68664951D02*
X60559244Y-68740426D01*
X60601129Y-69112165D02*
X60559244Y-69199140D01*
X57592500Y-66822690D02*
X57871355Y-67101546D01*
X60559244Y-69199140D02*
X60499054Y-69274613D01*
X59853419Y-67717022D02*
X59828770Y-67825015D01*
X59374349Y-67127182D02*
X59482342Y-67151832D01*
X60365454Y-69408213D02*
X60346951Y-69431417D01*
X60334073Y-69458156D02*
X60327469Y-69487090D01*
X58736682Y-69490358D02*
X58780345Y-69480392D01*
X60327469Y-69487090D02*
X60327469Y-69516768D01*
X60346950Y-69572441D02*
X60365455Y-69595645D01*
X58525513Y-69225560D02*
X58515547Y-69269223D01*
X59016627Y-68706436D02*
X58572868Y-69150194D01*
X60290780Y-68471963D02*
X60366254Y-68532151D01*
D16*
X61400000Y-52320000D02*
X60420000Y-51340000D01*
X61400000Y-55150000D02*
X61400000Y-52320000D01*
X60420000Y-51340000D02*
X60420000Y-51302844D01*
X60420000Y-51302844D02*
X60278032Y-51160876D01*
X60278032Y-51160876D02*
X59889124Y-51160876D01*
X58270000Y-83320000D02*
X60475001Y-85525001D01*
X60475001Y-85525001D02*
X60475001Y-91635001D01*
X60475001Y-91635001D02*
X60750000Y-91910000D01*
X58270000Y-80250000D02*
X58270000Y-83320000D01*
X58964124Y-45725876D02*
X58995876Y-45725876D01*
X58540000Y-46150000D02*
X58964124Y-45725876D01*
X54300000Y-46150000D02*
X58540000Y-46150000D01*
D17*
X50660000Y-75810000D02*
X50660000Y-72360010D01*
X51520000Y-76670000D02*
X50660000Y-75810000D01*
X50660000Y-72360010D02*
X50670000Y-72350010D01*
D16*
X59970000Y-82360000D02*
X62444999Y-79885001D01*
X66095001Y-80485001D02*
X66370000Y-80760000D01*
X62444999Y-79885001D02*
X65495001Y-79885001D01*
X65495001Y-79885001D02*
X66095001Y-80485001D01*
D15*
X67980708Y-56489125D02*
X67937808Y-56532027D01*
X68049771Y-56402523D02*
X67980708Y-56489125D01*
X68097833Y-56302722D02*
X68049771Y-56402523D01*
X67616062Y-54828855D02*
X67550000Y-54776173D01*
X68122481Y-56194731D02*
X68097833Y-56302722D01*
X67530000Y-55320000D02*
X67963781Y-55753781D01*
X65651304Y-57215600D02*
X65616290Y-57243523D01*
X67125350Y-54914532D02*
X67135888Y-54927746D01*
X67118017Y-54899304D02*
X67125350Y-54914532D01*
X67114256Y-54865924D02*
X67114256Y-54882825D01*
X67980706Y-55789567D02*
X68049771Y-55876169D01*
X67430000Y-55220000D02*
X67544906Y-55334903D01*
X67118017Y-54849445D02*
X67114256Y-54865924D01*
X66618107Y-57699106D02*
X66507337Y-57699107D01*
X64382500Y-58477310D02*
X64382500Y-59502690D01*
X67125350Y-54834217D02*
X67118017Y-54849445D01*
X67114256Y-54882825D02*
X67118017Y-54899304D01*
X67390289Y-54627032D02*
X67373811Y-54623271D01*
X67692191Y-54865517D02*
X67616062Y-54828855D01*
X67859066Y-54884320D02*
X67774569Y-54884320D01*
X67550000Y-54776173D02*
X67533637Y-54759809D01*
X66091546Y-55948337D02*
X66102084Y-55961551D01*
X67941445Y-54865517D02*
X67859066Y-54884320D01*
X67751405Y-56649152D02*
X67643412Y-56673801D01*
X67024466Y-57427828D02*
X66955403Y-57514430D01*
X64382500Y-59502690D02*
X64641161Y-59761351D01*
X67532642Y-56673802D02*
X67424649Y-56649153D01*
X67311988Y-54644904D02*
X67135888Y-54821003D01*
X67356909Y-54623271D02*
X67340431Y-54627032D01*
X68083636Y-54776173D02*
X68017574Y-54828855D01*
X67373811Y-54623271D02*
X67356909Y-54623271D01*
X66102084Y-55961551D02*
X66385265Y-56244732D01*
X73137500Y-46000000D02*
X73137500Y-46395000D01*
X73137500Y-46395000D02*
X72942500Y-46590000D01*
X67959257Y-55768115D02*
X67980706Y-55789567D01*
X66726100Y-57674457D02*
X66618107Y-57699106D01*
X67340431Y-54627032D02*
X67325203Y-54634365D01*
X66084213Y-55883250D02*
X66080452Y-55899729D01*
X65780104Y-57186201D02*
X65735318Y-57186201D01*
X67135888Y-54927746D02*
X67419069Y-55210927D01*
X68122481Y-56083961D02*
X68122481Y-56194731D01*
X66933952Y-56793420D02*
X66955401Y-56814872D01*
X67135888Y-54821003D02*
X67125350Y-54834217D01*
X72942500Y-49917310D02*
X68083636Y-54776173D01*
X68017574Y-54828855D02*
X67941445Y-54865517D01*
X67533637Y-54759809D02*
X67418732Y-54644904D01*
X67643412Y-56673801D02*
X67532642Y-56673802D01*
X68097831Y-55975970D02*
X68122481Y-56083961D01*
X67418732Y-54644904D02*
X67405517Y-54634365D01*
X67405517Y-54634365D02*
X67390289Y-54627032D01*
X67774569Y-54884320D02*
X67692191Y-54865517D01*
X67097176Y-57220036D02*
X67072528Y-57328027D01*
X65691654Y-57196168D02*
X65651304Y-57215600D01*
X67325203Y-54634365D02*
X67311988Y-54644904D01*
X67324850Y-56601091D02*
X67238246Y-56532028D01*
X66641593Y-56501061D02*
X66933952Y-56793420D01*
X67238246Y-56532028D02*
X66384927Y-55678709D01*
X65823766Y-57196168D02*
X65780104Y-57186201D01*
X66384927Y-55678709D02*
X66371713Y-55668171D01*
X66371713Y-55668171D02*
X66356485Y-55660837D01*
X66212941Y-57557333D02*
X65899132Y-57243524D01*
X66356485Y-55660837D02*
X66340006Y-55657076D01*
X66340006Y-55657076D02*
X66323105Y-55657076D01*
X66323105Y-55657076D02*
X66306626Y-55660837D01*
X67424649Y-56649153D02*
X67324850Y-56601091D01*
X66306626Y-55660837D02*
X66291398Y-55668171D01*
X66091546Y-55868022D02*
X66084213Y-55883250D01*
X66299545Y-57626396D02*
X66212941Y-57557333D01*
X66385265Y-56244736D02*
X66641593Y-56501061D01*
X66102084Y-55854808D02*
X66091546Y-55868022D01*
X66080452Y-55916630D02*
X66084213Y-55933109D01*
X66084213Y-55933109D02*
X66091546Y-55948337D01*
X66385265Y-56244732D02*
X66385265Y-56244736D01*
X67937808Y-56532027D02*
X67851204Y-56601091D01*
X67024466Y-56901474D02*
X67072526Y-57001275D01*
X72942500Y-46590000D02*
X72942500Y-49917310D01*
X66278184Y-55678709D02*
X66102084Y-55854808D01*
X67072526Y-57001275D02*
X67097176Y-57109266D01*
X67851204Y-56601091D02*
X67751405Y-56649152D01*
X66080452Y-55899729D02*
X66080452Y-55916630D01*
X66291398Y-55668171D02*
X66278184Y-55678709D01*
X67097176Y-57109266D02*
X67097176Y-57220036D01*
X67072528Y-57328027D02*
X67024466Y-57427828D01*
X66507337Y-57699107D02*
X66399344Y-57674458D01*
X66955403Y-57514430D02*
X66912503Y-57557332D01*
X66912503Y-57557332D02*
X66825899Y-57626396D01*
X68049771Y-55876169D02*
X68097831Y-55975970D01*
X66955401Y-56814872D02*
X67024466Y-56901474D01*
X66825899Y-57626396D02*
X66726100Y-57674457D01*
X66399344Y-57674458D02*
X66299545Y-57626396D01*
X65899132Y-57243524D02*
X65864118Y-57215599D01*
X65864118Y-57215599D02*
X65823766Y-57196168D01*
X65735318Y-57186201D02*
X65691654Y-57196168D01*
X65616290Y-57243523D02*
X64382500Y-58477310D01*
X64641161Y-59761351D02*
X64888649Y-59761351D01*
X66049135Y-52469345D02*
X66039169Y-52513008D01*
X66039169Y-52380896D02*
X66049135Y-52424559D01*
X65991815Y-52588375D02*
X65956800Y-52616298D01*
X66019737Y-52340545D02*
X66039169Y-52380896D01*
X62673613Y-56831240D02*
X62665111Y-56848895D01*
X65838363Y-51991959D02*
X65828397Y-52035622D01*
X65885719Y-51916594D02*
X65857795Y-51951608D01*
X66393685Y-52080011D02*
X66350022Y-52070045D01*
X66004747Y-51859273D02*
X65961084Y-51869239D01*
X66093196Y-51869239D02*
X66049533Y-51859273D01*
X66168561Y-51916594D02*
X66133547Y-51888671D01*
X66274657Y-52022690D02*
X66168561Y-51916594D01*
X65320065Y-53260125D02*
X63130190Y-55450000D01*
X66309672Y-52050613D02*
X66274657Y-52022690D01*
X65272678Y-52557644D02*
X65262712Y-52601307D01*
X66438471Y-52080011D02*
X66393685Y-52080011D01*
X66039169Y-52513008D02*
X66019737Y-52553358D01*
X65885719Y-52199436D02*
X65991814Y-52305531D01*
X66522485Y-52050613D02*
X66482134Y-52070045D01*
X65395399Y-52434924D02*
X65355049Y-52454356D01*
X65838363Y-52124071D02*
X65857795Y-52164421D01*
X62673612Y-56773442D02*
X62677973Y-56792544D01*
X59142690Y-59602500D02*
X59501351Y-59961161D01*
X65828397Y-52080408D02*
X65838363Y-52124071D01*
X58627310Y-59602500D02*
X59142690Y-59602500D01*
X65872786Y-52645696D02*
X65828000Y-52645696D01*
X65916449Y-52635730D02*
X65872786Y-52645696D01*
X61958397Y-55260611D02*
X61915496Y-55303512D01*
X62252793Y-55118837D02*
X62144800Y-55143486D01*
X65473484Y-52946581D02*
X65483450Y-52990244D01*
X65355049Y-52454356D02*
X65320034Y-52482279D01*
X66557500Y-52022690D02*
X66522485Y-52050613D01*
X65828000Y-52645696D02*
X65784337Y-52635730D01*
X66049135Y-52424559D02*
X66049135Y-52469345D01*
X62847347Y-55450000D02*
X62657958Y-55260611D01*
X65857795Y-52164421D02*
X65885719Y-52199436D01*
X62045001Y-55191547D02*
X61958397Y-55260611D01*
X65483848Y-52424958D02*
X65439062Y-52424958D01*
X65920734Y-51888671D02*
X65885719Y-51916594D01*
X65828397Y-52035622D02*
X65828397Y-52080408D01*
X61835099Y-56799528D02*
X61756685Y-56837290D01*
X66482134Y-52070045D02*
X66438471Y-52080011D01*
X62363562Y-55118837D02*
X62252793Y-55118837D01*
X66049533Y-51859273D02*
X66004747Y-51859273D01*
X66557500Y-50395000D02*
X66557500Y-52022690D01*
X65426129Y-52871216D02*
X65454052Y-52906230D01*
X61846432Y-55390116D02*
X61798371Y-55489915D01*
X66382500Y-50220000D02*
X66557500Y-50395000D01*
X65956800Y-52616298D02*
X65916449Y-52635730D01*
X62471555Y-55143486D02*
X62363562Y-55118837D01*
X66133547Y-51888671D02*
X66093196Y-51869239D01*
X62460823Y-57044031D02*
X62441722Y-57048391D01*
X65743987Y-52616298D02*
X65708972Y-52588375D01*
X62966375Y-55507321D02*
X62922712Y-55497355D01*
X66350022Y-52070045D02*
X66309672Y-52050613D01*
X66019737Y-52553358D02*
X65991815Y-52588375D01*
X61773722Y-55708677D02*
X61798371Y-55816670D01*
X65857795Y-51951608D02*
X65838363Y-51991959D01*
X62423084Y-56510660D02*
X62652894Y-56740470D01*
X61756685Y-56837290D02*
X61688639Y-56891555D01*
X58897310Y-61167500D02*
X58232500Y-60502690D01*
X62652894Y-56740470D02*
X62665111Y-56755789D01*
X65292110Y-52730106D02*
X65320034Y-52765121D01*
X63095175Y-55477923D02*
X63054824Y-55497355D01*
X62665111Y-56755789D02*
X62673612Y-56773442D01*
X62922712Y-55497355D02*
X62882362Y-55477923D01*
X62677973Y-56812138D02*
X62673613Y-56831240D01*
X62882362Y-55477923D02*
X62847347Y-55450000D01*
X65961084Y-51869239D02*
X65920734Y-51888671D01*
X62665111Y-56848895D02*
X62652894Y-56864214D01*
X65991814Y-52305531D02*
X66019737Y-52340545D01*
X65784337Y-52635730D02*
X65743987Y-52616298D01*
X65708972Y-52588375D02*
X65602876Y-52482279D01*
X65602876Y-52482279D02*
X65567862Y-52454356D01*
X65567862Y-52454356D02*
X65527511Y-52434924D01*
X65527511Y-52434924D02*
X65483848Y-52424958D01*
X65439062Y-52424958D02*
X65395399Y-52434924D01*
X65320034Y-52482279D02*
X65292110Y-52517293D01*
X65292110Y-52517293D02*
X65272678Y-52557644D01*
X65262712Y-52601307D02*
X65262712Y-52646093D01*
X65262712Y-52646093D02*
X65272678Y-52689756D01*
X65272678Y-52689756D02*
X65292110Y-52730106D01*
X61798371Y-55816670D02*
X61846432Y-55916470D01*
X62238293Y-56891555D02*
X62170249Y-56837290D01*
X65320034Y-52765121D02*
X65426129Y-52871216D01*
X65454052Y-52906230D02*
X65473484Y-52946581D01*
X62006984Y-56780161D02*
X61919950Y-56780161D01*
X65483450Y-52990244D02*
X65483450Y-53035030D01*
X65483450Y-53035030D02*
X65473484Y-53078693D01*
X65473484Y-53078693D02*
X65454052Y-53119043D01*
X65454052Y-53119043D02*
X65426129Y-53154060D01*
X65426129Y-53154060D02*
X65320065Y-53260125D01*
X63130190Y-55450000D02*
X63095175Y-55477923D01*
X63054824Y-55497355D02*
X63011161Y-55507321D01*
X63011161Y-55507321D02*
X62966375Y-55507321D01*
X62361214Y-56448787D02*
X62423084Y-56510660D01*
X62657958Y-55260611D02*
X62571355Y-55191547D01*
X62677973Y-56792544D02*
X62677973Y-56812138D01*
X62571355Y-55191547D02*
X62471555Y-55143486D01*
X62144800Y-55143486D02*
X62045001Y-55191547D01*
X61915496Y-55303512D02*
X61846432Y-55390116D01*
X61798371Y-55489915D02*
X61773722Y-55597908D01*
X61773722Y-55597908D02*
X61773722Y-55708677D01*
X61846432Y-55916470D02*
X61915496Y-56003073D01*
X61915496Y-56003073D02*
X62361211Y-56448788D01*
X62361211Y-56448788D02*
X62361214Y-56448787D01*
X58232500Y-59997310D02*
X58627310Y-59602500D01*
X62652894Y-56864214D02*
X62493796Y-57023313D01*
X62493796Y-57023313D02*
X62478476Y-57035530D01*
X62478476Y-57035530D02*
X62460823Y-57044031D01*
X62441722Y-57048391D02*
X62422128Y-57048391D01*
X62422128Y-57048391D02*
X62403025Y-57044030D01*
X58232500Y-60502690D02*
X58232500Y-59997310D01*
X62403025Y-57044030D02*
X62385372Y-57035529D01*
X62385372Y-57035529D02*
X62370052Y-57023314D01*
X62370052Y-57023314D02*
X62238293Y-56891555D01*
X59501351Y-59961161D02*
X59501351Y-60208649D01*
X62170249Y-56837290D02*
X62091835Y-56799528D01*
X62091835Y-56799528D02*
X62006984Y-56780161D01*
X61919950Y-56780161D02*
X61835099Y-56799528D01*
X61688639Y-56891555D02*
X61671786Y-56908409D01*
X61671786Y-56908409D02*
X61017500Y-57562690D01*
X61017500Y-57562690D02*
X61017500Y-60292690D01*
X61017500Y-60292690D02*
X60142690Y-61167500D01*
X60142690Y-61167500D02*
X58897310Y-61167500D01*
X62119585Y-57254904D02*
X62004681Y-57140000D01*
X62991585Y-56930709D02*
X62953824Y-57009123D01*
X62285784Y-55454550D02*
X62242121Y-55464515D01*
X61934567Y-57117500D02*
X61916914Y-57126001D01*
X62991584Y-56673975D02*
X63010951Y-56758826D01*
X58762690Y-61492500D02*
X57907500Y-60637310D01*
X59731161Y-59731351D02*
X59978649Y-59731351D01*
X60277310Y-61492500D02*
X58762690Y-61492500D01*
X62475442Y-57381369D02*
X62388408Y-57381369D01*
X61342500Y-60427310D02*
X60277310Y-61492500D01*
X58492690Y-59277500D02*
X59277310Y-59277500D01*
X61342500Y-57697310D02*
X61342500Y-60427310D01*
X61916914Y-57126001D02*
X61901595Y-57138218D01*
X61953669Y-57113141D02*
X61934567Y-57117500D01*
X61973263Y-57113141D02*
X61953669Y-57113141D01*
X66882500Y-52157310D02*
X63338548Y-55701260D01*
X61997655Y-57128500D02*
X61980000Y-57120000D01*
X62138832Y-55759698D02*
X62166756Y-55794713D01*
X62374233Y-55464515D02*
X62330570Y-55454550D01*
X62109434Y-55630899D02*
X62109434Y-55675685D01*
X57907500Y-60637310D02*
X57907500Y-59862690D01*
X62109434Y-55675685D02*
X62119400Y-55719348D01*
X62388408Y-57381369D02*
X62303557Y-57362002D01*
X62414584Y-55483947D02*
X62374233Y-55464515D01*
X63010951Y-56758826D02*
X63010952Y-56845858D01*
X62725591Y-55770324D02*
X62638988Y-55701260D01*
X62330570Y-55454550D02*
X62285784Y-55454550D01*
X59277310Y-59277500D02*
X59731161Y-59731351D01*
X62201771Y-55483947D02*
X62166756Y-55511871D01*
X63251945Y-55770324D02*
X63152145Y-55818385D01*
X62449599Y-55511871D02*
X62414584Y-55483947D01*
X67057500Y-50220000D02*
X66882500Y-50395000D01*
X62156854Y-57276855D02*
X62140000Y-57260000D01*
X62638988Y-55701260D02*
X62449599Y-55511871D01*
X62225143Y-57324240D02*
X62157097Y-57269977D01*
X62166756Y-55511871D02*
X62138832Y-55546885D01*
X62706751Y-57269977D02*
X62638707Y-57324240D01*
X62825391Y-55818385D02*
X62725591Y-55770324D01*
X63044153Y-55843034D02*
X62933384Y-55843034D01*
X62242121Y-55464515D02*
X62201771Y-55483947D01*
X66882500Y-50395000D02*
X66882500Y-52157310D01*
X62933384Y-55843034D02*
X62825391Y-55818385D01*
X62560293Y-57362002D02*
X62475442Y-57381369D01*
X62166756Y-55787197D02*
X62899557Y-56520000D01*
X57907500Y-59862690D02*
X58492690Y-59277500D01*
X61901595Y-57138218D02*
X61342500Y-57697310D01*
X62899557Y-56527516D02*
X62953822Y-56595561D01*
X63152145Y-55818385D02*
X63044153Y-55843034D01*
X62119400Y-55719348D02*
X62138832Y-55759698D01*
X62020000Y-57152217D02*
X62004681Y-57140000D01*
X62953822Y-56595561D02*
X62991584Y-56673975D01*
X62138832Y-55546885D02*
X62119400Y-55587236D01*
X63010952Y-56845858D02*
X62991585Y-56930709D01*
X62119400Y-55587236D02*
X62109434Y-55630899D01*
X62953824Y-57009123D02*
X62899559Y-57077168D01*
X62899559Y-57077168D02*
X62706751Y-57269977D01*
X62638707Y-57324240D02*
X62560293Y-57362002D01*
X61980449Y-57127820D02*
X61961347Y-57123460D01*
X63338548Y-55701260D02*
X63251945Y-55770324D01*
X62303557Y-57362002D02*
X62225143Y-57324240D01*
X61419806Y-63819717D02*
X61443633Y-63781796D01*
X61405014Y-63861989D02*
X61419806Y-63819717D01*
X60924697Y-63750127D02*
X60956366Y-63781796D01*
X61400000Y-63906493D02*
X61405014Y-63861989D01*
X60580193Y-64174277D02*
X60594985Y-64132005D01*
X60328649Y-62908649D02*
X60081161Y-62908649D01*
X61394985Y-64132005D02*
X61400000Y-64087500D01*
X60886776Y-63726300D02*
X60924697Y-63750127D01*
X62000000Y-64287500D02*
X62782690Y-64287500D01*
X61286776Y-64267694D02*
X61324697Y-64243867D01*
X69657500Y-50832690D02*
X69657500Y-50255000D01*
X61200000Y-64287500D02*
X61244504Y-64282486D01*
X61155495Y-64282486D02*
X61200000Y-64287500D01*
X60081161Y-62908649D02*
X59572500Y-63417310D01*
X61113223Y-64267694D02*
X61155495Y-64282486D01*
X60600000Y-63906493D02*
X60605014Y-63861989D01*
X60755495Y-63711508D02*
X60800000Y-63706493D01*
X61075302Y-64243867D02*
X61113223Y-64267694D01*
X61000000Y-64087500D02*
X61005014Y-64132005D01*
X60675302Y-63750127D02*
X60713223Y-63726300D01*
X61000000Y-63906493D02*
X61000000Y-64087500D01*
X61043633Y-64212198D02*
X61075302Y-64243867D01*
X60994985Y-63861989D02*
X61000000Y-63906493D01*
X61805014Y-64132005D02*
X61819806Y-64174277D01*
X60980193Y-63819717D02*
X60994985Y-63861989D01*
X61800000Y-64087500D02*
X61805014Y-64132005D01*
X62782690Y-64287500D02*
X63187500Y-63882690D01*
X60524697Y-64243867D02*
X60556366Y-64212198D01*
X61356366Y-64212198D02*
X61380193Y-64174277D01*
X59572500Y-64052690D02*
X59807310Y-64287500D01*
X60444504Y-64282486D02*
X60486776Y-64267694D01*
X61794985Y-63861989D02*
X61800000Y-63906493D01*
X61324697Y-64243867D02*
X61356366Y-64212198D01*
X60800000Y-63706493D02*
X60844504Y-63711508D01*
X61955495Y-64282486D02*
X62000000Y-64287500D01*
X60844504Y-63711508D02*
X60886776Y-63726300D01*
X59807310Y-64287500D02*
X60400000Y-64287500D01*
X60956366Y-63781796D02*
X60980193Y-63819717D01*
X61005014Y-64132005D02*
X61019806Y-64174277D01*
X60556366Y-64212198D02*
X60580193Y-64174277D01*
X61400000Y-64087500D02*
X61400000Y-63906493D01*
X61019806Y-64174277D02*
X61043633Y-64212198D01*
X61380193Y-64174277D02*
X61394985Y-64132005D01*
X61913223Y-64267694D02*
X61955495Y-64282486D01*
X60400000Y-64287500D02*
X60444504Y-64282486D01*
X60643633Y-63781796D02*
X60675302Y-63750127D01*
X59572500Y-63417310D02*
X59572500Y-64052690D01*
X60605014Y-63861989D02*
X60619806Y-63819717D01*
X61843633Y-64212198D02*
X61875302Y-64243867D01*
X60619806Y-63819717D02*
X60643633Y-63781796D01*
X61875302Y-64243867D02*
X61913223Y-64267694D01*
X60594985Y-64132005D02*
X60600000Y-64087500D01*
X60600000Y-64087500D02*
X60600000Y-63906493D01*
X60713223Y-63726300D02*
X60755495Y-63711508D01*
X61244504Y-64282486D02*
X61286776Y-64267694D01*
X60486776Y-64267694D02*
X60524697Y-64243867D01*
X61443633Y-63781796D02*
X61475302Y-63750127D01*
X61475302Y-63750127D02*
X61513223Y-63726300D01*
X61513223Y-63726300D02*
X61555495Y-63711508D01*
X61555495Y-63711508D02*
X61600000Y-63706493D01*
X61600000Y-63706493D02*
X61644504Y-63711508D01*
X61644504Y-63711508D02*
X61686776Y-63726300D01*
X61686776Y-63726300D02*
X61724697Y-63750127D01*
X61724697Y-63750127D02*
X61756366Y-63781796D01*
X61756366Y-63781796D02*
X61780193Y-63819717D01*
X61780193Y-63819717D02*
X61794985Y-63861989D01*
X61800000Y-63906493D02*
X61800000Y-64087500D01*
X61819806Y-64174277D02*
X61843633Y-64212198D01*
X63187500Y-63882690D02*
X63187500Y-57302690D01*
X63187500Y-57302690D02*
X69657500Y-50832690D01*
X69657500Y-50255000D02*
X69482500Y-50080000D01*
X63512500Y-64017310D02*
X63512500Y-57437310D01*
X69982500Y-50255000D02*
X70157500Y-50080000D01*
X69982500Y-50967310D02*
X69982500Y-50255000D01*
X63512500Y-57437310D02*
X69982500Y-50967310D01*
X62917310Y-64612500D02*
X63512500Y-64017310D01*
X59672690Y-64612500D02*
X62917310Y-64612500D01*
X59247500Y-64187310D02*
X59672690Y-64612500D01*
X59247500Y-63282690D02*
X59247500Y-64187310D01*
X59851351Y-62431351D02*
X59851351Y-62678839D01*
X59851351Y-62678839D02*
X59247500Y-63282690D01*
X64057500Y-58342690D02*
X64057500Y-59637310D01*
X65386480Y-57013713D02*
X64057500Y-58342690D01*
X65702327Y-56850488D02*
X65594334Y-56875137D01*
X65494533Y-56923199D02*
X65407931Y-56992262D01*
X66107491Y-56992263D02*
X66020887Y-56923199D01*
X66456316Y-57333995D02*
X66421300Y-57306072D01*
X66540328Y-57363394D02*
X66496666Y-57353427D01*
X65594334Y-56875137D02*
X65494533Y-56923199D01*
X66669128Y-57333996D02*
X66628778Y-57353427D01*
X66704142Y-57306072D02*
X66669128Y-57333996D01*
X66761464Y-57187043D02*
X66751497Y-57230707D01*
X66732066Y-57058243D02*
X66751497Y-57098595D01*
X65872274Y-56200000D02*
X66704142Y-57031869D01*
X65855911Y-56174997D02*
X65872274Y-56191361D01*
X65803228Y-56108935D02*
X65855911Y-56174997D01*
X65766566Y-56032806D02*
X65803228Y-56108935D01*
X65747764Y-55950428D02*
X65766566Y-56032806D01*
X66751497Y-57230707D02*
X66732065Y-57271057D01*
X66064737Y-55432536D02*
X65855911Y-55641361D01*
X66206929Y-55343191D02*
X66130800Y-55379853D01*
X66289307Y-55324389D02*
X66206929Y-55343191D01*
X66373804Y-55324389D02*
X66289307Y-55324389D01*
X66456182Y-55343191D02*
X66373804Y-55324389D01*
X66532311Y-55379853D02*
X66456182Y-55343191D01*
X67446605Y-56280767D02*
X66598374Y-55432536D01*
X67521971Y-56328122D02*
X67481621Y-56308690D01*
X67694433Y-56308691D02*
X67654083Y-56328122D01*
X67610419Y-56338089D02*
X67565633Y-56338089D01*
X67654083Y-56328122D02*
X67610419Y-56338089D01*
X67786769Y-56161738D02*
X67776802Y-56205402D01*
X67786769Y-56116952D02*
X67786769Y-56161738D01*
X67776802Y-56073290D02*
X67786769Y-56116952D01*
X67757371Y-56032938D02*
X67776802Y-56073290D01*
X67295666Y-55564144D02*
X67729447Y-55997925D01*
X67180763Y-55449238D02*
X67295666Y-55564144D01*
X67189259Y-55440738D02*
X67180763Y-55449238D01*
X67565633Y-56338089D02*
X67521971Y-56328122D01*
X66906078Y-55157557D02*
X67189259Y-55440738D01*
X66421300Y-57306072D02*
X66107491Y-56992263D01*
X66889715Y-55141193D02*
X66906078Y-55157557D01*
X66837032Y-54673619D02*
X66800370Y-54749748D01*
X67082178Y-54415095D02*
X66889715Y-54607557D01*
X67098541Y-54398731D02*
X67082178Y-54415095D01*
X67164603Y-54346049D02*
X67098541Y-54398731D01*
X66751497Y-57098595D02*
X66761464Y-57142257D01*
X66781568Y-54832127D02*
X66781568Y-54916624D01*
X67407608Y-54290584D02*
X67323111Y-54290584D01*
X67489986Y-54309387D02*
X67407608Y-54290584D01*
X67566115Y-54346049D02*
X67489986Y-54309387D01*
X67632177Y-54398731D02*
X67566115Y-54346049D01*
X67763446Y-54530000D02*
X67632177Y-54398731D01*
X65766566Y-55783552D02*
X65747764Y-55865931D01*
X67791889Y-54547871D02*
X67776661Y-54540538D01*
X66781568Y-54916624D02*
X66800370Y-54999002D01*
X67808367Y-54551632D02*
X67791889Y-54547871D01*
X72617500Y-49782690D02*
X67870190Y-54530000D01*
X72617500Y-46590000D02*
X72617500Y-49782690D01*
X72462500Y-46435000D02*
X72617500Y-46590000D01*
X66800370Y-54749748D02*
X66781568Y-54832127D01*
X66704142Y-57023230D02*
X66732066Y-57058243D01*
X67240732Y-54309387D02*
X67164603Y-54346049D01*
X67323111Y-54290584D02*
X67240732Y-54309387D01*
X67825269Y-54551632D02*
X67808367Y-54551632D01*
X67729447Y-56280767D02*
X67694433Y-56308691D01*
X67856975Y-54540538D02*
X67841747Y-54547871D01*
X64411351Y-59991161D02*
X64411351Y-60238649D01*
X67841747Y-54547871D02*
X67825269Y-54551632D01*
X66130800Y-55379853D02*
X66064737Y-55432536D01*
X66761464Y-57142257D02*
X66761464Y-57187043D01*
X65921088Y-56875138D02*
X65813095Y-56850489D01*
X64057500Y-59637310D02*
X64411351Y-59991161D01*
X66496666Y-57353427D02*
X66456316Y-57333995D01*
X66800370Y-54999002D02*
X66837032Y-55075131D01*
X66598374Y-55432536D02*
X66532311Y-55379853D01*
X67870190Y-54530000D02*
X67856975Y-54540538D01*
X66889715Y-54607557D02*
X66837032Y-54673619D01*
X66020887Y-56923199D02*
X65921088Y-56875138D01*
X66585114Y-57363394D02*
X66540328Y-57363394D01*
X72462500Y-46000000D02*
X72462500Y-46435000D01*
X66837032Y-55075131D02*
X66889715Y-55141193D01*
X66628778Y-57353427D02*
X66585114Y-57363394D01*
X67757370Y-56245752D02*
X67729447Y-56280767D01*
X65747764Y-55865931D02*
X65747764Y-55950428D01*
X67776802Y-56205402D02*
X67757370Y-56245752D01*
X65813095Y-56850489D02*
X65702327Y-56850488D01*
X66732065Y-57271057D02*
X66704142Y-57306072D01*
X67481621Y-56308690D02*
X67446605Y-56280767D01*
X65803228Y-55707423D02*
X65766566Y-55783552D01*
X67776661Y-54540538D02*
X67763446Y-54530000D01*
X67729447Y-55997925D02*
X67757371Y-56032938D01*
X65407931Y-56992262D02*
X65386480Y-57013713D01*
X65855911Y-55641361D02*
X65803228Y-55707423D01*
X46654986Y-40354820D02*
X46654986Y-40594838D01*
X48367310Y-38487500D02*
X46682690Y-38487500D01*
X46187500Y-38982690D02*
X46187500Y-39887334D01*
X75937500Y-56912500D02*
X76967310Y-56912500D01*
X49062500Y-42032690D02*
X49062500Y-39182690D01*
X78562500Y-55317310D02*
X78562500Y-52682690D01*
X59832690Y-42987500D02*
X50017310Y-42987500D01*
X74997079Y-57354610D02*
X75495390Y-57354610D01*
X75495390Y-57354610D02*
X75937500Y-56912500D01*
X76967310Y-56912500D02*
X78562500Y-55317310D01*
X78562500Y-52682690D02*
X74462500Y-48582690D01*
X71467310Y-42287500D02*
X60532690Y-42287500D01*
X74462500Y-48582690D02*
X74462500Y-45282690D01*
X74462500Y-45282690D02*
X71467310Y-42287500D01*
X60532690Y-42287500D02*
X59832690Y-42987500D01*
X50017310Y-42987500D02*
X49062500Y-42032690D01*
X49062500Y-39182690D02*
X48367310Y-38487500D01*
X46682690Y-38487500D02*
X46187500Y-38982690D01*
X46187500Y-39887334D02*
X46654986Y-40354820D01*
X77464336Y-52204268D02*
X77423986Y-52223700D01*
X77552786Y-52194303D02*
X77508000Y-52194303D01*
X77671814Y-52251624D02*
X77636800Y-52223701D01*
X77508000Y-52194303D02*
X77464336Y-52204268D01*
X77729134Y-52370652D02*
X77719169Y-52326989D01*
X77699738Y-52286639D02*
X77671814Y-52251624D01*
X77729135Y-52415438D02*
X77729134Y-52370652D01*
X77719170Y-52459101D02*
X77729135Y-52415438D01*
X77201494Y-53111278D02*
X77201494Y-53066492D01*
X77506645Y-53258232D02*
X77466293Y-53277663D01*
X77699737Y-52499451D02*
X77719170Y-52459101D01*
X77211461Y-53154942D02*
X77201494Y-53111278D01*
X77671814Y-52534467D02*
X77699737Y-52499451D01*
X76975973Y-52664621D02*
X76940959Y-52692546D01*
X46817310Y-38812500D02*
X46512500Y-39117310D01*
X77423986Y-52223700D02*
X77388972Y-52251625D01*
X78073686Y-52759989D02*
X78030022Y-52769954D01*
X74137500Y-45417310D02*
X71332690Y-42612500D01*
X77211461Y-53022830D02*
X77230893Y-52982480D01*
X77293831Y-53258231D02*
X77258817Y-53230308D01*
X76900607Y-52711977D02*
X76856944Y-52721942D01*
X48737500Y-42167310D02*
X48737500Y-39317310D01*
X77201494Y-53066492D02*
X77211461Y-53022830D01*
X59967310Y-43312500D02*
X49882690Y-43312500D01*
X77388972Y-52251625D02*
X76975973Y-52664621D01*
X78030022Y-52769954D02*
X77989672Y-52789386D01*
X78237500Y-52817310D02*
X78202486Y-52789387D01*
X76200000Y-56587500D02*
X76832690Y-56587500D01*
X60667310Y-42612500D02*
X59967310Y-43312500D01*
X78162134Y-52769954D02*
X78118472Y-52759989D01*
X77636800Y-52223701D02*
X77596448Y-52204268D01*
X77134052Y-51720953D02*
X77106128Y-51685938D01*
X77258816Y-52947464D02*
X77671814Y-52534467D01*
X78202486Y-52789387D02*
X78162134Y-52769954D01*
X76832690Y-56587500D02*
X78237500Y-55182690D01*
X76812160Y-52721943D02*
X76768497Y-52711978D01*
X77466293Y-53277663D02*
X77422630Y-53287628D01*
X78118472Y-52759989D02*
X78073686Y-52759989D01*
X76856944Y-52721942D02*
X76812160Y-52721943D01*
X78237500Y-55182690D02*
X78237500Y-52817310D01*
X77596448Y-52204268D02*
X77552786Y-52194303D01*
X77989672Y-52789386D02*
X77954658Y-52817311D01*
X77954658Y-52817311D02*
X77541659Y-53230307D01*
X77541659Y-53230307D02*
X77506645Y-53258232D01*
X77377846Y-53287629D02*
X77334183Y-53277664D01*
X77422630Y-53287628D02*
X77377846Y-53287629D01*
X76940959Y-52692546D02*
X76900607Y-52711977D01*
X77334183Y-53277664D02*
X77293831Y-53258231D01*
X77719169Y-52326989D02*
X77699738Y-52286639D01*
X77230893Y-52982480D02*
X77258816Y-52947464D01*
X76645775Y-52457144D02*
X76665207Y-52416794D01*
X77258817Y-53230308D02*
X77230892Y-53195292D01*
X77230892Y-53195292D02*
X77211461Y-53154942D01*
X76768497Y-52711978D02*
X76728145Y-52692545D01*
X77106128Y-51968781D02*
X77134051Y-51933765D01*
X76728145Y-52692545D02*
X76693131Y-52664622D01*
X76693131Y-52664622D02*
X76665206Y-52629606D01*
X76665206Y-52629606D02*
X76645775Y-52589256D01*
X77106128Y-51685938D02*
X74137500Y-48717310D01*
X76645775Y-52589256D02*
X76635808Y-52545592D01*
X76635808Y-52545592D02*
X76635808Y-52500806D01*
X76635808Y-52500806D02*
X76645775Y-52457144D01*
X77163448Y-51804966D02*
X77153483Y-51761303D01*
X76665207Y-52416794D02*
X76693130Y-52381778D01*
X76693130Y-52381778D02*
X77106128Y-51968781D01*
X77134051Y-51933765D02*
X77153484Y-51893415D01*
X77153484Y-51893415D02*
X77163449Y-51849752D01*
X77163449Y-51849752D02*
X77163448Y-51804966D01*
X77153483Y-51761303D02*
X77134052Y-51720953D01*
X74137500Y-48717310D02*
X74137500Y-45417310D01*
X71332690Y-42612500D02*
X60667310Y-42612500D01*
X49882690Y-43312500D02*
X48737500Y-42167310D01*
X48737500Y-39317310D02*
X48232690Y-38812500D01*
X48232690Y-38812500D02*
X46817310Y-38812500D01*
X46512500Y-39117310D02*
X46512500Y-39752714D01*
X46512500Y-39752714D02*
X46884796Y-40125010D01*
X46884796Y-40125010D02*
X47139654Y-40125010D01*
X75937500Y-56587500D02*
X75500000Y-56150000D01*
X75500000Y-56150000D02*
X75000000Y-56150000D01*
X76200000Y-56587500D02*
X76100000Y-56587500D01*
X76200000Y-56587500D02*
X75937500Y-56587500D01*
D16*
X70450000Y-43410000D02*
X65880000Y-47980000D01*
X70980000Y-43410000D02*
X70450000Y-43410000D01*
X65880000Y-47980000D02*
X65880000Y-49400000D01*
X65880000Y-49400000D02*
X65730000Y-49550000D01*
X61160000Y-56057603D02*
X61222746Y-55994857D01*
X61160000Y-56290000D02*
X61160000Y-56057603D01*
X60760000Y-56690000D02*
X61160000Y-56290000D01*
X59510000Y-56690000D02*
X60760000Y-56690000D01*
X58470000Y-55650000D02*
X59510000Y-56690000D01*
X58470000Y-52556998D02*
X58470000Y-55650000D01*
X58094999Y-50471997D02*
X59045001Y-51421999D01*
X57243002Y-49050000D02*
X58094999Y-49901997D01*
X59045001Y-51981997D02*
X58470000Y-52556998D01*
X59045001Y-51421999D02*
X59045001Y-51981997D01*
X55520000Y-49050000D02*
X57243002Y-49050000D01*
X58094999Y-49901997D02*
X58094999Y-50471997D01*
X52496998Y-49050000D02*
X55520000Y-49050000D01*
X52496998Y-49050000D02*
X52521999Y-49075001D01*
X47905001Y-49194999D02*
X52351999Y-49194999D01*
X47480000Y-49620000D02*
X47905001Y-49194999D01*
X52351999Y-49194999D02*
X52496998Y-49050000D01*
X45324999Y-37394999D02*
X44424999Y-36494999D01*
X44424999Y-36494999D02*
X44424999Y-35621999D01*
X44846997Y-35200001D02*
X47550001Y-35200001D01*
X44424999Y-35621999D02*
X44846997Y-35200001D01*
X47550001Y-35200001D02*
X47825000Y-35475000D01*
X46050000Y-44400000D02*
X45324999Y-43674999D01*
X45324999Y-43674999D02*
X45324999Y-37394999D01*
X59300000Y-52430000D02*
X59300000Y-54800000D01*
X59300000Y-54800000D02*
X60610000Y-56110000D01*
X44924999Y-49244999D02*
X45805001Y-50125001D01*
X45805001Y-50125001D02*
X47826091Y-50125001D01*
X48091092Y-49860000D02*
X48480000Y-49860000D01*
X47826091Y-50125001D02*
X48091092Y-49860000D01*
X44650000Y-48675000D02*
X44924999Y-48949999D01*
X44924999Y-48949999D02*
X44924999Y-49244999D01*
X46050000Y-44400000D02*
X44650000Y-45800000D01*
X44650000Y-45800000D02*
X44650000Y-48675000D01*
X55640000Y-56340000D02*
X55640000Y-56525000D01*
X55240000Y-55940000D02*
X55640000Y-56340000D01*
X47036998Y-55940000D02*
X55240000Y-55940000D01*
X46490000Y-56590000D02*
X46614999Y-56465001D01*
X46390000Y-56590000D02*
X46490000Y-56590000D01*
X46614999Y-56465001D02*
X46614999Y-56361999D01*
X46614999Y-56361999D02*
X47036998Y-55940000D01*
X59019990Y-78485001D02*
X59294989Y-78760000D01*
X55834989Y-75300000D02*
X59019990Y-78485001D01*
X51280000Y-75300000D02*
X55834989Y-75300000D01*
X61019996Y-78560000D02*
X60820000Y-78759996D01*
X63370000Y-78560000D02*
X61019996Y-78560000D01*
X75620000Y-79510000D02*
X64320000Y-79510000D01*
X76770000Y-78360000D02*
X75620000Y-79510000D01*
X76770000Y-61660000D02*
X76770000Y-78360000D01*
X72920000Y-57810000D02*
X76770000Y-61660000D01*
X73754999Y-56275001D02*
X72920000Y-57160000D01*
X72920000Y-57160000D02*
X72920000Y-57810000D01*
X74375001Y-56028001D02*
X74128001Y-56275001D01*
X64320000Y-79510000D02*
X63370000Y-78560000D01*
X74375001Y-55525001D02*
X74375001Y-56028001D01*
X73100000Y-55150000D02*
X74000000Y-55150000D01*
X74000000Y-55150000D02*
X74375001Y-55525001D01*
X74128001Y-56275001D02*
X73754999Y-56275001D01*
X60594999Y-78234995D02*
X60070000Y-78759994D01*
X64520000Y-79210000D02*
X63544995Y-78234995D01*
X72610000Y-61050000D02*
X74510000Y-61050000D01*
X75420000Y-79210000D02*
X64520000Y-79210000D01*
X76370000Y-62910000D02*
X76370000Y-78260000D01*
X63544995Y-78234995D02*
X60594999Y-78234995D01*
X74510000Y-61050000D02*
X76370000Y-62910000D01*
X76370000Y-78260000D02*
X75420000Y-79210000D01*
X52450000Y-81525010D02*
X53825010Y-81525010D01*
X53825010Y-81525010D02*
X55300000Y-83000000D01*
X52450000Y-81525010D02*
X52575010Y-81525010D01*
X51050000Y-81525010D02*
X52450000Y-81525010D01*
X45300000Y-59500000D02*
X48024990Y-62224990D01*
X48024990Y-62224990D02*
X48024990Y-79363912D01*
X48024990Y-79363912D02*
X50186088Y-81525010D01*
X50186088Y-81525010D02*
X51050000Y-81525010D01*
X43800000Y-59500000D02*
X45300000Y-59500000D01*
X55300000Y-90061851D02*
X54551851Y-90810000D01*
X55300000Y-88580000D02*
X55300000Y-90061851D01*
X55300000Y-88580000D02*
X55300000Y-88710000D01*
X55300000Y-83000000D02*
X55300000Y-88580000D01*
X54551851Y-90810000D02*
X49740000Y-90810000D01*
X49740000Y-90810000D02*
X49570000Y-90980000D01*
X54470000Y-90510000D02*
X49370000Y-90510000D01*
X49370000Y-90510000D02*
X48630000Y-91250000D01*
X54950000Y-90030000D02*
X54470000Y-90510000D01*
X53600020Y-81800020D02*
X54950000Y-83150000D01*
X45300000Y-60000000D02*
X47749980Y-62449980D01*
X48630000Y-91250000D02*
X48630000Y-92240000D01*
X54950000Y-83150000D02*
X54950000Y-90030000D01*
X47749980Y-62449980D02*
X47749980Y-79477824D01*
X43300000Y-60000000D02*
X45300000Y-60000000D01*
X50072176Y-81800020D02*
X53600020Y-81800020D01*
X47749980Y-79477824D02*
X50072176Y-81800020D01*
X54663692Y-91080010D02*
X50299990Y-91080010D01*
X50282173Y-91080010D02*
X54663692Y-91080010D01*
X49900000Y-91462183D02*
X50282173Y-91080010D01*
X49900000Y-92240000D02*
X49900000Y-91462183D01*
X48300000Y-62000000D02*
X45300000Y-59000000D01*
X50300000Y-81250000D02*
X48300000Y-79250000D01*
X54110000Y-81250000D02*
X50300000Y-81250000D01*
X48300000Y-79250000D02*
X48300000Y-62000000D01*
X56360000Y-88220000D02*
X56360000Y-83500000D01*
X54663692Y-91080010D02*
X56370000Y-89373702D01*
X56370000Y-89373702D02*
X56370000Y-89010000D01*
X56360000Y-83500000D02*
X54110000Y-81250000D01*
X45300000Y-59000000D02*
X43300000Y-59000000D01*
X56370000Y-89010000D02*
X56360000Y-88220000D01*
X54630553Y-91494999D02*
X51915001Y-91494999D01*
X51915001Y-91494999D02*
X51170000Y-92240000D01*
X57210000Y-83750000D02*
X57210000Y-88915552D01*
X54434989Y-80974989D02*
X57210000Y-83750000D01*
X45188924Y-58500000D02*
X48575011Y-61886087D01*
X50413913Y-80974989D02*
X54434989Y-80974989D01*
X43800000Y-58500000D02*
X45188924Y-58500000D01*
X48575011Y-61886087D02*
X48575011Y-79136087D01*
X57210000Y-88915552D02*
X54630553Y-91494999D01*
X48575011Y-79136087D02*
X50413913Y-80974989D01*
X33115001Y-78559999D02*
X31230001Y-78559999D01*
X34300000Y-77375000D02*
X33115001Y-78559999D01*
X34300000Y-56683002D02*
X34300000Y-77375000D01*
X34234999Y-56618001D02*
X34300000Y-56683002D01*
X39571999Y-31774999D02*
X34234999Y-37111999D01*
X44364999Y-31774999D02*
X39571999Y-31774999D01*
X62070000Y-32160000D02*
X61110000Y-33120000D01*
X31230001Y-78559999D02*
X30030000Y-79760000D01*
X34234999Y-37111999D02*
X34234999Y-56618001D01*
X61110000Y-33120000D02*
X60250000Y-33120000D01*
X63020000Y-32160000D02*
X62070000Y-32160000D01*
X60250000Y-33120000D02*
X59614999Y-33755001D01*
X59614999Y-33755001D02*
X46345001Y-33755001D01*
X46345001Y-33755001D02*
X44364999Y-31774999D01*
X47230000Y-33306998D02*
X47881999Y-32654999D01*
X47230000Y-33310000D02*
X47230000Y-33306998D01*
X49644908Y-32654999D02*
X47881999Y-32654999D01*
X61950000Y-31040000D02*
X61950000Y-31428908D01*
X61950000Y-31428908D02*
X60839986Y-32538922D01*
X60290000Y-32538922D02*
X59348931Y-33479991D01*
X60839986Y-32538922D02*
X60290000Y-32538922D01*
X59348931Y-33479991D02*
X50469900Y-33479991D01*
X50469900Y-33479991D02*
X49644908Y-32654999D01*
X44636987Y-31499989D02*
X39458087Y-31499989D01*
X47881999Y-32654999D02*
X47086998Y-33450000D01*
X33959989Y-75495011D02*
X33435001Y-76019999D01*
X39458087Y-31499989D02*
X33959989Y-36998087D01*
X46586998Y-33450000D02*
X44636987Y-31499989D01*
X31230001Y-76019999D02*
X31029999Y-76220001D01*
X47086998Y-33450000D02*
X46586998Y-33450000D01*
X31029999Y-76220001D02*
X30030000Y-77220000D01*
X33959989Y-36998087D02*
X33959989Y-75495011D01*
X33435001Y-76019999D02*
X31230001Y-76019999D01*
X37064999Y-59174999D02*
X36474999Y-59174999D01*
X47150000Y-63650000D02*
X46875001Y-63924999D01*
X36474999Y-59174999D02*
X36260000Y-58960000D01*
X39069978Y-61179978D02*
X37064999Y-59174999D01*
X46875001Y-63924999D02*
X41224999Y-63924999D01*
X41224999Y-63924999D02*
X40475011Y-63175011D01*
X40475011Y-63175011D02*
X39546086Y-63175010D01*
X39546086Y-63175010D02*
X39069978Y-62698902D01*
X39069978Y-62698902D02*
X39069978Y-61179978D01*
X36260000Y-58960000D02*
X36200000Y-58900000D01*
X36260000Y-58960000D02*
X36260000Y-58884659D01*
X39344989Y-62584989D02*
X39344989Y-60877729D01*
X37456842Y-58989582D02*
X37181843Y-58714583D01*
X39660000Y-62900000D02*
X39344989Y-62584989D01*
X39344989Y-60877729D02*
X37456842Y-58989582D01*
X47200000Y-62900000D02*
X39660000Y-62900000D01*
X39620000Y-58356998D02*
X40158916Y-57818082D01*
X39620000Y-62000000D02*
X39620000Y-58356998D01*
X46600000Y-62300000D02*
X46290000Y-62610000D01*
X40230000Y-62610000D02*
X39620000Y-62000000D01*
X46290000Y-62610000D02*
X40230000Y-62610000D01*
X40158916Y-57818082D02*
X40158916Y-57648667D01*
X47474970Y-67263898D02*
X47474970Y-79591736D01*
X47390536Y-67179464D02*
X47474970Y-67263898D01*
X47474970Y-79591736D02*
X48960000Y-81076766D01*
X47274980Y-67063908D02*
X47390536Y-67179464D01*
X47390536Y-67179464D02*
X47409464Y-67179464D01*
X47409464Y-67179464D02*
X47474970Y-67244970D01*
X47274980Y-66675000D02*
X47274980Y-67063908D01*
X45870000Y-94810000D02*
X45870000Y-92410000D01*
X45870000Y-92410000D02*
X48070000Y-90210000D01*
X48070000Y-90210000D02*
X51270000Y-90210000D01*
X51270000Y-90210000D02*
X54270000Y-90210000D01*
X54270000Y-90210000D02*
X54679990Y-89800010D01*
X54679990Y-89800010D02*
X54679990Y-83419990D01*
X54679990Y-83419990D02*
X53330030Y-82070030D01*
X49960335Y-82070030D02*
X48670000Y-80779694D01*
X53330030Y-82070030D02*
X49960335Y-82070030D01*
X41000000Y-33130000D02*
X40960000Y-33130000D01*
X41470000Y-33600000D02*
X41000000Y-33130000D01*
X41470000Y-34973002D02*
X41470000Y-33600000D01*
X42715001Y-42934999D02*
X42715001Y-36218003D01*
X42715001Y-36218003D02*
X41470000Y-34973002D01*
X41334999Y-44315001D02*
X42715001Y-42934999D01*
X42385001Y-52375001D02*
X41334999Y-51324999D01*
X41334999Y-51324999D02*
X41334999Y-44315001D01*
X55340000Y-52510000D02*
X55205001Y-52375001D01*
X55205001Y-52375001D02*
X42385001Y-52375001D01*
X57480000Y-54650000D02*
X55340000Y-52510000D01*
X57480000Y-58871092D02*
X57480000Y-54650000D01*
X57490000Y-59270000D02*
X57490000Y-58881092D01*
X57490000Y-58881092D02*
X57480000Y-58871092D01*
X56674999Y-48325001D02*
X57004999Y-47995001D01*
X57004999Y-47995001D02*
X58365001Y-47995001D01*
X58365001Y-47995001D02*
X58640000Y-48270000D01*
X52800000Y-47850000D02*
X53275001Y-48325001D01*
X53275001Y-48325001D02*
X56674999Y-48325001D01*
X51796002Y-38830000D02*
X49130000Y-36163998D01*
X60500000Y-38350000D02*
X60020000Y-38830000D01*
X60020000Y-38830000D02*
X51796002Y-38830000D01*
X49115001Y-36124999D02*
X45174999Y-36124999D01*
X45174999Y-36124999D02*
X44900000Y-35850000D01*
X40190000Y-33040000D02*
X40762308Y-32467692D01*
X39420000Y-33040000D02*
X35430000Y-37030000D01*
X35430000Y-37030000D02*
X35430000Y-37460000D01*
X40762308Y-32467692D02*
X40829710Y-32467692D01*
X39420000Y-33040000D02*
X40190000Y-33040000D01*
X36100000Y-35830000D02*
X36100000Y-35820000D01*
X34954999Y-36975001D02*
X36100000Y-35830000D01*
X34954999Y-55445001D02*
X34954999Y-36975001D01*
X39040000Y-32880000D02*
X39040000Y-32780000D01*
X35234999Y-55725001D02*
X34954999Y-55445001D01*
X39769991Y-32050009D02*
X39870010Y-32050009D01*
X35234999Y-58277171D02*
X35234999Y-55725001D01*
X34944999Y-58567171D02*
X35234999Y-58277171D01*
X35255001Y-62265001D02*
X35255001Y-59408003D01*
X37910000Y-64920000D02*
X35255001Y-62265001D01*
X35255001Y-59408003D02*
X34944999Y-59098001D01*
X36100000Y-35820000D02*
X39040000Y-32880000D01*
X34944999Y-59098001D02*
X34944999Y-58567171D01*
X39040000Y-32780000D02*
X39769991Y-32050009D01*
X39870010Y-32050009D02*
X40070000Y-32249999D01*
X40230048Y-60679952D02*
X40230047Y-60679952D01*
X41564990Y-59345010D02*
X40230048Y-60679952D01*
X41564990Y-57094990D02*
X41564990Y-58765010D01*
X41564990Y-58765010D02*
X41564990Y-58966088D01*
X41564990Y-58765010D02*
X41564990Y-59345010D01*
X40720000Y-56250000D02*
X41564990Y-57094990D01*
X40720000Y-44560000D02*
X40720000Y-56050000D01*
X40720000Y-56050000D02*
X40720000Y-56220000D01*
X40720000Y-56050000D02*
X40720000Y-56250000D01*
X40720000Y-56220000D02*
X40730000Y-56230000D01*
X40250001Y-42548908D02*
X40784979Y-43083886D01*
X40250001Y-42160000D02*
X40250001Y-42548908D01*
X40784979Y-44495021D02*
X40720000Y-44560000D01*
X40784979Y-43083886D02*
X40784979Y-44495021D01*
X39560000Y-54810000D02*
X39560000Y-55760000D01*
X37981632Y-57593703D02*
X37706633Y-57868702D01*
X37981632Y-57338368D02*
X37981632Y-57593703D01*
X39560000Y-55760000D02*
X37981632Y-57338368D01*
X39560000Y-48210000D02*
X39560000Y-54810000D01*
X39560000Y-54810000D02*
X39560000Y-54920000D01*
X37060000Y-45710000D02*
X39560000Y-48210000D01*
X37060000Y-39400000D02*
X37060000Y-45710000D01*
X40920000Y-35540000D02*
X37060000Y-39400000D01*
X36090001Y-39790001D02*
X35710000Y-39410000D01*
X35710000Y-39410000D02*
X35650000Y-39350000D01*
X35710000Y-39410000D02*
X35710000Y-39355000D01*
X35710000Y-39355000D02*
X35615000Y-39260000D01*
X37204125Y-56212875D02*
X35294999Y-54303749D01*
X37204125Y-56696967D02*
X37204125Y-56212875D01*
X35420000Y-58481092D02*
X37204125Y-56696967D01*
X35294999Y-54303749D02*
X35294999Y-44783003D01*
X35420000Y-58870000D02*
X35420000Y-58481092D01*
X35294999Y-44783003D02*
X36090001Y-43988001D01*
X36090001Y-43988001D02*
X36090001Y-39790001D01*
X41840000Y-59458922D02*
X40834461Y-60464461D01*
X40834461Y-61029911D02*
X40717558Y-61146814D01*
X40834461Y-60464461D02*
X40834461Y-61029911D01*
X41840000Y-59080000D02*
X41840000Y-59458922D01*
X41840000Y-56480000D02*
X41840000Y-59080000D01*
X41059989Y-55699989D02*
X41840000Y-56480000D01*
X41059989Y-44050011D02*
X41059989Y-55699989D01*
X42240000Y-41360000D02*
X42240000Y-42870000D01*
X42240000Y-42870000D02*
X41059989Y-44050011D01*
X78350000Y-44350000D02*
X78350000Y-42490000D01*
X68508908Y-39560000D02*
X68120000Y-39560000D01*
X75420000Y-39560000D02*
X68508908Y-39560000D01*
X78350000Y-42490000D02*
X75420000Y-39560000D01*
X75420000Y-39560000D02*
X75323500Y-39560000D01*
X75323500Y-39560000D02*
X75320656Y-39557156D01*
X77350000Y-44300000D02*
X77350000Y-42190000D01*
X77350000Y-42190000D02*
X75270000Y-40110000D01*
X70170000Y-41290000D02*
X71648922Y-41290000D01*
X78300000Y-46250000D02*
X78375000Y-46325000D01*
X73433921Y-43074999D02*
X75364999Y-43074999D01*
X71648922Y-41290000D02*
X73433921Y-43074999D01*
X75364999Y-43074999D02*
X76880000Y-44590000D01*
X76880000Y-44590000D02*
X76880000Y-44830000D01*
X76880000Y-44830000D02*
X78375000Y-46325000D01*
X81800000Y-49750000D02*
X81800000Y-76780000D01*
X63644999Y-81084997D02*
X63370000Y-80809998D01*
X78375000Y-46325000D02*
X81800000Y-49750000D01*
X81800000Y-76780000D02*
X75920000Y-82660000D01*
X75920000Y-82660000D02*
X65220002Y-82660000D01*
X65220002Y-82660000D02*
X63644999Y-81084997D01*
X81300000Y-50500000D02*
X81300000Y-50580000D01*
X76820000Y-45170000D02*
X76831078Y-45170000D01*
X76831078Y-45170000D02*
X81300000Y-49638922D01*
X81300000Y-49638922D02*
X81300000Y-50580000D01*
X75675001Y-44025001D02*
X76820000Y-45170000D01*
X73995001Y-44025001D02*
X75275001Y-44025001D01*
X75275001Y-44025001D02*
X75694999Y-44025001D01*
X75275001Y-44025001D02*
X75675001Y-44025001D01*
X71757500Y-41787500D02*
X73995001Y-44025001D01*
X70890000Y-41787500D02*
X71757500Y-41787500D01*
X65870000Y-82260000D02*
X64644999Y-81034999D01*
X75620000Y-82260000D02*
X65870000Y-82260000D01*
X64644999Y-81034999D02*
X64370000Y-80760000D01*
X81300000Y-50580000D02*
X81300000Y-76580000D01*
X81300000Y-76580000D02*
X75620000Y-82260000D01*
X60900000Y-86650000D02*
X61020000Y-86650000D01*
X64745001Y-80185001D02*
X65095001Y-80535001D01*
X65095001Y-80535001D02*
X65370000Y-80810000D01*
X61020000Y-81860000D02*
X62694999Y-80185001D01*
X62694999Y-80185001D02*
X64745001Y-80185001D01*
X61020000Y-86650000D02*
X61020000Y-81860000D01*
X68675000Y-48775000D02*
X68675000Y-46869124D01*
X68327374Y-49122626D02*
X68675000Y-48775000D01*
X68043524Y-49397625D02*
X68318523Y-49122626D01*
X68318523Y-49122626D02*
X68327374Y-49122626D01*
X63580000Y-46990000D02*
X63760000Y-46810000D01*
X61868076Y-46990000D02*
X63580000Y-46990000D01*
X59224999Y-51199753D02*
X59224999Y-49633077D01*
X59661123Y-51635877D02*
X59224999Y-51199753D01*
X59224999Y-49633077D02*
X61868076Y-46990000D01*
X60840000Y-54199999D02*
X60840000Y-52814754D01*
X60840000Y-52814754D02*
X59661123Y-51635877D01*
X63600000Y-47470000D02*
X63620000Y-47490000D01*
X61776998Y-47470000D02*
X63600000Y-47470000D01*
X61424999Y-48278001D02*
X61424999Y-47821999D01*
X61424999Y-47821999D02*
X61776998Y-47470000D01*
X62240000Y-52590000D02*
X61424999Y-51774999D01*
X61424999Y-51774999D02*
X61424999Y-48278001D01*
X62240000Y-54480000D02*
X62240000Y-52590000D01*
X64590000Y-53565912D02*
X64590000Y-43740002D01*
X63575912Y-54580000D02*
X64590000Y-53565912D01*
X62970000Y-54580000D02*
X63575912Y-54580000D01*
X64590000Y-43740002D02*
X64845003Y-43484999D01*
X64845003Y-43484999D02*
X65120002Y-43210000D01*
X64314990Y-44239990D02*
X64314990Y-53105010D01*
X63450000Y-43375000D02*
X64314990Y-44239990D01*
X64314990Y-53105010D02*
X63490000Y-53930000D01*
M02*
