G04 #@! TF.GenerationSoftware,KiCad,Pcbnew,5.1.5+dfsg1-2~bpo10+1*
G04 #@! TF.CreationDate,2020-02-19T22:44:21+01:00*
G04 #@! TF.ProjectId,gem-demo-board,67656d2d-6465-46d6-9f2d-626f6172642e,rev?*
G04 #@! TF.SameCoordinates,Original*
G04 #@! TF.FileFunction,Paste,Top*
G04 #@! TF.FilePolarity,Positive*
%FSLAX46Y46*%
G04 Gerber Fmt 4.6, Leading zero omitted, Abs format (unit mm)*
G04 Created by KiCad (PCBNEW 5.1.5+dfsg1-2~bpo10+1) date 2020-02-19 22:44:21*
%MOMM*%
%LPD*%
G04 APERTURE LIST*
%ADD10R,0.600000X1.300000*%
%ADD11R,2.000000X1.800000*%
%ADD12R,0.800000X0.800000*%
%ADD13R,0.300000X0.300000*%
%ADD14R,1.100000X0.300000*%
%ADD15R,1.320000X1.300000*%
%ADD16R,1.380000X0.450000*%
%ADD17R,2.100000X1.475000*%
%ADD18R,1.900000X1.175000*%
%ADD19R,1.900000X2.375000*%
G04 APERTURE END LIST*
D10*
X72300000Y-48250000D03*
X73300000Y-48250000D03*
X74300000Y-48250000D03*
X75300000Y-48250000D03*
X76300000Y-48250000D03*
X77300000Y-48250000D03*
X78300000Y-48250000D03*
X79300000Y-48250000D03*
X71300000Y-48250000D03*
X70300000Y-48250000D03*
X69300000Y-48250000D03*
X68300000Y-48250000D03*
X67300000Y-48250000D03*
X66300000Y-48250000D03*
X65300000Y-48250000D03*
D11*
X63000000Y-45500000D03*
X81600000Y-45500000D03*
X60070000Y-80760000D03*
X78670000Y-80760000D03*
D10*
X76370000Y-78010000D03*
X75370000Y-78010000D03*
X74370000Y-78010000D03*
X73370000Y-78010000D03*
X72370000Y-78010000D03*
X71370000Y-78010000D03*
X70370000Y-78010000D03*
X62370000Y-78010000D03*
X63370000Y-78010000D03*
X64370000Y-78010000D03*
X65370000Y-78010000D03*
X66370000Y-78010000D03*
X67370000Y-78010000D03*
X68370000Y-78010000D03*
X69370000Y-78010000D03*
D12*
X37950000Y-39150000D03*
X36450000Y-39150000D03*
X36450000Y-40650000D03*
X37950000Y-40650000D03*
X36450000Y-43650000D03*
X37950000Y-43650000D03*
X37950000Y-36150000D03*
X36450000Y-36150000D03*
X36450000Y-37650000D03*
X37950000Y-37650000D03*
X37950000Y-34650000D03*
X36450000Y-34650000D03*
X36450000Y-42150000D03*
X37950000Y-42150000D03*
X36450000Y-33150000D03*
X37950000Y-33150000D03*
D13*
X75875000Y-56400000D03*
X76725000Y-56750000D03*
X75875000Y-57100000D03*
D14*
X45053780Y-68002000D03*
X45053780Y-67502000D03*
X45053780Y-67002000D03*
X45053780Y-66502000D03*
X45053780Y-66002000D03*
X45053780Y-65502000D03*
X45053780Y-65002000D03*
X45053780Y-64502000D03*
X45053780Y-64002000D03*
X45053780Y-63502000D03*
X45053780Y-63002000D03*
X45053780Y-62502000D03*
X45053780Y-62002000D03*
X45053780Y-61502000D03*
X45053780Y-61002000D03*
X45053780Y-60502000D03*
X45053780Y-60002000D03*
X45053780Y-59502000D03*
X45053780Y-59002000D03*
X45053780Y-58502000D03*
X49072880Y-68002000D03*
X49072880Y-67502000D03*
X49072880Y-67002000D03*
X49072880Y-66502000D03*
X49072880Y-66002000D03*
X49072880Y-65502000D03*
X49072880Y-65002000D03*
X49072880Y-64502000D03*
X49072880Y-64002000D03*
X49072880Y-63502000D03*
X49072880Y-63002000D03*
X49072880Y-62502000D03*
X49072880Y-62002000D03*
X49072880Y-61502000D03*
X49072880Y-61002000D03*
X49072880Y-60502000D03*
X49072880Y-60002000D03*
X49072880Y-59502000D03*
X49072880Y-59002000D03*
X49072880Y-58502000D03*
D15*
X45241740Y-69208500D03*
X48882380Y-69203420D03*
X45241740Y-57300980D03*
X48882380Y-57300980D03*
D14*
X62553780Y-68002000D03*
X62553780Y-67502000D03*
X62553780Y-67002000D03*
X62553780Y-66502000D03*
X62553780Y-66002000D03*
X62553780Y-65502000D03*
X62553780Y-65002000D03*
X62553780Y-64502000D03*
X62553780Y-64002000D03*
X62553780Y-63502000D03*
X62553780Y-63002000D03*
X62553780Y-62502000D03*
X62553780Y-62002000D03*
X62553780Y-61502000D03*
X62553780Y-61002000D03*
X62553780Y-60502000D03*
X62553780Y-60002000D03*
X62553780Y-59502000D03*
X62553780Y-59002000D03*
X62553780Y-58502000D03*
X66572880Y-68002000D03*
X66572880Y-67502000D03*
X66572880Y-67002000D03*
X66572880Y-66502000D03*
X66572880Y-66002000D03*
X66572880Y-65502000D03*
X66572880Y-65002000D03*
X66572880Y-64502000D03*
X66572880Y-64002000D03*
X66572880Y-63502000D03*
X66572880Y-63002000D03*
X66572880Y-62502000D03*
X66572880Y-62002000D03*
X66572880Y-61502000D03*
X66572880Y-61002000D03*
X66572880Y-60502000D03*
X66572880Y-60002000D03*
X66572880Y-59502000D03*
X66572880Y-59002000D03*
X66572880Y-58502000D03*
D15*
X62741740Y-69208500D03*
X66382380Y-69203420D03*
X62741740Y-57300980D03*
X66382380Y-57300980D03*
D13*
X75875000Y-69900000D03*
X76725000Y-70250000D03*
X75875000Y-70600000D03*
D16*
X79140000Y-68950000D03*
X79140000Y-69600000D03*
X79140000Y-70250000D03*
X79140000Y-70900000D03*
X79140000Y-71550000D03*
D17*
X79500000Y-72712500D03*
D18*
X81800000Y-71087500D03*
D19*
X81800000Y-67337500D03*
X81800000Y-73162500D03*
D18*
X81800000Y-69412500D03*
D17*
X79500000Y-67787500D03*
X79500000Y-53787500D03*
D18*
X81800000Y-55412500D03*
D19*
X81800000Y-59162500D03*
X81800000Y-53337500D03*
D18*
X81800000Y-57087500D03*
D17*
X79500000Y-58712500D03*
D16*
X79140000Y-57550000D03*
X79140000Y-56900000D03*
X79140000Y-56250000D03*
X79140000Y-55600000D03*
X79140000Y-54950000D03*
M02*
