G04 #@! TF.GenerationSoftware,KiCad,Pcbnew,5.0.2+dfsg1-1~bpo9+1*
G04 #@! TF.CreationDate,2019-11-04T18:03:59+01:00*
G04 #@! TF.ProjectId,zglue-demo-board,7a676c75-652d-4646-956d-6f2d626f6172,rev?*
G04 #@! TF.SameCoordinates,Original*
G04 #@! TF.FileFunction,Copper,L3,Inr*
G04 #@! TF.FilePolarity,Positive*
%FSLAX46Y46*%
G04 Gerber Fmt 4.6, Leading zero omitted, Abs format (unit mm)*
G04 Created by KiCad (PCBNEW 5.0.2+dfsg1-1~bpo9+1) date Mon 04 Nov 2019 06:03:59 PM CET*
%MOMM*%
%LPD*%
G01*
G04 APERTURE LIST*
G04 #@! TA.AperFunction,ViaPad*
%ADD10C,0.500000*%
G04 #@! TD*
G04 #@! TA.AperFunction,ViaPad*
%ADD11C,2.000000*%
G04 #@! TD*
G04 #@! TA.AperFunction,ViaPad*
%ADD12C,0.550000*%
G04 #@! TD*
G04 #@! TA.AperFunction,Conductor*
%ADD13C,0.200000*%
G04 #@! TD*
G04 #@! TA.AperFunction,Conductor*
%ADD14C,0.150000*%
G04 #@! TD*
G04 APERTURE END LIST*
D10*
G04 #@! TO.N,GND*
G04 #@! TO.C,U6*
X26350000Y-11200000D03*
X24950000Y-11200000D03*
X23550000Y-11200000D03*
X22150000Y-11200000D03*
X26350000Y-9800000D03*
X24950000Y-9800000D03*
X23550000Y-9800000D03*
X22150000Y-9800000D03*
X26350000Y-8400000D03*
X24950000Y-8400000D03*
X23550000Y-8400000D03*
X22150000Y-8400000D03*
X26350000Y-7000000D03*
X24950000Y-7000000D03*
X23550000Y-7000000D03*
X22150000Y-7000000D03*
G04 #@! TD*
D11*
G04 #@! TO.N,Net-(J4-Pad40)*
G04 #@! TO.C,J4*
X2230000Y-8870000D03*
G04 #@! TO.N,GND*
X4770000Y-8870000D03*
G04 #@! TO.N,Net-(J4-Pad38)*
X2230000Y-11410000D03*
G04 #@! TO.N,Net-(J4-Pad37)*
X4770000Y-11410000D03*
G04 #@! TO.N,Net-(J4-Pad36)*
X2230000Y-13950000D03*
G04 #@! TO.N,Net-(J4-Pad35)*
X4770000Y-13950000D03*
G04 #@! TO.N,GND*
X2230000Y-16490000D03*
G04 #@! TO.N,Net-(J4-Pad33)*
X4770000Y-16490000D03*
G04 #@! TO.N,Net-(J4-Pad32)*
X2230000Y-19030000D03*
G04 #@! TO.N,Net-(J4-Pad31)*
X4770000Y-19030000D03*
G04 #@! TO.N,GND*
X2230000Y-21570000D03*
G04 #@! TO.N,Net-(J4-Pad29)*
X4770000Y-21570000D03*
G04 #@! TO.N,Net-(J4-Pad28)*
X2230000Y-24110000D03*
G04 #@! TO.N,Net-(J4-Pad27)*
X4770000Y-24110000D03*
G04 #@! TO.N,Net-(J4-Pad26)*
X2230000Y-26650000D03*
G04 #@! TO.N,GND*
X4770000Y-26650000D03*
G04 #@! TO.N,Net-(J4-Pad24)*
X2230000Y-29190000D03*
G04 #@! TO.N,Net-(J4-Pad23)*
X4770000Y-29190000D03*
G04 #@! TO.N,Net-(J4-Pad22)*
X2230000Y-31730000D03*
G04 #@! TO.N,Net-(J4-Pad21)*
X4770000Y-31730000D03*
G04 #@! TO.N,GND*
X2230000Y-34270000D03*
G04 #@! TO.N,Net-(J4-Pad19)*
X4770000Y-34270000D03*
G04 #@! TO.N,Net-(J4-Pad18)*
X2230000Y-36810000D03*
G04 #@! TO.N,Net-(J4-Pad1)*
X4770000Y-36810000D03*
G04 #@! TO.N,Net-(J4-Pad16)*
X2230000Y-39350000D03*
G04 #@! TO.N,Net-(J4-Pad15)*
X4770000Y-39350000D03*
G04 #@! TO.N,GND*
X2230000Y-41890000D03*
G04 #@! TO.N,Net-(J4-Pad13)*
X4770000Y-41890000D03*
G04 #@! TO.N,Net-(J4-Pad12)*
X2230000Y-44430000D03*
G04 #@! TO.N,Net-(J4-Pad11)*
X4770000Y-44430000D03*
G04 #@! TO.N,Net-(J4-Pad10)*
X2230000Y-46970000D03*
G04 #@! TO.N,GND*
X4770000Y-46970000D03*
G04 #@! TO.N,Net-(J4-Pad8)*
X2230000Y-49510000D03*
G04 #@! TO.N,Net-(J4-Pad7)*
X4770000Y-49510000D03*
G04 #@! TO.N,GND*
X2230000Y-52050000D03*
G04 #@! TO.N,Net-(J4-Pad5)*
X4770000Y-52050000D03*
G04 #@! TO.N,/5V0_IN*
X2230000Y-54590000D03*
G04 #@! TO.N,Net-(J4-Pad3)*
X4770000Y-54590000D03*
G04 #@! TO.N,/5V0_IN*
X2230000Y-57130000D03*
G04 #@! TO.N,Net-(J4-Pad1)*
X4770000Y-57130000D03*
G04 #@! TD*
D12*
G04 #@! TO.N,/CSI_CLK_IN_N*
X43641351Y-45388649D03*
X23278649Y-28798649D03*
G04 #@! TO.N,GND*
X24500000Y-14750000D03*
X18750000Y-12500000D03*
X18750000Y-11500000D03*
X16500000Y-6750000D03*
X17500000Y-6750000D03*
X18750000Y-5250000D03*
X18750000Y-10250000D03*
X18835883Y-7335883D03*
X8000000Y-5250000D03*
X21000000Y-18750000D03*
X32000000Y-9500000D03*
X33000000Y-13250000D03*
X30000000Y-12000000D03*
X31000000Y-1500000D03*
X29250000Y-750000D03*
X28000000Y-1500000D03*
X25500000Y-1500000D03*
X21500000Y-1500000D03*
X27000000Y-3750000D03*
X30000000Y-5750000D03*
X32000000Y-5500000D03*
X33750000Y-63750000D03*
X7500000Y-53500000D03*
X9250000Y-53500000D03*
X25500000Y-44250000D03*
X25500000Y-48750000D03*
X46500000Y-46750000D03*
X43500000Y-46750000D03*
X40500000Y-46750000D03*
X37500000Y-46750000D03*
X16500000Y-11250000D03*
X17500000Y-11250000D03*
X13000000Y-6250000D03*
X51250000Y-35750000D03*
X51000000Y-44250000D03*
X49750000Y-38100000D03*
X49500000Y-39000000D03*
X51000000Y-21250000D03*
X50750000Y-30500000D03*
X48750000Y-23750000D03*
X48750000Y-24750000D03*
X37500000Y-16500000D03*
X40500000Y-16500000D03*
X43500000Y-16500000D03*
X41500000Y-24750000D03*
X41500000Y-26000000D03*
X42000000Y-30500000D03*
X16100000Y-31300000D03*
X23200000Y-27500000D03*
X19600000Y-28200000D03*
X23500000Y-31200000D03*
X23300000Y-33700000D03*
X22400000Y-34300000D03*
X22400000Y-35700000D03*
X32300000Y-28200000D03*
X32700000Y-29000000D03*
X30900000Y-31800000D03*
X33600000Y-32800000D03*
X32800000Y-35000000D03*
X33600000Y-35800000D03*
X39900000Y-37800000D03*
X40100000Y-34700000D03*
X40100000Y-31500000D03*
X40600000Y-20000000D03*
X47200000Y-22700000D03*
X47100000Y-29500000D03*
X47490000Y-40037510D03*
X13800000Y-14400000D03*
X9900000Y-17300000D03*
X31600000Y-46375013D03*
X47558420Y-26534458D03*
X46500000Y-19500000D03*
X15739117Y-5989117D03*
X9700000Y-26600000D03*
X9400000Y-39800000D03*
X21650000Y-64650000D03*
X15900000Y-33125010D03*
X4750000Y-6650000D03*
X4800000Y-1100000D03*
X5950000Y-60700000D03*
X6900000Y-59150000D03*
G04 #@! TO.N,/CSI_D2_IN_P*
X37190000Y-44672500D03*
X23248649Y-32161351D03*
G04 #@! TO.N,/CSI_D2_IN_N*
X37190000Y-45347500D03*
X22771351Y-32638649D03*
G04 #@! TO.N,/CSI_D1_IN_P*
X39708649Y-46388649D03*
X22961351Y-29831351D03*
G04 #@! TO.N,/CSI_D1_IN_N*
X39231351Y-45911351D03*
X23438649Y-30308649D03*
G04 #@! TO.N,/CSI_CLK_IN_P*
X44118649Y-44911351D03*
X22801351Y-28321351D03*
G04 #@! TO.N,/CAM_GPIO*
X47500000Y-49250000D03*
X47500000Y-16000000D03*
G04 #@! TO.N,/CAM_CLK*
X48500000Y-49250000D03*
X48500000Y-16000000D03*
G04 #@! TO.N,/CAM_SCL*
X49500000Y-49250000D03*
X49500000Y-16000000D03*
G04 #@! TO.N,/CAM_SDA*
X50500000Y-49250000D03*
X50500000Y-16000000D03*
G04 #@! TO.N,/3V3_SYS*
X16800000Y-45100000D03*
X11500000Y-45100000D03*
X22300000Y-45100000D03*
X26900000Y-31900000D03*
X51400000Y-15400000D03*
X51400000Y-49400000D03*
X33600000Y-24900000D03*
G04 #@! TO.N,/CSI_CLK_OUT_P*
X37088649Y-29511351D03*
X45337500Y-15750000D03*
G04 #@! TO.N,/CSI_D1_OUT_N*
X31701351Y-29958649D03*
X38582500Y-19970000D03*
G04 #@! TO.N,/CSI_D1_OUT_P*
X32178649Y-29481351D03*
X39257500Y-19970000D03*
G04 #@! TO.N,/CSI_D2_OUT_N*
X32528649Y-32658649D03*
X41682500Y-19830000D03*
G04 #@! TO.N,/CSI_D2_OUT_P*
X32051351Y-32181351D03*
X42357500Y-19830000D03*
G04 #@! TO.N,/CSI_CLK_OUT_N*
X36611351Y-29988649D03*
X44662500Y-15750000D03*
G04 #@! TO.N,/PROG_USB_D_N*
X18354986Y-8755162D03*
X47197079Y-27104610D03*
G04 #@! TO.N,/PROG_USB_D_P*
X18839654Y-9224990D03*
X47200000Y-25900000D03*
G04 #@! TO.N,/5V0_DBG_USB*
X34600000Y-6500000D03*
X49000000Y-30600000D03*
G04 #@! TO.N,/USB_D_N*
X23538649Y-36338649D03*
X46800000Y-40237500D03*
G04 #@! TO.N,/USB_D_P*
X23061351Y-35861351D03*
X46800000Y-39562500D03*
G04 #@! TO.N,/E_PROC_SO_3V3*
X43800000Y-19400000D03*
X17400000Y-23300000D03*
G04 #@! TO.N,/E_PROC_SI_3V3*
X43200000Y-19800000D03*
X18600000Y-23300000D03*
G04 #@! TO.N,/E_PROC_SS_3V3*
X46400000Y-20200000D03*
X19600000Y-26300000D03*
G04 #@! TO.N,/E_PROC_SCK_3V3*
X45800000Y-19500000D03*
X16300000Y-23400000D03*
G04 #@! TO.N,/E_CTRL_SS_3V3*
X26250000Y-21000000D03*
X27500000Y-18750000D03*
X46000000Y-26400000D03*
X26600000Y-27800000D03*
G04 #@! TO.N,/E_CTRL_SO_3V3*
X44100000Y-26300000D03*
X25000000Y-27300000D03*
G04 #@! TO.N,/E_PROC_RST_3V3*
X27300000Y-23200000D03*
X22000000Y-23300000D03*
G04 #@! TO.N,/1V8_SYS*
X11100000Y-35700000D03*
X14200000Y-44300000D03*
X19100000Y-44300000D03*
X18200000Y-46500000D03*
X7625010Y-46502963D03*
G04 #@! TO.N,/E_CTRL_SI_3V3*
X42400000Y-26600000D03*
X28100000Y-26800000D03*
G04 #@! TO.N,/E_CTRL_SCK_3V3*
X46300000Y-25700000D03*
X24000000Y-27400000D03*
G04 #@! TO.N,Net-(R7-Pad1)*
X20700000Y-3800000D03*
X15400000Y-11200000D03*
G04 #@! TO.N,Net-(R6-Pad1)*
X11500000Y-12000000D03*
X14750000Y-13500000D03*
X21403749Y-3498126D03*
G04 #@! TO.N,Net-(R5-Pad2)*
X9800000Y-10400000D03*
X22300000Y-3400000D03*
G04 #@! TO.N,/VUSB*
X47750000Y-45750000D03*
X50250000Y-45750000D03*
X50500000Y-32750000D03*
X47500000Y-32750000D03*
X23000000Y-37600000D03*
X22900000Y-38800000D03*
X14960000Y-40630000D03*
X16100000Y-58650000D03*
X16050000Y-59800000D03*
G04 #@! TO.N,/5V0_IN*
X7500000Y-56500000D03*
X6680494Y-55961746D03*
X11850000Y-57600000D03*
X11850000Y-59800000D03*
X8150000Y-59100000D03*
X9100000Y-60650000D03*
G04 #@! TO.N,/VCCIO1*
X31600000Y-45700000D03*
X22900000Y-44300000D03*
X24600000Y-47000000D03*
G04 #@! TO.N,Net-(R25-Pad2)*
X29000000Y-48500000D03*
X32000000Y-44200000D03*
G04 #@! TO.N,Net-(R30-Pad2)*
X45484655Y-34095345D03*
X42950000Y-25080000D03*
G04 #@! TO.N,Net-(R31-Pad2)*
X45560000Y-35040000D03*
X43680000Y-25260000D03*
G04 #@! TO.N,Net-(R32-Pad2)*
X45560000Y-36010000D03*
X44500000Y-25260000D03*
G04 #@! TO.N,Net-(R33-Pad2)*
X45600000Y-37000000D03*
X45400000Y-25260000D03*
G04 #@! TO.N,/VCCIO3*
X42300000Y-24100000D03*
X47100000Y-21800000D03*
X10200000Y-42800000D03*
X47100000Y-30900000D03*
G04 #@! TO.N,/VCCIO2*
X42400000Y-29900000D03*
X47100000Y-28700000D03*
X15500000Y-43700000D03*
G04 #@! TO.N,Net-(R29-Pad2)*
X45700000Y-42000000D03*
X47600000Y-38500000D03*
G04 #@! TO.N,/TMS*
X16000000Y-29250000D03*
X27500000Y-58000000D03*
G04 #@! TO.N,/TCK*
X15500000Y-29750000D03*
X28750000Y-58000000D03*
X26900000Y-57400000D03*
G04 #@! TO.N,/TDO*
X15500000Y-28750000D03*
X30000000Y-58000000D03*
G04 #@! TO.N,/TDI*
X16000000Y-28250000D03*
X31250000Y-58000000D03*
G04 #@! TO.N,/LED3_ISINK*
X8400000Y-28650000D03*
X19350000Y-33400000D03*
G04 #@! TO.N,/LED2_ISINK*
X9650000Y-28650000D03*
X19400000Y-32650000D03*
G04 #@! TO.N,/LED1_ISINK*
X7150000Y-28650000D03*
X18800000Y-32050000D03*
G04 #@! TO.N,/PWR_BTN*
X14749199Y-17749199D03*
X5350000Y-5800000D03*
G04 #@! TO.N,/DBG_RX*
X15500000Y-30750000D03*
X32000000Y-20500000D03*
G04 #@! TO.N,/DBG_TX*
X16000000Y-30250000D03*
X31500000Y-19250000D03*
G04 #@! TO.N,/CTRL_OUT*
X32850000Y-57400000D03*
X16600000Y-64700000D03*
G04 #@! TO.N,/PROC_OUT_0*
X9650000Y-32400000D03*
X31539444Y-40875000D03*
G04 #@! TO.N,/PROC_OUT_1*
X8400000Y-32400000D03*
X33100000Y-41750000D03*
G04 #@! TO.N,/PROC_OUT_2*
X7150000Y-32400000D03*
X32250000Y-41750000D03*
G04 #@! TO.N,/E_PROC_RST*
X35200000Y-46000000D03*
X37700000Y-28300000D03*
G04 #@! TO.N,/CTRL_RST_FLASH_SOC_CS*
X35200000Y-47100000D03*
X37700000Y-31300000D03*
X8500000Y-19000000D03*
G04 #@! TO.N,/DONE*
X35275010Y-44200000D03*
X37400000Y-34200000D03*
X13500000Y-18900000D03*
G04 #@! TO.N,/FLASH_CLK*
X36759637Y-34900000D03*
X13600000Y-26600000D03*
G04 #@! TO.N,/FLASH_CS*
X37400000Y-35200000D03*
X9700000Y-19000000D03*
G04 #@! TO.N,/FLASH_IO0*
X36839365Y-35850587D03*
X11100000Y-26600000D03*
G04 #@! TO.N,/FLASH_IO1*
X37362623Y-36277000D03*
X11000000Y-19000000D03*
G04 #@! TO.N,/FLASH_IO2*
X36922702Y-36822702D03*
X32800000Y-36900000D03*
X12000000Y-27200000D03*
G04 #@! TO.N,/FLASH_IO3*
X37400000Y-37300000D03*
X32800000Y-37800000D03*
X12300000Y-18300000D03*
G04 #@! TO.N,/VCCIO*
X27500000Y-14500000D03*
X32000000Y-15000000D03*
X20300000Y-17000000D03*
X32900000Y-10000000D03*
X24500000Y-1500000D03*
G04 #@! TO.N,Net-(R9-Pad2)*
X18250000Y-6250000D03*
X21000000Y-7750000D03*
G04 #@! TO.N,Net-(R14-Pad1)*
X20250000Y-16000000D03*
X22500000Y-16000000D03*
G04 #@! TO.N,/3V3_FTDI*
X8000000Y-14400000D03*
X11500000Y-17100000D03*
X9800000Y-11300000D03*
X16600000Y-13500000D03*
X32200000Y-11000000D03*
G04 #@! TO.N,/1V8_FTDI*
X28700000Y-3900000D03*
X27100000Y-1600000D03*
X19600000Y-2500000D03*
X29900000Y-11200000D03*
X18200000Y-10900000D03*
X18900000Y-4500000D03*
G04 #@! TO.N,/CTRL_RST_FLASH_SOC_CS_3V3*
X27400000Y-44200000D03*
X30669474Y-44175010D03*
G04 #@! TO.N,Net-(D6-Pad2)*
X10380000Y-39770000D03*
X12240000Y-39690000D03*
G04 #@! TO.N,Net-(D7-Pad2)*
X13300000Y-64650000D03*
X15650000Y-61550000D03*
G04 #@! TO.N,Net-(D11-Pad2)*
X20150000Y-60900000D03*
X8400000Y-34900000D03*
G04 #@! TO.N,Net-(D8-Pad2)*
X24150000Y-60900000D03*
X7150000Y-31150000D03*
G04 #@! TO.N,Net-(D10-Pad2)*
X24150000Y-59150000D03*
X9650000Y-31150000D03*
G04 #@! TO.N,Net-(D13-Pad2)*
X20150000Y-62650000D03*
X7150000Y-34900000D03*
G04 #@! TO.N,Net-(D12-Pad2)*
X24150000Y-62650000D03*
X8400000Y-31150000D03*
G04 #@! TO.N,Net-(D9-Pad2)*
X20150000Y-59150000D03*
X9650000Y-34900000D03*
G04 #@! TD*
D13*
G04 #@! TO.N,/CSI_CLK_IN_N*
X23278649Y-28551161D02*
X23278649Y-28798649D01*
X23417310Y-28412500D02*
X23278649Y-28551161D01*
X41934504Y-43434314D02*
X39892690Y-41392500D01*
X29467500Y-36707310D02*
X29467500Y-32157310D01*
X41962426Y-43469328D02*
X41934504Y-43434314D01*
X41981859Y-43509680D02*
X41962426Y-43469328D01*
X41991824Y-43598128D02*
X41991824Y-43553342D01*
X41981859Y-43641792D02*
X41991824Y-43598128D01*
X41962427Y-43682142D02*
X41981859Y-43641792D01*
X41904633Y-43747027D02*
X41934504Y-43717157D01*
X42252362Y-43972076D02*
X42217348Y-44000001D01*
X41991824Y-43553342D02*
X41981859Y-43509680D01*
X42336376Y-43942679D02*
X42292712Y-43952644D01*
X41939649Y-44057794D02*
X41904634Y-44029871D01*
X41847311Y-43866055D02*
X41857278Y-43822393D01*
X41876710Y-43782043D02*
X41904633Y-43747027D01*
X41857278Y-43822393D02*
X41876710Y-43782043D01*
X42424824Y-43952644D02*
X42381162Y-43942679D01*
X39892690Y-41392500D02*
X34152690Y-41392500D01*
X42381162Y-43942679D02*
X42336376Y-43942679D01*
X41934504Y-43717157D02*
X41962427Y-43682142D01*
X43641351Y-45388649D02*
X43641351Y-45141161D01*
X42217348Y-44000001D02*
X42187476Y-44029870D01*
X42465176Y-43972077D02*
X42424824Y-43952644D01*
X43641351Y-45141161D02*
X42500190Y-44000000D01*
X34152690Y-41392500D02*
X29467500Y-36707310D01*
X42500190Y-44000000D02*
X42465176Y-43972077D01*
X41857278Y-43954505D02*
X41847311Y-43910841D01*
X42152461Y-44057793D02*
X42112111Y-44077225D01*
X41847311Y-43910841D02*
X41847311Y-43866055D01*
X42112111Y-44077225D02*
X42068449Y-44087192D01*
X29467500Y-32157310D02*
X25722690Y-28412500D01*
X42187476Y-44029870D02*
X42152461Y-44057793D01*
X42068449Y-44087192D02*
X42023663Y-44087192D01*
X42292712Y-43952644D02*
X42252362Y-43972076D01*
X42023663Y-44087192D02*
X41979999Y-44077225D01*
X41904634Y-44029871D02*
X41876709Y-43994855D01*
X25722690Y-28412500D02*
X23417310Y-28412500D01*
X41979999Y-44077225D02*
X41939649Y-44057794D01*
X41876709Y-43994855D02*
X41857278Y-43954505D01*
G04 #@! TO.N,/CSI_D2_IN_P*
X27270543Y-41935715D02*
X27406366Y-41799891D01*
X25626933Y-41510124D02*
X26235942Y-40901115D01*
X25713729Y-39955476D02*
X25629289Y-40022815D01*
X27544598Y-41404846D02*
X27520565Y-41299551D01*
X25715914Y-41837216D02*
X25678211Y-41819059D01*
X25600842Y-41542842D02*
X25626933Y-41510124D01*
X25582686Y-41703988D02*
X25573374Y-41663190D01*
X24512511Y-39441967D02*
X24512511Y-33425213D01*
X27226295Y-42006136D02*
X27244452Y-41968433D01*
X25756712Y-41846528D02*
X25715914Y-41837216D01*
X26371766Y-40765291D02*
X26439104Y-40680851D01*
X25573373Y-41621342D02*
X25582685Y-41580544D01*
X25382247Y-40212198D02*
X25340400Y-40212198D01*
X25877059Y-41819058D02*
X25839356Y-41837215D01*
X27473705Y-41202244D02*
X27406366Y-41117804D01*
X27406366Y-41799891D02*
X27473705Y-41715451D01*
X27244452Y-41968433D02*
X27270543Y-41935715D01*
X26156828Y-41545918D02*
X25909776Y-41792967D01*
X26226937Y-39955476D02*
X26129629Y-39908615D01*
X26509998Y-40370246D02*
X26485965Y-40264951D01*
X25261899Y-40184729D02*
X25229181Y-40158638D01*
X26845637Y-40943215D02*
X26748329Y-40990076D01*
X26660000Y-41040000D02*
X26277126Y-41422873D01*
X27473705Y-41715451D02*
X27520565Y-41618144D01*
X26439104Y-40167644D02*
X26371766Y-40083204D01*
X26371766Y-40083204D02*
X26311377Y-40022815D01*
X25229181Y-40158638D02*
X24512511Y-39441967D01*
X36801092Y-44672500D02*
X36626103Y-44847489D01*
X37190000Y-44672500D02*
X36801092Y-44672500D01*
X36626103Y-44847489D02*
X29918033Y-44847489D01*
X29918033Y-44847489D02*
X27270543Y-42199999D01*
X27270543Y-42199999D02*
X27244452Y-42167282D01*
X27244452Y-42167282D02*
X27226295Y-42129579D01*
X27164229Y-40943215D02*
X27058934Y-40919182D01*
X27226295Y-42129579D02*
X27216983Y-42088781D01*
X26509998Y-40478249D02*
X26509998Y-40370246D01*
X27216983Y-42088781D02*
X27216983Y-42046934D01*
X27216983Y-42046934D02*
X27226295Y-42006136D01*
X26439104Y-40680851D02*
X26485965Y-40583544D01*
X27520565Y-41618144D02*
X27544598Y-41512849D01*
X27345977Y-41057415D02*
X27261537Y-40990076D01*
X26485965Y-40583544D02*
X26509998Y-40478249D01*
X27544598Y-41512849D02*
X27544598Y-41404846D01*
X27520565Y-41299551D02*
X27473705Y-41202244D01*
X27261537Y-40990076D02*
X27164229Y-40943215D01*
X27406366Y-41117804D02*
X27345977Y-41057415D01*
X27058934Y-40919182D02*
X26950932Y-40919182D01*
X26235942Y-40901115D02*
X26371766Y-40765291D01*
X26950932Y-40919182D02*
X26845637Y-40943215D01*
X25645492Y-41792967D02*
X25626933Y-41774408D01*
X26748329Y-40990076D02*
X26663889Y-41057415D01*
X26271735Y-41431008D02*
X26156828Y-41545918D01*
X25811037Y-39908615D02*
X25713729Y-39955476D01*
X25909776Y-41792967D02*
X25877059Y-41819058D01*
X25839356Y-41837215D02*
X25798558Y-41846527D01*
X25798558Y-41846527D02*
X25756712Y-41846528D01*
X25678211Y-41819059D02*
X25645492Y-41792967D01*
X24512511Y-33425213D02*
X23248649Y-32161351D01*
X25626933Y-41774408D02*
X25600841Y-41741690D01*
X25600841Y-41741690D02*
X25582686Y-41703988D01*
X25573374Y-41663190D02*
X25573373Y-41621342D01*
X25582685Y-41580544D02*
X25600842Y-41542842D01*
X25423045Y-40202886D02*
X25382247Y-40212198D01*
X26485965Y-40264951D02*
X26439104Y-40167644D01*
X26311377Y-40022815D02*
X26226937Y-39955476D01*
X26129629Y-39908615D02*
X26024334Y-39884582D01*
X26024334Y-39884582D02*
X25916332Y-39884582D01*
X25493465Y-40158638D02*
X25460748Y-40184729D01*
X25916332Y-39884582D02*
X25811037Y-39908615D01*
X25629289Y-40022815D02*
X25493465Y-40158638D01*
X25460748Y-40184729D02*
X25423045Y-40202886D01*
X25340400Y-40212198D02*
X25299602Y-40202886D01*
X25299602Y-40202886D02*
X25261899Y-40184729D01*
G04 #@! TO.N,/CSI_D2_IN_N*
X25870908Y-40247454D02*
X25838191Y-40273546D01*
X26165282Y-40485969D02*
X26174594Y-40445171D01*
X25991256Y-40219986D02*
X25949409Y-40219986D01*
X26032054Y-40229298D02*
X25991256Y-40219986D01*
X26069757Y-40247454D02*
X26032054Y-40229298D01*
X25202027Y-40523568D02*
X25104720Y-40476708D01*
X26165282Y-40362526D02*
X26147125Y-40324823D01*
X35519806Y-45501514D02*
X35505014Y-45459242D01*
X26147125Y-40523672D02*
X26165282Y-40485969D01*
X35905014Y-45327996D02*
X35900000Y-45372500D01*
X25397118Y-41280308D02*
X25759075Y-40918348D01*
X25237970Y-41588266D02*
X25262003Y-41482971D01*
X25308863Y-41898870D02*
X25262003Y-41801563D01*
X25521032Y-42111038D02*
X25436592Y-42043700D01*
X25723634Y-42181932D02*
X25618339Y-42157899D01*
X26034238Y-42111037D02*
X25936931Y-42157898D01*
X25308863Y-41385662D02*
X25376203Y-41301223D01*
X26118678Y-42043699D02*
X26034238Y-42111037D01*
X25262003Y-41801563D02*
X25237970Y-41696268D01*
X26872791Y-41308146D02*
X26510832Y-41670104D01*
X25520620Y-40523568D02*
X25415325Y-40547601D01*
X26174594Y-40403324D02*
X26165282Y-40362526D01*
X26905508Y-41282054D02*
X26872791Y-41308146D01*
X26943211Y-41263898D02*
X26905508Y-41282054D01*
X25831636Y-42181931D02*
X25723634Y-42181932D01*
X27066654Y-41263898D02*
X27025856Y-41254586D01*
X27104357Y-41282054D02*
X27066654Y-41263898D01*
X25618339Y-42157899D02*
X25521032Y-42111038D01*
X25237970Y-41696268D02*
X25237970Y-41588266D01*
X27025856Y-41254586D02*
X26984009Y-41254586D01*
X27137075Y-41308146D02*
X27104357Y-41282054D01*
X27155634Y-41326705D02*
X27137075Y-41308146D01*
X26510832Y-41670104D02*
X26127958Y-42052978D01*
X26102475Y-40273546D02*
X26069757Y-40247454D01*
X27209194Y-41437924D02*
X27199882Y-41397126D01*
X27209194Y-41479771D02*
X27209194Y-41437924D01*
X27199882Y-41520569D02*
X27209194Y-41479771D01*
X35500000Y-45414737D02*
X35500000Y-45372500D01*
X29783410Y-45172500D02*
X27019811Y-42408901D01*
X25759075Y-40918348D02*
X26121034Y-40556389D01*
X35700000Y-45614737D02*
X35655495Y-45609723D01*
X36100000Y-45172500D02*
X36055495Y-45177515D01*
X25949409Y-40219986D02*
X25908611Y-40229298D01*
X35824697Y-45571104D02*
X35786776Y-45594931D01*
X35894985Y-45459242D02*
X35880193Y-45501514D01*
X25936931Y-42157898D02*
X25831636Y-42181931D01*
X26905612Y-41908561D02*
X26952472Y-41811254D01*
X25436592Y-42043700D02*
X25376203Y-41983311D01*
X35880193Y-45501514D02*
X35856366Y-45539435D01*
X27199882Y-41397126D02*
X27181725Y-41359423D01*
X35500000Y-45372500D02*
X35494985Y-45327996D01*
X36626092Y-45172500D02*
X36100000Y-45172500D01*
X35575302Y-45571104D02*
X35543633Y-45539435D01*
X35900000Y-45414737D02*
X35894985Y-45459242D01*
X25262003Y-41482971D02*
X25308863Y-41385662D01*
X35900000Y-45372500D02*
X35900000Y-45414737D01*
X35613223Y-45594931D02*
X35575302Y-45571104D01*
X35786776Y-45594931D02*
X35744504Y-45609723D01*
X25838191Y-40273546D02*
X25702367Y-40409369D01*
X36013223Y-45192307D02*
X35975302Y-45216134D01*
X35856366Y-45539435D02*
X35824697Y-45571104D01*
X35456366Y-45247803D02*
X35424697Y-45216134D01*
X37190000Y-45347500D02*
X36801092Y-45347500D01*
X25376203Y-41301223D02*
X25397118Y-41280308D01*
X26121034Y-40292105D02*
X26102475Y-40273546D01*
X26881579Y-42013856D02*
X26905612Y-41908561D01*
X36055495Y-45177515D02*
X36013223Y-45192307D01*
X35655495Y-45609723D02*
X35613223Y-45594931D01*
X35480193Y-45285724D02*
X35456366Y-45247803D01*
X35744504Y-45609723D02*
X35700000Y-45614737D01*
X25376203Y-41983311D02*
X25308863Y-41898870D01*
X35543633Y-45539435D02*
X35519806Y-45501514D01*
X35919806Y-45285724D02*
X35905014Y-45327996D01*
X36801092Y-45347500D02*
X36626092Y-45172500D01*
X27019811Y-41726814D02*
X27040726Y-41705898D01*
X24187500Y-39576590D02*
X24187500Y-33807310D01*
X25908611Y-40229298D02*
X25870908Y-40247454D01*
X35424697Y-45216134D02*
X35386776Y-45192307D01*
X35386776Y-45192307D02*
X35344504Y-45177515D01*
X26952472Y-42324461D02*
X26905612Y-42227154D01*
X35344504Y-45177515D02*
X35300000Y-45172500D01*
X35943633Y-45247803D02*
X35919806Y-45285724D01*
X26881579Y-42121859D02*
X26881579Y-42013856D01*
X26905612Y-42227154D02*
X26881579Y-42121859D01*
X26121034Y-40556389D02*
X26147125Y-40523672D01*
X25307322Y-40547601D02*
X25202027Y-40523568D01*
X35505014Y-45459242D02*
X35500000Y-45414737D01*
X35494985Y-45327996D02*
X35480193Y-45285724D01*
X26984009Y-41254586D02*
X26943211Y-41263898D01*
X35300000Y-45172500D02*
X29783410Y-45172500D01*
X35975302Y-45216134D02*
X35943633Y-45247803D01*
X27155634Y-41590989D02*
X27181725Y-41558272D01*
X26147125Y-40324823D02*
X26121034Y-40292105D01*
X27019811Y-42408901D02*
X26952472Y-42324461D01*
X26952472Y-41811254D02*
X27019811Y-41726814D01*
X27181725Y-41359423D02*
X27155634Y-41326705D01*
X27040726Y-41705898D02*
X27155634Y-41590989D01*
X26174594Y-40445171D02*
X26174594Y-40403324D01*
X27181725Y-41558272D02*
X27199882Y-41520569D01*
X25702367Y-40409369D02*
X25617927Y-40476708D01*
X25617927Y-40476708D02*
X25520620Y-40523568D01*
X25415325Y-40547601D02*
X25307322Y-40547601D01*
X25104720Y-40476708D02*
X25020280Y-40409369D01*
X25020280Y-40409369D02*
X24187500Y-39576590D01*
X24187500Y-33807310D02*
X23293838Y-32913648D01*
X23293838Y-32913648D02*
X23046350Y-32913648D01*
X23046350Y-32913648D02*
X22771351Y-32638649D01*
G04 #@! TO.N,/CSI_D1_IN_P*
X29178861Y-42184127D02*
X29197340Y-42145759D01*
X29169385Y-42268231D02*
X29169385Y-42225645D01*
X29427617Y-41891525D02*
X29474780Y-41793593D01*
X29393551Y-42449811D02*
X29350965Y-42449811D01*
X29498966Y-41687620D02*
X29498967Y-41578924D01*
X29506734Y-42395306D02*
X29473440Y-42421859D01*
X29474780Y-41472953D02*
X29427617Y-41375019D01*
X30949772Y-41652631D02*
X30864789Y-41584860D01*
X29178862Y-42309751D02*
X29169385Y-42268231D01*
X29309447Y-42440335D02*
X29271078Y-42421858D01*
X30824780Y-42728336D02*
X30815304Y-42686817D01*
X31073535Y-42310111D02*
X31120697Y-42212178D01*
X29473440Y-42421859D02*
X29435071Y-42440336D01*
X30843257Y-42564344D02*
X30869809Y-42531049D01*
X31120697Y-41891538D02*
X31073535Y-41793605D01*
X29359846Y-41290036D02*
X29338797Y-41268988D01*
X38937310Y-43047500D02*
X31117310Y-43047500D01*
X31120697Y-42212178D02*
X31144884Y-42106206D01*
X30864789Y-41584860D02*
X30766857Y-41537698D01*
X30766857Y-41537698D02*
X30660885Y-41513510D01*
X29435071Y-42440336D02*
X29393551Y-42449811D01*
X31144884Y-41997509D02*
X31120697Y-41891538D01*
X30869809Y-42800000D02*
X30843257Y-42766704D01*
X29350965Y-42449811D02*
X29309447Y-42440335D01*
X31144884Y-42106206D02*
X31144884Y-41997509D01*
X26272500Y-38202690D02*
X26272500Y-31222690D01*
X31005764Y-41708622D02*
X30949772Y-41652631D01*
X29237784Y-42395307D02*
X29223892Y-42381415D01*
X39708649Y-46388649D02*
X39708649Y-46141161D01*
X29271078Y-42421858D02*
X29237784Y-42395307D01*
X40052500Y-45797310D02*
X40052500Y-44162690D01*
X26272500Y-31222690D02*
X24467310Y-29417500D01*
X30446216Y-41537698D02*
X30348284Y-41584860D01*
X39708649Y-46141161D02*
X40052500Y-45797310D01*
X29871020Y-42031020D02*
X29506734Y-42395306D01*
X31117310Y-43047500D02*
X30869809Y-42800000D01*
X29223892Y-42381415D02*
X29197340Y-42348119D01*
X31005764Y-42395093D02*
X31073535Y-42310111D01*
X30660885Y-41513510D02*
X30552188Y-41513510D01*
X40052500Y-44162690D02*
X38937310Y-43047500D01*
X29223891Y-42112463D02*
X29359847Y-41976508D01*
X31073535Y-41793605D02*
X31005764Y-41708622D01*
X30815304Y-42644231D02*
X30824780Y-42602713D01*
X30869809Y-42531049D02*
X31005764Y-42395093D01*
X29169385Y-42225645D02*
X29178861Y-42184127D01*
X29197340Y-42145759D02*
X29223891Y-42112463D01*
X30824780Y-42602713D02*
X30843257Y-42564344D01*
X29474780Y-41793593D02*
X29498966Y-41687620D01*
X29498967Y-41578924D02*
X29474780Y-41472953D01*
X29427617Y-41375019D02*
X29359846Y-41290036D01*
X29338797Y-41268988D02*
X26272500Y-38202690D01*
X24467310Y-29417500D02*
X23622690Y-29417500D01*
X30815304Y-42686817D02*
X30815304Y-42644231D01*
X23622690Y-29417500D02*
X23208839Y-29831351D01*
X30552188Y-41513510D02*
X30446216Y-41537698D01*
X29197340Y-42348119D02*
X29178862Y-42309751D01*
X30255336Y-41644665D02*
X29870000Y-42030000D01*
X30843257Y-42766704D02*
X30824780Y-42728336D01*
X23208839Y-29831351D02*
X22961351Y-29831351D01*
X29359847Y-41976508D02*
X29427617Y-41891525D01*
X30340319Y-41576894D02*
X30255336Y-41644665D01*
G04 #@! TO.N,/CSI_D1_IN_N*
X23438649Y-30061161D02*
X23438649Y-30308649D01*
X23757310Y-29742500D02*
X23438649Y-30061161D01*
X24332690Y-29742500D02*
X23757310Y-29742500D01*
X29163492Y-41654564D02*
X29163493Y-41611978D01*
X29154016Y-41696082D02*
X29163492Y-41654564D01*
X28994082Y-41882653D02*
X29108986Y-41767746D01*
X28858099Y-42086618D02*
X28905261Y-41988686D01*
X28833911Y-42192590D02*
X28858099Y-42086618D01*
X28833910Y-42301286D02*
X28833911Y-42192590D01*
X28858098Y-42407258D02*
X28833910Y-42301286D01*
X28905260Y-42505190D02*
X28858098Y-42407258D01*
X28973031Y-42590173D02*
X28905260Y-42505190D01*
X29211938Y-42761098D02*
X29114006Y-42713936D01*
X29426607Y-42785285D02*
X29317911Y-42785286D01*
X29532578Y-42761097D02*
X29426607Y-42785285D01*
X29715493Y-42646164D02*
X29630510Y-42713935D01*
X30105336Y-42264665D02*
X29720000Y-42650000D01*
X30472062Y-41903490D02*
X30107776Y-42267775D01*
X30505357Y-41876938D02*
X30472062Y-41903490D01*
X30669349Y-41858460D02*
X30627830Y-41848984D01*
X30781457Y-41950677D02*
X30754905Y-41917382D01*
X30809411Y-42073151D02*
X30809411Y-42030564D01*
X30781457Y-42153038D02*
X30799935Y-42114669D01*
X30754905Y-42186333D02*
X30781457Y-42153038D01*
X30551179Y-42407271D02*
X30618950Y-42322289D01*
X30504017Y-42505204D02*
X30551179Y-42407271D01*
X30479829Y-42611176D02*
X30504017Y-42505204D01*
X30504017Y-42825844D02*
X30479829Y-42719873D01*
X30618950Y-43008760D02*
X30551179Y-42923777D01*
X30982690Y-43372500D02*
X30618950Y-43008760D01*
X36300000Y-43372500D02*
X30982690Y-43372500D01*
X30754905Y-41917382D02*
X30741013Y-41903490D01*
X36344504Y-43377515D02*
X36300000Y-43372500D01*
X29135539Y-41734452D02*
X29154016Y-41696082D01*
X36575302Y-43771113D02*
X36543633Y-43739444D01*
X29029023Y-42646165D02*
X28973031Y-42590173D01*
X29317911Y-42785286D02*
X29211938Y-42761098D01*
X28973032Y-41903703D02*
X28994082Y-41882653D01*
X36543633Y-43739444D02*
X36519806Y-43701523D01*
X36505014Y-43659251D02*
X36500000Y-43614746D01*
X30618950Y-42322289D02*
X30754905Y-42186333D01*
X36744504Y-43809732D02*
X36700000Y-43814746D01*
X36456366Y-43447803D02*
X36424697Y-43416134D01*
X29154017Y-41570460D02*
X29135538Y-41532090D01*
X30543726Y-41858460D02*
X30505357Y-41876938D01*
X28905261Y-41988686D02*
X28973032Y-41903703D01*
X36975302Y-43416134D02*
X36943633Y-43447803D01*
X30799935Y-42114669D02*
X30809411Y-42073151D01*
X36500000Y-43572500D02*
X36494985Y-43527996D01*
X36700000Y-43814746D02*
X36655495Y-43809732D01*
X36424697Y-43416134D02*
X36386776Y-43392307D01*
X29108987Y-41498796D02*
X25947500Y-38337310D01*
X29114006Y-42713936D02*
X29029023Y-42646165D01*
X30707717Y-41876938D02*
X30669349Y-41858460D01*
X37100000Y-43372500D02*
X37055495Y-43377515D01*
X30585244Y-41848984D02*
X30543726Y-41858460D01*
X30627830Y-41848984D02*
X30585244Y-41848984D01*
X39727500Y-44297310D02*
X38802690Y-43372500D01*
X29108986Y-41767746D02*
X29135539Y-41734452D01*
X36494985Y-43527996D02*
X36480193Y-43485724D01*
X36894985Y-43659251D02*
X36880193Y-43701523D01*
X29163493Y-41611978D02*
X29154017Y-41570460D01*
X30479829Y-42719873D02*
X30479829Y-42611176D01*
X30799935Y-41989046D02*
X30781457Y-41950677D01*
X36943633Y-43447803D02*
X36919806Y-43485724D01*
X30809411Y-42030564D02*
X30799935Y-41989046D01*
X36880193Y-43701523D02*
X36856366Y-43739444D01*
X39478839Y-45911351D02*
X39727500Y-45662690D01*
X39727500Y-45662690D02*
X39727500Y-44297310D01*
X29630510Y-42713935D02*
X29532578Y-42761097D01*
X38802690Y-43372500D02*
X37100000Y-43372500D01*
X25947500Y-38337310D02*
X25947500Y-31357310D01*
X37055495Y-43377515D02*
X37013223Y-43392307D01*
X25947500Y-31357310D02*
X24332690Y-29742500D01*
X37013223Y-43392307D02*
X36975302Y-43416134D01*
X36919806Y-43485724D02*
X36905014Y-43527996D01*
X36856366Y-43739444D02*
X36824697Y-43771113D01*
X36786776Y-43794940D02*
X36744504Y-43809732D01*
X39231351Y-45911351D02*
X39478839Y-45911351D01*
X36613223Y-43794940D02*
X36575302Y-43771113D01*
X30551179Y-42923777D02*
X30504017Y-42825844D01*
X36905014Y-43527996D02*
X36900000Y-43572500D01*
X36386776Y-43392307D02*
X36344504Y-43377515D01*
X36900000Y-43572500D02*
X36900000Y-43614746D01*
X36900000Y-43614746D02*
X36894985Y-43659251D01*
X36824697Y-43771113D02*
X36786776Y-43794940D01*
X36519806Y-43701523D02*
X36505014Y-43659251D01*
X29135538Y-41532090D02*
X29108987Y-41498796D01*
X30741013Y-41903490D02*
X30707717Y-41876938D01*
X36655495Y-43809732D02*
X36613223Y-43794940D01*
X36500000Y-43614746D02*
X36500000Y-43572500D01*
X36480193Y-43485724D02*
X36456366Y-43447803D01*
G04 #@! TO.N,/CSI_CLK_IN_P*
X43871161Y-44911351D02*
X44118649Y-44911351D01*
X34287310Y-41067500D02*
X40027310Y-41067500D01*
X29792500Y-36572690D02*
X34287310Y-41067500D01*
X29792500Y-32022690D02*
X29792500Y-36572690D01*
X23282690Y-28087500D02*
X25857310Y-28087500D01*
X22801351Y-28321351D02*
X23048839Y-28321351D01*
X23048839Y-28321351D02*
X23282690Y-28087500D01*
X40027310Y-41067500D02*
X43871161Y-44911351D01*
X25857310Y-28087500D02*
X29792500Y-32022690D01*
D14*
G04 #@! TO.N,/CAM_GPIO*
X52500000Y-21000000D02*
X47500000Y-16000000D01*
X47500000Y-49250000D02*
X47774999Y-48975001D01*
X47774999Y-48975001D02*
X48024999Y-48975001D01*
X48024999Y-48975001D02*
X52500000Y-44500000D01*
X52500000Y-44500000D02*
X52500000Y-21000000D01*
G04 #@! TO.N,/CAM_CLK*
X48774999Y-16274999D02*
X48500000Y-16000000D01*
X53000000Y-20500000D02*
X48774999Y-16274999D01*
X53000000Y-44750000D02*
X53000000Y-20500000D01*
X48500000Y-49250000D02*
X53000000Y-44750000D01*
G04 #@! TO.N,/CAM_SCL*
X49500000Y-49250000D02*
X49500000Y-48750000D01*
X53500000Y-44750000D02*
X53500000Y-20250000D01*
X49500000Y-48750000D02*
X53500000Y-44750000D01*
X53500000Y-20250000D02*
X49500000Y-16250000D01*
X49500000Y-16250000D02*
X49500000Y-16000000D01*
G04 #@! TO.N,/CAM_SDA*
X50500000Y-48500000D02*
X54000000Y-45000000D01*
X54000000Y-19500000D02*
X50774999Y-16274999D01*
X50500000Y-49250000D02*
X50500000Y-48500000D01*
X54000000Y-45000000D02*
X54000000Y-19500000D01*
X50774999Y-16274999D02*
X50500000Y-16000000D01*
D13*
G04 #@! TO.N,/CSI_CLK_OUT_P*
X36841161Y-29511351D02*
X37088649Y-29511351D01*
X37816290Y-26993523D02*
X36582500Y-28227310D01*
X37935318Y-26936201D02*
X37891654Y-26946168D01*
X38064118Y-26965599D02*
X38023766Y-26946168D01*
X38099132Y-26993524D02*
X38064118Y-26965599D01*
X38599344Y-27424458D02*
X38499545Y-27376396D01*
X39025899Y-27376396D02*
X38926100Y-27424457D01*
X39155401Y-26564872D02*
X39224466Y-26651474D01*
X40249771Y-25626169D02*
X40297831Y-25725970D01*
X39112503Y-27307332D02*
X39025899Y-27376396D01*
X39155403Y-27264430D02*
X39112503Y-27307332D01*
X38707337Y-27449107D02*
X38599344Y-27424458D01*
X39272528Y-27078027D02*
X39224466Y-27177828D01*
X39297176Y-26859266D02*
X39297176Y-26970036D01*
X38491398Y-25418171D02*
X38478184Y-25428709D01*
X38280452Y-25649729D02*
X38280452Y-25666630D01*
X40051204Y-26351091D02*
X39951405Y-26399152D01*
X39272526Y-26751275D02*
X39297176Y-26859266D01*
X38478184Y-25428709D02*
X38302084Y-25604808D01*
X45142500Y-16340000D02*
X45142500Y-19667310D01*
X39224466Y-26651474D02*
X39272526Y-26751275D01*
X40137808Y-26282027D02*
X40051204Y-26351091D01*
X38585265Y-25994732D02*
X38585265Y-25994736D01*
X38284213Y-25683109D02*
X38291546Y-25698337D01*
X38280452Y-25666630D02*
X38284213Y-25683109D01*
X38302084Y-25604808D02*
X38291546Y-25618022D01*
X38585265Y-25994736D02*
X38841593Y-26251061D01*
X38499545Y-27376396D02*
X38412941Y-27307333D01*
X38291546Y-25618022D02*
X38284213Y-25633250D01*
X38506626Y-25410837D02*
X38491398Y-25418171D01*
X39624649Y-26399153D02*
X39524850Y-26351091D01*
X38523105Y-25407076D02*
X38506626Y-25410837D01*
X38540006Y-25407076D02*
X38523105Y-25407076D01*
X38556485Y-25410837D02*
X38540006Y-25407076D01*
X38412941Y-27307333D02*
X38099132Y-26993524D01*
X38571713Y-25418171D02*
X38556485Y-25410837D01*
X38584927Y-25428709D02*
X38571713Y-25418171D01*
X38023766Y-26946168D02*
X37980104Y-26936201D01*
X39438246Y-26282028D02*
X38584927Y-25428709D01*
X38841593Y-26251061D02*
X39133952Y-26543420D01*
X39524850Y-26351091D02*
X39438246Y-26282028D01*
X39525203Y-24384365D02*
X39511988Y-24394904D01*
X37891654Y-26946168D02*
X37851304Y-26965600D01*
X39297176Y-26970036D02*
X39272528Y-27078027D01*
X39974569Y-24634320D02*
X39892191Y-24615517D01*
X39605517Y-24384365D02*
X39590289Y-24377032D01*
X39618732Y-24394904D02*
X39605517Y-24384365D01*
X40297831Y-25725970D02*
X40322481Y-25833961D01*
X39843412Y-26423801D02*
X39732642Y-26423802D01*
X39733637Y-24509809D02*
X39618732Y-24394904D01*
X40217574Y-24578855D02*
X40141445Y-24615517D01*
X45142500Y-19667310D02*
X40283636Y-24526173D01*
X39335888Y-24571003D02*
X39325350Y-24584217D01*
X39133952Y-26543420D02*
X39155401Y-26564872D01*
X40322481Y-25833961D02*
X40322481Y-25944731D01*
X39335888Y-24677746D02*
X39619069Y-24960927D01*
X37980104Y-26936201D02*
X37935318Y-26936201D01*
X38284213Y-25633250D02*
X38280452Y-25649729D01*
X39540431Y-24377032D02*
X39525203Y-24384365D01*
X38926100Y-27424457D02*
X38818107Y-27449106D01*
X40159257Y-25518115D02*
X40180706Y-25539567D01*
X45337500Y-16145000D02*
X45142500Y-16340000D01*
X45337500Y-15750000D02*
X45337500Y-16145000D01*
X38302084Y-25711551D02*
X38585265Y-25994732D01*
X39573811Y-24373271D02*
X39556909Y-24373271D01*
X40283636Y-24526173D02*
X40217574Y-24578855D01*
X39556909Y-24373271D02*
X39540431Y-24377032D01*
X39511988Y-24394904D02*
X39335888Y-24571003D01*
X39732642Y-26423802D02*
X39624649Y-26399153D01*
X36582500Y-29252690D02*
X36841161Y-29511351D01*
X39224466Y-27177828D02*
X39155403Y-27264430D01*
X39951405Y-26399152D02*
X39843412Y-26423801D01*
X40141445Y-24615517D02*
X40059066Y-24634320D01*
X38291546Y-25698337D02*
X38302084Y-25711551D01*
X39750000Y-24526173D02*
X39733637Y-24509809D01*
X40059066Y-24634320D02*
X39974569Y-24634320D01*
X39892191Y-24615517D02*
X39816062Y-24578855D01*
X39590289Y-24377032D02*
X39573811Y-24373271D01*
X39314256Y-24632825D02*
X39318017Y-24649304D01*
X39325350Y-24584217D02*
X39318017Y-24599445D01*
X36582500Y-28227310D02*
X36582500Y-29252690D01*
X38818107Y-27449106D02*
X38707337Y-27449107D01*
X39318017Y-24599445D02*
X39314256Y-24615924D01*
X39630000Y-24970000D02*
X39744906Y-25084903D01*
X40180706Y-25539567D02*
X40249771Y-25626169D01*
X39314256Y-24615924D02*
X39314256Y-24632825D01*
X39318017Y-24649304D02*
X39325350Y-24664532D01*
X39325350Y-24664532D02*
X39335888Y-24677746D01*
X37851304Y-26965600D02*
X37816290Y-26993523D01*
X39730000Y-25070000D02*
X40163781Y-25503781D01*
X40322481Y-25944731D02*
X40297833Y-26052722D01*
X39816062Y-24578855D02*
X39750000Y-24526173D01*
X40297833Y-26052722D02*
X40249771Y-26152523D01*
X40249771Y-26152523D02*
X40180708Y-26239125D01*
X40180708Y-26239125D02*
X40137808Y-26282027D01*
G04 #@! TO.N,/CSI_D1_OUT_N*
X32342690Y-30917500D02*
X31097310Y-30917500D01*
X33217500Y-30042690D02*
X32342690Y-30917500D01*
X33217500Y-27312690D02*
X33217500Y-30042690D01*
X33871786Y-26658409D02*
X33217500Y-27312690D01*
X33888639Y-26641555D02*
X33871786Y-26658409D01*
X34119950Y-26530161D02*
X34035099Y-26549528D01*
X34291835Y-26549528D02*
X34206984Y-26530161D01*
X34370249Y-26587290D02*
X34291835Y-26549528D01*
X31701351Y-29711161D02*
X31701351Y-29958649D01*
X34570052Y-26773314D02*
X34438293Y-26641555D01*
X34585372Y-26785529D02*
X34570052Y-26773314D01*
X34603025Y-26794030D02*
X34585372Y-26785529D01*
X30432500Y-30252690D02*
X30432500Y-29747310D01*
X34622128Y-26798391D02*
X34603025Y-26794030D01*
X34641722Y-26798391D02*
X34622128Y-26798391D01*
X34678476Y-26785530D02*
X34660823Y-26794031D01*
X34693796Y-26773313D02*
X34678476Y-26785530D01*
X34852894Y-26614214D02*
X34693796Y-26773313D01*
X30432500Y-29747310D02*
X30827310Y-29352500D01*
X34561211Y-26198788D02*
X34561214Y-26198787D01*
X34115496Y-25753073D02*
X34561211Y-26198788D01*
X34046432Y-25666470D02*
X34115496Y-25753073D01*
X33973722Y-25347908D02*
X33973722Y-25458677D01*
X33998371Y-25239915D02*
X33973722Y-25347908D01*
X34115496Y-25053512D02*
X34046432Y-25140116D01*
X34344800Y-24893486D02*
X34245001Y-24941547D01*
X34771355Y-24941547D02*
X34671555Y-24893486D01*
X34877973Y-26542544D02*
X34877973Y-26562138D01*
X34857958Y-25010611D02*
X34771355Y-24941547D01*
X34561214Y-26198787D02*
X34623084Y-26260660D01*
X35211161Y-25257321D02*
X35166375Y-25257321D01*
X35254824Y-25247355D02*
X35211161Y-25257321D01*
X35330190Y-25200000D02*
X35295175Y-25227923D01*
X37626129Y-22904060D02*
X37520065Y-23010125D01*
X37654052Y-22869043D02*
X37626129Y-22904060D01*
X37673484Y-22828693D02*
X37654052Y-22869043D01*
X37683450Y-22785030D02*
X37673484Y-22828693D01*
X37683450Y-22740244D02*
X37683450Y-22785030D01*
X34206984Y-26530161D02*
X34119950Y-26530161D01*
X37654052Y-22656230D02*
X37673484Y-22696581D01*
X37520034Y-22515121D02*
X37626129Y-22621216D01*
X34438293Y-26641555D02*
X34370249Y-26587290D01*
X33998371Y-25566670D02*
X34046432Y-25666470D01*
X37472678Y-22439756D02*
X37492110Y-22480106D01*
X37462712Y-22396093D02*
X37472678Y-22439756D01*
X37462712Y-22351307D02*
X37462712Y-22396093D01*
X37492110Y-22267293D02*
X37472678Y-22307644D01*
X37520034Y-22232279D02*
X37492110Y-22267293D01*
X37639062Y-22174958D02*
X37595399Y-22184924D01*
X37727511Y-22184924D02*
X37683848Y-22174958D01*
X37767862Y-22204356D02*
X37727511Y-22184924D01*
X37802876Y-22232279D02*
X37767862Y-22204356D01*
X37908972Y-22338375D02*
X37802876Y-22232279D01*
X37984337Y-22385730D02*
X37943987Y-22366298D01*
X38191814Y-22055531D02*
X38219737Y-22090545D01*
X34865111Y-26598895D02*
X34852894Y-26614214D01*
X38161084Y-21619239D02*
X38120734Y-21638671D01*
X35082362Y-25227923D02*
X35047347Y-25200000D01*
X34877973Y-26562138D02*
X34873613Y-26581240D01*
X35122712Y-25247355D02*
X35082362Y-25227923D01*
X34865111Y-26505789D02*
X34873612Y-26523442D01*
X35295175Y-25227923D02*
X35254824Y-25247355D01*
X37492110Y-22480106D02*
X37520034Y-22515121D01*
X34852894Y-26490470D02*
X34865111Y-26505789D01*
X31097310Y-30917500D02*
X30432500Y-30252690D01*
X33956685Y-26587290D02*
X33888639Y-26641555D01*
X34623084Y-26260660D02*
X34852894Y-26490470D01*
X38057795Y-21701608D02*
X38038363Y-21741959D01*
X33973722Y-25458677D02*
X33998371Y-25566670D01*
X38219737Y-22303358D02*
X38191815Y-22338375D01*
X38550022Y-21820045D02*
X38509672Y-21800613D01*
X35166375Y-25257321D02*
X35122712Y-25247355D01*
X37943987Y-22366298D02*
X37908972Y-22338375D01*
X34660823Y-26794031D02*
X34641722Y-26798391D01*
X38333547Y-21638671D02*
X38293196Y-21619239D01*
X34671555Y-24893486D02*
X34563562Y-24868837D01*
X38156800Y-22366298D02*
X38116449Y-22385730D01*
X38582500Y-19970000D02*
X38757500Y-20145000D01*
X34046432Y-25140116D02*
X33998371Y-25239915D01*
X37626129Y-22621216D02*
X37654052Y-22656230D01*
X38757500Y-20145000D02*
X38757500Y-21772690D01*
X38249533Y-21609273D02*
X38204747Y-21609273D01*
X34563562Y-24868837D02*
X34452793Y-24868837D01*
X38682134Y-21820045D02*
X38638471Y-21830011D01*
X34035099Y-26549528D02*
X33956685Y-26587290D01*
X38028397Y-21785622D02*
X38028397Y-21830408D01*
X38120734Y-21638671D02*
X38085719Y-21666594D01*
X37683848Y-22174958D02*
X37639062Y-22174958D01*
X34245001Y-24941547D02*
X34158397Y-25010611D01*
X38057795Y-21914421D02*
X38085719Y-21949436D01*
X35047347Y-25200000D02*
X34857958Y-25010611D01*
X38249135Y-22174559D02*
X38249135Y-22219345D01*
X38028000Y-22395696D02*
X37984337Y-22385730D01*
X38757500Y-21772690D02*
X38722485Y-21800613D01*
X37555049Y-22204356D02*
X37520034Y-22232279D01*
X37673484Y-22696581D02*
X37683450Y-22740244D01*
X34452793Y-24868837D02*
X34344800Y-24893486D01*
X34158397Y-25010611D02*
X34115496Y-25053512D01*
X38116449Y-22385730D02*
X38072786Y-22395696D01*
X38072786Y-22395696D02*
X38028000Y-22395696D01*
X30827310Y-29352500D02*
X31342690Y-29352500D01*
X38028397Y-21830408D02*
X38038363Y-21874071D01*
X31342690Y-29352500D02*
X31701351Y-29711161D01*
X34873612Y-26523442D02*
X34877973Y-26542544D01*
X38038363Y-21874071D02*
X38057795Y-21914421D01*
X37595399Y-22184924D02*
X37555049Y-22204356D01*
X38722485Y-21800613D02*
X38682134Y-21820045D01*
X38085719Y-21949436D02*
X38191814Y-22055531D01*
X38239169Y-22263008D02*
X38219737Y-22303358D01*
X38638471Y-21830011D02*
X38593685Y-21830011D01*
X37472678Y-22307644D02*
X37462712Y-22351307D01*
X38509672Y-21800613D02*
X38474657Y-21772690D01*
X37520065Y-23010125D02*
X35330190Y-25200000D01*
X38474657Y-21772690D02*
X38368561Y-21666594D01*
X38368561Y-21666594D02*
X38333547Y-21638671D01*
X38293196Y-21619239D02*
X38249533Y-21609273D01*
X38204747Y-21609273D02*
X38161084Y-21619239D01*
X38593685Y-21830011D02*
X38550022Y-21820045D01*
X38085719Y-21666594D02*
X38057795Y-21701608D01*
X38038363Y-21741959D02*
X38028397Y-21785622D01*
X34873613Y-26581240D02*
X34865111Y-26598895D01*
X38219737Y-22090545D02*
X38239169Y-22130896D01*
X38191815Y-22338375D02*
X38156800Y-22366298D01*
X38239169Y-22130896D02*
X38249135Y-22174559D01*
X38249135Y-22219345D02*
X38239169Y-22263008D01*
G04 #@! TO.N,/CSI_D1_OUT_P*
X34503557Y-27112002D02*
X34425143Y-27074240D01*
X35538548Y-25451260D02*
X35451945Y-25520324D01*
X34180449Y-26877820D02*
X34161347Y-26873460D01*
X34838707Y-27074240D02*
X34760293Y-27112002D01*
X35099559Y-26827168D02*
X34906751Y-27019977D01*
X35153824Y-26759123D02*
X35099559Y-26827168D01*
X34319400Y-25337236D02*
X34309434Y-25380899D01*
X35210952Y-26595858D02*
X35191585Y-26680709D01*
X34338832Y-25296885D02*
X34319400Y-25337236D01*
X35153822Y-26345561D02*
X35191584Y-26423975D01*
X34220000Y-26902217D02*
X34204681Y-26890000D01*
X34319400Y-25469348D02*
X34338832Y-25509698D01*
X35352145Y-25568385D02*
X35244153Y-25593034D01*
X35099557Y-26277516D02*
X35153822Y-26345561D01*
X34101595Y-26888218D02*
X33542500Y-27447310D01*
X30107500Y-29612690D02*
X30692690Y-29027500D01*
X34366756Y-25537197D02*
X35099557Y-26270000D01*
X34760293Y-27112002D02*
X34675442Y-27131369D01*
X35133384Y-25593034D02*
X35025391Y-25568385D01*
X39082500Y-20145000D02*
X39082500Y-21907310D01*
X34442121Y-25214515D02*
X34401771Y-25233947D01*
X35244153Y-25593034D02*
X35133384Y-25593034D01*
X35025391Y-25568385D02*
X34925591Y-25520324D01*
X34906751Y-27019977D02*
X34838707Y-27074240D01*
X34366756Y-25261871D02*
X34338832Y-25296885D01*
X34425143Y-27074240D02*
X34357097Y-27019977D01*
X34838988Y-25451260D02*
X34649599Y-25261871D01*
X34356854Y-27026855D02*
X34340000Y-27010000D01*
X39257500Y-19970000D02*
X39082500Y-20145000D01*
X34649599Y-25261871D02*
X34614584Y-25233947D01*
X35451945Y-25520324D02*
X35352145Y-25568385D01*
X34401771Y-25233947D02*
X34366756Y-25261871D01*
X31477310Y-29027500D02*
X31931161Y-29481351D01*
X34530570Y-25204550D02*
X34485784Y-25204550D01*
X34925591Y-25520324D02*
X34838988Y-25451260D01*
X35210951Y-26508826D02*
X35210952Y-26595858D01*
X34614584Y-25233947D02*
X34574233Y-25214515D01*
X34588408Y-27131369D02*
X34503557Y-27112002D01*
X34309434Y-25425685D02*
X34319400Y-25469348D01*
X30107500Y-30387310D02*
X30107500Y-29612690D01*
X34309434Y-25380899D02*
X34309434Y-25425685D01*
X34574233Y-25214515D02*
X34530570Y-25204550D01*
X34338832Y-25509698D02*
X34366756Y-25544713D01*
X34197655Y-26878500D02*
X34180000Y-26870000D01*
X39082500Y-21907310D02*
X35538548Y-25451260D01*
X34173263Y-26863141D02*
X34153669Y-26863141D01*
X34153669Y-26863141D02*
X34134567Y-26867500D01*
X34116914Y-26876001D02*
X34101595Y-26888218D01*
X33542500Y-27447310D02*
X33542500Y-30177310D01*
X30692690Y-29027500D02*
X31477310Y-29027500D01*
X33542500Y-30177310D02*
X32477310Y-31242500D01*
X34675442Y-27131369D02*
X34588408Y-27131369D01*
X32477310Y-31242500D02*
X30962690Y-31242500D01*
X31931161Y-29481351D02*
X32178649Y-29481351D01*
X30962690Y-31242500D02*
X30107500Y-30387310D01*
X35191584Y-26423975D02*
X35210951Y-26508826D01*
X34134567Y-26867500D02*
X34116914Y-26876001D01*
X34485784Y-25204550D02*
X34442121Y-25214515D01*
X35191585Y-26680709D02*
X35153824Y-26759123D01*
X34319585Y-27004904D02*
X34204681Y-26890000D01*
G04 #@! TO.N,/CSI_D2_OUT_N*
X41857500Y-20005000D02*
X41682500Y-19830000D01*
X35387500Y-27052690D02*
X41857500Y-20582690D01*
X35387500Y-33632690D02*
X35387500Y-27052690D01*
X34019806Y-33924277D02*
X34043633Y-33962198D01*
X34000000Y-33656493D02*
X34000000Y-33837500D01*
X33980193Y-33569717D02*
X33994985Y-33611989D01*
X33956366Y-33531796D02*
X33980193Y-33569717D01*
X33924697Y-33500127D02*
X33956366Y-33531796D01*
X33886776Y-33476300D02*
X33924697Y-33500127D01*
X33844504Y-33461508D02*
X33886776Y-33476300D01*
X33800000Y-33456493D02*
X33844504Y-33461508D01*
X33755495Y-33461508D02*
X33800000Y-33456493D01*
X33713223Y-33476300D02*
X33755495Y-33461508D01*
X33675302Y-33500127D02*
X33713223Y-33476300D01*
X33643633Y-33531796D02*
X33675302Y-33500127D01*
X32686776Y-34017694D02*
X32724697Y-33993867D01*
X33444504Y-34032486D02*
X33486776Y-34017694D01*
X32913223Y-33476300D02*
X32955495Y-33461508D01*
X32800000Y-33837500D02*
X32800000Y-33656493D01*
X32794985Y-33882005D02*
X32800000Y-33837500D01*
X34075302Y-33993867D02*
X34113223Y-34017694D01*
X32819806Y-33569717D02*
X32843633Y-33531796D01*
X34043633Y-33962198D02*
X34075302Y-33993867D01*
X32805014Y-33611989D02*
X32819806Y-33569717D01*
X31772500Y-33167310D02*
X31772500Y-33802690D01*
X32843633Y-33531796D02*
X32875302Y-33500127D01*
X32600000Y-34037500D02*
X32644504Y-34032486D01*
X34113223Y-34017694D02*
X34155495Y-34032486D01*
X33580193Y-33924277D02*
X33594985Y-33882005D01*
X33219806Y-33924277D02*
X33243633Y-33962198D01*
X33600000Y-33837500D02*
X33600000Y-33656493D01*
X32756366Y-33962198D02*
X32780193Y-33924277D01*
X33205014Y-33882005D02*
X33219806Y-33924277D01*
X33156366Y-33531796D02*
X33180193Y-33569717D01*
X32007310Y-34037500D02*
X32600000Y-34037500D01*
X33044504Y-33461508D02*
X33086776Y-33476300D01*
X34155495Y-34032486D02*
X34200000Y-34037500D01*
X33000000Y-33456493D02*
X33044504Y-33461508D01*
X33524697Y-33993867D02*
X33556366Y-33962198D01*
X33994985Y-33611989D02*
X34000000Y-33656493D01*
X32644504Y-34032486D02*
X32686776Y-34017694D01*
X31772500Y-33802690D02*
X32007310Y-34037500D01*
X33556366Y-33962198D02*
X33580193Y-33924277D01*
X32724697Y-33993867D02*
X32756366Y-33962198D01*
X34982690Y-34037500D02*
X35387500Y-33632690D01*
X34000000Y-33837500D02*
X34005014Y-33882005D01*
X33180193Y-33569717D02*
X33194985Y-33611989D01*
X34005014Y-33882005D02*
X34019806Y-33924277D01*
X33194985Y-33611989D02*
X33200000Y-33656493D01*
X33243633Y-33962198D02*
X33275302Y-33993867D01*
X33200000Y-33656493D02*
X33200000Y-33837500D01*
X32875302Y-33500127D02*
X32913223Y-33476300D01*
X33200000Y-33837500D02*
X33205014Y-33882005D01*
X33275302Y-33993867D02*
X33313223Y-34017694D01*
X32955495Y-33461508D02*
X33000000Y-33456493D01*
X32800000Y-33656493D02*
X32805014Y-33611989D01*
X33313223Y-34017694D02*
X33355495Y-34032486D01*
X32281161Y-32658649D02*
X31772500Y-33167310D01*
X33355495Y-34032486D02*
X33400000Y-34037500D01*
X33400000Y-34037500D02*
X33444504Y-34032486D01*
X41857500Y-20582690D02*
X41857500Y-20005000D01*
X33486776Y-34017694D02*
X33524697Y-33993867D01*
X34200000Y-34037500D02*
X34982690Y-34037500D01*
X33086776Y-33476300D02*
X33124697Y-33500127D01*
X33594985Y-33882005D02*
X33600000Y-33837500D01*
X32528649Y-32658649D02*
X32281161Y-32658649D01*
X32780193Y-33924277D02*
X32794985Y-33882005D01*
X33600000Y-33656493D02*
X33605014Y-33611989D01*
X33124697Y-33500127D02*
X33156366Y-33531796D01*
X33605014Y-33611989D02*
X33619806Y-33569717D01*
X33619806Y-33569717D02*
X33643633Y-33531796D01*
G04 #@! TO.N,/CSI_D2_OUT_P*
X32051351Y-32428839D02*
X31447500Y-33032690D01*
X32051351Y-32181351D02*
X32051351Y-32428839D01*
X31447500Y-33032690D02*
X31447500Y-33937310D01*
X31447500Y-33937310D02*
X31872690Y-34362500D01*
X31872690Y-34362500D02*
X35117310Y-34362500D01*
X35117310Y-34362500D02*
X35712500Y-33767310D01*
X35712500Y-27187310D02*
X42182500Y-20717310D01*
X42182500Y-20717310D02*
X42182500Y-20005000D01*
X42182500Y-20005000D02*
X42357500Y-19830000D01*
X35712500Y-33767310D02*
X35712500Y-27187310D01*
G04 #@! TO.N,/CSI_CLK_OUT_N*
X38055911Y-25391361D02*
X38003228Y-25457423D01*
X37607931Y-26742262D02*
X37586480Y-26763713D01*
X39929447Y-25747925D02*
X39957371Y-25782938D01*
X39976661Y-24290538D02*
X39963446Y-24280000D01*
X38003228Y-25457423D02*
X37966566Y-25533552D01*
X39681621Y-26058690D02*
X39646605Y-26030767D01*
X38932065Y-27021057D02*
X38904142Y-27056072D01*
X38013095Y-26600489D02*
X37902327Y-26600488D01*
X39976802Y-25955402D02*
X39957370Y-25995752D01*
X37947764Y-25615931D02*
X37947764Y-25700428D01*
X39957370Y-25995752D02*
X39929447Y-26030767D01*
X38828778Y-27103427D02*
X38785114Y-27113394D01*
X39037032Y-24825131D02*
X39089715Y-24891193D01*
X44662500Y-15750000D02*
X44662500Y-16185000D01*
X38785114Y-27113394D02*
X38740328Y-27113394D01*
X38220887Y-26673199D02*
X38121088Y-26625138D01*
X39089715Y-24357557D02*
X39037032Y-24423619D01*
X40070190Y-24280000D02*
X40056975Y-24290538D01*
X38798374Y-25182536D02*
X38732311Y-25129853D01*
X39000370Y-24749002D02*
X39037032Y-24825131D01*
X38696666Y-27103427D02*
X38656316Y-27083995D01*
X36257500Y-29387310D02*
X36611351Y-29741161D01*
X38121088Y-26625138D02*
X38013095Y-26600489D01*
X38961464Y-26892257D02*
X38961464Y-26937043D01*
X38330800Y-25129853D02*
X38264737Y-25182536D01*
X40041747Y-24297871D02*
X40025269Y-24301632D01*
X36611351Y-29741161D02*
X36611351Y-29988649D01*
X40056975Y-24290538D02*
X40041747Y-24297871D01*
X39929447Y-26030767D02*
X39894433Y-26058691D01*
X40025269Y-24301632D02*
X40008367Y-24301632D01*
X39523111Y-24040584D02*
X39440732Y-24059387D01*
X39440732Y-24059387D02*
X39364603Y-24096049D01*
X38904142Y-26773230D02*
X38932066Y-26808243D01*
X39000370Y-24499748D02*
X38981568Y-24582127D01*
X44662500Y-16185000D02*
X44817500Y-16340000D01*
X44817500Y-16340000D02*
X44817500Y-19532690D01*
X44817500Y-19532690D02*
X40070190Y-24280000D01*
X40008367Y-24301632D02*
X39991889Y-24297871D01*
X38981568Y-24666624D02*
X39000370Y-24749002D01*
X39991889Y-24297871D02*
X39976661Y-24290538D01*
X37966566Y-25533552D02*
X37947764Y-25615931D01*
X39963446Y-24280000D02*
X39832177Y-24148731D01*
X39832177Y-24148731D02*
X39766115Y-24096049D01*
X39766115Y-24096049D02*
X39689986Y-24059387D01*
X39689986Y-24059387D02*
X39607608Y-24040584D01*
X39607608Y-24040584D02*
X39523111Y-24040584D01*
X38981568Y-24582127D02*
X38981568Y-24666624D01*
X38951497Y-26848595D02*
X38961464Y-26892257D01*
X39364603Y-24096049D02*
X39298541Y-24148731D01*
X39298541Y-24148731D02*
X39282178Y-24165095D01*
X39282178Y-24165095D02*
X39089715Y-24357557D01*
X39037032Y-24423619D02*
X39000370Y-24499748D01*
X39089715Y-24891193D02*
X39106078Y-24907557D01*
X38621300Y-27056072D02*
X38307491Y-26742263D01*
X39106078Y-24907557D02*
X39389259Y-25190738D01*
X39765633Y-26088089D02*
X39721971Y-26078122D01*
X39389259Y-25190738D02*
X39380763Y-25199238D01*
X39380763Y-25199238D02*
X39495666Y-25314144D01*
X39495666Y-25314144D02*
X39929447Y-25747925D01*
X39957371Y-25782938D02*
X39976802Y-25823290D01*
X39976802Y-25823290D02*
X39986769Y-25866952D01*
X39986769Y-25866952D02*
X39986769Y-25911738D01*
X39986769Y-25911738D02*
X39976802Y-25955402D01*
X39854083Y-26078122D02*
X39810419Y-26088089D01*
X39810419Y-26088089D02*
X39765633Y-26088089D01*
X39894433Y-26058691D02*
X39854083Y-26078122D01*
X39721971Y-26078122D02*
X39681621Y-26058690D01*
X39646605Y-26030767D02*
X38798374Y-25182536D01*
X38732311Y-25129853D02*
X38656182Y-25093191D01*
X38656182Y-25093191D02*
X38573804Y-25074389D01*
X38573804Y-25074389D02*
X38489307Y-25074389D01*
X38489307Y-25074389D02*
X38406929Y-25093191D01*
X38406929Y-25093191D02*
X38330800Y-25129853D01*
X38264737Y-25182536D02*
X38055911Y-25391361D01*
X38951497Y-26980707D02*
X38932065Y-27021057D01*
X37947764Y-25700428D02*
X37966566Y-25782806D01*
X37966566Y-25782806D02*
X38003228Y-25858935D01*
X38003228Y-25858935D02*
X38055911Y-25924997D01*
X38055911Y-25924997D02*
X38072274Y-25941361D01*
X38072274Y-25950000D02*
X38904142Y-26781869D01*
X38932066Y-26808243D02*
X38951497Y-26848595D01*
X38961464Y-26937043D02*
X38951497Y-26980707D01*
X38904142Y-27056072D02*
X38869128Y-27083996D01*
X38869128Y-27083996D02*
X38828778Y-27103427D01*
X37794334Y-26625137D02*
X37694533Y-26673199D01*
X38740328Y-27113394D02*
X38696666Y-27103427D01*
X38656316Y-27083995D02*
X38621300Y-27056072D01*
X38307491Y-26742263D02*
X38220887Y-26673199D01*
X37694533Y-26673199D02*
X37607931Y-26742262D01*
X37902327Y-26600488D02*
X37794334Y-26625137D01*
X37586480Y-26763713D02*
X36257500Y-28092690D01*
X36257500Y-28092690D02*
X36257500Y-29387310D01*
G04 #@! TO.N,/PROG_USB_D_N*
X50762500Y-25067310D02*
X49167310Y-26662500D01*
X50762500Y-22432690D02*
X50762500Y-25067310D01*
X47695390Y-27104610D02*
X47197079Y-27104610D01*
X46662500Y-18332690D02*
X50762500Y-22432690D01*
X46662500Y-15032690D02*
X46662500Y-18332690D01*
X20567310Y-8237500D02*
X21262500Y-8932690D01*
X18609844Y-8755162D02*
X19127506Y-8237500D01*
X18354986Y-8755162D02*
X18609844Y-8755162D01*
X19127506Y-8237500D02*
X20567310Y-8237500D01*
X21262500Y-8932690D02*
X21262500Y-11232690D01*
X21262500Y-11232690D02*
X22767310Y-12737500D01*
X48137500Y-26662500D02*
X47695390Y-27104610D01*
X43667310Y-12037500D02*
X46662500Y-15032690D01*
X22767310Y-12737500D02*
X32032690Y-12737500D01*
X49167310Y-26662500D02*
X48137500Y-26662500D01*
X32032690Y-12737500D02*
X32732690Y-12037500D01*
X32732690Y-12037500D02*
X43667310Y-12037500D01*
G04 #@! TO.N,/PROG_USB_D_P*
X48400000Y-26337500D02*
X48137500Y-26337500D01*
X48400000Y-26337500D02*
X48300000Y-26337500D01*
X47700000Y-25900000D02*
X47200000Y-25900000D01*
X48137500Y-26337500D02*
X47700000Y-25900000D01*
X20432690Y-8562500D02*
X19262126Y-8562500D01*
X32867310Y-12362500D02*
X32167310Y-13062500D01*
X46337500Y-18467310D02*
X46337500Y-15167310D01*
X49353483Y-21511303D02*
X49334052Y-21470953D01*
X49363448Y-21554966D02*
X49353483Y-21511303D01*
X49353484Y-21643415D02*
X49363449Y-21599752D01*
X49306128Y-21718781D02*
X49334051Y-21683765D01*
X48893130Y-22131778D02*
X49306128Y-21718781D01*
X48865207Y-22166794D02*
X48893130Y-22131778D01*
X49306128Y-21435938D02*
X46337500Y-18467310D01*
X49334052Y-21470953D02*
X49306128Y-21435938D01*
X48845775Y-22207144D02*
X48865207Y-22166794D01*
X49334051Y-21683765D02*
X49353484Y-21643415D01*
X48845775Y-22339256D02*
X48835808Y-22295592D01*
X48865206Y-22379606D02*
X48845775Y-22339256D01*
X20937500Y-11367310D02*
X20937500Y-9067310D01*
X46337500Y-15167310D02*
X43532690Y-12362500D01*
X48893131Y-22414622D02*
X48865206Y-22379606D01*
X32167310Y-13062500D02*
X22632690Y-13062500D01*
X48928145Y-22442545D02*
X48893131Y-22414622D01*
X49458817Y-22980308D02*
X49430892Y-22945292D01*
X22632690Y-13062500D02*
X20937500Y-11367310D01*
X49493831Y-23008231D02*
X49458817Y-22980308D01*
X49100607Y-22461977D02*
X49056944Y-22471942D01*
X50230022Y-22519954D02*
X50189672Y-22539386D01*
X49666293Y-23027663D02*
X49622630Y-23037628D01*
X49708000Y-21944303D02*
X49664336Y-21954268D01*
X49741659Y-22980307D02*
X49706645Y-23008232D01*
X49140959Y-22442546D02*
X49100607Y-22461977D01*
X49430892Y-22945292D02*
X49411461Y-22904942D01*
X50154658Y-22567311D02*
X49741659Y-22980307D01*
X49623986Y-21973700D02*
X49588972Y-22001625D01*
X49706645Y-23008232D02*
X49666293Y-23027663D01*
X50362134Y-22519954D02*
X50318472Y-22509989D01*
X49430893Y-22732480D02*
X49458816Y-22697464D01*
X50402486Y-22539387D02*
X50362134Y-22519954D01*
X48400000Y-26337500D02*
X49032690Y-26337500D01*
X49401494Y-22861278D02*
X49401494Y-22816492D01*
X50189672Y-22539386D02*
X50154658Y-22567311D01*
X50273686Y-22509989D02*
X50230022Y-22519954D01*
X48835808Y-22250806D02*
X48845775Y-22207144D01*
X49919170Y-22209101D02*
X49929135Y-22165438D01*
X49622630Y-23037628D02*
X49577846Y-23037629D01*
X49411461Y-22904942D02*
X49401494Y-22861278D01*
X49899738Y-22036639D02*
X49871814Y-22001624D01*
X50437500Y-22567310D02*
X50402486Y-22539387D01*
X19262126Y-8562500D02*
X18839654Y-8984972D01*
X49836800Y-21973701D02*
X49796448Y-21954268D01*
X49577846Y-23037629D02*
X49534183Y-23027664D01*
X49899737Y-22249451D02*
X49919170Y-22209101D01*
X49032690Y-26337500D02*
X50437500Y-24932690D01*
X50437500Y-24932690D02*
X50437500Y-22567310D01*
X49929135Y-22165438D02*
X49929134Y-22120652D01*
X49534183Y-23027664D02*
X49493831Y-23008231D01*
X49401494Y-22816492D02*
X49411461Y-22772830D01*
X18839654Y-8984972D02*
X18839654Y-9224990D01*
X43532690Y-12362500D02*
X32867310Y-12362500D01*
X49458816Y-22697464D02*
X49871814Y-22284467D01*
X49871814Y-22284467D02*
X49899737Y-22249451D01*
X48835808Y-22295592D02*
X48835808Y-22250806D01*
X49929134Y-22120652D02*
X49919169Y-22076989D01*
X49056944Y-22471942D02*
X49012160Y-22471943D01*
X49919169Y-22076989D02*
X49899738Y-22036639D01*
X49871814Y-22001624D02*
X49836800Y-21973701D01*
X49796448Y-21954268D02*
X49752786Y-21944303D01*
X49752786Y-21944303D02*
X49708000Y-21944303D01*
X48968497Y-22461978D02*
X48928145Y-22442545D01*
X49664336Y-21954268D02*
X49623986Y-21973700D01*
X20937500Y-9067310D02*
X20432690Y-8562500D01*
X49363449Y-21599752D02*
X49363448Y-21554966D01*
X49411461Y-22772830D02*
X49430893Y-22732480D01*
X49588972Y-22001625D02*
X49175973Y-22414621D01*
X49175973Y-22414621D02*
X49140959Y-22442546D01*
X50318472Y-22509989D02*
X50273686Y-22509989D01*
X49012160Y-22471943D02*
X48968497Y-22461978D01*
D14*
G04 #@! TO.N,/TMS*
X16000000Y-29250000D02*
X17500000Y-29250000D01*
X22386088Y-51275010D02*
X23250000Y-51275010D01*
X20224990Y-49113912D02*
X22386088Y-51275010D01*
X20224990Y-31974990D02*
X20224990Y-49113912D01*
X17500000Y-29250000D02*
X20224990Y-31974990D01*
X23250000Y-51275010D02*
X24650000Y-51275010D01*
X24650000Y-51275010D02*
X24775010Y-51275010D01*
X27500000Y-52750000D02*
X27500000Y-58000000D01*
X26025010Y-51275010D02*
X27500000Y-52750000D01*
X24650000Y-51275010D02*
X26025010Y-51275010D01*
G04 #@! TO.N,/TCK*
X15500000Y-29750000D02*
X17500000Y-29750000D01*
X17500000Y-29750000D02*
X19949980Y-32199980D01*
X19949980Y-32199980D02*
X19949980Y-49227824D01*
X19949980Y-49227824D02*
X22272176Y-51550020D01*
X22272176Y-51550020D02*
X24661098Y-51550020D01*
X24661098Y-51550020D02*
X25800020Y-51550020D01*
X25800020Y-51550020D02*
X27150000Y-52900000D01*
X27150000Y-57150000D02*
X26900000Y-57400000D01*
X27150000Y-52900000D02*
X27150000Y-57150000D01*
G04 #@! TO.N,/TDO*
X15500000Y-28750000D02*
X17500000Y-28750000D01*
X17500000Y-28750000D02*
X20500000Y-31750000D01*
X20500000Y-31750000D02*
X20500000Y-49000000D01*
X20500000Y-49000000D02*
X22500000Y-51000000D01*
X22500000Y-51000000D02*
X27250000Y-51000000D01*
X27250000Y-51000000D02*
X27900000Y-51000000D01*
X27900000Y-51000000D02*
X28500000Y-51000000D01*
X27900000Y-51000000D02*
X28000000Y-51000000D01*
X30000000Y-52500000D02*
X30000000Y-58000000D01*
X28500000Y-51000000D02*
X30000000Y-52500000D01*
G04 #@! TO.N,/TDI*
X31250000Y-57611092D02*
X31250000Y-58000000D01*
X31250000Y-53361078D02*
X31250000Y-57611092D01*
X28613911Y-50724989D02*
X31250000Y-53361078D01*
X17388924Y-28250000D02*
X20775011Y-31636087D01*
X20775011Y-31636087D02*
X20775011Y-48886087D01*
X22613913Y-50724989D02*
X28613911Y-50724989D01*
X16000000Y-28250000D02*
X17388924Y-28250000D01*
X20775011Y-48886087D02*
X22613913Y-50724989D01*
G04 #@! TO.N,/LED3_ISINK*
X13424999Y-33674999D02*
X8674999Y-28924999D01*
X19075001Y-33674999D02*
X13424999Y-33674999D01*
X8674999Y-28924999D02*
X8400000Y-28650000D01*
X19350000Y-33400000D02*
X19075001Y-33674999D01*
G04 #@! TO.N,/LED2_ISINK*
X13261092Y-32650000D02*
X9650000Y-29038908D01*
X19400000Y-32650000D02*
X13261092Y-32650000D01*
X9650000Y-29038908D02*
X9650000Y-28650000D01*
G04 #@! TO.N,/LED1_ISINK*
X9900000Y-27750000D02*
X8050000Y-27750000D01*
X18800000Y-32050000D02*
X13400000Y-32050000D01*
X13400000Y-32050000D02*
X10600000Y-29250000D01*
X8050000Y-27750000D02*
X7150000Y-28650000D01*
X10600000Y-29250000D02*
X10600000Y-28450000D01*
X10600000Y-28450000D02*
X9900000Y-27750000D01*
G04 #@! TO.N,Net-(D11-Pad2)*
X8400000Y-34900000D02*
X8400000Y-35400000D01*
X8400000Y-35400000D02*
X8600000Y-35600000D01*
X8600000Y-35600000D02*
X8600000Y-38300000D01*
X8600000Y-49350000D02*
X20150000Y-60900000D01*
X8600000Y-45700000D02*
X8600000Y-49350000D01*
X8600000Y-38300000D02*
X8600000Y-45700000D01*
X8600000Y-45700000D02*
X8600000Y-45800000D01*
G04 #@! TO.N,Net-(D8-Pad2)*
X7424999Y-30875001D02*
X7150000Y-31150000D01*
X7625001Y-30674999D02*
X7424999Y-30875001D01*
X8628001Y-30674999D02*
X7625001Y-30674999D01*
X8875001Y-31078003D02*
X8875001Y-30921999D01*
X9421999Y-31625001D02*
X8875001Y-31078003D01*
X24150000Y-60900000D02*
X22400000Y-60900000D01*
X22400000Y-60900000D02*
X21225010Y-59725010D01*
X21225010Y-58836088D02*
X12425010Y-50036088D01*
X9625001Y-31625001D02*
X9421999Y-31625001D01*
X12425010Y-50036088D02*
X12425010Y-40624990D01*
X12425010Y-40624990D02*
X12715001Y-40334999D01*
X12715001Y-40334999D02*
X12715001Y-38765001D01*
X12715001Y-38765001D02*
X10475010Y-36525010D01*
X10475010Y-36525010D02*
X10475010Y-32475010D01*
X8875001Y-30921999D02*
X8628001Y-30674999D01*
X21225010Y-59725010D02*
X21225010Y-58836088D01*
X10475010Y-32475010D02*
X9625001Y-31625001D01*
G04 #@! TO.N,Net-(D10-Pad2)*
X12990011Y-34490011D02*
X9924999Y-31424999D01*
X12700020Y-40738902D02*
X12990011Y-40448911D01*
X12990011Y-40448911D02*
X12990011Y-34490011D01*
X12700020Y-49922176D02*
X12700020Y-40738902D01*
X21927844Y-59150000D02*
X12700020Y-49922176D01*
X9924999Y-31424999D02*
X9650000Y-31150000D01*
X24150000Y-59150000D02*
X21927844Y-59150000D01*
G04 #@! TO.N,Net-(D13-Pad2)*
X19100000Y-61600000D02*
X20150000Y-62650000D01*
X19100000Y-60250000D02*
X19100000Y-61600000D01*
X11450000Y-52600000D02*
X19100000Y-60250000D01*
X7150000Y-34900000D02*
X8300000Y-36050000D01*
X8300000Y-49438922D02*
X11450000Y-52588922D01*
X8300000Y-36050000D02*
X8300000Y-49438922D01*
X11450000Y-52588922D02*
X11450000Y-52600000D01*
G04 #@! TO.N,Net-(D12-Pad2)*
X24150000Y-62650000D02*
X22900000Y-62650000D01*
X12150000Y-40303002D02*
X10200000Y-38353002D01*
X8674999Y-31424999D02*
X8400000Y-31150000D01*
X10200000Y-34447000D02*
X8875001Y-33122001D01*
X8875001Y-33122001D02*
X8875001Y-31625001D01*
X20950000Y-60700000D02*
X20950000Y-58950000D01*
X22900000Y-62650000D02*
X20950000Y-60700000D01*
X20950000Y-58950000D02*
X12150000Y-50150000D01*
X12150000Y-50150000D02*
X12150000Y-40303002D01*
X10200000Y-38353002D02*
X10200000Y-34447000D01*
X8875001Y-31625001D02*
X8674999Y-31424999D01*
G04 #@! TO.N,Net-(D9-Pad2)*
X8924999Y-35625001D02*
X9650000Y-34900000D01*
X18800000Y-59150000D02*
X8924999Y-49274999D01*
X8924999Y-49274999D02*
X8924999Y-35625001D01*
X20150000Y-59150000D02*
X18800000Y-59150000D01*
G04 #@! TD*
M02*
