G04 #@! TF.GenerationSoftware,KiCad,Pcbnew,5.0.2+dfsg1-1~bpo9+1*
G04 #@! TF.CreationDate,2019-11-06T14:07:43+01:00*
G04 #@! TF.ProjectId,zglue-demo-board,7a676c75-652d-4646-956d-6f2d626f6172,rev?*
G04 #@! TF.SameCoordinates,Original*
G04 #@! TF.FileFunction,Copper,L6,Bot*
G04 #@! TF.FilePolarity,Positive*
%FSLAX46Y46*%
G04 Gerber Fmt 4.6, Leading zero omitted, Abs format (unit mm)*
G04 Created by KiCad (PCBNEW 5.0.2+dfsg1-1~bpo9+1) date Wed 06 Nov 2019 02:07:43 PM CET*
%MOMM*%
%LPD*%
G01*
G04 APERTURE LIST*
G04 #@! TA.AperFunction,ComponentPad*
%ADD10C,6.200000*%
G04 #@! TD*
G04 #@! TA.AperFunction,Conductor*
%ADD11C,0.100000*%
G04 #@! TD*
G04 #@! TA.AperFunction,Conductor*
%ADD12C,4.700000*%
G04 #@! TD*
G04 #@! TA.AperFunction,ViaPad*
%ADD13C,0.500000*%
G04 #@! TD*
G04 #@! TA.AperFunction,ComponentPad*
%ADD14C,2.000000*%
G04 #@! TD*
G04 #@! TA.AperFunction,ViaPad*
%ADD15C,0.550000*%
G04 #@! TD*
G04 #@! TA.AperFunction,Conductor*
%ADD16C,0.250000*%
G04 #@! TD*
G04 #@! TA.AperFunction,Conductor*
%ADD17C,0.150000*%
G04 #@! TD*
G04 APERTURE END LIST*
D10*
G04 #@! TO.P,REF\002A\002A,0*
G04 #@! TO.N,N/C*
X3500000Y-4000000D03*
G04 #@! TD*
G04 #@! TO.P,REF\002A\002A,0*
G04 #@! TO.N,N/C*
X3500000Y-62000000D03*
G04 #@! TD*
G04 #@! TO.P,REF\002A\002A,0*
G04 #@! TO.N,N/C*
X52500000Y-62000000D03*
G04 #@! TD*
G04 #@! TO.P,REF\002A\002A,0*
G04 #@! TO.N,N/C*
X52500000Y-4000000D03*
G04 #@! TD*
D11*
G04 #@! TO.N,GND*
G04 #@! TO.C,U6*
G36*
X26374507Y-6751204D02*
X26398775Y-6754804D01*
X26422573Y-6760765D01*
X26445673Y-6769030D01*
X26467851Y-6779519D01*
X26488894Y-6792132D01*
X26508599Y-6806747D01*
X26526778Y-6823222D01*
X26543253Y-6841401D01*
X26557868Y-6861106D01*
X26570481Y-6882149D01*
X26580970Y-6904327D01*
X26589235Y-6927427D01*
X26595196Y-6951225D01*
X26598796Y-6975493D01*
X26600000Y-6999997D01*
X26600000Y-11200003D01*
X26598796Y-11224507D01*
X26595196Y-11248775D01*
X26589235Y-11272573D01*
X26580970Y-11295673D01*
X26570481Y-11317851D01*
X26557868Y-11338894D01*
X26543253Y-11358599D01*
X26526778Y-11376778D01*
X26508599Y-11393253D01*
X26488894Y-11407868D01*
X26467851Y-11420481D01*
X26445673Y-11430970D01*
X26422573Y-11439235D01*
X26398775Y-11445196D01*
X26374507Y-11448796D01*
X26350003Y-11450000D01*
X22149997Y-11450000D01*
X22125493Y-11448796D01*
X22101225Y-11445196D01*
X22077427Y-11439235D01*
X22054327Y-11430970D01*
X22032149Y-11420481D01*
X22011106Y-11407868D01*
X21991401Y-11393253D01*
X21973222Y-11376778D01*
X21956747Y-11358599D01*
X21942132Y-11338894D01*
X21929519Y-11317851D01*
X21919030Y-11295673D01*
X21910765Y-11272573D01*
X21904804Y-11248775D01*
X21901204Y-11224507D01*
X21900000Y-11200003D01*
X21900000Y-6999997D01*
X21901204Y-6975493D01*
X21904804Y-6951225D01*
X21910765Y-6927427D01*
X21919030Y-6904327D01*
X21929519Y-6882149D01*
X21942132Y-6861106D01*
X21956747Y-6841401D01*
X21973222Y-6823222D01*
X21991401Y-6806747D01*
X22011106Y-6792132D01*
X22032149Y-6779519D01*
X22054327Y-6769030D01*
X22077427Y-6760765D01*
X22101225Y-6754804D01*
X22125493Y-6751204D01*
X22149997Y-6750000D01*
X26350003Y-6750000D01*
X26374507Y-6751204D01*
X26374507Y-6751204D01*
G37*
D12*
X24250000Y-9100000D03*
D13*
X26350000Y-11200000D03*
X24950000Y-11200000D03*
X23550000Y-11200000D03*
X22150000Y-11200000D03*
X26350000Y-9800000D03*
X24950000Y-9800000D03*
X23550000Y-9800000D03*
X22150000Y-9800000D03*
X26350000Y-8400000D03*
X24950000Y-8400000D03*
X23550000Y-8400000D03*
X22150000Y-8400000D03*
X26350000Y-7000000D03*
X24950000Y-7000000D03*
X23550000Y-7000000D03*
X22150000Y-7000000D03*
G04 #@! TD*
D14*
G04 #@! TO.P,J4,40*
G04 #@! TO.N,Net-(J4-Pad40)*
X2230000Y-8870000D03*
G04 #@! TO.P,J4,39*
G04 #@! TO.N,GND*
X4770000Y-8870000D03*
G04 #@! TO.P,J4,38*
G04 #@! TO.N,Net-(J4-Pad38)*
X2230000Y-11410000D03*
G04 #@! TO.P,J4,37*
G04 #@! TO.N,Net-(J4-Pad37)*
X4770000Y-11410000D03*
G04 #@! TO.P,J4,36*
G04 #@! TO.N,Net-(J4-Pad36)*
X2230000Y-13950000D03*
G04 #@! TO.P,J4,35*
G04 #@! TO.N,Net-(J4-Pad35)*
X4770000Y-13950000D03*
G04 #@! TO.P,J4,34*
G04 #@! TO.N,GND*
X2230000Y-16490000D03*
G04 #@! TO.P,J4,33*
G04 #@! TO.N,Net-(J4-Pad33)*
X4770000Y-16490000D03*
G04 #@! TO.P,J4,32*
G04 #@! TO.N,Net-(J4-Pad32)*
X2230000Y-19030000D03*
G04 #@! TO.P,J4,31*
G04 #@! TO.N,Net-(J4-Pad31)*
X4770000Y-19030000D03*
G04 #@! TO.P,J4,30*
G04 #@! TO.N,GND*
X2230000Y-21570000D03*
G04 #@! TO.P,J4,29*
G04 #@! TO.N,Net-(J4-Pad29)*
X4770000Y-21570000D03*
G04 #@! TO.P,J4,28*
G04 #@! TO.N,Net-(J4-Pad28)*
X2230000Y-24110000D03*
G04 #@! TO.P,J4,27*
G04 #@! TO.N,Net-(J4-Pad27)*
X4770000Y-24110000D03*
G04 #@! TO.P,J4,26*
G04 #@! TO.N,Net-(J4-Pad26)*
X2230000Y-26650000D03*
G04 #@! TO.P,J4,25*
G04 #@! TO.N,GND*
X4770000Y-26650000D03*
G04 #@! TO.P,J4,24*
G04 #@! TO.N,Net-(J4-Pad24)*
X2230000Y-29190000D03*
G04 #@! TO.P,J4,23*
G04 #@! TO.N,Net-(J4-Pad23)*
X4770000Y-29190000D03*
G04 #@! TO.P,J4,22*
G04 #@! TO.N,Net-(J4-Pad22)*
X2230000Y-31730000D03*
G04 #@! TO.P,J4,21*
G04 #@! TO.N,Net-(J4-Pad21)*
X4770000Y-31730000D03*
G04 #@! TO.P,J4,20*
G04 #@! TO.N,GND*
X2230000Y-34270000D03*
G04 #@! TO.P,J4,19*
G04 #@! TO.N,Net-(J4-Pad19)*
X4770000Y-34270000D03*
G04 #@! TO.P,J4,18*
G04 #@! TO.N,Net-(J4-Pad18)*
X2230000Y-36810000D03*
G04 #@! TO.P,J4,17*
G04 #@! TO.N,Net-(J4-Pad1)*
X4770000Y-36810000D03*
G04 #@! TO.P,J4,16*
G04 #@! TO.N,Net-(J4-Pad16)*
X2230000Y-39350000D03*
G04 #@! TO.P,J4,15*
G04 #@! TO.N,Net-(J4-Pad15)*
X4770000Y-39350000D03*
G04 #@! TO.P,J4,14*
G04 #@! TO.N,GND*
X2230000Y-41890000D03*
G04 #@! TO.P,J4,13*
G04 #@! TO.N,Net-(J4-Pad13)*
X4770000Y-41890000D03*
G04 #@! TO.P,J4,12*
G04 #@! TO.N,Net-(J4-Pad12)*
X2230000Y-44430000D03*
G04 #@! TO.P,J4,11*
G04 #@! TO.N,Net-(J4-Pad11)*
X4770000Y-44430000D03*
G04 #@! TO.P,J4,10*
G04 #@! TO.N,Net-(J4-Pad10)*
X2230000Y-46970000D03*
G04 #@! TO.P,J4,9*
G04 #@! TO.N,GND*
X4770000Y-46970000D03*
G04 #@! TO.P,J4,8*
G04 #@! TO.N,Net-(J4-Pad8)*
X2230000Y-49510000D03*
G04 #@! TO.P,J4,7*
G04 #@! TO.N,Net-(J4-Pad7)*
X4770000Y-49510000D03*
G04 #@! TO.P,J4,6*
G04 #@! TO.N,GND*
X2230000Y-52050000D03*
G04 #@! TO.P,J4,5*
G04 #@! TO.N,/RPI_SCL*
X4770000Y-52050000D03*
G04 #@! TO.P,J4,4*
G04 #@! TO.N,/5V0_IN*
X2230000Y-54590000D03*
G04 #@! TO.P,J4,3*
G04 #@! TO.N,/RPI_SDA*
X4770000Y-54590000D03*
G04 #@! TO.P,J4,2*
G04 #@! TO.N,/5V0_IN*
X2230000Y-57130000D03*
G04 #@! TO.P,J4,1*
G04 #@! TO.N,Net-(J4-Pad1)*
X4770000Y-57130000D03*
G04 #@! TD*
D15*
G04 #@! TO.N,/CSI_CLK_IN_N*
X43641351Y-45388649D03*
X23278649Y-28798649D03*
G04 #@! TO.N,GND*
X24500000Y-14750000D03*
X18750000Y-12500000D03*
X18750000Y-11500000D03*
X16500000Y-6750000D03*
X17500000Y-6750000D03*
X18750000Y-5250000D03*
X18750000Y-10250000D03*
X18835883Y-7335883D03*
X8000000Y-6650000D03*
X21000000Y-18750000D03*
X32000000Y-9500000D03*
X33000000Y-13250000D03*
X30000000Y-12000000D03*
X31000000Y-1500000D03*
X29250000Y-750000D03*
X28000000Y-1500000D03*
X25500000Y-1500000D03*
X21500000Y-1500000D03*
X27000000Y-3750000D03*
X30000000Y-5750000D03*
X32000000Y-5500000D03*
X33750000Y-63750000D03*
X9250000Y-53500000D03*
X25500000Y-44250000D03*
X25500000Y-48750000D03*
X46500000Y-46750000D03*
X43500000Y-46750000D03*
X40500000Y-46750000D03*
X37500000Y-46750000D03*
X16500000Y-11250000D03*
X17500000Y-11250000D03*
X13040000Y-7900000D03*
X51250000Y-35750000D03*
X51000000Y-44250000D03*
X49750000Y-38100000D03*
X49500000Y-39000000D03*
X51000000Y-21250000D03*
X50750000Y-30500000D03*
X48750000Y-23750000D03*
X48750000Y-24750000D03*
X37500000Y-16500000D03*
X40500000Y-16500000D03*
X43500000Y-16500000D03*
X41500000Y-24750000D03*
X41500000Y-26000000D03*
X42000000Y-30500000D03*
X16100000Y-31300000D03*
X23200000Y-27500000D03*
X19600000Y-28200000D03*
X23500000Y-31200000D03*
X23300000Y-33700000D03*
X22400000Y-34300000D03*
X22400000Y-35700000D03*
X32300000Y-28200000D03*
X32700000Y-29000000D03*
X30900000Y-31800000D03*
X33600000Y-32800000D03*
X32800000Y-35000000D03*
X33600000Y-35800000D03*
X39900000Y-37800000D03*
X40100000Y-34700000D03*
X40100000Y-31500000D03*
X40600000Y-20000000D03*
X47200000Y-22700000D03*
X47100000Y-29500000D03*
X47490000Y-40037510D03*
X13800000Y-14400000D03*
X9900000Y-17300000D03*
X31600000Y-46375013D03*
X47558420Y-26534458D03*
X46500000Y-19500000D03*
X15739117Y-5989117D03*
X9700000Y-26600000D03*
X9400000Y-39800000D03*
X21650000Y-64650000D03*
X15900000Y-33125010D03*
X9840000Y-2670000D03*
X12080000Y-2650000D03*
X10030000Y-58010000D03*
X9160000Y-59460000D03*
G04 #@! TO.N,/CSI_D2_IN_P*
X37190000Y-44672500D03*
X23248649Y-32161351D03*
G04 #@! TO.N,/CSI_D2_IN_N*
X37190000Y-45347500D03*
X22771351Y-32638649D03*
G04 #@! TO.N,/CSI_D1_IN_P*
X39708649Y-46388649D03*
X22961351Y-29831351D03*
G04 #@! TO.N,/CSI_D1_IN_N*
X39231351Y-45911351D03*
X23438649Y-30308649D03*
G04 #@! TO.N,/CSI_CLK_IN_P*
X44118649Y-44911351D03*
X22801351Y-28321351D03*
G04 #@! TO.N,/CAM_GPIO_IN*
X47500000Y-49250000D03*
G04 #@! TO.N,/CAM_CLK_IN*
X48500000Y-49250000D03*
G04 #@! TO.N,/CAM_SCL_IN*
X49500000Y-49250000D03*
G04 #@! TO.N,/CAM_SDA_IN*
X50500000Y-49250000D03*
G04 #@! TO.N,/3V3_SYS*
X16800000Y-45100000D03*
X11500000Y-45100000D03*
X22300000Y-45100000D03*
X26900000Y-31900000D03*
X51400000Y-15400000D03*
X51400000Y-49400000D03*
X33600000Y-24900000D03*
G04 #@! TO.N,/CSI_CLK_OUT_P*
X37088649Y-29511351D03*
X45337500Y-15750000D03*
G04 #@! TO.N,/CSI_D1_OUT_N*
X31701351Y-29958649D03*
X38582500Y-19970000D03*
G04 #@! TO.N,/CSI_D1_OUT_P*
X32178649Y-29481351D03*
X39257500Y-19970000D03*
G04 #@! TO.N,/CSI_D2_OUT_N*
X32528649Y-32658649D03*
X41682500Y-19830000D03*
G04 #@! TO.N,/CSI_D2_OUT_P*
X32051351Y-32181351D03*
X42357500Y-19830000D03*
G04 #@! TO.N,/CSI_CLK_OUT_N*
X36611351Y-29988649D03*
X44662500Y-15750000D03*
G04 #@! TO.N,/PROG_USB_D_N*
X18354986Y-8755162D03*
X47197079Y-27104610D03*
G04 #@! TO.N,/PROG_USB_D_P*
X18839654Y-9224990D03*
X47200000Y-25900000D03*
G04 #@! TO.N,/5V0_DBG_USB*
X49000000Y-30600000D03*
G04 #@! TO.N,/USB_D_N*
X23538649Y-36338649D03*
X46800000Y-40237500D03*
G04 #@! TO.N,/USB_D_P*
X23061351Y-35861351D03*
X46800000Y-39562500D03*
G04 #@! TO.N,/E_PROC_SO_3V3*
X43800000Y-19400000D03*
X17400000Y-23300000D03*
G04 #@! TO.N,/E_PROC_SI_3V3*
X43200000Y-19800000D03*
X18600000Y-23300000D03*
G04 #@! TO.N,/E_PROC_SS_3V3*
X46400000Y-20200000D03*
X19600000Y-26300000D03*
G04 #@! TO.N,/E_PROC_SCK_3V3*
X45800000Y-19500000D03*
X16300000Y-23400000D03*
G04 #@! TO.N,/E_CTRL_SS_3V3*
X26250000Y-21000000D03*
X27500000Y-18750000D03*
X46000000Y-26400000D03*
X26600000Y-27800000D03*
G04 #@! TO.N,/E_CTRL_SO_3V3*
X44100000Y-26300000D03*
X25000000Y-27300000D03*
G04 #@! TO.N,/E_PROC_RST_3V3*
X27300000Y-23200000D03*
X22000000Y-23300000D03*
G04 #@! TO.N,/1V8_SYS*
X11100000Y-35700000D03*
X14200000Y-44300000D03*
X19100000Y-44300000D03*
X18200000Y-46500000D03*
X7625010Y-46502963D03*
G04 #@! TO.N,/E_CTRL_SI_3V3*
X42400000Y-26600000D03*
X28100000Y-26800000D03*
G04 #@! TO.N,/E_CTRL_SCK_3V3*
X46300000Y-25700000D03*
X24000000Y-27400000D03*
G04 #@! TO.N,Net-(R7-Pad1)*
X20700000Y-3800000D03*
X15400000Y-11200000D03*
G04 #@! TO.N,Net-(R6-Pad1)*
X11500000Y-12000000D03*
X14750000Y-13500000D03*
X21403749Y-3498126D03*
G04 #@! TO.N,Net-(R5-Pad2)*
X9800000Y-10400000D03*
X22300000Y-3400000D03*
G04 #@! TO.N,/VUSB*
X47750000Y-45750000D03*
X50250000Y-45750000D03*
X50500000Y-32750000D03*
X47500000Y-32750000D03*
X23000000Y-37600000D03*
X22900000Y-38800000D03*
X14960000Y-40630000D03*
X16000000Y-58850000D03*
X16089124Y-57910876D03*
G04 #@! TO.N,GND*
X7500000Y-56500000D03*
X6680494Y-55961746D03*
G04 #@! TO.N,/3V3_SYS*
X18575000Y-800000D03*
X32489124Y-20889124D03*
X26000000Y-3200000D03*
G04 #@! TO.N,/5V0_DBG_USB*
X36200001Y-874999D03*
G04 #@! TO.N,/I2C_1_SDA*
X43900000Y-8200000D03*
X19025000Y-35825000D03*
G04 #@! TO.N,/I2C_1_SCL*
X43900000Y-7025000D03*
X18575000Y-35250000D03*
G04 #@! TO.N,/I2C_0_SDA*
X43900000Y-5800000D03*
X13225000Y-27725000D03*
X36725000Y-1900000D03*
G04 #@! TO.N,/I2C_0_SCL*
X43900000Y-4600000D03*
X13210075Y-28638323D03*
X36750000Y-3025000D03*
G04 #@! TO.N,/1V8_SYS*
X16350000Y-675000D03*
X17750000Y-4950000D03*
X32750000Y-25800000D03*
X32300000Y-21750000D03*
X39925000Y-19500000D03*
X19525000Y-13875000D03*
X29975000Y-18825000D03*
G04 #@! TO.N,/5V0_IN*
X12040000Y-56520000D03*
X13000000Y-57690000D03*
X11010000Y-57960000D03*
X12020000Y-59470000D03*
X6825000Y-54375000D03*
G04 #@! TO.N,/VCCIO1*
X31600000Y-45700000D03*
X22900000Y-44300000D03*
X24600000Y-47000000D03*
G04 #@! TO.N,Net-(R25-Pad2)*
X29000000Y-48500000D03*
X32000000Y-44200000D03*
G04 #@! TO.N,Net-(R30-Pad2)*
X45484655Y-34095345D03*
X42950000Y-25080000D03*
G04 #@! TO.N,Net-(R31-Pad2)*
X45560000Y-35040000D03*
X43680000Y-25260000D03*
G04 #@! TO.N,Net-(R32-Pad2)*
X45560000Y-36010000D03*
X44500000Y-25260000D03*
G04 #@! TO.N,Net-(R33-Pad2)*
X45600000Y-37000000D03*
X45400000Y-25260000D03*
G04 #@! TO.N,/VCCIO3*
X42300000Y-24100000D03*
X47100000Y-21800000D03*
X10200000Y-42800000D03*
X47100000Y-30900000D03*
G04 #@! TO.N,/VCCIO2*
X42400000Y-29900000D03*
X47100000Y-28700000D03*
X15500000Y-43700000D03*
G04 #@! TO.N,Net-(R29-Pad2)*
X45700000Y-42000000D03*
X47600000Y-38500000D03*
G04 #@! TO.N,/TMS*
X16000000Y-29250000D03*
X27500000Y-58000000D03*
G04 #@! TO.N,/TCK*
X15500000Y-29750000D03*
X28750000Y-58000000D03*
X26900000Y-57400000D03*
G04 #@! TO.N,/TDO*
X15500000Y-28750000D03*
X30000000Y-58000000D03*
G04 #@! TO.N,/TDI*
X16000000Y-28250000D03*
X31250000Y-58000000D03*
G04 #@! TO.N,Net-(J4-Pad8)*
X32525000Y-19225000D03*
G04 #@! TO.N,Net-(J4-Pad10)*
X33525000Y-19200000D03*
G04 #@! TO.N,/LED3_ISINK*
X8400000Y-28650000D03*
X19350000Y-33400000D03*
G04 #@! TO.N,/LED2_ISINK*
X9650000Y-28650000D03*
X19400000Y-32650000D03*
G04 #@! TO.N,/LED1_ISINK*
X7150000Y-28650000D03*
X18800000Y-32050000D03*
G04 #@! TO.N,/PWR_BTN*
X14749199Y-17749199D03*
X12100000Y-1800000D03*
G04 #@! TO.N,/DBG_RX*
X15500000Y-30750000D03*
X7475000Y-23725000D03*
G04 #@! TO.N,/DBG_TX*
X16000000Y-30250000D03*
X8500000Y-22775000D03*
G04 #@! TO.N,/PROC_OUT_0*
X9650000Y-32400000D03*
X31539444Y-40875000D03*
G04 #@! TO.N,/PROC_OUT_1*
X8400000Y-32400000D03*
X33100000Y-41750000D03*
G04 #@! TO.N,/PROC_OUT_2*
X7150000Y-32400000D03*
X32250000Y-41750000D03*
G04 #@! TO.N,/E_PROC_RST*
X35200000Y-46000000D03*
X37700000Y-28300000D03*
G04 #@! TO.N,/CTRL_RST_FLASH_SOC_CS*
X35200000Y-47100000D03*
X37700000Y-31300000D03*
X8500000Y-19000000D03*
G04 #@! TO.N,/DONE*
X35275010Y-44200000D03*
X37400000Y-34200000D03*
X13500000Y-18900000D03*
G04 #@! TO.N,/FLASH_CLK*
X36759637Y-34900000D03*
X13600000Y-26600000D03*
G04 #@! TO.N,/FLASH_CS*
X37400000Y-35200000D03*
X9700000Y-19000000D03*
G04 #@! TO.N,/FLASH_IO0*
X36839365Y-35850587D03*
X10894383Y-26403066D03*
G04 #@! TO.N,/FLASH_IO1*
X37362623Y-36277000D03*
X11000000Y-19000000D03*
G04 #@! TO.N,/FLASH_IO2*
X36922702Y-36822702D03*
X32800000Y-36900000D03*
X11925000Y-26925000D03*
G04 #@! TO.N,/FLASH_IO3*
X37400000Y-37300000D03*
X32800000Y-37800000D03*
X12300000Y-18300000D03*
G04 #@! TO.N,/VCCIO*
X27500000Y-14500000D03*
X32000000Y-15000000D03*
X20300000Y-17000000D03*
X32900000Y-10000000D03*
X24500000Y-1500000D03*
G04 #@! TO.N,Net-(R9-Pad2)*
X18250000Y-6250000D03*
X21000000Y-7750000D03*
G04 #@! TO.N,Net-(R14-Pad1)*
X20250000Y-16000000D03*
X22500000Y-16000000D03*
G04 #@! TO.N,/3V3_FTDI*
X8000000Y-14400000D03*
X11500000Y-17100000D03*
X9800000Y-11300000D03*
X16600000Y-13500000D03*
X32200000Y-11000000D03*
G04 #@! TO.N,/1V8_FTDI*
X28700000Y-3900000D03*
X27100000Y-1600000D03*
X29900000Y-11200000D03*
X18200000Y-10900000D03*
X18900000Y-4500000D03*
G04 #@! TO.N,/CTRL_RST_FLASH_SOC_CS_3V3*
X27400000Y-44200000D03*
X30669474Y-44175010D03*
G04 #@! TO.N,Net-(D6-Pad2)*
X10380000Y-39770000D03*
X12240000Y-39690000D03*
G04 #@! TO.N,Net-(D11-Pad2)*
X20150000Y-60900000D03*
X8400000Y-34900000D03*
G04 #@! TO.N,Net-(D8-Pad2)*
X24150000Y-60900000D03*
X7150000Y-31150000D03*
G04 #@! TO.N,Net-(D10-Pad2)*
X24150000Y-59150000D03*
X9650000Y-31150000D03*
G04 #@! TO.N,Net-(D13-Pad2)*
X20150000Y-62650000D03*
X7150000Y-34900000D03*
G04 #@! TO.N,Net-(D12-Pad2)*
X24150000Y-62650000D03*
X8400000Y-31150000D03*
G04 #@! TO.N,Net-(D9-Pad2)*
X20150000Y-59150000D03*
X9650000Y-34900000D03*
G04 #@! TO.N,/CAM_SDA_OUT*
X50550000Y-14100000D03*
X41425000Y-6225000D03*
G04 #@! TO.N,/CAM_SCL_OUT*
X49550000Y-14050000D03*
X41500000Y-7400000D03*
G04 #@! TO.N,/CAM_SDA_IN*
X41475000Y-10275000D03*
X40275000Y-5050000D03*
G04 #@! TO.N,/CAM_SCL_IN*
X42575000Y-9800000D03*
X40949999Y-3875001D03*
G04 #@! TO.N,/CAM_CLK_IN*
X33100000Y-56400000D03*
G04 #@! TO.N,/CAM_GPIO_IN*
X32100000Y-54600000D03*
G04 #@! TO.N,/I2C_0_SCL_3V3*
X39900000Y-1400000D03*
X34700000Y-17000000D03*
G04 #@! TO.N,/I2C_0_SDA_3V3*
X39900000Y-2600000D03*
X34998248Y-17898248D03*
G04 #@! TO.N,/I2C_1_SCL_3V3*
X37100000Y-7400000D03*
X35813238Y-17755010D03*
G04 #@! TO.N,/I2C_1_SDA_3V3*
X37100000Y-8600000D03*
X36500000Y-18000000D03*
X35150000Y-5975000D03*
G04 #@! TO.N,Net-(R47-Pad2)*
X46700000Y-8200000D03*
X36300000Y-23200000D03*
G04 #@! TO.N,Net-(R46-Pad2)*
X46700000Y-7025000D03*
X35900000Y-23800000D03*
G04 #@! TO.N,Net-(R45-Pad2)*
X46700000Y-5800000D03*
X35259637Y-24013454D03*
G04 #@! TO.N,Net-(R44-Pad2)*
X46700000Y-4600000D03*
X34500000Y-24000000D03*
G04 #@! TO.N,Net-(R48-Pad2)*
X7900000Y-16400000D03*
X15100000Y-825000D03*
G04 #@! TO.N,Net-(R49-Pad2)*
X6700000Y-16400000D03*
X14911043Y-1475000D03*
G04 #@! TO.N,/DBG_RX_3V3*
X22200000Y-875000D03*
X31550000Y-20550000D03*
X32500000Y-15975000D03*
X32500000Y-4850000D03*
G04 #@! TO.N,/DBG_TX_3V3*
X20475000Y-775000D03*
X32150000Y-20225000D03*
X33075000Y-15250000D03*
X32050000Y-4275000D03*
G04 #@! TO.N,/RPI_SCL*
X37126624Y-5101624D03*
G04 #@! TO.N,/RPI_SDA*
X37300000Y-3800000D03*
X36039124Y-1914124D03*
G04 #@! TD*
D16*
G04 #@! TO.N,/3V3_SYS*
X16800000Y-45100000D02*
X11500000Y-45100000D01*
X16800000Y-45100000D02*
X22300000Y-45100000D01*
X26900000Y-31900000D02*
X26900000Y-30400000D01*
X26900000Y-30400000D02*
X32400000Y-24900000D01*
X38400000Y-24900000D02*
X42400000Y-20900000D01*
X42400000Y-20900000D02*
X49400000Y-20900000D01*
X49400000Y-20900000D02*
X51400000Y-18900000D01*
X51400000Y-18900000D02*
X51400000Y-15400000D01*
X51400000Y-49400000D02*
X49900000Y-47900000D01*
X49900000Y-47900000D02*
X33400000Y-47900000D01*
X33400000Y-47900000D02*
X31400000Y-49900000D01*
X31400000Y-49900000D02*
X24400000Y-49900000D01*
X24400000Y-49900000D02*
X23400000Y-48900000D01*
X23400000Y-46200000D02*
X22300000Y-45100000D01*
X23400000Y-48900000D02*
X23400000Y-46200000D01*
X32400000Y-24900000D02*
X34500000Y-24900000D01*
X34500000Y-24900000D02*
X38400000Y-24900000D01*
D17*
G04 #@! TO.N,/E_CTRL_SS_3V3*
X27500000Y-19750000D02*
X27500000Y-18750000D01*
X26250000Y-21000000D02*
X27500000Y-19750000D01*
G04 #@! TO.N,/E_PROC_RST_3V3*
X22100000Y-23200000D02*
X22000000Y-23300000D01*
D16*
G04 #@! TO.N,/1V8_SYS*
X11100000Y-35700000D02*
X14200000Y-38800000D01*
X14200000Y-38800000D02*
X14200000Y-44300000D01*
X19100000Y-44300000D02*
X14200000Y-44300000D01*
D17*
X12900000Y-46500000D02*
X18200000Y-46500000D01*
X12900000Y-46500000D02*
X7627973Y-46500000D01*
X7627973Y-46500000D02*
X7625010Y-46502963D01*
G04 #@! TO.N,Net-(R7-Pad1)*
X20700000Y-3800000D02*
X20311092Y-3800000D01*
X20311092Y-3800000D02*
X17100000Y-3800000D01*
X17100000Y-3800000D02*
X15200000Y-5700000D01*
X15200000Y-5700000D02*
X15200000Y-11000000D01*
X15200000Y-11000000D02*
X15400000Y-11200000D01*
G04 #@! TO.N,Net-(R6-Pad1)*
X11500000Y-12000000D02*
X12750000Y-12000000D01*
X14250000Y-13500000D02*
X14750000Y-13500000D01*
X12750000Y-12000000D02*
X14250000Y-13500000D01*
X16600000Y-3500000D02*
X20296998Y-3500000D01*
X20573871Y-3223127D02*
X21128750Y-3223127D01*
X21128750Y-3223127D02*
X21403749Y-3498126D01*
X14750000Y-13500000D02*
X14750000Y-5350000D01*
X20296998Y-3500000D02*
X20573871Y-3223127D01*
X14750000Y-5350000D02*
X16600000Y-3500000D01*
G04 #@! TO.N,Net-(R5-Pad2)*
X21800000Y-2900000D02*
X22025001Y-3125001D01*
X20308074Y-3100000D02*
X20508074Y-2900000D01*
X16200000Y-3100000D02*
X20308074Y-3100000D01*
X9800000Y-10400000D02*
X13400000Y-10400000D01*
X22025001Y-3125001D02*
X22300000Y-3400000D01*
X20508074Y-2900000D02*
X21800000Y-2900000D01*
X13400000Y-10400000D02*
X14200000Y-9600000D01*
X14200000Y-9600000D02*
X14200000Y-5100000D01*
X14200000Y-5100000D02*
X16200000Y-3100000D01*
G04 #@! TO.N,/VUSB*
X16790000Y-38800000D02*
X22900000Y-38800000D01*
X14960000Y-40630000D02*
X16790000Y-38800000D01*
G04 #@! TO.N,/I2C_1_SDA*
X19025000Y-35825000D02*
X20975000Y-33875000D01*
X20975000Y-33875000D02*
X20975000Y-26288922D01*
X20975000Y-26288922D02*
X23031961Y-24231961D01*
X23031961Y-24231961D02*
X31618039Y-24231961D01*
X38149982Y-17700018D02*
X38149982Y-15850018D01*
X31618039Y-24231961D02*
X38149982Y-17700018D01*
X43900000Y-10100000D02*
X43900000Y-8200000D01*
X38149982Y-15850018D02*
X43900000Y-10100000D01*
G04 #@! TO.N,/I2C_1_SCL*
X43075000Y-7850000D02*
X43900000Y-7025000D01*
X22975000Y-23900000D02*
X31500000Y-23900000D01*
X37600000Y-15975000D02*
X43075000Y-10500000D01*
X20675000Y-33150000D02*
X20675000Y-26200000D01*
X20675000Y-26200000D02*
X22975000Y-23900000D01*
X18575000Y-35250000D02*
X20675000Y-33150000D01*
X31500000Y-23900000D02*
X36975001Y-18424999D01*
X36975001Y-18424999D02*
X36975001Y-16321997D01*
X36975001Y-16321997D02*
X37321998Y-15975000D01*
X37321998Y-15975000D02*
X37600000Y-15975000D01*
X43075000Y-10500000D02*
X43075000Y-7850000D01*
G04 #@! TO.N,/I2C_0_SDA*
X34050000Y-6125000D02*
X34725000Y-5450000D01*
X28475000Y-21525000D02*
X34050000Y-15950000D01*
X34050000Y-15950000D02*
X34050000Y-6125000D01*
X13800000Y-27150000D02*
X15725000Y-27150000D01*
X13225000Y-27725000D02*
X13800000Y-27150000D01*
X21350000Y-21525000D02*
X28475000Y-21525000D01*
X15725000Y-27150000D02*
X21350000Y-21525000D01*
X34725000Y-5450000D02*
X34725000Y-3900000D01*
X34725000Y-3900000D02*
X36725000Y-1900000D01*
G04 #@! TO.N,/I2C_0_SCL*
X14686677Y-28638323D02*
X21524989Y-21800011D01*
X34325011Y-16063913D02*
X34325011Y-7477991D01*
X28588914Y-21800010D02*
X34325011Y-16063913D01*
X21524989Y-21800011D02*
X28588914Y-21800010D01*
X13210075Y-28638323D02*
X14686677Y-28638323D01*
X34325011Y-7477991D02*
X36178002Y-5625000D01*
X36178002Y-5625000D02*
X36178002Y-3421998D01*
X36178002Y-3421998D02*
X36750000Y-2850000D01*
D16*
G04 #@! TO.N,/1V8_SYS*
X19488908Y-44300000D02*
X24513908Y-39275000D01*
X19100000Y-44300000D02*
X19488908Y-44300000D01*
X24513908Y-39275000D02*
X32575000Y-39275000D01*
X33325001Y-36647999D02*
X32327002Y-35650000D01*
X33325001Y-38524999D02*
X33325001Y-36647999D01*
X32575000Y-39275000D02*
X33325001Y-38524999D01*
X31176350Y-30210650D02*
X31176350Y-27423650D01*
X31425001Y-34747999D02*
X31425001Y-30459301D01*
X31425001Y-30459301D02*
X31176350Y-30210650D01*
X32327002Y-35650000D02*
X31425001Y-34747999D01*
X32750000Y-25850000D02*
X32750000Y-25800000D01*
X31176350Y-27423650D02*
X32750000Y-25850000D01*
D17*
X19250001Y-16653003D02*
X20496998Y-17900000D01*
X19250001Y-14149999D02*
X19250001Y-16653003D01*
X19525000Y-13875000D02*
X19250001Y-14149999D01*
X20496998Y-17900000D02*
X29050000Y-17900000D01*
X29050000Y-17900000D02*
X29975000Y-18825000D01*
G04 #@! TO.N,/VCCIO1*
X23288908Y-44300000D02*
X24600000Y-45611092D01*
X22900000Y-44300000D02*
X23288908Y-44300000D01*
X24600000Y-45611092D02*
X24600000Y-47000000D01*
G04 #@! TO.N,Net-(R25-Pad2)*
X29000000Y-48500000D02*
X29000000Y-47200000D01*
X29000000Y-47200000D02*
X31725001Y-44474999D01*
X31725001Y-44474999D02*
X32000000Y-44200000D01*
G04 #@! TO.N,Net-(R30-Pad2)*
X45484655Y-34095345D02*
X45484655Y-33314655D01*
X42950000Y-30780000D02*
X42950000Y-25080000D01*
X45484655Y-33314655D02*
X42950000Y-30780000D01*
G04 #@! TO.N,Net-(R31-Pad2)*
X43680000Y-31020000D02*
X46280000Y-33620000D01*
X43680000Y-26583002D02*
X43680000Y-31020000D01*
X43405001Y-26308003D02*
X43680000Y-26583002D01*
X46280000Y-34320000D02*
X45834999Y-34765001D01*
X46280000Y-33620000D02*
X46280000Y-34320000D01*
X45834999Y-34765001D02*
X45560000Y-35040000D01*
X43680000Y-25260000D02*
X43405001Y-25534999D01*
X43405001Y-25534999D02*
X43405001Y-26308003D01*
G04 #@! TO.N,Net-(R32-Pad2)*
X44500000Y-26603002D02*
X44774999Y-26328003D01*
X44774999Y-25534999D02*
X44500000Y-25260000D01*
X44774999Y-26328003D02*
X44774999Y-25534999D01*
X46680000Y-33330000D02*
X44500000Y-31150000D01*
X46680000Y-34890000D02*
X46680000Y-33330000D01*
X45560000Y-36010000D02*
X46680000Y-34890000D01*
X44500000Y-31150000D02*
X44500000Y-26603002D01*
G04 #@! TO.N,Net-(R33-Pad2)*
X45600000Y-37000000D02*
X47140000Y-35460000D01*
X47140000Y-35460000D02*
X47140000Y-33120000D01*
X45400000Y-31380000D02*
X45400000Y-25260000D01*
X47140000Y-33120000D02*
X45400000Y-31380000D01*
G04 #@! TO.N,/VCCIO3*
X42300000Y-24100000D02*
X42300000Y-23700000D01*
X42300000Y-23700000D02*
X43800000Y-22200000D01*
X43800000Y-22200000D02*
X46700000Y-22200000D01*
X46700000Y-22200000D02*
X47100000Y-21800000D01*
X47100000Y-30900000D02*
X48100000Y-29900000D01*
X48100000Y-22800000D02*
X47100000Y-21800000D01*
X48100000Y-29900000D02*
X48100000Y-22800000D01*
G04 #@! TO.N,Net-(R29-Pad2)*
X45700000Y-42000000D02*
X45700000Y-39400000D01*
X46600000Y-38500000D02*
X47600000Y-38500000D01*
X45700000Y-39400000D02*
X46600000Y-38500000D01*
D16*
G04 #@! TO.N,Net-(J4-Pad1)*
X6184213Y-36810000D02*
X7100000Y-37725787D01*
X4770000Y-36810000D02*
X6184213Y-36810000D01*
X7100000Y-37725787D02*
X7100000Y-52800000D01*
X7100000Y-52800000D02*
X6300000Y-53600000D01*
X6300000Y-55600000D02*
X4770000Y-57130000D01*
X6300000Y-53600000D02*
X6300000Y-55600000D01*
D17*
G04 #@! TO.N,/E_PROC_RST*
X36700000Y-28300000D02*
X37700000Y-28300000D01*
X35200000Y-46000000D02*
X34300000Y-45100000D01*
X34300000Y-45100000D02*
X34300000Y-30700000D01*
X34300000Y-30700000D02*
X36700000Y-28300000D01*
G04 #@! TO.N,/CTRL_RST_FLASH_SOC_CS*
X35200000Y-47100000D02*
X35474999Y-46825001D01*
X35474999Y-46825001D02*
X35800000Y-46500000D01*
X35800000Y-46500000D02*
X35800000Y-45900000D01*
X35800000Y-45900000D02*
X34800000Y-44900000D01*
X34800000Y-44900000D02*
X34800000Y-33600000D01*
X37100000Y-31300000D02*
X37700000Y-31300000D01*
X34800000Y-33600000D02*
X37100000Y-31300000D01*
G04 #@! TO.N,/DONE*
X35275010Y-43811092D02*
X35300000Y-43786102D01*
X35275010Y-44200000D02*
X35275010Y-43811092D01*
X35300000Y-43786102D02*
X35300000Y-35400000D01*
X36400000Y-34300000D02*
X37500000Y-34300000D01*
X35300000Y-35400000D02*
X36400000Y-34300000D01*
G04 #@! TO.N,/FLASH_IO2*
X32800000Y-36900000D02*
X18000000Y-36900000D01*
X18000000Y-36900000D02*
X12000000Y-30900000D01*
X11925000Y-27425000D02*
X11925000Y-26925000D01*
X12000000Y-27500000D02*
X11925000Y-27425000D01*
X12000000Y-30900000D02*
X12000000Y-27500000D01*
G04 #@! TO.N,/FLASH_IO3*
X12300000Y-25625000D02*
X12300000Y-18300000D01*
X11328001Y-26596999D02*
X12300000Y-25625000D01*
X11328001Y-30728001D02*
X11328001Y-26596999D01*
X20775010Y-37175010D02*
X17775010Y-37175010D01*
X21675001Y-38075001D02*
X20775010Y-37175010D01*
X32524999Y-38075001D02*
X21675001Y-38075001D01*
X17775010Y-37175010D02*
X11328001Y-30728001D01*
X32800000Y-37800000D02*
X32524999Y-38075001D01*
G04 #@! TO.N,/VCCIO*
X27500000Y-14500000D02*
X31500000Y-14500000D01*
X31500000Y-14500000D02*
X32000000Y-15000000D01*
X25000000Y-17000000D02*
X27500000Y-14500000D01*
X20300000Y-17000000D02*
X25000000Y-17000000D01*
X32900000Y-10000000D02*
X32900000Y-11800000D01*
X32900000Y-11800000D02*
X32400000Y-12300000D01*
X32400000Y-14600000D02*
X32000000Y-15000000D01*
X32400000Y-12300000D02*
X32400000Y-14600000D01*
X32900000Y-8200000D02*
X32900000Y-10000000D01*
X30800000Y-6100000D02*
X32900000Y-8200000D01*
X24500000Y-1500000D02*
X25000000Y-1000000D01*
X25000000Y-1000000D02*
X28500000Y-1000000D01*
X30800000Y-3300000D02*
X30800000Y-6100000D01*
X28500000Y-1000000D02*
X30800000Y-3300000D01*
G04 #@! TO.N,Net-(R9-Pad2)*
X18638908Y-6250000D02*
X18250000Y-6250000D01*
X19888908Y-6250000D02*
X18638908Y-6250000D01*
X21000000Y-7361092D02*
X19888908Y-6250000D01*
X21000000Y-7750000D02*
X21000000Y-7361092D01*
G04 #@! TO.N,Net-(R14-Pad1)*
X20250000Y-16000000D02*
X22500000Y-16000000D01*
G04 #@! TO.N,/3V3_FTDI*
X8000000Y-14400000D02*
X8000000Y-15200000D01*
X8000000Y-15200000D02*
X9300000Y-16500000D01*
X9300000Y-16500000D02*
X10800000Y-16500000D01*
X11400000Y-17100000D02*
X11500000Y-17100000D01*
X10800000Y-16500000D02*
X11400000Y-17100000D01*
X8000000Y-12711092D02*
X8000000Y-14011092D01*
X8000000Y-14011092D02*
X8000000Y-14400000D01*
X9411092Y-11300000D02*
X8000000Y-12711092D01*
X9800000Y-11300000D02*
X9411092Y-11300000D01*
X11888908Y-17100000D02*
X11500000Y-17100000D01*
X13388908Y-17100000D02*
X11888908Y-17100000D01*
X16600000Y-13888908D02*
X13388908Y-17100000D01*
X16600000Y-13500000D02*
X16600000Y-13888908D01*
X16988908Y-13500000D02*
X18488908Y-12000000D01*
X16600000Y-13500000D02*
X16988908Y-13500000D01*
X18488908Y-12000000D02*
X28400000Y-12000000D01*
X28400000Y-12000000D02*
X29000000Y-12600000D01*
X29000000Y-12600000D02*
X31000000Y-12600000D01*
X32200000Y-11400000D02*
X32200000Y-11000000D01*
X31000000Y-12600000D02*
X32200000Y-11400000D01*
G04 #@! TO.N,/1V8_FTDI*
X28700000Y-3900000D02*
X27100000Y-2300000D01*
X27100000Y-2300000D02*
X27100000Y-1600000D01*
X28700000Y-10000000D02*
X28700000Y-3900000D01*
X29900000Y-11200000D02*
X28700000Y-10000000D01*
X17350000Y-4225000D02*
X18625000Y-4225000D01*
X18625000Y-4225000D02*
X18900000Y-4500000D01*
X16450000Y-6096998D02*
X16450000Y-5125000D01*
X16450000Y-5125000D02*
X17350000Y-4225000D01*
X18200000Y-10900000D02*
X18200000Y-10511092D01*
X18200000Y-10511092D02*
X17600000Y-9911092D01*
X17600000Y-9911092D02*
X17600000Y-9900000D01*
X15800000Y-6746998D02*
X16450000Y-6096998D01*
X15800000Y-8100000D02*
X15800000Y-6746998D01*
X17600000Y-9900000D02*
X15800000Y-8100000D01*
G04 #@! TO.N,/CTRL_RST_FLASH_SOC_CS_3V3*
X28200000Y-44175010D02*
X28175010Y-44200000D01*
X28175010Y-44200000D02*
X27400000Y-44200000D01*
X27976703Y-44175010D02*
X28200000Y-44175010D01*
X28200000Y-44175010D02*
X30669474Y-44175010D01*
G04 #@! TO.N,Net-(D6-Pad2)*
X10460000Y-39690000D02*
X10380000Y-39770000D01*
X12240000Y-39690000D02*
X10460000Y-39690000D01*
G04 #@! TO.N,/I2C_0_SCL_3V3*
X39300000Y-2000000D02*
X39900000Y-1400000D01*
X34700000Y-17000000D02*
X34700000Y-8200000D01*
X39300000Y-3600000D02*
X39300000Y-2000000D01*
X34700000Y-8200000D02*
X39300000Y-3600000D01*
G04 #@! TO.N,/I2C_0_SDA_3V3*
X35273247Y-8226753D02*
X39900000Y-3600000D01*
X35273247Y-17623249D02*
X35273247Y-8226753D01*
X34998248Y-17898248D02*
X35273247Y-17623249D01*
X39900000Y-3600000D02*
X39900000Y-2600000D01*
G04 #@! TO.N,/I2C_1_SCL_3V3*
X35813238Y-8686762D02*
X37100000Y-7400000D01*
X35813238Y-17755010D02*
X35813238Y-8686762D01*
G04 #@! TO.N,/I2C_1_SDA_3V3*
X36500000Y-9200000D02*
X36900000Y-8800000D01*
X36900000Y-8800000D02*
X37100000Y-8600000D01*
X36500000Y-18000000D02*
X36500000Y-9200000D01*
G04 #@! TO.N,Net-(R47-Pad2)*
X36300000Y-21549498D02*
X39500000Y-18349498D01*
X36300000Y-23200000D02*
X36300000Y-21549498D01*
X39500000Y-18349498D02*
X39500000Y-16200000D01*
X46700000Y-9000000D02*
X46700000Y-8200000D01*
X39500000Y-16200000D02*
X46700000Y-9000000D01*
G04 #@! TO.N,Net-(R46-Pad2)*
X35625001Y-23525001D02*
X35625001Y-21674999D01*
X35900000Y-23800000D02*
X35625001Y-23525001D01*
X35625001Y-21674999D02*
X39100000Y-18200000D01*
X39100000Y-18200000D02*
X39100000Y-16200000D01*
X39100000Y-16200000D02*
X46100000Y-9200000D01*
X46100000Y-7625000D02*
X46700000Y-7025000D01*
X46100000Y-9200000D02*
X46100000Y-7625000D01*
G04 #@! TO.N,Net-(R45-Pad2)*
X35349991Y-23534192D02*
X35349991Y-21350009D01*
X35259637Y-23624546D02*
X35349991Y-23534192D01*
X35259637Y-24013454D02*
X35259637Y-23624546D01*
X35349991Y-21350009D02*
X38700000Y-18000000D01*
X38700000Y-16211078D02*
X40700000Y-14211078D01*
X38700000Y-18000000D02*
X38700000Y-16211078D01*
X40700000Y-14211078D02*
X40700000Y-14200000D01*
X40700000Y-14200000D02*
X45700000Y-9200000D01*
X45700000Y-6800000D02*
X46700000Y-5800000D01*
X45700000Y-9200000D02*
X45700000Y-6800000D01*
G04 #@! TO.N,Net-(R44-Pad2)*
X45424990Y-9075010D02*
X45424990Y-5875010D01*
X38424992Y-16075008D02*
X45424990Y-9075010D01*
X34500000Y-24000000D02*
X34774999Y-23725001D01*
X34774999Y-23725001D02*
X34774999Y-21525001D01*
X45424990Y-5875010D02*
X46700000Y-4600000D01*
X34774999Y-21525001D02*
X38424992Y-17875008D01*
X38424992Y-17875008D02*
X38424992Y-16075008D01*
G04 #@! TO.N,/DBG_RX_3V3*
X32500000Y-15975000D02*
X32500000Y-15121998D01*
X33475001Y-14146997D02*
X33475001Y-5725001D01*
X32500000Y-15121998D02*
X33475001Y-14146997D01*
X32600000Y-4850000D02*
X32500000Y-4850000D01*
X33475001Y-5725001D02*
X32600000Y-4850000D01*
G04 #@! TO.N,/DBG_TX_3V3*
X32925000Y-4275000D02*
X32050000Y-4275000D01*
X33774990Y-5124990D02*
X32925000Y-4275000D01*
X33774990Y-14938918D02*
X33774990Y-14625000D01*
X33463908Y-15250000D02*
X33774990Y-14938918D01*
X33075000Y-15250000D02*
X33463908Y-15250000D01*
X33774990Y-14750010D02*
X33774990Y-14625000D01*
X33774990Y-14625000D02*
X33774990Y-5124990D01*
G04 #@! TD*
M02*
