M48
;DRILL file {KiCad 5.0.2+dfsg1-1~bpo9+1} date Tue 22 Oct 2019 04:55:18 PM CEST
;FORMAT={-:-/ absolute / metric / decimal}
FMAT,2
METRIC,TZ
T1C0.150
T2C0.200
T3C1.000
%
G90
G05
T1
X6.68Y-55.962
X7.5Y-53.5
X7.5Y-56.5
X7.625Y-46.503
X8.Y-5.25
X8.Y-14.4
X9.25Y-53.5
X9.8Y-10.4
X9.8Y-11.3
X9.9Y-17.3
X10.2Y-42.8
X10.75Y-58.75
X10.75Y-62.5
X11.1Y-35.7
X11.5Y-12.
X11.5Y-17.1
X11.5Y-45.1
X12.9Y-46.5
X13.Y-6.25
X13.8Y-14.4
X14.2Y-44.3
X14.75Y-13.5
X15.4Y-11.2
X15.5Y-28.75
X15.5Y-29.75
X15.5Y-30.75
X15.5Y-43.7
X15.739Y-5.989
X15.9Y-33.
X16.Y-28.25
X16.Y-29.25
X16.Y-30.25
X16.1Y-31.3
X16.3Y-23.4
X16.5Y-6.75
X16.5Y-11.25
X16.6Y-13.5
X16.8Y-45.1
X17.2Y-63.4
X17.4Y-23.3
X17.5Y-6.75
X17.5Y-11.25
X17.5Y-60.25
X18.2Y-10.9
X18.2Y-46.5
X18.25Y-6.25
X18.355Y-8.755
X18.6Y-23.3
X18.75Y-5.25
X18.75Y-10.25
X18.75Y-11.5
X18.75Y-12.5
X18.836Y-7.336
X18.84Y-9.225
X18.9Y-4.5
X19.1Y-44.3
X19.6Y-2.5
X19.6Y-26.3
X19.6Y-28.2
X19.75Y-60.25
X19.9Y-63.4
X20.25Y-16.
X20.3Y-17.
X20.7Y-3.8
X21.Y-7.75
X21.Y-18.75
X21.404Y-3.498
X21.5Y-1.5
X22.Y-23.3
X22.3Y-3.4
X22.3Y-45.1
X22.4Y-34.3
X22.4Y-35.7
X22.5Y-16.
X22.771Y-32.639
X22.801Y-28.321
X22.9Y-38.8
X22.9Y-44.3
X22.961Y-29.831
X23.Y-37.6
X23.061Y-35.861
X23.2Y-27.5
X23.249Y-32.161
X23.279Y-28.799
X23.3Y-33.7
X23.439Y-30.309
X23.5Y-31.2
X23.5Y-64.75
X23.539Y-36.339
X24.Y-27.4
X24.5Y-1.5
X24.5Y-14.75
X24.6Y-47.
X25.Y-27.3
X25.5Y-1.5
X25.5Y-44.25
X25.5Y-48.75
X26.Y-57.25
X26.25Y-21.
X26.6Y-27.8
X26.9Y-31.9
X27.Y-3.75
X27.1Y-1.6
X27.25Y-57.25
X27.3Y-23.2
X27.4Y-44.2
X27.5Y-14.5
X27.5Y-18.75
X28.Y-1.5
X28.1Y-26.8
X28.5Y-57.25
X28.7Y-3.9
X29.Y-48.5
X29.25Y-0.75
X29.75Y-57.25
X29.9Y-11.2
X30.Y-5.75
X30.Y-12.
X30.669Y-44.175
X30.9Y-31.8
X31.Y-1.5
X31.5Y-19.25
X31.6Y-45.7
X31.6Y-46.375
X31.701Y-29.959
X32.Y-5.5
X32.Y-9.5
X32.Y-15.
X32.Y-20.5
X32.Y-44.2
X32.051Y-32.181
X32.179Y-29.481
X32.2Y-11.
X32.25Y-63.
X32.3Y-28.2
X32.529Y-32.659
X32.7Y-29.
X32.8Y-35.
X32.9Y-10.
X33.Y-13.25
X33.6Y-32.8
X33.6Y-35.8
X34.5Y-24.9
X34.6Y-6.5
X35.2Y-46.
X35.2Y-47.1
X35.275Y-44.2
X36.611Y-29.989
X37.089Y-29.511
X37.19Y-44.672
X37.19Y-45.347
X37.5Y-16.5
X37.5Y-34.3
X37.5Y-46.75
X37.7Y-28.3
X37.7Y-31.3
X38.582Y-19.97
X39.231Y-45.911
X39.258Y-19.97
X39.709Y-46.389
X39.9Y-37.8
X40.1Y-31.5
X40.1Y-34.7
X40.5Y-16.5
X40.5Y-46.75
X40.6Y-20.
X41.5Y-24.75
X41.5Y-26.
X41.682Y-19.83
X42.Y-30.5
X42.3Y-24.1
X42.357Y-19.83
X42.4Y-26.6
X42.4Y-29.9
X42.95Y-25.08
X43.2Y-19.8
X43.5Y-16.5
X43.5Y-46.75
X43.641Y-45.389
X43.68Y-25.26
X43.8Y-19.4
X44.1Y-26.3
X44.119Y-44.911
X44.5Y-25.26
X44.663Y-15.75
X45.337Y-15.75
X45.4Y-25.26
X45.485Y-34.095
X45.56Y-35.04
X45.56Y-36.01
X45.6Y-37.
X45.7Y-42.
X45.8Y-19.5
X46.Y-26.4
X46.3Y-25.7
X46.4Y-20.2
X46.5Y-19.5
X46.5Y-46.75
X46.8Y-39.562
X46.8Y-40.237
X47.1Y-21.8
X47.1Y-28.7
X47.1Y-29.5
X47.1Y-30.9
X47.197Y-27.105
X47.2Y-22.7
X47.2Y-25.9
X47.49Y-40.038
X47.5Y-16.
X47.5Y-32.75
X47.5Y-49.25
X47.558Y-26.534
X47.6Y-38.5
X47.75Y-45.75
X48.5Y-16.
X48.5Y-49.25
X48.75Y-23.75
X48.75Y-24.75
X49.Y-30.6
X49.5Y-16.
X49.5Y-39.
X49.5Y-49.25
X49.75Y-38.1
X50.25Y-45.75
X50.5Y-16.
X50.5Y-32.75
X50.5Y-49.25
X50.75Y-30.5
X51.Y-21.25
X51.Y-44.25
X51.25Y-35.75
X51.4Y-15.4
X51.4Y-49.4
T2
X22.15Y-7.
X22.15Y-8.4
X22.15Y-9.8
X22.15Y-11.2
X23.55Y-7.
X23.55Y-8.4
X23.55Y-9.8
X23.55Y-11.2
X24.95Y-7.
X24.95Y-8.4
X24.95Y-9.8
X24.95Y-11.2
X26.35Y-7.
X26.35Y-8.4
X26.35Y-9.8
X26.35Y-11.2
T3
X2.23Y-8.87
X2.23Y-11.41
X2.23Y-13.95
X2.23Y-16.49
X2.23Y-19.03
X2.23Y-21.57
X2.23Y-24.11
X2.23Y-26.65
X2.23Y-29.19
X2.23Y-31.73
X2.23Y-34.27
X2.23Y-36.81
X2.23Y-39.35
X2.23Y-41.89
X2.23Y-44.43
X2.23Y-46.97
X2.23Y-49.51
X2.23Y-52.05
X2.23Y-54.59
X2.23Y-57.13
X4.77Y-8.87
X4.77Y-11.41
X4.77Y-13.95
X4.77Y-16.49
X4.77Y-19.03
X4.77Y-21.57
X4.77Y-24.11
X4.77Y-26.65
X4.77Y-29.19
X4.77Y-31.73
X4.77Y-34.27
X4.77Y-36.81
X4.77Y-39.35
X4.77Y-41.89
X4.77Y-44.43
X4.77Y-46.97
X4.77Y-49.51
X4.77Y-52.05
X4.77Y-54.59
X4.77Y-57.13
T0
M30
