G04 #@! TF.GenerationSoftware,KiCad,Pcbnew,5.1.4+dfsg1-1~bpo9+1*
G04 #@! TF.CreationDate,2019-11-25T12:29:00+01:00*
G04 #@! TF.ProjectId,zglue-demo-board,7a676c75-652d-4646-956d-6f2d626f6172,rev?*
G04 #@! TF.SameCoordinates,Original*
G04 #@! TF.FileFunction,Copper,L1,Top*
G04 #@! TF.FilePolarity,Positive*
%FSLAX46Y46*%
G04 Gerber Fmt 4.6, Leading zero omitted, Abs format (unit mm)*
G04 Created by KiCad (PCBNEW 5.1.4+dfsg1-1~bpo9+1) date 2019-11-25 12:29:00*
%MOMM*%
%LPD*%
G04 APERTURE LIST*
%ADD10C,0.180000*%
%ADD11C,0.001860*%
%ADD12C,0.500000*%
%ADD13C,0.100000*%
%ADD14C,4.700000*%
%ADD15R,0.800000X0.800000*%
%ADD16C,1.100000*%
%ADD17R,0.600000X1.300000*%
%ADD18R,2.000000X1.800000*%
%ADD19C,6.200000*%
%ADD20R,0.300000X0.300000*%
%ADD21R,1.100000X0.300000*%
%ADD22R,1.320000X1.300000*%
%ADD23C,2.000000*%
%ADD24R,1.380000X0.450000*%
%ADD25R,2.100000X1.475000*%
%ADD26R,1.900000X1.175000*%
%ADD27R,1.900000X2.375000*%
%ADD28C,0.550000*%
%ADD29C,0.200000*%
%ADD30C,0.150000*%
%ADD31C,0.300000*%
%ADD32C,0.250000*%
G04 APERTURE END LIST*
D10*
X15150476Y-52394523D02*
X14867142Y-51989761D01*
X14664761Y-52394523D02*
X14664761Y-51544523D01*
X14988571Y-51544523D01*
X15069523Y-51585000D01*
X15110000Y-51625476D01*
X15150476Y-51706428D01*
X15150476Y-51827857D01*
X15110000Y-51908809D01*
X15069523Y-51949285D01*
X14988571Y-51989761D01*
X14664761Y-51989761D01*
X15838571Y-52354047D02*
X15757619Y-52394523D01*
X15595714Y-52394523D01*
X15514761Y-52354047D01*
X15474285Y-52273095D01*
X15474285Y-51949285D01*
X15514761Y-51868333D01*
X15595714Y-51827857D01*
X15757619Y-51827857D01*
X15838571Y-51868333D01*
X15879047Y-51949285D01*
X15879047Y-52030238D01*
X15474285Y-52111190D01*
X16162380Y-51827857D02*
X16364761Y-52394523D01*
X16567142Y-51827857D01*
X16890952Y-52313571D02*
X16931428Y-52354047D01*
X16890952Y-52394523D01*
X16850476Y-52354047D01*
X16890952Y-52313571D01*
X16890952Y-52394523D01*
X18388571Y-52394523D02*
X17902857Y-52394523D01*
X18145714Y-52394523D02*
X18145714Y-51544523D01*
X18064761Y-51665952D01*
X17983809Y-51746904D01*
X17902857Y-51787380D01*
X18752857Y-52313571D02*
X18793333Y-52354047D01*
X18752857Y-52394523D01*
X18712380Y-52354047D01*
X18752857Y-52313571D01*
X18752857Y-52394523D01*
X19602857Y-52394523D02*
X19117142Y-52394523D01*
X19360000Y-52394523D02*
X19360000Y-51544523D01*
X19279047Y-51665952D01*
X19198095Y-51746904D01*
X19117142Y-51787380D01*
X21707619Y-52394523D02*
X21221904Y-52394523D01*
X21464761Y-52394523D02*
X21464761Y-51544523D01*
X21383809Y-51665952D01*
X21302857Y-51746904D01*
X21221904Y-51787380D01*
X22517142Y-52394523D02*
X22031428Y-52394523D01*
X22274285Y-52394523D02*
X22274285Y-51544523D01*
X22193333Y-51665952D01*
X22112380Y-51746904D01*
X22031428Y-51787380D01*
X23488571Y-51504047D02*
X22760000Y-52596904D01*
X23731428Y-51625476D02*
X23771904Y-51585000D01*
X23852857Y-51544523D01*
X24055238Y-51544523D01*
X24136190Y-51585000D01*
X24176666Y-51625476D01*
X24217142Y-51706428D01*
X24217142Y-51787380D01*
X24176666Y-51908809D01*
X23690952Y-52394523D01*
X24217142Y-52394523D01*
X24743333Y-51544523D02*
X24824285Y-51544523D01*
X24905238Y-51585000D01*
X24945714Y-51625476D01*
X24986190Y-51706428D01*
X25026666Y-51868333D01*
X25026666Y-52070714D01*
X24986190Y-52232619D01*
X24945714Y-52313571D01*
X24905238Y-52354047D01*
X24824285Y-52394523D01*
X24743333Y-52394523D01*
X24662380Y-52354047D01*
X24621904Y-52313571D01*
X24581428Y-52232619D01*
X24540952Y-52070714D01*
X24540952Y-51868333D01*
X24581428Y-51706428D01*
X24621904Y-51625476D01*
X24662380Y-51585000D01*
X24743333Y-51544523D01*
X25836190Y-52394523D02*
X25350476Y-52394523D01*
X25593333Y-52394523D02*
X25593333Y-51544523D01*
X25512380Y-51665952D01*
X25431428Y-51746904D01*
X25350476Y-51787380D01*
X26240952Y-52394523D02*
X26402857Y-52394523D01*
X26483809Y-52354047D01*
X26524285Y-52313571D01*
X26605238Y-52192142D01*
X26645714Y-52030238D01*
X26645714Y-51706428D01*
X26605238Y-51625476D01*
X26564761Y-51585000D01*
X26483809Y-51544523D01*
X26321904Y-51544523D01*
X26240952Y-51585000D01*
X26200476Y-51625476D01*
X26160000Y-51706428D01*
X26160000Y-51908809D01*
X26200476Y-51989761D01*
X26240952Y-52030238D01*
X26321904Y-52070714D01*
X26483809Y-52070714D01*
X26564761Y-52030238D01*
X26605238Y-51989761D01*
X26645714Y-51908809D01*
X14636190Y-50252857D02*
X15081428Y-50252857D01*
X14636190Y-50819523D01*
X15081428Y-50819523D01*
X15850476Y-50010000D02*
X15769523Y-49969523D01*
X15648095Y-49969523D01*
X15526666Y-50010000D01*
X15445714Y-50090952D01*
X15405238Y-50171904D01*
X15364761Y-50333809D01*
X15364761Y-50455238D01*
X15405238Y-50617142D01*
X15445714Y-50698095D01*
X15526666Y-50779047D01*
X15648095Y-50819523D01*
X15729047Y-50819523D01*
X15850476Y-50779047D01*
X15890952Y-50738571D01*
X15890952Y-50455238D01*
X15729047Y-50455238D01*
X16376666Y-50819523D02*
X16295714Y-50779047D01*
X16255238Y-50698095D01*
X16255238Y-49969523D01*
X17064761Y-50252857D02*
X17064761Y-50819523D01*
X16700476Y-50252857D02*
X16700476Y-50698095D01*
X16740952Y-50779047D01*
X16821904Y-50819523D01*
X16943333Y-50819523D01*
X17024285Y-50779047D01*
X17064761Y-50738571D01*
X17793333Y-50779047D02*
X17712380Y-50819523D01*
X17550476Y-50819523D01*
X17469523Y-50779047D01*
X17429047Y-50698095D01*
X17429047Y-50374285D01*
X17469523Y-50293333D01*
X17550476Y-50252857D01*
X17712380Y-50252857D01*
X17793333Y-50293333D01*
X17833809Y-50374285D01*
X17833809Y-50455238D01*
X17429047Y-50536190D01*
X18845714Y-50819523D02*
X18845714Y-49969523D01*
X19048095Y-49969523D01*
X19169523Y-50010000D01*
X19250476Y-50090952D01*
X19290952Y-50171904D01*
X19331428Y-50333809D01*
X19331428Y-50455238D01*
X19290952Y-50617142D01*
X19250476Y-50698095D01*
X19169523Y-50779047D01*
X19048095Y-50819523D01*
X18845714Y-50819523D01*
X20019523Y-50779047D02*
X19938571Y-50819523D01*
X19776666Y-50819523D01*
X19695714Y-50779047D01*
X19655238Y-50698095D01*
X19655238Y-50374285D01*
X19695714Y-50293333D01*
X19776666Y-50252857D01*
X19938571Y-50252857D01*
X20019523Y-50293333D01*
X20060000Y-50374285D01*
X20060000Y-50455238D01*
X19655238Y-50536190D01*
X20424285Y-50819523D02*
X20424285Y-50252857D01*
X20424285Y-50333809D02*
X20464761Y-50293333D01*
X20545714Y-50252857D01*
X20667142Y-50252857D01*
X20748095Y-50293333D01*
X20788571Y-50374285D01*
X20788571Y-50819523D01*
X20788571Y-50374285D02*
X20829047Y-50293333D01*
X20909999Y-50252857D01*
X21031428Y-50252857D01*
X21112380Y-50293333D01*
X21152857Y-50374285D01*
X21152857Y-50819523D01*
X21679047Y-50819523D02*
X21598095Y-50779047D01*
X21557619Y-50738571D01*
X21517142Y-50657619D01*
X21517142Y-50414761D01*
X21557619Y-50333809D01*
X21598095Y-50293333D01*
X21679047Y-50252857D01*
X21800476Y-50252857D01*
X21881428Y-50293333D01*
X21921904Y-50333809D01*
X21962380Y-50414761D01*
X21962380Y-50657619D01*
X21921904Y-50738571D01*
X21881428Y-50779047D01*
X21800476Y-50819523D01*
X21679047Y-50819523D01*
X23257619Y-50374285D02*
X23379047Y-50414761D01*
X23419523Y-50455238D01*
X23459999Y-50536190D01*
X23459999Y-50657619D01*
X23419523Y-50738571D01*
X23379047Y-50779047D01*
X23298095Y-50819523D01*
X22974285Y-50819523D01*
X22974285Y-49969523D01*
X23257619Y-49969523D01*
X23338571Y-50010000D01*
X23379047Y-50050476D01*
X23419523Y-50131428D01*
X23419523Y-50212380D01*
X23379047Y-50293333D01*
X23338571Y-50333809D01*
X23257619Y-50374285D01*
X22974285Y-50374285D01*
X23945714Y-50819523D02*
X23864761Y-50779047D01*
X23824285Y-50738571D01*
X23783809Y-50657619D01*
X23783809Y-50414761D01*
X23824285Y-50333809D01*
X23864761Y-50293333D01*
X23945714Y-50252857D01*
X24067142Y-50252857D01*
X24148095Y-50293333D01*
X24188571Y-50333809D01*
X24229047Y-50414761D01*
X24229047Y-50657619D01*
X24188571Y-50738571D01*
X24148095Y-50779047D01*
X24067142Y-50819523D01*
X23945714Y-50819523D01*
X24957619Y-50819523D02*
X24957619Y-50374285D01*
X24917142Y-50293333D01*
X24836190Y-50252857D01*
X24674285Y-50252857D01*
X24593333Y-50293333D01*
X24957619Y-50779047D02*
X24876666Y-50819523D01*
X24674285Y-50819523D01*
X24593333Y-50779047D01*
X24552857Y-50698095D01*
X24552857Y-50617142D01*
X24593333Y-50536190D01*
X24674285Y-50495714D01*
X24876666Y-50495714D01*
X24957619Y-50455238D01*
X25362380Y-50819523D02*
X25362380Y-50252857D01*
X25362380Y-50414761D02*
X25402857Y-50333809D01*
X25443333Y-50293333D01*
X25524285Y-50252857D01*
X25605238Y-50252857D01*
X26252857Y-50819523D02*
X26252857Y-49969523D01*
X26252857Y-50779047D02*
X26171904Y-50819523D01*
X26009999Y-50819523D01*
X25929047Y-50779047D01*
X25888571Y-50738571D01*
X25848095Y-50657619D01*
X25848095Y-50414761D01*
X25888571Y-50333809D01*
X25929047Y-50293333D01*
X26009999Y-50252857D01*
X26171904Y-50252857D01*
X26252857Y-50293333D01*
D11*
G36*
X10907858Y-44794154D02*
G01*
X10973014Y-44809089D01*
X10974103Y-44809539D01*
X10994597Y-44820232D01*
X11039945Y-44845318D01*
X11107742Y-44883414D01*
X11195582Y-44933138D01*
X11301060Y-44993105D01*
X11421770Y-45061933D01*
X11555306Y-45138238D01*
X11699263Y-45220638D01*
X11851236Y-45307750D01*
X12008818Y-45398190D01*
X12169605Y-45490575D01*
X12331190Y-45583522D01*
X12491169Y-45675648D01*
X12647134Y-45765570D01*
X12796682Y-45851904D01*
X12937406Y-45933268D01*
X13066901Y-46008279D01*
X13182761Y-46075553D01*
X13282580Y-46133707D01*
X13363954Y-46181359D01*
X13424476Y-46217124D01*
X13461741Y-46239621D01*
X13465999Y-46242284D01*
X13532798Y-46297139D01*
X13584109Y-46362739D01*
X13626938Y-46435594D01*
X13631185Y-47936694D01*
X13631822Y-48223912D01*
X13632033Y-48483067D01*
X13631819Y-48713768D01*
X13631183Y-48915625D01*
X13630130Y-49088247D01*
X13628661Y-49231242D01*
X13626779Y-49344219D01*
X13624489Y-49426788D01*
X13621791Y-49478558D01*
X13619421Y-49497256D01*
X13612991Y-49520965D01*
X13606136Y-49542589D01*
X13597223Y-49563216D01*
X13584614Y-49583937D01*
X13566676Y-49605840D01*
X13541773Y-49630014D01*
X13508270Y-49657548D01*
X13464531Y-49689532D01*
X13408923Y-49727053D01*
X13339809Y-49771202D01*
X13255555Y-49823068D01*
X13154525Y-49883738D01*
X13035084Y-49954304D01*
X12895598Y-50035853D01*
X12734430Y-50129474D01*
X12549947Y-50236257D01*
X12340513Y-50357291D01*
X12247302Y-50411142D01*
X10981274Y-51142603D01*
X10863164Y-51148672D01*
X10745054Y-51154742D01*
X10280488Y-50887563D01*
X9996010Y-50723979D01*
X9737538Y-50575352D01*
X9503807Y-50440884D01*
X9293550Y-50319777D01*
X9105501Y-50211231D01*
X8938394Y-50114450D01*
X8790963Y-50028634D01*
X8661943Y-49952986D01*
X8550066Y-49886708D01*
X8454068Y-49829000D01*
X8372682Y-49779066D01*
X8304642Y-49736106D01*
X8248682Y-49699323D01*
X8203535Y-49667918D01*
X8167937Y-49641094D01*
X8140621Y-49618051D01*
X8120322Y-49597992D01*
X8105772Y-49580119D01*
X8095706Y-49563633D01*
X8088858Y-49547736D01*
X8083961Y-49531630D01*
X8079751Y-49514516D01*
X8075421Y-49497290D01*
X8072405Y-49469658D01*
X8069795Y-49410912D01*
X8067593Y-49321435D01*
X8065802Y-49201605D01*
X8064425Y-49051803D01*
X8063466Y-48872410D01*
X8062926Y-48663806D01*
X8062809Y-48426373D01*
X8063118Y-48160489D01*
X8063566Y-47971024D01*
X9036396Y-47971024D01*
X9036417Y-48175721D01*
X9036598Y-48351328D01*
X9037116Y-48500252D01*
X9038149Y-48624899D01*
X9039873Y-48727676D01*
X9042465Y-48810988D01*
X9046103Y-48877244D01*
X9050964Y-48928847D01*
X9057225Y-48968206D01*
X9065063Y-48997727D01*
X9074655Y-49019815D01*
X9086178Y-49036878D01*
X9099810Y-49051321D01*
X9115727Y-49065552D01*
X9117043Y-49066700D01*
X9138142Y-49081079D01*
X9183539Y-49109185D01*
X9250268Y-49149311D01*
X9335363Y-49199750D01*
X9435858Y-49258796D01*
X9548787Y-49324740D01*
X9671184Y-49395876D01*
X9800083Y-49470497D01*
X9932519Y-49546896D01*
X10065524Y-49623365D01*
X10196134Y-49698198D01*
X10321382Y-49769687D01*
X10438302Y-49836126D01*
X10543929Y-49895807D01*
X10635296Y-49947023D01*
X10709437Y-49988068D01*
X10763387Y-50017233D01*
X10794179Y-50032813D01*
X10799008Y-50034762D01*
X10838054Y-50045408D01*
X10865348Y-50046037D01*
X10897695Y-50035649D01*
X10916880Y-50027739D01*
X10943112Y-50014599D01*
X10993026Y-49987524D01*
X11063637Y-49948241D01*
X11151960Y-49898476D01*
X11255011Y-49839956D01*
X11369804Y-49774405D01*
X11493356Y-49703552D01*
X11622682Y-49629121D01*
X11754798Y-49552839D01*
X11886718Y-49476433D01*
X12015459Y-49401628D01*
X12138035Y-49330151D01*
X12251463Y-49263728D01*
X12352757Y-49204084D01*
X12438933Y-49152947D01*
X12507006Y-49112043D01*
X12553993Y-49083097D01*
X12576907Y-49067836D01*
X12577789Y-49067104D01*
X12593891Y-49052621D01*
X12607693Y-49038146D01*
X12619373Y-49021271D01*
X12629107Y-48999588D01*
X12637073Y-48970687D01*
X12643448Y-48932161D01*
X12648409Y-48881599D01*
X12652133Y-48816593D01*
X12654798Y-48734736D01*
X12656581Y-48633616D01*
X12657659Y-48510827D01*
X12658210Y-48363959D01*
X12658409Y-48190603D01*
X12658436Y-47988351D01*
X12658436Y-47971024D01*
X12658433Y-47765425D01*
X12658286Y-47588931D01*
X12657785Y-47439151D01*
X12656720Y-47313693D01*
X12654883Y-47210166D01*
X12652065Y-47126179D01*
X12648055Y-47059341D01*
X12642645Y-47007260D01*
X12635625Y-46967546D01*
X12626787Y-46937806D01*
X12615921Y-46915651D01*
X12602818Y-46898689D01*
X12587268Y-46884528D01*
X12569063Y-46870778D01*
X12561682Y-46865367D01*
X12538559Y-46850489D01*
X12490728Y-46821464D01*
X12420802Y-46779824D01*
X12331389Y-46727098D01*
X12225101Y-46664817D01*
X12104547Y-46594511D01*
X11972339Y-46517711D01*
X11831087Y-46435947D01*
X11712007Y-46367229D01*
X11541856Y-46269299D01*
X11396715Y-46186096D01*
X11274403Y-46116459D01*
X11172734Y-46059225D01*
X11089526Y-46013232D01*
X11022595Y-45977319D01*
X10969758Y-45950324D01*
X10928831Y-45931084D01*
X10897631Y-45918437D01*
X10873975Y-45911223D01*
X10855678Y-45908279D01*
X10849103Y-45908036D01*
X10832641Y-45909524D01*
X10811755Y-45914750D01*
X10784300Y-45924861D01*
X10748133Y-45941000D01*
X10701110Y-45964313D01*
X10641086Y-45995945D01*
X10565917Y-46037041D01*
X10473461Y-46088745D01*
X10361573Y-46152204D01*
X10228109Y-46228561D01*
X10070925Y-46318962D01*
X9960890Y-46382410D01*
X9812796Y-46467998D01*
X9672296Y-46549465D01*
X9541858Y-46625359D01*
X9423955Y-46694231D01*
X9321056Y-46754630D01*
X9235632Y-46805107D01*
X9170154Y-46844212D01*
X9127094Y-46870493D01*
X9109025Y-46882409D01*
X9094524Y-46895426D01*
X9082094Y-46909199D01*
X9071576Y-46926121D01*
X9062809Y-46948583D01*
X9055635Y-46978976D01*
X9049894Y-47019694D01*
X9045426Y-47073129D01*
X9042072Y-47141671D01*
X9039671Y-47227713D01*
X9038066Y-47333647D01*
X9037095Y-47461865D01*
X9036599Y-47614759D01*
X9036420Y-47794721D01*
X9036396Y-47971024D01*
X8063566Y-47971024D01*
X8063647Y-47936694D01*
X8064326Y-47681526D01*
X8064912Y-47455932D01*
X8065528Y-47257989D01*
X8066293Y-47085776D01*
X8067330Y-46937371D01*
X8068759Y-46810852D01*
X8070703Y-46704298D01*
X8073282Y-46615786D01*
X8076617Y-46543395D01*
X8080830Y-46485202D01*
X8086043Y-46439287D01*
X8092376Y-46403727D01*
X8099950Y-46376600D01*
X8108888Y-46355985D01*
X8119310Y-46339960D01*
X8131338Y-46326603D01*
X8145092Y-46313992D01*
X8160695Y-46300205D01*
X8167316Y-46294086D01*
X8187386Y-46280068D01*
X8232768Y-46251538D01*
X8301464Y-46209677D01*
X8391476Y-46155663D01*
X8500806Y-46090676D01*
X8627456Y-46015895D01*
X8769428Y-45932500D01*
X8924725Y-45841669D01*
X9091348Y-45744582D01*
X9267300Y-45642419D01*
X9450582Y-45536358D01*
X9470141Y-45525061D01*
X9683799Y-45401694D01*
X9871960Y-45293139D01*
X10036390Y-45198439D01*
X10178857Y-45116639D01*
X10301128Y-45046782D01*
X10404970Y-44987911D01*
X10492150Y-44939071D01*
X10564435Y-44899306D01*
X10623592Y-44867659D01*
X10671390Y-44843174D01*
X10709594Y-44824896D01*
X10739972Y-44811867D01*
X10764292Y-44803131D01*
X10784319Y-44797733D01*
X10801823Y-44794716D01*
X10818569Y-44793125D01*
X10823480Y-44792797D01*
X10907858Y-44794154D01*
X10907858Y-44794154D01*
G37*
X10907858Y-44794154D02*
X10973014Y-44809089D01*
X10974103Y-44809539D01*
X10994597Y-44820232D01*
X11039945Y-44845318D01*
X11107742Y-44883414D01*
X11195582Y-44933138D01*
X11301060Y-44993105D01*
X11421770Y-45061933D01*
X11555306Y-45138238D01*
X11699263Y-45220638D01*
X11851236Y-45307750D01*
X12008818Y-45398190D01*
X12169605Y-45490575D01*
X12331190Y-45583522D01*
X12491169Y-45675648D01*
X12647134Y-45765570D01*
X12796682Y-45851904D01*
X12937406Y-45933268D01*
X13066901Y-46008279D01*
X13182761Y-46075553D01*
X13282580Y-46133707D01*
X13363954Y-46181359D01*
X13424476Y-46217124D01*
X13461741Y-46239621D01*
X13465999Y-46242284D01*
X13532798Y-46297139D01*
X13584109Y-46362739D01*
X13626938Y-46435594D01*
X13631185Y-47936694D01*
X13631822Y-48223912D01*
X13632033Y-48483067D01*
X13631819Y-48713768D01*
X13631183Y-48915625D01*
X13630130Y-49088247D01*
X13628661Y-49231242D01*
X13626779Y-49344219D01*
X13624489Y-49426788D01*
X13621791Y-49478558D01*
X13619421Y-49497256D01*
X13612991Y-49520965D01*
X13606136Y-49542589D01*
X13597223Y-49563216D01*
X13584614Y-49583937D01*
X13566676Y-49605840D01*
X13541773Y-49630014D01*
X13508270Y-49657548D01*
X13464531Y-49689532D01*
X13408923Y-49727053D01*
X13339809Y-49771202D01*
X13255555Y-49823068D01*
X13154525Y-49883738D01*
X13035084Y-49954304D01*
X12895598Y-50035853D01*
X12734430Y-50129474D01*
X12549947Y-50236257D01*
X12340513Y-50357291D01*
X12247302Y-50411142D01*
X10981274Y-51142603D01*
X10863164Y-51148672D01*
X10745054Y-51154742D01*
X10280488Y-50887563D01*
X9996010Y-50723979D01*
X9737538Y-50575352D01*
X9503807Y-50440884D01*
X9293550Y-50319777D01*
X9105501Y-50211231D01*
X8938394Y-50114450D01*
X8790963Y-50028634D01*
X8661943Y-49952986D01*
X8550066Y-49886708D01*
X8454068Y-49829000D01*
X8372682Y-49779066D01*
X8304642Y-49736106D01*
X8248682Y-49699323D01*
X8203535Y-49667918D01*
X8167937Y-49641094D01*
X8140621Y-49618051D01*
X8120322Y-49597992D01*
X8105772Y-49580119D01*
X8095706Y-49563633D01*
X8088858Y-49547736D01*
X8083961Y-49531630D01*
X8079751Y-49514516D01*
X8075421Y-49497290D01*
X8072405Y-49469658D01*
X8069795Y-49410912D01*
X8067593Y-49321435D01*
X8065802Y-49201605D01*
X8064425Y-49051803D01*
X8063466Y-48872410D01*
X8062926Y-48663806D01*
X8062809Y-48426373D01*
X8063118Y-48160489D01*
X8063566Y-47971024D01*
X9036396Y-47971024D01*
X9036417Y-48175721D01*
X9036598Y-48351328D01*
X9037116Y-48500252D01*
X9038149Y-48624899D01*
X9039873Y-48727676D01*
X9042465Y-48810988D01*
X9046103Y-48877244D01*
X9050964Y-48928847D01*
X9057225Y-48968206D01*
X9065063Y-48997727D01*
X9074655Y-49019815D01*
X9086178Y-49036878D01*
X9099810Y-49051321D01*
X9115727Y-49065552D01*
X9117043Y-49066700D01*
X9138142Y-49081079D01*
X9183539Y-49109185D01*
X9250268Y-49149311D01*
X9335363Y-49199750D01*
X9435858Y-49258796D01*
X9548787Y-49324740D01*
X9671184Y-49395876D01*
X9800083Y-49470497D01*
X9932519Y-49546896D01*
X10065524Y-49623365D01*
X10196134Y-49698198D01*
X10321382Y-49769687D01*
X10438302Y-49836126D01*
X10543929Y-49895807D01*
X10635296Y-49947023D01*
X10709437Y-49988068D01*
X10763387Y-50017233D01*
X10794179Y-50032813D01*
X10799008Y-50034762D01*
X10838054Y-50045408D01*
X10865348Y-50046037D01*
X10897695Y-50035649D01*
X10916880Y-50027739D01*
X10943112Y-50014599D01*
X10993026Y-49987524D01*
X11063637Y-49948241D01*
X11151960Y-49898476D01*
X11255011Y-49839956D01*
X11369804Y-49774405D01*
X11493356Y-49703552D01*
X11622682Y-49629121D01*
X11754798Y-49552839D01*
X11886718Y-49476433D01*
X12015459Y-49401628D01*
X12138035Y-49330151D01*
X12251463Y-49263728D01*
X12352757Y-49204084D01*
X12438933Y-49152947D01*
X12507006Y-49112043D01*
X12553993Y-49083097D01*
X12576907Y-49067836D01*
X12577789Y-49067104D01*
X12593891Y-49052621D01*
X12607693Y-49038146D01*
X12619373Y-49021271D01*
X12629107Y-48999588D01*
X12637073Y-48970687D01*
X12643448Y-48932161D01*
X12648409Y-48881599D01*
X12652133Y-48816593D01*
X12654798Y-48734736D01*
X12656581Y-48633616D01*
X12657659Y-48510827D01*
X12658210Y-48363959D01*
X12658409Y-48190603D01*
X12658436Y-47988351D01*
X12658436Y-47971024D01*
X12658433Y-47765425D01*
X12658286Y-47588931D01*
X12657785Y-47439151D01*
X12656720Y-47313693D01*
X12654883Y-47210166D01*
X12652065Y-47126179D01*
X12648055Y-47059341D01*
X12642645Y-47007260D01*
X12635625Y-46967546D01*
X12626787Y-46937806D01*
X12615921Y-46915651D01*
X12602818Y-46898689D01*
X12587268Y-46884528D01*
X12569063Y-46870778D01*
X12561682Y-46865367D01*
X12538559Y-46850489D01*
X12490728Y-46821464D01*
X12420802Y-46779824D01*
X12331389Y-46727098D01*
X12225101Y-46664817D01*
X12104547Y-46594511D01*
X11972339Y-46517711D01*
X11831087Y-46435947D01*
X11712007Y-46367229D01*
X11541856Y-46269299D01*
X11396715Y-46186096D01*
X11274403Y-46116459D01*
X11172734Y-46059225D01*
X11089526Y-46013232D01*
X11022595Y-45977319D01*
X10969758Y-45950324D01*
X10928831Y-45931084D01*
X10897631Y-45918437D01*
X10873975Y-45911223D01*
X10855678Y-45908279D01*
X10849103Y-45908036D01*
X10832641Y-45909524D01*
X10811755Y-45914750D01*
X10784300Y-45924861D01*
X10748133Y-45941000D01*
X10701110Y-45964313D01*
X10641086Y-45995945D01*
X10565917Y-46037041D01*
X10473461Y-46088745D01*
X10361573Y-46152204D01*
X10228109Y-46228561D01*
X10070925Y-46318962D01*
X9960890Y-46382410D01*
X9812796Y-46467998D01*
X9672296Y-46549465D01*
X9541858Y-46625359D01*
X9423955Y-46694231D01*
X9321056Y-46754630D01*
X9235632Y-46805107D01*
X9170154Y-46844212D01*
X9127094Y-46870493D01*
X9109025Y-46882409D01*
X9094524Y-46895426D01*
X9082094Y-46909199D01*
X9071576Y-46926121D01*
X9062809Y-46948583D01*
X9055635Y-46978976D01*
X9049894Y-47019694D01*
X9045426Y-47073129D01*
X9042072Y-47141671D01*
X9039671Y-47227713D01*
X9038066Y-47333647D01*
X9037095Y-47461865D01*
X9036599Y-47614759D01*
X9036420Y-47794721D01*
X9036396Y-47971024D01*
X8063566Y-47971024D01*
X8063647Y-47936694D01*
X8064326Y-47681526D01*
X8064912Y-47455932D01*
X8065528Y-47257989D01*
X8066293Y-47085776D01*
X8067330Y-46937371D01*
X8068759Y-46810852D01*
X8070703Y-46704298D01*
X8073282Y-46615786D01*
X8076617Y-46543395D01*
X8080830Y-46485202D01*
X8086043Y-46439287D01*
X8092376Y-46403727D01*
X8099950Y-46376600D01*
X8108888Y-46355985D01*
X8119310Y-46339960D01*
X8131338Y-46326603D01*
X8145092Y-46313992D01*
X8160695Y-46300205D01*
X8167316Y-46294086D01*
X8187386Y-46280068D01*
X8232768Y-46251538D01*
X8301464Y-46209677D01*
X8391476Y-46155663D01*
X8500806Y-46090676D01*
X8627456Y-46015895D01*
X8769428Y-45932500D01*
X8924725Y-45841669D01*
X9091348Y-45744582D01*
X9267300Y-45642419D01*
X9450582Y-45536358D01*
X9470141Y-45525061D01*
X9683799Y-45401694D01*
X9871960Y-45293139D01*
X10036390Y-45198439D01*
X10178857Y-45116639D01*
X10301128Y-45046782D01*
X10404970Y-44987911D01*
X10492150Y-44939071D01*
X10564435Y-44899306D01*
X10623592Y-44867659D01*
X10671390Y-44843174D01*
X10709594Y-44824896D01*
X10739972Y-44811867D01*
X10764292Y-44803131D01*
X10784319Y-44797733D01*
X10801823Y-44794716D01*
X10818569Y-44793125D01*
X10823480Y-44792797D01*
X10907858Y-44794154D01*
G36*
X15297751Y-46847833D02*
G01*
X15397450Y-46866497D01*
X15510608Y-46901190D01*
X15601916Y-46944245D01*
X15680837Y-47000654D01*
X15719641Y-47036444D01*
X15776867Y-47107912D01*
X15828247Y-47199412D01*
X15868063Y-47299483D01*
X15886450Y-47370881D01*
X15890100Y-47406332D01*
X15893376Y-47470657D01*
X15896231Y-47561233D01*
X15898613Y-47675439D01*
X15900475Y-47810653D01*
X15901765Y-47964254D01*
X15902436Y-48133621D01*
X15902524Y-48224404D01*
X15902524Y-48993170D01*
X15828716Y-49025819D01*
X15696561Y-49073297D01*
X15543469Y-49109980D01*
X15378484Y-49134719D01*
X15210650Y-49146367D01*
X15049012Y-49143776D01*
X14963755Y-49135571D01*
X14796711Y-49102290D01*
X14653931Y-49049385D01*
X14535703Y-48977171D01*
X14442314Y-48885962D01*
X14374051Y-48776070D01*
X14331202Y-48647809D01*
X14314054Y-48501493D01*
X14314884Y-48428039D01*
X14316891Y-48414154D01*
X14677704Y-48414154D01*
X14680632Y-48544438D01*
X14708945Y-48657040D01*
X14762035Y-48751021D01*
X14839297Y-48825443D01*
X14940127Y-48879368D01*
X14988361Y-48895398D01*
X15049981Y-48905934D01*
X15132502Y-48910730D01*
X15225929Y-48910162D01*
X15320266Y-48904607D01*
X15405517Y-48894439D01*
X15471688Y-48880036D01*
X15481265Y-48876856D01*
X15556068Y-48849951D01*
X15556068Y-47858522D01*
X15465517Y-47869447D01*
X15407727Y-47878538D01*
X15332910Y-47893205D01*
X15254431Y-47910765D01*
X15229756Y-47916800D01*
X15068315Y-47966434D01*
X14935748Y-48027420D01*
X14831297Y-48100441D01*
X14754201Y-48186184D01*
X14703701Y-48285331D01*
X14679037Y-48398569D01*
X14677704Y-48414154D01*
X14316891Y-48414154D01*
X14335388Y-48286169D01*
X14382933Y-48160045D01*
X14458113Y-48048308D01*
X14501016Y-48002457D01*
X14595816Y-47927132D01*
X14717700Y-47857807D01*
X14862579Y-47795995D01*
X15026361Y-47743213D01*
X15204957Y-47700977D01*
X15394275Y-47670801D01*
X15397104Y-47670456D01*
X15560366Y-47650670D01*
X15550927Y-47516926D01*
X15532663Y-47390797D01*
X15496434Y-47289588D01*
X15440603Y-47211285D01*
X15363535Y-47153874D01*
X15263592Y-47115341D01*
X15215755Y-47104557D01*
X15085531Y-47093216D01*
X14940788Y-47104064D01*
X14788300Y-47136084D01*
X14634839Y-47188258D01*
X14621329Y-47193858D01*
X14572899Y-47213070D01*
X14537419Y-47224946D01*
X14523320Y-47226989D01*
X14515289Y-47210365D01*
X14500176Y-47173295D01*
X14481470Y-47125006D01*
X14462660Y-47074722D01*
X14447235Y-47031667D01*
X14438684Y-47005065D01*
X14437960Y-47001296D01*
X14451145Y-46991016D01*
X14485372Y-46972840D01*
X14523843Y-46954933D01*
X14665211Y-46903792D01*
X14821962Y-46866633D01*
X14985420Y-46844335D01*
X15146908Y-46837775D01*
X15297751Y-46847833D01*
X15297751Y-46847833D01*
G37*
X15297751Y-46847833D02*
X15397450Y-46866497D01*
X15510608Y-46901190D01*
X15601916Y-46944245D01*
X15680837Y-47000654D01*
X15719641Y-47036444D01*
X15776867Y-47107912D01*
X15828247Y-47199412D01*
X15868063Y-47299483D01*
X15886450Y-47370881D01*
X15890100Y-47406332D01*
X15893376Y-47470657D01*
X15896231Y-47561233D01*
X15898613Y-47675439D01*
X15900475Y-47810653D01*
X15901765Y-47964254D01*
X15902436Y-48133621D01*
X15902524Y-48224404D01*
X15902524Y-48993170D01*
X15828716Y-49025819D01*
X15696561Y-49073297D01*
X15543469Y-49109980D01*
X15378484Y-49134719D01*
X15210650Y-49146367D01*
X15049012Y-49143776D01*
X14963755Y-49135571D01*
X14796711Y-49102290D01*
X14653931Y-49049385D01*
X14535703Y-48977171D01*
X14442314Y-48885962D01*
X14374051Y-48776070D01*
X14331202Y-48647809D01*
X14314054Y-48501493D01*
X14314884Y-48428039D01*
X14316891Y-48414154D01*
X14677704Y-48414154D01*
X14680632Y-48544438D01*
X14708945Y-48657040D01*
X14762035Y-48751021D01*
X14839297Y-48825443D01*
X14940127Y-48879368D01*
X14988361Y-48895398D01*
X15049981Y-48905934D01*
X15132502Y-48910730D01*
X15225929Y-48910162D01*
X15320266Y-48904607D01*
X15405517Y-48894439D01*
X15471688Y-48880036D01*
X15481265Y-48876856D01*
X15556068Y-48849951D01*
X15556068Y-47858522D01*
X15465517Y-47869447D01*
X15407727Y-47878538D01*
X15332910Y-47893205D01*
X15254431Y-47910765D01*
X15229756Y-47916800D01*
X15068315Y-47966434D01*
X14935748Y-48027420D01*
X14831297Y-48100441D01*
X14754201Y-48186184D01*
X14703701Y-48285331D01*
X14679037Y-48398569D01*
X14677704Y-48414154D01*
X14316891Y-48414154D01*
X14335388Y-48286169D01*
X14382933Y-48160045D01*
X14458113Y-48048308D01*
X14501016Y-48002457D01*
X14595816Y-47927132D01*
X14717700Y-47857807D01*
X14862579Y-47795995D01*
X15026361Y-47743213D01*
X15204957Y-47700977D01*
X15394275Y-47670801D01*
X15397104Y-47670456D01*
X15560366Y-47650670D01*
X15550927Y-47516926D01*
X15532663Y-47390797D01*
X15496434Y-47289588D01*
X15440603Y-47211285D01*
X15363535Y-47153874D01*
X15263592Y-47115341D01*
X15215755Y-47104557D01*
X15085531Y-47093216D01*
X14940788Y-47104064D01*
X14788300Y-47136084D01*
X14634839Y-47188258D01*
X14621329Y-47193858D01*
X14572899Y-47213070D01*
X14537419Y-47224946D01*
X14523320Y-47226989D01*
X14515289Y-47210365D01*
X14500176Y-47173295D01*
X14481470Y-47125006D01*
X14462660Y-47074722D01*
X14447235Y-47031667D01*
X14438684Y-47005065D01*
X14437960Y-47001296D01*
X14451145Y-46991016D01*
X14485372Y-46972840D01*
X14523843Y-46954933D01*
X14665211Y-46903792D01*
X14821962Y-46866633D01*
X14985420Y-46844335D01*
X15146908Y-46837775D01*
X15297751Y-46847833D01*
G36*
X24540642Y-46840011D02*
G01*
X24644340Y-46850059D01*
X24702021Y-46860910D01*
X24761468Y-46878026D01*
X24825304Y-46901271D01*
X24885268Y-46927041D01*
X24933099Y-46951732D01*
X24960536Y-46971740D01*
X24962731Y-46974663D01*
X24961034Y-46994245D01*
X24949691Y-47032719D01*
X24932257Y-47081037D01*
X24912289Y-47130151D01*
X24893344Y-47171015D01*
X24878977Y-47194581D01*
X24875277Y-47197140D01*
X24855840Y-47191467D01*
X24817145Y-47175946D01*
X24777966Y-47158637D01*
X24657556Y-47116817D01*
X24538303Y-47100564D01*
X24425741Y-47110051D01*
X24327082Y-47144575D01*
X24244633Y-47203565D01*
X24169079Y-47290093D01*
X24102796Y-47400527D01*
X24048158Y-47531237D01*
X24024987Y-47606560D01*
X24006700Y-47699379D01*
X23994948Y-47813674D01*
X23989731Y-47940106D01*
X23991048Y-48069342D01*
X23998899Y-48192043D01*
X24013283Y-48298876D01*
X24025029Y-48351403D01*
X24078441Y-48507854D01*
X24145682Y-48636208D01*
X24226949Y-48736760D01*
X24322433Y-48809803D01*
X24329842Y-48813997D01*
X24378046Y-48838461D01*
X24420476Y-48852533D01*
X24469360Y-48858899D01*
X24536928Y-48860247D01*
X24540302Y-48860234D01*
X24611196Y-48857119D01*
X24673423Y-48846543D01*
X24736539Y-48825628D01*
X24810104Y-48791498D01*
X24865132Y-48762451D01*
X24871994Y-48766864D01*
X24883881Y-48787522D01*
X24902273Y-48827671D01*
X24928648Y-48890555D01*
X24964485Y-48979421D01*
X24967856Y-48987878D01*
X24958997Y-49004820D01*
X24926949Y-49028588D01*
X24878267Y-49055640D01*
X24819502Y-49082438D01*
X24757208Y-49105441D01*
X24740962Y-49110446D01*
X24656243Y-49128476D01*
X24554197Y-49140035D01*
X24448370Y-49144337D01*
X24352302Y-49140592D01*
X24311956Y-49135421D01*
X24252955Y-49120449D01*
X24181933Y-49095569D01*
X24115106Y-49066553D01*
X23984393Y-48985216D01*
X23871546Y-48878355D01*
X23777058Y-48746718D01*
X23701420Y-48591051D01*
X23645125Y-48412101D01*
X23626382Y-48324966D01*
X23612710Y-48221836D01*
X23605515Y-48099652D01*
X23604535Y-47967268D01*
X23609505Y-47833541D01*
X23620163Y-47707326D01*
X23636246Y-47597478D01*
X23649781Y-47537966D01*
X23710979Y-47363646D01*
X23791770Y-47211736D01*
X23891148Y-47083374D01*
X24008105Y-46979697D01*
X24141634Y-46901841D01*
X24247885Y-46862292D01*
X24330746Y-46846163D01*
X24432221Y-46838724D01*
X24540642Y-46840011D01*
X24540642Y-46840011D01*
G37*
X24540642Y-46840011D02*
X24644340Y-46850059D01*
X24702021Y-46860910D01*
X24761468Y-46878026D01*
X24825304Y-46901271D01*
X24885268Y-46927041D01*
X24933099Y-46951732D01*
X24960536Y-46971740D01*
X24962731Y-46974663D01*
X24961034Y-46994245D01*
X24949691Y-47032719D01*
X24932257Y-47081037D01*
X24912289Y-47130151D01*
X24893344Y-47171015D01*
X24878977Y-47194581D01*
X24875277Y-47197140D01*
X24855840Y-47191467D01*
X24817145Y-47175946D01*
X24777966Y-47158637D01*
X24657556Y-47116817D01*
X24538303Y-47100564D01*
X24425741Y-47110051D01*
X24327082Y-47144575D01*
X24244633Y-47203565D01*
X24169079Y-47290093D01*
X24102796Y-47400527D01*
X24048158Y-47531237D01*
X24024987Y-47606560D01*
X24006700Y-47699379D01*
X23994948Y-47813674D01*
X23989731Y-47940106D01*
X23991048Y-48069342D01*
X23998899Y-48192043D01*
X24013283Y-48298876D01*
X24025029Y-48351403D01*
X24078441Y-48507854D01*
X24145682Y-48636208D01*
X24226949Y-48736760D01*
X24322433Y-48809803D01*
X24329842Y-48813997D01*
X24378046Y-48838461D01*
X24420476Y-48852533D01*
X24469360Y-48858899D01*
X24536928Y-48860247D01*
X24540302Y-48860234D01*
X24611196Y-48857119D01*
X24673423Y-48846543D01*
X24736539Y-48825628D01*
X24810104Y-48791498D01*
X24865132Y-48762451D01*
X24871994Y-48766864D01*
X24883881Y-48787522D01*
X24902273Y-48827671D01*
X24928648Y-48890555D01*
X24964485Y-48979421D01*
X24967856Y-48987878D01*
X24958997Y-49004820D01*
X24926949Y-49028588D01*
X24878267Y-49055640D01*
X24819502Y-49082438D01*
X24757208Y-49105441D01*
X24740962Y-49110446D01*
X24656243Y-49128476D01*
X24554197Y-49140035D01*
X24448370Y-49144337D01*
X24352302Y-49140592D01*
X24311956Y-49135421D01*
X24252955Y-49120449D01*
X24181933Y-49095569D01*
X24115106Y-49066553D01*
X23984393Y-48985216D01*
X23871546Y-48878355D01*
X23777058Y-48746718D01*
X23701420Y-48591051D01*
X23645125Y-48412101D01*
X23626382Y-48324966D01*
X23612710Y-48221836D01*
X23605515Y-48099652D01*
X23604535Y-47967268D01*
X23609505Y-47833541D01*
X23620163Y-47707326D01*
X23636246Y-47597478D01*
X23649781Y-47537966D01*
X23710979Y-47363646D01*
X23791770Y-47211736D01*
X23891148Y-47083374D01*
X24008105Y-46979697D01*
X24141634Y-46901841D01*
X24247885Y-46862292D01*
X24330746Y-46846163D01*
X24432221Y-46838724D01*
X24540642Y-46840011D01*
G36*
X27338500Y-46847934D02*
G01*
X27479271Y-46879987D01*
X27603888Y-46935132D01*
X27716461Y-47014942D01*
X27768553Y-47063613D01*
X27868300Y-47185569D01*
X27947318Y-47329028D01*
X28005961Y-47494900D01*
X28044585Y-47684095D01*
X28058095Y-47806636D01*
X28065731Y-48026880D01*
X28052844Y-48232824D01*
X28020106Y-48422524D01*
X27968183Y-48594035D01*
X27897744Y-48745411D01*
X27809459Y-48874707D01*
X27703995Y-48979978D01*
X27638549Y-49027161D01*
X27535336Y-49078408D01*
X27412499Y-49116601D01*
X27279808Y-49140004D01*
X27147028Y-49146884D01*
X27026072Y-49135896D01*
X26870713Y-49093331D01*
X26733021Y-49024959D01*
X26613580Y-48931436D01*
X26512970Y-48813416D01*
X26431776Y-48671552D01*
X26370581Y-48506499D01*
X26337228Y-48362757D01*
X26309196Y-48149469D01*
X26303315Y-47978157D01*
X26679775Y-47978157D01*
X26686639Y-48153941D01*
X26707674Y-48323017D01*
X26742896Y-48478411D01*
X26790663Y-48609537D01*
X26852305Y-48712891D01*
X26930412Y-48793717D01*
X27021038Y-48850398D01*
X27120232Y-48881318D01*
X27224048Y-48884859D01*
X27328537Y-48859405D01*
X27363274Y-48843979D01*
X27451728Y-48785796D01*
X27525071Y-48706116D01*
X27584047Y-48603338D01*
X27629396Y-48475865D01*
X27661861Y-48322097D01*
X27680669Y-48160000D01*
X27688833Y-47962406D01*
X27680784Y-47778380D01*
X27657156Y-47610675D01*
X27618579Y-47462044D01*
X27565687Y-47335239D01*
X27499111Y-47233014D01*
X27457763Y-47189068D01*
X27367830Y-47125409D01*
X27270287Y-47089846D01*
X27169492Y-47081338D01*
X27069802Y-47098846D01*
X26975575Y-47141331D01*
X26891168Y-47207753D01*
X26820939Y-47297073D01*
X26793695Y-47347455D01*
X26744043Y-47480314D01*
X26708494Y-47634368D01*
X26687066Y-47802641D01*
X26679775Y-47978157D01*
X26303315Y-47978157D01*
X26302077Y-47942113D01*
X26315237Y-47743981D01*
X26348043Y-47558364D01*
X26399862Y-47388555D01*
X26470060Y-47237845D01*
X26558004Y-47109525D01*
X26584035Y-47079872D01*
X26697280Y-46978968D01*
X26825238Y-46905332D01*
X26968825Y-46858588D01*
X27128958Y-46838362D01*
X27177464Y-46837401D01*
X27338500Y-46847934D01*
X27338500Y-46847934D01*
G37*
X27338500Y-46847934D02*
X27479271Y-46879987D01*
X27603888Y-46935132D01*
X27716461Y-47014942D01*
X27768553Y-47063613D01*
X27868300Y-47185569D01*
X27947318Y-47329028D01*
X28005961Y-47494900D01*
X28044585Y-47684095D01*
X28058095Y-47806636D01*
X28065731Y-48026880D01*
X28052844Y-48232824D01*
X28020106Y-48422524D01*
X27968183Y-48594035D01*
X27897744Y-48745411D01*
X27809459Y-48874707D01*
X27703995Y-48979978D01*
X27638549Y-49027161D01*
X27535336Y-49078408D01*
X27412499Y-49116601D01*
X27279808Y-49140004D01*
X27147028Y-49146884D01*
X27026072Y-49135896D01*
X26870713Y-49093331D01*
X26733021Y-49024959D01*
X26613580Y-48931436D01*
X26512970Y-48813416D01*
X26431776Y-48671552D01*
X26370581Y-48506499D01*
X26337228Y-48362757D01*
X26309196Y-48149469D01*
X26303315Y-47978157D01*
X26679775Y-47978157D01*
X26686639Y-48153941D01*
X26707674Y-48323017D01*
X26742896Y-48478411D01*
X26790663Y-48609537D01*
X26852305Y-48712891D01*
X26930412Y-48793717D01*
X27021038Y-48850398D01*
X27120232Y-48881318D01*
X27224048Y-48884859D01*
X27328537Y-48859405D01*
X27363274Y-48843979D01*
X27451728Y-48785796D01*
X27525071Y-48706116D01*
X27584047Y-48603338D01*
X27629396Y-48475865D01*
X27661861Y-48322097D01*
X27680669Y-48160000D01*
X27688833Y-47962406D01*
X27680784Y-47778380D01*
X27657156Y-47610675D01*
X27618579Y-47462044D01*
X27565687Y-47335239D01*
X27499111Y-47233014D01*
X27457763Y-47189068D01*
X27367830Y-47125409D01*
X27270287Y-47089846D01*
X27169492Y-47081338D01*
X27069802Y-47098846D01*
X26975575Y-47141331D01*
X26891168Y-47207753D01*
X26820939Y-47297073D01*
X26793695Y-47347455D01*
X26744043Y-47480314D01*
X26708494Y-47634368D01*
X26687066Y-47802641D01*
X26679775Y-47978157D01*
X26303315Y-47978157D01*
X26302077Y-47942113D01*
X26315237Y-47743981D01*
X26348043Y-47558364D01*
X26399862Y-47388555D01*
X26470060Y-47237845D01*
X26558004Y-47109525D01*
X26584035Y-47079872D01*
X26697280Y-46978968D01*
X26825238Y-46905332D01*
X26968825Y-46858588D01*
X27128958Y-46838362D01*
X27177464Y-46837401D01*
X27338500Y-46847934D01*
G36*
X18855755Y-46269444D02*
G01*
X18858630Y-46311116D01*
X18860930Y-46374735D01*
X18862488Y-46455527D01*
X18863139Y-46548716D01*
X18863148Y-46561578D01*
X18863148Y-46868664D01*
X19241100Y-46868664D01*
X19241100Y-47120632D01*
X18863148Y-47120632D01*
X18863148Y-48658982D01*
X18898973Y-48726729D01*
X18945039Y-48791264D01*
X19004279Y-48831205D01*
X19081404Y-48848928D01*
X19142708Y-48849690D01*
X19241166Y-48845038D01*
X19241133Y-48966155D01*
X19238348Y-49040811D01*
X19230140Y-49086070D01*
X19221415Y-49099626D01*
X19198007Y-49105325D01*
X19150929Y-49110669D01*
X19088005Y-49114906D01*
X19044250Y-49116653D01*
X18957887Y-49117443D01*
X18892757Y-49113166D01*
X18838855Y-49102783D01*
X18803384Y-49091661D01*
X18707529Y-49046432D01*
X18631230Y-48983573D01*
X18568105Y-48897316D01*
X18548188Y-48861009D01*
X18493070Y-48753781D01*
X18488593Y-47937206D01*
X18484117Y-47120632D01*
X18233228Y-47120632D01*
X18233228Y-46868664D01*
X18485196Y-46868664D01*
X18485196Y-46365812D01*
X18663495Y-46310152D01*
X18733943Y-46288426D01*
X18793143Y-46270669D01*
X18834786Y-46258739D01*
X18852471Y-46254492D01*
X18855755Y-46269444D01*
X18855755Y-46269444D01*
G37*
X18855755Y-46269444D02*
X18858630Y-46311116D01*
X18860930Y-46374735D01*
X18862488Y-46455527D01*
X18863139Y-46548716D01*
X18863148Y-46561578D01*
X18863148Y-46868664D01*
X19241100Y-46868664D01*
X19241100Y-47120632D01*
X18863148Y-47120632D01*
X18863148Y-48658982D01*
X18898973Y-48726729D01*
X18945039Y-48791264D01*
X19004279Y-48831205D01*
X19081404Y-48848928D01*
X19142708Y-48849690D01*
X19241166Y-48845038D01*
X19241133Y-48966155D01*
X19238348Y-49040811D01*
X19230140Y-49086070D01*
X19221415Y-49099626D01*
X19198007Y-49105325D01*
X19150929Y-49110669D01*
X19088005Y-49114906D01*
X19044250Y-49116653D01*
X18957887Y-49117443D01*
X18892757Y-49113166D01*
X18838855Y-49102783D01*
X18803384Y-49091661D01*
X18707529Y-49046432D01*
X18631230Y-48983573D01*
X18568105Y-48897316D01*
X18548188Y-48861009D01*
X18493070Y-48753781D01*
X18488593Y-47937206D01*
X18484117Y-47120632D01*
X18233228Y-47120632D01*
X18233228Y-46868664D01*
X18485196Y-46868664D01*
X18485196Y-46365812D01*
X18663495Y-46310152D01*
X18733943Y-46288426D01*
X18793143Y-46270669D01*
X18834786Y-46258739D01*
X18852471Y-46254492D01*
X18855755Y-46269444D01*
G36*
X17240096Y-46845833D02*
G01*
X17323898Y-46848024D01*
X17388323Y-46852309D01*
X17439422Y-46859157D01*
X17483244Y-46869040D01*
X17500273Y-46874005D01*
X17643061Y-46928660D01*
X17758414Y-46996545D01*
X17848001Y-47078851D01*
X17906914Y-47164274D01*
X17925724Y-47199641D01*
X17941717Y-47233023D01*
X17955121Y-47267213D01*
X17966164Y-47305004D01*
X17975075Y-47349189D01*
X17982082Y-47402558D01*
X17987413Y-47467906D01*
X17991297Y-47548025D01*
X17993963Y-47645707D01*
X17995638Y-47763744D01*
X17996552Y-47904930D01*
X17996932Y-48072056D01*
X17997008Y-48265671D01*
X17997008Y-49104880D01*
X17619056Y-49104880D01*
X17619056Y-48273094D01*
X17618976Y-48077306D01*
X17618574Y-47910372D01*
X17617603Y-47769653D01*
X17615819Y-47652508D01*
X17612976Y-47556295D01*
X17608829Y-47478374D01*
X17603134Y-47416104D01*
X17595644Y-47366845D01*
X17586116Y-47327955D01*
X17574302Y-47296794D01*
X17559959Y-47270721D01*
X17542841Y-47247096D01*
X17522702Y-47223276D01*
X17521446Y-47221844D01*
X17456309Y-47163065D01*
X17376879Y-47121799D01*
X17276472Y-47094899D01*
X17238921Y-47088826D01*
X17133340Y-47082045D01*
X17016487Y-47087786D01*
X16902948Y-47104728D01*
X16820197Y-47126855D01*
X16760790Y-47147420D01*
X16756734Y-48126150D01*
X16752678Y-49104880D01*
X16374964Y-49104880D01*
X16374964Y-46982877D01*
X16520633Y-46935092D01*
X16620874Y-46903410D01*
X16706056Y-46880087D01*
X16784621Y-46863881D01*
X16865008Y-46853549D01*
X16955659Y-46847849D01*
X17065014Y-46845539D01*
X17130868Y-46845265D01*
X17240096Y-46845833D01*
X17240096Y-46845833D01*
G37*
X17240096Y-46845833D02*
X17323898Y-46848024D01*
X17388323Y-46852309D01*
X17439422Y-46859157D01*
X17483244Y-46869040D01*
X17500273Y-46874005D01*
X17643061Y-46928660D01*
X17758414Y-46996545D01*
X17848001Y-47078851D01*
X17906914Y-47164274D01*
X17925724Y-47199641D01*
X17941717Y-47233023D01*
X17955121Y-47267213D01*
X17966164Y-47305004D01*
X17975075Y-47349189D01*
X17982082Y-47402558D01*
X17987413Y-47467906D01*
X17991297Y-47548025D01*
X17993963Y-47645707D01*
X17995638Y-47763744D01*
X17996552Y-47904930D01*
X17996932Y-48072056D01*
X17997008Y-48265671D01*
X17997008Y-49104880D01*
X17619056Y-49104880D01*
X17619056Y-48273094D01*
X17618976Y-48077306D01*
X17618574Y-47910372D01*
X17617603Y-47769653D01*
X17615819Y-47652508D01*
X17612976Y-47556295D01*
X17608829Y-47478374D01*
X17603134Y-47416104D01*
X17595644Y-47366845D01*
X17586116Y-47327955D01*
X17574302Y-47296794D01*
X17559959Y-47270721D01*
X17542841Y-47247096D01*
X17522702Y-47223276D01*
X17521446Y-47221844D01*
X17456309Y-47163065D01*
X17376879Y-47121799D01*
X17276472Y-47094899D01*
X17238921Y-47088826D01*
X17133340Y-47082045D01*
X17016487Y-47087786D01*
X16902948Y-47104728D01*
X16820197Y-47126855D01*
X16760790Y-47147420D01*
X16756734Y-48126150D01*
X16752678Y-49104880D01*
X16374964Y-49104880D01*
X16374964Y-46982877D01*
X16520633Y-46935092D01*
X16620874Y-46903410D01*
X16706056Y-46880087D01*
X16784621Y-46863881D01*
X16865008Y-46853549D01*
X16955659Y-46847849D01*
X17065014Y-46845539D01*
X17130868Y-46845265D01*
X17240096Y-46845833D01*
G36*
X21817209Y-46848934D02*
G01*
X21970880Y-46882412D01*
X22103095Y-46937819D01*
X22213265Y-47014863D01*
X22300801Y-47113253D01*
X22342829Y-47183624D01*
X22359474Y-47217557D01*
X22373617Y-47250367D01*
X22385461Y-47284841D01*
X22395210Y-47323765D01*
X22403065Y-47369924D01*
X22409232Y-47426106D01*
X22413914Y-47495097D01*
X22417313Y-47579681D01*
X22419633Y-47682646D01*
X22421078Y-47806778D01*
X22421850Y-47954862D01*
X22422153Y-48129686D01*
X22422196Y-48271011D01*
X22422196Y-49104880D01*
X22045262Y-49104880D01*
X22040816Y-48234803D01*
X22036370Y-47364726D01*
X21990412Y-47281777D01*
X21927906Y-47199302D01*
X21846589Y-47138216D01*
X21751109Y-47098890D01*
X21646111Y-47081694D01*
X21536242Y-47086999D01*
X21426150Y-47115177D01*
X21320480Y-47166598D01*
X21245033Y-47222281D01*
X21178104Y-47280566D01*
X21178104Y-49104880D01*
X20800152Y-49104880D01*
X20800152Y-48252378D01*
X20799876Y-48038481D01*
X20799034Y-47855047D01*
X20797607Y-47701049D01*
X20795573Y-47575459D01*
X20792913Y-47477251D01*
X20789606Y-47405395D01*
X20785633Y-47358864D01*
X20782177Y-47339880D01*
X20739945Y-47250763D01*
X20673117Y-47179454D01*
X20583646Y-47126820D01*
X20473489Y-47093729D01*
X20344600Y-47081047D01*
X20214025Y-47087821D01*
X20142817Y-47096477D01*
X20091721Y-47104687D01*
X20049488Y-47114918D01*
X20004870Y-47129640D01*
X19977319Y-47139767D01*
X19934012Y-47155949D01*
X19934012Y-49104880D01*
X19571808Y-49104880D01*
X19571808Y-46980379D01*
X19721830Y-46932322D01*
X19890788Y-46884581D01*
X20048628Y-46854775D01*
X20208725Y-46841038D01*
X20374956Y-46841166D01*
X20508348Y-46849028D01*
X20617653Y-46863977D01*
X20709872Y-46888053D01*
X20792008Y-46923302D01*
X20871063Y-46971767D01*
X20903587Y-46995460D01*
X21007015Y-47073744D01*
X21072874Y-47020309D01*
X21200383Y-46936051D01*
X21343556Y-46877892D01*
X21503665Y-46845425D01*
X21642670Y-46837674D01*
X21817209Y-46848934D01*
X21817209Y-46848934D01*
G37*
X21817209Y-46848934D02*
X21970880Y-46882412D01*
X22103095Y-46937819D01*
X22213265Y-47014863D01*
X22300801Y-47113253D01*
X22342829Y-47183624D01*
X22359474Y-47217557D01*
X22373617Y-47250367D01*
X22385461Y-47284841D01*
X22395210Y-47323765D01*
X22403065Y-47369924D01*
X22409232Y-47426106D01*
X22413914Y-47495097D01*
X22417313Y-47579681D01*
X22419633Y-47682646D01*
X22421078Y-47806778D01*
X22421850Y-47954862D01*
X22422153Y-48129686D01*
X22422196Y-48271011D01*
X22422196Y-49104880D01*
X22045262Y-49104880D01*
X22040816Y-48234803D01*
X22036370Y-47364726D01*
X21990412Y-47281777D01*
X21927906Y-47199302D01*
X21846589Y-47138216D01*
X21751109Y-47098890D01*
X21646111Y-47081694D01*
X21536242Y-47086999D01*
X21426150Y-47115177D01*
X21320480Y-47166598D01*
X21245033Y-47222281D01*
X21178104Y-47280566D01*
X21178104Y-49104880D01*
X20800152Y-49104880D01*
X20800152Y-48252378D01*
X20799876Y-48038481D01*
X20799034Y-47855047D01*
X20797607Y-47701049D01*
X20795573Y-47575459D01*
X20792913Y-47477251D01*
X20789606Y-47405395D01*
X20785633Y-47358864D01*
X20782177Y-47339880D01*
X20739945Y-47250763D01*
X20673117Y-47179454D01*
X20583646Y-47126820D01*
X20473489Y-47093729D01*
X20344600Y-47081047D01*
X20214025Y-47087821D01*
X20142817Y-47096477D01*
X20091721Y-47104687D01*
X20049488Y-47114918D01*
X20004870Y-47129640D01*
X19977319Y-47139767D01*
X19934012Y-47155949D01*
X19934012Y-49104880D01*
X19571808Y-49104880D01*
X19571808Y-46980379D01*
X19721830Y-46932322D01*
X19890788Y-46884581D01*
X20048628Y-46854775D01*
X20208725Y-46841038D01*
X20374956Y-46841166D01*
X20508348Y-46849028D01*
X20617653Y-46863977D01*
X20709872Y-46888053D01*
X20792008Y-46923302D01*
X20871063Y-46971767D01*
X20903587Y-46995460D01*
X21007015Y-47073744D01*
X21072874Y-47020309D01*
X21200383Y-46936051D01*
X21343556Y-46877892D01*
X21503665Y-46845425D01*
X21642670Y-46837674D01*
X21817209Y-46848934D01*
G36*
X23272588Y-49104880D02*
G01*
X22894636Y-49104880D01*
X22894636Y-46868664D01*
X23272588Y-46868664D01*
X23272588Y-49104880D01*
X23272588Y-49104880D01*
G37*
X23272588Y-49104880D02*
X22894636Y-49104880D01*
X22894636Y-46868664D01*
X23272588Y-46868664D01*
X23272588Y-49104880D01*
G36*
X26224969Y-46839638D02*
G01*
X26253264Y-46843617D01*
X26264251Y-46850188D01*
X26264708Y-46852370D01*
X26260245Y-46875495D01*
X26248330Y-46920461D01*
X26231173Y-46979131D01*
X26223348Y-47004583D01*
X26202216Y-47068978D01*
X26186092Y-47107883D01*
X26172163Y-47126315D01*
X26157618Y-47129294D01*
X26154006Y-47128358D01*
X26056101Y-47107472D01*
X25946769Y-47100592D01*
X25838397Y-47107540D01*
X25743375Y-47128137D01*
X25725339Y-47134542D01*
X25682032Y-47151348D01*
X25682032Y-49104880D01*
X25304080Y-49104880D01*
X25304080Y-46982095D01*
X25418253Y-46941184D01*
X25517469Y-46907852D01*
X25608226Y-46883075D01*
X25699168Y-46865379D01*
X25798939Y-46853289D01*
X25916184Y-46845333D01*
X26000929Y-46841847D01*
X26102332Y-46838894D01*
X26175835Y-46838110D01*
X26224969Y-46839638D01*
X26224969Y-46839638D01*
G37*
X26224969Y-46839638D02*
X26253264Y-46843617D01*
X26264251Y-46850188D01*
X26264708Y-46852370D01*
X26260245Y-46875495D01*
X26248330Y-46920461D01*
X26231173Y-46979131D01*
X26223348Y-47004583D01*
X26202216Y-47068978D01*
X26186092Y-47107883D01*
X26172163Y-47126315D01*
X26157618Y-47129294D01*
X26154006Y-47128358D01*
X26056101Y-47107472D01*
X25946769Y-47100592D01*
X25838397Y-47107540D01*
X25743375Y-47128137D01*
X25725339Y-47134542D01*
X25682032Y-47151348D01*
X25682032Y-49104880D01*
X25304080Y-49104880D01*
X25304080Y-46982095D01*
X25418253Y-46941184D01*
X25517469Y-46907852D01*
X25608226Y-46883075D01*
X25699168Y-46865379D01*
X25798939Y-46853289D01*
X25916184Y-46845333D01*
X26000929Y-46841847D01*
X26102332Y-46838894D01*
X26175835Y-46838110D01*
X26224969Y-46839638D01*
G36*
X10932215Y-46680051D02*
G01*
X10946347Y-46685622D01*
X11018666Y-46732561D01*
X11071408Y-46799424D01*
X11100947Y-46879122D01*
X11103655Y-46964568D01*
X11099816Y-46985555D01*
X11068544Y-47066231D01*
X11014460Y-47126716D01*
X10959909Y-47159985D01*
X10894660Y-47191464D01*
X10894660Y-47561576D01*
X11169509Y-47561576D01*
X11282689Y-47449152D01*
X11395869Y-47336727D01*
X11387507Y-47255710D01*
X11387410Y-47254008D01*
X11494373Y-47254008D01*
X11511982Y-47290710D01*
X11548662Y-47307814D01*
X11593019Y-47304171D01*
X11625817Y-47284861D01*
X11648318Y-47247955D01*
X11640421Y-47210148D01*
X11619068Y-47183624D01*
X11589108Y-47158208D01*
X11564285Y-47155670D01*
X11530538Y-47174930D01*
X11528084Y-47176643D01*
X11500241Y-47211537D01*
X11494373Y-47254008D01*
X11387410Y-47254008D01*
X11384542Y-47203801D01*
X11391500Y-47168590D01*
X11412038Y-47135911D01*
X11421379Y-47124501D01*
X11478604Y-47076113D01*
X11541563Y-47054002D01*
X11604937Y-47055265D01*
X11663411Y-47076996D01*
X11711667Y-47116289D01*
X11744389Y-47170240D01*
X11756260Y-47235944D01*
X11745157Y-47301414D01*
X11709669Y-47363422D01*
X11652722Y-47403344D01*
X11576802Y-47419557D01*
X11563938Y-47419844D01*
X11531051Y-47420986D01*
X11503722Y-47426875D01*
X11475835Y-47441207D01*
X11441270Y-47467677D01*
X11393910Y-47509983D01*
X11355393Y-47545828D01*
X11220738Y-47671812D01*
X10894660Y-47671812D01*
X10894660Y-47923780D01*
X11492275Y-47923780D01*
X11515608Y-47878659D01*
X11558228Y-47827311D01*
X11617020Y-47796573D01*
X11683506Y-47787446D01*
X11749214Y-47800930D01*
X11805668Y-47838024D01*
X11811137Y-47843797D01*
X11851843Y-47907561D01*
X11865384Y-47972604D01*
X11855548Y-48034391D01*
X11826122Y-48088385D01*
X11780896Y-48130049D01*
X11723658Y-48154847D01*
X11658196Y-48158242D01*
X11588299Y-48135699D01*
X11574080Y-48127654D01*
X11537635Y-48099145D01*
X11515066Y-48069859D01*
X11513188Y-48064721D01*
X11508818Y-48054131D01*
X11499219Y-48046300D01*
X11480165Y-48040814D01*
X11447428Y-48037257D01*
X11396778Y-48035215D01*
X11323990Y-48034275D01*
X11224835Y-48034021D01*
X11199909Y-48034016D01*
X10894660Y-48034016D01*
X10894660Y-48270236D01*
X11218189Y-48270236D01*
X11479690Y-48533102D01*
X11553316Y-48526776D01*
X11632246Y-48532277D01*
X11693593Y-48562930D01*
X11735389Y-48617519D01*
X11746259Y-48646008D01*
X11756919Y-48721329D01*
X11738838Y-48786394D01*
X11699371Y-48838024D01*
X11638368Y-48880694D01*
X11573554Y-48896176D01*
X11510575Y-48887327D01*
X11455073Y-48857001D01*
X11412695Y-48808054D01*
X11389085Y-48743341D01*
X11388051Y-48696062D01*
X11496080Y-48696062D01*
X11501207Y-48735239D01*
X11516274Y-48757947D01*
X11552110Y-48785572D01*
X11586657Y-48783295D01*
X11619068Y-48758424D01*
X11646406Y-48720002D01*
X11643840Y-48685600D01*
X11620367Y-48657237D01*
X11580539Y-48636719D01*
X11542228Y-48640531D01*
X11511914Y-48662402D01*
X11496080Y-48696062D01*
X11388051Y-48696062D01*
X11387707Y-48680357D01*
X11396517Y-48605965D01*
X11169509Y-48380472D01*
X10894660Y-48380472D01*
X10894660Y-48753640D01*
X10959590Y-48782920D01*
X11027745Y-48828992D01*
X11074748Y-48892023D01*
X11100422Y-48965668D01*
X11104593Y-49043578D01*
X11087084Y-49119408D01*
X11047720Y-49186812D01*
X10986325Y-49239441D01*
X10972440Y-49247101D01*
X10889980Y-49272908D01*
X10802152Y-49272912D01*
X10720600Y-49247149D01*
X10719035Y-49246330D01*
X10654463Y-49196303D01*
X10612029Y-49130488D01*
X10591509Y-49055275D01*
X10592062Y-49018266D01*
X10699385Y-49018266D01*
X10705776Y-49065110D01*
X10729820Y-49102985D01*
X10750027Y-49122623D01*
X10808283Y-49159758D01*
X10865642Y-49165474D01*
X10923420Y-49139772D01*
X10944805Y-49122623D01*
X10980047Y-49083675D01*
X10994090Y-49043063D01*
X10995447Y-49018266D01*
X10981274Y-48961047D01*
X10944367Y-48911472D01*
X10893146Y-48878050D01*
X10847416Y-48868660D01*
X10790800Y-48882984D01*
X10741747Y-48920283D01*
X10708676Y-48972049D01*
X10699385Y-49018266D01*
X10592062Y-49018266D01*
X10592679Y-48977057D01*
X10615317Y-48902225D01*
X10659199Y-48837171D01*
X10724100Y-48788286D01*
X10735242Y-48782920D01*
X10800172Y-48753640D01*
X10800172Y-48380472D01*
X10525323Y-48380472D01*
X10298314Y-48605965D01*
X10307125Y-48680357D01*
X10303168Y-48755890D01*
X10275803Y-48818004D01*
X10230675Y-48863845D01*
X10173429Y-48890556D01*
X10109710Y-48895282D01*
X10045162Y-48875168D01*
X9995461Y-48838024D01*
X9951676Y-48777689D01*
X9937704Y-48711493D01*
X9940923Y-48692097D01*
X10048274Y-48692097D01*
X10051279Y-48726768D01*
X10075764Y-48758424D01*
X10114105Y-48785740D01*
X10148479Y-48783165D01*
X10177552Y-48759058D01*
X10197278Y-48718550D01*
X10192090Y-48677439D01*
X10164837Y-48646507D01*
X10145756Y-48638687D01*
X10099303Y-48640960D01*
X10075129Y-48656636D01*
X10048274Y-48692097D01*
X9940923Y-48692097D01*
X9948573Y-48646008D01*
X9981934Y-48582117D01*
X10035639Y-48541672D01*
X10107720Y-48525890D01*
X10141516Y-48526776D01*
X10215142Y-48533102D01*
X10476643Y-48270236D01*
X10800172Y-48270236D01*
X10800172Y-48034016D01*
X10494147Y-48034016D01*
X10388795Y-48034151D01*
X10310674Y-48034847D01*
X10255522Y-48036545D01*
X10219073Y-48039682D01*
X10197064Y-48044700D01*
X10185231Y-48052035D01*
X10179311Y-48062129D01*
X10177781Y-48066598D01*
X10152381Y-48102863D01*
X10106726Y-48134605D01*
X10051998Y-48155375D01*
X10015927Y-48159941D01*
X9943215Y-48146775D01*
X9886393Y-48111090D01*
X9847968Y-48058880D01*
X9830446Y-47996137D01*
X9832322Y-47974693D01*
X9936210Y-47974693D01*
X9940771Y-47997426D01*
X9956680Y-48017192D01*
X9997905Y-48045650D01*
X10039984Y-48043659D01*
X10066765Y-48025017D01*
X10089431Y-47984419D01*
X10084602Y-47958084D01*
X11605666Y-47958084D01*
X11611630Y-48002252D01*
X11628067Y-48025017D01*
X11668435Y-48047675D01*
X11710681Y-48039691D01*
X11738152Y-48017192D01*
X11757334Y-47991088D01*
X11756433Y-47967353D01*
X11744003Y-47942389D01*
X11710677Y-47906050D01*
X11670609Y-47895782D01*
X11631825Y-47913410D01*
X11628905Y-47916193D01*
X11605666Y-47958084D01*
X10084602Y-47958084D01*
X10081679Y-47942143D01*
X10061188Y-47916966D01*
X10020674Y-47895879D01*
X9982344Y-47905548D01*
X9950844Y-47942500D01*
X9936210Y-47974693D01*
X9832322Y-47974693D01*
X9836333Y-47928853D01*
X9868137Y-47863022D01*
X9883695Y-47843797D01*
X9939938Y-47802562D01*
X10005565Y-47786699D01*
X10072593Y-47795304D01*
X10133035Y-47827476D01*
X10175771Y-47876790D01*
X10203529Y-47923780D01*
X10800172Y-47923780D01*
X10800172Y-47671812D01*
X10474094Y-47671812D01*
X10339439Y-47545828D01*
X10281311Y-47491985D01*
X10239786Y-47456183D01*
X10208655Y-47434745D01*
X10181708Y-47423995D01*
X10152737Y-47420257D01*
X10126650Y-47419844D01*
X10049234Y-47408553D01*
X9992593Y-47373955D01*
X9955181Y-47314964D01*
X9948094Y-47294442D01*
X9941244Y-47237617D01*
X10044268Y-47237617D01*
X10057813Y-47273549D01*
X10091034Y-47298624D01*
X10132808Y-47308578D01*
X10172015Y-47299153D01*
X10182850Y-47290710D01*
X10200521Y-47253547D01*
X10194401Y-47211088D01*
X10166748Y-47176643D01*
X10136585Y-47158384D01*
X10119504Y-47152128D01*
X10096679Y-47163934D01*
X10069604Y-47191197D01*
X10049043Y-47221688D01*
X10044268Y-47237617D01*
X9941244Y-47237617D01*
X9939184Y-47220533D01*
X9955580Y-47156566D01*
X9991908Y-47105348D01*
X10042799Y-47069683D01*
X10102879Y-47052377D01*
X10166777Y-47056237D01*
X10229122Y-47084068D01*
X10273453Y-47124501D01*
X10298771Y-47159180D01*
X10309413Y-47192146D01*
X10309036Y-47237567D01*
X10307325Y-47255710D01*
X10298963Y-47336727D01*
X10412143Y-47449152D01*
X10525323Y-47561576D01*
X10800172Y-47561576D01*
X10800172Y-47189685D01*
X10737558Y-47162060D01*
X10664259Y-47114630D01*
X10614666Y-47046794D01*
X10595469Y-46994725D01*
X10588039Y-46920715D01*
X10695743Y-46920715D01*
X10701671Y-46956834D01*
X10713021Y-46983418D01*
X10753355Y-47037736D01*
X10806974Y-47067287D01*
X10866916Y-47070287D01*
X10926215Y-47044951D01*
X10933082Y-47039824D01*
X10979543Y-46989685D01*
X10995324Y-46935240D01*
X10982834Y-46877843D01*
X10944641Y-46818882D01*
X10894225Y-46785153D01*
X10838063Y-46776546D01*
X10782636Y-46792949D01*
X10734422Y-46834253D01*
X10706451Y-46882560D01*
X10695743Y-46920715D01*
X10588039Y-46920715D01*
X10586978Y-46910142D01*
X10605008Y-46832025D01*
X10644966Y-46764421D01*
X10702260Y-46711375D01*
X10772294Y-46676933D01*
X10850477Y-46665143D01*
X10932215Y-46680051D01*
X10932215Y-46680051D01*
G37*
X10932215Y-46680051D02*
X10946347Y-46685622D01*
X11018666Y-46732561D01*
X11071408Y-46799424D01*
X11100947Y-46879122D01*
X11103655Y-46964568D01*
X11099816Y-46985555D01*
X11068544Y-47066231D01*
X11014460Y-47126716D01*
X10959909Y-47159985D01*
X10894660Y-47191464D01*
X10894660Y-47561576D01*
X11169509Y-47561576D01*
X11282689Y-47449152D01*
X11395869Y-47336727D01*
X11387507Y-47255710D01*
X11387410Y-47254008D01*
X11494373Y-47254008D01*
X11511982Y-47290710D01*
X11548662Y-47307814D01*
X11593019Y-47304171D01*
X11625817Y-47284861D01*
X11648318Y-47247955D01*
X11640421Y-47210148D01*
X11619068Y-47183624D01*
X11589108Y-47158208D01*
X11564285Y-47155670D01*
X11530538Y-47174930D01*
X11528084Y-47176643D01*
X11500241Y-47211537D01*
X11494373Y-47254008D01*
X11387410Y-47254008D01*
X11384542Y-47203801D01*
X11391500Y-47168590D01*
X11412038Y-47135911D01*
X11421379Y-47124501D01*
X11478604Y-47076113D01*
X11541563Y-47054002D01*
X11604937Y-47055265D01*
X11663411Y-47076996D01*
X11711667Y-47116289D01*
X11744389Y-47170240D01*
X11756260Y-47235944D01*
X11745157Y-47301414D01*
X11709669Y-47363422D01*
X11652722Y-47403344D01*
X11576802Y-47419557D01*
X11563938Y-47419844D01*
X11531051Y-47420986D01*
X11503722Y-47426875D01*
X11475835Y-47441207D01*
X11441270Y-47467677D01*
X11393910Y-47509983D01*
X11355393Y-47545828D01*
X11220738Y-47671812D01*
X10894660Y-47671812D01*
X10894660Y-47923780D01*
X11492275Y-47923780D01*
X11515608Y-47878659D01*
X11558228Y-47827311D01*
X11617020Y-47796573D01*
X11683506Y-47787446D01*
X11749214Y-47800930D01*
X11805668Y-47838024D01*
X11811137Y-47843797D01*
X11851843Y-47907561D01*
X11865384Y-47972604D01*
X11855548Y-48034391D01*
X11826122Y-48088385D01*
X11780896Y-48130049D01*
X11723658Y-48154847D01*
X11658196Y-48158242D01*
X11588299Y-48135699D01*
X11574080Y-48127654D01*
X11537635Y-48099145D01*
X11515066Y-48069859D01*
X11513188Y-48064721D01*
X11508818Y-48054131D01*
X11499219Y-48046300D01*
X11480165Y-48040814D01*
X11447428Y-48037257D01*
X11396778Y-48035215D01*
X11323990Y-48034275D01*
X11224835Y-48034021D01*
X11199909Y-48034016D01*
X10894660Y-48034016D01*
X10894660Y-48270236D01*
X11218189Y-48270236D01*
X11479690Y-48533102D01*
X11553316Y-48526776D01*
X11632246Y-48532277D01*
X11693593Y-48562930D01*
X11735389Y-48617519D01*
X11746259Y-48646008D01*
X11756919Y-48721329D01*
X11738838Y-48786394D01*
X11699371Y-48838024D01*
X11638368Y-48880694D01*
X11573554Y-48896176D01*
X11510575Y-48887327D01*
X11455073Y-48857001D01*
X11412695Y-48808054D01*
X11389085Y-48743341D01*
X11388051Y-48696062D01*
X11496080Y-48696062D01*
X11501207Y-48735239D01*
X11516274Y-48757947D01*
X11552110Y-48785572D01*
X11586657Y-48783295D01*
X11619068Y-48758424D01*
X11646406Y-48720002D01*
X11643840Y-48685600D01*
X11620367Y-48657237D01*
X11580539Y-48636719D01*
X11542228Y-48640531D01*
X11511914Y-48662402D01*
X11496080Y-48696062D01*
X11388051Y-48696062D01*
X11387707Y-48680357D01*
X11396517Y-48605965D01*
X11169509Y-48380472D01*
X10894660Y-48380472D01*
X10894660Y-48753640D01*
X10959590Y-48782920D01*
X11027745Y-48828992D01*
X11074748Y-48892023D01*
X11100422Y-48965668D01*
X11104593Y-49043578D01*
X11087084Y-49119408D01*
X11047720Y-49186812D01*
X10986325Y-49239441D01*
X10972440Y-49247101D01*
X10889980Y-49272908D01*
X10802152Y-49272912D01*
X10720600Y-49247149D01*
X10719035Y-49246330D01*
X10654463Y-49196303D01*
X10612029Y-49130488D01*
X10591509Y-49055275D01*
X10592062Y-49018266D01*
X10699385Y-49018266D01*
X10705776Y-49065110D01*
X10729820Y-49102985D01*
X10750027Y-49122623D01*
X10808283Y-49159758D01*
X10865642Y-49165474D01*
X10923420Y-49139772D01*
X10944805Y-49122623D01*
X10980047Y-49083675D01*
X10994090Y-49043063D01*
X10995447Y-49018266D01*
X10981274Y-48961047D01*
X10944367Y-48911472D01*
X10893146Y-48878050D01*
X10847416Y-48868660D01*
X10790800Y-48882984D01*
X10741747Y-48920283D01*
X10708676Y-48972049D01*
X10699385Y-49018266D01*
X10592062Y-49018266D01*
X10592679Y-48977057D01*
X10615317Y-48902225D01*
X10659199Y-48837171D01*
X10724100Y-48788286D01*
X10735242Y-48782920D01*
X10800172Y-48753640D01*
X10800172Y-48380472D01*
X10525323Y-48380472D01*
X10298314Y-48605965D01*
X10307125Y-48680357D01*
X10303168Y-48755890D01*
X10275803Y-48818004D01*
X10230675Y-48863845D01*
X10173429Y-48890556D01*
X10109710Y-48895282D01*
X10045162Y-48875168D01*
X9995461Y-48838024D01*
X9951676Y-48777689D01*
X9937704Y-48711493D01*
X9940923Y-48692097D01*
X10048274Y-48692097D01*
X10051279Y-48726768D01*
X10075764Y-48758424D01*
X10114105Y-48785740D01*
X10148479Y-48783165D01*
X10177552Y-48759058D01*
X10197278Y-48718550D01*
X10192090Y-48677439D01*
X10164837Y-48646507D01*
X10145756Y-48638687D01*
X10099303Y-48640960D01*
X10075129Y-48656636D01*
X10048274Y-48692097D01*
X9940923Y-48692097D01*
X9948573Y-48646008D01*
X9981934Y-48582117D01*
X10035639Y-48541672D01*
X10107720Y-48525890D01*
X10141516Y-48526776D01*
X10215142Y-48533102D01*
X10476643Y-48270236D01*
X10800172Y-48270236D01*
X10800172Y-48034016D01*
X10494147Y-48034016D01*
X10388795Y-48034151D01*
X10310674Y-48034847D01*
X10255522Y-48036545D01*
X10219073Y-48039682D01*
X10197064Y-48044700D01*
X10185231Y-48052035D01*
X10179311Y-48062129D01*
X10177781Y-48066598D01*
X10152381Y-48102863D01*
X10106726Y-48134605D01*
X10051998Y-48155375D01*
X10015927Y-48159941D01*
X9943215Y-48146775D01*
X9886393Y-48111090D01*
X9847968Y-48058880D01*
X9830446Y-47996137D01*
X9832322Y-47974693D01*
X9936210Y-47974693D01*
X9940771Y-47997426D01*
X9956680Y-48017192D01*
X9997905Y-48045650D01*
X10039984Y-48043659D01*
X10066765Y-48025017D01*
X10089431Y-47984419D01*
X10084602Y-47958084D01*
X11605666Y-47958084D01*
X11611630Y-48002252D01*
X11628067Y-48025017D01*
X11668435Y-48047675D01*
X11710681Y-48039691D01*
X11738152Y-48017192D01*
X11757334Y-47991088D01*
X11756433Y-47967353D01*
X11744003Y-47942389D01*
X11710677Y-47906050D01*
X11670609Y-47895782D01*
X11631825Y-47913410D01*
X11628905Y-47916193D01*
X11605666Y-47958084D01*
X10084602Y-47958084D01*
X10081679Y-47942143D01*
X10061188Y-47916966D01*
X10020674Y-47895879D01*
X9982344Y-47905548D01*
X9950844Y-47942500D01*
X9936210Y-47974693D01*
X9832322Y-47974693D01*
X9836333Y-47928853D01*
X9868137Y-47863022D01*
X9883695Y-47843797D01*
X9939938Y-47802562D01*
X10005565Y-47786699D01*
X10072593Y-47795304D01*
X10133035Y-47827476D01*
X10175771Y-47876790D01*
X10203529Y-47923780D01*
X10800172Y-47923780D01*
X10800172Y-47671812D01*
X10474094Y-47671812D01*
X10339439Y-47545828D01*
X10281311Y-47491985D01*
X10239786Y-47456183D01*
X10208655Y-47434745D01*
X10181708Y-47423995D01*
X10152737Y-47420257D01*
X10126650Y-47419844D01*
X10049234Y-47408553D01*
X9992593Y-47373955D01*
X9955181Y-47314964D01*
X9948094Y-47294442D01*
X9941244Y-47237617D01*
X10044268Y-47237617D01*
X10057813Y-47273549D01*
X10091034Y-47298624D01*
X10132808Y-47308578D01*
X10172015Y-47299153D01*
X10182850Y-47290710D01*
X10200521Y-47253547D01*
X10194401Y-47211088D01*
X10166748Y-47176643D01*
X10136585Y-47158384D01*
X10119504Y-47152128D01*
X10096679Y-47163934D01*
X10069604Y-47191197D01*
X10049043Y-47221688D01*
X10044268Y-47237617D01*
X9941244Y-47237617D01*
X9939184Y-47220533D01*
X9955580Y-47156566D01*
X9991908Y-47105348D01*
X10042799Y-47069683D01*
X10102879Y-47052377D01*
X10166777Y-47056237D01*
X10229122Y-47084068D01*
X10273453Y-47124501D01*
X10298771Y-47159180D01*
X10309413Y-47192146D01*
X10309036Y-47237567D01*
X10307325Y-47255710D01*
X10298963Y-47336727D01*
X10412143Y-47449152D01*
X10525323Y-47561576D01*
X10800172Y-47561576D01*
X10800172Y-47189685D01*
X10737558Y-47162060D01*
X10664259Y-47114630D01*
X10614666Y-47046794D01*
X10595469Y-46994725D01*
X10588039Y-46920715D01*
X10695743Y-46920715D01*
X10701671Y-46956834D01*
X10713021Y-46983418D01*
X10753355Y-47037736D01*
X10806974Y-47067287D01*
X10866916Y-47070287D01*
X10926215Y-47044951D01*
X10933082Y-47039824D01*
X10979543Y-46989685D01*
X10995324Y-46935240D01*
X10982834Y-46877843D01*
X10944641Y-46818882D01*
X10894225Y-46785153D01*
X10838063Y-46776546D01*
X10782636Y-46792949D01*
X10734422Y-46834253D01*
X10706451Y-46882560D01*
X10695743Y-46920715D01*
X10588039Y-46920715D01*
X10586978Y-46910142D01*
X10605008Y-46832025D01*
X10644966Y-46764421D01*
X10702260Y-46711375D01*
X10772294Y-46676933D01*
X10850477Y-46665143D01*
X10932215Y-46680051D01*
D12*
X22650000Y-12100000D03*
X24050000Y-12100000D03*
X25450000Y-12100000D03*
X26850000Y-12100000D03*
X22650000Y-10700000D03*
X24050000Y-10700000D03*
X25450000Y-10700000D03*
X26850000Y-10700000D03*
X22650000Y-9300000D03*
X24050000Y-9300000D03*
X25450000Y-9300000D03*
X26850000Y-9300000D03*
X22650000Y-7900000D03*
X24050000Y-7900000D03*
X25450000Y-7900000D03*
X26850000Y-7900000D03*
D13*
G36*
X26874507Y-7651204D02*
G01*
X26898775Y-7654804D01*
X26922573Y-7660765D01*
X26945673Y-7669030D01*
X26967851Y-7679519D01*
X26988894Y-7692132D01*
X27008599Y-7706747D01*
X27026778Y-7723222D01*
X27043253Y-7741401D01*
X27057868Y-7761106D01*
X27070481Y-7782149D01*
X27080970Y-7804327D01*
X27089235Y-7827427D01*
X27095196Y-7851225D01*
X27098796Y-7875493D01*
X27100000Y-7899997D01*
X27100000Y-12100003D01*
X27098796Y-12124507D01*
X27095196Y-12148775D01*
X27089235Y-12172573D01*
X27080970Y-12195673D01*
X27070481Y-12217851D01*
X27057868Y-12238894D01*
X27043253Y-12258599D01*
X27026778Y-12276778D01*
X27008599Y-12293253D01*
X26988894Y-12307868D01*
X26967851Y-12320481D01*
X26945673Y-12330970D01*
X26922573Y-12339235D01*
X26898775Y-12345196D01*
X26874507Y-12348796D01*
X26850003Y-12350000D01*
X22649997Y-12350000D01*
X22625493Y-12348796D01*
X22601225Y-12345196D01*
X22577427Y-12339235D01*
X22554327Y-12330970D01*
X22532149Y-12320481D01*
X22511106Y-12307868D01*
X22491401Y-12293253D01*
X22473222Y-12276778D01*
X22456747Y-12258599D01*
X22442132Y-12238894D01*
X22429519Y-12217851D01*
X22419030Y-12195673D01*
X22410765Y-12172573D01*
X22404804Y-12148775D01*
X22401204Y-12124507D01*
X22400000Y-12100003D01*
X22400000Y-7899997D01*
X22401204Y-7875493D01*
X22404804Y-7851225D01*
X22410765Y-7827427D01*
X22419030Y-7804327D01*
X22429519Y-7782149D01*
X22442132Y-7761106D01*
X22456747Y-7741401D01*
X22473222Y-7723222D01*
X22491401Y-7706747D01*
X22511106Y-7692132D01*
X22532149Y-7679519D01*
X22554327Y-7669030D01*
X22577427Y-7660765D01*
X22601225Y-7654804D01*
X22625493Y-7651204D01*
X22649997Y-7650000D01*
X26850003Y-7650000D01*
X26874507Y-7651204D01*
X26874507Y-7651204D01*
G37*
D14*
X24750000Y-10000000D03*
D15*
X10150000Y-8900000D03*
X8650000Y-8900000D03*
D16*
X30240000Y-56120000D03*
X31510000Y-56120000D03*
X30240000Y-57390000D03*
X31510000Y-57390000D03*
X30240000Y-58660000D03*
X31510000Y-58660000D03*
X30240000Y-59930000D03*
X31510000Y-59930000D03*
X30240000Y-61200000D03*
X31510000Y-61200000D03*
X9190000Y-19490000D03*
X10460000Y-19490000D03*
X9190000Y-20760000D03*
X10460000Y-20760000D03*
X9190000Y-22030000D03*
X10460000Y-22030000D03*
X9190000Y-23300000D03*
X10460000Y-23300000D03*
X9190000Y-24570000D03*
X10460000Y-24570000D03*
D17*
X44500000Y-18000000D03*
X45500000Y-18000000D03*
X46500000Y-18000000D03*
X47500000Y-18000000D03*
X48500000Y-18000000D03*
X49500000Y-18000000D03*
X50500000Y-18000000D03*
X51500000Y-18000000D03*
X43500000Y-18000000D03*
X42500000Y-18000000D03*
X41500000Y-18000000D03*
X40500000Y-18000000D03*
X39500000Y-18000000D03*
X38500000Y-18000000D03*
X37500000Y-18000000D03*
D18*
X35200000Y-15250000D03*
X53800000Y-15250000D03*
D19*
X3500000Y-4000000D03*
X3500000Y-62000000D03*
X52500000Y-62000000D03*
X52500000Y-4000000D03*
D15*
X8650000Y-10400000D03*
X10150000Y-10400000D03*
X8650000Y-13400000D03*
X10150000Y-13400000D03*
X10150000Y-5900000D03*
X8650000Y-5900000D03*
X8650000Y-7400000D03*
X10150000Y-7400000D03*
X10150000Y-4400000D03*
X8650000Y-4400000D03*
X8650000Y-11900000D03*
X10150000Y-11900000D03*
X8650000Y-2900000D03*
X10150000Y-2900000D03*
D17*
X44500000Y-48000000D03*
X43500000Y-48000000D03*
X42500000Y-48000000D03*
X41500000Y-48000000D03*
X40500000Y-48000000D03*
X39500000Y-48000000D03*
X38500000Y-48000000D03*
X37500000Y-48000000D03*
X45500000Y-48000000D03*
X46500000Y-48000000D03*
X47500000Y-48000000D03*
X48500000Y-48000000D03*
X49500000Y-48000000D03*
X50500000Y-48000000D03*
X51500000Y-48000000D03*
D18*
X53800000Y-50750000D03*
X35200000Y-50750000D03*
D20*
X48075000Y-26150000D03*
X48925000Y-26500000D03*
X48075000Y-26850000D03*
D21*
X17253780Y-37752000D03*
X17253780Y-37252000D03*
X17253780Y-36752000D03*
X17253780Y-36252000D03*
X17253780Y-35752000D03*
X17253780Y-35252000D03*
X17253780Y-34752000D03*
X17253780Y-34252000D03*
X17253780Y-33752000D03*
X17253780Y-33252000D03*
X17253780Y-32752000D03*
X17253780Y-32252000D03*
X17253780Y-31752000D03*
X17253780Y-31252000D03*
X17253780Y-30752000D03*
X17253780Y-30252000D03*
X17253780Y-29752000D03*
X17253780Y-29252000D03*
X17253780Y-28752000D03*
X17253780Y-28252000D03*
X21272880Y-37752000D03*
X21272880Y-37252000D03*
X21272880Y-36752000D03*
X21272880Y-36252000D03*
X21272880Y-35752000D03*
X21272880Y-35252000D03*
X21272880Y-34752000D03*
X21272880Y-34252000D03*
X21272880Y-33752000D03*
X21272880Y-33252000D03*
X21272880Y-32752000D03*
X21272880Y-32252000D03*
X21272880Y-31752000D03*
X21272880Y-31252000D03*
X21272880Y-30752000D03*
X21272880Y-30252000D03*
X21272880Y-29752000D03*
X21272880Y-29252000D03*
X21272880Y-28752000D03*
X21272880Y-28252000D03*
D22*
X17441740Y-38958500D03*
X21082380Y-38953420D03*
X17441740Y-27050980D03*
X21082380Y-27050980D03*
D21*
X34753780Y-37752000D03*
X34753780Y-37252000D03*
X34753780Y-36752000D03*
X34753780Y-36252000D03*
X34753780Y-35752000D03*
X34753780Y-35252000D03*
X34753780Y-34752000D03*
X34753780Y-34252000D03*
X34753780Y-33752000D03*
X34753780Y-33252000D03*
X34753780Y-32752000D03*
X34753780Y-32252000D03*
X34753780Y-31752000D03*
X34753780Y-31252000D03*
X34753780Y-30752000D03*
X34753780Y-30252000D03*
X34753780Y-29752000D03*
X34753780Y-29252000D03*
X34753780Y-28752000D03*
X34753780Y-28252000D03*
X38772880Y-37752000D03*
X38772880Y-37252000D03*
X38772880Y-36752000D03*
X38772880Y-36252000D03*
X38772880Y-35752000D03*
X38772880Y-35252000D03*
X38772880Y-34752000D03*
X38772880Y-34252000D03*
X38772880Y-33752000D03*
X38772880Y-33252000D03*
X38772880Y-32752000D03*
X38772880Y-32252000D03*
X38772880Y-31752000D03*
X38772880Y-31252000D03*
X38772880Y-30752000D03*
X38772880Y-30252000D03*
X38772880Y-29752000D03*
X38772880Y-29252000D03*
X38772880Y-28752000D03*
X38772880Y-28252000D03*
D22*
X34941740Y-38958500D03*
X38582380Y-38953420D03*
X34941740Y-27050980D03*
X38582380Y-27050980D03*
D23*
X4770000Y-57130000D03*
X2230000Y-57130000D03*
X4770000Y-54590000D03*
X2230000Y-54590000D03*
X4770000Y-52050000D03*
X2230000Y-52050000D03*
X4770000Y-49510000D03*
X2230000Y-49510000D03*
X4770000Y-46970000D03*
X2230000Y-46970000D03*
X4770000Y-44430000D03*
X2230000Y-44430000D03*
X4770000Y-41890000D03*
X2230000Y-41890000D03*
X4770000Y-39350000D03*
X2230000Y-39350000D03*
X4770000Y-36810000D03*
X2230000Y-36810000D03*
X4770000Y-34270000D03*
X2230000Y-34270000D03*
X4770000Y-31730000D03*
X2230000Y-31730000D03*
X4770000Y-29190000D03*
X2230000Y-29190000D03*
X4770000Y-26650000D03*
X2230000Y-26650000D03*
X4770000Y-24110000D03*
X2230000Y-24110000D03*
X4770000Y-21570000D03*
X2230000Y-21570000D03*
X4770000Y-19030000D03*
X2230000Y-19030000D03*
X4770000Y-16490000D03*
X2230000Y-16490000D03*
X4770000Y-13950000D03*
X2230000Y-13950000D03*
X4770000Y-11410000D03*
X2230000Y-11410000D03*
X4770000Y-8870000D03*
X2230000Y-8870000D03*
D20*
X48075000Y-39650000D03*
X48925000Y-40000000D03*
X48075000Y-40350000D03*
D24*
X51340000Y-38700000D03*
X51340000Y-39350000D03*
X51340000Y-40000000D03*
X51340000Y-40650000D03*
X51340000Y-41300000D03*
D25*
X51700000Y-42462500D03*
D26*
X54000000Y-40837500D03*
D27*
X54000000Y-37087500D03*
X54000000Y-42912500D03*
D26*
X54000000Y-39162500D03*
D25*
X51700000Y-37537500D03*
X51700000Y-23537500D03*
D26*
X54000000Y-25162500D03*
D27*
X54000000Y-28912500D03*
X54000000Y-23087500D03*
D26*
X54000000Y-26837500D03*
D25*
X51700000Y-28462500D03*
D24*
X51340000Y-27300000D03*
X51340000Y-26650000D03*
X51340000Y-26000000D03*
X51340000Y-25350000D03*
X51340000Y-24700000D03*
D28*
X43641351Y-45388649D03*
X23278649Y-28798649D03*
X25000000Y-4350000D03*
X19250000Y-6600000D03*
X19250000Y-7600000D03*
X17000000Y-12350000D03*
X18000000Y-12350000D03*
X19250000Y-13850000D03*
X19335883Y-11764117D03*
X32500000Y-9600000D03*
X30620000Y-7240000D03*
X31500000Y-17600000D03*
X29750000Y-18350000D03*
X28500000Y-17600000D03*
X22000000Y-17600000D03*
X27500000Y-15350000D03*
X9250000Y-58800000D03*
X24500000Y-47750000D03*
X46500000Y-46750000D03*
X43500000Y-46750000D03*
X40500000Y-46750000D03*
X37500000Y-46750000D03*
X17000000Y-7850000D03*
X18000000Y-7850000D03*
X51250000Y-35750000D03*
X51000000Y-44250000D03*
X49750000Y-38100000D03*
X49500000Y-39000000D03*
X51000000Y-21250000D03*
X50750000Y-30500000D03*
X48750000Y-23750000D03*
X48750000Y-24750000D03*
X43500000Y-16500000D03*
X16100000Y-31300000D03*
X23200000Y-27500000D03*
X19600000Y-28200000D03*
X23500000Y-31200000D03*
X23300000Y-33700000D03*
X22400000Y-34300000D03*
X22400000Y-35700000D03*
X32300000Y-28200000D03*
X32700000Y-29000000D03*
X30900000Y-31800000D03*
X33600000Y-32800000D03*
X32800000Y-35000000D03*
X33600000Y-35800000D03*
X39900000Y-37800000D03*
X40100000Y-34700000D03*
X40100000Y-31500000D03*
X47000000Y-20800000D03*
X47490000Y-40037510D03*
X10400000Y-1800000D03*
X47558420Y-26534458D03*
X16239117Y-13110883D03*
X15900000Y-33125010D03*
X7500000Y-55800000D03*
X6680494Y-56338254D03*
X46100000Y-25550000D03*
X46500000Y-19500000D03*
X24000000Y-27400000D03*
X32500000Y-13600000D03*
X46760000Y-31860000D03*
X41420000Y-24830000D03*
X37490000Y-20120000D03*
X30730000Y-13650000D03*
X34720000Y-5120000D03*
X35780000Y-62790000D03*
X25310000Y-44175000D03*
X26560000Y-16700000D03*
X15320000Y-15430000D03*
X14970000Y-3870000D03*
X11710000Y-58380000D03*
X11740000Y-61230000D03*
X30474987Y-45750000D03*
X7815000Y-13510000D03*
X13365000Y-11300000D03*
X16680000Y-63170000D03*
X24890000Y-63160000D03*
X46170876Y-26729124D03*
X22290000Y-1460000D03*
X40930000Y-19710000D03*
X8470000Y-40700000D03*
X42035801Y-16254351D03*
X37190000Y-44672500D03*
X23248649Y-32161351D03*
X37190000Y-45347500D03*
X22771351Y-32638649D03*
X39708649Y-46388649D03*
X22961351Y-29831351D03*
X39231351Y-45911351D03*
X23438649Y-30308649D03*
X44118649Y-44911351D03*
X22801351Y-28321351D03*
X26900000Y-31900000D03*
X51400000Y-15400000D03*
X51400000Y-49400000D03*
X33600000Y-24900000D03*
X19075000Y-18300000D03*
X32089124Y-20910876D03*
X26500000Y-15900000D03*
X10530000Y-56590000D03*
X47460000Y-22810000D03*
X23720000Y-46420000D03*
X46900000Y-27970000D03*
X14010000Y-16600000D03*
X9258471Y-16416283D03*
X22870000Y-42100010D03*
X31195876Y-15475876D03*
X40140000Y-3210000D03*
X32950000Y-61660000D03*
X30470000Y-50000000D03*
X12930000Y-39570000D03*
X37088649Y-29511351D03*
X45337500Y-15750000D03*
X31701351Y-29958649D03*
X38582500Y-19970000D03*
X32178649Y-29481351D03*
X39257500Y-19970000D03*
X32528649Y-32658649D03*
X41682500Y-19830000D03*
X32051351Y-32181351D03*
X42357500Y-19830000D03*
X36611351Y-29988649D03*
X44662500Y-15750000D03*
X49150011Y-41559999D03*
X18854986Y-10344838D03*
X47197079Y-27104610D03*
X19339654Y-9875010D03*
X47200000Y-25900000D03*
X49000000Y-30600000D03*
X49000000Y-28250000D03*
X34590000Y-11020000D03*
X23538649Y-36338649D03*
X46800000Y-40237500D03*
X23061351Y-35861351D03*
X46800000Y-39562500D03*
X45800000Y-19500000D03*
X16750000Y-21590000D03*
X16750000Y-19350000D03*
X43990000Y-19590000D03*
X18120000Y-790000D03*
X14620000Y-17625000D03*
X43200000Y-19800000D03*
X44860000Y-21030000D03*
X18240000Y-21550000D03*
X18240000Y-19400000D03*
X19130000Y-770000D03*
X17290000Y-24115000D03*
X44400000Y-10900000D03*
X13400871Y-34149386D03*
X19000000Y-35900000D03*
X43180000Y-13160000D03*
X38045261Y-19446491D03*
X18230000Y-35360000D03*
X29494393Y-23319252D03*
X10300000Y-32397018D03*
X42628868Y-15467220D03*
X43360000Y-15530000D03*
X18700000Y-34775000D03*
X29919475Y-22794912D03*
X10580000Y-31380000D03*
X9905000Y-31130000D03*
X18140000Y-34350000D03*
X30170000Y-22120000D03*
X44080000Y-15355010D03*
X39816541Y-21916541D03*
X19680000Y-19370000D03*
X19290000Y-26340000D03*
X33422746Y-25744857D03*
X20110000Y-790000D03*
X40010000Y-20325000D03*
X15190000Y-21650000D03*
X15180000Y-19330000D03*
X17130000Y-840000D03*
X41600000Y-27200000D03*
X26210000Y-19350000D03*
X26220000Y-21340000D03*
X26040000Y-27610000D03*
X28150000Y-820000D03*
X41390000Y-26249999D03*
X24770000Y-19430000D03*
X23730000Y-22680000D03*
X23407227Y-26857594D03*
X26120000Y-830000D03*
X27300000Y-23200000D03*
X30100000Y-48350000D03*
X21690000Y-19420000D03*
X21750000Y-21580000D03*
X24088000Y-890000D03*
X12950000Y-35460000D03*
X19100000Y-44300000D03*
X16850000Y-18425000D03*
X18250000Y-14150000D03*
X32750000Y-25800000D03*
X31900000Y-20050000D03*
X20025000Y-5225000D03*
X31500000Y-22180000D03*
X20680000Y-19610000D03*
X12990000Y-36750000D03*
X12950000Y-38160000D03*
X29480000Y-48860000D03*
X29280000Y-19340000D03*
X29240000Y-21350000D03*
X29090000Y-780000D03*
X27800000Y-19350000D03*
X27790000Y-21380000D03*
X18590000Y-26340000D03*
X27840000Y-26275000D03*
X45410000Y-25720000D03*
X27130000Y-800000D03*
X40540000Y-26820000D03*
X23280000Y-19440000D03*
X23270000Y-21540000D03*
X25190000Y-27400000D03*
X25104000Y-890000D03*
X21200000Y-15300000D03*
X15900000Y-7900000D03*
X12000000Y-7100000D03*
X15250000Y-5600000D03*
X21903749Y-15601874D03*
X22674990Y-15700000D03*
X9735000Y-14430000D03*
X47750000Y-45750000D03*
X50250000Y-45750000D03*
X50500000Y-32750000D03*
X47500000Y-32750000D03*
X23000000Y-37600000D03*
X22900000Y-38800000D03*
X16804124Y-55475876D03*
X16910000Y-56390000D03*
X7970000Y-20360000D03*
X6825000Y-57925000D03*
X12020000Y-55320000D03*
X11990000Y-57450000D03*
X10470000Y-58380000D03*
X10480000Y-61300000D03*
X31530000Y-48450000D03*
X23480000Y-45050000D03*
X44650000Y-25880000D03*
X46450021Y-34240000D03*
X43920000Y-26060000D03*
X46175010Y-35160000D03*
X43100000Y-26060000D03*
X46100000Y-36310000D03*
X42330000Y-25880000D03*
X46100000Y-37270000D03*
X45300000Y-24900000D03*
X40710000Y-22920000D03*
X13175020Y-44830000D03*
X32310000Y-50930000D03*
X44810000Y-30800000D03*
X40636316Y-29243684D03*
X16460000Y-44790000D03*
X31420000Y-50850000D03*
X46220000Y-42030000D03*
X42760000Y-32810000D03*
X46080000Y-40970000D03*
X43524748Y-33354339D03*
X46860000Y-38860000D03*
X44150000Y-33100000D03*
X46040000Y-38740000D03*
X44800000Y-32770000D03*
X16000000Y-29250000D03*
X15500000Y-29750000D03*
X28070000Y-60610000D03*
X15500000Y-28750000D03*
X16000000Y-28250000D03*
X33140000Y-790000D03*
X34150000Y-740000D03*
X19350000Y-33400000D03*
X7910000Y-26110000D03*
X8460000Y-28634659D03*
X19400000Y-32650000D03*
X8929124Y-26190876D03*
X9381843Y-28464583D03*
X18800000Y-32050000D03*
X6910000Y-26140000D03*
X12358916Y-27398667D03*
X14410000Y-29830000D03*
X19474980Y-36425000D03*
X20710000Y-64850000D03*
X15500000Y-30750000D03*
X18330000Y-31480000D03*
X16090000Y-30277000D03*
X6370000Y-960000D03*
X29690000Y-29020000D03*
X13160000Y-2880000D03*
X31539444Y-40875000D03*
X8930000Y-29970000D03*
X33100000Y-41750000D03*
X8020330Y-29859670D03*
X32250000Y-41750000D03*
X6980000Y-29920000D03*
X37700000Y-28300000D03*
X43354767Y-34405233D03*
X43250000Y-35230000D03*
X43320000Y-36260000D03*
X43400000Y-37180000D03*
X37700000Y-31300000D03*
X34830000Y-45860000D03*
X33600000Y-45672500D03*
X13975000Y-22970000D03*
X43290000Y-38670000D03*
X42877779Y-39237500D03*
X43410000Y-40710000D03*
X43360000Y-41800000D03*
X37400000Y-34200000D03*
X36759637Y-34900000D03*
X37400000Y-35200000D03*
X8470000Y-23720000D03*
X11863251Y-26200000D03*
X36839844Y-35850001D03*
X37362623Y-36277000D03*
X36922702Y-36822702D03*
X32800000Y-36900000D03*
X37400000Y-37300000D03*
X32800000Y-37800000D03*
X13050000Y-27580000D03*
X15240000Y-24130000D03*
X28000000Y-4600000D03*
X32500000Y-4100000D03*
X33400000Y-9100000D03*
X25000000Y-17600000D03*
X30840000Y-18020000D03*
X20870000Y-2880000D03*
X18750000Y-12850000D03*
X21870000Y-11250000D03*
X22375426Y-2232515D03*
X20160000Y-3030000D03*
X17100000Y-5600000D03*
X32700000Y-8100000D03*
X7630000Y-7210000D03*
X13029710Y-2217692D03*
X23110000Y-840000D03*
X29200000Y-15200000D03*
X27600000Y-17500000D03*
X30400000Y-7900000D03*
X19400000Y-14600000D03*
X21560000Y-8140000D03*
X27870000Y-11460000D03*
X41120000Y-6110000D03*
X26400000Y-47800000D03*
X30740000Y-49140000D03*
X30770000Y-19380000D03*
X30770000Y-21400000D03*
X9399999Y-44600000D03*
X30150000Y-760000D03*
X9590000Y-950000D03*
X10110000Y-34670000D03*
X12270000Y-1999999D03*
X8660000Y-1790000D03*
X13170000Y-4450000D03*
X12450001Y-11910000D03*
X12430047Y-30429952D03*
X9600000Y-32640000D03*
X13170000Y-7620000D03*
X8115200Y-18005200D03*
X9798248Y-26800000D03*
X7815000Y-10185000D03*
X13120000Y-5290000D03*
X9906633Y-27618702D03*
X7980000Y-16300000D03*
X7620000Y-28620000D03*
X7815000Y-9010000D03*
X13950000Y-8025000D03*
X14440000Y-11110000D03*
X12917558Y-30896814D03*
X9684989Y-31924989D03*
X50550000Y-14100000D03*
X40370000Y-12870000D03*
X42180000Y-9385000D03*
X49550000Y-14050000D03*
X40290000Y-11537500D03*
X48378459Y-19341541D03*
X48410000Y-21470000D03*
X50500000Y-49325010D03*
X40330000Y-9460000D03*
X42370000Y-11040000D03*
X40780000Y-13455000D03*
X49500000Y-49325010D03*
X43090000Y-11537500D03*
X48500000Y-49325010D03*
X33220000Y-56400000D03*
X47500000Y-49325010D03*
X33035000Y-52465000D03*
X33040000Y-23949999D03*
X40243524Y-19147625D03*
X35960000Y-16560000D03*
X40875000Y-16619124D03*
X34440000Y-24230000D03*
X40190000Y-16610000D03*
X35820000Y-17240000D03*
X35170000Y-24330000D03*
X37325001Y-11425001D03*
X37350000Y-13010000D03*
X37600000Y-10500000D03*
X35640000Y-12950000D03*
X35690000Y-23680000D03*
X47200000Y-10900000D03*
X35972124Y-18616124D03*
X47200000Y-12075000D03*
X35500000Y-18000000D03*
X47200000Y-13300000D03*
X34859637Y-17786546D03*
X47200000Y-14500000D03*
X34100000Y-17800000D03*
X33520000Y-6010000D03*
X22674990Y-18225000D03*
X31110000Y-760000D03*
X33120000Y-3540000D03*
X20975000Y-18325000D03*
X32475000Y-6020000D03*
X34060000Y-4000000D03*
X32100000Y-750000D03*
X42570000Y-16680000D03*
X37316356Y-15767947D03*
X37830000Y-15330000D03*
X41350000Y-16090000D03*
X36365000Y-5040000D03*
X36220000Y-3195000D03*
D29*
X44500000Y-47024999D02*
X44837500Y-46687499D01*
X44500000Y-48000000D02*
X44500000Y-47024999D01*
X44837500Y-46687499D02*
X44837500Y-46337310D01*
X43888839Y-45388649D02*
X43641351Y-45388649D01*
X44837500Y-46337310D02*
X43888839Y-45388649D01*
X23031161Y-28798649D02*
X23278649Y-28798649D01*
X22097881Y-29252000D02*
X22185381Y-29164500D01*
X21272880Y-29252000D02*
X22097881Y-29252000D01*
X22185381Y-29164500D02*
X22665310Y-29164500D01*
X22665310Y-29164500D02*
X23031161Y-28798649D01*
D30*
X46500000Y-48000000D02*
X46500000Y-46750000D01*
X43500000Y-48000000D02*
X43500000Y-46750000D01*
X40500000Y-48000000D02*
X40500000Y-46750000D01*
X37500000Y-48000000D02*
X37500000Y-46750000D01*
D31*
X51700000Y-36200000D02*
X51250000Y-35750000D01*
X51700000Y-37537500D02*
X51700000Y-36200000D01*
X51700000Y-43550000D02*
X51000000Y-44250000D01*
X51700000Y-42462500D02*
X51700000Y-43550000D01*
X53550000Y-42462500D02*
X54000000Y-42912500D01*
X51700000Y-42462500D02*
X53550000Y-42462500D01*
X54000000Y-42912500D02*
X54000000Y-37087500D01*
X53550000Y-37537500D02*
X54000000Y-37087500D01*
X51700000Y-37537500D02*
X53550000Y-37537500D01*
X50350000Y-38700000D02*
X49750000Y-38100000D01*
X51340000Y-38700000D02*
X50350000Y-38700000D01*
X51340000Y-39350000D02*
X49850000Y-39350000D01*
X49850000Y-39350000D02*
X49500000Y-39000000D01*
X53550000Y-28462500D02*
X54000000Y-28912500D01*
X51700000Y-28462500D02*
X53550000Y-28462500D01*
X54000000Y-28912500D02*
X54000000Y-23087500D01*
X53550000Y-23537500D02*
X54000000Y-23087500D01*
X51700000Y-23537500D02*
X53550000Y-23537500D01*
X51700000Y-21950000D02*
X51000000Y-21250000D01*
X51700000Y-23537500D02*
X51700000Y-21950000D01*
X51700000Y-29550000D02*
X50750000Y-30500000D01*
X51700000Y-28462500D02*
X51700000Y-29550000D01*
X51340000Y-24700000D02*
X49700000Y-24700000D01*
X49700000Y-24700000D02*
X48750000Y-23750000D01*
X49350000Y-25350000D02*
X48750000Y-24750000D01*
X51340000Y-25350000D02*
X49350000Y-25350000D01*
D30*
X43500000Y-18000000D02*
X43500000Y-16500000D01*
X16148000Y-31252000D02*
X16100000Y-31300000D01*
X17253780Y-31252000D02*
X16148000Y-31252000D01*
X21972880Y-28252000D02*
X22724880Y-27500000D01*
X21272880Y-28252000D02*
X21972880Y-28252000D01*
X22724880Y-27500000D02*
X23200000Y-27500000D01*
X20572880Y-29752000D02*
X19600000Y-28779120D01*
X21272880Y-29752000D02*
X20572880Y-29752000D01*
X19600000Y-28779120D02*
X19600000Y-28200000D01*
X23448000Y-31252000D02*
X23500000Y-31200000D01*
X21272880Y-31252000D02*
X23448000Y-31252000D01*
X21972880Y-32752000D02*
X22920880Y-33700000D01*
X21272880Y-32752000D02*
X21972880Y-32752000D01*
X22920880Y-33700000D02*
X23300000Y-33700000D01*
X22352000Y-34252000D02*
X22400000Y-34300000D01*
X21272880Y-34252000D02*
X22352000Y-34252000D01*
X22348000Y-35752000D02*
X22400000Y-35700000D01*
X21272880Y-35752000D02*
X22348000Y-35752000D01*
X32352000Y-28252000D02*
X32300000Y-28200000D01*
X34753780Y-28252000D02*
X32352000Y-28252000D01*
X34753780Y-29752000D02*
X33352000Y-29752000D01*
X32700000Y-29100000D02*
X32700000Y-29000000D01*
X33352000Y-29752000D02*
X32700000Y-29100000D01*
X34753780Y-31252000D02*
X31448000Y-31252000D01*
X31448000Y-31252000D02*
X30900000Y-31800000D01*
X33648000Y-32752000D02*
X33600000Y-32800000D01*
X34753780Y-32752000D02*
X33648000Y-32752000D01*
X34053780Y-34252000D02*
X33305780Y-35000000D01*
X34753780Y-34252000D02*
X34053780Y-34252000D01*
X33305780Y-35000000D02*
X32800000Y-35000000D01*
X33648000Y-35752000D02*
X33600000Y-35800000D01*
X34753780Y-35752000D02*
X33648000Y-35752000D01*
X39852000Y-37752000D02*
X39900000Y-37800000D01*
X38772880Y-37752000D02*
X39852000Y-37752000D01*
X39472880Y-33752000D02*
X40100000Y-34379120D01*
X38772880Y-33752000D02*
X39472880Y-33752000D01*
X40100000Y-34379120D02*
X40100000Y-34700000D01*
X39472880Y-30752000D02*
X40100000Y-31379120D01*
X38772880Y-30752000D02*
X39472880Y-30752000D01*
X40100000Y-31379120D02*
X40100000Y-31500000D01*
X47527510Y-40000000D02*
X47490000Y-40037510D01*
X48925000Y-40000000D02*
X47527510Y-40000000D01*
X47592878Y-26500000D02*
X47558420Y-26534458D01*
X48925000Y-26500000D02*
X47592878Y-26500000D01*
X16174999Y-33400009D02*
X15900000Y-33125010D01*
X16526990Y-33752000D02*
X16174999Y-33400009D01*
X17253780Y-33752000D02*
X16526990Y-33752000D01*
X46500000Y-18000000D02*
X46500000Y-19500000D01*
X37500000Y-17200000D02*
X39330000Y-15370000D01*
X37500000Y-18000000D02*
X37500000Y-17200000D01*
X31510000Y-59930000D02*
X31510000Y-56120000D01*
X40950000Y-19690000D02*
X40930000Y-19710000D01*
X40500000Y-18000000D02*
X40500000Y-18350000D01*
X40950000Y-18800000D02*
X40950000Y-19690000D01*
X40500000Y-18350000D02*
X40950000Y-18800000D01*
X37500000Y-20110000D02*
X37490000Y-20120000D01*
X37500000Y-18000000D02*
X37500000Y-20110000D01*
X41561078Y-15370000D02*
X41830000Y-15638922D01*
X39330000Y-15370000D02*
X41561078Y-15370000D01*
X41830000Y-15638922D02*
X41830000Y-15890000D01*
X41830000Y-15890000D02*
X41830000Y-16048550D01*
X41830000Y-16048550D02*
X42035801Y-16254351D01*
D29*
X42162500Y-46687499D02*
X42162500Y-45942690D01*
X42500000Y-47024999D02*
X42162500Y-46687499D01*
X42500000Y-48000000D02*
X42500000Y-47024999D01*
X42162500Y-45942690D02*
X41067310Y-44847500D01*
X41067310Y-44847500D02*
X37365000Y-44847500D01*
X37365000Y-44847500D02*
X37190000Y-44672500D01*
X22679310Y-31839500D02*
X23001161Y-32161351D01*
X21272880Y-31752000D02*
X22097881Y-31752000D01*
X23001161Y-32161351D02*
X23248649Y-32161351D01*
X22097881Y-31752000D02*
X22185381Y-31839500D01*
X22185381Y-31839500D02*
X22679310Y-31839500D01*
X22097881Y-32252000D02*
X22185381Y-32164500D01*
X21272880Y-32252000D02*
X22097881Y-32252000D01*
X22185381Y-32164500D02*
X22544690Y-32164500D01*
X22544690Y-32164500D02*
X22771351Y-32391161D01*
X22771351Y-32391161D02*
X22771351Y-32638649D01*
X41837500Y-46077310D02*
X40932690Y-45172500D01*
X41837500Y-46687499D02*
X41837500Y-46077310D01*
X41500000Y-47024999D02*
X41837500Y-46687499D01*
X41500000Y-48000000D02*
X41500000Y-47024999D01*
X40932690Y-45172500D02*
X37365000Y-45172500D01*
X37365000Y-45172500D02*
X37190000Y-45347500D01*
X22961351Y-30078839D02*
X22961351Y-29831351D01*
X22700690Y-30339500D02*
X22961351Y-30078839D01*
X22185381Y-30339500D02*
X22700690Y-30339500D01*
X21272880Y-30252000D02*
X22097881Y-30252000D01*
X22097881Y-30252000D02*
X22185381Y-30339500D01*
X39461161Y-46388649D02*
X39708649Y-46388649D01*
X39500000Y-48000000D02*
X39500000Y-47500000D01*
X39500000Y-47500000D02*
X39162500Y-47162500D01*
X39162500Y-47162500D02*
X39162500Y-46687310D01*
X39162500Y-46687310D02*
X39461161Y-46388649D01*
X22097881Y-30752000D02*
X22185381Y-30664500D01*
X22835310Y-30664500D02*
X23191161Y-30308649D01*
X22185381Y-30664500D02*
X22835310Y-30664500D01*
X23191161Y-30308649D02*
X23438649Y-30308649D01*
X21272880Y-30752000D02*
X22097881Y-30752000D01*
X39231351Y-46158839D02*
X39231351Y-45911351D01*
X38750000Y-47750000D02*
X38750000Y-46640190D01*
X38750000Y-46640190D02*
X39231351Y-46158839D01*
X38500000Y-48000000D02*
X38750000Y-47750000D01*
X45500000Y-48000000D02*
X45500000Y-47650000D01*
X44118649Y-45158839D02*
X44118649Y-44911351D01*
X45162500Y-46202690D02*
X44118649Y-45158839D01*
X45162500Y-46687499D02*
X45162500Y-46202690D01*
X45500000Y-48000000D02*
X45500000Y-47024999D01*
X45500000Y-47024999D02*
X45162500Y-46687499D01*
X22530690Y-28839500D02*
X22801351Y-28568839D01*
X21272880Y-28752000D02*
X22097881Y-28752000D01*
X22801351Y-28568839D02*
X22801351Y-28321351D01*
X22097881Y-28752000D02*
X22185381Y-28839500D01*
X22185381Y-28839500D02*
X22530690Y-28839500D01*
D32*
X17253780Y-37752000D02*
X18752000Y-37752000D01*
X18752000Y-37752000D02*
X19400000Y-38400000D01*
X19400000Y-38400000D02*
X19400000Y-40400000D01*
X19400000Y-40400000D02*
X20900000Y-41900000D01*
X23900000Y-41900000D02*
X26900000Y-38900000D01*
X26900000Y-38900000D02*
X26900000Y-31900000D01*
X51400000Y-17900000D02*
X51500000Y-18000000D01*
X51400000Y-15400000D02*
X51400000Y-17900000D01*
X51500000Y-49300000D02*
X51400000Y-49400000D01*
X51500000Y-48000000D02*
X51500000Y-49300000D01*
D30*
X51500000Y-47200000D02*
X51500000Y-48000000D01*
X51500000Y-46296998D02*
X51500000Y-47200000D01*
X47185001Y-22535001D02*
X47460000Y-22810000D01*
X37980000Y-24900000D02*
X40435001Y-22444999D01*
X47094999Y-22444999D02*
X47185001Y-22535001D01*
X40435001Y-22444999D02*
X47094999Y-22444999D01*
X33600000Y-24900000D02*
X37980000Y-24900000D01*
X47460000Y-22810000D02*
X46724999Y-23545001D01*
X46724999Y-23545001D02*
X46724999Y-26873688D01*
X46722078Y-28147922D02*
X46900000Y-27970000D01*
X19075000Y-17911092D02*
X17793908Y-16630000D01*
X19075000Y-18300000D02*
X19075000Y-17911092D01*
X17793908Y-16630000D02*
X14040000Y-16630000D01*
X14040000Y-16630000D02*
X14010000Y-16600000D01*
X19075000Y-19468002D02*
X20106998Y-20500000D01*
X19075000Y-18300000D02*
X19075000Y-19468002D01*
X31678248Y-20500000D02*
X32089124Y-20910876D01*
X20106998Y-20500000D02*
X31678248Y-20500000D01*
X18636998Y-18300000D02*
X17740000Y-19196998D01*
X15418001Y-22125001D02*
X12904999Y-22125001D01*
X19075000Y-18300000D02*
X18636998Y-18300000D01*
X17740000Y-19196998D02*
X17740000Y-19803002D01*
X12904999Y-22125001D02*
X10460000Y-24570000D01*
X17740000Y-19803002D02*
X15418001Y-22125001D01*
X8650000Y-7400000D02*
X8650000Y-13400000D01*
X8650000Y-13400000D02*
X8650000Y-15620000D01*
X8650000Y-15620000D02*
X9258471Y-16228471D01*
X9258471Y-16228471D02*
X9258471Y-16416283D01*
D32*
X17253780Y-37752000D02*
X14718000Y-37752000D01*
X14718000Y-37752000D02*
X12930000Y-39540000D01*
X12930000Y-39540000D02*
X12930000Y-39570000D01*
D30*
X31470875Y-15750875D02*
X31195876Y-15475876D01*
X32375001Y-16655001D02*
X31470875Y-15750875D01*
X32375001Y-20624999D02*
X32375001Y-16655001D01*
X32089124Y-20910876D02*
X32375001Y-20624999D01*
X46722078Y-27403170D02*
X46900000Y-27581092D01*
X46722078Y-26876609D02*
X46722078Y-27403170D01*
X46900000Y-27581092D02*
X46900000Y-27970000D01*
X46724999Y-26873688D02*
X46722078Y-26876609D01*
X8650000Y-6850000D02*
X8650000Y-4400000D01*
X8650000Y-7400000D02*
X8650000Y-6850000D01*
X23635011Y-41825011D02*
X23710000Y-41900000D01*
X23144999Y-41825011D02*
X23635011Y-41825011D01*
X22870000Y-42100010D02*
X23144999Y-41825011D01*
D32*
X20900000Y-41900000D02*
X23710000Y-41900000D01*
X23710000Y-41900000D02*
X23900000Y-41900000D01*
D29*
X45500000Y-18000000D02*
X45500000Y-17650000D01*
X45500000Y-17650000D02*
X45162500Y-17312500D01*
X36841161Y-29511351D02*
X37088649Y-29511351D01*
X36169310Y-28839500D02*
X36841161Y-29511351D01*
X35578781Y-28752000D02*
X35666281Y-28839500D01*
X35666281Y-28839500D02*
X36169310Y-28839500D01*
X34753780Y-28752000D02*
X35578781Y-28752000D01*
X45162500Y-17312500D02*
X45162500Y-15925000D01*
X45162500Y-15925000D02*
X45337500Y-15750000D01*
X31948839Y-29958649D02*
X31701351Y-29958649D01*
X32414800Y-30424623D02*
X32414800Y-30424610D01*
X32414800Y-30424610D02*
X31948839Y-29958649D01*
X32605187Y-30615010D02*
X32414800Y-30424623D01*
X34753780Y-30752000D02*
X34628781Y-30627001D01*
X34023779Y-30627001D02*
X34011788Y-30615010D01*
X34011788Y-30615010D02*
X32605187Y-30615010D01*
X34628781Y-30627001D02*
X34023779Y-30627001D01*
X38750000Y-19802500D02*
X38582500Y-19970000D01*
X38750000Y-18250000D02*
X38750000Y-19802500D01*
X38500000Y-18000000D02*
X38750000Y-18250000D01*
X32178649Y-29728839D02*
X32178649Y-29481351D01*
X32739810Y-30290000D02*
X32178649Y-29728839D01*
X34715780Y-30290000D02*
X32739810Y-30290000D01*
X34753780Y-30252000D02*
X34715780Y-30290000D01*
X39250000Y-18250000D02*
X39250000Y-19962500D01*
X39250000Y-19962500D02*
X39257500Y-19970000D01*
X39500000Y-18000000D02*
X39250000Y-18250000D01*
X34753780Y-32252000D02*
X33928779Y-32252000D01*
X33928779Y-32252000D02*
X33841279Y-32164500D01*
X32528649Y-32411161D02*
X32528649Y-32658649D01*
X33841279Y-32164500D02*
X32775310Y-32164500D01*
X32775310Y-32164500D02*
X32528649Y-32411161D01*
X41750000Y-19762500D02*
X41682500Y-19830000D01*
X41750000Y-18250000D02*
X41750000Y-19762500D01*
X41500000Y-18000000D02*
X41750000Y-18250000D01*
X32298839Y-32181351D02*
X32051351Y-32181351D01*
X32640690Y-31839500D02*
X32298839Y-32181351D01*
X34753780Y-31752000D02*
X33928779Y-31752000D01*
X33928779Y-31752000D02*
X33841279Y-31839500D01*
X33841279Y-31839500D02*
X32640690Y-31839500D01*
X42250000Y-19722500D02*
X42357500Y-19830000D01*
X42250000Y-18250000D02*
X42250000Y-19722500D01*
X42500000Y-18000000D02*
X42250000Y-18250000D01*
X44500000Y-17650000D02*
X44837500Y-17312500D01*
X44500000Y-18000000D02*
X44500000Y-17650000D01*
X34753780Y-29252000D02*
X35578781Y-29252000D01*
X35666281Y-29164500D02*
X36034690Y-29164500D01*
X36611351Y-29741161D02*
X36611351Y-29988649D01*
X35578781Y-29252000D02*
X35666281Y-29164500D01*
X36034690Y-29164500D02*
X36611351Y-29741161D01*
X44837500Y-17312500D02*
X44837500Y-15925000D01*
X44837500Y-15925000D02*
X44662500Y-15750000D01*
D32*
X49410010Y-41300000D02*
X49150011Y-41559999D01*
X51340000Y-41300000D02*
X49410010Y-41300000D01*
D30*
X51190000Y-26500000D02*
X51340000Y-26650000D01*
X49800000Y-26500000D02*
X51190000Y-26500000D01*
X49450000Y-26850000D02*
X49800000Y-26500000D01*
X48075000Y-26850000D02*
X49450000Y-26850000D01*
X48075000Y-26850000D02*
X47950000Y-26850000D01*
X47950000Y-26850000D02*
X47700000Y-27100000D01*
X47700000Y-27100000D02*
X47100000Y-27100000D01*
X51190000Y-26150000D02*
X51340000Y-26000000D01*
X48075000Y-26150000D02*
X51190000Y-26150000D01*
X48075000Y-26150000D02*
X47850000Y-26150000D01*
X47600000Y-25900000D02*
X47200000Y-25900000D01*
X47850000Y-26150000D02*
X47600000Y-25900000D01*
D31*
X51340000Y-27300000D02*
X49950000Y-27300000D01*
X49950000Y-27300000D02*
X49000000Y-28250000D01*
D29*
X50135001Y-40405001D02*
X50424999Y-40405001D01*
X49360002Y-40270000D02*
X50000000Y-40270000D01*
X48075000Y-40350000D02*
X48300001Y-40350000D01*
X50000000Y-40270000D02*
X50135001Y-40405001D01*
X49255001Y-40375001D02*
X49360002Y-40270000D01*
X50669998Y-40650000D02*
X51340000Y-40650000D01*
X50424999Y-40405001D02*
X50669998Y-40650000D01*
X48300001Y-40350000D02*
X48325002Y-40375001D01*
X48325002Y-40375001D02*
X49255001Y-40375001D01*
X22097881Y-36752000D02*
X22185381Y-36664500D01*
X23291161Y-36338649D02*
X23538649Y-36338649D01*
X21272880Y-36752000D02*
X22097881Y-36752000D01*
X22185381Y-36664500D02*
X22965310Y-36664500D01*
X22965310Y-36664500D02*
X23291161Y-36338649D01*
D30*
X48075000Y-40350000D02*
X47950000Y-40350000D01*
X47950000Y-40350000D02*
X47700000Y-40600000D01*
X47162500Y-40600000D02*
X46800000Y-40237500D01*
X47700000Y-40600000D02*
X47162500Y-40600000D01*
D29*
X50196570Y-39936570D02*
X50260000Y-40000000D01*
X49566572Y-39936570D02*
X50196570Y-39936570D01*
X48075000Y-39650000D02*
X48300001Y-39650000D01*
X48300001Y-39650000D02*
X48325002Y-39624999D01*
X48325002Y-39624999D02*
X49255001Y-39624999D01*
X50260000Y-40000000D02*
X51340000Y-40000000D01*
X49255001Y-39624999D02*
X49566572Y-39936570D01*
X22830690Y-36339500D02*
X23061351Y-36108839D01*
X23061351Y-36108839D02*
X23061351Y-35861351D01*
X21272880Y-36252000D02*
X22097881Y-36252000D01*
X22097881Y-36252000D02*
X22185381Y-36339500D01*
X22185381Y-36339500D02*
X22830690Y-36339500D01*
D30*
X47987500Y-39562500D02*
X48075000Y-39650000D01*
X46800000Y-39562500D02*
X47987500Y-39562500D01*
X45710000Y-19590000D02*
X45800000Y-19500000D01*
X43990000Y-19590000D02*
X45710000Y-19590000D01*
X16750000Y-19350000D02*
X15065000Y-17665000D01*
X14660000Y-17665000D02*
X14620000Y-17625000D01*
X15065000Y-17665000D02*
X14660000Y-17665000D01*
X11100000Y-28935000D02*
X11100000Y-27960000D01*
X5769999Y-33270001D02*
X6764999Y-33270001D01*
X11580000Y-27474581D02*
X14764999Y-24289582D01*
X6764999Y-33270001D02*
X11100000Y-28935000D01*
X11100000Y-27960000D02*
X11580000Y-27480000D01*
X4770000Y-34270000D02*
X5769999Y-33270001D01*
X11580000Y-27480000D02*
X11580000Y-27474581D01*
X16829999Y-23654999D02*
X17290000Y-24115000D01*
X14764999Y-24289582D02*
X14764999Y-23901999D01*
X15011999Y-23654999D02*
X16829999Y-23654999D01*
X14764999Y-23901999D02*
X15011999Y-23654999D01*
X16553780Y-35752000D02*
X16545780Y-35760000D01*
X17253780Y-35752000D02*
X16553780Y-35752000D01*
X16545780Y-35760000D02*
X14910000Y-35760000D01*
X14910000Y-35760000D02*
X13330000Y-34180000D01*
X17953780Y-35752000D02*
X18101780Y-35900000D01*
X17253780Y-35752000D02*
X17953780Y-35752000D01*
X18101780Y-35900000D02*
X19000000Y-35900000D01*
X44400000Y-10900000D02*
X44400000Y-11940000D01*
X44400000Y-11940000D02*
X43180000Y-13160000D01*
X17253780Y-35252000D02*
X15282000Y-35252000D01*
X18074768Y-35252000D02*
X18099768Y-35277000D01*
X17253780Y-35252000D02*
X18074768Y-35252000D01*
X13764487Y-33810000D02*
X12474487Y-32520000D01*
X13840000Y-33810000D02*
X13764487Y-33810000D01*
X13840000Y-33810000D02*
X13760000Y-33730000D01*
X15282000Y-35252000D02*
X13840000Y-33810000D01*
X10750000Y-32520000D02*
X10540000Y-32520000D01*
X12474487Y-32520000D02*
X10750000Y-32520000D01*
X36260000Y-14060000D02*
X36900000Y-14700000D01*
X36900000Y-14700000D02*
X41861648Y-14700000D01*
X33700000Y-14060000D02*
X36260000Y-14060000D01*
X41861648Y-14700000D02*
X42353869Y-15192221D01*
X33250002Y-14510000D02*
X33700000Y-14060000D01*
X42353869Y-15192221D02*
X42628868Y-15467220D01*
X29494393Y-23319252D02*
X32279672Y-23319252D01*
X33250001Y-22348923D02*
X33250002Y-14510000D01*
X32279672Y-23319252D02*
X33250001Y-22348923D01*
X16553780Y-34752000D02*
X16545780Y-34760000D01*
X17253780Y-34752000D02*
X16553780Y-34752000D01*
X16545780Y-34760000D02*
X15900000Y-34760000D01*
X15900000Y-34760000D02*
X14270000Y-33130000D01*
X17911999Y-34825001D02*
X18584999Y-34825001D01*
X17253780Y-34752000D02*
X17838998Y-34752000D01*
X17838998Y-34752000D02*
X17911999Y-34825001D01*
X14270000Y-33130000D02*
X14270000Y-33080000D01*
X14270000Y-33080000D02*
X12540000Y-31350000D01*
X12540000Y-31350000D02*
X10570000Y-31350000D01*
X29919475Y-22794912D02*
X30308383Y-22794912D01*
X36373914Y-13784990D02*
X37013913Y-14424989D01*
X32320000Y-22890000D02*
X32974990Y-22235010D01*
X30308383Y-22794912D02*
X30403471Y-22890000D01*
X30403471Y-22890000D02*
X32320000Y-22890000D01*
X37013913Y-14424989D02*
X42643897Y-14424989D01*
X33586087Y-13784989D02*
X36373914Y-13784990D01*
X43360000Y-15141092D02*
X43360000Y-15530000D01*
X32974990Y-14396088D02*
X33586087Y-13784989D01*
X32974990Y-22235010D02*
X32974990Y-14396088D01*
X42643897Y-14424989D02*
X43360000Y-15141092D01*
X17253780Y-34252000D02*
X18042000Y-34252000D01*
X18042000Y-34252000D02*
X18140000Y-34350000D01*
X42874970Y-14149980D02*
X43805001Y-15080011D01*
X36477844Y-13500000D02*
X37127824Y-14149980D01*
X33482156Y-13500000D02*
X36477844Y-13500000D01*
X32699980Y-14282176D02*
X33482156Y-13500000D01*
X43805001Y-15080011D02*
X44080000Y-15355010D01*
X30170000Y-22120000D02*
X30856998Y-22120000D01*
X30856998Y-22120000D02*
X31296998Y-21680000D01*
X31296998Y-21680000D02*
X32310000Y-21680000D01*
X37127824Y-14149980D02*
X42874970Y-14149980D01*
X32310000Y-21680000D02*
X32699980Y-21290020D01*
X32699980Y-21290020D02*
X32699980Y-14282176D01*
X14735000Y-32715000D02*
X16272000Y-34252000D01*
X16272000Y-34252000D02*
X17253780Y-34252000D01*
X13230000Y-29940000D02*
X14735000Y-31445000D01*
X11304872Y-30680128D02*
X12045000Y-29940000D01*
X14735000Y-31445000D02*
X14735000Y-32715000D01*
X12045000Y-29940000D02*
X13230000Y-29940000D01*
X10354872Y-30680128D02*
X9905000Y-31130000D01*
X11304872Y-30680128D02*
X10354872Y-30680128D01*
X6673001Y-32930001D02*
X10615000Y-28988002D01*
X2230000Y-29190000D02*
X3430001Y-30390001D01*
X3430001Y-32306001D02*
X4054001Y-32930001D01*
X3430001Y-30390001D02*
X3430001Y-32306001D01*
X4054001Y-32930001D02*
X6673001Y-32930001D01*
X10615000Y-28988002D02*
X10615000Y-26760000D01*
X13803922Y-23875000D02*
X14810000Y-22868922D01*
X13500000Y-23875000D02*
X13803922Y-23875000D01*
X10615000Y-26760000D02*
X13500000Y-23875000D01*
X14810000Y-22868922D02*
X17088922Y-22868922D01*
X19290000Y-25070000D02*
X19290000Y-26340000D01*
X17088922Y-22868922D02*
X19290000Y-25070000D01*
X26220000Y-21340000D02*
X26220000Y-27430000D01*
X26220000Y-27430000D02*
X26040000Y-27610000D01*
X23730000Y-22680000D02*
X23730000Y-26534821D01*
X23730000Y-26534821D02*
X23407227Y-26857594D01*
X30100000Y-46760000D02*
X30100000Y-48350000D01*
X27300000Y-27760000D02*
X28040000Y-28500000D01*
X27300000Y-23200000D02*
X27300000Y-27760000D01*
X28040000Y-28500000D02*
X28040000Y-42330000D01*
X28040000Y-42330000D02*
X28500000Y-42790000D01*
X28500000Y-42790000D02*
X28500000Y-45160000D01*
X28500000Y-45160000D02*
X28642500Y-45302500D01*
X28642500Y-45302500D02*
X30100000Y-46760000D01*
X26175000Y-42835000D02*
X28642500Y-45302500D01*
X6184213Y-41890000D02*
X7129213Y-42835000D01*
X7129213Y-42835000D02*
X26175000Y-42835000D01*
X4770000Y-41890000D02*
X6184213Y-41890000D01*
X16545780Y-36260000D02*
X14285800Y-36260000D01*
X16553780Y-36252000D02*
X16545780Y-36260000D01*
X17253780Y-36252000D02*
X16553780Y-36252000D01*
D32*
X17253780Y-36252000D02*
X13742000Y-36252000D01*
X13742000Y-36252000D02*
X12950000Y-35460000D01*
X19100000Y-44400000D02*
X19100000Y-44300000D01*
D30*
X31900000Y-20050000D02*
X21150000Y-20050000D01*
X21150000Y-20050000D02*
X20710000Y-19610000D01*
X20710000Y-19610000D02*
X20680000Y-19610000D01*
D32*
X17253780Y-36752000D02*
X12992000Y-36752000D01*
X12992000Y-36752000D02*
X12990000Y-36750000D01*
X17253780Y-37252000D02*
X13858000Y-37252000D01*
X13858000Y-37252000D02*
X12950000Y-38160000D01*
D30*
X30293002Y-48860000D02*
X30575001Y-48578001D01*
X29480000Y-48860000D02*
X30293002Y-48860000D01*
X30375010Y-46685010D02*
X30375010Y-46545010D01*
X30575001Y-48578001D02*
X30575001Y-46885001D01*
X30575001Y-46885001D02*
X30375010Y-46685010D01*
X30375010Y-46545010D02*
X28980000Y-45150000D01*
X28980000Y-42881078D02*
X28400000Y-42301078D01*
X28980000Y-45150000D02*
X28980000Y-42881078D01*
X28400000Y-42301078D02*
X28400000Y-41710000D01*
X28400000Y-39840000D02*
X28380000Y-39820000D01*
X28400000Y-41710000D02*
X28400000Y-39840000D01*
X28380000Y-39820000D02*
X28380000Y-22210000D01*
X28380000Y-22210000D02*
X29240000Y-21350000D01*
X18450979Y-26200979D02*
X18590000Y-26340000D01*
X27840000Y-21430000D02*
X27790000Y-21380000D01*
X27840000Y-26275000D02*
X27840000Y-21430000D01*
X22995001Y-21814999D02*
X23270000Y-21540000D01*
X22744999Y-22065001D02*
X22995001Y-21814999D01*
X23270000Y-21540000D02*
X25110000Y-23380000D01*
X25110000Y-23380000D02*
X25110000Y-27320000D01*
X25110000Y-27320000D02*
X25190000Y-27400000D01*
X17600000Y-15300000D02*
X15700000Y-13400000D01*
X15700000Y-13400000D02*
X15700000Y-8100000D01*
X15700000Y-8100000D02*
X15900000Y-7900000D01*
X21200000Y-15300000D02*
X20811092Y-15300000D01*
X20811092Y-15300000D02*
X17600000Y-15300000D01*
X12000000Y-7100000D02*
X13250000Y-7100000D01*
X14750000Y-5600000D02*
X15250000Y-5600000D01*
X13250000Y-7100000D02*
X14750000Y-5600000D01*
X21628750Y-15876873D02*
X21903749Y-15601874D01*
X15250000Y-5600000D02*
X15250000Y-13750000D01*
X15250000Y-13750000D02*
X17100000Y-15600000D01*
X21073871Y-15876873D02*
X21628750Y-15876873D01*
X20796998Y-15600000D02*
X21073871Y-15876873D01*
X17100000Y-15600000D02*
X20796998Y-15600000D01*
X14700000Y-14000000D02*
X16700000Y-16000000D01*
X16700000Y-16000000D02*
X20808074Y-16000000D01*
X20808074Y-16000000D02*
X21008074Y-16200000D01*
X21008074Y-16200000D02*
X22174990Y-16200000D01*
X22399991Y-15974999D02*
X22674990Y-15700000D01*
X22174990Y-16200000D02*
X22399991Y-15974999D01*
X14700000Y-14000000D02*
X10580000Y-14000000D01*
X10580000Y-14000000D02*
X10150000Y-14430000D01*
X10150000Y-14430000D02*
X9735000Y-14430000D01*
D31*
X21272880Y-37252000D02*
X22652000Y-37252000D01*
X22652000Y-37252000D02*
X23000000Y-37600000D01*
X22122880Y-37752000D02*
X22900000Y-38529120D01*
X21272880Y-37752000D02*
X22122880Y-37752000D01*
X22900000Y-38529120D02*
X22900000Y-38800000D01*
D30*
X8100000Y-2900000D02*
X7030000Y-3970000D01*
X8650000Y-2900000D02*
X8100000Y-2900000D01*
X7030000Y-3970000D02*
X7030000Y-19420000D01*
X7030000Y-19420000D02*
X7970000Y-20360000D01*
X46260000Y-27490000D02*
X46260000Y-34330000D01*
X44650000Y-25880000D02*
X46260000Y-27490000D01*
X43920000Y-26060000D02*
X45975011Y-28115011D01*
X45975011Y-28115011D02*
X45975011Y-34571093D01*
X46175010Y-34771092D02*
X46175010Y-35160000D01*
X45975011Y-34571093D02*
X46175010Y-34771092D01*
X43100000Y-26060000D02*
X45700000Y-28660000D01*
X45700000Y-35910000D02*
X46100000Y-36310000D01*
X45700000Y-28660000D02*
X45700000Y-35910000D01*
X42330000Y-26268908D02*
X45234979Y-29173887D01*
X42330000Y-25880000D02*
X42330000Y-26268908D01*
X45825001Y-36995001D02*
X46100000Y-37270000D01*
X45285001Y-36455001D02*
X45825001Y-36995001D01*
X45285001Y-29215001D02*
X45285001Y-36455001D01*
X45243887Y-29173887D02*
X45285001Y-29215001D01*
X45234979Y-29173887D02*
X45243887Y-29173887D01*
X43320000Y-22920000D02*
X40710000Y-22920000D01*
X45300000Y-24900000D02*
X43320000Y-22920000D01*
X42192632Y-30800000D02*
X40636316Y-29243684D01*
X44810000Y-30800000D02*
X42192632Y-30800000D01*
X43034999Y-33567592D02*
X43397638Y-33930231D01*
X43974970Y-39784970D02*
X45945001Y-41755001D01*
X42760000Y-32810000D02*
X43034999Y-33084999D01*
X43582769Y-33930231D02*
X43974970Y-34322432D01*
X43974970Y-34322432D02*
X43974970Y-39784970D01*
X43397638Y-33930231D02*
X43582769Y-33930231D01*
X45945001Y-41755001D02*
X46220000Y-42030000D01*
X43034999Y-33084999D02*
X43034999Y-33567592D01*
X43524748Y-33354339D02*
X44249980Y-34079571D01*
X44249980Y-39139980D02*
X46080000Y-40970000D01*
X44249980Y-34079571D02*
X44249980Y-39139980D01*
X46268001Y-39215001D02*
X46348003Y-39134999D01*
X46585001Y-39134999D02*
X46860000Y-38860000D01*
X45811999Y-39215001D02*
X46268001Y-39215001D01*
X46348003Y-39134999D02*
X46585001Y-39134999D01*
X44524990Y-37927992D02*
X45811999Y-39215001D01*
X44524990Y-33474990D02*
X44524990Y-37927992D01*
X44150000Y-33100000D02*
X44524990Y-33474990D01*
X44800000Y-37500000D02*
X46040000Y-38740000D01*
X44800000Y-32770000D02*
X44800000Y-37500000D01*
X16002000Y-29252000D02*
X16000000Y-29250000D01*
X17253780Y-29252000D02*
X16002000Y-29252000D01*
X15502000Y-29752000D02*
X15500000Y-29750000D01*
X17253780Y-29752000D02*
X15502000Y-29752000D01*
X28750000Y-59930000D02*
X28070000Y-60610000D01*
X30240000Y-59930000D02*
X28750000Y-59930000D01*
X15502000Y-28752000D02*
X15500000Y-28750000D01*
X17253780Y-28752000D02*
X15502000Y-28752000D01*
X17253780Y-28252000D02*
X16002000Y-28252000D01*
X16002000Y-28252000D02*
X16000000Y-28250000D01*
D31*
X5290000Y-57650000D02*
X4770000Y-57130000D01*
D30*
X17953780Y-33252000D02*
X18205780Y-33000000D01*
X17253780Y-33252000D02*
X17953780Y-33252000D01*
X18950000Y-33000000D02*
X19350000Y-33400000D01*
X18205780Y-33000000D02*
X18950000Y-33000000D01*
X8460000Y-26660000D02*
X7910000Y-26110000D01*
X8460000Y-28634659D02*
X8460000Y-26660000D01*
X18166858Y-32650000D02*
X19400000Y-32650000D01*
X18064858Y-32752000D02*
X18166858Y-32650000D01*
X17253780Y-32752000D02*
X18064858Y-32752000D01*
X8929124Y-26190876D02*
X8929124Y-28011864D01*
X8929124Y-28011864D02*
X9106844Y-28189584D01*
X9106844Y-28189584D02*
X9381843Y-28464583D01*
X18598000Y-32252000D02*
X18800000Y-32050000D01*
X17253780Y-32252000D02*
X18598000Y-32252000D01*
X17253780Y-31752000D02*
X16553780Y-31752000D01*
X16553780Y-31752000D02*
X16530779Y-31775001D01*
X16530779Y-31775001D02*
X15475001Y-31775001D01*
X14910000Y-31210000D02*
X14900000Y-31210000D01*
X14910000Y-31210000D02*
X14850000Y-31150000D01*
X15475001Y-31775001D02*
X14910000Y-31210000D01*
X14900000Y-31210000D02*
X14410000Y-30720000D01*
X14410000Y-30720000D02*
X14410000Y-29830000D01*
X15502000Y-30752000D02*
X15500000Y-30750000D01*
X17253780Y-30752000D02*
X15502000Y-30752000D01*
X17953780Y-30752000D02*
X18310000Y-31108220D01*
X17253780Y-30752000D02*
X17953780Y-30752000D01*
X18310000Y-31108220D02*
X18310000Y-31460000D01*
X18310000Y-31460000D02*
X18330000Y-31480000D01*
X16115000Y-30252000D02*
X16090000Y-30277000D01*
X17253780Y-30252000D02*
X16115000Y-30252000D01*
X33828001Y-36275001D02*
X32185001Y-36275001D01*
X34753780Y-36252000D02*
X33851002Y-36252000D01*
X33851002Y-36252000D02*
X33828001Y-36275001D01*
X32185001Y-36275001D02*
X29690000Y-33780000D01*
X29690000Y-33780000D02*
X29690000Y-29020000D01*
X36375010Y-40113912D02*
X34188922Y-42300000D01*
X35342702Y-36752000D02*
X36375010Y-37784308D01*
X36375010Y-37784308D02*
X36375010Y-40113912D01*
X34753780Y-36752000D02*
X35342702Y-36752000D01*
X32096998Y-42300000D02*
X31500000Y-41703002D01*
X34188922Y-42300000D02*
X32096998Y-42300000D01*
X31500000Y-40914444D02*
X31539444Y-40875000D01*
X31500000Y-41703002D02*
X31500000Y-40914444D01*
X34350000Y-41750000D02*
X36100000Y-40000000D01*
X33100000Y-41750000D02*
X34350000Y-41750000D01*
X35453780Y-37252000D02*
X34753780Y-37252000D01*
X36100000Y-37898220D02*
X35453780Y-37252000D01*
X36100000Y-40000000D02*
X36100000Y-37898220D01*
X34353780Y-37752000D02*
X32250000Y-39855780D01*
X34753780Y-37752000D02*
X34353780Y-37752000D01*
X32250000Y-39855780D02*
X32250000Y-41750000D01*
X38724880Y-28300000D02*
X38772880Y-28252000D01*
X37700000Y-28300000D02*
X38724880Y-28300000D01*
X39472880Y-28752000D02*
X41780002Y-31059122D01*
X42695033Y-33745499D02*
X43079768Y-34130234D01*
X42695033Y-33475027D02*
X42695033Y-33745499D01*
X43079768Y-34130234D02*
X43354767Y-34405233D01*
X41780002Y-32559996D02*
X42695033Y-33475027D01*
X38772880Y-28752000D02*
X39472880Y-28752000D01*
X41780002Y-31059122D02*
X41780002Y-32559996D01*
X39472880Y-29252000D02*
X41504991Y-31284111D01*
X41504991Y-32673909D02*
X42420022Y-33588940D01*
X38772880Y-29252000D02*
X39472880Y-29252000D01*
X42420022Y-33588940D02*
X42420022Y-34142254D01*
X43250000Y-34972232D02*
X43250000Y-35230000D01*
X42420022Y-34142254D02*
X43250000Y-34972232D01*
X41504991Y-31284111D02*
X41504991Y-32673909D01*
X41229980Y-31509100D02*
X41229980Y-32787822D01*
X42145011Y-34256167D02*
X42775000Y-34886156D01*
X41229980Y-32787822D02*
X42145011Y-33702853D01*
X42145011Y-33702853D02*
X42145011Y-34256167D01*
X43045001Y-35985001D02*
X43320000Y-36260000D01*
X42775000Y-35715000D02*
X43045001Y-35985001D01*
X42775000Y-34886156D02*
X42775000Y-35715000D01*
X39472880Y-29752000D02*
X41229980Y-31509100D01*
X38772880Y-29752000D02*
X39472880Y-29752000D01*
X43125001Y-36905001D02*
X43400000Y-37180000D01*
X42499989Y-36279989D02*
X43125001Y-36905001D01*
X42499989Y-35000069D02*
X42499989Y-36279989D01*
X41870000Y-34370080D02*
X42499989Y-35000069D01*
X41870000Y-33816766D02*
X41870000Y-34370080D01*
X40890000Y-32836766D02*
X41870000Y-33816766D01*
X40890000Y-31586998D02*
X40890000Y-32836766D01*
X39555002Y-30252000D02*
X40890000Y-31586998D01*
X38772880Y-30252000D02*
X39555002Y-30252000D01*
X38724880Y-31300000D02*
X38772880Y-31252000D01*
X37700000Y-31300000D02*
X38724880Y-31300000D01*
X34642500Y-45672500D02*
X34830000Y-45860000D01*
X33600000Y-45672500D02*
X34642500Y-45672500D01*
X9940001Y-25320001D02*
X11339999Y-25320001D01*
X9190000Y-24570000D02*
X9940001Y-25320001D01*
X11339999Y-25320001D02*
X13060000Y-23600000D01*
X13060000Y-23600000D02*
X13690000Y-23600000D01*
X13690000Y-23600000D02*
X13975000Y-23315000D01*
X13975000Y-23315000D02*
X13975000Y-22970000D01*
X43015001Y-38395001D02*
X43290000Y-38670000D01*
X41425032Y-36805032D02*
X43015001Y-38395001D01*
X38772880Y-31752000D02*
X39472880Y-31752000D01*
X39472880Y-31752000D02*
X40260880Y-32540000D01*
X40260880Y-32540000D02*
X40260880Y-32640880D01*
X41425032Y-33805032D02*
X41425032Y-36805032D01*
X40260880Y-32640880D02*
X41425032Y-33805032D01*
X41150022Y-33929142D02*
X41150022Y-37509743D01*
X38772880Y-32252000D02*
X39472880Y-32252000D01*
X39472880Y-32252000D02*
X41150022Y-33929142D01*
X41150022Y-37509743D02*
X42877779Y-39237500D01*
X38772880Y-32752000D02*
X39472880Y-32752000D01*
X39472880Y-32752000D02*
X40875011Y-34154131D01*
X40875011Y-37935011D02*
X40875011Y-38175011D01*
X40875011Y-38175011D02*
X43410000Y-40710000D01*
X40875011Y-37935011D02*
X40875011Y-38070011D01*
X40875011Y-34154131D02*
X40875011Y-37935011D01*
X40600000Y-34340000D02*
X40600000Y-39040000D01*
X38772880Y-33252000D02*
X39512000Y-33252000D01*
X40600000Y-39040000D02*
X43360000Y-41800000D01*
X39512000Y-33252000D02*
X40600000Y-34340000D01*
X38724880Y-34300000D02*
X38772880Y-34252000D01*
X37500000Y-34300000D02*
X38724880Y-34300000D01*
X38045879Y-34724999D02*
X37075001Y-34724999D01*
X38072880Y-34752000D02*
X38045879Y-34724999D01*
X38772880Y-34752000D02*
X38072880Y-34752000D01*
X36813454Y-34986546D02*
X36759637Y-34986546D01*
X37075001Y-34724999D02*
X36813454Y-34986546D01*
X37452000Y-35252000D02*
X37400000Y-35200000D01*
X38772880Y-35252000D02*
X37452000Y-35252000D01*
X37086620Y-35850001D02*
X36839844Y-35850001D01*
X37184621Y-35752000D02*
X37086620Y-35850001D01*
X38772880Y-35752000D02*
X37184621Y-35752000D01*
X37387623Y-36252000D02*
X37362623Y-36277000D01*
X38772880Y-36252000D02*
X37387623Y-36252000D01*
X36993404Y-36752000D02*
X36922702Y-36822702D01*
X38772880Y-36752000D02*
X36993404Y-36752000D01*
X37448000Y-37252000D02*
X37400000Y-37300000D01*
X38772880Y-37252000D02*
X37448000Y-37252000D01*
X13050000Y-27191092D02*
X13090000Y-27151092D01*
X13050000Y-27580000D02*
X13050000Y-27191092D01*
X13090000Y-27151092D02*
X13090000Y-26710000D01*
X13090000Y-26710000D02*
X15240000Y-24560000D01*
X15240000Y-24560000D02*
X15240000Y-24130000D01*
X28000000Y-4600000D02*
X32000000Y-4600000D01*
X32000000Y-4600000D02*
X32500000Y-4100000D01*
X33125001Y-9374999D02*
X33125001Y-10024999D01*
X33400000Y-9100000D02*
X33125001Y-9374999D01*
X30225001Y-12924999D02*
X30225001Y-12934999D01*
X33125001Y-10024999D02*
X30225001Y-12924999D01*
X30225001Y-12934999D02*
X29860000Y-13300000D01*
X29860000Y-13300000D02*
X29860000Y-17040000D01*
X29860000Y-17040000D02*
X30840000Y-18020000D01*
X33400000Y-9100000D02*
X33400000Y-7310000D01*
X32774999Y-4374999D02*
X32500000Y-4100000D01*
X33995001Y-5595001D02*
X32774999Y-4374999D01*
X33995001Y-6714999D02*
X33995001Y-5595001D01*
X33400000Y-7310000D02*
X33995001Y-6714999D01*
X28000000Y-4600000D02*
X26280000Y-2880000D01*
X26280000Y-2880000D02*
X20870000Y-2880000D01*
X20760000Y-2770000D02*
X20870000Y-2880000D01*
X19138908Y-12850000D02*
X18750000Y-12850000D01*
X19138908Y-12850000D02*
X19490000Y-12850000D01*
X19490000Y-12850000D02*
X21090000Y-11250000D01*
X21090000Y-11250000D02*
X21870000Y-11250000D01*
X20160000Y-2641092D02*
X20568577Y-2232515D01*
X20568577Y-2232515D02*
X21282515Y-2232515D01*
X20160000Y-3030000D02*
X20160000Y-2641092D01*
X22375426Y-2232515D02*
X21282515Y-2232515D01*
X17100000Y-5600000D02*
X17100000Y-5211092D01*
X13831601Y-1942693D02*
X14034454Y-2145546D01*
X13029710Y-2217692D02*
X13304709Y-1942693D01*
X13304709Y-1942693D02*
X13831601Y-1942693D01*
X17100000Y-5211092D02*
X14034454Y-2145546D01*
X14034454Y-2145546D02*
X13928908Y-2040000D01*
X27600000Y-16800000D02*
X27600000Y-17500000D01*
X29200000Y-9100000D02*
X29200000Y-15200000D01*
X30400000Y-7900000D02*
X29200000Y-9100000D01*
X16950000Y-13003002D02*
X16950000Y-13975000D01*
X16950000Y-13975000D02*
X17850000Y-14875000D01*
X18700000Y-8588908D02*
X18100000Y-9188908D01*
X18100000Y-9188908D02*
X18100000Y-9200000D01*
X16300000Y-12353002D02*
X16950000Y-13003002D01*
X16300000Y-11000000D02*
X16300000Y-12353002D01*
X18100000Y-9200000D02*
X16300000Y-11000000D01*
X29200000Y-15200000D02*
X27600000Y-16800000D01*
X17850000Y-14875000D02*
X19125000Y-14875000D01*
X19125000Y-14875000D02*
X19400000Y-14600000D01*
X18700000Y-8588908D02*
X21161092Y-8588908D01*
X21161092Y-8588908D02*
X21560000Y-8190000D01*
X21560000Y-8190000D02*
X21560000Y-8140000D01*
X31014999Y-48865001D02*
X30740000Y-49140000D01*
X31054999Y-48825001D02*
X31014999Y-48865001D01*
X30770000Y-21400000D02*
X29893002Y-21400000D01*
X30950000Y-47520000D02*
X31054999Y-47624999D01*
X30950000Y-44462156D02*
X30950000Y-47520000D01*
X29893002Y-21400000D02*
X28655010Y-22637992D01*
X31054999Y-47624999D02*
X31054999Y-48825001D01*
X28655010Y-22637992D02*
X28655010Y-39706088D01*
X28675010Y-42187166D02*
X30950000Y-44462156D01*
X28655010Y-39706088D02*
X28675010Y-39726088D01*
X28675010Y-39726088D02*
X28675010Y-42187166D01*
X9170000Y-44600000D02*
X9399999Y-44600000D01*
X10150000Y-2350000D02*
X9640000Y-1840000D01*
X10150000Y-2900000D02*
X10150000Y-2350000D01*
X9640000Y-1840000D02*
X9640000Y-1000000D01*
X9640000Y-1000000D02*
X9590000Y-950000D01*
X9978908Y-950000D02*
X9590000Y-950000D01*
X11608909Y-950000D02*
X9978908Y-950000D01*
X12270000Y-1611091D02*
X11608909Y-950000D01*
X12270000Y-1999999D02*
X12270000Y-1611091D01*
X10150000Y-4400000D02*
X13120000Y-4400000D01*
X13120000Y-4400000D02*
X13170000Y-4450000D01*
X9600000Y-4400000D02*
X9360000Y-4160000D01*
X10150000Y-4400000D02*
X9600000Y-4400000D01*
X9360000Y-2490000D02*
X8660000Y-1790000D01*
X9360000Y-4160000D02*
X9360000Y-2490000D01*
X10150000Y-11900000D02*
X12440001Y-11900000D01*
X12440001Y-11900000D02*
X12450001Y-11910000D01*
X10700000Y-7400000D02*
X10910000Y-7610000D01*
X10150000Y-7400000D02*
X10700000Y-7400000D01*
X10910000Y-7610000D02*
X13160000Y-7610000D01*
X13160000Y-7610000D02*
X13170000Y-7620000D01*
X8115200Y-19802198D02*
X8445001Y-20131999D01*
X8445001Y-20131999D02*
X8445001Y-20588001D01*
X7994999Y-21038003D02*
X7994999Y-24485001D01*
X8115200Y-18005200D02*
X8115200Y-19802198D01*
X8445001Y-20588001D02*
X7994999Y-21038003D01*
X9409999Y-25900001D02*
X9798248Y-26288250D01*
X9798248Y-26288250D02*
X9798248Y-26800000D01*
X9409999Y-25900001D02*
X9479998Y-25970000D01*
X7994999Y-24485001D02*
X9409999Y-25900001D01*
X7339999Y-16841091D02*
X7339999Y-10585001D01*
X8115200Y-17616292D02*
X7339999Y-16841091D01*
X8115200Y-18005200D02*
X8115200Y-17616292D01*
X7740000Y-10185000D02*
X7815000Y-10185000D01*
X7339999Y-10585001D02*
X7740000Y-10185000D01*
X10150000Y-5900000D02*
X10810000Y-5900000D01*
X10810000Y-5900000D02*
X11420000Y-5290000D01*
X11420000Y-5290000D02*
X13120000Y-5290000D01*
X7980000Y-16688908D02*
X8541092Y-17250000D01*
X7980000Y-16300000D02*
X7980000Y-16688908D01*
X8541092Y-17250000D02*
X9127756Y-17250000D01*
X9733472Y-16644284D02*
X9733472Y-15663472D01*
X9127756Y-17250000D02*
X9733472Y-16644284D01*
X9259999Y-13740001D02*
X9600000Y-13400000D01*
X9600000Y-13400000D02*
X10150000Y-13400000D01*
X9259999Y-15189999D02*
X9259999Y-13740001D01*
X9733472Y-15663472D02*
X9259999Y-15189999D01*
X10700000Y-8900000D02*
X11450000Y-8150000D01*
X10150000Y-8900000D02*
X10700000Y-8900000D01*
X11450000Y-8150000D02*
X13825000Y-8150000D01*
X13825000Y-8150000D02*
X13950000Y-8025000D01*
X10700000Y-10400000D02*
X10720000Y-10380000D01*
X10150000Y-10400000D02*
X10700000Y-10400000D01*
X10720000Y-10380000D02*
X13710000Y-10380000D01*
X13710000Y-10380000D02*
X14440000Y-11110000D01*
X50500000Y-18000000D02*
X50500000Y-17200000D01*
X50500000Y-14150000D02*
X50550000Y-14100000D01*
X50500000Y-17200000D02*
X50500000Y-14150000D01*
X49500000Y-14100000D02*
X49550000Y-14050000D01*
X49500000Y-18000000D02*
X49500000Y-14100000D01*
X48500000Y-19286306D02*
X48500000Y-18800000D01*
X48500000Y-18800000D02*
X48500000Y-18000000D01*
X47500000Y-18800000D02*
X47500000Y-18000000D01*
X47500000Y-19690000D02*
X47500000Y-20600000D01*
X47500000Y-19690000D02*
X47500000Y-18800000D01*
X47500000Y-19777106D02*
X47500000Y-19690000D01*
X47500000Y-20600000D02*
X48370000Y-21470000D01*
X48370000Y-21470000D02*
X48410000Y-21470000D01*
X50500000Y-48000000D02*
X50500000Y-49325010D01*
X42370000Y-11865000D02*
X42370000Y-11040000D01*
X40780000Y-13455000D02*
X42370000Y-11865000D01*
X49500000Y-48000000D02*
X49500000Y-49325010D01*
X48500000Y-48000000D02*
X48500000Y-49325010D01*
X47500000Y-48000000D02*
X47500000Y-49325010D01*
X37325001Y-11425001D02*
X37325001Y-12985001D01*
X37325001Y-12985001D02*
X37350000Y-13010000D01*
X35650000Y-12736092D02*
X35650000Y-13125000D01*
X35650000Y-12061092D02*
X35650000Y-12736092D01*
X37211092Y-10500000D02*
X35650000Y-12061092D01*
X37600000Y-10500000D02*
X37211092Y-10500000D01*
X32960000Y-5450000D02*
X31190000Y-5450000D01*
X22674990Y-17495010D02*
X22674990Y-17836092D01*
X22674990Y-17836092D02*
X22674990Y-18225000D01*
X28460000Y-11710000D02*
X22674990Y-17495010D01*
X28460000Y-8180000D02*
X28460000Y-11710000D01*
X31190000Y-5450000D02*
X28460000Y-8180000D01*
X33520000Y-6010000D02*
X32960000Y-5450000D01*
X20975000Y-18325000D02*
X21350001Y-18700001D01*
X22929999Y-18700001D02*
X23019999Y-18700001D01*
X21350001Y-18700001D02*
X22929999Y-18700001D01*
X31008922Y-6020000D02*
X32475000Y-6020000D01*
X23079999Y-18700001D02*
X24139461Y-17640539D01*
X22929999Y-18700001D02*
X23079999Y-18700001D01*
X28735010Y-11823912D02*
X28735010Y-8293912D01*
X26475010Y-14083912D02*
X28735010Y-11823912D01*
X26475010Y-14903912D02*
X26475010Y-14083912D01*
X28735010Y-8293912D02*
X31008922Y-6020000D01*
X24139461Y-17640539D02*
X24139461Y-17239461D01*
X24139461Y-17239461D02*
X26475010Y-14903912D01*
X41674992Y-15094992D02*
X42170000Y-15590000D01*
X39216086Y-15094992D02*
X41674992Y-15094992D01*
X37316356Y-15519358D02*
X37601999Y-15805001D01*
X37316356Y-15767947D02*
X37316356Y-15519358D01*
X37601999Y-15805001D02*
X38506077Y-15805001D01*
X38506077Y-15805001D02*
X39216086Y-15094992D01*
X42570000Y-16291092D02*
X42570000Y-16680000D01*
X42570000Y-16085548D02*
X42570000Y-16291092D01*
X42170000Y-15685548D02*
X42570000Y-16085548D01*
X42170000Y-15590000D02*
X42170000Y-15685548D01*
M02*
