G04 #@! TF.GenerationSoftware,KiCad,Pcbnew,5.0.2+dfsg1-1~bpo9+1*
G04 #@! TF.CreationDate,2019-10-23T12:45:27+02:00*
G04 #@! TF.ProjectId,zglue-demo-board,7a676c75-652d-4646-956d-6f2d626f6172,rev?*
G04 #@! TF.SameCoordinates,Original*
G04 #@! TF.FileFunction,Soldermask,Bot*
G04 #@! TF.FilePolarity,Negative*
%FSLAX46Y46*%
G04 Gerber Fmt 4.6, Leading zero omitted, Abs format (unit mm)*
G04 Created by KiCad (PCBNEW 5.0.2+dfsg1-1~bpo9+1) date Wed 23 Oct 2019 12:45:27 PM CEST*
%MOMM*%
%LPD*%
G01*
G04 APERTURE LIST*
%ADD10C,0.100000*%
G04 APERTURE END LIST*
D10*
G36*
X13146136Y-61393253D02*
X13237312Y-61431019D01*
X13319372Y-61485850D01*
X13389150Y-61555628D01*
X13443981Y-61637688D01*
X13481747Y-61728864D01*
X13501000Y-61825656D01*
X13501000Y-61924344D01*
X13481747Y-62021136D01*
X13443981Y-62112312D01*
X13389150Y-62194372D01*
X13319372Y-62264150D01*
X13237312Y-62318981D01*
X13146136Y-62356747D01*
X13049344Y-62376000D01*
X12950656Y-62376000D01*
X12853864Y-62356747D01*
X12762688Y-62318981D01*
X12680628Y-62264150D01*
X12610850Y-62194372D01*
X12556019Y-62112312D01*
X12518253Y-62021136D01*
X12499000Y-61924344D01*
X12499000Y-61825656D01*
X12518253Y-61728864D01*
X12556019Y-61637688D01*
X12610850Y-61555628D01*
X12680628Y-61485850D01*
X12762688Y-61431019D01*
X12853864Y-61393253D01*
X12950656Y-61374000D01*
X13049344Y-61374000D01*
X13146136Y-61393253D01*
X13146136Y-61393253D01*
G37*
G36*
X9796136Y-61393253D02*
X9887312Y-61431019D01*
X9969372Y-61485850D01*
X10039150Y-61555628D01*
X10093981Y-61637688D01*
X10131747Y-61728864D01*
X10151000Y-61825656D01*
X10151000Y-61924344D01*
X10131747Y-62021136D01*
X10093981Y-62112312D01*
X10039150Y-62194372D01*
X9969372Y-62264150D01*
X9887312Y-62318981D01*
X9796136Y-62356747D01*
X9699344Y-62376000D01*
X9600656Y-62376000D01*
X9503864Y-62356747D01*
X9412688Y-62318981D01*
X9330628Y-62264150D01*
X9260850Y-62194372D01*
X9206019Y-62112312D01*
X9168253Y-62021136D01*
X9149000Y-61924344D01*
X9149000Y-61825656D01*
X9168253Y-61728864D01*
X9206019Y-61637688D01*
X9260850Y-61555628D01*
X9330628Y-61485850D01*
X9412688Y-61431019D01*
X9503864Y-61393253D01*
X9600656Y-61374000D01*
X9699344Y-61374000D01*
X9796136Y-61393253D01*
X9796136Y-61393253D01*
G37*
G36*
X5076565Y-56119389D02*
X5267834Y-56198615D01*
X5439976Y-56313637D01*
X5586363Y-56460024D01*
X5701385Y-56632166D01*
X5780611Y-56823435D01*
X5821000Y-57026484D01*
X5821000Y-57233516D01*
X5780611Y-57436565D01*
X5701385Y-57627834D01*
X5586363Y-57799976D01*
X5439976Y-57946363D01*
X5267834Y-58061385D01*
X5076565Y-58140611D01*
X4873516Y-58181000D01*
X4666484Y-58181000D01*
X4463435Y-58140611D01*
X4272166Y-58061385D01*
X4100024Y-57946363D01*
X3953637Y-57799976D01*
X3838615Y-57627834D01*
X3759389Y-57436565D01*
X3719000Y-57233516D01*
X3719000Y-57026484D01*
X3759389Y-56823435D01*
X3838615Y-56632166D01*
X3953637Y-56460024D01*
X4100024Y-56313637D01*
X4272166Y-56198615D01*
X4463435Y-56119389D01*
X4666484Y-56079000D01*
X4873516Y-56079000D01*
X5076565Y-56119389D01*
X5076565Y-56119389D01*
G37*
G36*
X2536565Y-56119389D02*
X2727834Y-56198615D01*
X2899976Y-56313637D01*
X3046363Y-56460024D01*
X3161385Y-56632166D01*
X3240611Y-56823435D01*
X3281000Y-57026484D01*
X3281000Y-57233516D01*
X3240611Y-57436565D01*
X3161385Y-57627834D01*
X3046363Y-57799976D01*
X2899976Y-57946363D01*
X2727834Y-58061385D01*
X2536565Y-58140611D01*
X2333516Y-58181000D01*
X2126484Y-58181000D01*
X1923435Y-58140611D01*
X1732166Y-58061385D01*
X1560024Y-57946363D01*
X1413637Y-57799976D01*
X1298615Y-57627834D01*
X1219389Y-57436565D01*
X1179000Y-57233516D01*
X1179000Y-57026484D01*
X1219389Y-56823435D01*
X1298615Y-56632166D01*
X1413637Y-56460024D01*
X1560024Y-56313637D01*
X1732166Y-56198615D01*
X1923435Y-56119389D01*
X2126484Y-56079000D01*
X2333516Y-56079000D01*
X2536565Y-56119389D01*
X2536565Y-56119389D01*
G37*
G36*
X5076565Y-53579389D02*
X5267834Y-53658615D01*
X5439976Y-53773637D01*
X5586363Y-53920024D01*
X5701385Y-54092166D01*
X5780611Y-54283435D01*
X5821000Y-54486484D01*
X5821000Y-54693516D01*
X5780611Y-54896565D01*
X5701385Y-55087834D01*
X5586363Y-55259976D01*
X5439976Y-55406363D01*
X5267834Y-55521385D01*
X5076565Y-55600611D01*
X4873516Y-55641000D01*
X4666484Y-55641000D01*
X4463435Y-55600611D01*
X4272166Y-55521385D01*
X4100024Y-55406363D01*
X3953637Y-55259976D01*
X3838615Y-55087834D01*
X3759389Y-54896565D01*
X3719000Y-54693516D01*
X3719000Y-54486484D01*
X3759389Y-54283435D01*
X3838615Y-54092166D01*
X3953637Y-53920024D01*
X4100024Y-53773637D01*
X4272166Y-53658615D01*
X4463435Y-53579389D01*
X4666484Y-53539000D01*
X4873516Y-53539000D01*
X5076565Y-53579389D01*
X5076565Y-53579389D01*
G37*
G36*
X2536565Y-53579389D02*
X2727834Y-53658615D01*
X2899976Y-53773637D01*
X3046363Y-53920024D01*
X3161385Y-54092166D01*
X3240611Y-54283435D01*
X3281000Y-54486484D01*
X3281000Y-54693516D01*
X3240611Y-54896565D01*
X3161385Y-55087834D01*
X3046363Y-55259976D01*
X2899976Y-55406363D01*
X2727834Y-55521385D01*
X2536565Y-55600611D01*
X2333516Y-55641000D01*
X2126484Y-55641000D01*
X1923435Y-55600611D01*
X1732166Y-55521385D01*
X1560024Y-55406363D01*
X1413637Y-55259976D01*
X1298615Y-55087834D01*
X1219389Y-54896565D01*
X1179000Y-54693516D01*
X1179000Y-54486484D01*
X1219389Y-54283435D01*
X1298615Y-54092166D01*
X1413637Y-53920024D01*
X1560024Y-53773637D01*
X1732166Y-53658615D01*
X1923435Y-53579389D01*
X2126484Y-53539000D01*
X2333516Y-53539000D01*
X2536565Y-53579389D01*
X2536565Y-53579389D01*
G37*
G36*
X5076565Y-51039389D02*
X5267834Y-51118615D01*
X5439976Y-51233637D01*
X5586363Y-51380024D01*
X5701385Y-51552166D01*
X5780611Y-51743435D01*
X5821000Y-51946484D01*
X5821000Y-52153516D01*
X5780611Y-52356565D01*
X5701385Y-52547834D01*
X5586363Y-52719976D01*
X5439976Y-52866363D01*
X5267834Y-52981385D01*
X5076565Y-53060611D01*
X4873516Y-53101000D01*
X4666484Y-53101000D01*
X4463435Y-53060611D01*
X4272166Y-52981385D01*
X4100024Y-52866363D01*
X3953637Y-52719976D01*
X3838615Y-52547834D01*
X3759389Y-52356565D01*
X3719000Y-52153516D01*
X3719000Y-51946484D01*
X3759389Y-51743435D01*
X3838615Y-51552166D01*
X3953637Y-51380024D01*
X4100024Y-51233637D01*
X4272166Y-51118615D01*
X4463435Y-51039389D01*
X4666484Y-50999000D01*
X4873516Y-50999000D01*
X5076565Y-51039389D01*
X5076565Y-51039389D01*
G37*
G36*
X2536565Y-51039389D02*
X2727834Y-51118615D01*
X2899976Y-51233637D01*
X3046363Y-51380024D01*
X3161385Y-51552166D01*
X3240611Y-51743435D01*
X3281000Y-51946484D01*
X3281000Y-52153516D01*
X3240611Y-52356565D01*
X3161385Y-52547834D01*
X3046363Y-52719976D01*
X2899976Y-52866363D01*
X2727834Y-52981385D01*
X2536565Y-53060611D01*
X2333516Y-53101000D01*
X2126484Y-53101000D01*
X1923435Y-53060611D01*
X1732166Y-52981385D01*
X1560024Y-52866363D01*
X1413637Y-52719976D01*
X1298615Y-52547834D01*
X1219389Y-52356565D01*
X1179000Y-52153516D01*
X1179000Y-51946484D01*
X1219389Y-51743435D01*
X1298615Y-51552166D01*
X1413637Y-51380024D01*
X1560024Y-51233637D01*
X1732166Y-51118615D01*
X1923435Y-51039389D01*
X2126484Y-50999000D01*
X2333516Y-50999000D01*
X2536565Y-51039389D01*
X2536565Y-51039389D01*
G37*
G36*
X5076565Y-48499389D02*
X5267834Y-48578615D01*
X5439976Y-48693637D01*
X5586363Y-48840024D01*
X5701385Y-49012166D01*
X5780611Y-49203435D01*
X5821000Y-49406484D01*
X5821000Y-49613516D01*
X5780611Y-49816565D01*
X5701385Y-50007834D01*
X5586363Y-50179976D01*
X5439976Y-50326363D01*
X5267834Y-50441385D01*
X5076565Y-50520611D01*
X4873516Y-50561000D01*
X4666484Y-50561000D01*
X4463435Y-50520611D01*
X4272166Y-50441385D01*
X4100024Y-50326363D01*
X3953637Y-50179976D01*
X3838615Y-50007834D01*
X3759389Y-49816565D01*
X3719000Y-49613516D01*
X3719000Y-49406484D01*
X3759389Y-49203435D01*
X3838615Y-49012166D01*
X3953637Y-48840024D01*
X4100024Y-48693637D01*
X4272166Y-48578615D01*
X4463435Y-48499389D01*
X4666484Y-48459000D01*
X4873516Y-48459000D01*
X5076565Y-48499389D01*
X5076565Y-48499389D01*
G37*
G36*
X2536565Y-48499389D02*
X2727834Y-48578615D01*
X2899976Y-48693637D01*
X3046363Y-48840024D01*
X3161385Y-49012166D01*
X3240611Y-49203435D01*
X3281000Y-49406484D01*
X3281000Y-49613516D01*
X3240611Y-49816565D01*
X3161385Y-50007834D01*
X3046363Y-50179976D01*
X2899976Y-50326363D01*
X2727834Y-50441385D01*
X2536565Y-50520611D01*
X2333516Y-50561000D01*
X2126484Y-50561000D01*
X1923435Y-50520611D01*
X1732166Y-50441385D01*
X1560024Y-50326363D01*
X1413637Y-50179976D01*
X1298615Y-50007834D01*
X1219389Y-49816565D01*
X1179000Y-49613516D01*
X1179000Y-49406484D01*
X1219389Y-49203435D01*
X1298615Y-49012166D01*
X1413637Y-48840024D01*
X1560024Y-48693637D01*
X1732166Y-48578615D01*
X1923435Y-48499389D01*
X2126484Y-48459000D01*
X2333516Y-48459000D01*
X2536565Y-48499389D01*
X2536565Y-48499389D01*
G37*
G36*
X5076565Y-45959389D02*
X5267834Y-46038615D01*
X5439976Y-46153637D01*
X5586363Y-46300024D01*
X5701385Y-46472166D01*
X5780611Y-46663435D01*
X5821000Y-46866484D01*
X5821000Y-47073516D01*
X5780611Y-47276565D01*
X5701385Y-47467834D01*
X5586363Y-47639976D01*
X5439976Y-47786363D01*
X5267834Y-47901385D01*
X5076565Y-47980611D01*
X4873516Y-48021000D01*
X4666484Y-48021000D01*
X4463435Y-47980611D01*
X4272166Y-47901385D01*
X4100024Y-47786363D01*
X3953637Y-47639976D01*
X3838615Y-47467834D01*
X3759389Y-47276565D01*
X3719000Y-47073516D01*
X3719000Y-46866484D01*
X3759389Y-46663435D01*
X3838615Y-46472166D01*
X3953637Y-46300024D01*
X4100024Y-46153637D01*
X4272166Y-46038615D01*
X4463435Y-45959389D01*
X4666484Y-45919000D01*
X4873516Y-45919000D01*
X5076565Y-45959389D01*
X5076565Y-45959389D01*
G37*
G36*
X2536565Y-45959389D02*
X2727834Y-46038615D01*
X2899976Y-46153637D01*
X3046363Y-46300024D01*
X3161385Y-46472166D01*
X3240611Y-46663435D01*
X3281000Y-46866484D01*
X3281000Y-47073516D01*
X3240611Y-47276565D01*
X3161385Y-47467834D01*
X3046363Y-47639976D01*
X2899976Y-47786363D01*
X2727834Y-47901385D01*
X2536565Y-47980611D01*
X2333516Y-48021000D01*
X2126484Y-48021000D01*
X1923435Y-47980611D01*
X1732166Y-47901385D01*
X1560024Y-47786363D01*
X1413637Y-47639976D01*
X1298615Y-47467834D01*
X1219389Y-47276565D01*
X1179000Y-47073516D01*
X1179000Y-46866484D01*
X1219389Y-46663435D01*
X1298615Y-46472166D01*
X1413637Y-46300024D01*
X1560024Y-46153637D01*
X1732166Y-46038615D01*
X1923435Y-45959389D01*
X2126484Y-45919000D01*
X2333516Y-45919000D01*
X2536565Y-45959389D01*
X2536565Y-45959389D01*
G37*
G36*
X5076565Y-43419389D02*
X5267834Y-43498615D01*
X5439976Y-43613637D01*
X5586363Y-43760024D01*
X5701385Y-43932166D01*
X5780611Y-44123435D01*
X5821000Y-44326484D01*
X5821000Y-44533516D01*
X5780611Y-44736565D01*
X5701385Y-44927834D01*
X5586363Y-45099976D01*
X5439976Y-45246363D01*
X5267834Y-45361385D01*
X5076565Y-45440611D01*
X4873516Y-45481000D01*
X4666484Y-45481000D01*
X4463435Y-45440611D01*
X4272166Y-45361385D01*
X4100024Y-45246363D01*
X3953637Y-45099976D01*
X3838615Y-44927834D01*
X3759389Y-44736565D01*
X3719000Y-44533516D01*
X3719000Y-44326484D01*
X3759389Y-44123435D01*
X3838615Y-43932166D01*
X3953637Y-43760024D01*
X4100024Y-43613637D01*
X4272166Y-43498615D01*
X4463435Y-43419389D01*
X4666484Y-43379000D01*
X4873516Y-43379000D01*
X5076565Y-43419389D01*
X5076565Y-43419389D01*
G37*
G36*
X2536565Y-43419389D02*
X2727834Y-43498615D01*
X2899976Y-43613637D01*
X3046363Y-43760024D01*
X3161385Y-43932166D01*
X3240611Y-44123435D01*
X3281000Y-44326484D01*
X3281000Y-44533516D01*
X3240611Y-44736565D01*
X3161385Y-44927834D01*
X3046363Y-45099976D01*
X2899976Y-45246363D01*
X2727834Y-45361385D01*
X2536565Y-45440611D01*
X2333516Y-45481000D01*
X2126484Y-45481000D01*
X1923435Y-45440611D01*
X1732166Y-45361385D01*
X1560024Y-45246363D01*
X1413637Y-45099976D01*
X1298615Y-44927834D01*
X1219389Y-44736565D01*
X1179000Y-44533516D01*
X1179000Y-44326484D01*
X1219389Y-44123435D01*
X1298615Y-43932166D01*
X1413637Y-43760024D01*
X1560024Y-43613637D01*
X1732166Y-43498615D01*
X1923435Y-43419389D01*
X2126484Y-43379000D01*
X2333516Y-43379000D01*
X2536565Y-43419389D01*
X2536565Y-43419389D01*
G37*
G36*
X5076565Y-40879389D02*
X5267834Y-40958615D01*
X5439976Y-41073637D01*
X5586363Y-41220024D01*
X5701385Y-41392166D01*
X5780611Y-41583435D01*
X5821000Y-41786484D01*
X5821000Y-41993516D01*
X5780611Y-42196565D01*
X5701385Y-42387834D01*
X5586363Y-42559976D01*
X5439976Y-42706363D01*
X5267834Y-42821385D01*
X5076565Y-42900611D01*
X4873516Y-42941000D01*
X4666484Y-42941000D01*
X4463435Y-42900611D01*
X4272166Y-42821385D01*
X4100024Y-42706363D01*
X3953637Y-42559976D01*
X3838615Y-42387834D01*
X3759389Y-42196565D01*
X3719000Y-41993516D01*
X3719000Y-41786484D01*
X3759389Y-41583435D01*
X3838615Y-41392166D01*
X3953637Y-41220024D01*
X4100024Y-41073637D01*
X4272166Y-40958615D01*
X4463435Y-40879389D01*
X4666484Y-40839000D01*
X4873516Y-40839000D01*
X5076565Y-40879389D01*
X5076565Y-40879389D01*
G37*
G36*
X2536565Y-40879389D02*
X2727834Y-40958615D01*
X2899976Y-41073637D01*
X3046363Y-41220024D01*
X3161385Y-41392166D01*
X3240611Y-41583435D01*
X3281000Y-41786484D01*
X3281000Y-41993516D01*
X3240611Y-42196565D01*
X3161385Y-42387834D01*
X3046363Y-42559976D01*
X2899976Y-42706363D01*
X2727834Y-42821385D01*
X2536565Y-42900611D01*
X2333516Y-42941000D01*
X2126484Y-42941000D01*
X1923435Y-42900611D01*
X1732166Y-42821385D01*
X1560024Y-42706363D01*
X1413637Y-42559976D01*
X1298615Y-42387834D01*
X1219389Y-42196565D01*
X1179000Y-41993516D01*
X1179000Y-41786484D01*
X1219389Y-41583435D01*
X1298615Y-41392166D01*
X1413637Y-41220024D01*
X1560024Y-41073637D01*
X1732166Y-40958615D01*
X1923435Y-40879389D01*
X2126484Y-40839000D01*
X2333516Y-40839000D01*
X2536565Y-40879389D01*
X2536565Y-40879389D01*
G37*
G36*
X5076565Y-38339389D02*
X5267834Y-38418615D01*
X5439976Y-38533637D01*
X5586363Y-38680024D01*
X5701385Y-38852166D01*
X5780611Y-39043435D01*
X5821000Y-39246484D01*
X5821000Y-39453516D01*
X5780611Y-39656565D01*
X5701385Y-39847834D01*
X5586363Y-40019976D01*
X5439976Y-40166363D01*
X5267834Y-40281385D01*
X5076565Y-40360611D01*
X4873516Y-40401000D01*
X4666484Y-40401000D01*
X4463435Y-40360611D01*
X4272166Y-40281385D01*
X4100024Y-40166363D01*
X3953637Y-40019976D01*
X3838615Y-39847834D01*
X3759389Y-39656565D01*
X3719000Y-39453516D01*
X3719000Y-39246484D01*
X3759389Y-39043435D01*
X3838615Y-38852166D01*
X3953637Y-38680024D01*
X4100024Y-38533637D01*
X4272166Y-38418615D01*
X4463435Y-38339389D01*
X4666484Y-38299000D01*
X4873516Y-38299000D01*
X5076565Y-38339389D01*
X5076565Y-38339389D01*
G37*
G36*
X2536565Y-38339389D02*
X2727834Y-38418615D01*
X2899976Y-38533637D01*
X3046363Y-38680024D01*
X3161385Y-38852166D01*
X3240611Y-39043435D01*
X3281000Y-39246484D01*
X3281000Y-39453516D01*
X3240611Y-39656565D01*
X3161385Y-39847834D01*
X3046363Y-40019976D01*
X2899976Y-40166363D01*
X2727834Y-40281385D01*
X2536565Y-40360611D01*
X2333516Y-40401000D01*
X2126484Y-40401000D01*
X1923435Y-40360611D01*
X1732166Y-40281385D01*
X1560024Y-40166363D01*
X1413637Y-40019976D01*
X1298615Y-39847834D01*
X1219389Y-39656565D01*
X1179000Y-39453516D01*
X1179000Y-39246484D01*
X1219389Y-39043435D01*
X1298615Y-38852166D01*
X1413637Y-38680024D01*
X1560024Y-38533637D01*
X1732166Y-38418615D01*
X1923435Y-38339389D01*
X2126484Y-38299000D01*
X2333516Y-38299000D01*
X2536565Y-38339389D01*
X2536565Y-38339389D01*
G37*
G36*
X2536565Y-35799389D02*
X2727834Y-35878615D01*
X2899976Y-35993637D01*
X3046363Y-36140024D01*
X3161385Y-36312166D01*
X3240611Y-36503435D01*
X3281000Y-36706484D01*
X3281000Y-36913516D01*
X3240611Y-37116565D01*
X3161385Y-37307834D01*
X3046363Y-37479976D01*
X2899976Y-37626363D01*
X2727834Y-37741385D01*
X2536565Y-37820611D01*
X2333516Y-37861000D01*
X2126484Y-37861000D01*
X1923435Y-37820611D01*
X1732166Y-37741385D01*
X1560024Y-37626363D01*
X1413637Y-37479976D01*
X1298615Y-37307834D01*
X1219389Y-37116565D01*
X1179000Y-36913516D01*
X1179000Y-36706484D01*
X1219389Y-36503435D01*
X1298615Y-36312166D01*
X1413637Y-36140024D01*
X1560024Y-35993637D01*
X1732166Y-35878615D01*
X1923435Y-35799389D01*
X2126484Y-35759000D01*
X2333516Y-35759000D01*
X2536565Y-35799389D01*
X2536565Y-35799389D01*
G37*
G36*
X5076565Y-35799389D02*
X5267834Y-35878615D01*
X5439976Y-35993637D01*
X5586363Y-36140024D01*
X5701385Y-36312166D01*
X5780611Y-36503435D01*
X5821000Y-36706484D01*
X5821000Y-36913516D01*
X5780611Y-37116565D01*
X5701385Y-37307834D01*
X5586363Y-37479976D01*
X5439976Y-37626363D01*
X5267834Y-37741385D01*
X5076565Y-37820611D01*
X4873516Y-37861000D01*
X4666484Y-37861000D01*
X4463435Y-37820611D01*
X4272166Y-37741385D01*
X4100024Y-37626363D01*
X3953637Y-37479976D01*
X3838615Y-37307834D01*
X3759389Y-37116565D01*
X3719000Y-36913516D01*
X3719000Y-36706484D01*
X3759389Y-36503435D01*
X3838615Y-36312166D01*
X3953637Y-36140024D01*
X4100024Y-35993637D01*
X4272166Y-35878615D01*
X4463435Y-35799389D01*
X4666484Y-35759000D01*
X4873516Y-35759000D01*
X5076565Y-35799389D01*
X5076565Y-35799389D01*
G37*
G36*
X5076565Y-33259389D02*
X5267834Y-33338615D01*
X5439976Y-33453637D01*
X5586363Y-33600024D01*
X5701385Y-33772166D01*
X5780611Y-33963435D01*
X5821000Y-34166484D01*
X5821000Y-34373516D01*
X5780611Y-34576565D01*
X5701385Y-34767834D01*
X5586363Y-34939976D01*
X5439976Y-35086363D01*
X5267834Y-35201385D01*
X5076565Y-35280611D01*
X4873516Y-35321000D01*
X4666484Y-35321000D01*
X4463435Y-35280611D01*
X4272166Y-35201385D01*
X4100024Y-35086363D01*
X3953637Y-34939976D01*
X3838615Y-34767834D01*
X3759389Y-34576565D01*
X3719000Y-34373516D01*
X3719000Y-34166484D01*
X3759389Y-33963435D01*
X3838615Y-33772166D01*
X3953637Y-33600024D01*
X4100024Y-33453637D01*
X4272166Y-33338615D01*
X4463435Y-33259389D01*
X4666484Y-33219000D01*
X4873516Y-33219000D01*
X5076565Y-33259389D01*
X5076565Y-33259389D01*
G37*
G36*
X2536565Y-33259389D02*
X2727834Y-33338615D01*
X2899976Y-33453637D01*
X3046363Y-33600024D01*
X3161385Y-33772166D01*
X3240611Y-33963435D01*
X3281000Y-34166484D01*
X3281000Y-34373516D01*
X3240611Y-34576565D01*
X3161385Y-34767834D01*
X3046363Y-34939976D01*
X2899976Y-35086363D01*
X2727834Y-35201385D01*
X2536565Y-35280611D01*
X2333516Y-35321000D01*
X2126484Y-35321000D01*
X1923435Y-35280611D01*
X1732166Y-35201385D01*
X1560024Y-35086363D01*
X1413637Y-34939976D01*
X1298615Y-34767834D01*
X1219389Y-34576565D01*
X1179000Y-34373516D01*
X1179000Y-34166484D01*
X1219389Y-33963435D01*
X1298615Y-33772166D01*
X1413637Y-33600024D01*
X1560024Y-33453637D01*
X1732166Y-33338615D01*
X1923435Y-33259389D01*
X2126484Y-33219000D01*
X2333516Y-33219000D01*
X2536565Y-33259389D01*
X2536565Y-33259389D01*
G37*
G36*
X2536565Y-30719389D02*
X2727834Y-30798615D01*
X2899976Y-30913637D01*
X3046363Y-31060024D01*
X3161385Y-31232166D01*
X3240611Y-31423435D01*
X3281000Y-31626484D01*
X3281000Y-31833516D01*
X3240611Y-32036565D01*
X3161385Y-32227834D01*
X3046363Y-32399976D01*
X2899976Y-32546363D01*
X2727834Y-32661385D01*
X2536565Y-32740611D01*
X2333516Y-32781000D01*
X2126484Y-32781000D01*
X1923435Y-32740611D01*
X1732166Y-32661385D01*
X1560024Y-32546363D01*
X1413637Y-32399976D01*
X1298615Y-32227834D01*
X1219389Y-32036565D01*
X1179000Y-31833516D01*
X1179000Y-31626484D01*
X1219389Y-31423435D01*
X1298615Y-31232166D01*
X1413637Y-31060024D01*
X1560024Y-30913637D01*
X1732166Y-30798615D01*
X1923435Y-30719389D01*
X2126484Y-30679000D01*
X2333516Y-30679000D01*
X2536565Y-30719389D01*
X2536565Y-30719389D01*
G37*
G36*
X5076565Y-30719389D02*
X5267834Y-30798615D01*
X5439976Y-30913637D01*
X5586363Y-31060024D01*
X5701385Y-31232166D01*
X5780611Y-31423435D01*
X5821000Y-31626484D01*
X5821000Y-31833516D01*
X5780611Y-32036565D01*
X5701385Y-32227834D01*
X5586363Y-32399976D01*
X5439976Y-32546363D01*
X5267834Y-32661385D01*
X5076565Y-32740611D01*
X4873516Y-32781000D01*
X4666484Y-32781000D01*
X4463435Y-32740611D01*
X4272166Y-32661385D01*
X4100024Y-32546363D01*
X3953637Y-32399976D01*
X3838615Y-32227834D01*
X3759389Y-32036565D01*
X3719000Y-31833516D01*
X3719000Y-31626484D01*
X3759389Y-31423435D01*
X3838615Y-31232166D01*
X3953637Y-31060024D01*
X4100024Y-30913637D01*
X4272166Y-30798615D01*
X4463435Y-30719389D01*
X4666484Y-30679000D01*
X4873516Y-30679000D01*
X5076565Y-30719389D01*
X5076565Y-30719389D01*
G37*
G36*
X2536565Y-28179389D02*
X2727834Y-28258615D01*
X2899976Y-28373637D01*
X3046363Y-28520024D01*
X3161385Y-28692166D01*
X3240611Y-28883435D01*
X3281000Y-29086484D01*
X3281000Y-29293516D01*
X3240611Y-29496565D01*
X3161385Y-29687834D01*
X3046363Y-29859976D01*
X2899976Y-30006363D01*
X2727834Y-30121385D01*
X2536565Y-30200611D01*
X2333516Y-30241000D01*
X2126484Y-30241000D01*
X1923435Y-30200611D01*
X1732166Y-30121385D01*
X1560024Y-30006363D01*
X1413637Y-29859976D01*
X1298615Y-29687834D01*
X1219389Y-29496565D01*
X1179000Y-29293516D01*
X1179000Y-29086484D01*
X1219389Y-28883435D01*
X1298615Y-28692166D01*
X1413637Y-28520024D01*
X1560024Y-28373637D01*
X1732166Y-28258615D01*
X1923435Y-28179389D01*
X2126484Y-28139000D01*
X2333516Y-28139000D01*
X2536565Y-28179389D01*
X2536565Y-28179389D01*
G37*
G36*
X5076565Y-28179389D02*
X5267834Y-28258615D01*
X5439976Y-28373637D01*
X5586363Y-28520024D01*
X5701385Y-28692166D01*
X5780611Y-28883435D01*
X5821000Y-29086484D01*
X5821000Y-29293516D01*
X5780611Y-29496565D01*
X5701385Y-29687834D01*
X5586363Y-29859976D01*
X5439976Y-30006363D01*
X5267834Y-30121385D01*
X5076565Y-30200611D01*
X4873516Y-30241000D01*
X4666484Y-30241000D01*
X4463435Y-30200611D01*
X4272166Y-30121385D01*
X4100024Y-30006363D01*
X3953637Y-29859976D01*
X3838615Y-29687834D01*
X3759389Y-29496565D01*
X3719000Y-29293516D01*
X3719000Y-29086484D01*
X3759389Y-28883435D01*
X3838615Y-28692166D01*
X3953637Y-28520024D01*
X4100024Y-28373637D01*
X4272166Y-28258615D01*
X4463435Y-28179389D01*
X4666484Y-28139000D01*
X4873516Y-28139000D01*
X5076565Y-28179389D01*
X5076565Y-28179389D01*
G37*
G36*
X5076565Y-25639389D02*
X5267834Y-25718615D01*
X5439976Y-25833637D01*
X5586363Y-25980024D01*
X5701385Y-26152166D01*
X5780611Y-26343435D01*
X5821000Y-26546484D01*
X5821000Y-26753516D01*
X5780611Y-26956565D01*
X5701385Y-27147834D01*
X5586363Y-27319976D01*
X5439976Y-27466363D01*
X5267834Y-27581385D01*
X5076565Y-27660611D01*
X4873516Y-27701000D01*
X4666484Y-27701000D01*
X4463435Y-27660611D01*
X4272166Y-27581385D01*
X4100024Y-27466363D01*
X3953637Y-27319976D01*
X3838615Y-27147834D01*
X3759389Y-26956565D01*
X3719000Y-26753516D01*
X3719000Y-26546484D01*
X3759389Y-26343435D01*
X3838615Y-26152166D01*
X3953637Y-25980024D01*
X4100024Y-25833637D01*
X4272166Y-25718615D01*
X4463435Y-25639389D01*
X4666484Y-25599000D01*
X4873516Y-25599000D01*
X5076565Y-25639389D01*
X5076565Y-25639389D01*
G37*
G36*
X2536565Y-25639389D02*
X2727834Y-25718615D01*
X2899976Y-25833637D01*
X3046363Y-25980024D01*
X3161385Y-26152166D01*
X3240611Y-26343435D01*
X3281000Y-26546484D01*
X3281000Y-26753516D01*
X3240611Y-26956565D01*
X3161385Y-27147834D01*
X3046363Y-27319976D01*
X2899976Y-27466363D01*
X2727834Y-27581385D01*
X2536565Y-27660611D01*
X2333516Y-27701000D01*
X2126484Y-27701000D01*
X1923435Y-27660611D01*
X1732166Y-27581385D01*
X1560024Y-27466363D01*
X1413637Y-27319976D01*
X1298615Y-27147834D01*
X1219389Y-26956565D01*
X1179000Y-26753516D01*
X1179000Y-26546484D01*
X1219389Y-26343435D01*
X1298615Y-26152166D01*
X1413637Y-25980024D01*
X1560024Y-25833637D01*
X1732166Y-25718615D01*
X1923435Y-25639389D01*
X2126484Y-25599000D01*
X2333516Y-25599000D01*
X2536565Y-25639389D01*
X2536565Y-25639389D01*
G37*
G36*
X5076565Y-23099389D02*
X5267834Y-23178615D01*
X5439976Y-23293637D01*
X5586363Y-23440024D01*
X5701385Y-23612166D01*
X5780611Y-23803435D01*
X5821000Y-24006484D01*
X5821000Y-24213516D01*
X5780611Y-24416565D01*
X5701385Y-24607834D01*
X5586363Y-24779976D01*
X5439976Y-24926363D01*
X5267834Y-25041385D01*
X5076565Y-25120611D01*
X4873516Y-25161000D01*
X4666484Y-25161000D01*
X4463435Y-25120611D01*
X4272166Y-25041385D01*
X4100024Y-24926363D01*
X3953637Y-24779976D01*
X3838615Y-24607834D01*
X3759389Y-24416565D01*
X3719000Y-24213516D01*
X3719000Y-24006484D01*
X3759389Y-23803435D01*
X3838615Y-23612166D01*
X3953637Y-23440024D01*
X4100024Y-23293637D01*
X4272166Y-23178615D01*
X4463435Y-23099389D01*
X4666484Y-23059000D01*
X4873516Y-23059000D01*
X5076565Y-23099389D01*
X5076565Y-23099389D01*
G37*
G36*
X2536565Y-23099389D02*
X2727834Y-23178615D01*
X2899976Y-23293637D01*
X3046363Y-23440024D01*
X3161385Y-23612166D01*
X3240611Y-23803435D01*
X3281000Y-24006484D01*
X3281000Y-24213516D01*
X3240611Y-24416565D01*
X3161385Y-24607834D01*
X3046363Y-24779976D01*
X2899976Y-24926363D01*
X2727834Y-25041385D01*
X2536565Y-25120611D01*
X2333516Y-25161000D01*
X2126484Y-25161000D01*
X1923435Y-25120611D01*
X1732166Y-25041385D01*
X1560024Y-24926363D01*
X1413637Y-24779976D01*
X1298615Y-24607834D01*
X1219389Y-24416565D01*
X1179000Y-24213516D01*
X1179000Y-24006484D01*
X1219389Y-23803435D01*
X1298615Y-23612166D01*
X1413637Y-23440024D01*
X1560024Y-23293637D01*
X1732166Y-23178615D01*
X1923435Y-23099389D01*
X2126484Y-23059000D01*
X2333516Y-23059000D01*
X2536565Y-23099389D01*
X2536565Y-23099389D01*
G37*
G36*
X2536565Y-20559389D02*
X2727834Y-20638615D01*
X2899976Y-20753637D01*
X3046363Y-20900024D01*
X3161385Y-21072166D01*
X3240611Y-21263435D01*
X3281000Y-21466484D01*
X3281000Y-21673516D01*
X3240611Y-21876565D01*
X3161385Y-22067834D01*
X3046363Y-22239976D01*
X2899976Y-22386363D01*
X2727834Y-22501385D01*
X2536565Y-22580611D01*
X2333516Y-22621000D01*
X2126484Y-22621000D01*
X1923435Y-22580611D01*
X1732166Y-22501385D01*
X1560024Y-22386363D01*
X1413637Y-22239976D01*
X1298615Y-22067834D01*
X1219389Y-21876565D01*
X1179000Y-21673516D01*
X1179000Y-21466484D01*
X1219389Y-21263435D01*
X1298615Y-21072166D01*
X1413637Y-20900024D01*
X1560024Y-20753637D01*
X1732166Y-20638615D01*
X1923435Y-20559389D01*
X2126484Y-20519000D01*
X2333516Y-20519000D01*
X2536565Y-20559389D01*
X2536565Y-20559389D01*
G37*
G36*
X5076565Y-20559389D02*
X5267834Y-20638615D01*
X5439976Y-20753637D01*
X5586363Y-20900024D01*
X5701385Y-21072166D01*
X5780611Y-21263435D01*
X5821000Y-21466484D01*
X5821000Y-21673516D01*
X5780611Y-21876565D01*
X5701385Y-22067834D01*
X5586363Y-22239976D01*
X5439976Y-22386363D01*
X5267834Y-22501385D01*
X5076565Y-22580611D01*
X4873516Y-22621000D01*
X4666484Y-22621000D01*
X4463435Y-22580611D01*
X4272166Y-22501385D01*
X4100024Y-22386363D01*
X3953637Y-22239976D01*
X3838615Y-22067834D01*
X3759389Y-21876565D01*
X3719000Y-21673516D01*
X3719000Y-21466484D01*
X3759389Y-21263435D01*
X3838615Y-21072166D01*
X3953637Y-20900024D01*
X4100024Y-20753637D01*
X4272166Y-20638615D01*
X4463435Y-20559389D01*
X4666484Y-20519000D01*
X4873516Y-20519000D01*
X5076565Y-20559389D01*
X5076565Y-20559389D01*
G37*
G36*
X5076565Y-18019389D02*
X5267834Y-18098615D01*
X5439976Y-18213637D01*
X5586363Y-18360024D01*
X5701385Y-18532166D01*
X5780611Y-18723435D01*
X5821000Y-18926484D01*
X5821000Y-19133516D01*
X5780611Y-19336565D01*
X5701385Y-19527834D01*
X5586363Y-19699976D01*
X5439976Y-19846363D01*
X5267834Y-19961385D01*
X5076565Y-20040611D01*
X4873516Y-20081000D01*
X4666484Y-20081000D01*
X4463435Y-20040611D01*
X4272166Y-19961385D01*
X4100024Y-19846363D01*
X3953637Y-19699976D01*
X3838615Y-19527834D01*
X3759389Y-19336565D01*
X3719000Y-19133516D01*
X3719000Y-18926484D01*
X3759389Y-18723435D01*
X3838615Y-18532166D01*
X3953637Y-18360024D01*
X4100024Y-18213637D01*
X4272166Y-18098615D01*
X4463435Y-18019389D01*
X4666484Y-17979000D01*
X4873516Y-17979000D01*
X5076565Y-18019389D01*
X5076565Y-18019389D01*
G37*
G36*
X2536565Y-18019389D02*
X2727834Y-18098615D01*
X2899976Y-18213637D01*
X3046363Y-18360024D01*
X3161385Y-18532166D01*
X3240611Y-18723435D01*
X3281000Y-18926484D01*
X3281000Y-19133516D01*
X3240611Y-19336565D01*
X3161385Y-19527834D01*
X3046363Y-19699976D01*
X2899976Y-19846363D01*
X2727834Y-19961385D01*
X2536565Y-20040611D01*
X2333516Y-20081000D01*
X2126484Y-20081000D01*
X1923435Y-20040611D01*
X1732166Y-19961385D01*
X1560024Y-19846363D01*
X1413637Y-19699976D01*
X1298615Y-19527834D01*
X1219389Y-19336565D01*
X1179000Y-19133516D01*
X1179000Y-18926484D01*
X1219389Y-18723435D01*
X1298615Y-18532166D01*
X1413637Y-18360024D01*
X1560024Y-18213637D01*
X1732166Y-18098615D01*
X1923435Y-18019389D01*
X2126484Y-17979000D01*
X2333516Y-17979000D01*
X2536565Y-18019389D01*
X2536565Y-18019389D01*
G37*
G36*
X2536565Y-15479389D02*
X2727834Y-15558615D01*
X2899976Y-15673637D01*
X3046363Y-15820024D01*
X3161385Y-15992166D01*
X3240611Y-16183435D01*
X3281000Y-16386484D01*
X3281000Y-16593516D01*
X3240611Y-16796565D01*
X3161385Y-16987834D01*
X3046363Y-17159976D01*
X2899976Y-17306363D01*
X2727834Y-17421385D01*
X2536565Y-17500611D01*
X2333516Y-17541000D01*
X2126484Y-17541000D01*
X1923435Y-17500611D01*
X1732166Y-17421385D01*
X1560024Y-17306363D01*
X1413637Y-17159976D01*
X1298615Y-16987834D01*
X1219389Y-16796565D01*
X1179000Y-16593516D01*
X1179000Y-16386484D01*
X1219389Y-16183435D01*
X1298615Y-15992166D01*
X1413637Y-15820024D01*
X1560024Y-15673637D01*
X1732166Y-15558615D01*
X1923435Y-15479389D01*
X2126484Y-15439000D01*
X2333516Y-15439000D01*
X2536565Y-15479389D01*
X2536565Y-15479389D01*
G37*
G36*
X5076565Y-15479389D02*
X5267834Y-15558615D01*
X5439976Y-15673637D01*
X5586363Y-15820024D01*
X5701385Y-15992166D01*
X5780611Y-16183435D01*
X5821000Y-16386484D01*
X5821000Y-16593516D01*
X5780611Y-16796565D01*
X5701385Y-16987834D01*
X5586363Y-17159976D01*
X5439976Y-17306363D01*
X5267834Y-17421385D01*
X5076565Y-17500611D01*
X4873516Y-17541000D01*
X4666484Y-17541000D01*
X4463435Y-17500611D01*
X4272166Y-17421385D01*
X4100024Y-17306363D01*
X3953637Y-17159976D01*
X3838615Y-16987834D01*
X3759389Y-16796565D01*
X3719000Y-16593516D01*
X3719000Y-16386484D01*
X3759389Y-16183435D01*
X3838615Y-15992166D01*
X3953637Y-15820024D01*
X4100024Y-15673637D01*
X4272166Y-15558615D01*
X4463435Y-15479389D01*
X4666484Y-15439000D01*
X4873516Y-15439000D01*
X5076565Y-15479389D01*
X5076565Y-15479389D01*
G37*
G36*
X5076565Y-12939389D02*
X5267834Y-13018615D01*
X5439976Y-13133637D01*
X5586363Y-13280024D01*
X5701385Y-13452166D01*
X5780611Y-13643435D01*
X5821000Y-13846484D01*
X5821000Y-14053516D01*
X5780611Y-14256565D01*
X5701385Y-14447834D01*
X5586363Y-14619976D01*
X5439976Y-14766363D01*
X5267834Y-14881385D01*
X5076565Y-14960611D01*
X4873516Y-15001000D01*
X4666484Y-15001000D01*
X4463435Y-14960611D01*
X4272166Y-14881385D01*
X4100024Y-14766363D01*
X3953637Y-14619976D01*
X3838615Y-14447834D01*
X3759389Y-14256565D01*
X3719000Y-14053516D01*
X3719000Y-13846484D01*
X3759389Y-13643435D01*
X3838615Y-13452166D01*
X3953637Y-13280024D01*
X4100024Y-13133637D01*
X4272166Y-13018615D01*
X4463435Y-12939389D01*
X4666484Y-12899000D01*
X4873516Y-12899000D01*
X5076565Y-12939389D01*
X5076565Y-12939389D01*
G37*
G36*
X2536565Y-12939389D02*
X2727834Y-13018615D01*
X2899976Y-13133637D01*
X3046363Y-13280024D01*
X3161385Y-13452166D01*
X3240611Y-13643435D01*
X3281000Y-13846484D01*
X3281000Y-14053516D01*
X3240611Y-14256565D01*
X3161385Y-14447834D01*
X3046363Y-14619976D01*
X2899976Y-14766363D01*
X2727834Y-14881385D01*
X2536565Y-14960611D01*
X2333516Y-15001000D01*
X2126484Y-15001000D01*
X1923435Y-14960611D01*
X1732166Y-14881385D01*
X1560024Y-14766363D01*
X1413637Y-14619976D01*
X1298615Y-14447834D01*
X1219389Y-14256565D01*
X1179000Y-14053516D01*
X1179000Y-13846484D01*
X1219389Y-13643435D01*
X1298615Y-13452166D01*
X1413637Y-13280024D01*
X1560024Y-13133637D01*
X1732166Y-13018615D01*
X1923435Y-12939389D01*
X2126484Y-12899000D01*
X2333516Y-12899000D01*
X2536565Y-12939389D01*
X2536565Y-12939389D01*
G37*
G36*
X5076565Y-10399389D02*
X5267834Y-10478615D01*
X5439976Y-10593637D01*
X5586363Y-10740024D01*
X5701385Y-10912166D01*
X5780611Y-11103435D01*
X5821000Y-11306484D01*
X5821000Y-11513516D01*
X5780611Y-11716565D01*
X5701385Y-11907834D01*
X5586363Y-12079976D01*
X5439976Y-12226363D01*
X5267834Y-12341385D01*
X5076565Y-12420611D01*
X4873516Y-12461000D01*
X4666484Y-12461000D01*
X4463435Y-12420611D01*
X4272166Y-12341385D01*
X4100024Y-12226363D01*
X3953637Y-12079976D01*
X3838615Y-11907834D01*
X3759389Y-11716565D01*
X3719000Y-11513516D01*
X3719000Y-11306484D01*
X3759389Y-11103435D01*
X3838615Y-10912166D01*
X3953637Y-10740024D01*
X4100024Y-10593637D01*
X4272166Y-10478615D01*
X4463435Y-10399389D01*
X4666484Y-10359000D01*
X4873516Y-10359000D01*
X5076565Y-10399389D01*
X5076565Y-10399389D01*
G37*
G36*
X2536565Y-10399389D02*
X2727834Y-10478615D01*
X2899976Y-10593637D01*
X3046363Y-10740024D01*
X3161385Y-10912166D01*
X3240611Y-11103435D01*
X3281000Y-11306484D01*
X3281000Y-11513516D01*
X3240611Y-11716565D01*
X3161385Y-11907834D01*
X3046363Y-12079976D01*
X2899976Y-12226363D01*
X2727834Y-12341385D01*
X2536565Y-12420611D01*
X2333516Y-12461000D01*
X2126484Y-12461000D01*
X1923435Y-12420611D01*
X1732166Y-12341385D01*
X1560024Y-12226363D01*
X1413637Y-12079976D01*
X1298615Y-11907834D01*
X1219389Y-11716565D01*
X1179000Y-11513516D01*
X1179000Y-11306484D01*
X1219389Y-11103435D01*
X1298615Y-10912166D01*
X1413637Y-10740024D01*
X1560024Y-10593637D01*
X1732166Y-10478615D01*
X1923435Y-10399389D01*
X2126484Y-10359000D01*
X2333516Y-10359000D01*
X2536565Y-10399389D01*
X2536565Y-10399389D01*
G37*
G36*
X5076565Y-7859389D02*
X5267834Y-7938615D01*
X5439976Y-8053637D01*
X5586363Y-8200024D01*
X5701385Y-8372166D01*
X5780611Y-8563435D01*
X5821000Y-8766484D01*
X5821000Y-8973516D01*
X5780611Y-9176565D01*
X5701385Y-9367834D01*
X5586363Y-9539976D01*
X5439976Y-9686363D01*
X5267834Y-9801385D01*
X5076565Y-9880611D01*
X4873516Y-9921000D01*
X4666484Y-9921000D01*
X4463435Y-9880611D01*
X4272166Y-9801385D01*
X4100024Y-9686363D01*
X3953637Y-9539976D01*
X3838615Y-9367834D01*
X3759389Y-9176565D01*
X3719000Y-8973516D01*
X3719000Y-8766484D01*
X3759389Y-8563435D01*
X3838615Y-8372166D01*
X3953637Y-8200024D01*
X4100024Y-8053637D01*
X4272166Y-7938615D01*
X4463435Y-7859389D01*
X4666484Y-7819000D01*
X4873516Y-7819000D01*
X5076565Y-7859389D01*
X5076565Y-7859389D01*
G37*
G36*
X2536565Y-7859389D02*
X2727834Y-7938615D01*
X2899976Y-8053637D01*
X3046363Y-8200024D01*
X3161385Y-8372166D01*
X3240611Y-8563435D01*
X3281000Y-8766484D01*
X3281000Y-8973516D01*
X3240611Y-9176565D01*
X3161385Y-9367834D01*
X3046363Y-9539976D01*
X2899976Y-9686363D01*
X2727834Y-9801385D01*
X2536565Y-9880611D01*
X2333516Y-9921000D01*
X2126484Y-9921000D01*
X1923435Y-9880611D01*
X1732166Y-9801385D01*
X1560024Y-9686363D01*
X1413637Y-9539976D01*
X1298615Y-9367834D01*
X1219389Y-9176565D01*
X1179000Y-8973516D01*
X1179000Y-8766484D01*
X1219389Y-8563435D01*
X1298615Y-8372166D01*
X1413637Y-8200024D01*
X1560024Y-8053637D01*
X1732166Y-7938615D01*
X1923435Y-7859389D01*
X2126484Y-7819000D01*
X2333516Y-7819000D01*
X2536565Y-7859389D01*
X2536565Y-7859389D01*
G37*
M02*
