M48
; DRILL file {KiCad 5.1.4+dfsg1-1~bpo9+1} date Tue 26 Nov 2019 05:32:16 PM CET
; FORMAT={-:-/ absolute / metric / decimal}
; #@! TF.CreationDate,2019-11-26T17:32:16+01:00
; #@! TF.GenerationSoftware,Kicad,Pcbnew,5.1.4+dfsg1-1~bpo9+1
; #@! TF.FileFunction,Plated,1,6,PTH
FMAT,2
METRIC
T1C0.150
T2C0.200
T3C0.700
T4C1.000
T5C2.750
%
G90
G05
T1
X34.17Y-31.21
X34.48Y-86.588
X34.625Y-88.175
X34.71Y-56.39
X34.78Y-60.17
X34.82Y-85.86
X35.42Y-58.87
X35.43Y-37.46
X35.615Y-39.26
X35.615Y-40.435
X35.615Y-43.76
X35.71Y-56.36
X35.77Y-50.61
X35.78Y-46.55
X35.82Y-60.11
X35.915Y-48.255
X36.26Y-58.885
X36.27Y-53.97
X36.27Y-70.95
X36.46Y-32.04
X36.729Y-56.441
X36.73Y-60.22
X37.05Y-89.05
X37.058Y-46.666
X37.182Y-58.715
X37.2Y-74.26
X37.39Y-31.2
X37.4Y-62.89
X37.485Y-62.175
X37.535Y-44.68
X37.598Y-57.05
X37.705Y-61.38
X37.707Y-57.869
X37.91Y-64.92
X38.1Y-62.647
X38.2Y-32.05
X38.27Y-88.63
X38.28Y-91.55
X38.38Y-61.63
X38.92Y-88.06
X39.51Y-88.63
X39.54Y-91.48
X39.663Y-56.45
X39.79Y-87.7
X39.8Y-37.35
X40.07Y-32.25
X40.159Y-57.649
X40.23Y-60.68
X40.25Y-42.16
X40.42Y-81.46
X40.718Y-61.147
X40.73Y-69.82
X40.75Y-65.71
X40.75Y-68.41
X40.79Y-67.0
X40.83Y-32.468
X40.85Y-57.83
X40.92Y-35.54
X40.96Y-33.13
X40.97Y-34.7
X40.97Y-37.87
X40.975Y-75.51
X41.165Y-41.55
X41.201Y-64.399
X41.75Y-38.275
X41.775Y-53.22
X41.81Y-46.85
X42.21Y-60.08
X42.24Y-41.36
X42.42Y-47.875
X42.77Y-34.12
X42.98Y-49.58
X42.99Y-51.9
X43.02Y-82.71
X43.04Y-54.38
X43.05Y-35.85
X43.12Y-45.68
X43.3Y-59.0
X43.3Y-60.0
X43.3Y-61.0
X43.7Y-38.15
X43.7Y-63.375
X43.8Y-58.5
X43.8Y-59.5
X43.89Y-60.527
X43.9Y-61.55
X43.92Y-75.56
X44.039Y-43.361
X44.48Y-93.42
X44.55Y-49.6
X44.55Y-51.84
X44.65Y-48.675
X44.8Y-38.1
X44.8Y-42.6
X44.9Y-35.85
X44.93Y-31.04
X45.09Y-54.365
X45.4Y-89.92
X45.8Y-38.1
X45.8Y-42.6
X45.92Y-31.04
X45.94Y-64.6
X46.03Y-65.61
X46.04Y-49.65
X46.04Y-51.8
X46.05Y-44.4
X46.13Y-61.73
X46.39Y-56.59
X46.5Y-65.035
X46.55Y-43.1
X46.6Y-62.3
X46.655Y-40.595
X46.8Y-66.15
X46.875Y-48.55
X46.9Y-74.55
X46.93Y-31.04
X47.05Y-36.85
X47.05Y-37.85
X47.05Y-44.1
X47.09Y-56.59
X47.136Y-42.014
X47.14Y-40.125
X47.15Y-63.65
X47.2Y-44.85
X47.2Y-62.9
X47.275Y-66.675
X47.4Y-58.45
X47.48Y-49.62
X47.825Y-35.475
X47.91Y-31.04
X47.96Y-33.28
X48.48Y-49.86
X48.51Y-95.1
X48.67Y-33.13
X48.775Y-48.575
X49.0Y-45.55
X49.36Y-38.39
X49.49Y-49.67
X49.55Y-51.83
X49.67Y-41.5
X49.704Y-45.852
X49.8Y-47.85
X50.09Y-31.71
X50.175Y-32.483
X50.2Y-64.55
X50.2Y-65.95
X50.475Y-45.95
X50.475Y-48.475
X50.571Y-62.889
X50.601Y-58.571
X50.67Y-72.35
X50.7Y-69.05
X50.761Y-60.081
X50.8Y-67.85
X50.861Y-66.111
X50.91Y-31.04
X51.0Y-57.75
X51.049Y-62.411
X51.07Y-51.79
X51.079Y-59.049
X51.08Y-49.69
X51.1Y-63.95
X51.207Y-57.108
X51.239Y-60.559
X51.28Y-75.3
X51.3Y-61.45
X51.339Y-66.589
X51.52Y-76.67
X51.53Y-52.93
X51.8Y-57.65
X51.888Y-31.04
X52.3Y-78.0
X52.57Y-49.68
X52.69Y-93.41
X52.8Y-34.6
X52.8Y-47.85
X52.9Y-31.04
X52.99Y-57.65
X53.11Y-74.425
X53.84Y-57.86
X53.92Y-31.04
X54.01Y-49.6
X54.02Y-51.59
X54.2Y-78.05
X54.3Y-46.15
X54.36Y-46.95
X54.7Y-62.15
X54.93Y-31.04
X55.1Y-53.45
X55.3Y-45.6
X55.4Y-47.75
X55.59Y-51.63
X55.6Y-49.6
X55.64Y-56.525
X55.67Y-41.71
X55.8Y-34.85
X55.87Y-90.86
X55.95Y-31.04
X56.3Y-47.85
X56.89Y-31.04
X57.0Y-45.45
X57.04Y-51.6
X57.08Y-49.59
X57.28Y-79.11
X57.294Y-53.569
X57.49Y-59.27
X57.55Y-48.6
X57.719Y-53.045
X57.9Y-78.6
X57.95Y-31.04
X57.97Y-52.37
X58.2Y-38.15
X58.27Y-80.25
X58.275Y-76.0
X58.42Y-37.49
X58.53Y-43.9
X58.54Y-79.39
X58.57Y-49.63
X58.57Y-51.65
X58.64Y-48.27
X58.7Y-62.05
X58.91Y-31.04
X58.996Y-45.726
X59.22Y-81.1
X59.3Y-47.85
X59.3Y-52.43
X59.33Y-78.7
X59.339Y-71.125
X59.501Y-60.209
X59.7Y-50.3
X59.851Y-62.431
X59.889Y-51.161
X59.9Y-31.04
X59.979Y-59.731
X60.05Y-72.0
X60.1Y-58.45
X60.11Y-81.18
X60.275Y-36.27
X60.3Y-34.35
X60.3Y-39.85
X60.3Y-43.85
X60.329Y-62.909
X60.5Y-38.35
X60.5Y-59.25
X60.55Y-56.05
X60.6Y-65.25
X60.6Y-67.15
X60.6Y-68.05
X60.75Y-91.91
X60.835Y-82.715
X60.84Y-54.2
X60.9Y-72.0
X60.92Y-33.79
X60.94Y-31.04
X61.02Y-86.65
X61.2Y-39.35
X61.223Y-55.995
X61.32Y-36.26
X61.4Y-55.15
X61.4Y-63.05
X61.4Y-66.05
X61.4Y-75.922
X61.86Y-34.25
X61.9Y-48.05
X61.95Y-31.04
X62.24Y-54.48
X62.39Y-41.27
X62.52Y-35.37
X62.63Y-76.11
X62.66Y-48.037
X62.97Y-54.58
X63.3Y-48.25
X63.44Y-43.2
X63.49Y-53.93
X63.58Y-93.04
X63.62Y-47.49
X63.76Y-46.81
X63.772Y-48.866
X64.02Y-33.445
X64.165Y-35.29
X64.411Y-60.239
X64.56Y-65.15
X64.64Y-66.1
X64.723Y-67.073
X64.889Y-59.761
X64.99Y-74.922
X64.99Y-75.597
X65.116Y-46.018
X65.125Y-41.675
X65.15Y-43.26
X65.163Y-66.527
X65.2Y-64.45
X65.2Y-65.45
X65.2Y-67.55
X65.29Y-50.37
X65.3Y-77.0
X65.4Y-40.75
X65.5Y-58.55
X65.5Y-61.55
X65.63Y-45.58
X65.845Y-49.696
X66.382Y-50.22
X67.031Y-76.161
X67.057Y-50.22
X67.509Y-76.639
X67.617Y-52.167
X67.7Y-68.05
X67.81Y-50.575
X67.9Y-61.75
X67.9Y-64.95
X67.94Y-33.46
X67.99Y-46.86
X68.044Y-49.398
X68.09Y-41.788
X68.13Y-39.71
X68.17Y-43.12
X68.3Y-77.0
X68.34Y-57.07
X68.436Y-59.494
X68.51Y-53.17
X68.58Y-43.705
X68.675Y-46.869
X68.73Y-49.96
X68.92Y-36.36
X69.15Y-46.34
X69.19Y-56.5
X69.22Y-55.08
X69.4Y-57.45
X69.483Y-50.08
X69.836Y-46.504
X69.98Y-39.635
X70.13Y-56.13
X70.157Y-50.08
X70.17Y-41.29
X70.37Y-46.93
X70.429Y-45.717
X70.56Y-63.06
X70.678Y-69.487
X70.89Y-41.788
X70.9Y-56.31
X70.98Y-43.41
X71.0Y-50.05
X71.05Y-65.48
X71.09Y-68.92
X71.12Y-66.51
X71.155Y-64.655
X71.16Y-45.78
X71.16Y-72.05
X71.2Y-67.43
X71.21Y-70.96
X71.3Y-46.75
X71.3Y-77.0
X71.325Y-63.604
X71.441Y-75.639
X71.72Y-56.31
X71.79Y-49.84
X71.88Y-45.605
X71.919Y-75.161
X71.95Y-63.35
X72.2Y-41.15
X72.45Y-56.13
X72.462Y-46.0
X72.6Y-63.02
X72.61Y-61.05
X72.66Y-51.28
X73.1Y-55.15
X73.138Y-46.0
X73.21Y-55.97
X73.6Y-49.75
X73.84Y-68.99
X73.88Y-71.22
X73.9Y-55.8
X73.9Y-66.56
X73.9Y-67.52
X73.971Y-56.979
X73.975Y-65.41
X74.02Y-72.28
X74.25Y-64.49
X74.3Y-49.75
X74.3Y-77.0
X74.56Y-62.11
X74.6Y-69.812
X74.6Y-70.487
X74.66Y-69.11
X74.7Y-58.22
X74.8Y-51.05
X74.997Y-57.355
X75.0Y-41.15
X75.0Y-42.325
X75.0Y-43.55
X75.0Y-44.75
X75.0Y-56.15
X75.26Y-53.06
X75.29Y-70.288
X75.3Y-63.0
X75.3Y-79.575
X75.358Y-56.784
X75.55Y-76.0
X76.178Y-49.592
X76.21Y-51.72
X76.3Y-79.575
X76.55Y-54.0
X76.55Y-55.0
X76.8Y-58.5
X76.8Y-60.85
X76.95Y-71.81
X77.3Y-69.25
X77.3Y-79.575
X77.35Y-44.3
X77.55Y-68.35
X78.05Y-76.0
X78.3Y-63.0
X78.3Y-79.575
X78.35Y-44.35
X78.55Y-60.75
X78.8Y-51.5
X78.8Y-74.5
X79.05Y-66.0
X79.2Y-45.65
X79.2Y-79.65
T2
X50.45Y-38.15
X50.45Y-39.55
X50.45Y-40.95
X50.45Y-42.35
X51.85Y-38.15
X51.85Y-39.55
X51.85Y-40.95
X51.85Y-42.35
X53.25Y-38.15
X53.25Y-39.55
X53.25Y-40.95
X53.25Y-42.35
X54.65Y-38.15
X54.65Y-39.55
X54.65Y-40.95
X54.65Y-42.35
T3
X36.99Y-49.74
X36.99Y-51.01
X36.99Y-52.28
X36.99Y-53.55
X36.99Y-54.82
X38.26Y-49.74
X38.26Y-51.01
X38.26Y-52.28
X38.26Y-53.55
X38.26Y-54.82
X58.04Y-86.37
X58.04Y-87.64
X58.04Y-88.91
X58.04Y-90.18
X58.04Y-91.45
X59.31Y-86.37
X59.31Y-87.64
X59.31Y-88.91
X59.31Y-90.18
X59.31Y-91.45
T4
X30.03Y-39.12
X30.03Y-41.66
X30.03Y-44.2
X30.03Y-46.74
X30.03Y-49.28
X30.03Y-51.82
X30.03Y-54.36
X30.03Y-56.9
X30.03Y-59.44
X30.03Y-61.98
X30.03Y-64.52
X30.03Y-67.06
X30.03Y-69.6
X30.03Y-72.14
X30.03Y-74.68
X30.03Y-77.22
X30.03Y-79.76
X30.03Y-82.3
X30.03Y-84.84
X30.03Y-87.38
X32.57Y-39.12
X32.57Y-41.66
X32.57Y-44.2
X32.57Y-46.74
X32.57Y-49.28
X32.57Y-51.82
X32.57Y-54.36
X32.57Y-56.9
X32.57Y-59.44
X32.57Y-61.98
X32.57Y-64.52
X32.57Y-67.06
X32.57Y-69.6
X32.57Y-72.14
X32.57Y-74.68
X32.57Y-77.22
X32.57Y-79.76
X32.57Y-82.3
X32.57Y-84.84
X32.57Y-87.38
T5
X31.3Y-92.25
X80.3Y-92.25
X31.3Y-34.25
X80.3Y-34.25
T0
M30
