G04 #@! TF.GenerationSoftware,KiCad,Pcbnew,5.1.4+dfsg1-1~bpo9+1*
G04 #@! TF.CreationDate,2019-11-25T12:29:00+01:00*
G04 #@! TF.ProjectId,zglue-demo-board,7a676c75-652d-4646-956d-6f2d626f6172,rev?*
G04 #@! TF.SameCoordinates,Original*
G04 #@! TF.FileFunction,Legend,Bot*
G04 #@! TF.FilePolarity,Positive*
%FSLAX46Y46*%
G04 Gerber Fmt 4.6, Leading zero omitted, Abs format (unit mm)*
G04 Created by KiCad (PCBNEW 5.1.4+dfsg1-1~bpo9+1) date 2019-11-25 12:29:00*
%MOMM*%
%LPD*%
G04 APERTURE LIST*
%ADD10C,0.150000*%
%ADD11C,0.120000*%
%ADD12C,0.100000*%
%ADD13C,0.200000*%
G04 APERTURE END LIST*
D10*
X12243333Y-18548333D02*
X12309999Y-18515000D01*
X12376666Y-18448333D01*
X12476666Y-18348333D01*
X12543333Y-18315000D01*
X12609999Y-18315000D01*
X12576666Y-18481666D02*
X12643333Y-18448333D01*
X12709999Y-18381666D01*
X12743333Y-18248333D01*
X12743333Y-18015000D01*
X12709999Y-17881666D01*
X12643333Y-17815000D01*
X12576666Y-17781666D01*
X12443333Y-17781666D01*
X12376666Y-17815000D01*
X12309999Y-17881666D01*
X12276666Y-18015000D01*
X12276666Y-18248333D01*
X12309999Y-18381666D01*
X12376666Y-18448333D01*
X12443333Y-18481666D01*
X12576666Y-18481666D01*
X12010000Y-18448333D02*
X11910000Y-18481666D01*
X11743333Y-18481666D01*
X11676666Y-18448333D01*
X11643333Y-18415000D01*
X11610000Y-18348333D01*
X11610000Y-18281666D01*
X11643333Y-18215000D01*
X11676666Y-18181666D01*
X11743333Y-18148333D01*
X11876666Y-18115000D01*
X11943333Y-18081666D01*
X11976666Y-18048333D01*
X12010000Y-17981666D01*
X12010000Y-17915000D01*
X11976666Y-17848333D01*
X11943333Y-17815000D01*
X11876666Y-17781666D01*
X11710000Y-17781666D01*
X11610000Y-17815000D01*
X11309999Y-18481666D02*
X11309999Y-17781666D01*
X11043333Y-17781666D01*
X10976666Y-17815000D01*
X10943333Y-17848333D01*
X10909999Y-17915000D01*
X10909999Y-18015000D01*
X10943333Y-18081666D01*
X10976666Y-18115000D01*
X11043333Y-18148333D01*
X11309999Y-18148333D01*
X10609999Y-18481666D02*
X10609999Y-17781666D01*
X9509999Y-18115000D02*
X9743333Y-18115000D01*
X9743333Y-18481666D02*
X9743333Y-17781666D01*
X9409999Y-17781666D01*
X8809999Y-18481666D02*
X9143333Y-18481666D01*
X9143333Y-17781666D01*
X8609999Y-18281666D02*
X8276666Y-18281666D01*
X8676666Y-18481666D02*
X8443333Y-17781666D01*
X8209999Y-18481666D01*
X8009999Y-18448333D02*
X7909999Y-18481666D01*
X7743333Y-18481666D01*
X7676666Y-18448333D01*
X7643333Y-18415000D01*
X7609999Y-18348333D01*
X7609999Y-18281666D01*
X7643333Y-18215000D01*
X7676666Y-18181666D01*
X7743333Y-18148333D01*
X7876666Y-18115000D01*
X7943333Y-18081666D01*
X7976666Y-18048333D01*
X8009999Y-17981666D01*
X8009999Y-17915000D01*
X7976666Y-17848333D01*
X7943333Y-17815000D01*
X7876666Y-17781666D01*
X7709999Y-17781666D01*
X7609999Y-17815000D01*
X7309999Y-18481666D02*
X7309999Y-17781666D01*
X7309999Y-18115000D02*
X6909999Y-18115000D01*
X6909999Y-18481666D02*
X6909999Y-17781666D01*
X31831666Y-62176666D02*
X31831666Y-62676666D01*
X31865000Y-62776666D01*
X31931666Y-62843333D01*
X32031666Y-62876666D01*
X32098333Y-62876666D01*
X31598333Y-62176666D02*
X31198333Y-62176666D01*
X31398333Y-62876666D02*
X31398333Y-62176666D01*
X30998333Y-62676666D02*
X30665000Y-62676666D01*
X31065000Y-62876666D02*
X30831666Y-62176666D01*
X30598333Y-62876666D01*
X29998333Y-62210000D02*
X30065000Y-62176666D01*
X30165000Y-62176666D01*
X30265000Y-62210000D01*
X30331666Y-62276666D01*
X30365000Y-62343333D01*
X30398333Y-62476666D01*
X30398333Y-62576666D01*
X30365000Y-62710000D01*
X30331666Y-62776666D01*
X30265000Y-62843333D01*
X30165000Y-62876666D01*
X30098333Y-62876666D01*
X29998333Y-62843333D01*
X29965000Y-62810000D01*
X29965000Y-62576666D01*
X30098333Y-62576666D01*
X13703333Y-59360000D02*
X13770000Y-59326666D01*
X13870000Y-59326666D01*
X13970000Y-59360000D01*
X14036666Y-59426666D01*
X14070000Y-59493333D01*
X14103333Y-59626666D01*
X14103333Y-59726666D01*
X14070000Y-59860000D01*
X14036666Y-59926666D01*
X13970000Y-59993333D01*
X13870000Y-60026666D01*
X13803333Y-60026666D01*
X13703333Y-59993333D01*
X13670000Y-59960000D01*
X13670000Y-59726666D01*
X13803333Y-59726666D01*
X13370000Y-60026666D02*
X13370000Y-59326666D01*
X12970000Y-60026666D01*
X12970000Y-59326666D01*
X12636666Y-60026666D02*
X12636666Y-59326666D01*
X12470000Y-59326666D01*
X12370000Y-59360000D01*
X12303333Y-59426666D01*
X12270000Y-59493333D01*
X12236666Y-59626666D01*
X12236666Y-59726666D01*
X12270000Y-59860000D01*
X12303333Y-59926666D01*
X12370000Y-59993333D01*
X12470000Y-60026666D01*
X12636666Y-60026666D01*
X9053333Y-59326666D02*
X9386666Y-59326666D01*
X9420000Y-59660000D01*
X9386666Y-59626666D01*
X9320000Y-59593333D01*
X9153333Y-59593333D01*
X9086666Y-59626666D01*
X9053333Y-59660000D01*
X9020000Y-59726666D01*
X9020000Y-59893333D01*
X9053333Y-59960000D01*
X9086666Y-59993333D01*
X9153333Y-60026666D01*
X9320000Y-60026666D01*
X9386666Y-59993333D01*
X9420000Y-59960000D01*
X8820000Y-59326666D02*
X8586666Y-60026666D01*
X8353333Y-59326666D01*
D11*
X28860000Y-14610000D02*
X29360000Y-14610000D01*
X29360000Y-14610000D02*
X29360000Y-14110000D01*
X20640000Y-5390000D02*
X20140000Y-5390000D01*
X20140000Y-5390000D02*
X20140000Y-5890000D01*
X28860000Y-5390000D02*
X29360000Y-5390000D01*
X29360000Y-5390000D02*
X29360000Y-5890000D01*
X20640000Y-14610000D02*
X20140000Y-14610000D01*
D12*
X9778114Y-11330000D02*
G75*
G03X9778114Y-11330000I-158114J0D01*
G01*
X14900000Y-11770000D02*
X14900000Y-15070000D01*
X9560000Y-11770000D02*
X9560000Y-15070000D01*
X49975000Y-32125000D02*
X48025000Y-32125000D01*
X49975000Y-32225000D02*
X48025000Y-32225000D01*
X49975000Y-29675000D02*
X49750000Y-29675000D01*
X49975000Y-29975000D02*
X49975000Y-29675000D01*
X48025000Y-29675000D02*
X48025000Y-29925000D01*
X48275000Y-29675000D02*
X48025000Y-29675000D01*
X49975000Y-32325000D02*
X48025000Y-32325000D01*
X49975000Y-31975000D02*
X49975000Y-32325000D01*
X48025000Y-31975000D02*
X48025000Y-32325000D01*
D11*
X18950000Y-47700000D02*
X23050000Y-47700000D01*
X23050000Y-47700000D02*
X23050000Y-45700000D01*
X23050000Y-45700000D02*
X18950000Y-45700000D01*
X18950000Y-45700000D02*
X18950000Y-47700000D01*
X19700000Y-45500000D02*
X19400000Y-45200000D01*
X19400000Y-45200000D02*
X20000000Y-45200000D01*
X19700000Y-45500000D02*
X20000000Y-45200000D01*
D10*
X41750000Y-24700000D02*
X41450000Y-24700000D01*
X41450000Y-24700000D02*
X41450000Y-24550000D01*
X41750000Y-21900000D02*
X41450000Y-21900000D01*
X41450000Y-21900000D02*
X41450000Y-22100000D01*
X44450000Y-21900000D02*
X44750000Y-21900000D01*
X44750000Y-21900000D02*
X44750000Y-22100000D01*
X44450000Y-24700000D02*
X44750000Y-24700000D01*
X44750000Y-24700000D02*
X44750000Y-24550000D01*
D13*
X45000000Y-23950000D02*
G75*
G03X45000000Y-23950000I-100000J0D01*
G01*
D10*
X41750000Y-31200000D02*
X41450000Y-31200000D01*
X41450000Y-31200000D02*
X41450000Y-31050000D01*
X41750000Y-28400000D02*
X41450000Y-28400000D01*
X41450000Y-28400000D02*
X41450000Y-28600000D01*
X44450000Y-28400000D02*
X44750000Y-28400000D01*
X44750000Y-28400000D02*
X44750000Y-28600000D01*
X44450000Y-31200000D02*
X44750000Y-31200000D01*
X44750000Y-31200000D02*
X44750000Y-31050000D01*
D13*
X45000000Y-30450000D02*
G75*
G03X45000000Y-30450000I-100000J0D01*
G01*
D10*
X29350000Y-44600000D02*
X29650000Y-44600000D01*
X29650000Y-44600000D02*
X29650000Y-44750000D01*
X29350000Y-47400000D02*
X29650000Y-47400000D01*
X29650000Y-47400000D02*
X29650000Y-47200000D01*
X26650000Y-47400000D02*
X26350000Y-47400000D01*
X26350000Y-47400000D02*
X26350000Y-47200000D01*
X26650000Y-44600000D02*
X26350000Y-44600000D01*
X26350000Y-44600000D02*
X26350000Y-44750000D01*
D13*
X26300000Y-45350000D02*
G75*
G03X26300000Y-45350000I-100000J0D01*
G01*
D10*
X16550000Y-15340000D02*
X16550000Y-15040000D01*
X16550000Y-15040000D02*
X16700000Y-15040000D01*
X19350000Y-15340000D02*
X19350000Y-15040000D01*
X19350000Y-15040000D02*
X19150000Y-15040000D01*
X19350000Y-18040000D02*
X19350000Y-18340000D01*
X19350000Y-18340000D02*
X19150000Y-18340000D01*
X16550000Y-18040000D02*
X16550000Y-18340000D01*
X16550000Y-18340000D02*
X16700000Y-18340000D01*
D13*
X17400000Y-18490000D02*
G75*
G03X17400000Y-18490000I-100000J0D01*
G01*
X33010000Y-20520000D02*
G75*
G03X33010000Y-20520000I-100000J0D01*
G01*
D10*
X33060000Y-19770000D02*
X33060000Y-19920000D01*
X33360000Y-19770000D02*
X33060000Y-19770000D01*
X33060000Y-22570000D02*
X33060000Y-22370000D01*
X33360000Y-22570000D02*
X33060000Y-22570000D01*
X36360000Y-22570000D02*
X36360000Y-22370000D01*
X36060000Y-22570000D02*
X36360000Y-22570000D01*
X36360000Y-19770000D02*
X36360000Y-19920000D01*
X36060000Y-19770000D02*
X36360000Y-19770000D01*
D11*
X23220000Y-65850000D02*
X22295000Y-65850000D01*
X23220000Y-62150000D02*
X18520000Y-62150000D01*
X18420000Y-63725000D02*
X18420000Y-64275000D01*
X23320000Y-63725000D02*
X23320000Y-64275000D01*
X19445000Y-65850000D02*
X18520000Y-65850000D01*
D12*
X12870000Y-3350000D02*
X12870000Y-6360000D01*
X10640000Y-6350000D02*
X10640000Y-3330000D01*
X49975000Y-45125000D02*
X48025000Y-45125000D01*
X49975000Y-45225000D02*
X48025000Y-45225000D01*
X49975000Y-42675000D02*
X49750000Y-42675000D01*
X49975000Y-42975000D02*
X49975000Y-42675000D01*
X48025000Y-42675000D02*
X48025000Y-42925000D01*
X48275000Y-42675000D02*
X48025000Y-42675000D01*
X49975000Y-45325000D02*
X48025000Y-45325000D01*
X49975000Y-44975000D02*
X49975000Y-45325000D01*
X48025000Y-44975000D02*
X48025000Y-45325000D01*
X14745000Y-55425000D02*
X14745000Y-57375000D01*
X14845000Y-55425000D02*
X14845000Y-57375000D01*
X12295000Y-55425000D02*
X12295000Y-55650000D01*
X12595000Y-55425000D02*
X12295000Y-55425000D01*
X12295000Y-57375000D02*
X12545000Y-57375000D01*
X12295000Y-57125000D02*
X12295000Y-57375000D01*
X14945000Y-55425000D02*
X14945000Y-57375000D01*
X14595000Y-55425000D02*
X14945000Y-55425000D01*
X14595000Y-57375000D02*
X14945000Y-57375000D01*
D11*
X33550000Y-12900000D02*
X32950000Y-12900000D01*
X33550000Y-12300000D02*
X32950000Y-12300000D01*
D12*
X32325000Y-17250000D02*
X32050000Y-17250000D01*
X32050000Y-17250000D02*
X31675000Y-16975000D01*
X31675000Y-16975000D02*
X31675000Y-16925000D01*
X31675000Y-16925000D02*
X30900000Y-16925000D01*
X32150000Y-13950000D02*
X31675000Y-13950000D01*
X31675000Y-13950000D02*
X31675000Y-14300000D01*
X33325000Y-14175000D02*
X33325000Y-14300000D01*
X33325000Y-14250000D02*
X33325000Y-13950000D01*
X33325000Y-13950000D02*
X32875000Y-13950000D01*
X32950000Y-17250000D02*
X33325000Y-17250000D01*
X33325000Y-17250000D02*
X33325000Y-16950000D01*
D11*
X30050000Y-16550000D02*
X30050000Y-17150000D01*
X29450000Y-16550000D02*
X29450000Y-17150000D01*
X8150000Y-47700000D02*
X12250000Y-47700000D01*
X12250000Y-47700000D02*
X12250000Y-45700000D01*
X12250000Y-45700000D02*
X8150000Y-45700000D01*
X8150000Y-45700000D02*
X8150000Y-47700000D01*
X8900000Y-45500000D02*
X8600000Y-45200000D01*
X8600000Y-45200000D02*
X9200000Y-45200000D01*
X8900000Y-45500000D02*
X9200000Y-45200000D01*
X14200000Y-45500000D02*
X14500000Y-45200000D01*
X13900000Y-45200000D02*
X14500000Y-45200000D01*
X14200000Y-45500000D02*
X13900000Y-45200000D01*
X13450000Y-45700000D02*
X13450000Y-47700000D01*
X17550000Y-45700000D02*
X13450000Y-45700000D01*
X17550000Y-47700000D02*
X17550000Y-45700000D01*
X13450000Y-47700000D02*
X17550000Y-47700000D01*
X11700000Y-10880000D02*
X12300000Y-10880000D01*
X11700000Y-10280000D02*
X12300000Y-10280000D01*
X11700000Y-8860000D02*
X12300000Y-8860000D01*
X11700000Y-9460000D02*
X12300000Y-9460000D01*
D10*
X730001Y-58630000D02*
X730000Y-7370000D01*
X730000Y-7370000D02*
X6269999Y-7370000D01*
X6269999Y-7370000D02*
X6270000Y-58630000D01*
X6270000Y-58630000D02*
X4423333Y-58630000D01*
X4423333Y-58630000D02*
X4423333Y-58180000D01*
X4423333Y-58180000D02*
X2576667Y-58180000D01*
X2576667Y-58180000D02*
X2576667Y-58630000D01*
X2576667Y-58630000D02*
X730001Y-58630000D01*
D11*
X34790000Y-61360000D02*
X35390000Y-61360000D01*
X34790000Y-61960000D02*
X35390000Y-61960000D01*
X8950000Y-56950000D02*
X8950000Y-57550000D01*
X9550000Y-56950000D02*
X9550000Y-57550000D01*
X7825000Y-56950000D02*
X7825000Y-57550000D01*
X7225000Y-56950000D02*
X7225000Y-57550000D01*
X8350000Y-54950000D02*
X7750000Y-54950000D01*
X8350000Y-54350000D02*
X7750000Y-54350000D01*
D10*
X39508333Y-4945000D02*
X39841666Y-5178333D01*
X39508333Y-5345000D02*
X40208333Y-5345000D01*
X40208333Y-5078333D01*
X40175000Y-5011666D01*
X40141666Y-4978333D01*
X40075000Y-4945000D01*
X39975000Y-4945000D01*
X39908333Y-4978333D01*
X39875000Y-5011666D01*
X39841666Y-5078333D01*
X39841666Y-5345000D01*
X40208333Y-4311666D02*
X40208333Y-4645000D01*
X39875000Y-4678333D01*
X39908333Y-4645000D01*
X39941666Y-4578333D01*
X39941666Y-4411666D01*
X39908333Y-4345000D01*
X39875000Y-4311666D01*
X39808333Y-4278333D01*
X39641666Y-4278333D01*
X39575000Y-4311666D01*
X39541666Y-4345000D01*
X39508333Y-4411666D01*
X39508333Y-4578333D01*
X39541666Y-4645000D01*
X39575000Y-4678333D01*
X39508333Y-3945000D02*
X39508333Y-3811666D01*
X39541666Y-3745000D01*
X39575000Y-3711666D01*
X39675000Y-3645000D01*
X39808333Y-3611666D01*
X40075000Y-3611666D01*
X40141666Y-3645000D01*
X40175000Y-3678333D01*
X40208333Y-3745000D01*
X40208333Y-3878333D01*
X40175000Y-3945000D01*
X40141666Y-3978333D01*
X40075000Y-4011666D01*
X39908333Y-4011666D01*
X39841666Y-3978333D01*
X39808333Y-3945000D01*
X39775000Y-3878333D01*
X39775000Y-3745000D01*
X39808333Y-3678333D01*
X39841666Y-3645000D01*
X39908333Y-3611666D01*
X35918333Y-4975000D02*
X36251666Y-5208333D01*
X35918333Y-5375000D02*
X36618333Y-5375000D01*
X36618333Y-5108333D01*
X36585000Y-5041666D01*
X36551666Y-5008333D01*
X36485000Y-4975000D01*
X36385000Y-4975000D01*
X36318333Y-5008333D01*
X36285000Y-5041666D01*
X36251666Y-5108333D01*
X36251666Y-5375000D01*
X36618333Y-4341666D02*
X36618333Y-4675000D01*
X36285000Y-4708333D01*
X36318333Y-4675000D01*
X36351666Y-4608333D01*
X36351666Y-4441666D01*
X36318333Y-4375000D01*
X36285000Y-4341666D01*
X36218333Y-4308333D01*
X36051666Y-4308333D01*
X35985000Y-4341666D01*
X35951666Y-4375000D01*
X35918333Y-4441666D01*
X35918333Y-4608333D01*
X35951666Y-4675000D01*
X35985000Y-4708333D01*
X36318333Y-3908333D02*
X36351666Y-3975000D01*
X36385000Y-4008333D01*
X36451666Y-4041666D01*
X36485000Y-4041666D01*
X36551666Y-4008333D01*
X36585000Y-3975000D01*
X36618333Y-3908333D01*
X36618333Y-3775000D01*
X36585000Y-3708333D01*
X36551666Y-3675000D01*
X36485000Y-3641666D01*
X36451666Y-3641666D01*
X36385000Y-3675000D01*
X36351666Y-3708333D01*
X36318333Y-3775000D01*
X36318333Y-3908333D01*
X36285000Y-3975000D01*
X36251666Y-4008333D01*
X36185000Y-4041666D01*
X36051666Y-4041666D01*
X35985000Y-4008333D01*
X35951666Y-3975000D01*
X35918333Y-3908333D01*
X35918333Y-3775000D01*
X35951666Y-3708333D01*
X35985000Y-3675000D01*
X36051666Y-3641666D01*
X36185000Y-3641666D01*
X36251666Y-3675000D01*
X36285000Y-3708333D01*
X36318333Y-3775000D01*
X22803333Y-4370000D02*
X23136666Y-4603333D01*
X22803333Y-4770000D02*
X23503333Y-4770000D01*
X23503333Y-4503333D01*
X23470000Y-4436666D01*
X23436666Y-4403333D01*
X23370000Y-4370000D01*
X23270000Y-4370000D01*
X23203333Y-4403333D01*
X23170000Y-4436666D01*
X23136666Y-4503333D01*
X23136666Y-4770000D01*
X22803333Y-3703333D02*
X22803333Y-4103333D01*
X22803333Y-3903333D02*
X23503333Y-3903333D01*
X23403333Y-3970000D01*
X23336666Y-4036666D01*
X23303333Y-4103333D01*
X23503333Y-3070000D02*
X23503333Y-3403333D01*
X23170000Y-3436666D01*
X23203333Y-3403333D01*
X23236666Y-3336666D01*
X23236666Y-3170000D01*
X23203333Y-3103333D01*
X23170000Y-3070000D01*
X23103333Y-3036666D01*
X22936666Y-3036666D01*
X22870000Y-3070000D01*
X22836666Y-3103333D01*
X22803333Y-3170000D01*
X22803333Y-3336666D01*
X22836666Y-3403333D01*
X22870000Y-3436666D01*
X31453333Y-5826666D02*
X31453333Y-6393333D01*
X31420000Y-6460000D01*
X31386666Y-6493333D01*
X31320000Y-6526666D01*
X31186666Y-6526666D01*
X31120000Y-6493333D01*
X31086666Y-6460000D01*
X31053333Y-6393333D01*
X31053333Y-5826666D01*
X30420000Y-5826666D02*
X30553333Y-5826666D01*
X30620000Y-5860000D01*
X30653333Y-5893333D01*
X30720000Y-5993333D01*
X30753333Y-6126666D01*
X30753333Y-6393333D01*
X30720000Y-6460000D01*
X30686666Y-6493333D01*
X30620000Y-6526666D01*
X30486666Y-6526666D01*
X30420000Y-6493333D01*
X30386666Y-6460000D01*
X30353333Y-6393333D01*
X30353333Y-6226666D01*
X30386666Y-6160000D01*
X30420000Y-6126666D01*
X30486666Y-6093333D01*
X30620000Y-6093333D01*
X30686666Y-6126666D01*
X30720000Y-6160000D01*
X30753333Y-6226666D01*
X8733333Y-11683333D02*
X8733333Y-12016666D01*
X8966666Y-11316666D02*
X8733333Y-11683333D01*
X8500000Y-11316666D01*
X7900000Y-12016666D02*
X8300000Y-12016666D01*
X8100000Y-12016666D02*
X8100000Y-11316666D01*
X8166666Y-11416666D01*
X8233333Y-11483333D01*
X8300000Y-11516666D01*
X50683333Y-32516666D02*
X51383333Y-32516666D01*
X51383333Y-32350000D01*
X51350000Y-32250000D01*
X51283333Y-32183333D01*
X51216666Y-32150000D01*
X51083333Y-32116666D01*
X50983333Y-32116666D01*
X50850000Y-32150000D01*
X50783333Y-32183333D01*
X50716666Y-32250000D01*
X50683333Y-32350000D01*
X50683333Y-32516666D01*
X50683333Y-31450000D02*
X50683333Y-31850000D01*
X50683333Y-31650000D02*
X51383333Y-31650000D01*
X51283333Y-31716666D01*
X51216666Y-31783333D01*
X51183333Y-31850000D01*
X21583333Y-48116666D02*
X21583333Y-48616666D01*
X21616666Y-48716666D01*
X21683333Y-48783333D01*
X21783333Y-48816666D01*
X21850000Y-48816666D01*
X21250000Y-48816666D02*
X21250000Y-48116666D01*
X20983333Y-48116666D01*
X20916666Y-48150000D01*
X20883333Y-48183333D01*
X20850000Y-48250000D01*
X20850000Y-48350000D01*
X20883333Y-48416666D01*
X20916666Y-48450000D01*
X20983333Y-48483333D01*
X21250000Y-48483333D01*
X20183333Y-48816666D02*
X20583333Y-48816666D01*
X20383333Y-48816666D02*
X20383333Y-48116666D01*
X20450000Y-48216666D01*
X20516666Y-48283333D01*
X20583333Y-48316666D01*
X40553333Y-24493333D02*
X39986666Y-24493333D01*
X39920000Y-24460000D01*
X39886666Y-24426666D01*
X39853333Y-24360000D01*
X39853333Y-24226666D01*
X39886666Y-24160000D01*
X39920000Y-24126666D01*
X39986666Y-24093333D01*
X40553333Y-24093333D01*
X40320000Y-23460000D02*
X39853333Y-23460000D01*
X40586666Y-23626666D02*
X40086666Y-23793333D01*
X40086666Y-23360000D01*
X40553333Y-30243333D02*
X39986666Y-30243333D01*
X39920000Y-30210000D01*
X39886666Y-30176666D01*
X39853333Y-30110000D01*
X39853333Y-29976666D01*
X39886666Y-29910000D01*
X39920000Y-29876666D01*
X39986666Y-29843333D01*
X40553333Y-29843333D01*
X40553333Y-29576666D02*
X40553333Y-29143333D01*
X40286666Y-29376666D01*
X40286666Y-29276666D01*
X40253333Y-29210000D01*
X40220000Y-29176666D01*
X40153333Y-29143333D01*
X39986666Y-29143333D01*
X39920000Y-29176666D01*
X39886666Y-29210000D01*
X39853333Y-29276666D01*
X39853333Y-29476666D01*
X39886666Y-29543333D01*
X39920000Y-29576666D01*
X25147619Y-46561904D02*
X24338095Y-46561904D01*
X24242857Y-46514285D01*
X24195238Y-46466666D01*
X24147619Y-46371428D01*
X24147619Y-46180952D01*
X24195238Y-46085714D01*
X24242857Y-46038095D01*
X24338095Y-45990476D01*
X25147619Y-45990476D01*
X25052380Y-45561904D02*
X25100000Y-45514285D01*
X25147619Y-45419047D01*
X25147619Y-45180952D01*
X25100000Y-45085714D01*
X25052380Y-45038095D01*
X24957142Y-44990476D01*
X24861904Y-44990476D01*
X24719047Y-45038095D01*
X24147619Y-45609523D01*
X24147619Y-44990476D01*
X36456666Y-53346666D02*
X36056666Y-53346666D01*
X36256666Y-54046666D02*
X36256666Y-53346666D01*
X35823333Y-54046666D02*
X35823333Y-53346666D01*
X35556666Y-53346666D01*
X35490000Y-53380000D01*
X35456666Y-53413333D01*
X35423333Y-53480000D01*
X35423333Y-53580000D01*
X35456666Y-53646666D01*
X35490000Y-53680000D01*
X35556666Y-53713333D01*
X35823333Y-53713333D01*
X35156666Y-53413333D02*
X35123333Y-53380000D01*
X35056666Y-53346666D01*
X34890000Y-53346666D01*
X34823333Y-53380000D01*
X34790000Y-53413333D01*
X34756666Y-53480000D01*
X34756666Y-53546666D01*
X34790000Y-53646666D01*
X35190000Y-54046666D01*
X34756666Y-54046666D01*
X34323333Y-53346666D02*
X34256666Y-53346666D01*
X34190000Y-53380000D01*
X34156666Y-53413333D01*
X34123333Y-53480000D01*
X34090000Y-53613333D01*
X34090000Y-53780000D01*
X34123333Y-53913333D01*
X34156666Y-53980000D01*
X34190000Y-54013333D01*
X34256666Y-54046666D01*
X34323333Y-54046666D01*
X34390000Y-54013333D01*
X34423333Y-53980000D01*
X34456666Y-53913333D01*
X34490000Y-53780000D01*
X34490000Y-53613333D01*
X34456666Y-53480000D01*
X34423333Y-53413333D01*
X34390000Y-53380000D01*
X34323333Y-53346666D01*
X36456666Y-54946666D02*
X36056666Y-54946666D01*
X36256666Y-55646666D02*
X36256666Y-54946666D01*
X35823333Y-55646666D02*
X35823333Y-54946666D01*
X35556666Y-54946666D01*
X35490000Y-54980000D01*
X35456666Y-55013333D01*
X35423333Y-55080000D01*
X35423333Y-55180000D01*
X35456666Y-55246666D01*
X35490000Y-55280000D01*
X35556666Y-55313333D01*
X35823333Y-55313333D01*
X35156666Y-55013333D02*
X35123333Y-54980000D01*
X35056666Y-54946666D01*
X34890000Y-54946666D01*
X34823333Y-54980000D01*
X34790000Y-55013333D01*
X34756666Y-55080000D01*
X34756666Y-55146666D01*
X34790000Y-55246666D01*
X35190000Y-55646666D01*
X34756666Y-55646666D01*
X34090000Y-55646666D02*
X34490000Y-55646666D01*
X34290000Y-55646666D02*
X34290000Y-54946666D01*
X34356666Y-55046666D01*
X34423333Y-55113333D01*
X34490000Y-55146666D01*
X52856666Y-19936666D02*
X52456666Y-19936666D01*
X52656666Y-20636666D02*
X52656666Y-19936666D01*
X52223333Y-20636666D02*
X52223333Y-19936666D01*
X51956666Y-19936666D01*
X51890000Y-19970000D01*
X51856666Y-20003333D01*
X51823333Y-20070000D01*
X51823333Y-20170000D01*
X51856666Y-20236666D01*
X51890000Y-20270000D01*
X51956666Y-20303333D01*
X52223333Y-20303333D01*
X51556666Y-20003333D02*
X51523333Y-19970000D01*
X51456666Y-19936666D01*
X51290000Y-19936666D01*
X51223333Y-19970000D01*
X51190000Y-20003333D01*
X51156666Y-20070000D01*
X51156666Y-20136666D01*
X51190000Y-20236666D01*
X51590000Y-20636666D01*
X51156666Y-20636666D01*
X50923333Y-19936666D02*
X50490000Y-19936666D01*
X50723333Y-20203333D01*
X50623333Y-20203333D01*
X50556666Y-20236666D01*
X50523333Y-20270000D01*
X50490000Y-20336666D01*
X50490000Y-20503333D01*
X50523333Y-20570000D01*
X50556666Y-20603333D01*
X50623333Y-20636666D01*
X50823333Y-20636666D01*
X50890000Y-20603333D01*
X50923333Y-20570000D01*
X52896666Y-21387466D02*
X52496666Y-21387466D01*
X52696666Y-22087466D02*
X52696666Y-21387466D01*
X52263333Y-22087466D02*
X52263333Y-21387466D01*
X51996666Y-21387466D01*
X51930000Y-21420800D01*
X51896666Y-21454133D01*
X51863333Y-21520800D01*
X51863333Y-21620800D01*
X51896666Y-21687466D01*
X51930000Y-21720800D01*
X51996666Y-21754133D01*
X52263333Y-21754133D01*
X51596666Y-21454133D02*
X51563333Y-21420800D01*
X51496666Y-21387466D01*
X51330000Y-21387466D01*
X51263333Y-21420800D01*
X51230000Y-21454133D01*
X51196666Y-21520800D01*
X51196666Y-21587466D01*
X51230000Y-21687466D01*
X51630000Y-22087466D01*
X51196666Y-22087466D01*
X50930000Y-21454133D02*
X50896666Y-21420800D01*
X50830000Y-21387466D01*
X50663333Y-21387466D01*
X50596666Y-21420800D01*
X50563333Y-21454133D01*
X50530000Y-21520800D01*
X50530000Y-21587466D01*
X50563333Y-21687466D01*
X50963333Y-22087466D01*
X50530000Y-22087466D01*
X23633333Y-23516666D02*
X23633333Y-23116666D01*
X22933333Y-23316666D02*
X23633333Y-23316666D01*
X22933333Y-22883333D02*
X23633333Y-22883333D01*
X23633333Y-22616666D01*
X23600000Y-22550000D01*
X23566666Y-22516666D01*
X23500000Y-22483333D01*
X23400000Y-22483333D01*
X23333333Y-22516666D01*
X23300000Y-22550000D01*
X23266666Y-22616666D01*
X23266666Y-22883333D01*
X22933333Y-21816666D02*
X22933333Y-22216666D01*
X22933333Y-22016666D02*
X23633333Y-22016666D01*
X23533333Y-22083333D01*
X23466666Y-22150000D01*
X23433333Y-22216666D01*
X23633333Y-21383333D02*
X23633333Y-21316666D01*
X23600000Y-21250000D01*
X23566666Y-21216666D01*
X23500000Y-21183333D01*
X23366666Y-21150000D01*
X23200000Y-21150000D01*
X23066666Y-21183333D01*
X23000000Y-21216666D01*
X22966666Y-21250000D01*
X22933333Y-21316666D01*
X22933333Y-21383333D01*
X22966666Y-21450000D01*
X23000000Y-21483333D01*
X23066666Y-21516666D01*
X23200000Y-21550000D01*
X23366666Y-21550000D01*
X23500000Y-21516666D01*
X23566666Y-21483333D01*
X23600000Y-21450000D01*
X23633333Y-21383333D01*
X28133333Y-23183333D02*
X28133333Y-22783333D01*
X27433333Y-22983333D02*
X28133333Y-22983333D01*
X27433333Y-22550000D02*
X28133333Y-22550000D01*
X28133333Y-22283333D01*
X28100000Y-22216666D01*
X28066666Y-22183333D01*
X28000000Y-22150000D01*
X27900000Y-22150000D01*
X27833333Y-22183333D01*
X27800000Y-22216666D01*
X27766666Y-22283333D01*
X27766666Y-22550000D01*
X27833333Y-21750000D02*
X27866666Y-21816666D01*
X27900000Y-21850000D01*
X27966666Y-21883333D01*
X28000000Y-21883333D01*
X28066666Y-21850000D01*
X28100000Y-21816666D01*
X28133333Y-21750000D01*
X28133333Y-21616666D01*
X28100000Y-21550000D01*
X28066666Y-21516666D01*
X28000000Y-21483333D01*
X27966666Y-21483333D01*
X27900000Y-21516666D01*
X27866666Y-21550000D01*
X27833333Y-21616666D01*
X27833333Y-21750000D01*
X27800000Y-21816666D01*
X27766666Y-21850000D01*
X27700000Y-21883333D01*
X27566666Y-21883333D01*
X27500000Y-21850000D01*
X27466666Y-21816666D01*
X27433333Y-21750000D01*
X27433333Y-21616666D01*
X27466666Y-21550000D01*
X27500000Y-21516666D01*
X27566666Y-21483333D01*
X27700000Y-21483333D01*
X27766666Y-21516666D01*
X27800000Y-21550000D01*
X27833333Y-21616666D01*
X29633333Y-23183333D02*
X29633333Y-22783333D01*
X28933333Y-22983333D02*
X29633333Y-22983333D01*
X28933333Y-22550000D02*
X29633333Y-22550000D01*
X29633333Y-22283333D01*
X29600000Y-22216666D01*
X29566666Y-22183333D01*
X29500000Y-22150000D01*
X29400000Y-22150000D01*
X29333333Y-22183333D01*
X29300000Y-22216666D01*
X29266666Y-22283333D01*
X29266666Y-22550000D01*
X29633333Y-21916666D02*
X29633333Y-21450000D01*
X28933333Y-21750000D01*
X22133333Y-23183333D02*
X22133333Y-22783333D01*
X21433333Y-22983333D02*
X22133333Y-22983333D01*
X21433333Y-22550000D02*
X22133333Y-22550000D01*
X22133333Y-22283333D01*
X22100000Y-22216666D01*
X22066666Y-22183333D01*
X22000000Y-22150000D01*
X21900000Y-22150000D01*
X21833333Y-22183333D01*
X21800000Y-22216666D01*
X21766666Y-22283333D01*
X21766666Y-22550000D01*
X22133333Y-21550000D02*
X22133333Y-21683333D01*
X22100000Y-21750000D01*
X22066666Y-21783333D01*
X21966666Y-21850000D01*
X21833333Y-21883333D01*
X21566666Y-21883333D01*
X21500000Y-21850000D01*
X21466666Y-21816666D01*
X21433333Y-21750000D01*
X21433333Y-21616666D01*
X21466666Y-21550000D01*
X21500000Y-21516666D01*
X21566666Y-21483333D01*
X21733333Y-21483333D01*
X21800000Y-21516666D01*
X21833333Y-21550000D01*
X21866666Y-21616666D01*
X21866666Y-21750000D01*
X21833333Y-21816666D01*
X21800000Y-21850000D01*
X21733333Y-21883333D01*
X14383333Y-39000866D02*
X13983333Y-39000866D01*
X14183333Y-39700866D02*
X14183333Y-39000866D01*
X13750000Y-39700866D02*
X13750000Y-39000866D01*
X13483333Y-39000866D01*
X13416666Y-39034200D01*
X13383333Y-39067533D01*
X13350000Y-39134200D01*
X13350000Y-39234200D01*
X13383333Y-39300866D01*
X13416666Y-39334200D01*
X13483333Y-39367533D01*
X13750000Y-39367533D01*
X12750000Y-39234200D02*
X12750000Y-39700866D01*
X12916666Y-38967533D02*
X13083333Y-39467533D01*
X12650000Y-39467533D01*
X14383333Y-37651666D02*
X13983333Y-37651666D01*
X14183333Y-38351666D02*
X14183333Y-37651666D01*
X13750000Y-38351666D02*
X13750000Y-37651666D01*
X13483333Y-37651666D01*
X13416666Y-37685000D01*
X13383333Y-37718333D01*
X13350000Y-37785000D01*
X13350000Y-37885000D01*
X13383333Y-37951666D01*
X13416666Y-37985000D01*
X13483333Y-38018333D01*
X13750000Y-38018333D01*
X13116666Y-37651666D02*
X12683333Y-37651666D01*
X12916666Y-37918333D01*
X12816666Y-37918333D01*
X12750000Y-37951666D01*
X12716666Y-37985000D01*
X12683333Y-38051666D01*
X12683333Y-38218333D01*
X12716666Y-38285000D01*
X12750000Y-38318333D01*
X12816666Y-38351666D01*
X13016666Y-38351666D01*
X13083333Y-38318333D01*
X13116666Y-38285000D01*
X14383333Y-36200866D02*
X13983333Y-36200866D01*
X14183333Y-36900866D02*
X14183333Y-36200866D01*
X13750000Y-36900866D02*
X13750000Y-36200866D01*
X13483333Y-36200866D01*
X13416666Y-36234200D01*
X13383333Y-36267533D01*
X13350000Y-36334200D01*
X13350000Y-36434200D01*
X13383333Y-36500866D01*
X13416666Y-36534200D01*
X13483333Y-36567533D01*
X13750000Y-36567533D01*
X13083333Y-36267533D02*
X13050000Y-36234200D01*
X12983333Y-36200866D01*
X12816666Y-36200866D01*
X12750000Y-36234200D01*
X12716666Y-36267533D01*
X12683333Y-36334200D01*
X12683333Y-36400866D01*
X12716666Y-36500866D01*
X13116666Y-36900866D01*
X12683333Y-36900866D01*
X14383333Y-34800866D02*
X13983333Y-34800866D01*
X14183333Y-35500866D02*
X14183333Y-34800866D01*
X13750000Y-35500866D02*
X13750000Y-34800866D01*
X13483333Y-34800866D01*
X13416666Y-34834200D01*
X13383333Y-34867533D01*
X13350000Y-34934200D01*
X13350000Y-35034200D01*
X13383333Y-35100866D01*
X13416666Y-35134200D01*
X13483333Y-35167533D01*
X13750000Y-35167533D01*
X12683333Y-35500866D02*
X13083333Y-35500866D01*
X12883333Y-35500866D02*
X12883333Y-34800866D01*
X12950000Y-34900866D01*
X13016666Y-34967533D01*
X13083333Y-35000866D01*
X31133333Y-23183333D02*
X31133333Y-22783333D01*
X30433333Y-22983333D02*
X31133333Y-22983333D01*
X30433333Y-22550000D02*
X31133333Y-22550000D01*
X31133333Y-22283333D01*
X31100000Y-22216666D01*
X31066666Y-22183333D01*
X31000000Y-22150000D01*
X30900000Y-22150000D01*
X30833333Y-22183333D01*
X30800000Y-22216666D01*
X30766666Y-22283333D01*
X30766666Y-22550000D01*
X31133333Y-21516666D02*
X31133333Y-21850000D01*
X30800000Y-21883333D01*
X30833333Y-21850000D01*
X30866666Y-21783333D01*
X30866666Y-21616666D01*
X30833333Y-21550000D01*
X30800000Y-21516666D01*
X30733333Y-21483333D01*
X30566666Y-21483333D01*
X30500000Y-21516666D01*
X30466666Y-21550000D01*
X30433333Y-21616666D01*
X30433333Y-21783333D01*
X30466666Y-21850000D01*
X30500000Y-21883333D01*
X25184133Y-23183333D02*
X25184133Y-22783333D01*
X24484133Y-22983333D02*
X25184133Y-22983333D01*
X24484133Y-22550000D02*
X25184133Y-22550000D01*
X25184133Y-22283333D01*
X25150800Y-22216666D01*
X25117466Y-22183333D01*
X25050800Y-22150000D01*
X24950800Y-22150000D01*
X24884133Y-22183333D01*
X24850800Y-22216666D01*
X24817466Y-22283333D01*
X24817466Y-22550000D01*
X24484133Y-21816666D02*
X24484133Y-21683333D01*
X24517466Y-21616666D01*
X24550800Y-21583333D01*
X24650800Y-21516666D01*
X24784133Y-21483333D01*
X25050800Y-21483333D01*
X25117466Y-21516666D01*
X25150800Y-21550000D01*
X25184133Y-21616666D01*
X25184133Y-21750000D01*
X25150800Y-21816666D01*
X25117466Y-21850000D01*
X25050800Y-21883333D01*
X24884133Y-21883333D01*
X24817466Y-21850000D01*
X24784133Y-21816666D01*
X24750800Y-21750000D01*
X24750800Y-21616666D01*
X24784133Y-21550000D01*
X24817466Y-21516666D01*
X24884133Y-21483333D01*
X26633333Y-23516666D02*
X26633333Y-23116666D01*
X25933333Y-23316666D02*
X26633333Y-23316666D01*
X25933333Y-22883333D02*
X26633333Y-22883333D01*
X26633333Y-22616666D01*
X26600000Y-22550000D01*
X26566666Y-22516666D01*
X26500000Y-22483333D01*
X26400000Y-22483333D01*
X26333333Y-22516666D01*
X26300000Y-22550000D01*
X26266666Y-22616666D01*
X26266666Y-22883333D01*
X25933333Y-21816666D02*
X25933333Y-22216666D01*
X25933333Y-22016666D02*
X26633333Y-22016666D01*
X26533333Y-22083333D01*
X26466666Y-22150000D01*
X26433333Y-22216666D01*
X25933333Y-21150000D02*
X25933333Y-21550000D01*
X25933333Y-21350000D02*
X26633333Y-21350000D01*
X26533333Y-21416666D01*
X26466666Y-21483333D01*
X26433333Y-21550000D01*
X17133333Y-23516666D02*
X17133333Y-23116666D01*
X16433333Y-23316666D02*
X17133333Y-23316666D01*
X16433333Y-22883333D02*
X17133333Y-22883333D01*
X17133333Y-22616666D01*
X17100000Y-22550000D01*
X17066666Y-22516666D01*
X17000000Y-22483333D01*
X16900000Y-22483333D01*
X16833333Y-22516666D01*
X16800000Y-22550000D01*
X16766666Y-22616666D01*
X16766666Y-22883333D01*
X16433333Y-21816666D02*
X16433333Y-22216666D01*
X16433333Y-22016666D02*
X17133333Y-22016666D01*
X17033333Y-22083333D01*
X16966666Y-22150000D01*
X16933333Y-22216666D01*
X17133333Y-21583333D02*
X17133333Y-21150000D01*
X16866666Y-21383333D01*
X16866666Y-21283333D01*
X16833333Y-21216666D01*
X16800000Y-21183333D01*
X16733333Y-21150000D01*
X16566666Y-21150000D01*
X16500000Y-21183333D01*
X16466666Y-21216666D01*
X16433333Y-21283333D01*
X16433333Y-21483333D01*
X16466666Y-21550000D01*
X16500000Y-21583333D01*
X20082533Y-23516666D02*
X20082533Y-23116666D01*
X19382533Y-23316666D02*
X20082533Y-23316666D01*
X19382533Y-22883333D02*
X20082533Y-22883333D01*
X20082533Y-22616666D01*
X20049200Y-22550000D01*
X20015866Y-22516666D01*
X19949200Y-22483333D01*
X19849200Y-22483333D01*
X19782533Y-22516666D01*
X19749200Y-22550000D01*
X19715866Y-22616666D01*
X19715866Y-22883333D01*
X19382533Y-21816666D02*
X19382533Y-22216666D01*
X19382533Y-22016666D02*
X20082533Y-22016666D01*
X19982533Y-22083333D01*
X19915866Y-22150000D01*
X19882533Y-22216666D01*
X20082533Y-21183333D02*
X20082533Y-21516666D01*
X19749200Y-21550000D01*
X19782533Y-21516666D01*
X19815866Y-21450000D01*
X19815866Y-21283333D01*
X19782533Y-21216666D01*
X19749200Y-21183333D01*
X19682533Y-21150000D01*
X19515866Y-21150000D01*
X19449200Y-21183333D01*
X19415866Y-21216666D01*
X19382533Y-21283333D01*
X19382533Y-21450000D01*
X19415866Y-21516666D01*
X19449200Y-21550000D01*
X14666666Y-29225866D02*
X14266666Y-29225866D01*
X14466666Y-29925866D02*
X14466666Y-29225866D01*
X14033333Y-29925866D02*
X14033333Y-29225866D01*
X13766666Y-29225866D01*
X13700000Y-29259200D01*
X13666666Y-29292533D01*
X13633333Y-29359200D01*
X13633333Y-29459200D01*
X13666666Y-29525866D01*
X13700000Y-29559200D01*
X13766666Y-29592533D01*
X14033333Y-29592533D01*
X12966666Y-29925866D02*
X13366666Y-29925866D01*
X13166666Y-29925866D02*
X13166666Y-29225866D01*
X13233333Y-29325866D01*
X13300000Y-29392533D01*
X13366666Y-29425866D01*
X12366666Y-29225866D02*
X12500000Y-29225866D01*
X12566666Y-29259200D01*
X12600000Y-29292533D01*
X12666666Y-29392533D01*
X12700000Y-29525866D01*
X12700000Y-29792533D01*
X12666666Y-29859200D01*
X12633333Y-29892533D01*
X12566666Y-29925866D01*
X12433333Y-29925866D01*
X12366666Y-29892533D01*
X12333333Y-29859200D01*
X12300000Y-29792533D01*
X12300000Y-29625866D01*
X12333333Y-29559200D01*
X12366666Y-29525866D01*
X12433333Y-29492533D01*
X12566666Y-29492533D01*
X12633333Y-29525866D01*
X12666666Y-29559200D01*
X12700000Y-29625866D01*
X14666666Y-30625866D02*
X14266666Y-30625866D01*
X14466666Y-31325866D02*
X14466666Y-30625866D01*
X14033333Y-31325866D02*
X14033333Y-30625866D01*
X13766666Y-30625866D01*
X13700000Y-30659200D01*
X13666666Y-30692533D01*
X13633333Y-30759200D01*
X13633333Y-30859200D01*
X13666666Y-30925866D01*
X13700000Y-30959200D01*
X13766666Y-30992533D01*
X14033333Y-30992533D01*
X12966666Y-31325866D02*
X13366666Y-31325866D01*
X13166666Y-31325866D02*
X13166666Y-30625866D01*
X13233333Y-30725866D01*
X13300000Y-30792533D01*
X13366666Y-30825866D01*
X12733333Y-30625866D02*
X12266666Y-30625866D01*
X12566666Y-31325866D01*
X14666666Y-32025866D02*
X14266666Y-32025866D01*
X14466666Y-32725866D02*
X14466666Y-32025866D01*
X14033333Y-32725866D02*
X14033333Y-32025866D01*
X13766666Y-32025866D01*
X13700000Y-32059200D01*
X13666666Y-32092533D01*
X13633333Y-32159200D01*
X13633333Y-32259200D01*
X13666666Y-32325866D01*
X13700000Y-32359200D01*
X13766666Y-32392533D01*
X14033333Y-32392533D01*
X12966666Y-32725866D02*
X13366666Y-32725866D01*
X13166666Y-32725866D02*
X13166666Y-32025866D01*
X13233333Y-32125866D01*
X13300000Y-32192533D01*
X13366666Y-32225866D01*
X12566666Y-32325866D02*
X12633333Y-32292533D01*
X12666666Y-32259200D01*
X12700000Y-32192533D01*
X12700000Y-32159200D01*
X12666666Y-32092533D01*
X12633333Y-32059200D01*
X12566666Y-32025866D01*
X12433333Y-32025866D01*
X12366666Y-32059200D01*
X12333333Y-32092533D01*
X12300000Y-32159200D01*
X12300000Y-32192533D01*
X12333333Y-32259200D01*
X12366666Y-32292533D01*
X12433333Y-32325866D01*
X12566666Y-32325866D01*
X12633333Y-32359200D01*
X12666666Y-32392533D01*
X12700000Y-32459200D01*
X12700000Y-32592533D01*
X12666666Y-32659200D01*
X12633333Y-32692533D01*
X12566666Y-32725866D01*
X12433333Y-32725866D01*
X12366666Y-32692533D01*
X12333333Y-32659200D01*
X12300000Y-32592533D01*
X12300000Y-32459200D01*
X12333333Y-32392533D01*
X12366666Y-32359200D01*
X12433333Y-32325866D01*
X18633333Y-23516666D02*
X18633333Y-23116666D01*
X17933333Y-23316666D02*
X18633333Y-23316666D01*
X17933333Y-22883333D02*
X18633333Y-22883333D01*
X18633333Y-22616666D01*
X18600000Y-22550000D01*
X18566666Y-22516666D01*
X18500000Y-22483333D01*
X18400000Y-22483333D01*
X18333333Y-22516666D01*
X18300000Y-22550000D01*
X18266666Y-22616666D01*
X18266666Y-22883333D01*
X17933333Y-21816666D02*
X17933333Y-22216666D01*
X17933333Y-22016666D02*
X18633333Y-22016666D01*
X18533333Y-22083333D01*
X18466666Y-22150000D01*
X18433333Y-22216666D01*
X18566666Y-21550000D02*
X18600000Y-21516666D01*
X18633333Y-21450000D01*
X18633333Y-21283333D01*
X18600000Y-21216666D01*
X18566666Y-21183333D01*
X18500000Y-21150000D01*
X18433333Y-21150000D01*
X18333333Y-21183333D01*
X17933333Y-21583333D01*
X17933333Y-21150000D01*
X14666666Y-33476666D02*
X14266666Y-33476666D01*
X14466666Y-34176666D02*
X14466666Y-33476666D01*
X14033333Y-34176666D02*
X14033333Y-33476666D01*
X13766666Y-33476666D01*
X13700000Y-33510000D01*
X13666666Y-33543333D01*
X13633333Y-33610000D01*
X13633333Y-33710000D01*
X13666666Y-33776666D01*
X13700000Y-33810000D01*
X13766666Y-33843333D01*
X14033333Y-33843333D01*
X12966666Y-34176666D02*
X13366666Y-34176666D01*
X13166666Y-34176666D02*
X13166666Y-33476666D01*
X13233333Y-33576666D01*
X13300000Y-33643333D01*
X13366666Y-33676666D01*
X12633333Y-34176666D02*
X12500000Y-34176666D01*
X12433333Y-34143333D01*
X12400000Y-34110000D01*
X12333333Y-34010000D01*
X12300000Y-33876666D01*
X12300000Y-33610000D01*
X12333333Y-33543333D01*
X12366666Y-33510000D01*
X12433333Y-33476666D01*
X12566666Y-33476666D01*
X12633333Y-33510000D01*
X12666666Y-33543333D01*
X12700000Y-33610000D01*
X12700000Y-33776666D01*
X12666666Y-33843333D01*
X12633333Y-33876666D01*
X12566666Y-33910000D01*
X12433333Y-33910000D01*
X12366666Y-33876666D01*
X12333333Y-33843333D01*
X12300000Y-33776666D01*
X15582533Y-23516666D02*
X15582533Y-23116666D01*
X14882533Y-23316666D02*
X15582533Y-23316666D01*
X14882533Y-22883333D02*
X15582533Y-22883333D01*
X15582533Y-22616666D01*
X15549200Y-22550000D01*
X15515866Y-22516666D01*
X15449200Y-22483333D01*
X15349200Y-22483333D01*
X15282533Y-22516666D01*
X15249200Y-22550000D01*
X15215866Y-22616666D01*
X15215866Y-22883333D01*
X14882533Y-21816666D02*
X14882533Y-22216666D01*
X14882533Y-22016666D02*
X15582533Y-22016666D01*
X15482533Y-22083333D01*
X15415866Y-22150000D01*
X15382533Y-22216666D01*
X15349200Y-21216666D02*
X14882533Y-21216666D01*
X15615866Y-21383333D02*
X15115866Y-21550000D01*
X15115866Y-21116666D01*
X41650000Y-9616666D02*
X41883333Y-9283333D01*
X42050000Y-9616666D02*
X42050000Y-8916666D01*
X41783333Y-8916666D01*
X41716666Y-8950000D01*
X41683333Y-8983333D01*
X41650000Y-9050000D01*
X41650000Y-9150000D01*
X41683333Y-9216666D01*
X41716666Y-9250000D01*
X41783333Y-9283333D01*
X42050000Y-9283333D01*
X41016666Y-8916666D02*
X41350000Y-8916666D01*
X41383333Y-9250000D01*
X41350000Y-9216666D01*
X41283333Y-9183333D01*
X41116666Y-9183333D01*
X41050000Y-9216666D01*
X41016666Y-9250000D01*
X40983333Y-9316666D01*
X40983333Y-9483333D01*
X41016666Y-9550000D01*
X41050000Y-9583333D01*
X41116666Y-9616666D01*
X41283333Y-9616666D01*
X41350000Y-9583333D01*
X41383333Y-9550000D01*
X40750000Y-8916666D02*
X40283333Y-8916666D01*
X40583333Y-9616666D01*
X41650000Y-15616666D02*
X41883333Y-15283333D01*
X42050000Y-15616666D02*
X42050000Y-14916666D01*
X41783333Y-14916666D01*
X41716666Y-14950000D01*
X41683333Y-14983333D01*
X41650000Y-15050000D01*
X41650000Y-15150000D01*
X41683333Y-15216666D01*
X41716666Y-15250000D01*
X41783333Y-15283333D01*
X42050000Y-15283333D01*
X41016666Y-14916666D02*
X41350000Y-14916666D01*
X41383333Y-15250000D01*
X41350000Y-15216666D01*
X41283333Y-15183333D01*
X41116666Y-15183333D01*
X41050000Y-15216666D01*
X41016666Y-15250000D01*
X40983333Y-15316666D01*
X40983333Y-15483333D01*
X41016666Y-15550000D01*
X41050000Y-15583333D01*
X41116666Y-15616666D01*
X41283333Y-15616666D01*
X41350000Y-15583333D01*
X41383333Y-15550000D01*
X40716666Y-14983333D02*
X40683333Y-14950000D01*
X40616666Y-14916666D01*
X40450000Y-14916666D01*
X40383333Y-14950000D01*
X40350000Y-14983333D01*
X40316666Y-15050000D01*
X40316666Y-15116666D01*
X40350000Y-15216666D01*
X40750000Y-15616666D01*
X40316666Y-15616666D01*
X41650000Y-14416666D02*
X41883333Y-14083333D01*
X42050000Y-14416666D02*
X42050000Y-13716666D01*
X41783333Y-13716666D01*
X41716666Y-13750000D01*
X41683333Y-13783333D01*
X41650000Y-13850000D01*
X41650000Y-13950000D01*
X41683333Y-14016666D01*
X41716666Y-14050000D01*
X41783333Y-14083333D01*
X42050000Y-14083333D01*
X41016666Y-13716666D02*
X41350000Y-13716666D01*
X41383333Y-14050000D01*
X41350000Y-14016666D01*
X41283333Y-13983333D01*
X41116666Y-13983333D01*
X41050000Y-14016666D01*
X41016666Y-14050000D01*
X40983333Y-14116666D01*
X40983333Y-14283333D01*
X41016666Y-14350000D01*
X41050000Y-14383333D01*
X41116666Y-14416666D01*
X41283333Y-14416666D01*
X41350000Y-14383333D01*
X41383333Y-14350000D01*
X40750000Y-13716666D02*
X40316666Y-13716666D01*
X40550000Y-13983333D01*
X40450000Y-13983333D01*
X40383333Y-14016666D01*
X40350000Y-14050000D01*
X40316666Y-14116666D01*
X40316666Y-14283333D01*
X40350000Y-14350000D01*
X40383333Y-14383333D01*
X40450000Y-14416666D01*
X40650000Y-14416666D01*
X40716666Y-14383333D01*
X40750000Y-14350000D01*
X41650000Y-13216666D02*
X41883333Y-12883333D01*
X42050000Y-13216666D02*
X42050000Y-12516666D01*
X41783333Y-12516666D01*
X41716666Y-12550000D01*
X41683333Y-12583333D01*
X41650000Y-12650000D01*
X41650000Y-12750000D01*
X41683333Y-12816666D01*
X41716666Y-12850000D01*
X41783333Y-12883333D01*
X42050000Y-12883333D01*
X41016666Y-12516666D02*
X41350000Y-12516666D01*
X41383333Y-12850000D01*
X41350000Y-12816666D01*
X41283333Y-12783333D01*
X41116666Y-12783333D01*
X41050000Y-12816666D01*
X41016666Y-12850000D01*
X40983333Y-12916666D01*
X40983333Y-13083333D01*
X41016666Y-13150000D01*
X41050000Y-13183333D01*
X41116666Y-13216666D01*
X41283333Y-13216666D01*
X41350000Y-13183333D01*
X41383333Y-13150000D01*
X40383333Y-12750000D02*
X40383333Y-13216666D01*
X40550000Y-12483333D02*
X40716666Y-12983333D01*
X40283333Y-12983333D01*
X41650000Y-12016666D02*
X41883333Y-11683333D01*
X42050000Y-12016666D02*
X42050000Y-11316666D01*
X41783333Y-11316666D01*
X41716666Y-11350000D01*
X41683333Y-11383333D01*
X41650000Y-11450000D01*
X41650000Y-11550000D01*
X41683333Y-11616666D01*
X41716666Y-11650000D01*
X41783333Y-11683333D01*
X42050000Y-11683333D01*
X41016666Y-11316666D02*
X41350000Y-11316666D01*
X41383333Y-11650000D01*
X41350000Y-11616666D01*
X41283333Y-11583333D01*
X41116666Y-11583333D01*
X41050000Y-11616666D01*
X41016666Y-11650000D01*
X40983333Y-11716666D01*
X40983333Y-11883333D01*
X41016666Y-11950000D01*
X41050000Y-11983333D01*
X41116666Y-12016666D01*
X41283333Y-12016666D01*
X41350000Y-11983333D01*
X41383333Y-11950000D01*
X40350000Y-11316666D02*
X40683333Y-11316666D01*
X40716666Y-11650000D01*
X40683333Y-11616666D01*
X40616666Y-11583333D01*
X40450000Y-11583333D01*
X40383333Y-11616666D01*
X40350000Y-11650000D01*
X40316666Y-11716666D01*
X40316666Y-11883333D01*
X40350000Y-11950000D01*
X40383333Y-11983333D01*
X40450000Y-12016666D01*
X40616666Y-12016666D01*
X40683333Y-11983333D01*
X40716666Y-11950000D01*
X41650000Y-10816666D02*
X41883333Y-10483333D01*
X42050000Y-10816666D02*
X42050000Y-10116666D01*
X41783333Y-10116666D01*
X41716666Y-10150000D01*
X41683333Y-10183333D01*
X41650000Y-10250000D01*
X41650000Y-10350000D01*
X41683333Y-10416666D01*
X41716666Y-10450000D01*
X41783333Y-10483333D01*
X42050000Y-10483333D01*
X41016666Y-10116666D02*
X41350000Y-10116666D01*
X41383333Y-10450000D01*
X41350000Y-10416666D01*
X41283333Y-10383333D01*
X41116666Y-10383333D01*
X41050000Y-10416666D01*
X41016666Y-10450000D01*
X40983333Y-10516666D01*
X40983333Y-10683333D01*
X41016666Y-10750000D01*
X41050000Y-10783333D01*
X41116666Y-10816666D01*
X41283333Y-10816666D01*
X41350000Y-10783333D01*
X41383333Y-10750000D01*
X40383333Y-10116666D02*
X40516666Y-10116666D01*
X40583333Y-10150000D01*
X40616666Y-10183333D01*
X40683333Y-10283333D01*
X40716666Y-10416666D01*
X40716666Y-10683333D01*
X40683333Y-10750000D01*
X40650000Y-10783333D01*
X40583333Y-10816666D01*
X40450000Y-10816666D01*
X40383333Y-10783333D01*
X40350000Y-10750000D01*
X40316666Y-10683333D01*
X40316666Y-10516666D01*
X40350000Y-10450000D01*
X40383333Y-10416666D01*
X40450000Y-10383333D01*
X40583333Y-10383333D01*
X40650000Y-10416666D01*
X40683333Y-10450000D01*
X40716666Y-10516666D01*
X41650000Y-18016666D02*
X41883333Y-17683333D01*
X42050000Y-18016666D02*
X42050000Y-17316666D01*
X41783333Y-17316666D01*
X41716666Y-17350000D01*
X41683333Y-17383333D01*
X41650000Y-17450000D01*
X41650000Y-17550000D01*
X41683333Y-17616666D01*
X41716666Y-17650000D01*
X41783333Y-17683333D01*
X42050000Y-17683333D01*
X41016666Y-17316666D02*
X41350000Y-17316666D01*
X41383333Y-17650000D01*
X41350000Y-17616666D01*
X41283333Y-17583333D01*
X41116666Y-17583333D01*
X41050000Y-17616666D01*
X41016666Y-17650000D01*
X40983333Y-17716666D01*
X40983333Y-17883333D01*
X41016666Y-17950000D01*
X41050000Y-17983333D01*
X41116666Y-18016666D01*
X41283333Y-18016666D01*
X41350000Y-17983333D01*
X41383333Y-17950000D01*
X40550000Y-17316666D02*
X40483333Y-17316666D01*
X40416666Y-17350000D01*
X40383333Y-17383333D01*
X40350000Y-17450000D01*
X40316666Y-17583333D01*
X40316666Y-17750000D01*
X40350000Y-17883333D01*
X40383333Y-17950000D01*
X40416666Y-17983333D01*
X40483333Y-18016666D01*
X40550000Y-18016666D01*
X40616666Y-17983333D01*
X40650000Y-17950000D01*
X40683333Y-17883333D01*
X40716666Y-17750000D01*
X40716666Y-17583333D01*
X40683333Y-17450000D01*
X40650000Y-17383333D01*
X40616666Y-17350000D01*
X40550000Y-17316666D01*
X41650000Y-16816666D02*
X41883333Y-16483333D01*
X42050000Y-16816666D02*
X42050000Y-16116666D01*
X41783333Y-16116666D01*
X41716666Y-16150000D01*
X41683333Y-16183333D01*
X41650000Y-16250000D01*
X41650000Y-16350000D01*
X41683333Y-16416666D01*
X41716666Y-16450000D01*
X41783333Y-16483333D01*
X42050000Y-16483333D01*
X41016666Y-16116666D02*
X41350000Y-16116666D01*
X41383333Y-16450000D01*
X41350000Y-16416666D01*
X41283333Y-16383333D01*
X41116666Y-16383333D01*
X41050000Y-16416666D01*
X41016666Y-16450000D01*
X40983333Y-16516666D01*
X40983333Y-16683333D01*
X41016666Y-16750000D01*
X41050000Y-16783333D01*
X41116666Y-16816666D01*
X41283333Y-16816666D01*
X41350000Y-16783333D01*
X41383333Y-16750000D01*
X40316666Y-16816666D02*
X40716666Y-16816666D01*
X40516666Y-16816666D02*
X40516666Y-16116666D01*
X40583333Y-16216666D01*
X40650000Y-16283333D01*
X40716666Y-16316666D01*
X13603333Y-26910000D02*
X13936666Y-27143333D01*
X13603333Y-27310000D02*
X14303333Y-27310000D01*
X14303333Y-27043333D01*
X14270000Y-26976666D01*
X14236666Y-26943333D01*
X14170000Y-26910000D01*
X14070000Y-26910000D01*
X14003333Y-26943333D01*
X13970000Y-26976666D01*
X13936666Y-27043333D01*
X13936666Y-27310000D01*
X14070000Y-26310000D02*
X13603333Y-26310000D01*
X14336666Y-26476666D02*
X13836666Y-26643333D01*
X13836666Y-26210000D01*
X13603333Y-25910000D02*
X13603333Y-25776666D01*
X13636666Y-25710000D01*
X13670000Y-25676666D01*
X13770000Y-25610000D01*
X13903333Y-25576666D01*
X14170000Y-25576666D01*
X14236666Y-25610000D01*
X14270000Y-25643333D01*
X14303333Y-25710000D01*
X14303333Y-25843333D01*
X14270000Y-25910000D01*
X14236666Y-25943333D01*
X14170000Y-25976666D01*
X14003333Y-25976666D01*
X13936666Y-25943333D01*
X13903333Y-25910000D01*
X13870000Y-25843333D01*
X13870000Y-25710000D01*
X13903333Y-25643333D01*
X13936666Y-25610000D01*
X14003333Y-25576666D01*
X17103333Y-26910000D02*
X17436666Y-27143333D01*
X17103333Y-27310000D02*
X17803333Y-27310000D01*
X17803333Y-27043333D01*
X17770000Y-26976666D01*
X17736666Y-26943333D01*
X17670000Y-26910000D01*
X17570000Y-26910000D01*
X17503333Y-26943333D01*
X17470000Y-26976666D01*
X17436666Y-27043333D01*
X17436666Y-27310000D01*
X17570000Y-26310000D02*
X17103333Y-26310000D01*
X17836666Y-26476666D02*
X17336666Y-26643333D01*
X17336666Y-26210000D01*
X17503333Y-25843333D02*
X17536666Y-25910000D01*
X17570000Y-25943333D01*
X17636666Y-25976666D01*
X17670000Y-25976666D01*
X17736666Y-25943333D01*
X17770000Y-25910000D01*
X17803333Y-25843333D01*
X17803333Y-25710000D01*
X17770000Y-25643333D01*
X17736666Y-25610000D01*
X17670000Y-25576666D01*
X17636666Y-25576666D01*
X17570000Y-25610000D01*
X17536666Y-25643333D01*
X17503333Y-25710000D01*
X17503333Y-25843333D01*
X17470000Y-25910000D01*
X17436666Y-25943333D01*
X17370000Y-25976666D01*
X17236666Y-25976666D01*
X17170000Y-25943333D01*
X17136666Y-25910000D01*
X17103333Y-25843333D01*
X17103333Y-25710000D01*
X17136666Y-25643333D01*
X17170000Y-25610000D01*
X17236666Y-25576666D01*
X17370000Y-25576666D01*
X17436666Y-25610000D01*
X17470000Y-25643333D01*
X17503333Y-25710000D01*
X34853333Y-2410000D02*
X35186666Y-2643333D01*
X34853333Y-2810000D02*
X35553333Y-2810000D01*
X35553333Y-2543333D01*
X35520000Y-2476666D01*
X35486666Y-2443333D01*
X35420000Y-2410000D01*
X35320000Y-2410000D01*
X35253333Y-2443333D01*
X35220000Y-2476666D01*
X35186666Y-2543333D01*
X35186666Y-2810000D01*
X35320000Y-1810000D02*
X34853333Y-1810000D01*
X35586666Y-1976666D02*
X35086666Y-2143333D01*
X35086666Y-1710000D01*
X35486666Y-1476666D02*
X35520000Y-1443333D01*
X35553333Y-1376666D01*
X35553333Y-1210000D01*
X35520000Y-1143333D01*
X35486666Y-1110000D01*
X35420000Y-1076666D01*
X35353333Y-1076666D01*
X35253333Y-1110000D01*
X34853333Y-1510000D01*
X34853333Y-1076666D01*
X36103333Y-2410000D02*
X36436666Y-2643333D01*
X36103333Y-2810000D02*
X36803333Y-2810000D01*
X36803333Y-2543333D01*
X36770000Y-2476666D01*
X36736666Y-2443333D01*
X36670000Y-2410000D01*
X36570000Y-2410000D01*
X36503333Y-2443333D01*
X36470000Y-2476666D01*
X36436666Y-2543333D01*
X36436666Y-2810000D01*
X36570000Y-1810000D02*
X36103333Y-1810000D01*
X36836666Y-1976666D02*
X36336666Y-2143333D01*
X36336666Y-1710000D01*
X36803333Y-1510000D02*
X36803333Y-1076666D01*
X36536666Y-1310000D01*
X36536666Y-1210000D01*
X36503333Y-1143333D01*
X36470000Y-1110000D01*
X36403333Y-1076666D01*
X36236666Y-1076666D01*
X36170000Y-1110000D01*
X36136666Y-1143333D01*
X36103333Y-1210000D01*
X36103333Y-1410000D01*
X36136666Y-1476666D01*
X36170000Y-1510000D01*
X48450000Y-14816666D02*
X48683333Y-14483333D01*
X48850000Y-14816666D02*
X48850000Y-14116666D01*
X48583333Y-14116666D01*
X48516666Y-14150000D01*
X48483333Y-14183333D01*
X48450000Y-14250000D01*
X48450000Y-14350000D01*
X48483333Y-14416666D01*
X48516666Y-14450000D01*
X48583333Y-14483333D01*
X48850000Y-14483333D01*
X47850000Y-14350000D02*
X47850000Y-14816666D01*
X48016666Y-14083333D02*
X48183333Y-14583333D01*
X47750000Y-14583333D01*
X47183333Y-14350000D02*
X47183333Y-14816666D01*
X47350000Y-14083333D02*
X47516666Y-14583333D01*
X47083333Y-14583333D01*
X48450000Y-13616666D02*
X48683333Y-13283333D01*
X48850000Y-13616666D02*
X48850000Y-12916666D01*
X48583333Y-12916666D01*
X48516666Y-12950000D01*
X48483333Y-12983333D01*
X48450000Y-13050000D01*
X48450000Y-13150000D01*
X48483333Y-13216666D01*
X48516666Y-13250000D01*
X48583333Y-13283333D01*
X48850000Y-13283333D01*
X47850000Y-13150000D02*
X47850000Y-13616666D01*
X48016666Y-12883333D02*
X48183333Y-13383333D01*
X47750000Y-13383333D01*
X47150000Y-12916666D02*
X47483333Y-12916666D01*
X47516666Y-13250000D01*
X47483333Y-13216666D01*
X47416666Y-13183333D01*
X47250000Y-13183333D01*
X47183333Y-13216666D01*
X47150000Y-13250000D01*
X47116666Y-13316666D01*
X47116666Y-13483333D01*
X47150000Y-13550000D01*
X47183333Y-13583333D01*
X47250000Y-13616666D01*
X47416666Y-13616666D01*
X47483333Y-13583333D01*
X47516666Y-13550000D01*
X48450000Y-12416666D02*
X48683333Y-12083333D01*
X48850000Y-12416666D02*
X48850000Y-11716666D01*
X48583333Y-11716666D01*
X48516666Y-11750000D01*
X48483333Y-11783333D01*
X48450000Y-11850000D01*
X48450000Y-11950000D01*
X48483333Y-12016666D01*
X48516666Y-12050000D01*
X48583333Y-12083333D01*
X48850000Y-12083333D01*
X47850000Y-11950000D02*
X47850000Y-12416666D01*
X48016666Y-11683333D02*
X48183333Y-12183333D01*
X47750000Y-12183333D01*
X47183333Y-11716666D02*
X47316666Y-11716666D01*
X47383333Y-11750000D01*
X47416666Y-11783333D01*
X47483333Y-11883333D01*
X47516666Y-12016666D01*
X47516666Y-12283333D01*
X47483333Y-12350000D01*
X47450000Y-12383333D01*
X47383333Y-12416666D01*
X47250000Y-12416666D01*
X47183333Y-12383333D01*
X47150000Y-12350000D01*
X47116666Y-12283333D01*
X47116666Y-12116666D01*
X47150000Y-12050000D01*
X47183333Y-12016666D01*
X47250000Y-11983333D01*
X47383333Y-11983333D01*
X47450000Y-12016666D01*
X47483333Y-12050000D01*
X47516666Y-12116666D01*
X48450000Y-11216666D02*
X48683333Y-10883333D01*
X48850000Y-11216666D02*
X48850000Y-10516666D01*
X48583333Y-10516666D01*
X48516666Y-10550000D01*
X48483333Y-10583333D01*
X48450000Y-10650000D01*
X48450000Y-10750000D01*
X48483333Y-10816666D01*
X48516666Y-10850000D01*
X48583333Y-10883333D01*
X48850000Y-10883333D01*
X47850000Y-10750000D02*
X47850000Y-11216666D01*
X48016666Y-10483333D02*
X48183333Y-10983333D01*
X47750000Y-10983333D01*
X47550000Y-10516666D02*
X47083333Y-10516666D01*
X47383333Y-11216666D01*
X16533333Y-13716666D02*
X16533333Y-14283333D01*
X16500000Y-14350000D01*
X16466666Y-14383333D01*
X16400000Y-14416666D01*
X16266666Y-14416666D01*
X16200000Y-14383333D01*
X16166666Y-14350000D01*
X16133333Y-14283333D01*
X16133333Y-13716666D01*
X15700000Y-14016666D02*
X15766666Y-13983333D01*
X15800000Y-13950000D01*
X15833333Y-13883333D01*
X15833333Y-13850000D01*
X15800000Y-13783333D01*
X15766666Y-13750000D01*
X15700000Y-13716666D01*
X15566666Y-13716666D01*
X15500000Y-13750000D01*
X15466666Y-13783333D01*
X15433333Y-13850000D01*
X15433333Y-13883333D01*
X15466666Y-13950000D01*
X15500000Y-13983333D01*
X15566666Y-14016666D01*
X15700000Y-14016666D01*
X15766666Y-14050000D01*
X15800000Y-14083333D01*
X15833333Y-14150000D01*
X15833333Y-14283333D01*
X15800000Y-14350000D01*
X15766666Y-14383333D01*
X15700000Y-14416666D01*
X15566666Y-14416666D01*
X15500000Y-14383333D01*
X15466666Y-14350000D01*
X15433333Y-14283333D01*
X15433333Y-14150000D01*
X15466666Y-14083333D01*
X15500000Y-14050000D01*
X15566666Y-14016666D01*
X38283333Y-21533333D02*
X37716666Y-21533333D01*
X37650000Y-21500000D01*
X37616666Y-21466666D01*
X37583333Y-21400000D01*
X37583333Y-21266666D01*
X37616666Y-21200000D01*
X37650000Y-21166666D01*
X37716666Y-21133333D01*
X38283333Y-21133333D01*
X38283333Y-20866666D02*
X38283333Y-20400000D01*
X37583333Y-20700000D01*
X6533333Y-33750000D02*
X6866666Y-33983333D01*
X6533333Y-34150000D02*
X7233333Y-34150000D01*
X7233333Y-33883333D01*
X7200000Y-33816666D01*
X7166666Y-33783333D01*
X7100000Y-33750000D01*
X7000000Y-33750000D01*
X6933333Y-33783333D01*
X6900000Y-33816666D01*
X6866666Y-33883333D01*
X6866666Y-34150000D01*
X7000000Y-33150000D02*
X6533333Y-33150000D01*
X7266666Y-33316666D02*
X6766666Y-33483333D01*
X6766666Y-33050000D01*
X6533333Y-32416666D02*
X6533333Y-32816666D01*
X6533333Y-32616666D02*
X7233333Y-32616666D01*
X7133333Y-32683333D01*
X7066666Y-32750000D01*
X7033333Y-32816666D01*
X7533333Y-25450000D02*
X7866666Y-25683333D01*
X7533333Y-25850000D02*
X8233333Y-25850000D01*
X8233333Y-25583333D01*
X8200000Y-25516666D01*
X8166666Y-25483333D01*
X8100000Y-25450000D01*
X8000000Y-25450000D01*
X7933333Y-25483333D01*
X7900000Y-25516666D01*
X7866666Y-25583333D01*
X7866666Y-25850000D01*
X8000000Y-24850000D02*
X7533333Y-24850000D01*
X8266666Y-25016666D02*
X7766666Y-25183333D01*
X7766666Y-24750000D01*
X8233333Y-24350000D02*
X8233333Y-24283333D01*
X8200000Y-24216666D01*
X8166666Y-24183333D01*
X8100000Y-24150000D01*
X7966666Y-24116666D01*
X7800000Y-24116666D01*
X7666666Y-24150000D01*
X7600000Y-24183333D01*
X7566666Y-24216666D01*
X7533333Y-24283333D01*
X7533333Y-24350000D01*
X7566666Y-24416666D01*
X7600000Y-24450000D01*
X7666666Y-24483333D01*
X7800000Y-24516666D01*
X7966666Y-24516666D01*
X8100000Y-24483333D01*
X8166666Y-24450000D01*
X8200000Y-24416666D01*
X8233333Y-24350000D01*
X7533333Y-33750000D02*
X7866666Y-33983333D01*
X7533333Y-34150000D02*
X8233333Y-34150000D01*
X8233333Y-33883333D01*
X8200000Y-33816666D01*
X8166666Y-33783333D01*
X8100000Y-33750000D01*
X8000000Y-33750000D01*
X7933333Y-33783333D01*
X7900000Y-33816666D01*
X7866666Y-33883333D01*
X7866666Y-34150000D01*
X8233333Y-33516666D02*
X8233333Y-33083333D01*
X7966666Y-33316666D01*
X7966666Y-33216666D01*
X7933333Y-33150000D01*
X7900000Y-33116666D01*
X7833333Y-33083333D01*
X7666666Y-33083333D01*
X7600000Y-33116666D01*
X7566666Y-33150000D01*
X7533333Y-33216666D01*
X7533333Y-33416666D01*
X7566666Y-33483333D01*
X7600000Y-33516666D01*
X7533333Y-32750000D02*
X7533333Y-32616666D01*
X7566666Y-32550000D01*
X7600000Y-32516666D01*
X7700000Y-32450000D01*
X7833333Y-32416666D01*
X8100000Y-32416666D01*
X8166666Y-32450000D01*
X8200000Y-32483333D01*
X8233333Y-32550000D01*
X8233333Y-32683333D01*
X8200000Y-32750000D01*
X8166666Y-32783333D01*
X8100000Y-32816666D01*
X7933333Y-32816666D01*
X7866666Y-32783333D01*
X7833333Y-32750000D01*
X7800000Y-32683333D01*
X7800000Y-32550000D01*
X7833333Y-32483333D01*
X7866666Y-32450000D01*
X7933333Y-32416666D01*
X9603333Y-27660000D02*
X9936666Y-27893333D01*
X9603333Y-28060000D02*
X10303333Y-28060000D01*
X10303333Y-27793333D01*
X10270000Y-27726666D01*
X10236666Y-27693333D01*
X10170000Y-27660000D01*
X10070000Y-27660000D01*
X10003333Y-27693333D01*
X9970000Y-27726666D01*
X9936666Y-27793333D01*
X9936666Y-28060000D01*
X10303333Y-27426666D02*
X10303333Y-26993333D01*
X10036666Y-27226666D01*
X10036666Y-27126666D01*
X10003333Y-27060000D01*
X9970000Y-27026666D01*
X9903333Y-26993333D01*
X9736666Y-26993333D01*
X9670000Y-27026666D01*
X9636666Y-27060000D01*
X9603333Y-27126666D01*
X9603333Y-27326666D01*
X9636666Y-27393333D01*
X9670000Y-27426666D01*
X10003333Y-26593333D02*
X10036666Y-26660000D01*
X10070000Y-26693333D01*
X10136666Y-26726666D01*
X10170000Y-26726666D01*
X10236666Y-26693333D01*
X10270000Y-26660000D01*
X10303333Y-26593333D01*
X10303333Y-26460000D01*
X10270000Y-26393333D01*
X10236666Y-26360000D01*
X10170000Y-26326666D01*
X10136666Y-26326666D01*
X10070000Y-26360000D01*
X10036666Y-26393333D01*
X10003333Y-26460000D01*
X10003333Y-26593333D01*
X9970000Y-26660000D01*
X9936666Y-26693333D01*
X9870000Y-26726666D01*
X9736666Y-26726666D01*
X9670000Y-26693333D01*
X9636666Y-26660000D01*
X9603333Y-26593333D01*
X9603333Y-26460000D01*
X9636666Y-26393333D01*
X9670000Y-26360000D01*
X9736666Y-26326666D01*
X9870000Y-26326666D01*
X9936666Y-26360000D01*
X9970000Y-26393333D01*
X10003333Y-26460000D01*
X8533333Y-33750000D02*
X8866666Y-33983333D01*
X8533333Y-34150000D02*
X9233333Y-34150000D01*
X9233333Y-33883333D01*
X9200000Y-33816666D01*
X9166666Y-33783333D01*
X9100000Y-33750000D01*
X9000000Y-33750000D01*
X8933333Y-33783333D01*
X8900000Y-33816666D01*
X8866666Y-33883333D01*
X8866666Y-34150000D01*
X9233333Y-33516666D02*
X9233333Y-33083333D01*
X8966666Y-33316666D01*
X8966666Y-33216666D01*
X8933333Y-33150000D01*
X8900000Y-33116666D01*
X8833333Y-33083333D01*
X8666666Y-33083333D01*
X8600000Y-33116666D01*
X8566666Y-33150000D01*
X8533333Y-33216666D01*
X8533333Y-33416666D01*
X8566666Y-33483333D01*
X8600000Y-33516666D01*
X9233333Y-32850000D02*
X9233333Y-32383333D01*
X8533333Y-32683333D01*
X10380000Y-1506666D02*
X10613333Y-1173333D01*
X10780000Y-1506666D02*
X10780000Y-806666D01*
X10513333Y-806666D01*
X10446666Y-840000D01*
X10413333Y-873333D01*
X10380000Y-940000D01*
X10380000Y-1040000D01*
X10413333Y-1106666D01*
X10446666Y-1140000D01*
X10513333Y-1173333D01*
X10780000Y-1173333D01*
X10146666Y-806666D02*
X9713333Y-806666D01*
X9946666Y-1073333D01*
X9846666Y-1073333D01*
X9780000Y-1106666D01*
X9746666Y-1140000D01*
X9713333Y-1206666D01*
X9713333Y-1373333D01*
X9746666Y-1440000D01*
X9780000Y-1473333D01*
X9846666Y-1506666D01*
X10046666Y-1506666D01*
X10113333Y-1473333D01*
X10146666Y-1440000D01*
X9080000Y-806666D02*
X9413333Y-806666D01*
X9446666Y-1140000D01*
X9413333Y-1106666D01*
X9346666Y-1073333D01*
X9180000Y-1073333D01*
X9113333Y-1106666D01*
X9080000Y-1140000D01*
X9046666Y-1206666D01*
X9046666Y-1373333D01*
X9080000Y-1440000D01*
X9113333Y-1473333D01*
X9180000Y-1506666D01*
X9346666Y-1506666D01*
X9413333Y-1473333D01*
X9446666Y-1440000D01*
X6533333Y-25450000D02*
X6866666Y-25683333D01*
X6533333Y-25850000D02*
X7233333Y-25850000D01*
X7233333Y-25583333D01*
X7200000Y-25516666D01*
X7166666Y-25483333D01*
X7100000Y-25450000D01*
X7000000Y-25450000D01*
X6933333Y-25483333D01*
X6900000Y-25516666D01*
X6866666Y-25583333D01*
X6866666Y-25850000D01*
X7233333Y-25216666D02*
X7233333Y-24783333D01*
X6966666Y-25016666D01*
X6966666Y-24916666D01*
X6933333Y-24850000D01*
X6900000Y-24816666D01*
X6833333Y-24783333D01*
X6666666Y-24783333D01*
X6600000Y-24816666D01*
X6566666Y-24850000D01*
X6533333Y-24916666D01*
X6533333Y-25116666D01*
X6566666Y-25183333D01*
X6600000Y-25216666D01*
X7233333Y-24183333D02*
X7233333Y-24316666D01*
X7200000Y-24383333D01*
X7166666Y-24416666D01*
X7066666Y-24483333D01*
X6933333Y-24516666D01*
X6666666Y-24516666D01*
X6600000Y-24483333D01*
X6566666Y-24450000D01*
X6533333Y-24383333D01*
X6533333Y-24250000D01*
X6566666Y-24183333D01*
X6600000Y-24150000D01*
X6666666Y-24116666D01*
X6833333Y-24116666D01*
X6900000Y-24150000D01*
X6933333Y-24183333D01*
X6966666Y-24250000D01*
X6966666Y-24383333D01*
X6933333Y-24450000D01*
X6900000Y-24483333D01*
X6833333Y-24516666D01*
X16923333Y-65243333D02*
X16823333Y-65276666D01*
X16656666Y-65276666D01*
X16590000Y-65243333D01*
X16556666Y-65210000D01*
X16523333Y-65143333D01*
X16523333Y-65076666D01*
X16556666Y-65010000D01*
X16590000Y-64976666D01*
X16656666Y-64943333D01*
X16790000Y-64910000D01*
X16856666Y-64876666D01*
X16890000Y-64843333D01*
X16923333Y-64776666D01*
X16923333Y-64710000D01*
X16890000Y-64643333D01*
X16856666Y-64610000D01*
X16790000Y-64576666D01*
X16623333Y-64576666D01*
X16523333Y-64610000D01*
X15856666Y-65276666D02*
X16256666Y-65276666D01*
X16056666Y-65276666D02*
X16056666Y-64576666D01*
X16123333Y-64676666D01*
X16190000Y-64743333D01*
X16256666Y-64776666D01*
X10340000Y-42116666D02*
X10573333Y-41783333D01*
X10740000Y-42116666D02*
X10740000Y-41416666D01*
X10473333Y-41416666D01*
X10406666Y-41450000D01*
X10373333Y-41483333D01*
X10340000Y-41550000D01*
X10340000Y-41650000D01*
X10373333Y-41716666D01*
X10406666Y-41750000D01*
X10473333Y-41783333D01*
X10740000Y-41783333D01*
X10106666Y-41416666D02*
X9673333Y-41416666D01*
X9906666Y-41683333D01*
X9806666Y-41683333D01*
X9740000Y-41716666D01*
X9706666Y-41750000D01*
X9673333Y-41816666D01*
X9673333Y-41983333D01*
X9706666Y-42050000D01*
X9740000Y-42083333D01*
X9806666Y-42116666D01*
X10006666Y-42116666D01*
X10073333Y-42083333D01*
X10106666Y-42050000D01*
X9073333Y-41650000D02*
X9073333Y-42116666D01*
X9240000Y-41383333D02*
X9406666Y-41883333D01*
X8973333Y-41883333D01*
X12283333Y-1816666D02*
X12283333Y-2383333D01*
X12250000Y-2450000D01*
X12216666Y-2483333D01*
X12150000Y-2516666D01*
X12016666Y-2516666D01*
X11950000Y-2483333D01*
X11916666Y-2450000D01*
X11883333Y-2383333D01*
X11883333Y-1816666D01*
X11216666Y-1816666D02*
X11550000Y-1816666D01*
X11583333Y-2150000D01*
X11550000Y-2116666D01*
X11483333Y-2083333D01*
X11316666Y-2083333D01*
X11250000Y-2116666D01*
X11216666Y-2150000D01*
X11183333Y-2216666D01*
X11183333Y-2383333D01*
X11216666Y-2450000D01*
X11250000Y-2483333D01*
X11316666Y-2516666D01*
X11483333Y-2516666D01*
X11550000Y-2483333D01*
X11583333Y-2450000D01*
X50683333Y-45766666D02*
X51383333Y-45766666D01*
X51383333Y-45600000D01*
X51350000Y-45500000D01*
X51283333Y-45433333D01*
X51216666Y-45400000D01*
X51083333Y-45366666D01*
X50983333Y-45366666D01*
X50850000Y-45400000D01*
X50783333Y-45433333D01*
X50716666Y-45500000D01*
X50683333Y-45600000D01*
X50683333Y-45766666D01*
X51150000Y-44766666D02*
X50683333Y-44766666D01*
X51416666Y-44933333D02*
X50916666Y-45100000D01*
X50916666Y-44666666D01*
X14136666Y-54776666D02*
X14136666Y-54076666D01*
X13970000Y-54076666D01*
X13870000Y-54110000D01*
X13803333Y-54176666D01*
X13770000Y-54243333D01*
X13736666Y-54376666D01*
X13736666Y-54476666D01*
X13770000Y-54610000D01*
X13803333Y-54676666D01*
X13870000Y-54743333D01*
X13970000Y-54776666D01*
X14136666Y-54776666D01*
X13503333Y-54076666D02*
X13070000Y-54076666D01*
X13303333Y-54343333D01*
X13203333Y-54343333D01*
X13136666Y-54376666D01*
X13103333Y-54410000D01*
X13070000Y-54476666D01*
X13070000Y-54643333D01*
X13103333Y-54710000D01*
X13136666Y-54743333D01*
X13203333Y-54776666D01*
X13403333Y-54776666D01*
X13470000Y-54743333D01*
X13503333Y-54710000D01*
X31116666Y-12850000D02*
X31150000Y-12883333D01*
X31250000Y-12916666D01*
X31316666Y-12916666D01*
X31416666Y-12883333D01*
X31483333Y-12816666D01*
X31516666Y-12750000D01*
X31550000Y-12616666D01*
X31550000Y-12516666D01*
X31516666Y-12383333D01*
X31483333Y-12316666D01*
X31416666Y-12250000D01*
X31316666Y-12216666D01*
X31250000Y-12216666D01*
X31150000Y-12250000D01*
X31116666Y-12283333D01*
X30516666Y-12450000D02*
X30516666Y-12916666D01*
X30683333Y-12183333D02*
X30850000Y-12683333D01*
X30416666Y-12683333D01*
X35783333Y-13716666D02*
X35783333Y-14283333D01*
X35750000Y-14350000D01*
X35716666Y-14383333D01*
X35650000Y-14416666D01*
X35516666Y-14416666D01*
X35450000Y-14383333D01*
X35416666Y-14350000D01*
X35383333Y-14283333D01*
X35383333Y-13716666D01*
X34683333Y-14416666D02*
X35083333Y-14416666D01*
X34883333Y-14416666D02*
X34883333Y-13716666D01*
X34950000Y-13816666D01*
X35016666Y-13883333D01*
X35083333Y-13916666D01*
X45800000Y-32420000D02*
X45766666Y-32453333D01*
X45733333Y-32553333D01*
X45733333Y-32620000D01*
X45766666Y-32720000D01*
X45833333Y-32786666D01*
X45900000Y-32820000D01*
X46033333Y-32853333D01*
X46133333Y-32853333D01*
X46266666Y-32820000D01*
X46333333Y-32786666D01*
X46400000Y-32720000D01*
X46433333Y-32620000D01*
X46433333Y-32553333D01*
X46400000Y-32453333D01*
X46366666Y-32420000D01*
X45733333Y-31753333D02*
X45733333Y-32153333D01*
X45733333Y-31953333D02*
X46433333Y-31953333D01*
X46333333Y-32020000D01*
X46266666Y-32086666D01*
X46233333Y-32153333D01*
X45733333Y-31086666D02*
X45733333Y-31486666D01*
X45733333Y-31286666D02*
X46433333Y-31286666D01*
X46333333Y-31353333D01*
X46266666Y-31420000D01*
X46233333Y-31486666D01*
X45920000Y-20660000D02*
X45886666Y-20693333D01*
X45853333Y-20793333D01*
X45853333Y-20860000D01*
X45886666Y-20960000D01*
X45953333Y-21026666D01*
X46020000Y-21060000D01*
X46153333Y-21093333D01*
X46253333Y-21093333D01*
X46386666Y-21060000D01*
X46453333Y-21026666D01*
X46520000Y-20960000D01*
X46553333Y-20860000D01*
X46553333Y-20793333D01*
X46520000Y-20693333D01*
X46486666Y-20660000D01*
X45853333Y-19993333D02*
X45853333Y-20393333D01*
X45853333Y-20193333D02*
X46553333Y-20193333D01*
X46453333Y-20260000D01*
X46386666Y-20326666D01*
X46353333Y-20393333D01*
X46553333Y-19760000D02*
X46553333Y-19326666D01*
X46286666Y-19560000D01*
X46286666Y-19460000D01*
X46253333Y-19393333D01*
X46220000Y-19360000D01*
X46153333Y-19326666D01*
X45986666Y-19326666D01*
X45920000Y-19360000D01*
X45886666Y-19393333D01*
X45853333Y-19460000D01*
X45853333Y-19660000D01*
X45886666Y-19726666D01*
X45920000Y-19760000D01*
X47170000Y-25410000D02*
X47136666Y-25443333D01*
X47103333Y-25543333D01*
X47103333Y-25610000D01*
X47136666Y-25710000D01*
X47203333Y-25776666D01*
X47270000Y-25810000D01*
X47403333Y-25843333D01*
X47503333Y-25843333D01*
X47636666Y-25810000D01*
X47703333Y-25776666D01*
X47770000Y-25710000D01*
X47803333Y-25610000D01*
X47803333Y-25543333D01*
X47770000Y-25443333D01*
X47736666Y-25410000D01*
X47103333Y-24743333D02*
X47103333Y-25143333D01*
X47103333Y-24943333D02*
X47803333Y-24943333D01*
X47703333Y-25010000D01*
X47636666Y-25076666D01*
X47603333Y-25143333D01*
X47570000Y-24143333D02*
X47103333Y-24143333D01*
X47836666Y-24310000D02*
X47336666Y-24476666D01*
X47336666Y-24043333D01*
X31250000Y-8300000D02*
X31216666Y-8333333D01*
X31183333Y-8433333D01*
X31183333Y-8500000D01*
X31216666Y-8600000D01*
X31283333Y-8666666D01*
X31350000Y-8700000D01*
X31483333Y-8733333D01*
X31583333Y-8733333D01*
X31716666Y-8700000D01*
X31783333Y-8666666D01*
X31850000Y-8600000D01*
X31883333Y-8500000D01*
X31883333Y-8433333D01*
X31850000Y-8333333D01*
X31816666Y-8300000D01*
X31183333Y-7633333D02*
X31183333Y-8033333D01*
X31183333Y-7833333D02*
X31883333Y-7833333D01*
X31783333Y-7900000D01*
X31716666Y-7966666D01*
X31683333Y-8033333D01*
X31883333Y-7000000D02*
X31883333Y-7333333D01*
X31550000Y-7366666D01*
X31583333Y-7333333D01*
X31616666Y-7266666D01*
X31616666Y-7100000D01*
X31583333Y-7033333D01*
X31550000Y-7000000D01*
X31483333Y-6966666D01*
X31316666Y-6966666D01*
X31250000Y-7000000D01*
X31216666Y-7033333D01*
X31183333Y-7100000D01*
X31183333Y-7266666D01*
X31216666Y-7333333D01*
X31250000Y-7366666D01*
X14000000Y-5800000D02*
X13966666Y-5833333D01*
X13933333Y-5933333D01*
X13933333Y-6000000D01*
X13966666Y-6100000D01*
X14033333Y-6166666D01*
X14100000Y-6200000D01*
X14233333Y-6233333D01*
X14333333Y-6233333D01*
X14466666Y-6200000D01*
X14533333Y-6166666D01*
X14600000Y-6100000D01*
X14633333Y-6000000D01*
X14633333Y-5933333D01*
X14600000Y-5833333D01*
X14566666Y-5800000D01*
X13933333Y-5133333D02*
X13933333Y-5533333D01*
X13933333Y-5333333D02*
X14633333Y-5333333D01*
X14533333Y-5400000D01*
X14466666Y-5466666D01*
X14433333Y-5533333D01*
X14633333Y-4533333D02*
X14633333Y-4666666D01*
X14600000Y-4733333D01*
X14566666Y-4766666D01*
X14466666Y-4833333D01*
X14333333Y-4866666D01*
X14066666Y-4866666D01*
X14000000Y-4833333D01*
X13966666Y-4800000D01*
X13933333Y-4733333D01*
X13933333Y-4600000D01*
X13966666Y-4533333D01*
X14000000Y-4500000D01*
X14066666Y-4466666D01*
X14233333Y-4466666D01*
X14300000Y-4500000D01*
X14333333Y-4533333D01*
X14366666Y-4600000D01*
X14366666Y-4733333D01*
X14333333Y-4800000D01*
X14300000Y-4833333D01*
X14233333Y-4866666D01*
X14750000Y-9550000D02*
X14716666Y-9583333D01*
X14683333Y-9683333D01*
X14683333Y-9750000D01*
X14716666Y-9850000D01*
X14783333Y-9916666D01*
X14850000Y-9950000D01*
X14983333Y-9983333D01*
X15083333Y-9983333D01*
X15216666Y-9950000D01*
X15283333Y-9916666D01*
X15350000Y-9850000D01*
X15383333Y-9750000D01*
X15383333Y-9683333D01*
X15350000Y-9583333D01*
X15316666Y-9550000D01*
X15316666Y-9283333D02*
X15350000Y-9250000D01*
X15383333Y-9183333D01*
X15383333Y-9016666D01*
X15350000Y-8950000D01*
X15316666Y-8916666D01*
X15250000Y-8883333D01*
X15183333Y-8883333D01*
X15083333Y-8916666D01*
X14683333Y-9316666D01*
X14683333Y-8883333D01*
X15383333Y-8283333D02*
X15383333Y-8416666D01*
X15350000Y-8483333D01*
X15316666Y-8516666D01*
X15216666Y-8583333D01*
X15083333Y-8616666D01*
X14816666Y-8616666D01*
X14750000Y-8583333D01*
X14716666Y-8550000D01*
X14683333Y-8483333D01*
X14683333Y-8350000D01*
X14716666Y-8283333D01*
X14750000Y-8250000D01*
X14816666Y-8216666D01*
X14983333Y-8216666D01*
X15050000Y-8250000D01*
X15083333Y-8283333D01*
X15116666Y-8350000D01*
X15116666Y-8483333D01*
X15083333Y-8550000D01*
X15050000Y-8583333D01*
X14983333Y-8616666D01*
X14750000Y-11550000D02*
X14716666Y-11583333D01*
X14683333Y-11683333D01*
X14683333Y-11750000D01*
X14716666Y-11850000D01*
X14783333Y-11916666D01*
X14850000Y-11950000D01*
X14983333Y-11983333D01*
X15083333Y-11983333D01*
X15216666Y-11950000D01*
X15283333Y-11916666D01*
X15350000Y-11850000D01*
X15383333Y-11750000D01*
X15383333Y-11683333D01*
X15350000Y-11583333D01*
X15316666Y-11550000D01*
X15316666Y-11283333D02*
X15350000Y-11250000D01*
X15383333Y-11183333D01*
X15383333Y-11016666D01*
X15350000Y-10950000D01*
X15316666Y-10916666D01*
X15250000Y-10883333D01*
X15183333Y-10883333D01*
X15083333Y-10916666D01*
X14683333Y-11316666D01*
X14683333Y-10883333D01*
X15383333Y-10250000D02*
X15383333Y-10583333D01*
X15050000Y-10616666D01*
X15083333Y-10583333D01*
X15116666Y-10516666D01*
X15116666Y-10350000D01*
X15083333Y-10283333D01*
X15050000Y-10250000D01*
X14983333Y-10216666D01*
X14816666Y-10216666D01*
X14750000Y-10250000D01*
X14716666Y-10283333D01*
X14683333Y-10350000D01*
X14683333Y-10516666D01*
X14716666Y-10583333D01*
X14750000Y-10616666D01*
X15750000Y-9550000D02*
X15716666Y-9583333D01*
X15683333Y-9683333D01*
X15683333Y-9750000D01*
X15716666Y-9850000D01*
X15783333Y-9916666D01*
X15850000Y-9950000D01*
X15983333Y-9983333D01*
X16083333Y-9983333D01*
X16216666Y-9950000D01*
X16283333Y-9916666D01*
X16350000Y-9850000D01*
X16383333Y-9750000D01*
X16383333Y-9683333D01*
X16350000Y-9583333D01*
X16316666Y-9550000D01*
X16316666Y-9283333D02*
X16350000Y-9250000D01*
X16383333Y-9183333D01*
X16383333Y-9016666D01*
X16350000Y-8950000D01*
X16316666Y-8916666D01*
X16250000Y-8883333D01*
X16183333Y-8883333D01*
X16083333Y-8916666D01*
X15683333Y-9316666D01*
X15683333Y-8883333D01*
X16316666Y-8616666D02*
X16350000Y-8583333D01*
X16383333Y-8516666D01*
X16383333Y-8350000D01*
X16350000Y-8283333D01*
X16316666Y-8250000D01*
X16250000Y-8216666D01*
X16183333Y-8216666D01*
X16083333Y-8250000D01*
X15683333Y-8650000D01*
X15683333Y-8216666D01*
X47300000Y-40966666D02*
X47533333Y-40633333D01*
X47700000Y-40966666D02*
X47700000Y-40266666D01*
X47433333Y-40266666D01*
X47366666Y-40300000D01*
X47333333Y-40333333D01*
X47300000Y-40400000D01*
X47300000Y-40500000D01*
X47333333Y-40566666D01*
X47366666Y-40600000D01*
X47433333Y-40633333D01*
X47700000Y-40633333D01*
X47033333Y-40333333D02*
X47000000Y-40300000D01*
X46933333Y-40266666D01*
X46766666Y-40266666D01*
X46700000Y-40300000D01*
X46666666Y-40333333D01*
X46633333Y-40400000D01*
X46633333Y-40466666D01*
X46666666Y-40566666D01*
X47066666Y-40966666D01*
X46633333Y-40966666D01*
X46233333Y-40566666D02*
X46300000Y-40533333D01*
X46333333Y-40500000D01*
X46366666Y-40433333D01*
X46366666Y-40400000D01*
X46333333Y-40333333D01*
X46300000Y-40300000D01*
X46233333Y-40266666D01*
X46100000Y-40266666D01*
X46033333Y-40300000D01*
X46000000Y-40333333D01*
X45966666Y-40400000D01*
X45966666Y-40433333D01*
X46000000Y-40500000D01*
X46033333Y-40533333D01*
X46100000Y-40566666D01*
X46233333Y-40566666D01*
X46300000Y-40600000D01*
X46333333Y-40633333D01*
X46366666Y-40700000D01*
X46366666Y-40833333D01*
X46333333Y-40900000D01*
X46300000Y-40933333D01*
X46233333Y-40966666D01*
X46100000Y-40966666D01*
X46033333Y-40933333D01*
X46000000Y-40900000D01*
X45966666Y-40833333D01*
X45966666Y-40700000D01*
X46000000Y-40633333D01*
X46033333Y-40600000D01*
X46100000Y-40566666D01*
X30803333Y-3711666D02*
X31136666Y-3945000D01*
X30803333Y-4111666D02*
X31503333Y-4111666D01*
X31503333Y-3845000D01*
X31470000Y-3778333D01*
X31436666Y-3745000D01*
X31370000Y-3711666D01*
X31270000Y-3711666D01*
X31203333Y-3745000D01*
X31170000Y-3778333D01*
X31136666Y-3845000D01*
X31136666Y-4111666D01*
X31436666Y-3445000D02*
X31470000Y-3411666D01*
X31503333Y-3345000D01*
X31503333Y-3178333D01*
X31470000Y-3111666D01*
X31436666Y-3078333D01*
X31370000Y-3045000D01*
X31303333Y-3045000D01*
X31203333Y-3078333D01*
X30803333Y-3478333D01*
X30803333Y-3045000D01*
X47300000Y-37466666D02*
X47533333Y-37133333D01*
X47700000Y-37466666D02*
X47700000Y-36766666D01*
X47433333Y-36766666D01*
X47366666Y-36800000D01*
X47333333Y-36833333D01*
X47300000Y-36900000D01*
X47300000Y-37000000D01*
X47333333Y-37066666D01*
X47366666Y-37100000D01*
X47433333Y-37133333D01*
X47700000Y-37133333D01*
X47066666Y-36766666D02*
X46633333Y-36766666D01*
X46866666Y-37033333D01*
X46766666Y-37033333D01*
X46700000Y-37066666D01*
X46666666Y-37100000D01*
X46633333Y-37166666D01*
X46633333Y-37333333D01*
X46666666Y-37400000D01*
X46700000Y-37433333D01*
X46766666Y-37466666D01*
X46966666Y-37466666D01*
X47033333Y-37433333D01*
X47066666Y-37400000D01*
X46400000Y-36766666D02*
X45966666Y-36766666D01*
X46200000Y-37033333D01*
X46100000Y-37033333D01*
X46033333Y-37066666D01*
X46000000Y-37100000D01*
X45966666Y-37166666D01*
X45966666Y-37333333D01*
X46000000Y-37400000D01*
X46033333Y-37433333D01*
X46100000Y-37466666D01*
X46300000Y-37466666D01*
X46366666Y-37433333D01*
X46400000Y-37400000D01*
X31803333Y-3711666D02*
X32136666Y-3945000D01*
X31803333Y-4111666D02*
X32503333Y-4111666D01*
X32503333Y-3845000D01*
X32470000Y-3778333D01*
X32436666Y-3745000D01*
X32370000Y-3711666D01*
X32270000Y-3711666D01*
X32203333Y-3745000D01*
X32170000Y-3778333D01*
X32136666Y-3845000D01*
X32136666Y-4111666D01*
X32503333Y-3478333D02*
X32503333Y-3045000D01*
X32236666Y-3278333D01*
X32236666Y-3178333D01*
X32203333Y-3111666D01*
X32170000Y-3078333D01*
X32103333Y-3045000D01*
X31936666Y-3045000D01*
X31870000Y-3078333D01*
X31836666Y-3111666D01*
X31803333Y-3178333D01*
X31803333Y-3378333D01*
X31836666Y-3445000D01*
X31870000Y-3478333D01*
X47300000Y-34466666D02*
X47533333Y-34133333D01*
X47700000Y-34466666D02*
X47700000Y-33766666D01*
X47433333Y-33766666D01*
X47366666Y-33800000D01*
X47333333Y-33833333D01*
X47300000Y-33900000D01*
X47300000Y-34000000D01*
X47333333Y-34066666D01*
X47366666Y-34100000D01*
X47433333Y-34133333D01*
X47700000Y-34133333D01*
X47066666Y-33766666D02*
X46633333Y-33766666D01*
X46866666Y-34033333D01*
X46766666Y-34033333D01*
X46700000Y-34066666D01*
X46666666Y-34100000D01*
X46633333Y-34166666D01*
X46633333Y-34333333D01*
X46666666Y-34400000D01*
X46700000Y-34433333D01*
X46766666Y-34466666D01*
X46966666Y-34466666D01*
X47033333Y-34433333D01*
X47066666Y-34400000D01*
X46200000Y-33766666D02*
X46133333Y-33766666D01*
X46066666Y-33800000D01*
X46033333Y-33833333D01*
X46000000Y-33900000D01*
X45966666Y-34033333D01*
X45966666Y-34200000D01*
X46000000Y-34333333D01*
X46033333Y-34400000D01*
X46066666Y-34433333D01*
X46133333Y-34466666D01*
X46200000Y-34466666D01*
X46266666Y-34433333D01*
X46300000Y-34400000D01*
X46333333Y-34333333D01*
X46366666Y-34200000D01*
X46366666Y-34033333D01*
X46333333Y-33900000D01*
X46300000Y-33833333D01*
X46266666Y-33800000D01*
X46200000Y-33766666D01*
X47300000Y-39966666D02*
X47533333Y-39633333D01*
X47700000Y-39966666D02*
X47700000Y-39266666D01*
X47433333Y-39266666D01*
X47366666Y-39300000D01*
X47333333Y-39333333D01*
X47300000Y-39400000D01*
X47300000Y-39500000D01*
X47333333Y-39566666D01*
X47366666Y-39600000D01*
X47433333Y-39633333D01*
X47700000Y-39633333D01*
X47033333Y-39333333D02*
X47000000Y-39300000D01*
X46933333Y-39266666D01*
X46766666Y-39266666D01*
X46700000Y-39300000D01*
X46666666Y-39333333D01*
X46633333Y-39400000D01*
X46633333Y-39466666D01*
X46666666Y-39566666D01*
X47066666Y-39966666D01*
X46633333Y-39966666D01*
X46400000Y-39266666D02*
X45933333Y-39266666D01*
X46233333Y-39966666D01*
X47300000Y-38966666D02*
X47533333Y-38633333D01*
X47700000Y-38966666D02*
X47700000Y-38266666D01*
X47433333Y-38266666D01*
X47366666Y-38300000D01*
X47333333Y-38333333D01*
X47300000Y-38400000D01*
X47300000Y-38500000D01*
X47333333Y-38566666D01*
X47366666Y-38600000D01*
X47433333Y-38633333D01*
X47700000Y-38633333D01*
X47033333Y-38333333D02*
X47000000Y-38300000D01*
X46933333Y-38266666D01*
X46766666Y-38266666D01*
X46700000Y-38300000D01*
X46666666Y-38333333D01*
X46633333Y-38400000D01*
X46633333Y-38466666D01*
X46666666Y-38566666D01*
X47066666Y-38966666D01*
X46633333Y-38966666D01*
X46033333Y-38266666D02*
X46166666Y-38266666D01*
X46233333Y-38300000D01*
X46266666Y-38333333D01*
X46333333Y-38433333D01*
X46366666Y-38566666D01*
X46366666Y-38833333D01*
X46333333Y-38900000D01*
X46300000Y-38933333D01*
X46233333Y-38966666D01*
X46100000Y-38966666D01*
X46033333Y-38933333D01*
X46000000Y-38900000D01*
X45966666Y-38833333D01*
X45966666Y-38666666D01*
X46000000Y-38600000D01*
X46033333Y-38566666D01*
X46100000Y-38533333D01*
X46233333Y-38533333D01*
X46300000Y-38566666D01*
X46333333Y-38600000D01*
X46366666Y-38666666D01*
X34965000Y-47816666D02*
X35198333Y-47483333D01*
X35365000Y-47816666D02*
X35365000Y-47116666D01*
X35098333Y-47116666D01*
X35031666Y-47150000D01*
X34998333Y-47183333D01*
X34965000Y-47250000D01*
X34965000Y-47350000D01*
X34998333Y-47416666D01*
X35031666Y-47450000D01*
X35098333Y-47483333D01*
X35365000Y-47483333D01*
X34698333Y-47183333D02*
X34665000Y-47150000D01*
X34598333Y-47116666D01*
X34431666Y-47116666D01*
X34365000Y-47150000D01*
X34331666Y-47183333D01*
X34298333Y-47250000D01*
X34298333Y-47316666D01*
X34331666Y-47416666D01*
X34731666Y-47816666D01*
X34298333Y-47816666D01*
X33665000Y-47116666D02*
X33998333Y-47116666D01*
X34031666Y-47450000D01*
X33998333Y-47416666D01*
X33931666Y-47383333D01*
X33765000Y-47383333D01*
X33698333Y-47416666D01*
X33665000Y-47450000D01*
X33631666Y-47516666D01*
X33631666Y-47683333D01*
X33665000Y-47750000D01*
X33698333Y-47783333D01*
X33765000Y-47816666D01*
X33931666Y-47816666D01*
X33998333Y-47783333D01*
X34031666Y-47750000D01*
X47300000Y-35466666D02*
X47533333Y-35133333D01*
X47700000Y-35466666D02*
X47700000Y-34766666D01*
X47433333Y-34766666D01*
X47366666Y-34800000D01*
X47333333Y-34833333D01*
X47300000Y-34900000D01*
X47300000Y-35000000D01*
X47333333Y-35066666D01*
X47366666Y-35100000D01*
X47433333Y-35133333D01*
X47700000Y-35133333D01*
X47066666Y-34766666D02*
X46633333Y-34766666D01*
X46866666Y-35033333D01*
X46766666Y-35033333D01*
X46700000Y-35066666D01*
X46666666Y-35100000D01*
X46633333Y-35166666D01*
X46633333Y-35333333D01*
X46666666Y-35400000D01*
X46700000Y-35433333D01*
X46766666Y-35466666D01*
X46966666Y-35466666D01*
X47033333Y-35433333D01*
X47066666Y-35400000D01*
X45966666Y-35466666D02*
X46366666Y-35466666D01*
X46166666Y-35466666D02*
X46166666Y-34766666D01*
X46233333Y-34866666D01*
X46300000Y-34933333D01*
X46366666Y-34966666D01*
X28803333Y-4370000D02*
X29136666Y-4603333D01*
X28803333Y-4770000D02*
X29503333Y-4770000D01*
X29503333Y-4503333D01*
X29470000Y-4436666D01*
X29436666Y-4403333D01*
X29370000Y-4370000D01*
X29270000Y-4370000D01*
X29203333Y-4403333D01*
X29170000Y-4436666D01*
X29136666Y-4503333D01*
X29136666Y-4770000D01*
X29436666Y-4103333D02*
X29470000Y-4070000D01*
X29503333Y-4003333D01*
X29503333Y-3836666D01*
X29470000Y-3770000D01*
X29436666Y-3736666D01*
X29370000Y-3703333D01*
X29303333Y-3703333D01*
X29203333Y-3736666D01*
X28803333Y-4136666D01*
X28803333Y-3703333D01*
X28803333Y-3036666D02*
X28803333Y-3436666D01*
X28803333Y-3236666D02*
X29503333Y-3236666D01*
X29403333Y-3303333D01*
X29336666Y-3370000D01*
X29303333Y-3436666D01*
X7103333Y-5826666D02*
X7436666Y-6060000D01*
X7103333Y-6226666D02*
X7803333Y-6226666D01*
X7803333Y-5960000D01*
X7770000Y-5893333D01*
X7736666Y-5860000D01*
X7670000Y-5826666D01*
X7570000Y-5826666D01*
X7503333Y-5860000D01*
X7470000Y-5893333D01*
X7436666Y-5960000D01*
X7436666Y-6226666D01*
X7570000Y-5226666D02*
X7103333Y-5226666D01*
X7836666Y-5393333D02*
X7336666Y-5560000D01*
X7336666Y-5126666D01*
X26803333Y-4355000D02*
X27136666Y-4588333D01*
X26803333Y-4755000D02*
X27503333Y-4755000D01*
X27503333Y-4488333D01*
X27470000Y-4421666D01*
X27436666Y-4388333D01*
X27370000Y-4355000D01*
X27270000Y-4355000D01*
X27203333Y-4388333D01*
X27170000Y-4421666D01*
X27136666Y-4488333D01*
X27136666Y-4755000D01*
X26803333Y-3688333D02*
X26803333Y-4088333D01*
X26803333Y-3888333D02*
X27503333Y-3888333D01*
X27403333Y-3955000D01*
X27336666Y-4021666D01*
X27303333Y-4088333D01*
X26803333Y-3355000D02*
X26803333Y-3221666D01*
X26836666Y-3155000D01*
X26870000Y-3121666D01*
X26970000Y-3055000D01*
X27103333Y-3021666D01*
X27370000Y-3021666D01*
X27436666Y-3055000D01*
X27470000Y-3088333D01*
X27503333Y-3155000D01*
X27503333Y-3288333D01*
X27470000Y-3355000D01*
X27436666Y-3388333D01*
X27370000Y-3421666D01*
X27203333Y-3421666D01*
X27136666Y-3388333D01*
X27103333Y-3355000D01*
X27070000Y-3288333D01*
X27070000Y-3155000D01*
X27103333Y-3088333D01*
X27136666Y-3055000D01*
X27203333Y-3021666D01*
X23803333Y-4370000D02*
X24136666Y-4603333D01*
X23803333Y-4770000D02*
X24503333Y-4770000D01*
X24503333Y-4503333D01*
X24470000Y-4436666D01*
X24436666Y-4403333D01*
X24370000Y-4370000D01*
X24270000Y-4370000D01*
X24203333Y-4403333D01*
X24170000Y-4436666D01*
X24136666Y-4503333D01*
X24136666Y-4770000D01*
X23803333Y-3703333D02*
X23803333Y-4103333D01*
X23803333Y-3903333D02*
X24503333Y-3903333D01*
X24403333Y-3970000D01*
X24336666Y-4036666D01*
X24303333Y-4103333D01*
X24503333Y-3103333D02*
X24503333Y-3236666D01*
X24470000Y-3303333D01*
X24436666Y-3336666D01*
X24336666Y-3403333D01*
X24203333Y-3436666D01*
X23936666Y-3436666D01*
X23870000Y-3403333D01*
X23836666Y-3370000D01*
X23803333Y-3303333D01*
X23803333Y-3170000D01*
X23836666Y-3103333D01*
X23870000Y-3070000D01*
X23936666Y-3036666D01*
X24103333Y-3036666D01*
X24170000Y-3070000D01*
X24203333Y-3103333D01*
X24236666Y-3170000D01*
X24236666Y-3303333D01*
X24203333Y-3370000D01*
X24170000Y-3403333D01*
X24103333Y-3436666D01*
X19803333Y-4355000D02*
X20136666Y-4588333D01*
X19803333Y-4755000D02*
X20503333Y-4755000D01*
X20503333Y-4488333D01*
X20470000Y-4421666D01*
X20436666Y-4388333D01*
X20370000Y-4355000D01*
X20270000Y-4355000D01*
X20203333Y-4388333D01*
X20170000Y-4421666D01*
X20136666Y-4488333D01*
X20136666Y-4755000D01*
X19803333Y-3688333D02*
X19803333Y-4088333D01*
X19803333Y-3888333D02*
X20503333Y-3888333D01*
X20403333Y-3955000D01*
X20336666Y-4021666D01*
X20303333Y-4088333D01*
X20270000Y-3088333D02*
X19803333Y-3088333D01*
X20536666Y-3255000D02*
X20036666Y-3421666D01*
X20036666Y-2988333D01*
X17803333Y-4370000D02*
X18136666Y-4603333D01*
X17803333Y-4770000D02*
X18503333Y-4770000D01*
X18503333Y-4503333D01*
X18470000Y-4436666D01*
X18436666Y-4403333D01*
X18370000Y-4370000D01*
X18270000Y-4370000D01*
X18203333Y-4403333D01*
X18170000Y-4436666D01*
X18136666Y-4503333D01*
X18136666Y-4770000D01*
X17803333Y-3703333D02*
X17803333Y-4103333D01*
X17803333Y-3903333D02*
X18503333Y-3903333D01*
X18403333Y-3970000D01*
X18336666Y-4036666D01*
X18303333Y-4103333D01*
X18436666Y-3436666D02*
X18470000Y-3403333D01*
X18503333Y-3336666D01*
X18503333Y-3170000D01*
X18470000Y-3103333D01*
X18436666Y-3070000D01*
X18370000Y-3036666D01*
X18303333Y-3036666D01*
X18203333Y-3070000D01*
X17803333Y-3470000D01*
X17803333Y-3036666D01*
X24803333Y-4370000D02*
X25136666Y-4603333D01*
X24803333Y-4770000D02*
X25503333Y-4770000D01*
X25503333Y-4503333D01*
X25470000Y-4436666D01*
X25436666Y-4403333D01*
X25370000Y-4370000D01*
X25270000Y-4370000D01*
X25203333Y-4403333D01*
X25170000Y-4436666D01*
X25136666Y-4503333D01*
X25136666Y-4770000D01*
X24803333Y-3703333D02*
X24803333Y-4103333D01*
X24803333Y-3903333D02*
X25503333Y-3903333D01*
X25403333Y-3970000D01*
X25336666Y-4036666D01*
X25303333Y-4103333D01*
X25503333Y-3470000D02*
X25503333Y-3003333D01*
X24803333Y-3303333D01*
X25803333Y-4385000D02*
X26136666Y-4618333D01*
X25803333Y-4785000D02*
X26503333Y-4785000D01*
X26503333Y-4518333D01*
X26470000Y-4451666D01*
X26436666Y-4418333D01*
X26370000Y-4385000D01*
X26270000Y-4385000D01*
X26203333Y-4418333D01*
X26170000Y-4451666D01*
X26136666Y-4518333D01*
X26136666Y-4785000D01*
X25803333Y-3718333D02*
X25803333Y-4118333D01*
X25803333Y-3918333D02*
X26503333Y-3918333D01*
X26403333Y-3985000D01*
X26336666Y-4051666D01*
X26303333Y-4118333D01*
X26203333Y-3318333D02*
X26236666Y-3385000D01*
X26270000Y-3418333D01*
X26336666Y-3451666D01*
X26370000Y-3451666D01*
X26436666Y-3418333D01*
X26470000Y-3385000D01*
X26503333Y-3318333D01*
X26503333Y-3185000D01*
X26470000Y-3118333D01*
X26436666Y-3085000D01*
X26370000Y-3051666D01*
X26336666Y-3051666D01*
X26270000Y-3085000D01*
X26236666Y-3118333D01*
X26203333Y-3185000D01*
X26203333Y-3318333D01*
X26170000Y-3385000D01*
X26136666Y-3418333D01*
X26070000Y-3451666D01*
X25936666Y-3451666D01*
X25870000Y-3418333D01*
X25836666Y-3385000D01*
X25803333Y-3318333D01*
X25803333Y-3185000D01*
X25836666Y-3118333D01*
X25870000Y-3085000D01*
X25936666Y-3051666D01*
X26070000Y-3051666D01*
X26136666Y-3085000D01*
X26170000Y-3118333D01*
X26203333Y-3185000D01*
X27803333Y-4370000D02*
X28136666Y-4603333D01*
X27803333Y-4770000D02*
X28503333Y-4770000D01*
X28503333Y-4503333D01*
X28470000Y-4436666D01*
X28436666Y-4403333D01*
X28370000Y-4370000D01*
X28270000Y-4370000D01*
X28203333Y-4403333D01*
X28170000Y-4436666D01*
X28136666Y-4503333D01*
X28136666Y-4770000D01*
X28436666Y-4103333D02*
X28470000Y-4070000D01*
X28503333Y-4003333D01*
X28503333Y-3836666D01*
X28470000Y-3770000D01*
X28436666Y-3736666D01*
X28370000Y-3703333D01*
X28303333Y-3703333D01*
X28203333Y-3736666D01*
X27803333Y-4136666D01*
X27803333Y-3703333D01*
X28503333Y-3270000D02*
X28503333Y-3203333D01*
X28470000Y-3136666D01*
X28436666Y-3103333D01*
X28370000Y-3070000D01*
X28236666Y-3036666D01*
X28070000Y-3036666D01*
X27936666Y-3070000D01*
X27870000Y-3103333D01*
X27836666Y-3136666D01*
X27803333Y-3203333D01*
X27803333Y-3270000D01*
X27836666Y-3336666D01*
X27870000Y-3370000D01*
X27936666Y-3403333D01*
X28070000Y-3436666D01*
X28236666Y-3436666D01*
X28370000Y-3403333D01*
X28436666Y-3370000D01*
X28470000Y-3336666D01*
X28503333Y-3270000D01*
X18803333Y-4370000D02*
X19136666Y-4603333D01*
X18803333Y-4770000D02*
X19503333Y-4770000D01*
X19503333Y-4503333D01*
X19470000Y-4436666D01*
X19436666Y-4403333D01*
X19370000Y-4370000D01*
X19270000Y-4370000D01*
X19203333Y-4403333D01*
X19170000Y-4436666D01*
X19136666Y-4503333D01*
X19136666Y-4770000D01*
X18803333Y-3703333D02*
X18803333Y-4103333D01*
X18803333Y-3903333D02*
X19503333Y-3903333D01*
X19403333Y-3970000D01*
X19336666Y-4036666D01*
X19303333Y-4103333D01*
X19503333Y-3470000D02*
X19503333Y-3036666D01*
X19236666Y-3270000D01*
X19236666Y-3170000D01*
X19203333Y-3103333D01*
X19170000Y-3070000D01*
X19103333Y-3036666D01*
X18936666Y-3036666D01*
X18870000Y-3070000D01*
X18836666Y-3103333D01*
X18803333Y-3170000D01*
X18803333Y-3370000D01*
X18836666Y-3436666D01*
X18870000Y-3470000D01*
X16803333Y-4370000D02*
X17136666Y-4603333D01*
X16803333Y-4770000D02*
X17503333Y-4770000D01*
X17503333Y-4503333D01*
X17470000Y-4436666D01*
X17436666Y-4403333D01*
X17370000Y-4370000D01*
X17270000Y-4370000D01*
X17203333Y-4403333D01*
X17170000Y-4436666D01*
X17136666Y-4503333D01*
X17136666Y-4770000D01*
X16803333Y-3703333D02*
X16803333Y-4103333D01*
X16803333Y-3903333D02*
X17503333Y-3903333D01*
X17403333Y-3970000D01*
X17336666Y-4036666D01*
X17303333Y-4103333D01*
X16803333Y-3036666D02*
X16803333Y-3436666D01*
X16803333Y-3236666D02*
X17503333Y-3236666D01*
X17403333Y-3303333D01*
X17336666Y-3370000D01*
X17303333Y-3436666D01*
X17950000Y-7916666D02*
X18183333Y-7583333D01*
X18350000Y-7916666D02*
X18350000Y-7216666D01*
X18083333Y-7216666D01*
X18016666Y-7250000D01*
X17983333Y-7283333D01*
X17950000Y-7350000D01*
X17950000Y-7450000D01*
X17983333Y-7516666D01*
X18016666Y-7550000D01*
X18083333Y-7583333D01*
X18350000Y-7583333D01*
X17283333Y-7916666D02*
X17683333Y-7916666D01*
X17483333Y-7916666D02*
X17483333Y-7216666D01*
X17550000Y-7316666D01*
X17616666Y-7383333D01*
X17683333Y-7416666D01*
X16850000Y-7216666D02*
X16783333Y-7216666D01*
X16716666Y-7250000D01*
X16683333Y-7283333D01*
X16650000Y-7350000D01*
X16616666Y-7483333D01*
X16616666Y-7650000D01*
X16650000Y-7783333D01*
X16683333Y-7850000D01*
X16716666Y-7883333D01*
X16783333Y-7916666D01*
X16850000Y-7916666D01*
X16916666Y-7883333D01*
X16950000Y-7850000D01*
X16983333Y-7783333D01*
X17016666Y-7650000D01*
X17016666Y-7483333D01*
X16983333Y-7350000D01*
X16950000Y-7283333D01*
X16916666Y-7250000D01*
X16850000Y-7216666D01*
X18116666Y-14416666D02*
X18350000Y-14083333D01*
X18516666Y-14416666D02*
X18516666Y-13716666D01*
X18250000Y-13716666D01*
X18183333Y-13750000D01*
X18150000Y-13783333D01*
X18116666Y-13850000D01*
X18116666Y-13950000D01*
X18150000Y-14016666D01*
X18183333Y-14050000D01*
X18250000Y-14083333D01*
X18516666Y-14083333D01*
X17783333Y-14416666D02*
X17650000Y-14416666D01*
X17583333Y-14383333D01*
X17550000Y-14350000D01*
X17483333Y-14250000D01*
X17450000Y-14116666D01*
X17450000Y-13850000D01*
X17483333Y-13783333D01*
X17516666Y-13750000D01*
X17583333Y-13716666D01*
X17716666Y-13716666D01*
X17783333Y-13750000D01*
X17816666Y-13783333D01*
X17850000Y-13850000D01*
X17850000Y-14016666D01*
X17816666Y-14083333D01*
X17783333Y-14116666D01*
X17716666Y-14150000D01*
X17583333Y-14150000D01*
X17516666Y-14116666D01*
X17483333Y-14083333D01*
X17450000Y-14016666D01*
X33116666Y-9746666D02*
X33350000Y-9413333D01*
X33516666Y-9746666D02*
X33516666Y-9046666D01*
X33250000Y-9046666D01*
X33183333Y-9080000D01*
X33150000Y-9113333D01*
X33116666Y-9180000D01*
X33116666Y-9280000D01*
X33150000Y-9346666D01*
X33183333Y-9380000D01*
X33250000Y-9413333D01*
X33516666Y-9413333D01*
X32716666Y-9346666D02*
X32783333Y-9313333D01*
X32816666Y-9280000D01*
X32850000Y-9213333D01*
X32850000Y-9180000D01*
X32816666Y-9113333D01*
X32783333Y-9080000D01*
X32716666Y-9046666D01*
X32583333Y-9046666D01*
X32516666Y-9080000D01*
X32483333Y-9113333D01*
X32450000Y-9180000D01*
X32450000Y-9213333D01*
X32483333Y-9280000D01*
X32516666Y-9313333D01*
X32583333Y-9346666D01*
X32716666Y-9346666D01*
X32783333Y-9380000D01*
X32816666Y-9413333D01*
X32850000Y-9480000D01*
X32850000Y-9613333D01*
X32816666Y-9680000D01*
X32783333Y-9713333D01*
X32716666Y-9746666D01*
X32583333Y-9746666D01*
X32516666Y-9713333D01*
X32483333Y-9680000D01*
X32450000Y-9613333D01*
X32450000Y-9480000D01*
X32483333Y-9413333D01*
X32516666Y-9380000D01*
X32583333Y-9346666D01*
X7103333Y-7826666D02*
X7436666Y-8060000D01*
X7103333Y-8226666D02*
X7803333Y-8226666D01*
X7803333Y-7960000D01*
X7770000Y-7893333D01*
X7736666Y-7860000D01*
X7670000Y-7826666D01*
X7570000Y-7826666D01*
X7503333Y-7860000D01*
X7470000Y-7893333D01*
X7436666Y-7960000D01*
X7436666Y-8226666D01*
X7803333Y-7193333D02*
X7803333Y-7526666D01*
X7470000Y-7560000D01*
X7503333Y-7526666D01*
X7536666Y-7460000D01*
X7536666Y-7293333D01*
X7503333Y-7226666D01*
X7470000Y-7193333D01*
X7403333Y-7160000D01*
X7236666Y-7160000D01*
X7170000Y-7193333D01*
X7136666Y-7226666D01*
X7103333Y-7293333D01*
X7103333Y-7460000D01*
X7136666Y-7526666D01*
X7170000Y-7560000D01*
X15433333Y-4466666D02*
X15766666Y-4700000D01*
X15433333Y-4866666D02*
X16133333Y-4866666D01*
X16133333Y-4600000D01*
X16100000Y-4533333D01*
X16066666Y-4500000D01*
X16000000Y-4466666D01*
X15900000Y-4466666D01*
X15833333Y-4500000D01*
X15800000Y-4533333D01*
X15766666Y-4600000D01*
X15766666Y-4866666D01*
X16133333Y-3866666D02*
X16133333Y-4000000D01*
X16100000Y-4066666D01*
X16066666Y-4100000D01*
X15966666Y-4166666D01*
X15833333Y-4200000D01*
X15566666Y-4200000D01*
X15500000Y-4166666D01*
X15466666Y-4133333D01*
X15433333Y-4066666D01*
X15433333Y-3933333D01*
X15466666Y-3866666D01*
X15500000Y-3833333D01*
X15566666Y-3800000D01*
X15733333Y-3800000D01*
X15800000Y-3833333D01*
X15833333Y-3866666D01*
X15866666Y-3933333D01*
X15866666Y-4066666D01*
X15833333Y-4133333D01*
X15800000Y-4166666D01*
X15733333Y-4200000D01*
X34950000Y-45816666D02*
X35183333Y-45483333D01*
X35350000Y-45816666D02*
X35350000Y-45116666D01*
X35083333Y-45116666D01*
X35016666Y-45150000D01*
X34983333Y-45183333D01*
X34950000Y-45250000D01*
X34950000Y-45350000D01*
X34983333Y-45416666D01*
X35016666Y-45450000D01*
X35083333Y-45483333D01*
X35350000Y-45483333D01*
X34683333Y-45183333D02*
X34650000Y-45150000D01*
X34583333Y-45116666D01*
X34416666Y-45116666D01*
X34350000Y-45150000D01*
X34316666Y-45183333D01*
X34283333Y-45250000D01*
X34283333Y-45316666D01*
X34316666Y-45416666D01*
X34716666Y-45816666D01*
X34283333Y-45816666D01*
X34050000Y-45116666D02*
X33616666Y-45116666D01*
X33850000Y-45383333D01*
X33750000Y-45383333D01*
X33683333Y-45416666D01*
X33650000Y-45450000D01*
X33616666Y-45516666D01*
X33616666Y-45683333D01*
X33650000Y-45750000D01*
X33683333Y-45783333D01*
X33750000Y-45816666D01*
X33950000Y-45816666D01*
X34016666Y-45783333D01*
X34050000Y-45750000D01*
X31616666Y-18350000D02*
X31650000Y-18383333D01*
X31750000Y-18416666D01*
X31816666Y-18416666D01*
X31916666Y-18383333D01*
X31983333Y-18316666D01*
X32016666Y-18250000D01*
X32050000Y-18116666D01*
X32050000Y-18016666D01*
X32016666Y-17883333D01*
X31983333Y-17816666D01*
X31916666Y-17750000D01*
X31816666Y-17716666D01*
X31750000Y-17716666D01*
X31650000Y-17750000D01*
X31616666Y-17783333D01*
X30983333Y-17716666D02*
X31316666Y-17716666D01*
X31350000Y-18050000D01*
X31316666Y-18016666D01*
X31250000Y-17983333D01*
X31083333Y-17983333D01*
X31016666Y-18016666D01*
X30983333Y-18050000D01*
X30950000Y-18116666D01*
X30950000Y-18283333D01*
X30983333Y-18350000D01*
X31016666Y-18383333D01*
X31083333Y-18416666D01*
X31250000Y-18416666D01*
X31316666Y-18383333D01*
X31350000Y-18350000D01*
X10783333Y-48116666D02*
X10783333Y-48616666D01*
X10816666Y-48716666D01*
X10883333Y-48783333D01*
X10983333Y-48816666D01*
X11050000Y-48816666D01*
X10450000Y-48816666D02*
X10450000Y-48116666D01*
X10183333Y-48116666D01*
X10116666Y-48150000D01*
X10083333Y-48183333D01*
X10050000Y-48250000D01*
X10050000Y-48350000D01*
X10083333Y-48416666D01*
X10116666Y-48450000D01*
X10183333Y-48483333D01*
X10450000Y-48483333D01*
X9816666Y-48116666D02*
X9383333Y-48116666D01*
X9616666Y-48383333D01*
X9516666Y-48383333D01*
X9450000Y-48416666D01*
X9416666Y-48450000D01*
X9383333Y-48516666D01*
X9383333Y-48683333D01*
X9416666Y-48750000D01*
X9450000Y-48783333D01*
X9516666Y-48816666D01*
X9716666Y-48816666D01*
X9783333Y-48783333D01*
X9816666Y-48750000D01*
X16083333Y-48116666D02*
X16083333Y-48616666D01*
X16116666Y-48716666D01*
X16183333Y-48783333D01*
X16283333Y-48816666D01*
X16350000Y-48816666D01*
X15750000Y-48816666D02*
X15750000Y-48116666D01*
X15483333Y-48116666D01*
X15416666Y-48150000D01*
X15383333Y-48183333D01*
X15350000Y-48250000D01*
X15350000Y-48350000D01*
X15383333Y-48416666D01*
X15416666Y-48450000D01*
X15483333Y-48483333D01*
X15750000Y-48483333D01*
X15083333Y-48183333D02*
X15050000Y-48150000D01*
X14983333Y-48116666D01*
X14816666Y-48116666D01*
X14750000Y-48150000D01*
X14716666Y-48183333D01*
X14683333Y-48250000D01*
X14683333Y-48316666D01*
X14716666Y-48416666D01*
X15116666Y-48816666D01*
X14683333Y-48816666D01*
X9373333Y-10260000D02*
X9606666Y-10260000D01*
X9606666Y-10626666D02*
X9606666Y-9926666D01*
X9273333Y-9926666D01*
X8773333Y-10260000D02*
X8673333Y-10293333D01*
X8640000Y-10326666D01*
X8606666Y-10393333D01*
X8606666Y-10493333D01*
X8640000Y-10560000D01*
X8673333Y-10593333D01*
X8740000Y-10626666D01*
X9006666Y-10626666D01*
X9006666Y-9926666D01*
X8773333Y-9926666D01*
X8706666Y-9960000D01*
X8673333Y-9993333D01*
X8640000Y-10060000D01*
X8640000Y-10126666D01*
X8673333Y-10193333D01*
X8706666Y-10226666D01*
X8773333Y-10260000D01*
X9006666Y-10260000D01*
X7940000Y-10626666D02*
X8340000Y-10626666D01*
X8140000Y-10626666D02*
X8140000Y-9926666D01*
X8206666Y-10026666D01*
X8273333Y-10093333D01*
X8340000Y-10126666D01*
X9393333Y-8980000D02*
X9626666Y-8980000D01*
X9626666Y-9346666D02*
X9626666Y-8646666D01*
X9293333Y-8646666D01*
X8793333Y-8980000D02*
X8693333Y-9013333D01*
X8660000Y-9046666D01*
X8626666Y-9113333D01*
X8626666Y-9213333D01*
X8660000Y-9280000D01*
X8693333Y-9313333D01*
X8760000Y-9346666D01*
X9026666Y-9346666D01*
X9026666Y-8646666D01*
X8793333Y-8646666D01*
X8726666Y-8680000D01*
X8693333Y-8713333D01*
X8660000Y-8780000D01*
X8660000Y-8846666D01*
X8693333Y-8913333D01*
X8726666Y-8946666D01*
X8793333Y-8980000D01*
X9026666Y-8980000D01*
X8360000Y-8713333D02*
X8326666Y-8680000D01*
X8260000Y-8646666D01*
X8093333Y-8646666D01*
X8026666Y-8680000D01*
X7993333Y-8713333D01*
X7960000Y-8780000D01*
X7960000Y-8846666D01*
X7993333Y-8946666D01*
X8393333Y-9346666D01*
X7960000Y-9346666D01*
X6488333Y-6291666D02*
X6488333Y-6791666D01*
X6521666Y-6891666D01*
X6588333Y-6958333D01*
X6688333Y-6991666D01*
X6755000Y-6991666D01*
X5855000Y-6525000D02*
X5855000Y-6991666D01*
X6021666Y-6258333D02*
X6188333Y-6758333D01*
X5755000Y-6758333D01*
X45800000Y-34920000D02*
X45766666Y-34953333D01*
X45733333Y-35053333D01*
X45733333Y-35120000D01*
X45766666Y-35220000D01*
X45833333Y-35286666D01*
X45900000Y-35320000D01*
X46033333Y-35353333D01*
X46133333Y-35353333D01*
X46266666Y-35320000D01*
X46333333Y-35286666D01*
X46400000Y-35220000D01*
X46433333Y-35120000D01*
X46433333Y-35053333D01*
X46400000Y-34953333D01*
X46366666Y-34920000D01*
X45733333Y-34253333D02*
X45733333Y-34653333D01*
X45733333Y-34453333D02*
X46433333Y-34453333D01*
X46333333Y-34520000D01*
X46266666Y-34586666D01*
X46233333Y-34653333D01*
X46366666Y-33986666D02*
X46400000Y-33953333D01*
X46433333Y-33886666D01*
X46433333Y-33720000D01*
X46400000Y-33653333D01*
X46366666Y-33620000D01*
X46300000Y-33586666D01*
X46233333Y-33586666D01*
X46133333Y-33620000D01*
X45733333Y-34020000D01*
X45733333Y-33586666D01*
X24170000Y-42910000D02*
X24136666Y-42943333D01*
X24103333Y-43043333D01*
X24103333Y-43110000D01*
X24136666Y-43210000D01*
X24203333Y-43276666D01*
X24270000Y-43310000D01*
X24403333Y-43343333D01*
X24503333Y-43343333D01*
X24636666Y-43310000D01*
X24703333Y-43276666D01*
X24770000Y-43210000D01*
X24803333Y-43110000D01*
X24803333Y-43043333D01*
X24770000Y-42943333D01*
X24736666Y-42910000D01*
X24103333Y-42243333D02*
X24103333Y-42643333D01*
X24103333Y-42443333D02*
X24803333Y-42443333D01*
X24703333Y-42510000D01*
X24636666Y-42576666D01*
X24603333Y-42643333D01*
X24803333Y-41810000D02*
X24803333Y-41743333D01*
X24770000Y-41676666D01*
X24736666Y-41643333D01*
X24670000Y-41610000D01*
X24536666Y-41576666D01*
X24370000Y-41576666D01*
X24236666Y-41610000D01*
X24170000Y-41643333D01*
X24136666Y-41676666D01*
X24103333Y-41743333D01*
X24103333Y-41810000D01*
X24136666Y-41876666D01*
X24170000Y-41910000D01*
X24236666Y-41943333D01*
X24370000Y-41976666D01*
X24536666Y-41976666D01*
X24670000Y-41943333D01*
X24736666Y-41910000D01*
X24770000Y-41876666D01*
X24803333Y-41810000D01*
X24050000Y-16750000D02*
X24083333Y-16783333D01*
X24183333Y-16816666D01*
X24250000Y-16816666D01*
X24350000Y-16783333D01*
X24416666Y-16716666D01*
X24450000Y-16650000D01*
X24483333Y-16516666D01*
X24483333Y-16416666D01*
X24450000Y-16283333D01*
X24416666Y-16216666D01*
X24350000Y-16150000D01*
X24250000Y-16116666D01*
X24183333Y-16116666D01*
X24083333Y-16150000D01*
X24050000Y-16183333D01*
X23783333Y-16183333D02*
X23750000Y-16150000D01*
X23683333Y-16116666D01*
X23516666Y-16116666D01*
X23450000Y-16150000D01*
X23416666Y-16183333D01*
X23383333Y-16250000D01*
X23383333Y-16316666D01*
X23416666Y-16416666D01*
X23816666Y-16816666D01*
X23383333Y-16816666D01*
X22783333Y-16350000D02*
X22783333Y-16816666D01*
X22950000Y-16083333D02*
X23116666Y-16583333D01*
X22683333Y-16583333D01*
X33850000Y-6350000D02*
X33883333Y-6383333D01*
X33983333Y-6416666D01*
X34050000Y-6416666D01*
X34150000Y-6383333D01*
X34216666Y-6316666D01*
X34250000Y-6250000D01*
X34283333Y-6116666D01*
X34283333Y-6016666D01*
X34250000Y-5883333D01*
X34216666Y-5816666D01*
X34150000Y-5750000D01*
X34050000Y-5716666D01*
X33983333Y-5716666D01*
X33883333Y-5750000D01*
X33850000Y-5783333D01*
X33583333Y-5783333D02*
X33550000Y-5750000D01*
X33483333Y-5716666D01*
X33316666Y-5716666D01*
X33250000Y-5750000D01*
X33216666Y-5783333D01*
X33183333Y-5850000D01*
X33183333Y-5916666D01*
X33216666Y-6016666D01*
X33616666Y-6416666D01*
X33183333Y-6416666D01*
X32950000Y-5716666D02*
X32516666Y-5716666D01*
X32750000Y-5983333D01*
X32650000Y-5983333D01*
X32583333Y-6016666D01*
X32550000Y-6050000D01*
X32516666Y-6116666D01*
X32516666Y-6283333D01*
X32550000Y-6350000D01*
X32583333Y-6383333D01*
X32650000Y-6416666D01*
X32850000Y-6416666D01*
X32916666Y-6383333D01*
X32950000Y-6350000D01*
X15750000Y-11550000D02*
X15716666Y-11583333D01*
X15683333Y-11683333D01*
X15683333Y-11750000D01*
X15716666Y-11850000D01*
X15783333Y-11916666D01*
X15850000Y-11950000D01*
X15983333Y-11983333D01*
X16083333Y-11983333D01*
X16216666Y-11950000D01*
X16283333Y-11916666D01*
X16350000Y-11850000D01*
X16383333Y-11750000D01*
X16383333Y-11683333D01*
X16350000Y-11583333D01*
X16316666Y-11550000D01*
X16316666Y-11283333D02*
X16350000Y-11250000D01*
X16383333Y-11183333D01*
X16383333Y-11016666D01*
X16350000Y-10950000D01*
X16316666Y-10916666D01*
X16250000Y-10883333D01*
X16183333Y-10883333D01*
X16083333Y-10916666D01*
X15683333Y-11316666D01*
X15683333Y-10883333D01*
X15683333Y-10216666D02*
X15683333Y-10616666D01*
X15683333Y-10416666D02*
X16383333Y-10416666D01*
X16283333Y-10483333D01*
X16216666Y-10550000D01*
X16183333Y-10616666D01*
X24170000Y-48576666D02*
X24136666Y-48610000D01*
X24103333Y-48710000D01*
X24103333Y-48776666D01*
X24136666Y-48876666D01*
X24203333Y-48943333D01*
X24270000Y-48976666D01*
X24403333Y-49010000D01*
X24503333Y-49010000D01*
X24636666Y-48976666D01*
X24703333Y-48943333D01*
X24770000Y-48876666D01*
X24803333Y-48776666D01*
X24803333Y-48710000D01*
X24770000Y-48610000D01*
X24736666Y-48576666D01*
X24103333Y-48243333D02*
X24103333Y-48110000D01*
X24136666Y-48043333D01*
X24170000Y-48010000D01*
X24270000Y-47943333D01*
X24403333Y-47910000D01*
X24670000Y-47910000D01*
X24736666Y-47943333D01*
X24770000Y-47976666D01*
X24803333Y-48043333D01*
X24803333Y-48176666D01*
X24770000Y-48243333D01*
X24736666Y-48276666D01*
X24670000Y-48310000D01*
X24503333Y-48310000D01*
X24436666Y-48276666D01*
X24403333Y-48243333D01*
X24370000Y-48176666D01*
X24370000Y-48043333D01*
X24403333Y-47976666D01*
X24436666Y-47943333D01*
X24503333Y-47910000D01*
X28450000Y-17850000D02*
X28483333Y-17883333D01*
X28583333Y-17916666D01*
X28650000Y-17916666D01*
X28750000Y-17883333D01*
X28816666Y-17816666D01*
X28850000Y-17750000D01*
X28883333Y-17616666D01*
X28883333Y-17516666D01*
X28850000Y-17383333D01*
X28816666Y-17316666D01*
X28750000Y-17250000D01*
X28650000Y-17216666D01*
X28583333Y-17216666D01*
X28483333Y-17250000D01*
X28450000Y-17283333D01*
X28183333Y-17283333D02*
X28150000Y-17250000D01*
X28083333Y-17216666D01*
X27916666Y-17216666D01*
X27850000Y-17250000D01*
X27816666Y-17283333D01*
X27783333Y-17350000D01*
X27783333Y-17416666D01*
X27816666Y-17516666D01*
X28216666Y-17916666D01*
X27783333Y-17916666D01*
X27350000Y-17216666D02*
X27283333Y-17216666D01*
X27216666Y-17250000D01*
X27183333Y-17283333D01*
X27150000Y-17350000D01*
X27116666Y-17483333D01*
X27116666Y-17650000D01*
X27150000Y-17783333D01*
X27183333Y-17850000D01*
X27216666Y-17883333D01*
X27283333Y-17916666D01*
X27350000Y-17916666D01*
X27416666Y-17883333D01*
X27450000Y-17850000D01*
X27483333Y-17783333D01*
X27516666Y-17650000D01*
X27516666Y-17483333D01*
X27483333Y-17350000D01*
X27450000Y-17283333D01*
X27416666Y-17250000D01*
X27350000Y-17216666D01*
X25950000Y-17850000D02*
X25983333Y-17883333D01*
X26083333Y-17916666D01*
X26150000Y-17916666D01*
X26250000Y-17883333D01*
X26316666Y-17816666D01*
X26350000Y-17750000D01*
X26383333Y-17616666D01*
X26383333Y-17516666D01*
X26350000Y-17383333D01*
X26316666Y-17316666D01*
X26250000Y-17250000D01*
X26150000Y-17216666D01*
X26083333Y-17216666D01*
X25983333Y-17250000D01*
X25950000Y-17283333D01*
X25283333Y-17916666D02*
X25683333Y-17916666D01*
X25483333Y-17916666D02*
X25483333Y-17216666D01*
X25550000Y-17316666D01*
X25616666Y-17383333D01*
X25683333Y-17416666D01*
X24950000Y-17916666D02*
X24816666Y-17916666D01*
X24750000Y-17883333D01*
X24716666Y-17850000D01*
X24650000Y-17750000D01*
X24616666Y-17616666D01*
X24616666Y-17350000D01*
X24650000Y-17283333D01*
X24683333Y-17250000D01*
X24750000Y-17216666D01*
X24883333Y-17216666D01*
X24950000Y-17250000D01*
X24983333Y-17283333D01*
X25016666Y-17350000D01*
X25016666Y-17516666D01*
X24983333Y-17583333D01*
X24950000Y-17616666D01*
X24883333Y-17650000D01*
X24750000Y-17650000D01*
X24683333Y-17616666D01*
X24650000Y-17583333D01*
X24616666Y-17516666D01*
X21370000Y-4370000D02*
X21336666Y-4403333D01*
X21303333Y-4503333D01*
X21303333Y-4570000D01*
X21336666Y-4670000D01*
X21403333Y-4736666D01*
X21470000Y-4770000D01*
X21603333Y-4803333D01*
X21703333Y-4803333D01*
X21836666Y-4770000D01*
X21903333Y-4736666D01*
X21970000Y-4670000D01*
X22003333Y-4570000D01*
X22003333Y-4503333D01*
X21970000Y-4403333D01*
X21936666Y-4370000D01*
X21303333Y-3703333D02*
X21303333Y-4103333D01*
X21303333Y-3903333D02*
X22003333Y-3903333D01*
X21903333Y-3970000D01*
X21836666Y-4036666D01*
X21803333Y-4103333D01*
X21703333Y-3303333D02*
X21736666Y-3370000D01*
X21770000Y-3403333D01*
X21836666Y-3436666D01*
X21870000Y-3436666D01*
X21936666Y-3403333D01*
X21970000Y-3370000D01*
X22003333Y-3303333D01*
X22003333Y-3170000D01*
X21970000Y-3103333D01*
X21936666Y-3070000D01*
X21870000Y-3036666D01*
X21836666Y-3036666D01*
X21770000Y-3070000D01*
X21736666Y-3103333D01*
X21703333Y-3170000D01*
X21703333Y-3303333D01*
X21670000Y-3370000D01*
X21636666Y-3403333D01*
X21570000Y-3436666D01*
X21436666Y-3436666D01*
X21370000Y-3403333D01*
X21336666Y-3370000D01*
X21303333Y-3303333D01*
X21303333Y-3170000D01*
X21336666Y-3103333D01*
X21370000Y-3070000D01*
X21436666Y-3036666D01*
X21570000Y-3036666D01*
X21636666Y-3070000D01*
X21670000Y-3103333D01*
X21703333Y-3170000D01*
X7260000Y-13950000D02*
X7226666Y-13983333D01*
X7193333Y-14083333D01*
X7193333Y-14150000D01*
X7226666Y-14250000D01*
X7293333Y-14316666D01*
X7360000Y-14350000D01*
X7493333Y-14383333D01*
X7593333Y-14383333D01*
X7726666Y-14350000D01*
X7793333Y-14316666D01*
X7860000Y-14250000D01*
X7893333Y-14150000D01*
X7893333Y-14083333D01*
X7860000Y-13983333D01*
X7826666Y-13950000D01*
X7193333Y-13283333D02*
X7193333Y-13683333D01*
X7193333Y-13483333D02*
X7893333Y-13483333D01*
X7793333Y-13550000D01*
X7726666Y-13616666D01*
X7693333Y-13683333D01*
X7893333Y-13050000D02*
X7893333Y-12583333D01*
X7193333Y-12883333D01*
X47300000Y-36466666D02*
X47533333Y-36133333D01*
X47700000Y-36466666D02*
X47700000Y-35766666D01*
X47433333Y-35766666D01*
X47366666Y-35800000D01*
X47333333Y-35833333D01*
X47300000Y-35900000D01*
X47300000Y-36000000D01*
X47333333Y-36066666D01*
X47366666Y-36100000D01*
X47433333Y-36133333D01*
X47700000Y-36133333D01*
X47066666Y-35766666D02*
X46633333Y-35766666D01*
X46866666Y-36033333D01*
X46766666Y-36033333D01*
X46700000Y-36066666D01*
X46666666Y-36100000D01*
X46633333Y-36166666D01*
X46633333Y-36333333D01*
X46666666Y-36400000D01*
X46700000Y-36433333D01*
X46766666Y-36466666D01*
X46966666Y-36466666D01*
X47033333Y-36433333D01*
X47066666Y-36400000D01*
X46366666Y-35833333D02*
X46333333Y-35800000D01*
X46266666Y-35766666D01*
X46100000Y-35766666D01*
X46033333Y-35800000D01*
X46000000Y-35833333D01*
X45966666Y-35900000D01*
X45966666Y-35966666D01*
X46000000Y-36066666D01*
X46400000Y-36466666D01*
X45966666Y-36466666D01*
X34965000Y-46816666D02*
X35198333Y-46483333D01*
X35365000Y-46816666D02*
X35365000Y-46116666D01*
X35098333Y-46116666D01*
X35031666Y-46150000D01*
X34998333Y-46183333D01*
X34965000Y-46250000D01*
X34965000Y-46350000D01*
X34998333Y-46416666D01*
X35031666Y-46450000D01*
X35098333Y-46483333D01*
X35365000Y-46483333D01*
X34698333Y-46183333D02*
X34665000Y-46150000D01*
X34598333Y-46116666D01*
X34431666Y-46116666D01*
X34365000Y-46150000D01*
X34331666Y-46183333D01*
X34298333Y-46250000D01*
X34298333Y-46316666D01*
X34331666Y-46416666D01*
X34731666Y-46816666D01*
X34298333Y-46816666D01*
X33698333Y-46350000D02*
X33698333Y-46816666D01*
X33865000Y-46083333D02*
X34031666Y-46583333D01*
X33598333Y-46583333D01*
X47285000Y-41966666D02*
X47518333Y-41633333D01*
X47685000Y-41966666D02*
X47685000Y-41266666D01*
X47418333Y-41266666D01*
X47351666Y-41300000D01*
X47318333Y-41333333D01*
X47285000Y-41400000D01*
X47285000Y-41500000D01*
X47318333Y-41566666D01*
X47351666Y-41600000D01*
X47418333Y-41633333D01*
X47685000Y-41633333D01*
X47018333Y-41333333D02*
X46985000Y-41300000D01*
X46918333Y-41266666D01*
X46751666Y-41266666D01*
X46685000Y-41300000D01*
X46651666Y-41333333D01*
X46618333Y-41400000D01*
X46618333Y-41466666D01*
X46651666Y-41566666D01*
X47051666Y-41966666D01*
X46618333Y-41966666D01*
X46285000Y-41966666D02*
X46151666Y-41966666D01*
X46085000Y-41933333D01*
X46051666Y-41900000D01*
X45985000Y-41800000D01*
X45951666Y-41666666D01*
X45951666Y-41400000D01*
X45985000Y-41333333D01*
X46018333Y-41300000D01*
X46085000Y-41266666D01*
X46218333Y-41266666D01*
X46285000Y-41300000D01*
X46318333Y-41333333D01*
X46351666Y-41400000D01*
X46351666Y-41566666D01*
X46318333Y-41633333D01*
X46285000Y-41666666D01*
X46218333Y-41700000D01*
X46085000Y-41700000D01*
X46018333Y-41666666D01*
X45985000Y-41633333D01*
X45951666Y-41566666D01*
X29803333Y-4370000D02*
X30136666Y-4603333D01*
X29803333Y-4770000D02*
X30503333Y-4770000D01*
X30503333Y-4503333D01*
X30470000Y-4436666D01*
X30436666Y-4403333D01*
X30370000Y-4370000D01*
X30270000Y-4370000D01*
X30203333Y-4403333D01*
X30170000Y-4436666D01*
X30136666Y-4503333D01*
X30136666Y-4770000D01*
X30436666Y-4103333D02*
X30470000Y-4070000D01*
X30503333Y-4003333D01*
X30503333Y-3836666D01*
X30470000Y-3770000D01*
X30436666Y-3736666D01*
X30370000Y-3703333D01*
X30303333Y-3703333D01*
X30203333Y-3736666D01*
X29803333Y-4136666D01*
X29803333Y-3703333D01*
X30436666Y-3436666D02*
X30470000Y-3403333D01*
X30503333Y-3336666D01*
X30503333Y-3170000D01*
X30470000Y-3103333D01*
X30436666Y-3070000D01*
X30370000Y-3036666D01*
X30303333Y-3036666D01*
X30203333Y-3070000D01*
X29803333Y-3470000D01*
X29803333Y-3036666D01*
X13631666Y-8166666D02*
X13865000Y-7833333D01*
X14031666Y-8166666D02*
X14031666Y-7466666D01*
X13765000Y-7466666D01*
X13698333Y-7500000D01*
X13665000Y-7533333D01*
X13631666Y-7600000D01*
X13631666Y-7700000D01*
X13665000Y-7766666D01*
X13698333Y-7800000D01*
X13765000Y-7833333D01*
X14031666Y-7833333D01*
X13398333Y-7466666D02*
X12931666Y-7466666D01*
X13231666Y-8166666D01*
X37456666Y-62160000D02*
X37490000Y-62193333D01*
X37590000Y-62226666D01*
X37656666Y-62226666D01*
X37756666Y-62193333D01*
X37823333Y-62126666D01*
X37856666Y-62060000D01*
X37890000Y-61926666D01*
X37890000Y-61826666D01*
X37856666Y-61693333D01*
X37823333Y-61626666D01*
X37756666Y-61560000D01*
X37656666Y-61526666D01*
X37590000Y-61526666D01*
X37490000Y-61560000D01*
X37456666Y-61593333D01*
X37190000Y-61593333D02*
X37156666Y-61560000D01*
X37090000Y-61526666D01*
X36923333Y-61526666D01*
X36856666Y-61560000D01*
X36823333Y-61593333D01*
X36790000Y-61660000D01*
X36790000Y-61726666D01*
X36823333Y-61826666D01*
X37223333Y-62226666D01*
X36790000Y-62226666D01*
X9420000Y-53076666D02*
X9386666Y-53110000D01*
X9353333Y-53210000D01*
X9353333Y-53276666D01*
X9386666Y-53376666D01*
X9453333Y-53443333D01*
X9520000Y-53476666D01*
X9653333Y-53510000D01*
X9753333Y-53510000D01*
X9886666Y-53476666D01*
X9953333Y-53443333D01*
X10020000Y-53376666D01*
X10053333Y-53276666D01*
X10053333Y-53210000D01*
X10020000Y-53110000D01*
X9986666Y-53076666D01*
X9353333Y-52410000D02*
X9353333Y-52810000D01*
X9353333Y-52610000D02*
X10053333Y-52610000D01*
X9953333Y-52676666D01*
X9886666Y-52743333D01*
X9853333Y-52810000D01*
X7170000Y-53076666D02*
X7136666Y-53110000D01*
X7103333Y-53210000D01*
X7103333Y-53276666D01*
X7136666Y-53376666D01*
X7203333Y-53443333D01*
X7270000Y-53476666D01*
X7403333Y-53510000D01*
X7503333Y-53510000D01*
X7636666Y-53476666D01*
X7703333Y-53443333D01*
X7770000Y-53376666D01*
X7803333Y-53276666D01*
X7803333Y-53210000D01*
X7770000Y-53110000D01*
X7736666Y-53076666D01*
X7803333Y-52843333D02*
X7803333Y-52410000D01*
X7536666Y-52643333D01*
X7536666Y-52543333D01*
X7503333Y-52476666D01*
X7470000Y-52443333D01*
X7403333Y-52410000D01*
X7236666Y-52410000D01*
X7170000Y-52443333D01*
X7136666Y-52476666D01*
X7103333Y-52543333D01*
X7103333Y-52743333D01*
X7136666Y-52810000D01*
X7170000Y-52843333D01*
X8286666Y-51276666D02*
X8520000Y-50943333D01*
X8686666Y-51276666D02*
X8686666Y-50576666D01*
X8420000Y-50576666D01*
X8353333Y-50610000D01*
X8320000Y-50643333D01*
X8286666Y-50710000D01*
X8286666Y-50810000D01*
X8320000Y-50876666D01*
X8353333Y-50910000D01*
X8420000Y-50943333D01*
X8686666Y-50943333D01*
X7620000Y-51276666D02*
X8020000Y-51276666D01*
X7820000Y-51276666D02*
X7820000Y-50576666D01*
X7886666Y-50676666D01*
X7953333Y-50743333D01*
X8020000Y-50776666D01*
X7493333Y-65086666D02*
X7493333Y-65586666D01*
X7526666Y-65686666D01*
X7593333Y-65753333D01*
X7693333Y-65786666D01*
X7760000Y-65786666D01*
X7193333Y-65153333D02*
X7160000Y-65120000D01*
X7093333Y-65086666D01*
X6926666Y-65086666D01*
X6860000Y-65120000D01*
X6826666Y-65153333D01*
X6793333Y-65220000D01*
X6793333Y-65286666D01*
X6826666Y-65386666D01*
X7226666Y-65786666D01*
X6793333Y-65786666D01*
M02*
