G04 #@! TF.GenerationSoftware,KiCad,Pcbnew,5.0.2+dfsg1-1~bpo9+1*
G04 #@! TF.CreationDate,2019-10-23T12:45:27+02:00*
G04 #@! TF.ProjectId,zglue-demo-board,7a676c75-652d-4646-956d-6f2d626f6172,rev?*
G04 #@! TF.SameCoordinates,Original*
G04 #@! TF.FileFunction,Copper,L2,Inr*
G04 #@! TF.FilePolarity,Positive*
%FSLAX46Y46*%
G04 Gerber Fmt 4.6, Leading zero omitted, Abs format (unit mm)*
G04 Created by KiCad (PCBNEW 5.0.2+dfsg1-1~bpo9+1) date Wed 23 Oct 2019 12:45:27 PM CEST*
%MOMM*%
%LPD*%
G01*
G04 APERTURE LIST*
G04 #@! TA.AperFunction,ViaPad*
%ADD10C,0.500000*%
G04 #@! TD*
G04 #@! TA.AperFunction,ViaPad*
%ADD11C,2.000000*%
G04 #@! TD*
G04 #@! TA.AperFunction,ViaPad*
%ADD12C,0.550000*%
G04 #@! TD*
G04 #@! TA.AperFunction,Conductor*
%ADD13C,0.150000*%
G04 #@! TD*
G04 #@! TA.AperFunction,Conductor*
%ADD14C,0.254000*%
G04 #@! TD*
G04 APERTURE END LIST*
D10*
G04 #@! TO.N,GND*
G04 #@! TO.C,U6*
X26350000Y-11200000D03*
X24950000Y-11200000D03*
X23550000Y-11200000D03*
X22150000Y-11200000D03*
X26350000Y-9800000D03*
X24950000Y-9800000D03*
X23550000Y-9800000D03*
X22150000Y-9800000D03*
X26350000Y-8400000D03*
X24950000Y-8400000D03*
X23550000Y-8400000D03*
X22150000Y-8400000D03*
X26350000Y-7000000D03*
X24950000Y-7000000D03*
X23550000Y-7000000D03*
X22150000Y-7000000D03*
G04 #@! TD*
D11*
G04 #@! TO.N,Net-(J4-Pad40)*
G04 #@! TO.C,J4*
X2230000Y-8870000D03*
G04 #@! TO.N,GND*
X4770000Y-8870000D03*
G04 #@! TO.N,Net-(J4-Pad38)*
X2230000Y-11410000D03*
G04 #@! TO.N,Net-(J4-Pad37)*
X4770000Y-11410000D03*
G04 #@! TO.N,Net-(J4-Pad36)*
X2230000Y-13950000D03*
G04 #@! TO.N,Net-(J4-Pad35)*
X4770000Y-13950000D03*
G04 #@! TO.N,GND*
X2230000Y-16490000D03*
G04 #@! TO.N,Net-(J4-Pad33)*
X4770000Y-16490000D03*
G04 #@! TO.N,Net-(J4-Pad32)*
X2230000Y-19030000D03*
G04 #@! TO.N,Net-(J4-Pad31)*
X4770000Y-19030000D03*
G04 #@! TO.N,GND*
X2230000Y-21570000D03*
G04 #@! TO.N,Net-(J4-Pad29)*
X4770000Y-21570000D03*
G04 #@! TO.N,Net-(J4-Pad28)*
X2230000Y-24110000D03*
G04 #@! TO.N,Net-(J4-Pad27)*
X4770000Y-24110000D03*
G04 #@! TO.N,Net-(J4-Pad26)*
X2230000Y-26650000D03*
G04 #@! TO.N,GND*
X4770000Y-26650000D03*
G04 #@! TO.N,Net-(J4-Pad24)*
X2230000Y-29190000D03*
G04 #@! TO.N,Net-(J4-Pad23)*
X4770000Y-29190000D03*
G04 #@! TO.N,Net-(J4-Pad22)*
X2230000Y-31730000D03*
G04 #@! TO.N,Net-(J4-Pad21)*
X4770000Y-31730000D03*
G04 #@! TO.N,GND*
X2230000Y-34270000D03*
G04 #@! TO.N,Net-(J4-Pad19)*
X4770000Y-34270000D03*
G04 #@! TO.N,Net-(J4-Pad18)*
X2230000Y-36810000D03*
G04 #@! TO.N,Net-(J4-Pad1)*
X4770000Y-36810000D03*
G04 #@! TO.N,Net-(J4-Pad16)*
X2230000Y-39350000D03*
G04 #@! TO.N,Net-(J4-Pad15)*
X4770000Y-39350000D03*
G04 #@! TO.N,GND*
X2230000Y-41890000D03*
G04 #@! TO.N,Net-(J4-Pad13)*
X4770000Y-41890000D03*
G04 #@! TO.N,Net-(J4-Pad12)*
X2230000Y-44430000D03*
G04 #@! TO.N,Net-(J4-Pad11)*
X4770000Y-44430000D03*
G04 #@! TO.N,Net-(J4-Pad10)*
X2230000Y-46970000D03*
G04 #@! TO.N,GND*
X4770000Y-46970000D03*
G04 #@! TO.N,Net-(J4-Pad8)*
X2230000Y-49510000D03*
G04 #@! TO.N,Net-(J4-Pad7)*
X4770000Y-49510000D03*
G04 #@! TO.N,GND*
X2230000Y-52050000D03*
G04 #@! TO.N,Net-(J4-Pad5)*
X4770000Y-52050000D03*
G04 #@! TO.N,/5V0_IN*
X2230000Y-54590000D03*
G04 #@! TO.N,Net-(J4-Pad3)*
X4770000Y-54590000D03*
G04 #@! TO.N,/5V0_IN*
X2230000Y-57130000D03*
G04 #@! TO.N,Net-(J4-Pad1)*
X4770000Y-57130000D03*
G04 #@! TD*
D12*
G04 #@! TO.N,/CSI_CLK_IN_N*
X43641351Y-45388649D03*
X23278649Y-28798649D03*
G04 #@! TO.N,GND*
X24500000Y-14750000D03*
X18750000Y-12500000D03*
X18750000Y-11500000D03*
X16500000Y-6750000D03*
X17500000Y-6750000D03*
X18750000Y-5250000D03*
X18750000Y-10250000D03*
X18835883Y-7335883D03*
X8000000Y-5250000D03*
X21000000Y-18750000D03*
X32000000Y-9500000D03*
X33000000Y-13250000D03*
X30000000Y-12000000D03*
X31000000Y-1500000D03*
X29250000Y-750000D03*
X28000000Y-1500000D03*
X25500000Y-1500000D03*
X21500000Y-1500000D03*
X27000000Y-3750000D03*
X30000000Y-5750000D03*
X32000000Y-5500000D03*
X32250000Y-63000000D03*
X23500000Y-64750000D03*
X7500000Y-53500000D03*
X9250000Y-53500000D03*
X25500000Y-44250000D03*
X25500000Y-48750000D03*
X46500000Y-46750000D03*
X43500000Y-46750000D03*
X40500000Y-46750000D03*
X37500000Y-46750000D03*
X16500000Y-11250000D03*
X17500000Y-11250000D03*
X13000000Y-6250000D03*
X51250000Y-35750000D03*
X51000000Y-44250000D03*
X49750000Y-38100000D03*
X49500000Y-39000000D03*
X51000000Y-21250000D03*
X50750000Y-30500000D03*
X48750000Y-23750000D03*
X48750000Y-24750000D03*
X10750000Y-58750000D03*
X10750000Y-62500000D03*
X37500000Y-16500000D03*
X40500000Y-16500000D03*
X43500000Y-16500000D03*
X41500000Y-24750000D03*
X41500000Y-26000000D03*
X42000000Y-30500000D03*
X16100000Y-31300000D03*
X15900000Y-33000000D03*
X23200000Y-27500000D03*
X19600000Y-28200000D03*
X23500000Y-31200000D03*
X23300000Y-33700000D03*
X22400000Y-34300000D03*
X22400000Y-35700000D03*
X32300000Y-28200000D03*
X32700000Y-29000000D03*
X30900000Y-31800000D03*
X33600000Y-32800000D03*
X32800000Y-35000000D03*
X33600000Y-35800000D03*
X39900000Y-37800000D03*
X40100000Y-34700000D03*
X40100000Y-31500000D03*
X40600000Y-20000000D03*
X47200000Y-22700000D03*
X47100000Y-29500000D03*
X47490000Y-40037510D03*
X13800000Y-14400000D03*
X9900000Y-17300000D03*
X31600000Y-46375013D03*
X47558420Y-26534458D03*
X46500000Y-19500000D03*
X15739117Y-5989117D03*
X9700000Y-26600000D03*
G04 #@! TO.N,/CSI_D2_IN_P*
X37190000Y-44672500D03*
X23248649Y-32161351D03*
G04 #@! TO.N,/CSI_D2_IN_N*
X37190000Y-45347500D03*
X22771351Y-32638649D03*
G04 #@! TO.N,/CSI_D1_IN_P*
X39708649Y-46388649D03*
X22961351Y-29831351D03*
G04 #@! TO.N,/CSI_D1_IN_N*
X39231351Y-45911351D03*
X23438649Y-30308649D03*
G04 #@! TO.N,/CSI_CLK_IN_P*
X44118649Y-44911351D03*
X22801351Y-28321351D03*
G04 #@! TO.N,/CAM_GPIO*
X47500000Y-49250000D03*
X47500000Y-16000000D03*
G04 #@! TO.N,/CAM_CLK*
X48500000Y-49250000D03*
X48500000Y-16000000D03*
G04 #@! TO.N,/CAM_SCL*
X49500000Y-49250000D03*
X49500000Y-16000000D03*
G04 #@! TO.N,/CAM_SDA*
X50500000Y-49250000D03*
X50500000Y-16000000D03*
G04 #@! TO.N,/3V3_SYS*
X16800000Y-45100000D03*
X11500000Y-45100000D03*
X22300000Y-45100000D03*
X26900000Y-31900000D03*
X51400000Y-15400000D03*
X51400000Y-49400000D03*
X33600000Y-24900000D03*
G04 #@! TO.N,/CSI_CLK_OUT_P*
X37088649Y-29511351D03*
X45337500Y-15750000D03*
G04 #@! TO.N,/CSI_D1_OUT_N*
X31701351Y-29958649D03*
X38582500Y-19970000D03*
G04 #@! TO.N,/CSI_D1_OUT_P*
X32178649Y-29481351D03*
X39257500Y-19970000D03*
G04 #@! TO.N,/CSI_D2_OUT_N*
X32528649Y-32658649D03*
X41682500Y-19830000D03*
G04 #@! TO.N,/CSI_D2_OUT_P*
X32051351Y-32181351D03*
X42357500Y-19830000D03*
G04 #@! TO.N,/CSI_CLK_OUT_N*
X36611351Y-29988649D03*
X44662500Y-15750000D03*
G04 #@! TO.N,/PROG_USB_D_N*
X18354986Y-8755162D03*
X47197079Y-27104610D03*
G04 #@! TO.N,/PROG_USB_D_P*
X18839654Y-9224990D03*
X47200000Y-25900000D03*
G04 #@! TO.N,/5V0_DBG_USB*
X34600000Y-6500000D03*
X49000000Y-30600000D03*
G04 #@! TO.N,/USB_D_N*
X23538649Y-36338649D03*
X46800000Y-40237500D03*
G04 #@! TO.N,/USB_D_P*
X23061351Y-35861351D03*
X46800000Y-39562500D03*
G04 #@! TO.N,/E_PROC_SO_3V3*
X43800000Y-19400000D03*
X17400000Y-23300000D03*
G04 #@! TO.N,/E_PROC_SI_3V3*
X43200000Y-19800000D03*
X18600000Y-23300000D03*
G04 #@! TO.N,/E_PROC_SS_3V3*
X46400000Y-20200000D03*
X19600000Y-26300000D03*
G04 #@! TO.N,/E_PROC_SCK_3V3*
X45800000Y-19500000D03*
X16300000Y-23400000D03*
G04 #@! TO.N,/E_CTRL_SS_3V3*
X26250000Y-21000000D03*
X27500000Y-18750000D03*
X46000000Y-26400000D03*
X26600000Y-27800000D03*
G04 #@! TO.N,/E_CTRL_SO_3V3*
X44100000Y-26300000D03*
X25000000Y-27300000D03*
G04 #@! TO.N,/E_PROC_RST_3V3*
X27300000Y-23200000D03*
X22000000Y-23300000D03*
G04 #@! TO.N,/1V8_SYS*
X11100000Y-35700000D03*
X14200000Y-44300000D03*
X19100000Y-44300000D03*
X12900000Y-46500000D03*
X18200000Y-46500000D03*
X7625010Y-46502963D03*
G04 #@! TO.N,/E_CTRL_SI_3V3*
X42400000Y-26600000D03*
X28100000Y-26800000D03*
G04 #@! TO.N,/E_CTRL_SCK_3V3*
X46300000Y-25700000D03*
X24000000Y-27400000D03*
G04 #@! TO.N,Net-(R7-Pad1)*
X20700000Y-3800000D03*
X15400000Y-11200000D03*
G04 #@! TO.N,Net-(R6-Pad1)*
X11500000Y-12000000D03*
X14750000Y-13500000D03*
X21403749Y-3498126D03*
G04 #@! TO.N,Net-(R5-Pad2)*
X9800000Y-10400000D03*
X22300000Y-3400000D03*
G04 #@! TO.N,/VUSB*
X47750000Y-45750000D03*
X50250000Y-45750000D03*
X50500000Y-32750000D03*
X47500000Y-32750000D03*
X19750000Y-60250000D03*
X17500000Y-60250000D03*
X23000000Y-37600000D03*
X22900000Y-38800000D03*
G04 #@! TO.N,/5V0_IN*
X7500000Y-56500000D03*
X17200000Y-63400000D03*
X19900000Y-63400000D03*
X6680494Y-55961746D03*
G04 #@! TO.N,/VCCIO1*
X31600000Y-45700000D03*
X22900000Y-44300000D03*
X24600000Y-47000000D03*
G04 #@! TO.N,Net-(R25-Pad2)*
X29000000Y-48500000D03*
X32000000Y-44200000D03*
G04 #@! TO.N,Net-(R30-Pad2)*
X45484655Y-34095345D03*
X42950000Y-25080000D03*
G04 #@! TO.N,Net-(R31-Pad2)*
X45560000Y-35040000D03*
X43680000Y-25260000D03*
G04 #@! TO.N,Net-(R32-Pad2)*
X45560000Y-36010000D03*
X44500000Y-25260000D03*
G04 #@! TO.N,Net-(R33-Pad2)*
X45600000Y-37000000D03*
X45400000Y-25260000D03*
G04 #@! TO.N,/VCCIO3*
X42300000Y-24100000D03*
X47100000Y-21800000D03*
X10200000Y-42800000D03*
X47100000Y-30900000D03*
G04 #@! TO.N,/VCCIO2*
X42400000Y-29900000D03*
X47100000Y-28700000D03*
X15500000Y-43700000D03*
G04 #@! TO.N,Net-(R29-Pad2)*
X45700000Y-42000000D03*
X47600000Y-38500000D03*
G04 #@! TO.N,/TMS*
X16000000Y-29250000D03*
X26000000Y-57250000D03*
G04 #@! TO.N,/TCK*
X15500000Y-29750000D03*
X27250000Y-57250000D03*
G04 #@! TO.N,/TDO*
X15500000Y-28750000D03*
X28500000Y-57250000D03*
G04 #@! TO.N,/TDI*
X16000000Y-28250000D03*
X29750000Y-57250000D03*
G04 #@! TO.N,/DBG_RX*
X15500000Y-30750000D03*
X32000000Y-20500000D03*
G04 #@! TO.N,/DBG_TX*
X16000000Y-30250000D03*
X31500000Y-19250000D03*
G04 #@! TO.N,/E_PROC_RST*
X35200000Y-46000000D03*
X37700000Y-28300000D03*
G04 #@! TO.N,/CTRL_RST_FLASH_SOC_CS*
X35200000Y-47100000D03*
X37700000Y-31300000D03*
X8500000Y-19000000D03*
G04 #@! TO.N,/DONE*
X35275010Y-44200000D03*
X37400000Y-34200000D03*
X13500000Y-18900000D03*
G04 #@! TO.N,/FLASH_CLK*
X36759637Y-34900000D03*
X13600000Y-26600000D03*
G04 #@! TO.N,/FLASH_CS*
X37400000Y-35200000D03*
X9700000Y-19000000D03*
G04 #@! TO.N,/FLASH_IO0*
X36839365Y-35850587D03*
X11100000Y-26600000D03*
G04 #@! TO.N,/FLASH_IO1*
X37362623Y-36277000D03*
X11000000Y-19000000D03*
G04 #@! TO.N,/FLASH_IO2*
X36922702Y-36822702D03*
X32800000Y-36900000D03*
X12000000Y-27200000D03*
G04 #@! TO.N,/FLASH_IO3*
X37400000Y-37300000D03*
X32800000Y-37800000D03*
X12300000Y-18300000D03*
G04 #@! TO.N,/VCCIO*
X27500000Y-14500000D03*
X32000000Y-15000000D03*
X20300000Y-17000000D03*
X32900000Y-10000000D03*
X24500000Y-1500000D03*
G04 #@! TO.N,Net-(R9-Pad2)*
X18250000Y-6250000D03*
X21000000Y-7750000D03*
G04 #@! TO.N,Net-(R14-Pad1)*
X20250000Y-16000000D03*
X22500000Y-16000000D03*
G04 #@! TO.N,/3V3_FTDI*
X8000000Y-14400000D03*
X11500000Y-17100000D03*
X9800000Y-11300000D03*
X16600000Y-13500000D03*
X32200000Y-11000000D03*
G04 #@! TO.N,/1V8_FTDI*
X28700000Y-3900000D03*
X27100000Y-1600000D03*
X19600000Y-2500000D03*
X29900000Y-11200000D03*
X18200000Y-10900000D03*
X18900000Y-4500000D03*
G04 #@! TO.N,/CTRL_RST_FLASH_SOC_CS_3V3*
X27400000Y-44200000D03*
X30669474Y-44175010D03*
G04 #@! TD*
D13*
G04 #@! TO.N,/CAM_SDA*
X50500000Y-48861092D02*
X50500000Y-49000000D01*
X50500000Y-49250000D02*
X50500000Y-48861092D01*
G04 #@! TD*
D14*
G04 #@! TO.N,GND*
G36*
X55648000Y-65648000D02*
X352000Y-65648000D01*
X352000Y-63290200D01*
X16648000Y-63290200D01*
X16648000Y-63509800D01*
X16732037Y-63712683D01*
X16887317Y-63867963D01*
X17090200Y-63952000D01*
X17309800Y-63952000D01*
X17512683Y-63867963D01*
X17667963Y-63712683D01*
X17752000Y-63509800D01*
X17752000Y-63290200D01*
X19348000Y-63290200D01*
X19348000Y-63509800D01*
X19432037Y-63712683D01*
X19587317Y-63867963D01*
X19790200Y-63952000D01*
X20009800Y-63952000D01*
X20212683Y-63867963D01*
X20367963Y-63712683D01*
X20452000Y-63509800D01*
X20452000Y-63290200D01*
X20367963Y-63087317D01*
X20212683Y-62932037D01*
X20009800Y-62848000D01*
X19790200Y-62848000D01*
X19587317Y-62932037D01*
X19432037Y-63087317D01*
X19348000Y-63290200D01*
X17752000Y-63290200D01*
X17667963Y-63087317D01*
X17512683Y-62932037D01*
X17309800Y-62848000D01*
X17090200Y-62848000D01*
X16887317Y-62932037D01*
X16732037Y-63087317D01*
X16648000Y-63290200D01*
X352000Y-63290200D01*
X352000Y-61730391D01*
X8923000Y-61730391D01*
X8923000Y-62019609D01*
X9033679Y-62286813D01*
X9238187Y-62491321D01*
X9505391Y-62602000D01*
X9794609Y-62602000D01*
X10061813Y-62491321D01*
X10266321Y-62286813D01*
X10377000Y-62019609D01*
X10377000Y-61730391D01*
X12273000Y-61730391D01*
X12273000Y-62019609D01*
X12383679Y-62286813D01*
X12588187Y-62491321D01*
X12855391Y-62602000D01*
X13144609Y-62602000D01*
X13411813Y-62491321D01*
X13616321Y-62286813D01*
X13727000Y-62019609D01*
X13727000Y-61730391D01*
X13616321Y-61463187D01*
X13411813Y-61258679D01*
X13144609Y-61148000D01*
X12855391Y-61148000D01*
X12588187Y-61258679D01*
X12383679Y-61463187D01*
X12273000Y-61730391D01*
X10377000Y-61730391D01*
X10266321Y-61463187D01*
X10061813Y-61258679D01*
X9794609Y-61148000D01*
X9505391Y-61148000D01*
X9238187Y-61258679D01*
X9033679Y-61463187D01*
X8923000Y-61730391D01*
X352000Y-61730391D01*
X352000Y-60140200D01*
X16948000Y-60140200D01*
X16948000Y-60359800D01*
X17032037Y-60562683D01*
X17187317Y-60717963D01*
X17390200Y-60802000D01*
X17609800Y-60802000D01*
X17812683Y-60717963D01*
X17967963Y-60562683D01*
X18052000Y-60359800D01*
X18052000Y-60140200D01*
X19198000Y-60140200D01*
X19198000Y-60359800D01*
X19282037Y-60562683D01*
X19437317Y-60717963D01*
X19640200Y-60802000D01*
X19859800Y-60802000D01*
X20062683Y-60717963D01*
X20217963Y-60562683D01*
X20302000Y-60359800D01*
X20302000Y-60140200D01*
X20217963Y-59937317D01*
X20062683Y-59782037D01*
X19859800Y-59698000D01*
X19640200Y-59698000D01*
X19437317Y-59782037D01*
X19282037Y-59937317D01*
X19198000Y-60140200D01*
X18052000Y-60140200D01*
X17967963Y-59937317D01*
X17812683Y-59782037D01*
X17609800Y-59698000D01*
X17390200Y-59698000D01*
X17187317Y-59782037D01*
X17032037Y-59937317D01*
X16948000Y-60140200D01*
X352000Y-60140200D01*
X352000Y-51785461D01*
X584092Y-51785461D01*
X608144Y-52435460D01*
X810613Y-52924264D01*
X1077468Y-53022927D01*
X2050395Y-52050000D01*
X1077468Y-51077073D01*
X810613Y-51175736D01*
X584092Y-51785461D01*
X352000Y-51785461D01*
X352000Y-41625461D01*
X584092Y-41625461D01*
X608144Y-42275460D01*
X810613Y-42764264D01*
X1077468Y-42862927D01*
X2050395Y-41890000D01*
X1077468Y-40917073D01*
X810613Y-41015736D01*
X584092Y-41625461D01*
X352000Y-41625461D01*
X352000Y-34005461D01*
X584092Y-34005461D01*
X608144Y-34655460D01*
X810613Y-35144264D01*
X1077468Y-35242927D01*
X2050395Y-34270000D01*
X1077468Y-33297073D01*
X810613Y-33395736D01*
X584092Y-34005461D01*
X352000Y-34005461D01*
X352000Y-21305461D01*
X584092Y-21305461D01*
X608144Y-21955460D01*
X810613Y-22444264D01*
X1077468Y-22542927D01*
X2050395Y-21570000D01*
X1077468Y-20597073D01*
X810613Y-20695736D01*
X584092Y-21305461D01*
X352000Y-21305461D01*
X352000Y-16225461D01*
X584092Y-16225461D01*
X608144Y-16875460D01*
X810613Y-17364264D01*
X1077468Y-17462927D01*
X2050395Y-16490000D01*
X1077468Y-15517073D01*
X810613Y-15615736D01*
X584092Y-16225461D01*
X352000Y-16225461D01*
X352000Y-8615989D01*
X953000Y-8615989D01*
X953000Y-9124011D01*
X1147412Y-9593362D01*
X1506638Y-9952588D01*
X1959090Y-10140000D01*
X1506638Y-10327412D01*
X1147412Y-10686638D01*
X953000Y-11155989D01*
X953000Y-11664011D01*
X1147412Y-12133362D01*
X1506638Y-12492588D01*
X1959090Y-12680000D01*
X1506638Y-12867412D01*
X1147412Y-13226638D01*
X953000Y-13695989D01*
X953000Y-14204011D01*
X1147412Y-14673362D01*
X1489328Y-15015278D01*
X1355736Y-15070613D01*
X1257073Y-15337468D01*
X2230000Y-16310395D01*
X3202927Y-15337468D01*
X3104264Y-15070613D01*
X2966513Y-15019437D01*
X3312588Y-14673362D01*
X3500000Y-14220910D01*
X3687412Y-14673362D01*
X4046638Y-15032588D01*
X4499090Y-15220000D01*
X4046638Y-15407412D01*
X3704722Y-15749328D01*
X3649387Y-15615736D01*
X3382532Y-15517073D01*
X2409605Y-16490000D01*
X3382532Y-17462927D01*
X3649387Y-17364264D01*
X3700563Y-17226513D01*
X4046638Y-17572588D01*
X4499090Y-17760000D01*
X4046638Y-17947412D01*
X3687412Y-18306638D01*
X3500000Y-18759090D01*
X3312588Y-18306638D01*
X2970672Y-17964722D01*
X3104264Y-17909387D01*
X3202927Y-17642532D01*
X2230000Y-16669605D01*
X1257073Y-17642532D01*
X1355736Y-17909387D01*
X1493487Y-17960563D01*
X1147412Y-18306638D01*
X953000Y-18775989D01*
X953000Y-19284011D01*
X1147412Y-19753362D01*
X1489328Y-20095278D01*
X1355736Y-20150613D01*
X1257073Y-20417468D01*
X2230000Y-21390395D01*
X3202927Y-20417468D01*
X3104264Y-20150613D01*
X2966513Y-20099437D01*
X3312588Y-19753362D01*
X3500000Y-19300910D01*
X3687412Y-19753362D01*
X4046638Y-20112588D01*
X4499090Y-20300000D01*
X4046638Y-20487412D01*
X3704722Y-20829328D01*
X3649387Y-20695736D01*
X3382532Y-20597073D01*
X2409605Y-21570000D01*
X3382532Y-22542927D01*
X3649387Y-22444264D01*
X3700563Y-22306513D01*
X4046638Y-22652588D01*
X4499090Y-22840000D01*
X4046638Y-23027412D01*
X3687412Y-23386638D01*
X3500000Y-23839090D01*
X3312588Y-23386638D01*
X2970672Y-23044722D01*
X3104264Y-22989387D01*
X3202927Y-22722532D01*
X2230000Y-21749605D01*
X1257073Y-22722532D01*
X1355736Y-22989387D01*
X1493487Y-23040563D01*
X1147412Y-23386638D01*
X953000Y-23855989D01*
X953000Y-24364011D01*
X1147412Y-24833362D01*
X1506638Y-25192588D01*
X1959090Y-25380000D01*
X1506638Y-25567412D01*
X1147412Y-25926638D01*
X953000Y-26395989D01*
X953000Y-26904011D01*
X1147412Y-27373362D01*
X1506638Y-27732588D01*
X1959090Y-27920000D01*
X1506638Y-28107412D01*
X1147412Y-28466638D01*
X953000Y-28935989D01*
X953000Y-29444011D01*
X1147412Y-29913362D01*
X1506638Y-30272588D01*
X1959090Y-30460000D01*
X1506638Y-30647412D01*
X1147412Y-31006638D01*
X953000Y-31475989D01*
X953000Y-31984011D01*
X1147412Y-32453362D01*
X1489328Y-32795278D01*
X1355736Y-32850613D01*
X1257073Y-33117468D01*
X2230000Y-34090395D01*
X3202927Y-33117468D01*
X3104264Y-32850613D01*
X2966513Y-32799437D01*
X3312588Y-32453362D01*
X3500000Y-32000910D01*
X3687412Y-32453362D01*
X4046638Y-32812588D01*
X4499090Y-33000000D01*
X4046638Y-33187412D01*
X3704722Y-33529328D01*
X3649387Y-33395736D01*
X3382532Y-33297073D01*
X2409605Y-34270000D01*
X3382532Y-35242927D01*
X3649387Y-35144264D01*
X3700563Y-35006513D01*
X4046638Y-35352588D01*
X4499090Y-35540000D01*
X4046638Y-35727412D01*
X3687412Y-36086638D01*
X3500000Y-36539090D01*
X3312588Y-36086638D01*
X2970672Y-35744722D01*
X3104264Y-35689387D01*
X3202927Y-35422532D01*
X2230000Y-34449605D01*
X1257073Y-35422532D01*
X1355736Y-35689387D01*
X1493487Y-35740563D01*
X1147412Y-36086638D01*
X953000Y-36555989D01*
X953000Y-37064011D01*
X1147412Y-37533362D01*
X1506638Y-37892588D01*
X1959090Y-38080000D01*
X1506638Y-38267412D01*
X1147412Y-38626638D01*
X953000Y-39095989D01*
X953000Y-39604011D01*
X1147412Y-40073362D01*
X1489328Y-40415278D01*
X1355736Y-40470613D01*
X1257073Y-40737468D01*
X2230000Y-41710395D01*
X3202927Y-40737468D01*
X3104264Y-40470613D01*
X2966513Y-40419437D01*
X3312588Y-40073362D01*
X3500000Y-39620910D01*
X3687412Y-40073362D01*
X4046638Y-40432588D01*
X4499090Y-40620000D01*
X4046638Y-40807412D01*
X3704722Y-41149328D01*
X3649387Y-41015736D01*
X3382532Y-40917073D01*
X2409605Y-41890000D01*
X3382532Y-42862927D01*
X3649387Y-42764264D01*
X3700563Y-42626513D01*
X4046638Y-42972588D01*
X4499090Y-43160000D01*
X4046638Y-43347412D01*
X3687412Y-43706638D01*
X3500000Y-44159090D01*
X3312588Y-43706638D01*
X2970672Y-43364722D01*
X3104264Y-43309387D01*
X3202927Y-43042532D01*
X2230000Y-42069605D01*
X1257073Y-43042532D01*
X1355736Y-43309387D01*
X1493487Y-43360563D01*
X1147412Y-43706638D01*
X953000Y-44175989D01*
X953000Y-44684011D01*
X1147412Y-45153362D01*
X1506638Y-45512588D01*
X1959090Y-45700000D01*
X1506638Y-45887412D01*
X1147412Y-46246638D01*
X953000Y-46715989D01*
X953000Y-47224011D01*
X1147412Y-47693362D01*
X1506638Y-48052588D01*
X1959090Y-48240000D01*
X1506638Y-48427412D01*
X1147412Y-48786638D01*
X953000Y-49255989D01*
X953000Y-49764011D01*
X1147412Y-50233362D01*
X1489328Y-50575278D01*
X1355736Y-50630613D01*
X1257073Y-50897468D01*
X2230000Y-51870395D01*
X3202927Y-50897468D01*
X3104264Y-50630613D01*
X2966513Y-50579437D01*
X3312588Y-50233362D01*
X3500000Y-49780910D01*
X3687412Y-50233362D01*
X4046638Y-50592588D01*
X4499090Y-50780000D01*
X4046638Y-50967412D01*
X3704722Y-51309328D01*
X3649387Y-51175736D01*
X3382532Y-51077073D01*
X2409605Y-52050000D01*
X3382532Y-53022927D01*
X3649387Y-52924264D01*
X3700563Y-52786513D01*
X4046638Y-53132588D01*
X4499090Y-53320000D01*
X4046638Y-53507412D01*
X3687412Y-53866638D01*
X3500000Y-54319090D01*
X3312588Y-53866638D01*
X2970672Y-53524722D01*
X3104264Y-53469387D01*
X3202927Y-53202532D01*
X2230000Y-52229605D01*
X1257073Y-53202532D01*
X1355736Y-53469387D01*
X1493487Y-53520563D01*
X1147412Y-53866638D01*
X953000Y-54335989D01*
X953000Y-54844011D01*
X1147412Y-55313362D01*
X1506638Y-55672588D01*
X1959090Y-55860000D01*
X1506638Y-56047412D01*
X1147412Y-56406638D01*
X953000Y-56875989D01*
X953000Y-57384011D01*
X1147412Y-57853362D01*
X1506638Y-58212588D01*
X1975989Y-58407000D01*
X2484011Y-58407000D01*
X2953362Y-58212588D01*
X3312588Y-57853362D01*
X3500000Y-57400910D01*
X3687412Y-57853362D01*
X4046638Y-58212588D01*
X4515989Y-58407000D01*
X5024011Y-58407000D01*
X5493362Y-58212588D01*
X5852588Y-57853362D01*
X6047000Y-57384011D01*
X6047000Y-57140200D01*
X25448000Y-57140200D01*
X25448000Y-57359800D01*
X25532037Y-57562683D01*
X25687317Y-57717963D01*
X25890200Y-57802000D01*
X26109800Y-57802000D01*
X26312683Y-57717963D01*
X26467963Y-57562683D01*
X26552000Y-57359800D01*
X26552000Y-57140200D01*
X26698000Y-57140200D01*
X26698000Y-57359800D01*
X26782037Y-57562683D01*
X26937317Y-57717963D01*
X27140200Y-57802000D01*
X27359800Y-57802000D01*
X27562683Y-57717963D01*
X27717963Y-57562683D01*
X27802000Y-57359800D01*
X27802000Y-57140200D01*
X27948000Y-57140200D01*
X27948000Y-57359800D01*
X28032037Y-57562683D01*
X28187317Y-57717963D01*
X28390200Y-57802000D01*
X28609800Y-57802000D01*
X28812683Y-57717963D01*
X28967963Y-57562683D01*
X29052000Y-57359800D01*
X29052000Y-57140200D01*
X29198000Y-57140200D01*
X29198000Y-57359800D01*
X29282037Y-57562683D01*
X29437317Y-57717963D01*
X29640200Y-57802000D01*
X29859800Y-57802000D01*
X30062683Y-57717963D01*
X30217963Y-57562683D01*
X30302000Y-57359800D01*
X30302000Y-57140200D01*
X30217963Y-56937317D01*
X30062683Y-56782037D01*
X29859800Y-56698000D01*
X29640200Y-56698000D01*
X29437317Y-56782037D01*
X29282037Y-56937317D01*
X29198000Y-57140200D01*
X29052000Y-57140200D01*
X28967963Y-56937317D01*
X28812683Y-56782037D01*
X28609800Y-56698000D01*
X28390200Y-56698000D01*
X28187317Y-56782037D01*
X28032037Y-56937317D01*
X27948000Y-57140200D01*
X27802000Y-57140200D01*
X27717963Y-56937317D01*
X27562683Y-56782037D01*
X27359800Y-56698000D01*
X27140200Y-56698000D01*
X26937317Y-56782037D01*
X26782037Y-56937317D01*
X26698000Y-57140200D01*
X26552000Y-57140200D01*
X26467963Y-56937317D01*
X26312683Y-56782037D01*
X26109800Y-56698000D01*
X25890200Y-56698000D01*
X25687317Y-56782037D01*
X25532037Y-56937317D01*
X25448000Y-57140200D01*
X6047000Y-57140200D01*
X6047000Y-56875989D01*
X5852588Y-56406638D01*
X5493362Y-56047412D01*
X5040910Y-55860000D01*
X5060354Y-55851946D01*
X6128494Y-55851946D01*
X6128494Y-56071546D01*
X6212531Y-56274429D01*
X6367811Y-56429709D01*
X6570694Y-56513746D01*
X6790294Y-56513746D01*
X6948000Y-56448422D01*
X6948000Y-56609800D01*
X7032037Y-56812683D01*
X7187317Y-56967963D01*
X7390200Y-57052000D01*
X7609800Y-57052000D01*
X7812683Y-56967963D01*
X7967963Y-56812683D01*
X8052000Y-56609800D01*
X8052000Y-56390200D01*
X7967963Y-56187317D01*
X7812683Y-56032037D01*
X7609800Y-55948000D01*
X7390200Y-55948000D01*
X7232494Y-56013324D01*
X7232494Y-55851946D01*
X7148457Y-55649063D01*
X6993177Y-55493783D01*
X6790294Y-55409746D01*
X6570694Y-55409746D01*
X6367811Y-55493783D01*
X6212531Y-55649063D01*
X6128494Y-55851946D01*
X5060354Y-55851946D01*
X5493362Y-55672588D01*
X5852588Y-55313362D01*
X6047000Y-54844011D01*
X6047000Y-54335989D01*
X5852588Y-53866638D01*
X5493362Y-53507412D01*
X5040910Y-53320000D01*
X5493362Y-53132588D01*
X5852588Y-52773362D01*
X6047000Y-52304011D01*
X6047000Y-51795989D01*
X5852588Y-51326638D01*
X5493362Y-50967412D01*
X5040910Y-50780000D01*
X5493362Y-50592588D01*
X5852588Y-50233362D01*
X6047000Y-49764011D01*
X6047000Y-49255989D01*
X5999039Y-49140200D01*
X46948000Y-49140200D01*
X46948000Y-49359800D01*
X47032037Y-49562683D01*
X47187317Y-49717963D01*
X47390200Y-49802000D01*
X47609800Y-49802000D01*
X47812683Y-49717963D01*
X47967963Y-49562683D01*
X48000000Y-49485339D01*
X48032037Y-49562683D01*
X48187317Y-49717963D01*
X48390200Y-49802000D01*
X48609800Y-49802000D01*
X48812683Y-49717963D01*
X48967963Y-49562683D01*
X49000000Y-49485339D01*
X49032037Y-49562683D01*
X49187317Y-49717963D01*
X49390200Y-49802000D01*
X49609800Y-49802000D01*
X49812683Y-49717963D01*
X49967963Y-49562683D01*
X50000000Y-49485339D01*
X50032037Y-49562683D01*
X50187317Y-49717963D01*
X50390200Y-49802000D01*
X50609800Y-49802000D01*
X50812683Y-49717963D01*
X50898625Y-49632021D01*
X50932037Y-49712683D01*
X51087317Y-49867963D01*
X51290200Y-49952000D01*
X51509800Y-49952000D01*
X51712683Y-49867963D01*
X51867963Y-49712683D01*
X51952000Y-49509800D01*
X51952000Y-49290200D01*
X51867963Y-49087317D01*
X51712683Y-48932037D01*
X51509800Y-48848000D01*
X51290200Y-48848000D01*
X51087317Y-48932037D01*
X51001375Y-49017979D01*
X50967963Y-48937317D01*
X50850741Y-48820095D01*
X50831577Y-48723748D01*
X50753778Y-48607314D01*
X50637344Y-48529515D01*
X50500000Y-48502196D01*
X50362656Y-48529515D01*
X50284857Y-48581499D01*
X50269358Y-48591856D01*
X50246222Y-48607315D01*
X50168423Y-48723749D01*
X50156829Y-48782037D01*
X50149259Y-48820095D01*
X50032037Y-48937317D01*
X50000000Y-49014661D01*
X49967963Y-48937317D01*
X49812683Y-48782037D01*
X49609800Y-48698000D01*
X49390200Y-48698000D01*
X49187317Y-48782037D01*
X49032037Y-48937317D01*
X49000000Y-49014661D01*
X48967963Y-48937317D01*
X48812683Y-48782037D01*
X48609800Y-48698000D01*
X48390200Y-48698000D01*
X48187317Y-48782037D01*
X48032037Y-48937317D01*
X48000000Y-49014661D01*
X47967963Y-48937317D01*
X47812683Y-48782037D01*
X47609800Y-48698000D01*
X47390200Y-48698000D01*
X47187317Y-48782037D01*
X47032037Y-48937317D01*
X46948000Y-49140200D01*
X5999039Y-49140200D01*
X5852588Y-48786638D01*
X5510672Y-48444722D01*
X5642301Y-48390200D01*
X28448000Y-48390200D01*
X28448000Y-48609800D01*
X28532037Y-48812683D01*
X28687317Y-48967963D01*
X28890200Y-49052000D01*
X29109800Y-49052000D01*
X29312683Y-48967963D01*
X29467963Y-48812683D01*
X29552000Y-48609800D01*
X29552000Y-48390200D01*
X29467963Y-48187317D01*
X29312683Y-48032037D01*
X29109800Y-47948000D01*
X28890200Y-47948000D01*
X28687317Y-48032037D01*
X28532037Y-48187317D01*
X28448000Y-48390200D01*
X5642301Y-48390200D01*
X5644264Y-48389387D01*
X5742927Y-48122532D01*
X4770000Y-47149605D01*
X3797073Y-48122532D01*
X3895736Y-48389387D01*
X4033487Y-48440563D01*
X3687412Y-48786638D01*
X3500000Y-49239090D01*
X3312588Y-48786638D01*
X2953362Y-48427412D01*
X2500910Y-48240000D01*
X2953362Y-48052588D01*
X3295278Y-47710672D01*
X3350613Y-47844264D01*
X3617468Y-47942927D01*
X4590395Y-46970000D01*
X4949605Y-46970000D01*
X5922532Y-47942927D01*
X6189387Y-47844264D01*
X6415908Y-47234539D01*
X6391856Y-46584540D01*
X6312586Y-46393163D01*
X7073010Y-46393163D01*
X7073010Y-46612763D01*
X7157047Y-46815646D01*
X7312327Y-46970926D01*
X7515210Y-47054963D01*
X7734810Y-47054963D01*
X7937693Y-46970926D01*
X8092973Y-46815646D01*
X8177010Y-46612763D01*
X8177010Y-46393163D01*
X8175783Y-46390200D01*
X12348000Y-46390200D01*
X12348000Y-46609800D01*
X12432037Y-46812683D01*
X12587317Y-46967963D01*
X12790200Y-47052000D01*
X13009800Y-47052000D01*
X13212683Y-46967963D01*
X13367963Y-46812683D01*
X13452000Y-46609800D01*
X13452000Y-46390200D01*
X17648000Y-46390200D01*
X17648000Y-46609800D01*
X17732037Y-46812683D01*
X17887317Y-46967963D01*
X18090200Y-47052000D01*
X18309800Y-47052000D01*
X18512683Y-46967963D01*
X18590446Y-46890200D01*
X24048000Y-46890200D01*
X24048000Y-47109800D01*
X24132037Y-47312683D01*
X24287317Y-47467963D01*
X24490200Y-47552000D01*
X24709800Y-47552000D01*
X24912683Y-47467963D01*
X25067963Y-47312683D01*
X25152000Y-47109800D01*
X25152000Y-46890200D01*
X25067963Y-46687317D01*
X24912683Y-46532037D01*
X24709800Y-46448000D01*
X24490200Y-46448000D01*
X24287317Y-46532037D01*
X24132037Y-46687317D01*
X24048000Y-46890200D01*
X18590446Y-46890200D01*
X18667963Y-46812683D01*
X18752000Y-46609800D01*
X18752000Y-46390200D01*
X18667963Y-46187317D01*
X18512683Y-46032037D01*
X18309800Y-45948000D01*
X18090200Y-45948000D01*
X17887317Y-46032037D01*
X17732037Y-46187317D01*
X17648000Y-46390200D01*
X13452000Y-46390200D01*
X13367963Y-46187317D01*
X13212683Y-46032037D01*
X13009800Y-45948000D01*
X12790200Y-45948000D01*
X12587317Y-46032037D01*
X12432037Y-46187317D01*
X12348000Y-46390200D01*
X8175783Y-46390200D01*
X8092973Y-46190280D01*
X7937693Y-46035000D01*
X7734810Y-45950963D01*
X7515210Y-45950963D01*
X7312327Y-46035000D01*
X7157047Y-46190280D01*
X7073010Y-46393163D01*
X6312586Y-46393163D01*
X6189387Y-46095736D01*
X5922532Y-45997073D01*
X4949605Y-46970000D01*
X4590395Y-46970000D01*
X3617468Y-45997073D01*
X3350613Y-46095736D01*
X3299437Y-46233487D01*
X2953362Y-45887412D01*
X2500910Y-45700000D01*
X2953362Y-45512588D01*
X3312588Y-45153362D01*
X3500000Y-44700910D01*
X3687412Y-45153362D01*
X4029328Y-45495278D01*
X3895736Y-45550613D01*
X3797073Y-45817468D01*
X4770000Y-46790395D01*
X5742927Y-45817468D01*
X5644264Y-45550613D01*
X5506513Y-45499437D01*
X5852588Y-45153362D01*
X5920172Y-44990200D01*
X10948000Y-44990200D01*
X10948000Y-45209800D01*
X11032037Y-45412683D01*
X11187317Y-45567963D01*
X11390200Y-45652000D01*
X11609800Y-45652000D01*
X11812683Y-45567963D01*
X11967963Y-45412683D01*
X12052000Y-45209800D01*
X12052000Y-44990200D01*
X16248000Y-44990200D01*
X16248000Y-45209800D01*
X16332037Y-45412683D01*
X16487317Y-45567963D01*
X16690200Y-45652000D01*
X16909800Y-45652000D01*
X17112683Y-45567963D01*
X17267963Y-45412683D01*
X17352000Y-45209800D01*
X17352000Y-44990200D01*
X21748000Y-44990200D01*
X21748000Y-45209800D01*
X21832037Y-45412683D01*
X21987317Y-45567963D01*
X22190200Y-45652000D01*
X22409800Y-45652000D01*
X22558998Y-45590200D01*
X31048000Y-45590200D01*
X31048000Y-45809800D01*
X31132037Y-46012683D01*
X31287317Y-46167963D01*
X31490200Y-46252000D01*
X31709800Y-46252000D01*
X31912683Y-46167963D01*
X32067963Y-46012683D01*
X32118697Y-45890200D01*
X34648000Y-45890200D01*
X34648000Y-46109800D01*
X34732037Y-46312683D01*
X34887317Y-46467963D01*
X35085372Y-46550000D01*
X34887317Y-46632037D01*
X34732037Y-46787317D01*
X34648000Y-46990200D01*
X34648000Y-47209800D01*
X34732037Y-47412683D01*
X34887317Y-47567963D01*
X35090200Y-47652000D01*
X35309800Y-47652000D01*
X35512683Y-47567963D01*
X35667963Y-47412683D01*
X35752000Y-47209800D01*
X35752000Y-46990200D01*
X35667963Y-46787317D01*
X35512683Y-46632037D01*
X35314628Y-46550000D01*
X35512683Y-46467963D01*
X35667963Y-46312683D01*
X35752000Y-46109800D01*
X35752000Y-45890200D01*
X35667963Y-45687317D01*
X35512683Y-45532037D01*
X35309800Y-45448000D01*
X35090200Y-45448000D01*
X34887317Y-45532037D01*
X34732037Y-45687317D01*
X34648000Y-45890200D01*
X32118697Y-45890200D01*
X32152000Y-45809800D01*
X32152000Y-45590200D01*
X32067963Y-45387317D01*
X31912683Y-45232037D01*
X31709800Y-45148000D01*
X31490200Y-45148000D01*
X31287317Y-45232037D01*
X31132037Y-45387317D01*
X31048000Y-45590200D01*
X22558998Y-45590200D01*
X22612683Y-45567963D01*
X22767963Y-45412683D01*
X22852000Y-45209800D01*
X22852000Y-44990200D01*
X22794756Y-44852000D01*
X23009800Y-44852000D01*
X23212683Y-44767963D01*
X23367963Y-44612683D01*
X23452000Y-44409800D01*
X23452000Y-44190200D01*
X23410579Y-44090200D01*
X26848000Y-44090200D01*
X26848000Y-44309800D01*
X26932037Y-44512683D01*
X27087317Y-44667963D01*
X27290200Y-44752000D01*
X27509800Y-44752000D01*
X27712683Y-44667963D01*
X27867963Y-44512683D01*
X27952000Y-44309800D01*
X27952000Y-44090200D01*
X27941649Y-44065210D01*
X30117474Y-44065210D01*
X30117474Y-44284810D01*
X30201511Y-44487693D01*
X30356791Y-44642973D01*
X30559674Y-44727010D01*
X30779274Y-44727010D01*
X30982157Y-44642973D01*
X31137437Y-44487693D01*
X31221474Y-44284810D01*
X31221474Y-44090200D01*
X31448000Y-44090200D01*
X31448000Y-44309800D01*
X31532037Y-44512683D01*
X31687317Y-44667963D01*
X31890200Y-44752000D01*
X32109800Y-44752000D01*
X32312683Y-44667963D01*
X32467963Y-44512683D01*
X32552000Y-44309800D01*
X32552000Y-44090200D01*
X34723010Y-44090200D01*
X34723010Y-44309800D01*
X34807047Y-44512683D01*
X34962327Y-44667963D01*
X35165210Y-44752000D01*
X35384810Y-44752000D01*
X35587693Y-44667963D01*
X35692956Y-44562700D01*
X36638000Y-44562700D01*
X36638000Y-44782300D01*
X36722037Y-44985183D01*
X36746854Y-45010000D01*
X36722037Y-45034817D01*
X36638000Y-45237700D01*
X36638000Y-45457300D01*
X36722037Y-45660183D01*
X36877317Y-45815463D01*
X37080200Y-45899500D01*
X37299800Y-45899500D01*
X37502683Y-45815463D01*
X37516595Y-45801551D01*
X38679351Y-45801551D01*
X38679351Y-46021151D01*
X38763388Y-46224034D01*
X38918668Y-46379314D01*
X39121551Y-46463351D01*
X39156649Y-46463351D01*
X39156649Y-46498449D01*
X39240686Y-46701332D01*
X39395966Y-46856612D01*
X39598849Y-46940649D01*
X39818449Y-46940649D01*
X40021332Y-46856612D01*
X40176612Y-46701332D01*
X40260649Y-46498449D01*
X40260649Y-46278849D01*
X40176612Y-46075966D01*
X40021332Y-45920686D01*
X39818449Y-45836649D01*
X39783351Y-45836649D01*
X39783351Y-45801551D01*
X39699314Y-45598668D01*
X39544034Y-45443388D01*
X39341151Y-45359351D01*
X39121551Y-45359351D01*
X38918668Y-45443388D01*
X38763388Y-45598668D01*
X38679351Y-45801551D01*
X37516595Y-45801551D01*
X37657963Y-45660183D01*
X37742000Y-45457300D01*
X37742000Y-45278849D01*
X43089351Y-45278849D01*
X43089351Y-45498449D01*
X43173388Y-45701332D01*
X43328668Y-45856612D01*
X43531551Y-45940649D01*
X43751151Y-45940649D01*
X43954034Y-45856612D01*
X44109314Y-45701332D01*
X44134635Y-45640200D01*
X47198000Y-45640200D01*
X47198000Y-45859800D01*
X47282037Y-46062683D01*
X47437317Y-46217963D01*
X47640200Y-46302000D01*
X47859800Y-46302000D01*
X48062683Y-46217963D01*
X48217963Y-46062683D01*
X48302000Y-45859800D01*
X48302000Y-45640200D01*
X49698000Y-45640200D01*
X49698000Y-45859800D01*
X49782037Y-46062683D01*
X49937317Y-46217963D01*
X50140200Y-46302000D01*
X50359800Y-46302000D01*
X50562683Y-46217963D01*
X50717963Y-46062683D01*
X50802000Y-45859800D01*
X50802000Y-45640200D01*
X50717963Y-45437317D01*
X50562683Y-45282037D01*
X50359800Y-45198000D01*
X50140200Y-45198000D01*
X49937317Y-45282037D01*
X49782037Y-45437317D01*
X49698000Y-45640200D01*
X48302000Y-45640200D01*
X48217963Y-45437317D01*
X48062683Y-45282037D01*
X47859800Y-45198000D01*
X47640200Y-45198000D01*
X47437317Y-45282037D01*
X47282037Y-45437317D01*
X47198000Y-45640200D01*
X44134635Y-45640200D01*
X44193351Y-45498449D01*
X44193351Y-45463351D01*
X44228449Y-45463351D01*
X44431332Y-45379314D01*
X44586612Y-45224034D01*
X44670649Y-45021151D01*
X44670649Y-44801551D01*
X44586612Y-44598668D01*
X44431332Y-44443388D01*
X44228449Y-44359351D01*
X44008849Y-44359351D01*
X43805966Y-44443388D01*
X43650686Y-44598668D01*
X43566649Y-44801551D01*
X43566649Y-44836649D01*
X43531551Y-44836649D01*
X43328668Y-44920686D01*
X43173388Y-45075966D01*
X43089351Y-45278849D01*
X37742000Y-45278849D01*
X37742000Y-45237700D01*
X37657963Y-45034817D01*
X37633146Y-45010000D01*
X37657963Y-44985183D01*
X37742000Y-44782300D01*
X37742000Y-44562700D01*
X37657963Y-44359817D01*
X37502683Y-44204537D01*
X37299800Y-44120500D01*
X37080200Y-44120500D01*
X36877317Y-44204537D01*
X36722037Y-44359817D01*
X36638000Y-44562700D01*
X35692956Y-44562700D01*
X35742973Y-44512683D01*
X35827010Y-44309800D01*
X35827010Y-44090200D01*
X35742973Y-43887317D01*
X35587693Y-43732037D01*
X35384810Y-43648000D01*
X35165210Y-43648000D01*
X34962327Y-43732037D01*
X34807047Y-43887317D01*
X34723010Y-44090200D01*
X32552000Y-44090200D01*
X32467963Y-43887317D01*
X32312683Y-43732037D01*
X32109800Y-43648000D01*
X31890200Y-43648000D01*
X31687317Y-43732037D01*
X31532037Y-43887317D01*
X31448000Y-44090200D01*
X31221474Y-44090200D01*
X31221474Y-44065210D01*
X31137437Y-43862327D01*
X30982157Y-43707047D01*
X30779274Y-43623010D01*
X30559674Y-43623010D01*
X30356791Y-43707047D01*
X30201511Y-43862327D01*
X30117474Y-44065210D01*
X27941649Y-44065210D01*
X27867963Y-43887317D01*
X27712683Y-43732037D01*
X27509800Y-43648000D01*
X27290200Y-43648000D01*
X27087317Y-43732037D01*
X26932037Y-43887317D01*
X26848000Y-44090200D01*
X23410579Y-44090200D01*
X23367963Y-43987317D01*
X23212683Y-43832037D01*
X23009800Y-43748000D01*
X22790200Y-43748000D01*
X22587317Y-43832037D01*
X22432037Y-43987317D01*
X22348000Y-44190200D01*
X22348000Y-44409800D01*
X22405244Y-44548000D01*
X22190200Y-44548000D01*
X21987317Y-44632037D01*
X21832037Y-44787317D01*
X21748000Y-44990200D01*
X17352000Y-44990200D01*
X17267963Y-44787317D01*
X17112683Y-44632037D01*
X16909800Y-44548000D01*
X16690200Y-44548000D01*
X16487317Y-44632037D01*
X16332037Y-44787317D01*
X16248000Y-44990200D01*
X12052000Y-44990200D01*
X11967963Y-44787317D01*
X11812683Y-44632037D01*
X11609800Y-44548000D01*
X11390200Y-44548000D01*
X11187317Y-44632037D01*
X11032037Y-44787317D01*
X10948000Y-44990200D01*
X5920172Y-44990200D01*
X6047000Y-44684011D01*
X6047000Y-44190200D01*
X13648000Y-44190200D01*
X13648000Y-44409800D01*
X13732037Y-44612683D01*
X13887317Y-44767963D01*
X14090200Y-44852000D01*
X14309800Y-44852000D01*
X14512683Y-44767963D01*
X14667963Y-44612683D01*
X14752000Y-44409800D01*
X14752000Y-44190200D01*
X14667963Y-43987317D01*
X14512683Y-43832037D01*
X14309800Y-43748000D01*
X14090200Y-43748000D01*
X13887317Y-43832037D01*
X13732037Y-43987317D01*
X13648000Y-44190200D01*
X6047000Y-44190200D01*
X6047000Y-44175989D01*
X5852588Y-43706638D01*
X5736150Y-43590200D01*
X14948000Y-43590200D01*
X14948000Y-43809800D01*
X15032037Y-44012683D01*
X15187317Y-44167963D01*
X15390200Y-44252000D01*
X15609800Y-44252000D01*
X15758998Y-44190200D01*
X18548000Y-44190200D01*
X18548000Y-44409800D01*
X18632037Y-44612683D01*
X18787317Y-44767963D01*
X18990200Y-44852000D01*
X19209800Y-44852000D01*
X19412683Y-44767963D01*
X19567963Y-44612683D01*
X19652000Y-44409800D01*
X19652000Y-44190200D01*
X19567963Y-43987317D01*
X19412683Y-43832037D01*
X19209800Y-43748000D01*
X18990200Y-43748000D01*
X18787317Y-43832037D01*
X18632037Y-43987317D01*
X18548000Y-44190200D01*
X15758998Y-44190200D01*
X15812683Y-44167963D01*
X15967963Y-44012683D01*
X16052000Y-43809800D01*
X16052000Y-43590200D01*
X15967963Y-43387317D01*
X15812683Y-43232037D01*
X15609800Y-43148000D01*
X15390200Y-43148000D01*
X15187317Y-43232037D01*
X15032037Y-43387317D01*
X14948000Y-43590200D01*
X5736150Y-43590200D01*
X5493362Y-43347412D01*
X5040910Y-43160000D01*
X5493362Y-42972588D01*
X5775750Y-42690200D01*
X9648000Y-42690200D01*
X9648000Y-42909800D01*
X9732037Y-43112683D01*
X9887317Y-43267963D01*
X10090200Y-43352000D01*
X10309800Y-43352000D01*
X10512683Y-43267963D01*
X10667963Y-43112683D01*
X10752000Y-42909800D01*
X10752000Y-42690200D01*
X10667963Y-42487317D01*
X10512683Y-42332037D01*
X10309800Y-42248000D01*
X10090200Y-42248000D01*
X9887317Y-42332037D01*
X9732037Y-42487317D01*
X9648000Y-42690200D01*
X5775750Y-42690200D01*
X5852588Y-42613362D01*
X6047000Y-42144011D01*
X6047000Y-41890200D01*
X45148000Y-41890200D01*
X45148000Y-42109800D01*
X45232037Y-42312683D01*
X45387317Y-42467963D01*
X45590200Y-42552000D01*
X45809800Y-42552000D01*
X46012683Y-42467963D01*
X46167963Y-42312683D01*
X46252000Y-42109800D01*
X46252000Y-41890200D01*
X46167963Y-41687317D01*
X46012683Y-41532037D01*
X45809800Y-41448000D01*
X45590200Y-41448000D01*
X45387317Y-41532037D01*
X45232037Y-41687317D01*
X45148000Y-41890200D01*
X6047000Y-41890200D01*
X6047000Y-41635989D01*
X5852588Y-41166638D01*
X5493362Y-40807412D01*
X5040910Y-40620000D01*
X5493362Y-40432588D01*
X5852588Y-40073362D01*
X6047000Y-39604011D01*
X6047000Y-39452700D01*
X46248000Y-39452700D01*
X46248000Y-39672300D01*
X46332037Y-39875183D01*
X46356854Y-39900000D01*
X46332037Y-39924817D01*
X46248000Y-40127700D01*
X46248000Y-40347300D01*
X46332037Y-40550183D01*
X46487317Y-40705463D01*
X46690200Y-40789500D01*
X46909800Y-40789500D01*
X47112683Y-40705463D01*
X47267963Y-40550183D01*
X47352000Y-40347300D01*
X47352000Y-40127700D01*
X47267963Y-39924817D01*
X47243146Y-39900000D01*
X47267963Y-39875183D01*
X47352000Y-39672300D01*
X47352000Y-39452700D01*
X47267963Y-39249817D01*
X47112683Y-39094537D01*
X46909800Y-39010500D01*
X46690200Y-39010500D01*
X46487317Y-39094537D01*
X46332037Y-39249817D01*
X46248000Y-39452700D01*
X6047000Y-39452700D01*
X6047000Y-39095989D01*
X5878917Y-38690200D01*
X22348000Y-38690200D01*
X22348000Y-38909800D01*
X22432037Y-39112683D01*
X22587317Y-39267963D01*
X22790200Y-39352000D01*
X23009800Y-39352000D01*
X23212683Y-39267963D01*
X23367963Y-39112683D01*
X23452000Y-38909800D01*
X23452000Y-38690200D01*
X23367963Y-38487317D01*
X23270846Y-38390200D01*
X47048000Y-38390200D01*
X47048000Y-38609800D01*
X47132037Y-38812683D01*
X47287317Y-38967963D01*
X47490200Y-39052000D01*
X47709800Y-39052000D01*
X47912683Y-38967963D01*
X48067963Y-38812683D01*
X48152000Y-38609800D01*
X48152000Y-38390200D01*
X48067963Y-38187317D01*
X47912683Y-38032037D01*
X47709800Y-37948000D01*
X47490200Y-37948000D01*
X47287317Y-38032037D01*
X47132037Y-38187317D01*
X47048000Y-38390200D01*
X23270846Y-38390200D01*
X23212683Y-38332037D01*
X23009800Y-38248000D01*
X22790200Y-38248000D01*
X22587317Y-38332037D01*
X22432037Y-38487317D01*
X22348000Y-38690200D01*
X5878917Y-38690200D01*
X5852588Y-38626638D01*
X5493362Y-38267412D01*
X5040910Y-38080000D01*
X5493362Y-37892588D01*
X5852588Y-37533362D01*
X5870466Y-37490200D01*
X22448000Y-37490200D01*
X22448000Y-37709800D01*
X22532037Y-37912683D01*
X22687317Y-38067963D01*
X22890200Y-38152000D01*
X23109800Y-38152000D01*
X23312683Y-38067963D01*
X23467963Y-37912683D01*
X23552000Y-37709800D01*
X23552000Y-37490200D01*
X23467963Y-37287317D01*
X23312683Y-37132037D01*
X23109800Y-37048000D01*
X22890200Y-37048000D01*
X22687317Y-37132037D01*
X22532037Y-37287317D01*
X22448000Y-37490200D01*
X5870466Y-37490200D01*
X6047000Y-37064011D01*
X6047000Y-36555989D01*
X5852588Y-36086638D01*
X5493362Y-35727412D01*
X5162104Y-35590200D01*
X10548000Y-35590200D01*
X10548000Y-35809800D01*
X10632037Y-36012683D01*
X10787317Y-36167963D01*
X10990200Y-36252000D01*
X11209800Y-36252000D01*
X11412683Y-36167963D01*
X11567963Y-36012683D01*
X11652000Y-35809800D01*
X11652000Y-35751551D01*
X22509351Y-35751551D01*
X22509351Y-35971151D01*
X22593388Y-36174034D01*
X22748668Y-36329314D01*
X22951551Y-36413351D01*
X22986649Y-36413351D01*
X22986649Y-36448449D01*
X23070686Y-36651332D01*
X23225966Y-36806612D01*
X23428849Y-36890649D01*
X23648449Y-36890649D01*
X23851332Y-36806612D01*
X23867744Y-36790200D01*
X32248000Y-36790200D01*
X32248000Y-37009800D01*
X32332037Y-37212683D01*
X32469354Y-37350000D01*
X32332037Y-37487317D01*
X32248000Y-37690200D01*
X32248000Y-37909800D01*
X32332037Y-38112683D01*
X32487317Y-38267963D01*
X32690200Y-38352000D01*
X32909800Y-38352000D01*
X33112683Y-38267963D01*
X33267963Y-38112683D01*
X33352000Y-37909800D01*
X33352000Y-37690200D01*
X33267963Y-37487317D01*
X33130646Y-37350000D01*
X33267963Y-37212683D01*
X33352000Y-37009800D01*
X33352000Y-36790200D01*
X33267963Y-36587317D01*
X33112683Y-36432037D01*
X32909800Y-36348000D01*
X32690200Y-36348000D01*
X32487317Y-36432037D01*
X32332037Y-36587317D01*
X32248000Y-36790200D01*
X23867744Y-36790200D01*
X24006612Y-36651332D01*
X24090649Y-36448449D01*
X24090649Y-36228849D01*
X24006612Y-36025966D01*
X23851332Y-35870686D01*
X23648449Y-35786649D01*
X23613351Y-35786649D01*
X23613351Y-35751551D01*
X23529314Y-35548668D01*
X23374034Y-35393388D01*
X23171151Y-35309351D01*
X22951551Y-35309351D01*
X22748668Y-35393388D01*
X22593388Y-35548668D01*
X22509351Y-35751551D01*
X11652000Y-35751551D01*
X11652000Y-35590200D01*
X11567963Y-35387317D01*
X11412683Y-35232037D01*
X11209800Y-35148000D01*
X10990200Y-35148000D01*
X10787317Y-35232037D01*
X10632037Y-35387317D01*
X10548000Y-35590200D01*
X5162104Y-35590200D01*
X5040910Y-35540000D01*
X5493362Y-35352588D01*
X5852588Y-34993362D01*
X5936740Y-34790200D01*
X36207637Y-34790200D01*
X36207637Y-35009800D01*
X36291674Y-35212683D01*
X36446954Y-35367963D01*
X36513697Y-35395609D01*
X36371402Y-35537904D01*
X36287365Y-35740787D01*
X36287365Y-35960387D01*
X36371402Y-36163270D01*
X36526682Y-36318550D01*
X36612034Y-36353904D01*
X36610019Y-36354739D01*
X36454739Y-36510019D01*
X36370702Y-36712902D01*
X36370702Y-36932502D01*
X36454739Y-37135385D01*
X36610019Y-37290665D01*
X36812902Y-37374702D01*
X36848000Y-37374702D01*
X36848000Y-37409800D01*
X36932037Y-37612683D01*
X37087317Y-37767963D01*
X37290200Y-37852000D01*
X37509800Y-37852000D01*
X37712683Y-37767963D01*
X37867963Y-37612683D01*
X37952000Y-37409800D01*
X37952000Y-37190200D01*
X37867963Y-36987317D01*
X37712683Y-36832037D01*
X37588887Y-36780759D01*
X37675306Y-36744963D01*
X37830586Y-36589683D01*
X37914623Y-36386800D01*
X37914623Y-36167200D01*
X37830586Y-35964317D01*
X37675306Y-35809037D01*
X37523703Y-35746241D01*
X37712683Y-35667963D01*
X37867963Y-35512683D01*
X37952000Y-35309800D01*
X37952000Y-35090200D01*
X37867963Y-34887317D01*
X37712683Y-34732037D01*
X37635339Y-34700000D01*
X37712683Y-34667963D01*
X37867963Y-34512683D01*
X37952000Y-34309800D01*
X37952000Y-34090200D01*
X37908651Y-33985545D01*
X44932655Y-33985545D01*
X44932655Y-34205145D01*
X45016692Y-34408028D01*
X45171972Y-34563308D01*
X45231421Y-34587933D01*
X45092037Y-34727317D01*
X45008000Y-34930200D01*
X45008000Y-35149800D01*
X45092037Y-35352683D01*
X45247317Y-35507963D01*
X45288448Y-35525000D01*
X45247317Y-35542037D01*
X45092037Y-35697317D01*
X45008000Y-35900200D01*
X45008000Y-36119800D01*
X45092037Y-36322683D01*
X45247317Y-36477963D01*
X45332590Y-36513284D01*
X45287317Y-36532037D01*
X45132037Y-36687317D01*
X45048000Y-36890200D01*
X45048000Y-37109800D01*
X45132037Y-37312683D01*
X45287317Y-37467963D01*
X45490200Y-37552000D01*
X45709800Y-37552000D01*
X45912683Y-37467963D01*
X46067963Y-37312683D01*
X46152000Y-37109800D01*
X46152000Y-36890200D01*
X46067963Y-36687317D01*
X45912683Y-36532037D01*
X45827410Y-36496716D01*
X45872683Y-36477963D01*
X46027963Y-36322683D01*
X46112000Y-36119800D01*
X46112000Y-35900200D01*
X46027963Y-35697317D01*
X45872683Y-35542037D01*
X45831552Y-35525000D01*
X45872683Y-35507963D01*
X46027963Y-35352683D01*
X46112000Y-35149800D01*
X46112000Y-34930200D01*
X46027963Y-34727317D01*
X45872683Y-34572037D01*
X45813234Y-34547412D01*
X45952618Y-34408028D01*
X46036655Y-34205145D01*
X46036655Y-33985545D01*
X45952618Y-33782662D01*
X45797338Y-33627382D01*
X45594455Y-33543345D01*
X45374855Y-33543345D01*
X45171972Y-33627382D01*
X45016692Y-33782662D01*
X44932655Y-33985545D01*
X37908651Y-33985545D01*
X37867963Y-33887317D01*
X37712683Y-33732037D01*
X37509800Y-33648000D01*
X37290200Y-33648000D01*
X37087317Y-33732037D01*
X36932037Y-33887317D01*
X36848000Y-34090200D01*
X36848000Y-34309800D01*
X36863823Y-34348000D01*
X36649837Y-34348000D01*
X36446954Y-34432037D01*
X36291674Y-34587317D01*
X36207637Y-34790200D01*
X5936740Y-34790200D01*
X6047000Y-34524011D01*
X6047000Y-34015989D01*
X5852588Y-33546638D01*
X5493362Y-33187412D01*
X5040910Y-33000000D01*
X5493362Y-32812588D01*
X5777101Y-32528849D01*
X22219351Y-32528849D01*
X22219351Y-32748449D01*
X22303388Y-32951332D01*
X22458668Y-33106612D01*
X22661551Y-33190649D01*
X22881151Y-33190649D01*
X23084034Y-33106612D01*
X23239314Y-32951332D01*
X23323351Y-32748449D01*
X23323351Y-32713351D01*
X23358449Y-32713351D01*
X23561332Y-32629314D01*
X23716612Y-32474034D01*
X23800649Y-32271151D01*
X23800649Y-32051551D01*
X23716612Y-31848668D01*
X23658144Y-31790200D01*
X26348000Y-31790200D01*
X26348000Y-32009800D01*
X26432037Y-32212683D01*
X26587317Y-32367963D01*
X26790200Y-32452000D01*
X27009800Y-32452000D01*
X27212683Y-32367963D01*
X27367963Y-32212683D01*
X27426421Y-32071551D01*
X31499351Y-32071551D01*
X31499351Y-32291151D01*
X31583388Y-32494034D01*
X31738668Y-32649314D01*
X31941551Y-32733351D01*
X31976649Y-32733351D01*
X31976649Y-32768449D01*
X32060686Y-32971332D01*
X32215966Y-33126612D01*
X32418849Y-33210649D01*
X32638449Y-33210649D01*
X32841332Y-33126612D01*
X32996612Y-32971332D01*
X33080649Y-32768449D01*
X33080649Y-32640200D01*
X46948000Y-32640200D01*
X46948000Y-32859800D01*
X47032037Y-33062683D01*
X47187317Y-33217963D01*
X47390200Y-33302000D01*
X47609800Y-33302000D01*
X47812683Y-33217963D01*
X47967963Y-33062683D01*
X48052000Y-32859800D01*
X48052000Y-32640200D01*
X49948000Y-32640200D01*
X49948000Y-32859800D01*
X50032037Y-33062683D01*
X50187317Y-33217963D01*
X50390200Y-33302000D01*
X50609800Y-33302000D01*
X50812683Y-33217963D01*
X50967963Y-33062683D01*
X51052000Y-32859800D01*
X51052000Y-32640200D01*
X50967963Y-32437317D01*
X50812683Y-32282037D01*
X50609800Y-32198000D01*
X50390200Y-32198000D01*
X50187317Y-32282037D01*
X50032037Y-32437317D01*
X49948000Y-32640200D01*
X48052000Y-32640200D01*
X47967963Y-32437317D01*
X47812683Y-32282037D01*
X47609800Y-32198000D01*
X47390200Y-32198000D01*
X47187317Y-32282037D01*
X47032037Y-32437317D01*
X46948000Y-32640200D01*
X33080649Y-32640200D01*
X33080649Y-32548849D01*
X32996612Y-32345966D01*
X32841332Y-32190686D01*
X32638449Y-32106649D01*
X32603351Y-32106649D01*
X32603351Y-32071551D01*
X32519314Y-31868668D01*
X32364034Y-31713388D01*
X32161151Y-31629351D01*
X31941551Y-31629351D01*
X31738668Y-31713388D01*
X31583388Y-31868668D01*
X31499351Y-32071551D01*
X27426421Y-32071551D01*
X27452000Y-32009800D01*
X27452000Y-31790200D01*
X27367963Y-31587317D01*
X27212683Y-31432037D01*
X27009800Y-31348000D01*
X26790200Y-31348000D01*
X26587317Y-31432037D01*
X26432037Y-31587317D01*
X26348000Y-31790200D01*
X23658144Y-31790200D01*
X23561332Y-31693388D01*
X23358449Y-31609351D01*
X23138849Y-31609351D01*
X22935966Y-31693388D01*
X22780686Y-31848668D01*
X22696649Y-32051551D01*
X22696649Y-32086649D01*
X22661551Y-32086649D01*
X22458668Y-32170686D01*
X22303388Y-32325966D01*
X22219351Y-32528849D01*
X5777101Y-32528849D01*
X5852588Y-32453362D01*
X6047000Y-31984011D01*
X6047000Y-31475989D01*
X5852588Y-31006638D01*
X5493362Y-30647412D01*
X5040910Y-30460000D01*
X5493362Y-30272588D01*
X5852588Y-29913362D01*
X6047000Y-29444011D01*
X6047000Y-28935989D01*
X5924480Y-28640200D01*
X14948000Y-28640200D01*
X14948000Y-28859800D01*
X15032037Y-29062683D01*
X15187317Y-29217963D01*
X15264661Y-29250000D01*
X15187317Y-29282037D01*
X15032037Y-29437317D01*
X14948000Y-29640200D01*
X14948000Y-29859800D01*
X15032037Y-30062683D01*
X15187317Y-30217963D01*
X15264661Y-30250000D01*
X15187317Y-30282037D01*
X15032037Y-30437317D01*
X14948000Y-30640200D01*
X14948000Y-30859800D01*
X15032037Y-31062683D01*
X15187317Y-31217963D01*
X15390200Y-31302000D01*
X15609800Y-31302000D01*
X15812683Y-31217963D01*
X15840446Y-31190200D01*
X37148000Y-31190200D01*
X37148000Y-31409800D01*
X37232037Y-31612683D01*
X37387317Y-31767963D01*
X37590200Y-31852000D01*
X37809800Y-31852000D01*
X38012683Y-31767963D01*
X38167963Y-31612683D01*
X38252000Y-31409800D01*
X38252000Y-31190200D01*
X38167963Y-30987317D01*
X38012683Y-30832037D01*
X37911680Y-30790200D01*
X46548000Y-30790200D01*
X46548000Y-31009800D01*
X46632037Y-31212683D01*
X46787317Y-31367963D01*
X46990200Y-31452000D01*
X47209800Y-31452000D01*
X47412683Y-31367963D01*
X47567963Y-31212683D01*
X47652000Y-31009800D01*
X47652000Y-30790200D01*
X47567963Y-30587317D01*
X47470846Y-30490200D01*
X48448000Y-30490200D01*
X48448000Y-30709800D01*
X48532037Y-30912683D01*
X48687317Y-31067963D01*
X48890200Y-31152000D01*
X49109800Y-31152000D01*
X49312683Y-31067963D01*
X49467963Y-30912683D01*
X49552000Y-30709800D01*
X49552000Y-30490200D01*
X49467963Y-30287317D01*
X49312683Y-30132037D01*
X49109800Y-30048000D01*
X48890200Y-30048000D01*
X48687317Y-30132037D01*
X48532037Y-30287317D01*
X48448000Y-30490200D01*
X47470846Y-30490200D01*
X47412683Y-30432037D01*
X47209800Y-30348000D01*
X46990200Y-30348000D01*
X46787317Y-30432037D01*
X46632037Y-30587317D01*
X46548000Y-30790200D01*
X37911680Y-30790200D01*
X37809800Y-30748000D01*
X37590200Y-30748000D01*
X37387317Y-30832037D01*
X37232037Y-30987317D01*
X37148000Y-31190200D01*
X15840446Y-31190200D01*
X15967963Y-31062683D01*
X16052000Y-30859800D01*
X16052000Y-30802000D01*
X16109800Y-30802000D01*
X16312683Y-30717963D01*
X16467963Y-30562683D01*
X16552000Y-30359800D01*
X16552000Y-30140200D01*
X16467963Y-29937317D01*
X16312683Y-29782037D01*
X16235339Y-29750000D01*
X16312683Y-29717963D01*
X16467963Y-29562683D01*
X16552000Y-29359800D01*
X16552000Y-29140200D01*
X16467963Y-28937317D01*
X16312683Y-28782037D01*
X16235339Y-28750000D01*
X16312683Y-28717963D01*
X16467963Y-28562683D01*
X16552000Y-28359800D01*
X16552000Y-28211551D01*
X22249351Y-28211551D01*
X22249351Y-28431151D01*
X22333388Y-28634034D01*
X22488668Y-28789314D01*
X22691551Y-28873351D01*
X22726649Y-28873351D01*
X22726649Y-28908449D01*
X22810686Y-29111332D01*
X22965966Y-29266612D01*
X22996721Y-29279351D01*
X22851551Y-29279351D01*
X22648668Y-29363388D01*
X22493388Y-29518668D01*
X22409351Y-29721551D01*
X22409351Y-29941151D01*
X22493388Y-30144034D01*
X22648668Y-30299314D01*
X22851551Y-30383351D01*
X22886649Y-30383351D01*
X22886649Y-30418449D01*
X22970686Y-30621332D01*
X23125966Y-30776612D01*
X23328849Y-30860649D01*
X23548449Y-30860649D01*
X23751332Y-30776612D01*
X23906612Y-30621332D01*
X23990649Y-30418449D01*
X23990649Y-30198849D01*
X23906612Y-29995966D01*
X23759495Y-29848849D01*
X31149351Y-29848849D01*
X31149351Y-30068449D01*
X31233388Y-30271332D01*
X31388668Y-30426612D01*
X31591551Y-30510649D01*
X31811151Y-30510649D01*
X32014034Y-30426612D01*
X32169314Y-30271332D01*
X32253351Y-30068449D01*
X32253351Y-30033351D01*
X32288449Y-30033351D01*
X32491332Y-29949314D01*
X32561797Y-29878849D01*
X36059351Y-29878849D01*
X36059351Y-30098449D01*
X36143388Y-30301332D01*
X36298668Y-30456612D01*
X36501551Y-30540649D01*
X36721151Y-30540649D01*
X36924034Y-30456612D01*
X37079314Y-30301332D01*
X37163351Y-30098449D01*
X37163351Y-30063351D01*
X37198449Y-30063351D01*
X37401332Y-29979314D01*
X37556612Y-29824034D01*
X37570626Y-29790200D01*
X41848000Y-29790200D01*
X41848000Y-30009800D01*
X41932037Y-30212683D01*
X42087317Y-30367963D01*
X42290200Y-30452000D01*
X42509800Y-30452000D01*
X42712683Y-30367963D01*
X42867963Y-30212683D01*
X42952000Y-30009800D01*
X42952000Y-29790200D01*
X42867963Y-29587317D01*
X42712683Y-29432037D01*
X42509800Y-29348000D01*
X42290200Y-29348000D01*
X42087317Y-29432037D01*
X41932037Y-29587317D01*
X41848000Y-29790200D01*
X37570626Y-29790200D01*
X37640649Y-29621151D01*
X37640649Y-29401551D01*
X37556612Y-29198668D01*
X37401332Y-29043388D01*
X37198449Y-28959351D01*
X36978849Y-28959351D01*
X36775966Y-29043388D01*
X36620686Y-29198668D01*
X36536649Y-29401551D01*
X36536649Y-29436649D01*
X36501551Y-29436649D01*
X36298668Y-29520686D01*
X36143388Y-29675966D01*
X36059351Y-29878849D01*
X32561797Y-29878849D01*
X32646612Y-29794034D01*
X32730649Y-29591151D01*
X32730649Y-29371551D01*
X32646612Y-29168668D01*
X32491332Y-29013388D01*
X32288449Y-28929351D01*
X32068849Y-28929351D01*
X31865966Y-29013388D01*
X31710686Y-29168668D01*
X31626649Y-29371551D01*
X31626649Y-29406649D01*
X31591551Y-29406649D01*
X31388668Y-29490686D01*
X31233388Y-29645966D01*
X31149351Y-29848849D01*
X23759495Y-29848849D01*
X23751332Y-29840686D01*
X23548449Y-29756649D01*
X23513351Y-29756649D01*
X23513351Y-29721551D01*
X23429314Y-29518668D01*
X23274034Y-29363388D01*
X23243279Y-29350649D01*
X23388449Y-29350649D01*
X23591332Y-29266612D01*
X23746612Y-29111332D01*
X23830649Y-28908449D01*
X23830649Y-28688849D01*
X23746612Y-28485966D01*
X23591332Y-28330686D01*
X23388449Y-28246649D01*
X23353351Y-28246649D01*
X23353351Y-28211551D01*
X23269314Y-28008668D01*
X23114034Y-27853388D01*
X22911151Y-27769351D01*
X22691551Y-27769351D01*
X22488668Y-27853388D01*
X22333388Y-28008668D01*
X22249351Y-28211551D01*
X16552000Y-28211551D01*
X16552000Y-28140200D01*
X16467963Y-27937317D01*
X16312683Y-27782037D01*
X16109800Y-27698000D01*
X15890200Y-27698000D01*
X15687317Y-27782037D01*
X15532037Y-27937317D01*
X15448000Y-28140200D01*
X15448000Y-28198000D01*
X15390200Y-28198000D01*
X15187317Y-28282037D01*
X15032037Y-28437317D01*
X14948000Y-28640200D01*
X5924480Y-28640200D01*
X5852588Y-28466638D01*
X5510672Y-28124722D01*
X5644264Y-28069387D01*
X5742927Y-27802532D01*
X4770000Y-26829605D01*
X3797073Y-27802532D01*
X3895736Y-28069387D01*
X4033487Y-28120563D01*
X3687412Y-28466638D01*
X3500000Y-28919090D01*
X3312588Y-28466638D01*
X2953362Y-28107412D01*
X2500910Y-27920000D01*
X2953362Y-27732588D01*
X3295278Y-27390672D01*
X3350613Y-27524264D01*
X3617468Y-27622927D01*
X4590395Y-26650000D01*
X4949605Y-26650000D01*
X5922532Y-27622927D01*
X6189387Y-27524264D01*
X6415908Y-26914539D01*
X6400207Y-26490200D01*
X10548000Y-26490200D01*
X10548000Y-26709800D01*
X10632037Y-26912683D01*
X10787317Y-27067963D01*
X10990200Y-27152000D01*
X11209800Y-27152000D01*
X11412683Y-27067963D01*
X11488697Y-26991949D01*
X11448000Y-27090200D01*
X11448000Y-27309800D01*
X11532037Y-27512683D01*
X11687317Y-27667963D01*
X11890200Y-27752000D01*
X12109800Y-27752000D01*
X12312683Y-27667963D01*
X12467963Y-27512683D01*
X12552000Y-27309800D01*
X12552000Y-27290200D01*
X23448000Y-27290200D01*
X23448000Y-27509800D01*
X23532037Y-27712683D01*
X23687317Y-27867963D01*
X23890200Y-27952000D01*
X24109800Y-27952000D01*
X24312683Y-27867963D01*
X24467963Y-27712683D01*
X24520711Y-27585339D01*
X24532037Y-27612683D01*
X24687317Y-27767963D01*
X24890200Y-27852000D01*
X25109800Y-27852000D01*
X25312683Y-27767963D01*
X25390446Y-27690200D01*
X26048000Y-27690200D01*
X26048000Y-27909800D01*
X26132037Y-28112683D01*
X26287317Y-28267963D01*
X26490200Y-28352000D01*
X26709800Y-28352000D01*
X26912683Y-28267963D01*
X26990446Y-28190200D01*
X37148000Y-28190200D01*
X37148000Y-28409800D01*
X37232037Y-28612683D01*
X37387317Y-28767963D01*
X37590200Y-28852000D01*
X37809800Y-28852000D01*
X38012683Y-28767963D01*
X38167963Y-28612683D01*
X38177275Y-28590200D01*
X46548000Y-28590200D01*
X46548000Y-28809800D01*
X46632037Y-29012683D01*
X46787317Y-29167963D01*
X46990200Y-29252000D01*
X47209800Y-29252000D01*
X47412683Y-29167963D01*
X47567963Y-29012683D01*
X47652000Y-28809800D01*
X47652000Y-28590200D01*
X47567963Y-28387317D01*
X47412683Y-28232037D01*
X47209800Y-28148000D01*
X46990200Y-28148000D01*
X46787317Y-28232037D01*
X46632037Y-28387317D01*
X46548000Y-28590200D01*
X38177275Y-28590200D01*
X38252000Y-28409800D01*
X38252000Y-28190200D01*
X38167963Y-27987317D01*
X38012683Y-27832037D01*
X37809800Y-27748000D01*
X37590200Y-27748000D01*
X37387317Y-27832037D01*
X37232037Y-27987317D01*
X37148000Y-28190200D01*
X26990446Y-28190200D01*
X27067963Y-28112683D01*
X27152000Y-27909800D01*
X27152000Y-27690200D01*
X27067963Y-27487317D01*
X26912683Y-27332037D01*
X26709800Y-27248000D01*
X26490200Y-27248000D01*
X26287317Y-27332037D01*
X26132037Y-27487317D01*
X26048000Y-27690200D01*
X25390446Y-27690200D01*
X25467963Y-27612683D01*
X25552000Y-27409800D01*
X25552000Y-27190200D01*
X25467963Y-26987317D01*
X25312683Y-26832037D01*
X25109800Y-26748000D01*
X24890200Y-26748000D01*
X24687317Y-26832037D01*
X24532037Y-26987317D01*
X24479289Y-27114661D01*
X24467963Y-27087317D01*
X24312683Y-26932037D01*
X24109800Y-26848000D01*
X23890200Y-26848000D01*
X23687317Y-26932037D01*
X23532037Y-27087317D01*
X23448000Y-27290200D01*
X12552000Y-27290200D01*
X12552000Y-27090200D01*
X12467963Y-26887317D01*
X12312683Y-26732037D01*
X12109800Y-26648000D01*
X11890200Y-26648000D01*
X11687317Y-26732037D01*
X11611303Y-26808051D01*
X11652000Y-26709800D01*
X11652000Y-26490200D01*
X13048000Y-26490200D01*
X13048000Y-26709800D01*
X13132037Y-26912683D01*
X13287317Y-27067963D01*
X13490200Y-27152000D01*
X13709800Y-27152000D01*
X13912683Y-27067963D01*
X14067963Y-26912683D01*
X14152000Y-26709800D01*
X14152000Y-26490200D01*
X14067963Y-26287317D01*
X13970846Y-26190200D01*
X19048000Y-26190200D01*
X19048000Y-26409800D01*
X19132037Y-26612683D01*
X19287317Y-26767963D01*
X19490200Y-26852000D01*
X19709800Y-26852000D01*
X19912683Y-26767963D01*
X19990446Y-26690200D01*
X27548000Y-26690200D01*
X27548000Y-26909800D01*
X27632037Y-27112683D01*
X27787317Y-27267963D01*
X27990200Y-27352000D01*
X28209800Y-27352000D01*
X28412683Y-27267963D01*
X28567963Y-27112683D01*
X28652000Y-26909800D01*
X28652000Y-26690200D01*
X28569158Y-26490200D01*
X41848000Y-26490200D01*
X41848000Y-26709800D01*
X41932037Y-26912683D01*
X42087317Y-27067963D01*
X42290200Y-27152000D01*
X42509800Y-27152000D01*
X42712683Y-27067963D01*
X42785836Y-26994810D01*
X46645079Y-26994810D01*
X46645079Y-27214410D01*
X46729116Y-27417293D01*
X46884396Y-27572573D01*
X47087279Y-27656610D01*
X47306879Y-27656610D01*
X47509762Y-27572573D01*
X47665042Y-27417293D01*
X47749079Y-27214410D01*
X47749079Y-26994810D01*
X47665042Y-26791927D01*
X47509762Y-26636647D01*
X47306879Y-26552610D01*
X47087279Y-26552610D01*
X46884396Y-26636647D01*
X46729116Y-26791927D01*
X46645079Y-26994810D01*
X42785836Y-26994810D01*
X42867963Y-26912683D01*
X42952000Y-26709800D01*
X42952000Y-26490200D01*
X42867963Y-26287317D01*
X42770846Y-26190200D01*
X43548000Y-26190200D01*
X43548000Y-26409800D01*
X43632037Y-26612683D01*
X43787317Y-26767963D01*
X43990200Y-26852000D01*
X44209800Y-26852000D01*
X44412683Y-26767963D01*
X44567963Y-26612683D01*
X44652000Y-26409800D01*
X44652000Y-26190200D01*
X44567963Y-25987317D01*
X44412683Y-25832037D01*
X44209800Y-25748000D01*
X43990200Y-25748000D01*
X43787317Y-25832037D01*
X43632037Y-25987317D01*
X43548000Y-26190200D01*
X42770846Y-26190200D01*
X42712683Y-26132037D01*
X42509800Y-26048000D01*
X42290200Y-26048000D01*
X42087317Y-26132037D01*
X41932037Y-26287317D01*
X41848000Y-26490200D01*
X28569158Y-26490200D01*
X28567963Y-26487317D01*
X28412683Y-26332037D01*
X28209800Y-26248000D01*
X27990200Y-26248000D01*
X27787317Y-26332037D01*
X27632037Y-26487317D01*
X27548000Y-26690200D01*
X19990446Y-26690200D01*
X20067963Y-26612683D01*
X20152000Y-26409800D01*
X20152000Y-26190200D01*
X20067963Y-25987317D01*
X19912683Y-25832037D01*
X19709800Y-25748000D01*
X19490200Y-25748000D01*
X19287317Y-25832037D01*
X19132037Y-25987317D01*
X19048000Y-26190200D01*
X13970846Y-26190200D01*
X13912683Y-26132037D01*
X13709800Y-26048000D01*
X13490200Y-26048000D01*
X13287317Y-26132037D01*
X13132037Y-26287317D01*
X13048000Y-26490200D01*
X11652000Y-26490200D01*
X11567963Y-26287317D01*
X11412683Y-26132037D01*
X11209800Y-26048000D01*
X10990200Y-26048000D01*
X10787317Y-26132037D01*
X10632037Y-26287317D01*
X10548000Y-26490200D01*
X6400207Y-26490200D01*
X6391856Y-26264540D01*
X6189387Y-25775736D01*
X5922532Y-25677073D01*
X4949605Y-26650000D01*
X4590395Y-26650000D01*
X3617468Y-25677073D01*
X3350613Y-25775736D01*
X3299437Y-25913487D01*
X2953362Y-25567412D01*
X2500910Y-25380000D01*
X2953362Y-25192588D01*
X3312588Y-24833362D01*
X3500000Y-24380910D01*
X3687412Y-24833362D01*
X4029328Y-25175278D01*
X3895736Y-25230613D01*
X3797073Y-25497468D01*
X4770000Y-26470395D01*
X5742927Y-25497468D01*
X5644264Y-25230613D01*
X5506513Y-25179437D01*
X5852588Y-24833362D01*
X5870466Y-24790200D01*
X33048000Y-24790200D01*
X33048000Y-25009800D01*
X33132037Y-25212683D01*
X33287317Y-25367963D01*
X33490200Y-25452000D01*
X33709800Y-25452000D01*
X33912683Y-25367963D01*
X34067963Y-25212683D01*
X34152000Y-25009800D01*
X34152000Y-24970200D01*
X42398000Y-24970200D01*
X42398000Y-25189800D01*
X42482037Y-25392683D01*
X42637317Y-25547963D01*
X42840200Y-25632000D01*
X43059800Y-25632000D01*
X43210714Y-25569489D01*
X43212037Y-25572683D01*
X43367317Y-25727963D01*
X43570200Y-25812000D01*
X43789800Y-25812000D01*
X43992683Y-25727963D01*
X44090000Y-25630646D01*
X44187317Y-25727963D01*
X44390200Y-25812000D01*
X44609800Y-25812000D01*
X44812683Y-25727963D01*
X44950000Y-25590646D01*
X45087317Y-25727963D01*
X45290200Y-25812000D01*
X45509800Y-25812000D01*
X45712683Y-25727963D01*
X45748000Y-25692646D01*
X45748000Y-25809800D01*
X45782331Y-25892681D01*
X45687317Y-25932037D01*
X45532037Y-26087317D01*
X45448000Y-26290200D01*
X45448000Y-26509800D01*
X45532037Y-26712683D01*
X45687317Y-26867963D01*
X45890200Y-26952000D01*
X46109800Y-26952000D01*
X46312683Y-26867963D01*
X46467963Y-26712683D01*
X46552000Y-26509800D01*
X46552000Y-26290200D01*
X46517669Y-26207319D01*
X46612683Y-26167963D01*
X46683981Y-26096665D01*
X46732037Y-26212683D01*
X46887317Y-26367963D01*
X47090200Y-26452000D01*
X47309800Y-26452000D01*
X47512683Y-26367963D01*
X47667963Y-26212683D01*
X47752000Y-26009800D01*
X47752000Y-25790200D01*
X47667963Y-25587317D01*
X47512683Y-25432037D01*
X47309800Y-25348000D01*
X47090200Y-25348000D01*
X46887317Y-25432037D01*
X46816019Y-25503335D01*
X46767963Y-25387317D01*
X46612683Y-25232037D01*
X46409800Y-25148000D01*
X46190200Y-25148000D01*
X45987317Y-25232037D01*
X45952000Y-25267354D01*
X45952000Y-25150200D01*
X45867963Y-24947317D01*
X45712683Y-24792037D01*
X45509800Y-24708000D01*
X45290200Y-24708000D01*
X45087317Y-24792037D01*
X44950000Y-24929354D01*
X44812683Y-24792037D01*
X44609800Y-24708000D01*
X44390200Y-24708000D01*
X44187317Y-24792037D01*
X44090000Y-24889354D01*
X43992683Y-24792037D01*
X43789800Y-24708000D01*
X43570200Y-24708000D01*
X43419286Y-24770511D01*
X43417963Y-24767317D01*
X43262683Y-24612037D01*
X43059800Y-24528000D01*
X42840200Y-24528000D01*
X42637317Y-24612037D01*
X42482037Y-24767317D01*
X42398000Y-24970200D01*
X34152000Y-24970200D01*
X34152000Y-24790200D01*
X34067963Y-24587317D01*
X33912683Y-24432037D01*
X33709800Y-24348000D01*
X33490200Y-24348000D01*
X33287317Y-24432037D01*
X33132037Y-24587317D01*
X33048000Y-24790200D01*
X5870466Y-24790200D01*
X6047000Y-24364011D01*
X6047000Y-23990200D01*
X41748000Y-23990200D01*
X41748000Y-24209800D01*
X41832037Y-24412683D01*
X41987317Y-24567963D01*
X42190200Y-24652000D01*
X42409800Y-24652000D01*
X42612683Y-24567963D01*
X42767963Y-24412683D01*
X42852000Y-24209800D01*
X42852000Y-23990200D01*
X42767963Y-23787317D01*
X42612683Y-23632037D01*
X42409800Y-23548000D01*
X42190200Y-23548000D01*
X41987317Y-23632037D01*
X41832037Y-23787317D01*
X41748000Y-23990200D01*
X6047000Y-23990200D01*
X6047000Y-23855989D01*
X5852588Y-23386638D01*
X5756150Y-23290200D01*
X15748000Y-23290200D01*
X15748000Y-23509800D01*
X15832037Y-23712683D01*
X15987317Y-23867963D01*
X16190200Y-23952000D01*
X16409800Y-23952000D01*
X16612683Y-23867963D01*
X16767963Y-23712683D01*
X16852000Y-23509800D01*
X16852000Y-23419457D01*
X16932037Y-23612683D01*
X17087317Y-23767963D01*
X17290200Y-23852000D01*
X17509800Y-23852000D01*
X17712683Y-23767963D01*
X17867963Y-23612683D01*
X17952000Y-23409800D01*
X17952000Y-23190200D01*
X18048000Y-23190200D01*
X18048000Y-23409800D01*
X18132037Y-23612683D01*
X18287317Y-23767963D01*
X18490200Y-23852000D01*
X18709800Y-23852000D01*
X18912683Y-23767963D01*
X19067963Y-23612683D01*
X19152000Y-23409800D01*
X19152000Y-23190200D01*
X21448000Y-23190200D01*
X21448000Y-23409800D01*
X21532037Y-23612683D01*
X21687317Y-23767963D01*
X21890200Y-23852000D01*
X22109800Y-23852000D01*
X22312683Y-23767963D01*
X22467963Y-23612683D01*
X22552000Y-23409800D01*
X22552000Y-23190200D01*
X22510579Y-23090200D01*
X26748000Y-23090200D01*
X26748000Y-23309800D01*
X26832037Y-23512683D01*
X26987317Y-23667963D01*
X27190200Y-23752000D01*
X27409800Y-23752000D01*
X27612683Y-23667963D01*
X27767963Y-23512683D01*
X27852000Y-23309800D01*
X27852000Y-23090200D01*
X27767963Y-22887317D01*
X27612683Y-22732037D01*
X27409800Y-22648000D01*
X27190200Y-22648000D01*
X26987317Y-22732037D01*
X26832037Y-22887317D01*
X26748000Y-23090200D01*
X22510579Y-23090200D01*
X22467963Y-22987317D01*
X22312683Y-22832037D01*
X22109800Y-22748000D01*
X21890200Y-22748000D01*
X21687317Y-22832037D01*
X21532037Y-22987317D01*
X21448000Y-23190200D01*
X19152000Y-23190200D01*
X19067963Y-22987317D01*
X18912683Y-22832037D01*
X18709800Y-22748000D01*
X18490200Y-22748000D01*
X18287317Y-22832037D01*
X18132037Y-22987317D01*
X18048000Y-23190200D01*
X17952000Y-23190200D01*
X17867963Y-22987317D01*
X17712683Y-22832037D01*
X17509800Y-22748000D01*
X17290200Y-22748000D01*
X17087317Y-22832037D01*
X16932037Y-22987317D01*
X16848000Y-23190200D01*
X16848000Y-23280543D01*
X16767963Y-23087317D01*
X16612683Y-22932037D01*
X16409800Y-22848000D01*
X16190200Y-22848000D01*
X15987317Y-22932037D01*
X15832037Y-23087317D01*
X15748000Y-23290200D01*
X5756150Y-23290200D01*
X5493362Y-23027412D01*
X5040910Y-22840000D01*
X5493362Y-22652588D01*
X5852588Y-22293362D01*
X6047000Y-21824011D01*
X6047000Y-21690200D01*
X46548000Y-21690200D01*
X46548000Y-21909800D01*
X46632037Y-22112683D01*
X46787317Y-22267963D01*
X46990200Y-22352000D01*
X47209800Y-22352000D01*
X47412683Y-22267963D01*
X47567963Y-22112683D01*
X47652000Y-21909800D01*
X47652000Y-21690200D01*
X47567963Y-21487317D01*
X47412683Y-21332037D01*
X47209800Y-21248000D01*
X46990200Y-21248000D01*
X46787317Y-21332037D01*
X46632037Y-21487317D01*
X46548000Y-21690200D01*
X6047000Y-21690200D01*
X6047000Y-21315989D01*
X5870633Y-20890200D01*
X25698000Y-20890200D01*
X25698000Y-21109800D01*
X25782037Y-21312683D01*
X25937317Y-21467963D01*
X26140200Y-21552000D01*
X26359800Y-21552000D01*
X26562683Y-21467963D01*
X26717963Y-21312683D01*
X26802000Y-21109800D01*
X26802000Y-20890200D01*
X26717963Y-20687317D01*
X26562683Y-20532037D01*
X26359800Y-20448000D01*
X26140200Y-20448000D01*
X25937317Y-20532037D01*
X25782037Y-20687317D01*
X25698000Y-20890200D01*
X5870633Y-20890200D01*
X5852588Y-20846638D01*
X5493362Y-20487412D01*
X5258672Y-20390200D01*
X31448000Y-20390200D01*
X31448000Y-20609800D01*
X31532037Y-20812683D01*
X31687317Y-20967963D01*
X31890200Y-21052000D01*
X32109800Y-21052000D01*
X32312683Y-20967963D01*
X32467963Y-20812683D01*
X32552000Y-20609800D01*
X32552000Y-20390200D01*
X32467963Y-20187317D01*
X32312683Y-20032037D01*
X32109800Y-19948000D01*
X31890200Y-19948000D01*
X31687317Y-20032037D01*
X31532037Y-20187317D01*
X31448000Y-20390200D01*
X5258672Y-20390200D01*
X5040910Y-20300000D01*
X5493362Y-20112588D01*
X5745750Y-19860200D01*
X38030500Y-19860200D01*
X38030500Y-20079800D01*
X38114537Y-20282683D01*
X38269817Y-20437963D01*
X38472700Y-20522000D01*
X38692300Y-20522000D01*
X38895183Y-20437963D01*
X38920000Y-20413146D01*
X38944817Y-20437963D01*
X39147700Y-20522000D01*
X39367300Y-20522000D01*
X39570183Y-20437963D01*
X39725463Y-20282683D01*
X39809500Y-20079800D01*
X39809500Y-19860200D01*
X39751511Y-19720200D01*
X41130500Y-19720200D01*
X41130500Y-19939800D01*
X41214537Y-20142683D01*
X41369817Y-20297963D01*
X41572700Y-20382000D01*
X41792300Y-20382000D01*
X41995183Y-20297963D01*
X42020000Y-20273146D01*
X42044817Y-20297963D01*
X42247700Y-20382000D01*
X42467300Y-20382000D01*
X42670183Y-20297963D01*
X42793750Y-20174396D01*
X42887317Y-20267963D01*
X43090200Y-20352000D01*
X43309800Y-20352000D01*
X43512683Y-20267963D01*
X43667963Y-20112683D01*
X43734520Y-19952000D01*
X43909800Y-19952000D01*
X44112683Y-19867963D01*
X44267963Y-19712683D01*
X44352000Y-19509800D01*
X44352000Y-19390200D01*
X45248000Y-19390200D01*
X45248000Y-19609800D01*
X45332037Y-19812683D01*
X45487317Y-19967963D01*
X45690200Y-20052000D01*
X45863823Y-20052000D01*
X45848000Y-20090200D01*
X45848000Y-20309800D01*
X45932037Y-20512683D01*
X46087317Y-20667963D01*
X46290200Y-20752000D01*
X46509800Y-20752000D01*
X46712683Y-20667963D01*
X46867963Y-20512683D01*
X46952000Y-20309800D01*
X46952000Y-20090200D01*
X46867963Y-19887317D01*
X46712683Y-19732037D01*
X46509800Y-19648000D01*
X46336177Y-19648000D01*
X46352000Y-19609800D01*
X46352000Y-19390200D01*
X46267963Y-19187317D01*
X46112683Y-19032037D01*
X45909800Y-18948000D01*
X45690200Y-18948000D01*
X45487317Y-19032037D01*
X45332037Y-19187317D01*
X45248000Y-19390200D01*
X44352000Y-19390200D01*
X44352000Y-19290200D01*
X44267963Y-19087317D01*
X44112683Y-18932037D01*
X43909800Y-18848000D01*
X43690200Y-18848000D01*
X43487317Y-18932037D01*
X43332037Y-19087317D01*
X43265480Y-19248000D01*
X43090200Y-19248000D01*
X42887317Y-19332037D01*
X42763750Y-19455604D01*
X42670183Y-19362037D01*
X42467300Y-19278000D01*
X42247700Y-19278000D01*
X42044817Y-19362037D01*
X42020000Y-19386854D01*
X41995183Y-19362037D01*
X41792300Y-19278000D01*
X41572700Y-19278000D01*
X41369817Y-19362037D01*
X41214537Y-19517317D01*
X41130500Y-19720200D01*
X39751511Y-19720200D01*
X39725463Y-19657317D01*
X39570183Y-19502037D01*
X39367300Y-19418000D01*
X39147700Y-19418000D01*
X38944817Y-19502037D01*
X38920000Y-19526854D01*
X38895183Y-19502037D01*
X38692300Y-19418000D01*
X38472700Y-19418000D01*
X38269817Y-19502037D01*
X38114537Y-19657317D01*
X38030500Y-19860200D01*
X5745750Y-19860200D01*
X5852588Y-19753362D01*
X6047000Y-19284011D01*
X6047000Y-18890200D01*
X7948000Y-18890200D01*
X7948000Y-19109800D01*
X8032037Y-19312683D01*
X8187317Y-19467963D01*
X8390200Y-19552000D01*
X8609800Y-19552000D01*
X8812683Y-19467963D01*
X8967963Y-19312683D01*
X9052000Y-19109800D01*
X9052000Y-18890200D01*
X9148000Y-18890200D01*
X9148000Y-19109800D01*
X9232037Y-19312683D01*
X9387317Y-19467963D01*
X9590200Y-19552000D01*
X9809800Y-19552000D01*
X10012683Y-19467963D01*
X10167963Y-19312683D01*
X10252000Y-19109800D01*
X10252000Y-18890200D01*
X10448000Y-18890200D01*
X10448000Y-19109800D01*
X10532037Y-19312683D01*
X10687317Y-19467963D01*
X10890200Y-19552000D01*
X11109800Y-19552000D01*
X11312683Y-19467963D01*
X11467963Y-19312683D01*
X11552000Y-19109800D01*
X11552000Y-18890200D01*
X11467963Y-18687317D01*
X11312683Y-18532037D01*
X11109800Y-18448000D01*
X10890200Y-18448000D01*
X10687317Y-18532037D01*
X10532037Y-18687317D01*
X10448000Y-18890200D01*
X10252000Y-18890200D01*
X10167963Y-18687317D01*
X10012683Y-18532037D01*
X9809800Y-18448000D01*
X9590200Y-18448000D01*
X9387317Y-18532037D01*
X9232037Y-18687317D01*
X9148000Y-18890200D01*
X9052000Y-18890200D01*
X8967963Y-18687317D01*
X8812683Y-18532037D01*
X8609800Y-18448000D01*
X8390200Y-18448000D01*
X8187317Y-18532037D01*
X8032037Y-18687317D01*
X7948000Y-18890200D01*
X6047000Y-18890200D01*
X6047000Y-18775989D01*
X5852588Y-18306638D01*
X5736150Y-18190200D01*
X11748000Y-18190200D01*
X11748000Y-18409800D01*
X11832037Y-18612683D01*
X11987317Y-18767963D01*
X12190200Y-18852000D01*
X12409800Y-18852000D01*
X12558998Y-18790200D01*
X12948000Y-18790200D01*
X12948000Y-19009800D01*
X13032037Y-19212683D01*
X13187317Y-19367963D01*
X13390200Y-19452000D01*
X13609800Y-19452000D01*
X13812683Y-19367963D01*
X13967963Y-19212683D01*
X14052000Y-19009800D01*
X14052000Y-18790200D01*
X13989868Y-18640200D01*
X26948000Y-18640200D01*
X26948000Y-18859800D01*
X27032037Y-19062683D01*
X27187317Y-19217963D01*
X27390200Y-19302000D01*
X27609800Y-19302000D01*
X27812683Y-19217963D01*
X27890446Y-19140200D01*
X30948000Y-19140200D01*
X30948000Y-19359800D01*
X31032037Y-19562683D01*
X31187317Y-19717963D01*
X31390200Y-19802000D01*
X31609800Y-19802000D01*
X31812683Y-19717963D01*
X31967963Y-19562683D01*
X32052000Y-19359800D01*
X32052000Y-19140200D01*
X31967963Y-18937317D01*
X31812683Y-18782037D01*
X31609800Y-18698000D01*
X31390200Y-18698000D01*
X31187317Y-18782037D01*
X31032037Y-18937317D01*
X30948000Y-19140200D01*
X27890446Y-19140200D01*
X27967963Y-19062683D01*
X28052000Y-18859800D01*
X28052000Y-18640200D01*
X27967963Y-18437317D01*
X27812683Y-18282037D01*
X27609800Y-18198000D01*
X27390200Y-18198000D01*
X27187317Y-18282037D01*
X27032037Y-18437317D01*
X26948000Y-18640200D01*
X13989868Y-18640200D01*
X13967963Y-18587317D01*
X13812683Y-18432037D01*
X13609800Y-18348000D01*
X13390200Y-18348000D01*
X13187317Y-18432037D01*
X13032037Y-18587317D01*
X12948000Y-18790200D01*
X12558998Y-18790200D01*
X12612683Y-18767963D01*
X12767963Y-18612683D01*
X12852000Y-18409800D01*
X12852000Y-18190200D01*
X12767963Y-17987317D01*
X12612683Y-17832037D01*
X12409800Y-17748000D01*
X12190200Y-17748000D01*
X11987317Y-17832037D01*
X11832037Y-17987317D01*
X11748000Y-18190200D01*
X5736150Y-18190200D01*
X5493362Y-17947412D01*
X5040910Y-17760000D01*
X5493362Y-17572588D01*
X5852588Y-17213362D01*
X5945024Y-16990200D01*
X10948000Y-16990200D01*
X10948000Y-17209800D01*
X11032037Y-17412683D01*
X11187317Y-17567963D01*
X11390200Y-17652000D01*
X11609800Y-17652000D01*
X11812683Y-17567963D01*
X11967963Y-17412683D01*
X12052000Y-17209800D01*
X12052000Y-16990200D01*
X11967963Y-16787317D01*
X11812683Y-16632037D01*
X11609800Y-16548000D01*
X11390200Y-16548000D01*
X11187317Y-16632037D01*
X11032037Y-16787317D01*
X10948000Y-16990200D01*
X5945024Y-16990200D01*
X6047000Y-16744011D01*
X6047000Y-16235989D01*
X5903770Y-15890200D01*
X19698000Y-15890200D01*
X19698000Y-16109800D01*
X19782037Y-16312683D01*
X19937317Y-16467963D01*
X20039661Y-16510355D01*
X19987317Y-16532037D01*
X19832037Y-16687317D01*
X19748000Y-16890200D01*
X19748000Y-17109800D01*
X19832037Y-17312683D01*
X19987317Y-17467963D01*
X20190200Y-17552000D01*
X20409800Y-17552000D01*
X20612683Y-17467963D01*
X20767963Y-17312683D01*
X20852000Y-17109800D01*
X20852000Y-16890200D01*
X20767963Y-16687317D01*
X20612683Y-16532037D01*
X20510339Y-16489645D01*
X20562683Y-16467963D01*
X20717963Y-16312683D01*
X20802000Y-16109800D01*
X20802000Y-15890200D01*
X21948000Y-15890200D01*
X21948000Y-16109800D01*
X22032037Y-16312683D01*
X22187317Y-16467963D01*
X22390200Y-16552000D01*
X22609800Y-16552000D01*
X22812683Y-16467963D01*
X22967963Y-16312683D01*
X23052000Y-16109800D01*
X23052000Y-15890200D01*
X22967963Y-15687317D01*
X22920846Y-15640200D01*
X44110500Y-15640200D01*
X44110500Y-15859800D01*
X44194537Y-16062683D01*
X44349817Y-16217963D01*
X44552700Y-16302000D01*
X44772300Y-16302000D01*
X44975183Y-16217963D01*
X45000000Y-16193146D01*
X45024817Y-16217963D01*
X45227700Y-16302000D01*
X45447300Y-16302000D01*
X45650183Y-16217963D01*
X45805463Y-16062683D01*
X45876907Y-15890200D01*
X46948000Y-15890200D01*
X46948000Y-16109800D01*
X47032037Y-16312683D01*
X47187317Y-16467963D01*
X47390200Y-16552000D01*
X47609800Y-16552000D01*
X47812683Y-16467963D01*
X47967963Y-16312683D01*
X48000000Y-16235339D01*
X48032037Y-16312683D01*
X48187317Y-16467963D01*
X48390200Y-16552000D01*
X48609800Y-16552000D01*
X48812683Y-16467963D01*
X48967963Y-16312683D01*
X49000000Y-16235339D01*
X49032037Y-16312683D01*
X49187317Y-16467963D01*
X49390200Y-16552000D01*
X49609800Y-16552000D01*
X49812683Y-16467963D01*
X49967963Y-16312683D01*
X50000000Y-16235339D01*
X50032037Y-16312683D01*
X50187317Y-16467963D01*
X50390200Y-16552000D01*
X50609800Y-16552000D01*
X50812683Y-16467963D01*
X50967963Y-16312683D01*
X51052000Y-16109800D01*
X51052000Y-15890200D01*
X51011303Y-15791949D01*
X51087317Y-15867963D01*
X51290200Y-15952000D01*
X51509800Y-15952000D01*
X51712683Y-15867963D01*
X51867963Y-15712683D01*
X51952000Y-15509800D01*
X51952000Y-15290200D01*
X51867963Y-15087317D01*
X51712683Y-14932037D01*
X51509800Y-14848000D01*
X51290200Y-14848000D01*
X51087317Y-14932037D01*
X50932037Y-15087317D01*
X50848000Y-15290200D01*
X50848000Y-15509800D01*
X50888697Y-15608051D01*
X50812683Y-15532037D01*
X50609800Y-15448000D01*
X50390200Y-15448000D01*
X50187317Y-15532037D01*
X50032037Y-15687317D01*
X50000000Y-15764661D01*
X49967963Y-15687317D01*
X49812683Y-15532037D01*
X49609800Y-15448000D01*
X49390200Y-15448000D01*
X49187317Y-15532037D01*
X49032037Y-15687317D01*
X49000000Y-15764661D01*
X48967963Y-15687317D01*
X48812683Y-15532037D01*
X48609800Y-15448000D01*
X48390200Y-15448000D01*
X48187317Y-15532037D01*
X48032037Y-15687317D01*
X48000000Y-15764661D01*
X47967963Y-15687317D01*
X47812683Y-15532037D01*
X47609800Y-15448000D01*
X47390200Y-15448000D01*
X47187317Y-15532037D01*
X47032037Y-15687317D01*
X46948000Y-15890200D01*
X45876907Y-15890200D01*
X45889500Y-15859800D01*
X45889500Y-15640200D01*
X45805463Y-15437317D01*
X45650183Y-15282037D01*
X45447300Y-15198000D01*
X45227700Y-15198000D01*
X45024817Y-15282037D01*
X45000000Y-15306854D01*
X44975183Y-15282037D01*
X44772300Y-15198000D01*
X44552700Y-15198000D01*
X44349817Y-15282037D01*
X44194537Y-15437317D01*
X44110500Y-15640200D01*
X22920846Y-15640200D01*
X22812683Y-15532037D01*
X22609800Y-15448000D01*
X22390200Y-15448000D01*
X22187317Y-15532037D01*
X22032037Y-15687317D01*
X21948000Y-15890200D01*
X20802000Y-15890200D01*
X20717963Y-15687317D01*
X20562683Y-15532037D01*
X20359800Y-15448000D01*
X20140200Y-15448000D01*
X19937317Y-15532037D01*
X19782037Y-15687317D01*
X19698000Y-15890200D01*
X5903770Y-15890200D01*
X5852588Y-15766638D01*
X5493362Y-15407412D01*
X5040910Y-15220000D01*
X5493362Y-15032588D01*
X5852588Y-14673362D01*
X6011299Y-14290200D01*
X7448000Y-14290200D01*
X7448000Y-14509800D01*
X7532037Y-14712683D01*
X7687317Y-14867963D01*
X7890200Y-14952000D01*
X8109800Y-14952000D01*
X8312683Y-14867963D01*
X8467963Y-14712683D01*
X8552000Y-14509800D01*
X8552000Y-14390200D01*
X26948000Y-14390200D01*
X26948000Y-14609800D01*
X27032037Y-14812683D01*
X27187317Y-14967963D01*
X27390200Y-15052000D01*
X27609800Y-15052000D01*
X27812683Y-14967963D01*
X27890446Y-14890200D01*
X31448000Y-14890200D01*
X31448000Y-15109800D01*
X31532037Y-15312683D01*
X31687317Y-15467963D01*
X31890200Y-15552000D01*
X32109800Y-15552000D01*
X32312683Y-15467963D01*
X32467963Y-15312683D01*
X32552000Y-15109800D01*
X32552000Y-14890200D01*
X32467963Y-14687317D01*
X32312683Y-14532037D01*
X32109800Y-14448000D01*
X31890200Y-14448000D01*
X31687317Y-14532037D01*
X31532037Y-14687317D01*
X31448000Y-14890200D01*
X27890446Y-14890200D01*
X27967963Y-14812683D01*
X28052000Y-14609800D01*
X28052000Y-14390200D01*
X27967963Y-14187317D01*
X27812683Y-14032037D01*
X27609800Y-13948000D01*
X27390200Y-13948000D01*
X27187317Y-14032037D01*
X27032037Y-14187317D01*
X26948000Y-14390200D01*
X8552000Y-14390200D01*
X8552000Y-14290200D01*
X8467963Y-14087317D01*
X8312683Y-13932037D01*
X8109800Y-13848000D01*
X7890200Y-13848000D01*
X7687317Y-13932037D01*
X7532037Y-14087317D01*
X7448000Y-14290200D01*
X6011299Y-14290200D01*
X6047000Y-14204011D01*
X6047000Y-13695989D01*
X5920338Y-13390200D01*
X14198000Y-13390200D01*
X14198000Y-13609800D01*
X14282037Y-13812683D01*
X14437317Y-13967963D01*
X14640200Y-14052000D01*
X14859800Y-14052000D01*
X15062683Y-13967963D01*
X15217963Y-13812683D01*
X15302000Y-13609800D01*
X15302000Y-13390200D01*
X16048000Y-13390200D01*
X16048000Y-13609800D01*
X16132037Y-13812683D01*
X16287317Y-13967963D01*
X16490200Y-14052000D01*
X16709800Y-14052000D01*
X16912683Y-13967963D01*
X17067963Y-13812683D01*
X17152000Y-13609800D01*
X17152000Y-13390200D01*
X17067963Y-13187317D01*
X16912683Y-13032037D01*
X16709800Y-12948000D01*
X16490200Y-12948000D01*
X16287317Y-13032037D01*
X16132037Y-13187317D01*
X16048000Y-13390200D01*
X15302000Y-13390200D01*
X15217963Y-13187317D01*
X15062683Y-13032037D01*
X14859800Y-12948000D01*
X14640200Y-12948000D01*
X14437317Y-13032037D01*
X14282037Y-13187317D01*
X14198000Y-13390200D01*
X5920338Y-13390200D01*
X5852588Y-13226638D01*
X5493362Y-12867412D01*
X5040910Y-12680000D01*
X5493362Y-12492588D01*
X5852588Y-12133362D01*
X5953309Y-11890200D01*
X10948000Y-11890200D01*
X10948000Y-12109800D01*
X11032037Y-12312683D01*
X11187317Y-12467963D01*
X11390200Y-12552000D01*
X11609800Y-12552000D01*
X11812683Y-12467963D01*
X11967963Y-12312683D01*
X12052000Y-12109800D01*
X12052000Y-11890200D01*
X12017414Y-11806702D01*
X21720075Y-11806702D01*
X21725860Y-11996442D01*
X22062930Y-12098128D01*
X22413257Y-12063083D01*
X22574140Y-11996442D01*
X22579925Y-11806702D01*
X23120075Y-11806702D01*
X23125860Y-11996442D01*
X23462930Y-12098128D01*
X23813257Y-12063083D01*
X23974140Y-11996442D01*
X23979925Y-11806702D01*
X24520075Y-11806702D01*
X24525860Y-11996442D01*
X24862930Y-12098128D01*
X25213257Y-12063083D01*
X25374140Y-11996442D01*
X25379925Y-11806702D01*
X25920075Y-11806702D01*
X25925860Y-11996442D01*
X26262930Y-12098128D01*
X26613257Y-12063083D01*
X26774140Y-11996442D01*
X26779925Y-11806702D01*
X26350000Y-11376777D01*
X25920075Y-11806702D01*
X25379925Y-11806702D01*
X24950000Y-11376777D01*
X24520075Y-11806702D01*
X23979925Y-11806702D01*
X23550000Y-11376777D01*
X23120075Y-11806702D01*
X22579925Y-11806702D01*
X22150000Y-11376777D01*
X21720075Y-11806702D01*
X12017414Y-11806702D01*
X11967963Y-11687317D01*
X11812683Y-11532037D01*
X11609800Y-11448000D01*
X11390200Y-11448000D01*
X11187317Y-11532037D01*
X11032037Y-11687317D01*
X10948000Y-11890200D01*
X5953309Y-11890200D01*
X6047000Y-11664011D01*
X6047000Y-11155989D01*
X5852588Y-10686638D01*
X5510672Y-10344722D01*
X5642301Y-10290200D01*
X9248000Y-10290200D01*
X9248000Y-10509800D01*
X9332037Y-10712683D01*
X9469354Y-10850000D01*
X9332037Y-10987317D01*
X9248000Y-11190200D01*
X9248000Y-11409800D01*
X9332037Y-11612683D01*
X9487317Y-11767963D01*
X9690200Y-11852000D01*
X9909800Y-11852000D01*
X10112683Y-11767963D01*
X10267963Y-11612683D01*
X10352000Y-11409800D01*
X10352000Y-11190200D01*
X10310579Y-11090200D01*
X14848000Y-11090200D01*
X14848000Y-11309800D01*
X14932037Y-11512683D01*
X15087317Y-11667963D01*
X15290200Y-11752000D01*
X15509800Y-11752000D01*
X15712683Y-11667963D01*
X15867963Y-11512683D01*
X15952000Y-11309800D01*
X15952000Y-11090200D01*
X15867963Y-10887317D01*
X15770846Y-10790200D01*
X17648000Y-10790200D01*
X17648000Y-11009800D01*
X17732037Y-11212683D01*
X17887317Y-11367963D01*
X18090200Y-11452000D01*
X18309800Y-11452000D01*
X18512683Y-11367963D01*
X18667963Y-11212683D01*
X18709282Y-11112930D01*
X21251872Y-11112930D01*
X21286917Y-11463257D01*
X21353558Y-11624140D01*
X21543298Y-11629925D01*
X21973223Y-11200000D01*
X22326777Y-11200000D01*
X22756702Y-11629925D01*
X22850000Y-11627080D01*
X22943298Y-11629925D01*
X23373223Y-11200000D01*
X23726777Y-11200000D01*
X24156702Y-11629925D01*
X24250000Y-11627080D01*
X24343298Y-11629925D01*
X24773223Y-11200000D01*
X25126777Y-11200000D01*
X25556702Y-11629925D01*
X25650000Y-11627080D01*
X25743298Y-11629925D01*
X26173223Y-11200000D01*
X26526777Y-11200000D01*
X26956702Y-11629925D01*
X27146442Y-11624140D01*
X27248128Y-11287070D01*
X27228435Y-11090200D01*
X29348000Y-11090200D01*
X29348000Y-11309800D01*
X29432037Y-11512683D01*
X29587317Y-11667963D01*
X29790200Y-11752000D01*
X30009800Y-11752000D01*
X30212683Y-11667963D01*
X30367963Y-11512683D01*
X30452000Y-11309800D01*
X30452000Y-11090200D01*
X30369158Y-10890200D01*
X31648000Y-10890200D01*
X31648000Y-11109800D01*
X31732037Y-11312683D01*
X31887317Y-11467963D01*
X32090200Y-11552000D01*
X32309800Y-11552000D01*
X32512683Y-11467963D01*
X32667963Y-11312683D01*
X32752000Y-11109800D01*
X32752000Y-10890200D01*
X32667963Y-10687317D01*
X32512683Y-10532037D01*
X32309800Y-10448000D01*
X32090200Y-10448000D01*
X31887317Y-10532037D01*
X31732037Y-10687317D01*
X31648000Y-10890200D01*
X30369158Y-10890200D01*
X30367963Y-10887317D01*
X30212683Y-10732037D01*
X30009800Y-10648000D01*
X29790200Y-10648000D01*
X29587317Y-10732037D01*
X29432037Y-10887317D01*
X29348000Y-11090200D01*
X27228435Y-11090200D01*
X27213083Y-10936743D01*
X27146442Y-10775860D01*
X26956702Y-10770075D01*
X26526777Y-11200000D01*
X26173223Y-11200000D01*
X25743298Y-10770075D01*
X25650000Y-10772920D01*
X25556702Y-10770075D01*
X25126777Y-11200000D01*
X24773223Y-11200000D01*
X24343298Y-10770075D01*
X24250000Y-10772920D01*
X24156702Y-10770075D01*
X23726777Y-11200000D01*
X23373223Y-11200000D01*
X22943298Y-10770075D01*
X22850000Y-10772920D01*
X22756702Y-10770075D01*
X22326777Y-11200000D01*
X21973223Y-11200000D01*
X21543298Y-10770075D01*
X21353558Y-10775860D01*
X21251872Y-11112930D01*
X18709282Y-11112930D01*
X18752000Y-11009800D01*
X18752000Y-10790200D01*
X18667963Y-10587317D01*
X18512683Y-10432037D01*
X18451519Y-10406702D01*
X21720075Y-10406702D01*
X21722920Y-10500000D01*
X21720075Y-10593298D01*
X22150000Y-11023223D01*
X22579925Y-10593298D01*
X22577080Y-10500000D01*
X22579925Y-10406702D01*
X23120075Y-10406702D01*
X23122920Y-10500000D01*
X23120075Y-10593298D01*
X23550000Y-11023223D01*
X23979925Y-10593298D01*
X23977080Y-10500000D01*
X23979925Y-10406702D01*
X24520075Y-10406702D01*
X24522920Y-10500000D01*
X24520075Y-10593298D01*
X24950000Y-11023223D01*
X25379925Y-10593298D01*
X25377080Y-10500000D01*
X25379925Y-10406702D01*
X25920075Y-10406702D01*
X25922920Y-10500000D01*
X25920075Y-10593298D01*
X26350000Y-11023223D01*
X26779925Y-10593298D01*
X26777080Y-10500000D01*
X26779925Y-10406702D01*
X26350000Y-9976777D01*
X25920075Y-10406702D01*
X25379925Y-10406702D01*
X24950000Y-9976777D01*
X24520075Y-10406702D01*
X23979925Y-10406702D01*
X23550000Y-9976777D01*
X23120075Y-10406702D01*
X22579925Y-10406702D01*
X22150000Y-9976777D01*
X21720075Y-10406702D01*
X18451519Y-10406702D01*
X18309800Y-10348000D01*
X18090200Y-10348000D01*
X17887317Y-10432037D01*
X17732037Y-10587317D01*
X17648000Y-10790200D01*
X15770846Y-10790200D01*
X15712683Y-10732037D01*
X15509800Y-10648000D01*
X15290200Y-10648000D01*
X15087317Y-10732037D01*
X14932037Y-10887317D01*
X14848000Y-11090200D01*
X10310579Y-11090200D01*
X10267963Y-10987317D01*
X10130646Y-10850000D01*
X10267963Y-10712683D01*
X10352000Y-10509800D01*
X10352000Y-10290200D01*
X10267963Y-10087317D01*
X10112683Y-9932037D01*
X9909800Y-9848000D01*
X9690200Y-9848000D01*
X9487317Y-9932037D01*
X9332037Y-10087317D01*
X9248000Y-10290200D01*
X5642301Y-10290200D01*
X5644264Y-10289387D01*
X5742927Y-10022532D01*
X4770000Y-9049605D01*
X3797073Y-10022532D01*
X3895736Y-10289387D01*
X4033487Y-10340563D01*
X3687412Y-10686638D01*
X3500000Y-11139090D01*
X3312588Y-10686638D01*
X2953362Y-10327412D01*
X2500910Y-10140000D01*
X2953362Y-9952588D01*
X3295278Y-9610672D01*
X3350613Y-9744264D01*
X3617468Y-9842927D01*
X4590395Y-8870000D01*
X4949605Y-8870000D01*
X5922532Y-9842927D01*
X6189387Y-9744264D01*
X6415908Y-9134539D01*
X6397807Y-8645362D01*
X17802986Y-8645362D01*
X17802986Y-8864962D01*
X17887023Y-9067845D01*
X18042303Y-9223125D01*
X18245186Y-9307162D01*
X18287654Y-9307162D01*
X18287654Y-9334790D01*
X18371691Y-9537673D01*
X18526971Y-9692953D01*
X18729854Y-9776990D01*
X18949454Y-9776990D01*
X19104108Y-9712930D01*
X21251872Y-9712930D01*
X21286917Y-10063257D01*
X21353558Y-10224140D01*
X21543298Y-10229925D01*
X21973223Y-9800000D01*
X22326777Y-9800000D01*
X22756702Y-10229925D01*
X22850000Y-10227080D01*
X22943298Y-10229925D01*
X23373223Y-9800000D01*
X23726777Y-9800000D01*
X24156702Y-10229925D01*
X24250000Y-10227080D01*
X24343298Y-10229925D01*
X24773223Y-9800000D01*
X25126777Y-9800000D01*
X25556702Y-10229925D01*
X25650000Y-10227080D01*
X25743298Y-10229925D01*
X26173223Y-9800000D01*
X26526777Y-9800000D01*
X26956702Y-10229925D01*
X27146442Y-10224140D01*
X27247183Y-9890200D01*
X32348000Y-9890200D01*
X32348000Y-10109800D01*
X32432037Y-10312683D01*
X32587317Y-10467963D01*
X32790200Y-10552000D01*
X33009800Y-10552000D01*
X33212683Y-10467963D01*
X33367963Y-10312683D01*
X33452000Y-10109800D01*
X33452000Y-9890200D01*
X33367963Y-9687317D01*
X33212683Y-9532037D01*
X33009800Y-9448000D01*
X32790200Y-9448000D01*
X32587317Y-9532037D01*
X32432037Y-9687317D01*
X32348000Y-9890200D01*
X27247183Y-9890200D01*
X27248128Y-9887070D01*
X27213083Y-9536743D01*
X27146442Y-9375860D01*
X26956702Y-9370075D01*
X26526777Y-9800000D01*
X26173223Y-9800000D01*
X25743298Y-9370075D01*
X25650000Y-9372920D01*
X25556702Y-9370075D01*
X25126777Y-9800000D01*
X24773223Y-9800000D01*
X24343298Y-9370075D01*
X24250000Y-9372920D01*
X24156702Y-9370075D01*
X23726777Y-9800000D01*
X23373223Y-9800000D01*
X22943298Y-9370075D01*
X22850000Y-9372920D01*
X22756702Y-9370075D01*
X22326777Y-9800000D01*
X21973223Y-9800000D01*
X21543298Y-9370075D01*
X21353558Y-9375860D01*
X21251872Y-9712930D01*
X19104108Y-9712930D01*
X19152337Y-9692953D01*
X19307617Y-9537673D01*
X19391654Y-9334790D01*
X19391654Y-9115190D01*
X19346717Y-9006702D01*
X21720075Y-9006702D01*
X21722920Y-9100000D01*
X21720075Y-9193298D01*
X22150000Y-9623223D01*
X22579925Y-9193298D01*
X22577080Y-9100000D01*
X22579925Y-9006702D01*
X23120075Y-9006702D01*
X23122920Y-9100000D01*
X23120075Y-9193298D01*
X23550000Y-9623223D01*
X23979925Y-9193298D01*
X23977080Y-9100000D01*
X23979925Y-9006702D01*
X24520075Y-9006702D01*
X24522920Y-9100000D01*
X24520075Y-9193298D01*
X24950000Y-9623223D01*
X25379925Y-9193298D01*
X25377080Y-9100000D01*
X25379925Y-9006702D01*
X25920075Y-9006702D01*
X25922920Y-9100000D01*
X25920075Y-9193298D01*
X26350000Y-9623223D01*
X26779925Y-9193298D01*
X26777080Y-9100000D01*
X26779925Y-9006702D01*
X26350000Y-8576777D01*
X25920075Y-9006702D01*
X25379925Y-9006702D01*
X24950000Y-8576777D01*
X24520075Y-9006702D01*
X23979925Y-9006702D01*
X23550000Y-8576777D01*
X23120075Y-9006702D01*
X22579925Y-9006702D01*
X22150000Y-8576777D01*
X21720075Y-9006702D01*
X19346717Y-9006702D01*
X19307617Y-8912307D01*
X19152337Y-8757027D01*
X18949454Y-8672990D01*
X18906986Y-8672990D01*
X18906986Y-8645362D01*
X18822949Y-8442479D01*
X18667669Y-8287199D01*
X18464786Y-8203162D01*
X18245186Y-8203162D01*
X18042303Y-8287199D01*
X17887023Y-8442479D01*
X17802986Y-8645362D01*
X6397807Y-8645362D01*
X6391856Y-8484540D01*
X6189387Y-7995736D01*
X5922532Y-7897073D01*
X4949605Y-8870000D01*
X4590395Y-8870000D01*
X3617468Y-7897073D01*
X3350613Y-7995736D01*
X3299437Y-8133487D01*
X2953362Y-7787412D01*
X2784503Y-7717468D01*
X3797073Y-7717468D01*
X4770000Y-8690395D01*
X5742927Y-7717468D01*
X5714360Y-7640200D01*
X20448000Y-7640200D01*
X20448000Y-7859800D01*
X20532037Y-8062683D01*
X20687317Y-8217963D01*
X20890200Y-8302000D01*
X21109800Y-8302000D01*
X21275928Y-8233187D01*
X21251872Y-8312930D01*
X21286917Y-8663257D01*
X21353558Y-8824140D01*
X21543298Y-8829925D01*
X21973223Y-8400000D01*
X22326777Y-8400000D01*
X22756702Y-8829925D01*
X22850000Y-8827080D01*
X22943298Y-8829925D01*
X23373223Y-8400000D01*
X23726777Y-8400000D01*
X24156702Y-8829925D01*
X24250000Y-8827080D01*
X24343298Y-8829925D01*
X24773223Y-8400000D01*
X25126777Y-8400000D01*
X25556702Y-8829925D01*
X25650000Y-8827080D01*
X25743298Y-8829925D01*
X26173223Y-8400000D01*
X26526777Y-8400000D01*
X26956702Y-8829925D01*
X27146442Y-8824140D01*
X27248128Y-8487070D01*
X27213083Y-8136743D01*
X27146442Y-7975860D01*
X26956702Y-7970075D01*
X26526777Y-8400000D01*
X26173223Y-8400000D01*
X25743298Y-7970075D01*
X25650000Y-7972920D01*
X25556702Y-7970075D01*
X25126777Y-8400000D01*
X24773223Y-8400000D01*
X24343298Y-7970075D01*
X24250000Y-7972920D01*
X24156702Y-7970075D01*
X23726777Y-8400000D01*
X23373223Y-8400000D01*
X22943298Y-7970075D01*
X22850000Y-7972920D01*
X22756702Y-7970075D01*
X22326777Y-8400000D01*
X21973223Y-8400000D01*
X21957667Y-8384444D01*
X22134444Y-8207667D01*
X22150000Y-8223223D01*
X22579925Y-7793298D01*
X22577080Y-7700000D01*
X22579925Y-7606702D01*
X23120075Y-7606702D01*
X23122920Y-7700000D01*
X23120075Y-7793298D01*
X23550000Y-8223223D01*
X23979925Y-7793298D01*
X23977080Y-7700000D01*
X23979925Y-7606702D01*
X24520075Y-7606702D01*
X24522920Y-7700000D01*
X24520075Y-7793298D01*
X24950000Y-8223223D01*
X25379925Y-7793298D01*
X25377080Y-7700000D01*
X25379925Y-7606702D01*
X25920075Y-7606702D01*
X25922920Y-7700000D01*
X25920075Y-7793298D01*
X26350000Y-8223223D01*
X26779925Y-7793298D01*
X26777080Y-7700000D01*
X26779925Y-7606702D01*
X26350000Y-7176777D01*
X25920075Y-7606702D01*
X25379925Y-7606702D01*
X24950000Y-7176777D01*
X24520075Y-7606702D01*
X23979925Y-7606702D01*
X23550000Y-7176777D01*
X23120075Y-7606702D01*
X22579925Y-7606702D01*
X22150000Y-7176777D01*
X22134444Y-7192334D01*
X21957667Y-7015557D01*
X21973223Y-7000000D01*
X22326777Y-7000000D01*
X22756702Y-7429925D01*
X22850000Y-7427080D01*
X22943298Y-7429925D01*
X23373223Y-7000000D01*
X23726777Y-7000000D01*
X24156702Y-7429925D01*
X24250000Y-7427080D01*
X24343298Y-7429925D01*
X24773223Y-7000000D01*
X25126777Y-7000000D01*
X25556702Y-7429925D01*
X25650000Y-7427080D01*
X25743298Y-7429925D01*
X26173223Y-7000000D01*
X26526777Y-7000000D01*
X26956702Y-7429925D01*
X27146442Y-7424140D01*
X27248128Y-7087070D01*
X27213083Y-6736743D01*
X27146442Y-6575860D01*
X26956702Y-6570075D01*
X26526777Y-7000000D01*
X26173223Y-7000000D01*
X25743298Y-6570075D01*
X25650000Y-6572920D01*
X25556702Y-6570075D01*
X25126777Y-7000000D01*
X24773223Y-7000000D01*
X24343298Y-6570075D01*
X24250000Y-6572920D01*
X24156702Y-6570075D01*
X23726777Y-7000000D01*
X23373223Y-7000000D01*
X22943298Y-6570075D01*
X22850000Y-6572920D01*
X22756702Y-6570075D01*
X22326777Y-7000000D01*
X21973223Y-7000000D01*
X21543298Y-6570075D01*
X21353558Y-6575860D01*
X21251872Y-6912930D01*
X21286917Y-7263257D01*
X21290971Y-7273043D01*
X21109800Y-7198000D01*
X20890200Y-7198000D01*
X20687317Y-7282037D01*
X20532037Y-7437317D01*
X20448000Y-7640200D01*
X5714360Y-7640200D01*
X5644264Y-7450613D01*
X5034539Y-7224092D01*
X4384540Y-7248144D01*
X3895736Y-7450613D01*
X3797073Y-7717468D01*
X2784503Y-7717468D01*
X2484011Y-7593000D01*
X1975989Y-7593000D01*
X1506638Y-7787412D01*
X1147412Y-8146638D01*
X953000Y-8615989D01*
X352000Y-8615989D01*
X352000Y-6140200D01*
X17698000Y-6140200D01*
X17698000Y-6359800D01*
X17782037Y-6562683D01*
X17937317Y-6717963D01*
X18140200Y-6802000D01*
X18359800Y-6802000D01*
X18562683Y-6717963D01*
X18717963Y-6562683D01*
X18788124Y-6393298D01*
X21720075Y-6393298D01*
X22150000Y-6823223D01*
X22579925Y-6393298D01*
X23120075Y-6393298D01*
X23550000Y-6823223D01*
X23979925Y-6393298D01*
X24520075Y-6393298D01*
X24950000Y-6823223D01*
X25379925Y-6393298D01*
X25920075Y-6393298D01*
X26350000Y-6823223D01*
X26779925Y-6393298D01*
X26779831Y-6390200D01*
X34048000Y-6390200D01*
X34048000Y-6609800D01*
X34132037Y-6812683D01*
X34287317Y-6967963D01*
X34490200Y-7052000D01*
X34709800Y-7052000D01*
X34912683Y-6967963D01*
X35067963Y-6812683D01*
X35152000Y-6609800D01*
X35152000Y-6390200D01*
X35067963Y-6187317D01*
X34912683Y-6032037D01*
X34709800Y-5948000D01*
X34490200Y-5948000D01*
X34287317Y-6032037D01*
X34132037Y-6187317D01*
X34048000Y-6390200D01*
X26779831Y-6390200D01*
X26774140Y-6203558D01*
X26437070Y-6101872D01*
X26086743Y-6136917D01*
X25925860Y-6203558D01*
X25920075Y-6393298D01*
X25379925Y-6393298D01*
X25374140Y-6203558D01*
X25037070Y-6101872D01*
X24686743Y-6136917D01*
X24525860Y-6203558D01*
X24520075Y-6393298D01*
X23979925Y-6393298D01*
X23974140Y-6203558D01*
X23637070Y-6101872D01*
X23286743Y-6136917D01*
X23125860Y-6203558D01*
X23120075Y-6393298D01*
X22579925Y-6393298D01*
X22574140Y-6203558D01*
X22237070Y-6101872D01*
X21886743Y-6136917D01*
X21725860Y-6203558D01*
X21720075Y-6393298D01*
X18788124Y-6393298D01*
X18802000Y-6359800D01*
X18802000Y-6140200D01*
X18717963Y-5937317D01*
X18562683Y-5782037D01*
X18359800Y-5698000D01*
X18140200Y-5698000D01*
X17937317Y-5782037D01*
X17782037Y-5937317D01*
X17698000Y-6140200D01*
X352000Y-6140200D01*
X352000Y-4390200D01*
X18348000Y-4390200D01*
X18348000Y-4609800D01*
X18432037Y-4812683D01*
X18587317Y-4967963D01*
X18790200Y-5052000D01*
X19009800Y-5052000D01*
X19212683Y-4967963D01*
X19367963Y-4812683D01*
X19452000Y-4609800D01*
X19452000Y-4390200D01*
X19367963Y-4187317D01*
X19212683Y-4032037D01*
X19009800Y-3948000D01*
X18790200Y-3948000D01*
X18587317Y-4032037D01*
X18432037Y-4187317D01*
X18348000Y-4390200D01*
X352000Y-4390200D01*
X352000Y-3690200D01*
X20148000Y-3690200D01*
X20148000Y-3909800D01*
X20232037Y-4112683D01*
X20387317Y-4267963D01*
X20590200Y-4352000D01*
X20809800Y-4352000D01*
X21012683Y-4267963D01*
X21167963Y-4112683D01*
X21208531Y-4014744D01*
X21293949Y-4050126D01*
X21513549Y-4050126D01*
X21716432Y-3966089D01*
X21871712Y-3810809D01*
X21888832Y-3769478D01*
X21987317Y-3867963D01*
X22190200Y-3952000D01*
X22409800Y-3952000D01*
X22612683Y-3867963D01*
X22690446Y-3790200D01*
X28148000Y-3790200D01*
X28148000Y-4009800D01*
X28232037Y-4212683D01*
X28387317Y-4367963D01*
X28590200Y-4452000D01*
X28809800Y-4452000D01*
X29012683Y-4367963D01*
X29167963Y-4212683D01*
X29252000Y-4009800D01*
X29252000Y-3790200D01*
X29167963Y-3587317D01*
X29012683Y-3432037D01*
X28809800Y-3348000D01*
X28590200Y-3348000D01*
X28387317Y-3432037D01*
X28232037Y-3587317D01*
X28148000Y-3790200D01*
X22690446Y-3790200D01*
X22767963Y-3712683D01*
X22852000Y-3509800D01*
X22852000Y-3290200D01*
X22767963Y-3087317D01*
X22612683Y-2932037D01*
X22409800Y-2848000D01*
X22190200Y-2848000D01*
X21987317Y-2932037D01*
X21832037Y-3087317D01*
X21814917Y-3128648D01*
X21716432Y-3030163D01*
X21513549Y-2946126D01*
X21293949Y-2946126D01*
X21091066Y-3030163D01*
X20935786Y-3185443D01*
X20895218Y-3283382D01*
X20809800Y-3248000D01*
X20590200Y-3248000D01*
X20387317Y-3332037D01*
X20232037Y-3487317D01*
X20148000Y-3690200D01*
X352000Y-3690200D01*
X352000Y-2390200D01*
X19048000Y-2390200D01*
X19048000Y-2609800D01*
X19132037Y-2812683D01*
X19287317Y-2967963D01*
X19490200Y-3052000D01*
X19709800Y-3052000D01*
X19912683Y-2967963D01*
X20067963Y-2812683D01*
X20152000Y-2609800D01*
X20152000Y-2390200D01*
X20067963Y-2187317D01*
X19912683Y-2032037D01*
X19709800Y-1948000D01*
X19490200Y-1948000D01*
X19287317Y-2032037D01*
X19132037Y-2187317D01*
X19048000Y-2390200D01*
X352000Y-2390200D01*
X352000Y-1390200D01*
X23948000Y-1390200D01*
X23948000Y-1609800D01*
X24032037Y-1812683D01*
X24187317Y-1967963D01*
X24390200Y-2052000D01*
X24609800Y-2052000D01*
X24812683Y-1967963D01*
X24967963Y-1812683D01*
X25052000Y-1609800D01*
X25052000Y-1490200D01*
X26548000Y-1490200D01*
X26548000Y-1709800D01*
X26632037Y-1912683D01*
X26787317Y-2067963D01*
X26990200Y-2152000D01*
X27209800Y-2152000D01*
X27412683Y-2067963D01*
X27567963Y-1912683D01*
X27652000Y-1709800D01*
X27652000Y-1490200D01*
X27567963Y-1287317D01*
X27412683Y-1132037D01*
X27209800Y-1048000D01*
X26990200Y-1048000D01*
X26787317Y-1132037D01*
X26632037Y-1287317D01*
X26548000Y-1490200D01*
X25052000Y-1490200D01*
X25052000Y-1390200D01*
X24967963Y-1187317D01*
X24812683Y-1032037D01*
X24609800Y-948000D01*
X24390200Y-948000D01*
X24187317Y-1032037D01*
X24032037Y-1187317D01*
X23948000Y-1390200D01*
X352000Y-1390200D01*
X352000Y-352000D01*
X55648001Y-352000D01*
X55648000Y-65648000D01*
X55648000Y-65648000D01*
G37*
X55648000Y-65648000D02*
X352000Y-65648000D01*
X352000Y-63290200D01*
X16648000Y-63290200D01*
X16648000Y-63509800D01*
X16732037Y-63712683D01*
X16887317Y-63867963D01*
X17090200Y-63952000D01*
X17309800Y-63952000D01*
X17512683Y-63867963D01*
X17667963Y-63712683D01*
X17752000Y-63509800D01*
X17752000Y-63290200D01*
X19348000Y-63290200D01*
X19348000Y-63509800D01*
X19432037Y-63712683D01*
X19587317Y-63867963D01*
X19790200Y-63952000D01*
X20009800Y-63952000D01*
X20212683Y-63867963D01*
X20367963Y-63712683D01*
X20452000Y-63509800D01*
X20452000Y-63290200D01*
X20367963Y-63087317D01*
X20212683Y-62932037D01*
X20009800Y-62848000D01*
X19790200Y-62848000D01*
X19587317Y-62932037D01*
X19432037Y-63087317D01*
X19348000Y-63290200D01*
X17752000Y-63290200D01*
X17667963Y-63087317D01*
X17512683Y-62932037D01*
X17309800Y-62848000D01*
X17090200Y-62848000D01*
X16887317Y-62932037D01*
X16732037Y-63087317D01*
X16648000Y-63290200D01*
X352000Y-63290200D01*
X352000Y-61730391D01*
X8923000Y-61730391D01*
X8923000Y-62019609D01*
X9033679Y-62286813D01*
X9238187Y-62491321D01*
X9505391Y-62602000D01*
X9794609Y-62602000D01*
X10061813Y-62491321D01*
X10266321Y-62286813D01*
X10377000Y-62019609D01*
X10377000Y-61730391D01*
X12273000Y-61730391D01*
X12273000Y-62019609D01*
X12383679Y-62286813D01*
X12588187Y-62491321D01*
X12855391Y-62602000D01*
X13144609Y-62602000D01*
X13411813Y-62491321D01*
X13616321Y-62286813D01*
X13727000Y-62019609D01*
X13727000Y-61730391D01*
X13616321Y-61463187D01*
X13411813Y-61258679D01*
X13144609Y-61148000D01*
X12855391Y-61148000D01*
X12588187Y-61258679D01*
X12383679Y-61463187D01*
X12273000Y-61730391D01*
X10377000Y-61730391D01*
X10266321Y-61463187D01*
X10061813Y-61258679D01*
X9794609Y-61148000D01*
X9505391Y-61148000D01*
X9238187Y-61258679D01*
X9033679Y-61463187D01*
X8923000Y-61730391D01*
X352000Y-61730391D01*
X352000Y-60140200D01*
X16948000Y-60140200D01*
X16948000Y-60359800D01*
X17032037Y-60562683D01*
X17187317Y-60717963D01*
X17390200Y-60802000D01*
X17609800Y-60802000D01*
X17812683Y-60717963D01*
X17967963Y-60562683D01*
X18052000Y-60359800D01*
X18052000Y-60140200D01*
X19198000Y-60140200D01*
X19198000Y-60359800D01*
X19282037Y-60562683D01*
X19437317Y-60717963D01*
X19640200Y-60802000D01*
X19859800Y-60802000D01*
X20062683Y-60717963D01*
X20217963Y-60562683D01*
X20302000Y-60359800D01*
X20302000Y-60140200D01*
X20217963Y-59937317D01*
X20062683Y-59782037D01*
X19859800Y-59698000D01*
X19640200Y-59698000D01*
X19437317Y-59782037D01*
X19282037Y-59937317D01*
X19198000Y-60140200D01*
X18052000Y-60140200D01*
X17967963Y-59937317D01*
X17812683Y-59782037D01*
X17609800Y-59698000D01*
X17390200Y-59698000D01*
X17187317Y-59782037D01*
X17032037Y-59937317D01*
X16948000Y-60140200D01*
X352000Y-60140200D01*
X352000Y-51785461D01*
X584092Y-51785461D01*
X608144Y-52435460D01*
X810613Y-52924264D01*
X1077468Y-53022927D01*
X2050395Y-52050000D01*
X1077468Y-51077073D01*
X810613Y-51175736D01*
X584092Y-51785461D01*
X352000Y-51785461D01*
X352000Y-41625461D01*
X584092Y-41625461D01*
X608144Y-42275460D01*
X810613Y-42764264D01*
X1077468Y-42862927D01*
X2050395Y-41890000D01*
X1077468Y-40917073D01*
X810613Y-41015736D01*
X584092Y-41625461D01*
X352000Y-41625461D01*
X352000Y-34005461D01*
X584092Y-34005461D01*
X608144Y-34655460D01*
X810613Y-35144264D01*
X1077468Y-35242927D01*
X2050395Y-34270000D01*
X1077468Y-33297073D01*
X810613Y-33395736D01*
X584092Y-34005461D01*
X352000Y-34005461D01*
X352000Y-21305461D01*
X584092Y-21305461D01*
X608144Y-21955460D01*
X810613Y-22444264D01*
X1077468Y-22542927D01*
X2050395Y-21570000D01*
X1077468Y-20597073D01*
X810613Y-20695736D01*
X584092Y-21305461D01*
X352000Y-21305461D01*
X352000Y-16225461D01*
X584092Y-16225461D01*
X608144Y-16875460D01*
X810613Y-17364264D01*
X1077468Y-17462927D01*
X2050395Y-16490000D01*
X1077468Y-15517073D01*
X810613Y-15615736D01*
X584092Y-16225461D01*
X352000Y-16225461D01*
X352000Y-8615989D01*
X953000Y-8615989D01*
X953000Y-9124011D01*
X1147412Y-9593362D01*
X1506638Y-9952588D01*
X1959090Y-10140000D01*
X1506638Y-10327412D01*
X1147412Y-10686638D01*
X953000Y-11155989D01*
X953000Y-11664011D01*
X1147412Y-12133362D01*
X1506638Y-12492588D01*
X1959090Y-12680000D01*
X1506638Y-12867412D01*
X1147412Y-13226638D01*
X953000Y-13695989D01*
X953000Y-14204011D01*
X1147412Y-14673362D01*
X1489328Y-15015278D01*
X1355736Y-15070613D01*
X1257073Y-15337468D01*
X2230000Y-16310395D01*
X3202927Y-15337468D01*
X3104264Y-15070613D01*
X2966513Y-15019437D01*
X3312588Y-14673362D01*
X3500000Y-14220910D01*
X3687412Y-14673362D01*
X4046638Y-15032588D01*
X4499090Y-15220000D01*
X4046638Y-15407412D01*
X3704722Y-15749328D01*
X3649387Y-15615736D01*
X3382532Y-15517073D01*
X2409605Y-16490000D01*
X3382532Y-17462927D01*
X3649387Y-17364264D01*
X3700563Y-17226513D01*
X4046638Y-17572588D01*
X4499090Y-17760000D01*
X4046638Y-17947412D01*
X3687412Y-18306638D01*
X3500000Y-18759090D01*
X3312588Y-18306638D01*
X2970672Y-17964722D01*
X3104264Y-17909387D01*
X3202927Y-17642532D01*
X2230000Y-16669605D01*
X1257073Y-17642532D01*
X1355736Y-17909387D01*
X1493487Y-17960563D01*
X1147412Y-18306638D01*
X953000Y-18775989D01*
X953000Y-19284011D01*
X1147412Y-19753362D01*
X1489328Y-20095278D01*
X1355736Y-20150613D01*
X1257073Y-20417468D01*
X2230000Y-21390395D01*
X3202927Y-20417468D01*
X3104264Y-20150613D01*
X2966513Y-20099437D01*
X3312588Y-19753362D01*
X3500000Y-19300910D01*
X3687412Y-19753362D01*
X4046638Y-20112588D01*
X4499090Y-20300000D01*
X4046638Y-20487412D01*
X3704722Y-20829328D01*
X3649387Y-20695736D01*
X3382532Y-20597073D01*
X2409605Y-21570000D01*
X3382532Y-22542927D01*
X3649387Y-22444264D01*
X3700563Y-22306513D01*
X4046638Y-22652588D01*
X4499090Y-22840000D01*
X4046638Y-23027412D01*
X3687412Y-23386638D01*
X3500000Y-23839090D01*
X3312588Y-23386638D01*
X2970672Y-23044722D01*
X3104264Y-22989387D01*
X3202927Y-22722532D01*
X2230000Y-21749605D01*
X1257073Y-22722532D01*
X1355736Y-22989387D01*
X1493487Y-23040563D01*
X1147412Y-23386638D01*
X953000Y-23855989D01*
X953000Y-24364011D01*
X1147412Y-24833362D01*
X1506638Y-25192588D01*
X1959090Y-25380000D01*
X1506638Y-25567412D01*
X1147412Y-25926638D01*
X953000Y-26395989D01*
X953000Y-26904011D01*
X1147412Y-27373362D01*
X1506638Y-27732588D01*
X1959090Y-27920000D01*
X1506638Y-28107412D01*
X1147412Y-28466638D01*
X953000Y-28935989D01*
X953000Y-29444011D01*
X1147412Y-29913362D01*
X1506638Y-30272588D01*
X1959090Y-30460000D01*
X1506638Y-30647412D01*
X1147412Y-31006638D01*
X953000Y-31475989D01*
X953000Y-31984011D01*
X1147412Y-32453362D01*
X1489328Y-32795278D01*
X1355736Y-32850613D01*
X1257073Y-33117468D01*
X2230000Y-34090395D01*
X3202927Y-33117468D01*
X3104264Y-32850613D01*
X2966513Y-32799437D01*
X3312588Y-32453362D01*
X3500000Y-32000910D01*
X3687412Y-32453362D01*
X4046638Y-32812588D01*
X4499090Y-33000000D01*
X4046638Y-33187412D01*
X3704722Y-33529328D01*
X3649387Y-33395736D01*
X3382532Y-33297073D01*
X2409605Y-34270000D01*
X3382532Y-35242927D01*
X3649387Y-35144264D01*
X3700563Y-35006513D01*
X4046638Y-35352588D01*
X4499090Y-35540000D01*
X4046638Y-35727412D01*
X3687412Y-36086638D01*
X3500000Y-36539090D01*
X3312588Y-36086638D01*
X2970672Y-35744722D01*
X3104264Y-35689387D01*
X3202927Y-35422532D01*
X2230000Y-34449605D01*
X1257073Y-35422532D01*
X1355736Y-35689387D01*
X1493487Y-35740563D01*
X1147412Y-36086638D01*
X953000Y-36555989D01*
X953000Y-37064011D01*
X1147412Y-37533362D01*
X1506638Y-37892588D01*
X1959090Y-38080000D01*
X1506638Y-38267412D01*
X1147412Y-38626638D01*
X953000Y-39095989D01*
X953000Y-39604011D01*
X1147412Y-40073362D01*
X1489328Y-40415278D01*
X1355736Y-40470613D01*
X1257073Y-40737468D01*
X2230000Y-41710395D01*
X3202927Y-40737468D01*
X3104264Y-40470613D01*
X2966513Y-40419437D01*
X3312588Y-40073362D01*
X3500000Y-39620910D01*
X3687412Y-40073362D01*
X4046638Y-40432588D01*
X4499090Y-40620000D01*
X4046638Y-40807412D01*
X3704722Y-41149328D01*
X3649387Y-41015736D01*
X3382532Y-40917073D01*
X2409605Y-41890000D01*
X3382532Y-42862927D01*
X3649387Y-42764264D01*
X3700563Y-42626513D01*
X4046638Y-42972588D01*
X4499090Y-43160000D01*
X4046638Y-43347412D01*
X3687412Y-43706638D01*
X3500000Y-44159090D01*
X3312588Y-43706638D01*
X2970672Y-43364722D01*
X3104264Y-43309387D01*
X3202927Y-43042532D01*
X2230000Y-42069605D01*
X1257073Y-43042532D01*
X1355736Y-43309387D01*
X1493487Y-43360563D01*
X1147412Y-43706638D01*
X953000Y-44175989D01*
X953000Y-44684011D01*
X1147412Y-45153362D01*
X1506638Y-45512588D01*
X1959090Y-45700000D01*
X1506638Y-45887412D01*
X1147412Y-46246638D01*
X953000Y-46715989D01*
X953000Y-47224011D01*
X1147412Y-47693362D01*
X1506638Y-48052588D01*
X1959090Y-48240000D01*
X1506638Y-48427412D01*
X1147412Y-48786638D01*
X953000Y-49255989D01*
X953000Y-49764011D01*
X1147412Y-50233362D01*
X1489328Y-50575278D01*
X1355736Y-50630613D01*
X1257073Y-50897468D01*
X2230000Y-51870395D01*
X3202927Y-50897468D01*
X3104264Y-50630613D01*
X2966513Y-50579437D01*
X3312588Y-50233362D01*
X3500000Y-49780910D01*
X3687412Y-50233362D01*
X4046638Y-50592588D01*
X4499090Y-50780000D01*
X4046638Y-50967412D01*
X3704722Y-51309328D01*
X3649387Y-51175736D01*
X3382532Y-51077073D01*
X2409605Y-52050000D01*
X3382532Y-53022927D01*
X3649387Y-52924264D01*
X3700563Y-52786513D01*
X4046638Y-53132588D01*
X4499090Y-53320000D01*
X4046638Y-53507412D01*
X3687412Y-53866638D01*
X3500000Y-54319090D01*
X3312588Y-53866638D01*
X2970672Y-53524722D01*
X3104264Y-53469387D01*
X3202927Y-53202532D01*
X2230000Y-52229605D01*
X1257073Y-53202532D01*
X1355736Y-53469387D01*
X1493487Y-53520563D01*
X1147412Y-53866638D01*
X953000Y-54335989D01*
X953000Y-54844011D01*
X1147412Y-55313362D01*
X1506638Y-55672588D01*
X1959090Y-55860000D01*
X1506638Y-56047412D01*
X1147412Y-56406638D01*
X953000Y-56875989D01*
X953000Y-57384011D01*
X1147412Y-57853362D01*
X1506638Y-58212588D01*
X1975989Y-58407000D01*
X2484011Y-58407000D01*
X2953362Y-58212588D01*
X3312588Y-57853362D01*
X3500000Y-57400910D01*
X3687412Y-57853362D01*
X4046638Y-58212588D01*
X4515989Y-58407000D01*
X5024011Y-58407000D01*
X5493362Y-58212588D01*
X5852588Y-57853362D01*
X6047000Y-57384011D01*
X6047000Y-57140200D01*
X25448000Y-57140200D01*
X25448000Y-57359800D01*
X25532037Y-57562683D01*
X25687317Y-57717963D01*
X25890200Y-57802000D01*
X26109800Y-57802000D01*
X26312683Y-57717963D01*
X26467963Y-57562683D01*
X26552000Y-57359800D01*
X26552000Y-57140200D01*
X26698000Y-57140200D01*
X26698000Y-57359800D01*
X26782037Y-57562683D01*
X26937317Y-57717963D01*
X27140200Y-57802000D01*
X27359800Y-57802000D01*
X27562683Y-57717963D01*
X27717963Y-57562683D01*
X27802000Y-57359800D01*
X27802000Y-57140200D01*
X27948000Y-57140200D01*
X27948000Y-57359800D01*
X28032037Y-57562683D01*
X28187317Y-57717963D01*
X28390200Y-57802000D01*
X28609800Y-57802000D01*
X28812683Y-57717963D01*
X28967963Y-57562683D01*
X29052000Y-57359800D01*
X29052000Y-57140200D01*
X29198000Y-57140200D01*
X29198000Y-57359800D01*
X29282037Y-57562683D01*
X29437317Y-57717963D01*
X29640200Y-57802000D01*
X29859800Y-57802000D01*
X30062683Y-57717963D01*
X30217963Y-57562683D01*
X30302000Y-57359800D01*
X30302000Y-57140200D01*
X30217963Y-56937317D01*
X30062683Y-56782037D01*
X29859800Y-56698000D01*
X29640200Y-56698000D01*
X29437317Y-56782037D01*
X29282037Y-56937317D01*
X29198000Y-57140200D01*
X29052000Y-57140200D01*
X28967963Y-56937317D01*
X28812683Y-56782037D01*
X28609800Y-56698000D01*
X28390200Y-56698000D01*
X28187317Y-56782037D01*
X28032037Y-56937317D01*
X27948000Y-57140200D01*
X27802000Y-57140200D01*
X27717963Y-56937317D01*
X27562683Y-56782037D01*
X27359800Y-56698000D01*
X27140200Y-56698000D01*
X26937317Y-56782037D01*
X26782037Y-56937317D01*
X26698000Y-57140200D01*
X26552000Y-57140200D01*
X26467963Y-56937317D01*
X26312683Y-56782037D01*
X26109800Y-56698000D01*
X25890200Y-56698000D01*
X25687317Y-56782037D01*
X25532037Y-56937317D01*
X25448000Y-57140200D01*
X6047000Y-57140200D01*
X6047000Y-56875989D01*
X5852588Y-56406638D01*
X5493362Y-56047412D01*
X5040910Y-55860000D01*
X5060354Y-55851946D01*
X6128494Y-55851946D01*
X6128494Y-56071546D01*
X6212531Y-56274429D01*
X6367811Y-56429709D01*
X6570694Y-56513746D01*
X6790294Y-56513746D01*
X6948000Y-56448422D01*
X6948000Y-56609800D01*
X7032037Y-56812683D01*
X7187317Y-56967963D01*
X7390200Y-57052000D01*
X7609800Y-57052000D01*
X7812683Y-56967963D01*
X7967963Y-56812683D01*
X8052000Y-56609800D01*
X8052000Y-56390200D01*
X7967963Y-56187317D01*
X7812683Y-56032037D01*
X7609800Y-55948000D01*
X7390200Y-55948000D01*
X7232494Y-56013324D01*
X7232494Y-55851946D01*
X7148457Y-55649063D01*
X6993177Y-55493783D01*
X6790294Y-55409746D01*
X6570694Y-55409746D01*
X6367811Y-55493783D01*
X6212531Y-55649063D01*
X6128494Y-55851946D01*
X5060354Y-55851946D01*
X5493362Y-55672588D01*
X5852588Y-55313362D01*
X6047000Y-54844011D01*
X6047000Y-54335989D01*
X5852588Y-53866638D01*
X5493362Y-53507412D01*
X5040910Y-53320000D01*
X5493362Y-53132588D01*
X5852588Y-52773362D01*
X6047000Y-52304011D01*
X6047000Y-51795989D01*
X5852588Y-51326638D01*
X5493362Y-50967412D01*
X5040910Y-50780000D01*
X5493362Y-50592588D01*
X5852588Y-50233362D01*
X6047000Y-49764011D01*
X6047000Y-49255989D01*
X5999039Y-49140200D01*
X46948000Y-49140200D01*
X46948000Y-49359800D01*
X47032037Y-49562683D01*
X47187317Y-49717963D01*
X47390200Y-49802000D01*
X47609800Y-49802000D01*
X47812683Y-49717963D01*
X47967963Y-49562683D01*
X48000000Y-49485339D01*
X48032037Y-49562683D01*
X48187317Y-49717963D01*
X48390200Y-49802000D01*
X48609800Y-49802000D01*
X48812683Y-49717963D01*
X48967963Y-49562683D01*
X49000000Y-49485339D01*
X49032037Y-49562683D01*
X49187317Y-49717963D01*
X49390200Y-49802000D01*
X49609800Y-49802000D01*
X49812683Y-49717963D01*
X49967963Y-49562683D01*
X50000000Y-49485339D01*
X50032037Y-49562683D01*
X50187317Y-49717963D01*
X50390200Y-49802000D01*
X50609800Y-49802000D01*
X50812683Y-49717963D01*
X50898625Y-49632021D01*
X50932037Y-49712683D01*
X51087317Y-49867963D01*
X51290200Y-49952000D01*
X51509800Y-49952000D01*
X51712683Y-49867963D01*
X51867963Y-49712683D01*
X51952000Y-49509800D01*
X51952000Y-49290200D01*
X51867963Y-49087317D01*
X51712683Y-48932037D01*
X51509800Y-48848000D01*
X51290200Y-48848000D01*
X51087317Y-48932037D01*
X51001375Y-49017979D01*
X50967963Y-48937317D01*
X50850741Y-48820095D01*
X50831577Y-48723748D01*
X50753778Y-48607314D01*
X50637344Y-48529515D01*
X50500000Y-48502196D01*
X50362656Y-48529515D01*
X50284857Y-48581499D01*
X50269358Y-48591856D01*
X50246222Y-48607315D01*
X50168423Y-48723749D01*
X50156829Y-48782037D01*
X50149259Y-48820095D01*
X50032037Y-48937317D01*
X50000000Y-49014661D01*
X49967963Y-48937317D01*
X49812683Y-48782037D01*
X49609800Y-48698000D01*
X49390200Y-48698000D01*
X49187317Y-48782037D01*
X49032037Y-48937317D01*
X49000000Y-49014661D01*
X48967963Y-48937317D01*
X48812683Y-48782037D01*
X48609800Y-48698000D01*
X48390200Y-48698000D01*
X48187317Y-48782037D01*
X48032037Y-48937317D01*
X48000000Y-49014661D01*
X47967963Y-48937317D01*
X47812683Y-48782037D01*
X47609800Y-48698000D01*
X47390200Y-48698000D01*
X47187317Y-48782037D01*
X47032037Y-48937317D01*
X46948000Y-49140200D01*
X5999039Y-49140200D01*
X5852588Y-48786638D01*
X5510672Y-48444722D01*
X5642301Y-48390200D01*
X28448000Y-48390200D01*
X28448000Y-48609800D01*
X28532037Y-48812683D01*
X28687317Y-48967963D01*
X28890200Y-49052000D01*
X29109800Y-49052000D01*
X29312683Y-48967963D01*
X29467963Y-48812683D01*
X29552000Y-48609800D01*
X29552000Y-48390200D01*
X29467963Y-48187317D01*
X29312683Y-48032037D01*
X29109800Y-47948000D01*
X28890200Y-47948000D01*
X28687317Y-48032037D01*
X28532037Y-48187317D01*
X28448000Y-48390200D01*
X5642301Y-48390200D01*
X5644264Y-48389387D01*
X5742927Y-48122532D01*
X4770000Y-47149605D01*
X3797073Y-48122532D01*
X3895736Y-48389387D01*
X4033487Y-48440563D01*
X3687412Y-48786638D01*
X3500000Y-49239090D01*
X3312588Y-48786638D01*
X2953362Y-48427412D01*
X2500910Y-48240000D01*
X2953362Y-48052588D01*
X3295278Y-47710672D01*
X3350613Y-47844264D01*
X3617468Y-47942927D01*
X4590395Y-46970000D01*
X4949605Y-46970000D01*
X5922532Y-47942927D01*
X6189387Y-47844264D01*
X6415908Y-47234539D01*
X6391856Y-46584540D01*
X6312586Y-46393163D01*
X7073010Y-46393163D01*
X7073010Y-46612763D01*
X7157047Y-46815646D01*
X7312327Y-46970926D01*
X7515210Y-47054963D01*
X7734810Y-47054963D01*
X7937693Y-46970926D01*
X8092973Y-46815646D01*
X8177010Y-46612763D01*
X8177010Y-46393163D01*
X8175783Y-46390200D01*
X12348000Y-46390200D01*
X12348000Y-46609800D01*
X12432037Y-46812683D01*
X12587317Y-46967963D01*
X12790200Y-47052000D01*
X13009800Y-47052000D01*
X13212683Y-46967963D01*
X13367963Y-46812683D01*
X13452000Y-46609800D01*
X13452000Y-46390200D01*
X17648000Y-46390200D01*
X17648000Y-46609800D01*
X17732037Y-46812683D01*
X17887317Y-46967963D01*
X18090200Y-47052000D01*
X18309800Y-47052000D01*
X18512683Y-46967963D01*
X18590446Y-46890200D01*
X24048000Y-46890200D01*
X24048000Y-47109800D01*
X24132037Y-47312683D01*
X24287317Y-47467963D01*
X24490200Y-47552000D01*
X24709800Y-47552000D01*
X24912683Y-47467963D01*
X25067963Y-47312683D01*
X25152000Y-47109800D01*
X25152000Y-46890200D01*
X25067963Y-46687317D01*
X24912683Y-46532037D01*
X24709800Y-46448000D01*
X24490200Y-46448000D01*
X24287317Y-46532037D01*
X24132037Y-46687317D01*
X24048000Y-46890200D01*
X18590446Y-46890200D01*
X18667963Y-46812683D01*
X18752000Y-46609800D01*
X18752000Y-46390200D01*
X18667963Y-46187317D01*
X18512683Y-46032037D01*
X18309800Y-45948000D01*
X18090200Y-45948000D01*
X17887317Y-46032037D01*
X17732037Y-46187317D01*
X17648000Y-46390200D01*
X13452000Y-46390200D01*
X13367963Y-46187317D01*
X13212683Y-46032037D01*
X13009800Y-45948000D01*
X12790200Y-45948000D01*
X12587317Y-46032037D01*
X12432037Y-46187317D01*
X12348000Y-46390200D01*
X8175783Y-46390200D01*
X8092973Y-46190280D01*
X7937693Y-46035000D01*
X7734810Y-45950963D01*
X7515210Y-45950963D01*
X7312327Y-46035000D01*
X7157047Y-46190280D01*
X7073010Y-46393163D01*
X6312586Y-46393163D01*
X6189387Y-46095736D01*
X5922532Y-45997073D01*
X4949605Y-46970000D01*
X4590395Y-46970000D01*
X3617468Y-45997073D01*
X3350613Y-46095736D01*
X3299437Y-46233487D01*
X2953362Y-45887412D01*
X2500910Y-45700000D01*
X2953362Y-45512588D01*
X3312588Y-45153362D01*
X3500000Y-44700910D01*
X3687412Y-45153362D01*
X4029328Y-45495278D01*
X3895736Y-45550613D01*
X3797073Y-45817468D01*
X4770000Y-46790395D01*
X5742927Y-45817468D01*
X5644264Y-45550613D01*
X5506513Y-45499437D01*
X5852588Y-45153362D01*
X5920172Y-44990200D01*
X10948000Y-44990200D01*
X10948000Y-45209800D01*
X11032037Y-45412683D01*
X11187317Y-45567963D01*
X11390200Y-45652000D01*
X11609800Y-45652000D01*
X11812683Y-45567963D01*
X11967963Y-45412683D01*
X12052000Y-45209800D01*
X12052000Y-44990200D01*
X16248000Y-44990200D01*
X16248000Y-45209800D01*
X16332037Y-45412683D01*
X16487317Y-45567963D01*
X16690200Y-45652000D01*
X16909800Y-45652000D01*
X17112683Y-45567963D01*
X17267963Y-45412683D01*
X17352000Y-45209800D01*
X17352000Y-44990200D01*
X21748000Y-44990200D01*
X21748000Y-45209800D01*
X21832037Y-45412683D01*
X21987317Y-45567963D01*
X22190200Y-45652000D01*
X22409800Y-45652000D01*
X22558998Y-45590200D01*
X31048000Y-45590200D01*
X31048000Y-45809800D01*
X31132037Y-46012683D01*
X31287317Y-46167963D01*
X31490200Y-46252000D01*
X31709800Y-46252000D01*
X31912683Y-46167963D01*
X32067963Y-46012683D01*
X32118697Y-45890200D01*
X34648000Y-45890200D01*
X34648000Y-46109800D01*
X34732037Y-46312683D01*
X34887317Y-46467963D01*
X35085372Y-46550000D01*
X34887317Y-46632037D01*
X34732037Y-46787317D01*
X34648000Y-46990200D01*
X34648000Y-47209800D01*
X34732037Y-47412683D01*
X34887317Y-47567963D01*
X35090200Y-47652000D01*
X35309800Y-47652000D01*
X35512683Y-47567963D01*
X35667963Y-47412683D01*
X35752000Y-47209800D01*
X35752000Y-46990200D01*
X35667963Y-46787317D01*
X35512683Y-46632037D01*
X35314628Y-46550000D01*
X35512683Y-46467963D01*
X35667963Y-46312683D01*
X35752000Y-46109800D01*
X35752000Y-45890200D01*
X35667963Y-45687317D01*
X35512683Y-45532037D01*
X35309800Y-45448000D01*
X35090200Y-45448000D01*
X34887317Y-45532037D01*
X34732037Y-45687317D01*
X34648000Y-45890200D01*
X32118697Y-45890200D01*
X32152000Y-45809800D01*
X32152000Y-45590200D01*
X32067963Y-45387317D01*
X31912683Y-45232037D01*
X31709800Y-45148000D01*
X31490200Y-45148000D01*
X31287317Y-45232037D01*
X31132037Y-45387317D01*
X31048000Y-45590200D01*
X22558998Y-45590200D01*
X22612683Y-45567963D01*
X22767963Y-45412683D01*
X22852000Y-45209800D01*
X22852000Y-44990200D01*
X22794756Y-44852000D01*
X23009800Y-44852000D01*
X23212683Y-44767963D01*
X23367963Y-44612683D01*
X23452000Y-44409800D01*
X23452000Y-44190200D01*
X23410579Y-44090200D01*
X26848000Y-44090200D01*
X26848000Y-44309800D01*
X26932037Y-44512683D01*
X27087317Y-44667963D01*
X27290200Y-44752000D01*
X27509800Y-44752000D01*
X27712683Y-44667963D01*
X27867963Y-44512683D01*
X27952000Y-44309800D01*
X27952000Y-44090200D01*
X27941649Y-44065210D01*
X30117474Y-44065210D01*
X30117474Y-44284810D01*
X30201511Y-44487693D01*
X30356791Y-44642973D01*
X30559674Y-44727010D01*
X30779274Y-44727010D01*
X30982157Y-44642973D01*
X31137437Y-44487693D01*
X31221474Y-44284810D01*
X31221474Y-44090200D01*
X31448000Y-44090200D01*
X31448000Y-44309800D01*
X31532037Y-44512683D01*
X31687317Y-44667963D01*
X31890200Y-44752000D01*
X32109800Y-44752000D01*
X32312683Y-44667963D01*
X32467963Y-44512683D01*
X32552000Y-44309800D01*
X32552000Y-44090200D01*
X34723010Y-44090200D01*
X34723010Y-44309800D01*
X34807047Y-44512683D01*
X34962327Y-44667963D01*
X35165210Y-44752000D01*
X35384810Y-44752000D01*
X35587693Y-44667963D01*
X35692956Y-44562700D01*
X36638000Y-44562700D01*
X36638000Y-44782300D01*
X36722037Y-44985183D01*
X36746854Y-45010000D01*
X36722037Y-45034817D01*
X36638000Y-45237700D01*
X36638000Y-45457300D01*
X36722037Y-45660183D01*
X36877317Y-45815463D01*
X37080200Y-45899500D01*
X37299800Y-45899500D01*
X37502683Y-45815463D01*
X37516595Y-45801551D01*
X38679351Y-45801551D01*
X38679351Y-46021151D01*
X38763388Y-46224034D01*
X38918668Y-46379314D01*
X39121551Y-46463351D01*
X39156649Y-46463351D01*
X39156649Y-46498449D01*
X39240686Y-46701332D01*
X39395966Y-46856612D01*
X39598849Y-46940649D01*
X39818449Y-46940649D01*
X40021332Y-46856612D01*
X40176612Y-46701332D01*
X40260649Y-46498449D01*
X40260649Y-46278849D01*
X40176612Y-46075966D01*
X40021332Y-45920686D01*
X39818449Y-45836649D01*
X39783351Y-45836649D01*
X39783351Y-45801551D01*
X39699314Y-45598668D01*
X39544034Y-45443388D01*
X39341151Y-45359351D01*
X39121551Y-45359351D01*
X38918668Y-45443388D01*
X38763388Y-45598668D01*
X38679351Y-45801551D01*
X37516595Y-45801551D01*
X37657963Y-45660183D01*
X37742000Y-45457300D01*
X37742000Y-45278849D01*
X43089351Y-45278849D01*
X43089351Y-45498449D01*
X43173388Y-45701332D01*
X43328668Y-45856612D01*
X43531551Y-45940649D01*
X43751151Y-45940649D01*
X43954034Y-45856612D01*
X44109314Y-45701332D01*
X44134635Y-45640200D01*
X47198000Y-45640200D01*
X47198000Y-45859800D01*
X47282037Y-46062683D01*
X47437317Y-46217963D01*
X47640200Y-46302000D01*
X47859800Y-46302000D01*
X48062683Y-46217963D01*
X48217963Y-46062683D01*
X48302000Y-45859800D01*
X48302000Y-45640200D01*
X49698000Y-45640200D01*
X49698000Y-45859800D01*
X49782037Y-46062683D01*
X49937317Y-46217963D01*
X50140200Y-46302000D01*
X50359800Y-46302000D01*
X50562683Y-46217963D01*
X50717963Y-46062683D01*
X50802000Y-45859800D01*
X50802000Y-45640200D01*
X50717963Y-45437317D01*
X50562683Y-45282037D01*
X50359800Y-45198000D01*
X50140200Y-45198000D01*
X49937317Y-45282037D01*
X49782037Y-45437317D01*
X49698000Y-45640200D01*
X48302000Y-45640200D01*
X48217963Y-45437317D01*
X48062683Y-45282037D01*
X47859800Y-45198000D01*
X47640200Y-45198000D01*
X47437317Y-45282037D01*
X47282037Y-45437317D01*
X47198000Y-45640200D01*
X44134635Y-45640200D01*
X44193351Y-45498449D01*
X44193351Y-45463351D01*
X44228449Y-45463351D01*
X44431332Y-45379314D01*
X44586612Y-45224034D01*
X44670649Y-45021151D01*
X44670649Y-44801551D01*
X44586612Y-44598668D01*
X44431332Y-44443388D01*
X44228449Y-44359351D01*
X44008849Y-44359351D01*
X43805966Y-44443388D01*
X43650686Y-44598668D01*
X43566649Y-44801551D01*
X43566649Y-44836649D01*
X43531551Y-44836649D01*
X43328668Y-44920686D01*
X43173388Y-45075966D01*
X43089351Y-45278849D01*
X37742000Y-45278849D01*
X37742000Y-45237700D01*
X37657963Y-45034817D01*
X37633146Y-45010000D01*
X37657963Y-44985183D01*
X37742000Y-44782300D01*
X37742000Y-44562700D01*
X37657963Y-44359817D01*
X37502683Y-44204537D01*
X37299800Y-44120500D01*
X37080200Y-44120500D01*
X36877317Y-44204537D01*
X36722037Y-44359817D01*
X36638000Y-44562700D01*
X35692956Y-44562700D01*
X35742973Y-44512683D01*
X35827010Y-44309800D01*
X35827010Y-44090200D01*
X35742973Y-43887317D01*
X35587693Y-43732037D01*
X35384810Y-43648000D01*
X35165210Y-43648000D01*
X34962327Y-43732037D01*
X34807047Y-43887317D01*
X34723010Y-44090200D01*
X32552000Y-44090200D01*
X32467963Y-43887317D01*
X32312683Y-43732037D01*
X32109800Y-43648000D01*
X31890200Y-43648000D01*
X31687317Y-43732037D01*
X31532037Y-43887317D01*
X31448000Y-44090200D01*
X31221474Y-44090200D01*
X31221474Y-44065210D01*
X31137437Y-43862327D01*
X30982157Y-43707047D01*
X30779274Y-43623010D01*
X30559674Y-43623010D01*
X30356791Y-43707047D01*
X30201511Y-43862327D01*
X30117474Y-44065210D01*
X27941649Y-44065210D01*
X27867963Y-43887317D01*
X27712683Y-43732037D01*
X27509800Y-43648000D01*
X27290200Y-43648000D01*
X27087317Y-43732037D01*
X26932037Y-43887317D01*
X26848000Y-44090200D01*
X23410579Y-44090200D01*
X23367963Y-43987317D01*
X23212683Y-43832037D01*
X23009800Y-43748000D01*
X22790200Y-43748000D01*
X22587317Y-43832037D01*
X22432037Y-43987317D01*
X22348000Y-44190200D01*
X22348000Y-44409800D01*
X22405244Y-44548000D01*
X22190200Y-44548000D01*
X21987317Y-44632037D01*
X21832037Y-44787317D01*
X21748000Y-44990200D01*
X17352000Y-44990200D01*
X17267963Y-44787317D01*
X17112683Y-44632037D01*
X16909800Y-44548000D01*
X16690200Y-44548000D01*
X16487317Y-44632037D01*
X16332037Y-44787317D01*
X16248000Y-44990200D01*
X12052000Y-44990200D01*
X11967963Y-44787317D01*
X11812683Y-44632037D01*
X11609800Y-44548000D01*
X11390200Y-44548000D01*
X11187317Y-44632037D01*
X11032037Y-44787317D01*
X10948000Y-44990200D01*
X5920172Y-44990200D01*
X6047000Y-44684011D01*
X6047000Y-44190200D01*
X13648000Y-44190200D01*
X13648000Y-44409800D01*
X13732037Y-44612683D01*
X13887317Y-44767963D01*
X14090200Y-44852000D01*
X14309800Y-44852000D01*
X14512683Y-44767963D01*
X14667963Y-44612683D01*
X14752000Y-44409800D01*
X14752000Y-44190200D01*
X14667963Y-43987317D01*
X14512683Y-43832037D01*
X14309800Y-43748000D01*
X14090200Y-43748000D01*
X13887317Y-43832037D01*
X13732037Y-43987317D01*
X13648000Y-44190200D01*
X6047000Y-44190200D01*
X6047000Y-44175989D01*
X5852588Y-43706638D01*
X5736150Y-43590200D01*
X14948000Y-43590200D01*
X14948000Y-43809800D01*
X15032037Y-44012683D01*
X15187317Y-44167963D01*
X15390200Y-44252000D01*
X15609800Y-44252000D01*
X15758998Y-44190200D01*
X18548000Y-44190200D01*
X18548000Y-44409800D01*
X18632037Y-44612683D01*
X18787317Y-44767963D01*
X18990200Y-44852000D01*
X19209800Y-44852000D01*
X19412683Y-44767963D01*
X19567963Y-44612683D01*
X19652000Y-44409800D01*
X19652000Y-44190200D01*
X19567963Y-43987317D01*
X19412683Y-43832037D01*
X19209800Y-43748000D01*
X18990200Y-43748000D01*
X18787317Y-43832037D01*
X18632037Y-43987317D01*
X18548000Y-44190200D01*
X15758998Y-44190200D01*
X15812683Y-44167963D01*
X15967963Y-44012683D01*
X16052000Y-43809800D01*
X16052000Y-43590200D01*
X15967963Y-43387317D01*
X15812683Y-43232037D01*
X15609800Y-43148000D01*
X15390200Y-43148000D01*
X15187317Y-43232037D01*
X15032037Y-43387317D01*
X14948000Y-43590200D01*
X5736150Y-43590200D01*
X5493362Y-43347412D01*
X5040910Y-43160000D01*
X5493362Y-42972588D01*
X5775750Y-42690200D01*
X9648000Y-42690200D01*
X9648000Y-42909800D01*
X9732037Y-43112683D01*
X9887317Y-43267963D01*
X10090200Y-43352000D01*
X10309800Y-43352000D01*
X10512683Y-43267963D01*
X10667963Y-43112683D01*
X10752000Y-42909800D01*
X10752000Y-42690200D01*
X10667963Y-42487317D01*
X10512683Y-42332037D01*
X10309800Y-42248000D01*
X10090200Y-42248000D01*
X9887317Y-42332037D01*
X9732037Y-42487317D01*
X9648000Y-42690200D01*
X5775750Y-42690200D01*
X5852588Y-42613362D01*
X6047000Y-42144011D01*
X6047000Y-41890200D01*
X45148000Y-41890200D01*
X45148000Y-42109800D01*
X45232037Y-42312683D01*
X45387317Y-42467963D01*
X45590200Y-42552000D01*
X45809800Y-42552000D01*
X46012683Y-42467963D01*
X46167963Y-42312683D01*
X46252000Y-42109800D01*
X46252000Y-41890200D01*
X46167963Y-41687317D01*
X46012683Y-41532037D01*
X45809800Y-41448000D01*
X45590200Y-41448000D01*
X45387317Y-41532037D01*
X45232037Y-41687317D01*
X45148000Y-41890200D01*
X6047000Y-41890200D01*
X6047000Y-41635989D01*
X5852588Y-41166638D01*
X5493362Y-40807412D01*
X5040910Y-40620000D01*
X5493362Y-40432588D01*
X5852588Y-40073362D01*
X6047000Y-39604011D01*
X6047000Y-39452700D01*
X46248000Y-39452700D01*
X46248000Y-39672300D01*
X46332037Y-39875183D01*
X46356854Y-39900000D01*
X46332037Y-39924817D01*
X46248000Y-40127700D01*
X46248000Y-40347300D01*
X46332037Y-40550183D01*
X46487317Y-40705463D01*
X46690200Y-40789500D01*
X46909800Y-40789500D01*
X47112683Y-40705463D01*
X47267963Y-40550183D01*
X47352000Y-40347300D01*
X47352000Y-40127700D01*
X47267963Y-39924817D01*
X47243146Y-39900000D01*
X47267963Y-39875183D01*
X47352000Y-39672300D01*
X47352000Y-39452700D01*
X47267963Y-39249817D01*
X47112683Y-39094537D01*
X46909800Y-39010500D01*
X46690200Y-39010500D01*
X46487317Y-39094537D01*
X46332037Y-39249817D01*
X46248000Y-39452700D01*
X6047000Y-39452700D01*
X6047000Y-39095989D01*
X5878917Y-38690200D01*
X22348000Y-38690200D01*
X22348000Y-38909800D01*
X22432037Y-39112683D01*
X22587317Y-39267963D01*
X22790200Y-39352000D01*
X23009800Y-39352000D01*
X23212683Y-39267963D01*
X23367963Y-39112683D01*
X23452000Y-38909800D01*
X23452000Y-38690200D01*
X23367963Y-38487317D01*
X23270846Y-38390200D01*
X47048000Y-38390200D01*
X47048000Y-38609800D01*
X47132037Y-38812683D01*
X47287317Y-38967963D01*
X47490200Y-39052000D01*
X47709800Y-39052000D01*
X47912683Y-38967963D01*
X48067963Y-38812683D01*
X48152000Y-38609800D01*
X48152000Y-38390200D01*
X48067963Y-38187317D01*
X47912683Y-38032037D01*
X47709800Y-37948000D01*
X47490200Y-37948000D01*
X47287317Y-38032037D01*
X47132037Y-38187317D01*
X47048000Y-38390200D01*
X23270846Y-38390200D01*
X23212683Y-38332037D01*
X23009800Y-38248000D01*
X22790200Y-38248000D01*
X22587317Y-38332037D01*
X22432037Y-38487317D01*
X22348000Y-38690200D01*
X5878917Y-38690200D01*
X5852588Y-38626638D01*
X5493362Y-38267412D01*
X5040910Y-38080000D01*
X5493362Y-37892588D01*
X5852588Y-37533362D01*
X5870466Y-37490200D01*
X22448000Y-37490200D01*
X22448000Y-37709800D01*
X22532037Y-37912683D01*
X22687317Y-38067963D01*
X22890200Y-38152000D01*
X23109800Y-38152000D01*
X23312683Y-38067963D01*
X23467963Y-37912683D01*
X23552000Y-37709800D01*
X23552000Y-37490200D01*
X23467963Y-37287317D01*
X23312683Y-37132037D01*
X23109800Y-37048000D01*
X22890200Y-37048000D01*
X22687317Y-37132037D01*
X22532037Y-37287317D01*
X22448000Y-37490200D01*
X5870466Y-37490200D01*
X6047000Y-37064011D01*
X6047000Y-36555989D01*
X5852588Y-36086638D01*
X5493362Y-35727412D01*
X5162104Y-35590200D01*
X10548000Y-35590200D01*
X10548000Y-35809800D01*
X10632037Y-36012683D01*
X10787317Y-36167963D01*
X10990200Y-36252000D01*
X11209800Y-36252000D01*
X11412683Y-36167963D01*
X11567963Y-36012683D01*
X11652000Y-35809800D01*
X11652000Y-35751551D01*
X22509351Y-35751551D01*
X22509351Y-35971151D01*
X22593388Y-36174034D01*
X22748668Y-36329314D01*
X22951551Y-36413351D01*
X22986649Y-36413351D01*
X22986649Y-36448449D01*
X23070686Y-36651332D01*
X23225966Y-36806612D01*
X23428849Y-36890649D01*
X23648449Y-36890649D01*
X23851332Y-36806612D01*
X23867744Y-36790200D01*
X32248000Y-36790200D01*
X32248000Y-37009800D01*
X32332037Y-37212683D01*
X32469354Y-37350000D01*
X32332037Y-37487317D01*
X32248000Y-37690200D01*
X32248000Y-37909800D01*
X32332037Y-38112683D01*
X32487317Y-38267963D01*
X32690200Y-38352000D01*
X32909800Y-38352000D01*
X33112683Y-38267963D01*
X33267963Y-38112683D01*
X33352000Y-37909800D01*
X33352000Y-37690200D01*
X33267963Y-37487317D01*
X33130646Y-37350000D01*
X33267963Y-37212683D01*
X33352000Y-37009800D01*
X33352000Y-36790200D01*
X33267963Y-36587317D01*
X33112683Y-36432037D01*
X32909800Y-36348000D01*
X32690200Y-36348000D01*
X32487317Y-36432037D01*
X32332037Y-36587317D01*
X32248000Y-36790200D01*
X23867744Y-36790200D01*
X24006612Y-36651332D01*
X24090649Y-36448449D01*
X24090649Y-36228849D01*
X24006612Y-36025966D01*
X23851332Y-35870686D01*
X23648449Y-35786649D01*
X23613351Y-35786649D01*
X23613351Y-35751551D01*
X23529314Y-35548668D01*
X23374034Y-35393388D01*
X23171151Y-35309351D01*
X22951551Y-35309351D01*
X22748668Y-35393388D01*
X22593388Y-35548668D01*
X22509351Y-35751551D01*
X11652000Y-35751551D01*
X11652000Y-35590200D01*
X11567963Y-35387317D01*
X11412683Y-35232037D01*
X11209800Y-35148000D01*
X10990200Y-35148000D01*
X10787317Y-35232037D01*
X10632037Y-35387317D01*
X10548000Y-35590200D01*
X5162104Y-35590200D01*
X5040910Y-35540000D01*
X5493362Y-35352588D01*
X5852588Y-34993362D01*
X5936740Y-34790200D01*
X36207637Y-34790200D01*
X36207637Y-35009800D01*
X36291674Y-35212683D01*
X36446954Y-35367963D01*
X36513697Y-35395609D01*
X36371402Y-35537904D01*
X36287365Y-35740787D01*
X36287365Y-35960387D01*
X36371402Y-36163270D01*
X36526682Y-36318550D01*
X36612034Y-36353904D01*
X36610019Y-36354739D01*
X36454739Y-36510019D01*
X36370702Y-36712902D01*
X36370702Y-36932502D01*
X36454739Y-37135385D01*
X36610019Y-37290665D01*
X36812902Y-37374702D01*
X36848000Y-37374702D01*
X36848000Y-37409800D01*
X36932037Y-37612683D01*
X37087317Y-37767963D01*
X37290200Y-37852000D01*
X37509800Y-37852000D01*
X37712683Y-37767963D01*
X37867963Y-37612683D01*
X37952000Y-37409800D01*
X37952000Y-37190200D01*
X37867963Y-36987317D01*
X37712683Y-36832037D01*
X37588887Y-36780759D01*
X37675306Y-36744963D01*
X37830586Y-36589683D01*
X37914623Y-36386800D01*
X37914623Y-36167200D01*
X37830586Y-35964317D01*
X37675306Y-35809037D01*
X37523703Y-35746241D01*
X37712683Y-35667963D01*
X37867963Y-35512683D01*
X37952000Y-35309800D01*
X37952000Y-35090200D01*
X37867963Y-34887317D01*
X37712683Y-34732037D01*
X37635339Y-34700000D01*
X37712683Y-34667963D01*
X37867963Y-34512683D01*
X37952000Y-34309800D01*
X37952000Y-34090200D01*
X37908651Y-33985545D01*
X44932655Y-33985545D01*
X44932655Y-34205145D01*
X45016692Y-34408028D01*
X45171972Y-34563308D01*
X45231421Y-34587933D01*
X45092037Y-34727317D01*
X45008000Y-34930200D01*
X45008000Y-35149800D01*
X45092037Y-35352683D01*
X45247317Y-35507963D01*
X45288448Y-35525000D01*
X45247317Y-35542037D01*
X45092037Y-35697317D01*
X45008000Y-35900200D01*
X45008000Y-36119800D01*
X45092037Y-36322683D01*
X45247317Y-36477963D01*
X45332590Y-36513284D01*
X45287317Y-36532037D01*
X45132037Y-36687317D01*
X45048000Y-36890200D01*
X45048000Y-37109800D01*
X45132037Y-37312683D01*
X45287317Y-37467963D01*
X45490200Y-37552000D01*
X45709800Y-37552000D01*
X45912683Y-37467963D01*
X46067963Y-37312683D01*
X46152000Y-37109800D01*
X46152000Y-36890200D01*
X46067963Y-36687317D01*
X45912683Y-36532037D01*
X45827410Y-36496716D01*
X45872683Y-36477963D01*
X46027963Y-36322683D01*
X46112000Y-36119800D01*
X46112000Y-35900200D01*
X46027963Y-35697317D01*
X45872683Y-35542037D01*
X45831552Y-35525000D01*
X45872683Y-35507963D01*
X46027963Y-35352683D01*
X46112000Y-35149800D01*
X46112000Y-34930200D01*
X46027963Y-34727317D01*
X45872683Y-34572037D01*
X45813234Y-34547412D01*
X45952618Y-34408028D01*
X46036655Y-34205145D01*
X46036655Y-33985545D01*
X45952618Y-33782662D01*
X45797338Y-33627382D01*
X45594455Y-33543345D01*
X45374855Y-33543345D01*
X45171972Y-33627382D01*
X45016692Y-33782662D01*
X44932655Y-33985545D01*
X37908651Y-33985545D01*
X37867963Y-33887317D01*
X37712683Y-33732037D01*
X37509800Y-33648000D01*
X37290200Y-33648000D01*
X37087317Y-33732037D01*
X36932037Y-33887317D01*
X36848000Y-34090200D01*
X36848000Y-34309800D01*
X36863823Y-34348000D01*
X36649837Y-34348000D01*
X36446954Y-34432037D01*
X36291674Y-34587317D01*
X36207637Y-34790200D01*
X5936740Y-34790200D01*
X6047000Y-34524011D01*
X6047000Y-34015989D01*
X5852588Y-33546638D01*
X5493362Y-33187412D01*
X5040910Y-33000000D01*
X5493362Y-32812588D01*
X5777101Y-32528849D01*
X22219351Y-32528849D01*
X22219351Y-32748449D01*
X22303388Y-32951332D01*
X22458668Y-33106612D01*
X22661551Y-33190649D01*
X22881151Y-33190649D01*
X23084034Y-33106612D01*
X23239314Y-32951332D01*
X23323351Y-32748449D01*
X23323351Y-32713351D01*
X23358449Y-32713351D01*
X23561332Y-32629314D01*
X23716612Y-32474034D01*
X23800649Y-32271151D01*
X23800649Y-32051551D01*
X23716612Y-31848668D01*
X23658144Y-31790200D01*
X26348000Y-31790200D01*
X26348000Y-32009800D01*
X26432037Y-32212683D01*
X26587317Y-32367963D01*
X26790200Y-32452000D01*
X27009800Y-32452000D01*
X27212683Y-32367963D01*
X27367963Y-32212683D01*
X27426421Y-32071551D01*
X31499351Y-32071551D01*
X31499351Y-32291151D01*
X31583388Y-32494034D01*
X31738668Y-32649314D01*
X31941551Y-32733351D01*
X31976649Y-32733351D01*
X31976649Y-32768449D01*
X32060686Y-32971332D01*
X32215966Y-33126612D01*
X32418849Y-33210649D01*
X32638449Y-33210649D01*
X32841332Y-33126612D01*
X32996612Y-32971332D01*
X33080649Y-32768449D01*
X33080649Y-32640200D01*
X46948000Y-32640200D01*
X46948000Y-32859800D01*
X47032037Y-33062683D01*
X47187317Y-33217963D01*
X47390200Y-33302000D01*
X47609800Y-33302000D01*
X47812683Y-33217963D01*
X47967963Y-33062683D01*
X48052000Y-32859800D01*
X48052000Y-32640200D01*
X49948000Y-32640200D01*
X49948000Y-32859800D01*
X50032037Y-33062683D01*
X50187317Y-33217963D01*
X50390200Y-33302000D01*
X50609800Y-33302000D01*
X50812683Y-33217963D01*
X50967963Y-33062683D01*
X51052000Y-32859800D01*
X51052000Y-32640200D01*
X50967963Y-32437317D01*
X50812683Y-32282037D01*
X50609800Y-32198000D01*
X50390200Y-32198000D01*
X50187317Y-32282037D01*
X50032037Y-32437317D01*
X49948000Y-32640200D01*
X48052000Y-32640200D01*
X47967963Y-32437317D01*
X47812683Y-32282037D01*
X47609800Y-32198000D01*
X47390200Y-32198000D01*
X47187317Y-32282037D01*
X47032037Y-32437317D01*
X46948000Y-32640200D01*
X33080649Y-32640200D01*
X33080649Y-32548849D01*
X32996612Y-32345966D01*
X32841332Y-32190686D01*
X32638449Y-32106649D01*
X32603351Y-32106649D01*
X32603351Y-32071551D01*
X32519314Y-31868668D01*
X32364034Y-31713388D01*
X32161151Y-31629351D01*
X31941551Y-31629351D01*
X31738668Y-31713388D01*
X31583388Y-31868668D01*
X31499351Y-32071551D01*
X27426421Y-32071551D01*
X27452000Y-32009800D01*
X27452000Y-31790200D01*
X27367963Y-31587317D01*
X27212683Y-31432037D01*
X27009800Y-31348000D01*
X26790200Y-31348000D01*
X26587317Y-31432037D01*
X26432037Y-31587317D01*
X26348000Y-31790200D01*
X23658144Y-31790200D01*
X23561332Y-31693388D01*
X23358449Y-31609351D01*
X23138849Y-31609351D01*
X22935966Y-31693388D01*
X22780686Y-31848668D01*
X22696649Y-32051551D01*
X22696649Y-32086649D01*
X22661551Y-32086649D01*
X22458668Y-32170686D01*
X22303388Y-32325966D01*
X22219351Y-32528849D01*
X5777101Y-32528849D01*
X5852588Y-32453362D01*
X6047000Y-31984011D01*
X6047000Y-31475989D01*
X5852588Y-31006638D01*
X5493362Y-30647412D01*
X5040910Y-30460000D01*
X5493362Y-30272588D01*
X5852588Y-29913362D01*
X6047000Y-29444011D01*
X6047000Y-28935989D01*
X5924480Y-28640200D01*
X14948000Y-28640200D01*
X14948000Y-28859800D01*
X15032037Y-29062683D01*
X15187317Y-29217963D01*
X15264661Y-29250000D01*
X15187317Y-29282037D01*
X15032037Y-29437317D01*
X14948000Y-29640200D01*
X14948000Y-29859800D01*
X15032037Y-30062683D01*
X15187317Y-30217963D01*
X15264661Y-30250000D01*
X15187317Y-30282037D01*
X15032037Y-30437317D01*
X14948000Y-30640200D01*
X14948000Y-30859800D01*
X15032037Y-31062683D01*
X15187317Y-31217963D01*
X15390200Y-31302000D01*
X15609800Y-31302000D01*
X15812683Y-31217963D01*
X15840446Y-31190200D01*
X37148000Y-31190200D01*
X37148000Y-31409800D01*
X37232037Y-31612683D01*
X37387317Y-31767963D01*
X37590200Y-31852000D01*
X37809800Y-31852000D01*
X38012683Y-31767963D01*
X38167963Y-31612683D01*
X38252000Y-31409800D01*
X38252000Y-31190200D01*
X38167963Y-30987317D01*
X38012683Y-30832037D01*
X37911680Y-30790200D01*
X46548000Y-30790200D01*
X46548000Y-31009800D01*
X46632037Y-31212683D01*
X46787317Y-31367963D01*
X46990200Y-31452000D01*
X47209800Y-31452000D01*
X47412683Y-31367963D01*
X47567963Y-31212683D01*
X47652000Y-31009800D01*
X47652000Y-30790200D01*
X47567963Y-30587317D01*
X47470846Y-30490200D01*
X48448000Y-30490200D01*
X48448000Y-30709800D01*
X48532037Y-30912683D01*
X48687317Y-31067963D01*
X48890200Y-31152000D01*
X49109800Y-31152000D01*
X49312683Y-31067963D01*
X49467963Y-30912683D01*
X49552000Y-30709800D01*
X49552000Y-30490200D01*
X49467963Y-30287317D01*
X49312683Y-30132037D01*
X49109800Y-30048000D01*
X48890200Y-30048000D01*
X48687317Y-30132037D01*
X48532037Y-30287317D01*
X48448000Y-30490200D01*
X47470846Y-30490200D01*
X47412683Y-30432037D01*
X47209800Y-30348000D01*
X46990200Y-30348000D01*
X46787317Y-30432037D01*
X46632037Y-30587317D01*
X46548000Y-30790200D01*
X37911680Y-30790200D01*
X37809800Y-30748000D01*
X37590200Y-30748000D01*
X37387317Y-30832037D01*
X37232037Y-30987317D01*
X37148000Y-31190200D01*
X15840446Y-31190200D01*
X15967963Y-31062683D01*
X16052000Y-30859800D01*
X16052000Y-30802000D01*
X16109800Y-30802000D01*
X16312683Y-30717963D01*
X16467963Y-30562683D01*
X16552000Y-30359800D01*
X16552000Y-30140200D01*
X16467963Y-29937317D01*
X16312683Y-29782037D01*
X16235339Y-29750000D01*
X16312683Y-29717963D01*
X16467963Y-29562683D01*
X16552000Y-29359800D01*
X16552000Y-29140200D01*
X16467963Y-28937317D01*
X16312683Y-28782037D01*
X16235339Y-28750000D01*
X16312683Y-28717963D01*
X16467963Y-28562683D01*
X16552000Y-28359800D01*
X16552000Y-28211551D01*
X22249351Y-28211551D01*
X22249351Y-28431151D01*
X22333388Y-28634034D01*
X22488668Y-28789314D01*
X22691551Y-28873351D01*
X22726649Y-28873351D01*
X22726649Y-28908449D01*
X22810686Y-29111332D01*
X22965966Y-29266612D01*
X22996721Y-29279351D01*
X22851551Y-29279351D01*
X22648668Y-29363388D01*
X22493388Y-29518668D01*
X22409351Y-29721551D01*
X22409351Y-29941151D01*
X22493388Y-30144034D01*
X22648668Y-30299314D01*
X22851551Y-30383351D01*
X22886649Y-30383351D01*
X22886649Y-30418449D01*
X22970686Y-30621332D01*
X23125966Y-30776612D01*
X23328849Y-30860649D01*
X23548449Y-30860649D01*
X23751332Y-30776612D01*
X23906612Y-30621332D01*
X23990649Y-30418449D01*
X23990649Y-30198849D01*
X23906612Y-29995966D01*
X23759495Y-29848849D01*
X31149351Y-29848849D01*
X31149351Y-30068449D01*
X31233388Y-30271332D01*
X31388668Y-30426612D01*
X31591551Y-30510649D01*
X31811151Y-30510649D01*
X32014034Y-30426612D01*
X32169314Y-30271332D01*
X32253351Y-30068449D01*
X32253351Y-30033351D01*
X32288449Y-30033351D01*
X32491332Y-29949314D01*
X32561797Y-29878849D01*
X36059351Y-29878849D01*
X36059351Y-30098449D01*
X36143388Y-30301332D01*
X36298668Y-30456612D01*
X36501551Y-30540649D01*
X36721151Y-30540649D01*
X36924034Y-30456612D01*
X37079314Y-30301332D01*
X37163351Y-30098449D01*
X37163351Y-30063351D01*
X37198449Y-30063351D01*
X37401332Y-29979314D01*
X37556612Y-29824034D01*
X37570626Y-29790200D01*
X41848000Y-29790200D01*
X41848000Y-30009800D01*
X41932037Y-30212683D01*
X42087317Y-30367963D01*
X42290200Y-30452000D01*
X42509800Y-30452000D01*
X42712683Y-30367963D01*
X42867963Y-30212683D01*
X42952000Y-30009800D01*
X42952000Y-29790200D01*
X42867963Y-29587317D01*
X42712683Y-29432037D01*
X42509800Y-29348000D01*
X42290200Y-29348000D01*
X42087317Y-29432037D01*
X41932037Y-29587317D01*
X41848000Y-29790200D01*
X37570626Y-29790200D01*
X37640649Y-29621151D01*
X37640649Y-29401551D01*
X37556612Y-29198668D01*
X37401332Y-29043388D01*
X37198449Y-28959351D01*
X36978849Y-28959351D01*
X36775966Y-29043388D01*
X36620686Y-29198668D01*
X36536649Y-29401551D01*
X36536649Y-29436649D01*
X36501551Y-29436649D01*
X36298668Y-29520686D01*
X36143388Y-29675966D01*
X36059351Y-29878849D01*
X32561797Y-29878849D01*
X32646612Y-29794034D01*
X32730649Y-29591151D01*
X32730649Y-29371551D01*
X32646612Y-29168668D01*
X32491332Y-29013388D01*
X32288449Y-28929351D01*
X32068849Y-28929351D01*
X31865966Y-29013388D01*
X31710686Y-29168668D01*
X31626649Y-29371551D01*
X31626649Y-29406649D01*
X31591551Y-29406649D01*
X31388668Y-29490686D01*
X31233388Y-29645966D01*
X31149351Y-29848849D01*
X23759495Y-29848849D01*
X23751332Y-29840686D01*
X23548449Y-29756649D01*
X23513351Y-29756649D01*
X23513351Y-29721551D01*
X23429314Y-29518668D01*
X23274034Y-29363388D01*
X23243279Y-29350649D01*
X23388449Y-29350649D01*
X23591332Y-29266612D01*
X23746612Y-29111332D01*
X23830649Y-28908449D01*
X23830649Y-28688849D01*
X23746612Y-28485966D01*
X23591332Y-28330686D01*
X23388449Y-28246649D01*
X23353351Y-28246649D01*
X23353351Y-28211551D01*
X23269314Y-28008668D01*
X23114034Y-27853388D01*
X22911151Y-27769351D01*
X22691551Y-27769351D01*
X22488668Y-27853388D01*
X22333388Y-28008668D01*
X22249351Y-28211551D01*
X16552000Y-28211551D01*
X16552000Y-28140200D01*
X16467963Y-27937317D01*
X16312683Y-27782037D01*
X16109800Y-27698000D01*
X15890200Y-27698000D01*
X15687317Y-27782037D01*
X15532037Y-27937317D01*
X15448000Y-28140200D01*
X15448000Y-28198000D01*
X15390200Y-28198000D01*
X15187317Y-28282037D01*
X15032037Y-28437317D01*
X14948000Y-28640200D01*
X5924480Y-28640200D01*
X5852588Y-28466638D01*
X5510672Y-28124722D01*
X5644264Y-28069387D01*
X5742927Y-27802532D01*
X4770000Y-26829605D01*
X3797073Y-27802532D01*
X3895736Y-28069387D01*
X4033487Y-28120563D01*
X3687412Y-28466638D01*
X3500000Y-28919090D01*
X3312588Y-28466638D01*
X2953362Y-28107412D01*
X2500910Y-27920000D01*
X2953362Y-27732588D01*
X3295278Y-27390672D01*
X3350613Y-27524264D01*
X3617468Y-27622927D01*
X4590395Y-26650000D01*
X4949605Y-26650000D01*
X5922532Y-27622927D01*
X6189387Y-27524264D01*
X6415908Y-26914539D01*
X6400207Y-26490200D01*
X10548000Y-26490200D01*
X10548000Y-26709800D01*
X10632037Y-26912683D01*
X10787317Y-27067963D01*
X10990200Y-27152000D01*
X11209800Y-27152000D01*
X11412683Y-27067963D01*
X11488697Y-26991949D01*
X11448000Y-27090200D01*
X11448000Y-27309800D01*
X11532037Y-27512683D01*
X11687317Y-27667963D01*
X11890200Y-27752000D01*
X12109800Y-27752000D01*
X12312683Y-27667963D01*
X12467963Y-27512683D01*
X12552000Y-27309800D01*
X12552000Y-27290200D01*
X23448000Y-27290200D01*
X23448000Y-27509800D01*
X23532037Y-27712683D01*
X23687317Y-27867963D01*
X23890200Y-27952000D01*
X24109800Y-27952000D01*
X24312683Y-27867963D01*
X24467963Y-27712683D01*
X24520711Y-27585339D01*
X24532037Y-27612683D01*
X24687317Y-27767963D01*
X24890200Y-27852000D01*
X25109800Y-27852000D01*
X25312683Y-27767963D01*
X25390446Y-27690200D01*
X26048000Y-27690200D01*
X26048000Y-27909800D01*
X26132037Y-28112683D01*
X26287317Y-28267963D01*
X26490200Y-28352000D01*
X26709800Y-28352000D01*
X26912683Y-28267963D01*
X26990446Y-28190200D01*
X37148000Y-28190200D01*
X37148000Y-28409800D01*
X37232037Y-28612683D01*
X37387317Y-28767963D01*
X37590200Y-28852000D01*
X37809800Y-28852000D01*
X38012683Y-28767963D01*
X38167963Y-28612683D01*
X38177275Y-28590200D01*
X46548000Y-28590200D01*
X46548000Y-28809800D01*
X46632037Y-29012683D01*
X46787317Y-29167963D01*
X46990200Y-29252000D01*
X47209800Y-29252000D01*
X47412683Y-29167963D01*
X47567963Y-29012683D01*
X47652000Y-28809800D01*
X47652000Y-28590200D01*
X47567963Y-28387317D01*
X47412683Y-28232037D01*
X47209800Y-28148000D01*
X46990200Y-28148000D01*
X46787317Y-28232037D01*
X46632037Y-28387317D01*
X46548000Y-28590200D01*
X38177275Y-28590200D01*
X38252000Y-28409800D01*
X38252000Y-28190200D01*
X38167963Y-27987317D01*
X38012683Y-27832037D01*
X37809800Y-27748000D01*
X37590200Y-27748000D01*
X37387317Y-27832037D01*
X37232037Y-27987317D01*
X37148000Y-28190200D01*
X26990446Y-28190200D01*
X27067963Y-28112683D01*
X27152000Y-27909800D01*
X27152000Y-27690200D01*
X27067963Y-27487317D01*
X26912683Y-27332037D01*
X26709800Y-27248000D01*
X26490200Y-27248000D01*
X26287317Y-27332037D01*
X26132037Y-27487317D01*
X26048000Y-27690200D01*
X25390446Y-27690200D01*
X25467963Y-27612683D01*
X25552000Y-27409800D01*
X25552000Y-27190200D01*
X25467963Y-26987317D01*
X25312683Y-26832037D01*
X25109800Y-26748000D01*
X24890200Y-26748000D01*
X24687317Y-26832037D01*
X24532037Y-26987317D01*
X24479289Y-27114661D01*
X24467963Y-27087317D01*
X24312683Y-26932037D01*
X24109800Y-26848000D01*
X23890200Y-26848000D01*
X23687317Y-26932037D01*
X23532037Y-27087317D01*
X23448000Y-27290200D01*
X12552000Y-27290200D01*
X12552000Y-27090200D01*
X12467963Y-26887317D01*
X12312683Y-26732037D01*
X12109800Y-26648000D01*
X11890200Y-26648000D01*
X11687317Y-26732037D01*
X11611303Y-26808051D01*
X11652000Y-26709800D01*
X11652000Y-26490200D01*
X13048000Y-26490200D01*
X13048000Y-26709800D01*
X13132037Y-26912683D01*
X13287317Y-27067963D01*
X13490200Y-27152000D01*
X13709800Y-27152000D01*
X13912683Y-27067963D01*
X14067963Y-26912683D01*
X14152000Y-26709800D01*
X14152000Y-26490200D01*
X14067963Y-26287317D01*
X13970846Y-26190200D01*
X19048000Y-26190200D01*
X19048000Y-26409800D01*
X19132037Y-26612683D01*
X19287317Y-26767963D01*
X19490200Y-26852000D01*
X19709800Y-26852000D01*
X19912683Y-26767963D01*
X19990446Y-26690200D01*
X27548000Y-26690200D01*
X27548000Y-26909800D01*
X27632037Y-27112683D01*
X27787317Y-27267963D01*
X27990200Y-27352000D01*
X28209800Y-27352000D01*
X28412683Y-27267963D01*
X28567963Y-27112683D01*
X28652000Y-26909800D01*
X28652000Y-26690200D01*
X28569158Y-26490200D01*
X41848000Y-26490200D01*
X41848000Y-26709800D01*
X41932037Y-26912683D01*
X42087317Y-27067963D01*
X42290200Y-27152000D01*
X42509800Y-27152000D01*
X42712683Y-27067963D01*
X42785836Y-26994810D01*
X46645079Y-26994810D01*
X46645079Y-27214410D01*
X46729116Y-27417293D01*
X46884396Y-27572573D01*
X47087279Y-27656610D01*
X47306879Y-27656610D01*
X47509762Y-27572573D01*
X47665042Y-27417293D01*
X47749079Y-27214410D01*
X47749079Y-26994810D01*
X47665042Y-26791927D01*
X47509762Y-26636647D01*
X47306879Y-26552610D01*
X47087279Y-26552610D01*
X46884396Y-26636647D01*
X46729116Y-26791927D01*
X46645079Y-26994810D01*
X42785836Y-26994810D01*
X42867963Y-26912683D01*
X42952000Y-26709800D01*
X42952000Y-26490200D01*
X42867963Y-26287317D01*
X42770846Y-26190200D01*
X43548000Y-26190200D01*
X43548000Y-26409800D01*
X43632037Y-26612683D01*
X43787317Y-26767963D01*
X43990200Y-26852000D01*
X44209800Y-26852000D01*
X44412683Y-26767963D01*
X44567963Y-26612683D01*
X44652000Y-26409800D01*
X44652000Y-26190200D01*
X44567963Y-25987317D01*
X44412683Y-25832037D01*
X44209800Y-25748000D01*
X43990200Y-25748000D01*
X43787317Y-25832037D01*
X43632037Y-25987317D01*
X43548000Y-26190200D01*
X42770846Y-26190200D01*
X42712683Y-26132037D01*
X42509800Y-26048000D01*
X42290200Y-26048000D01*
X42087317Y-26132037D01*
X41932037Y-26287317D01*
X41848000Y-26490200D01*
X28569158Y-26490200D01*
X28567963Y-26487317D01*
X28412683Y-26332037D01*
X28209800Y-26248000D01*
X27990200Y-26248000D01*
X27787317Y-26332037D01*
X27632037Y-26487317D01*
X27548000Y-26690200D01*
X19990446Y-26690200D01*
X20067963Y-26612683D01*
X20152000Y-26409800D01*
X20152000Y-26190200D01*
X20067963Y-25987317D01*
X19912683Y-25832037D01*
X19709800Y-25748000D01*
X19490200Y-25748000D01*
X19287317Y-25832037D01*
X19132037Y-25987317D01*
X19048000Y-26190200D01*
X13970846Y-26190200D01*
X13912683Y-26132037D01*
X13709800Y-26048000D01*
X13490200Y-26048000D01*
X13287317Y-26132037D01*
X13132037Y-26287317D01*
X13048000Y-26490200D01*
X11652000Y-26490200D01*
X11567963Y-26287317D01*
X11412683Y-26132037D01*
X11209800Y-26048000D01*
X10990200Y-26048000D01*
X10787317Y-26132037D01*
X10632037Y-26287317D01*
X10548000Y-26490200D01*
X6400207Y-26490200D01*
X6391856Y-26264540D01*
X6189387Y-25775736D01*
X5922532Y-25677073D01*
X4949605Y-26650000D01*
X4590395Y-26650000D01*
X3617468Y-25677073D01*
X3350613Y-25775736D01*
X3299437Y-25913487D01*
X2953362Y-25567412D01*
X2500910Y-25380000D01*
X2953362Y-25192588D01*
X3312588Y-24833362D01*
X3500000Y-24380910D01*
X3687412Y-24833362D01*
X4029328Y-25175278D01*
X3895736Y-25230613D01*
X3797073Y-25497468D01*
X4770000Y-26470395D01*
X5742927Y-25497468D01*
X5644264Y-25230613D01*
X5506513Y-25179437D01*
X5852588Y-24833362D01*
X5870466Y-24790200D01*
X33048000Y-24790200D01*
X33048000Y-25009800D01*
X33132037Y-25212683D01*
X33287317Y-25367963D01*
X33490200Y-25452000D01*
X33709800Y-25452000D01*
X33912683Y-25367963D01*
X34067963Y-25212683D01*
X34152000Y-25009800D01*
X34152000Y-24970200D01*
X42398000Y-24970200D01*
X42398000Y-25189800D01*
X42482037Y-25392683D01*
X42637317Y-25547963D01*
X42840200Y-25632000D01*
X43059800Y-25632000D01*
X43210714Y-25569489D01*
X43212037Y-25572683D01*
X43367317Y-25727963D01*
X43570200Y-25812000D01*
X43789800Y-25812000D01*
X43992683Y-25727963D01*
X44090000Y-25630646D01*
X44187317Y-25727963D01*
X44390200Y-25812000D01*
X44609800Y-25812000D01*
X44812683Y-25727963D01*
X44950000Y-25590646D01*
X45087317Y-25727963D01*
X45290200Y-25812000D01*
X45509800Y-25812000D01*
X45712683Y-25727963D01*
X45748000Y-25692646D01*
X45748000Y-25809800D01*
X45782331Y-25892681D01*
X45687317Y-25932037D01*
X45532037Y-26087317D01*
X45448000Y-26290200D01*
X45448000Y-26509800D01*
X45532037Y-26712683D01*
X45687317Y-26867963D01*
X45890200Y-26952000D01*
X46109800Y-26952000D01*
X46312683Y-26867963D01*
X46467963Y-26712683D01*
X46552000Y-26509800D01*
X46552000Y-26290200D01*
X46517669Y-26207319D01*
X46612683Y-26167963D01*
X46683981Y-26096665D01*
X46732037Y-26212683D01*
X46887317Y-26367963D01*
X47090200Y-26452000D01*
X47309800Y-26452000D01*
X47512683Y-26367963D01*
X47667963Y-26212683D01*
X47752000Y-26009800D01*
X47752000Y-25790200D01*
X47667963Y-25587317D01*
X47512683Y-25432037D01*
X47309800Y-25348000D01*
X47090200Y-25348000D01*
X46887317Y-25432037D01*
X46816019Y-25503335D01*
X46767963Y-25387317D01*
X46612683Y-25232037D01*
X46409800Y-25148000D01*
X46190200Y-25148000D01*
X45987317Y-25232037D01*
X45952000Y-25267354D01*
X45952000Y-25150200D01*
X45867963Y-24947317D01*
X45712683Y-24792037D01*
X45509800Y-24708000D01*
X45290200Y-24708000D01*
X45087317Y-24792037D01*
X44950000Y-24929354D01*
X44812683Y-24792037D01*
X44609800Y-24708000D01*
X44390200Y-24708000D01*
X44187317Y-24792037D01*
X44090000Y-24889354D01*
X43992683Y-24792037D01*
X43789800Y-24708000D01*
X43570200Y-24708000D01*
X43419286Y-24770511D01*
X43417963Y-24767317D01*
X43262683Y-24612037D01*
X43059800Y-24528000D01*
X42840200Y-24528000D01*
X42637317Y-24612037D01*
X42482037Y-24767317D01*
X42398000Y-24970200D01*
X34152000Y-24970200D01*
X34152000Y-24790200D01*
X34067963Y-24587317D01*
X33912683Y-24432037D01*
X33709800Y-24348000D01*
X33490200Y-24348000D01*
X33287317Y-24432037D01*
X33132037Y-24587317D01*
X33048000Y-24790200D01*
X5870466Y-24790200D01*
X6047000Y-24364011D01*
X6047000Y-23990200D01*
X41748000Y-23990200D01*
X41748000Y-24209800D01*
X41832037Y-24412683D01*
X41987317Y-24567963D01*
X42190200Y-24652000D01*
X42409800Y-24652000D01*
X42612683Y-24567963D01*
X42767963Y-24412683D01*
X42852000Y-24209800D01*
X42852000Y-23990200D01*
X42767963Y-23787317D01*
X42612683Y-23632037D01*
X42409800Y-23548000D01*
X42190200Y-23548000D01*
X41987317Y-23632037D01*
X41832037Y-23787317D01*
X41748000Y-23990200D01*
X6047000Y-23990200D01*
X6047000Y-23855989D01*
X5852588Y-23386638D01*
X5756150Y-23290200D01*
X15748000Y-23290200D01*
X15748000Y-23509800D01*
X15832037Y-23712683D01*
X15987317Y-23867963D01*
X16190200Y-23952000D01*
X16409800Y-23952000D01*
X16612683Y-23867963D01*
X16767963Y-23712683D01*
X16852000Y-23509800D01*
X16852000Y-23419457D01*
X16932037Y-23612683D01*
X17087317Y-23767963D01*
X17290200Y-23852000D01*
X17509800Y-23852000D01*
X17712683Y-23767963D01*
X17867963Y-23612683D01*
X17952000Y-23409800D01*
X17952000Y-23190200D01*
X18048000Y-23190200D01*
X18048000Y-23409800D01*
X18132037Y-23612683D01*
X18287317Y-23767963D01*
X18490200Y-23852000D01*
X18709800Y-23852000D01*
X18912683Y-23767963D01*
X19067963Y-23612683D01*
X19152000Y-23409800D01*
X19152000Y-23190200D01*
X21448000Y-23190200D01*
X21448000Y-23409800D01*
X21532037Y-23612683D01*
X21687317Y-23767963D01*
X21890200Y-23852000D01*
X22109800Y-23852000D01*
X22312683Y-23767963D01*
X22467963Y-23612683D01*
X22552000Y-23409800D01*
X22552000Y-23190200D01*
X22510579Y-23090200D01*
X26748000Y-23090200D01*
X26748000Y-23309800D01*
X26832037Y-23512683D01*
X26987317Y-23667963D01*
X27190200Y-23752000D01*
X27409800Y-23752000D01*
X27612683Y-23667963D01*
X27767963Y-23512683D01*
X27852000Y-23309800D01*
X27852000Y-23090200D01*
X27767963Y-22887317D01*
X27612683Y-22732037D01*
X27409800Y-22648000D01*
X27190200Y-22648000D01*
X26987317Y-22732037D01*
X26832037Y-22887317D01*
X26748000Y-23090200D01*
X22510579Y-23090200D01*
X22467963Y-22987317D01*
X22312683Y-22832037D01*
X22109800Y-22748000D01*
X21890200Y-22748000D01*
X21687317Y-22832037D01*
X21532037Y-22987317D01*
X21448000Y-23190200D01*
X19152000Y-23190200D01*
X19067963Y-22987317D01*
X18912683Y-22832037D01*
X18709800Y-22748000D01*
X18490200Y-22748000D01*
X18287317Y-22832037D01*
X18132037Y-22987317D01*
X18048000Y-23190200D01*
X17952000Y-23190200D01*
X17867963Y-22987317D01*
X17712683Y-22832037D01*
X17509800Y-22748000D01*
X17290200Y-22748000D01*
X17087317Y-22832037D01*
X16932037Y-22987317D01*
X16848000Y-23190200D01*
X16848000Y-23280543D01*
X16767963Y-23087317D01*
X16612683Y-22932037D01*
X16409800Y-22848000D01*
X16190200Y-22848000D01*
X15987317Y-22932037D01*
X15832037Y-23087317D01*
X15748000Y-23290200D01*
X5756150Y-23290200D01*
X5493362Y-23027412D01*
X5040910Y-22840000D01*
X5493362Y-22652588D01*
X5852588Y-22293362D01*
X6047000Y-21824011D01*
X6047000Y-21690200D01*
X46548000Y-21690200D01*
X46548000Y-21909800D01*
X46632037Y-22112683D01*
X46787317Y-22267963D01*
X46990200Y-22352000D01*
X47209800Y-22352000D01*
X47412683Y-22267963D01*
X47567963Y-22112683D01*
X47652000Y-21909800D01*
X47652000Y-21690200D01*
X47567963Y-21487317D01*
X47412683Y-21332037D01*
X47209800Y-21248000D01*
X46990200Y-21248000D01*
X46787317Y-21332037D01*
X46632037Y-21487317D01*
X46548000Y-21690200D01*
X6047000Y-21690200D01*
X6047000Y-21315989D01*
X5870633Y-20890200D01*
X25698000Y-20890200D01*
X25698000Y-21109800D01*
X25782037Y-21312683D01*
X25937317Y-21467963D01*
X26140200Y-21552000D01*
X26359800Y-21552000D01*
X26562683Y-21467963D01*
X26717963Y-21312683D01*
X26802000Y-21109800D01*
X26802000Y-20890200D01*
X26717963Y-20687317D01*
X26562683Y-20532037D01*
X26359800Y-20448000D01*
X26140200Y-20448000D01*
X25937317Y-20532037D01*
X25782037Y-20687317D01*
X25698000Y-20890200D01*
X5870633Y-20890200D01*
X5852588Y-20846638D01*
X5493362Y-20487412D01*
X5258672Y-20390200D01*
X31448000Y-20390200D01*
X31448000Y-20609800D01*
X31532037Y-20812683D01*
X31687317Y-20967963D01*
X31890200Y-21052000D01*
X32109800Y-21052000D01*
X32312683Y-20967963D01*
X32467963Y-20812683D01*
X32552000Y-20609800D01*
X32552000Y-20390200D01*
X32467963Y-20187317D01*
X32312683Y-20032037D01*
X32109800Y-19948000D01*
X31890200Y-19948000D01*
X31687317Y-20032037D01*
X31532037Y-20187317D01*
X31448000Y-20390200D01*
X5258672Y-20390200D01*
X5040910Y-20300000D01*
X5493362Y-20112588D01*
X5745750Y-19860200D01*
X38030500Y-19860200D01*
X38030500Y-20079800D01*
X38114537Y-20282683D01*
X38269817Y-20437963D01*
X38472700Y-20522000D01*
X38692300Y-20522000D01*
X38895183Y-20437963D01*
X38920000Y-20413146D01*
X38944817Y-20437963D01*
X39147700Y-20522000D01*
X39367300Y-20522000D01*
X39570183Y-20437963D01*
X39725463Y-20282683D01*
X39809500Y-20079800D01*
X39809500Y-19860200D01*
X39751511Y-19720200D01*
X41130500Y-19720200D01*
X41130500Y-19939800D01*
X41214537Y-20142683D01*
X41369817Y-20297963D01*
X41572700Y-20382000D01*
X41792300Y-20382000D01*
X41995183Y-20297963D01*
X42020000Y-20273146D01*
X42044817Y-20297963D01*
X42247700Y-20382000D01*
X42467300Y-20382000D01*
X42670183Y-20297963D01*
X42793750Y-20174396D01*
X42887317Y-20267963D01*
X43090200Y-20352000D01*
X43309800Y-20352000D01*
X43512683Y-20267963D01*
X43667963Y-20112683D01*
X43734520Y-19952000D01*
X43909800Y-19952000D01*
X44112683Y-19867963D01*
X44267963Y-19712683D01*
X44352000Y-19509800D01*
X44352000Y-19390200D01*
X45248000Y-19390200D01*
X45248000Y-19609800D01*
X45332037Y-19812683D01*
X45487317Y-19967963D01*
X45690200Y-20052000D01*
X45863823Y-20052000D01*
X45848000Y-20090200D01*
X45848000Y-20309800D01*
X45932037Y-20512683D01*
X46087317Y-20667963D01*
X46290200Y-20752000D01*
X46509800Y-20752000D01*
X46712683Y-20667963D01*
X46867963Y-20512683D01*
X46952000Y-20309800D01*
X46952000Y-20090200D01*
X46867963Y-19887317D01*
X46712683Y-19732037D01*
X46509800Y-19648000D01*
X46336177Y-19648000D01*
X46352000Y-19609800D01*
X46352000Y-19390200D01*
X46267963Y-19187317D01*
X46112683Y-19032037D01*
X45909800Y-18948000D01*
X45690200Y-18948000D01*
X45487317Y-19032037D01*
X45332037Y-19187317D01*
X45248000Y-19390200D01*
X44352000Y-19390200D01*
X44352000Y-19290200D01*
X44267963Y-19087317D01*
X44112683Y-18932037D01*
X43909800Y-18848000D01*
X43690200Y-18848000D01*
X43487317Y-18932037D01*
X43332037Y-19087317D01*
X43265480Y-19248000D01*
X43090200Y-19248000D01*
X42887317Y-19332037D01*
X42763750Y-19455604D01*
X42670183Y-19362037D01*
X42467300Y-19278000D01*
X42247700Y-19278000D01*
X42044817Y-19362037D01*
X42020000Y-19386854D01*
X41995183Y-19362037D01*
X41792300Y-19278000D01*
X41572700Y-19278000D01*
X41369817Y-19362037D01*
X41214537Y-19517317D01*
X41130500Y-19720200D01*
X39751511Y-19720200D01*
X39725463Y-19657317D01*
X39570183Y-19502037D01*
X39367300Y-19418000D01*
X39147700Y-19418000D01*
X38944817Y-19502037D01*
X38920000Y-19526854D01*
X38895183Y-19502037D01*
X38692300Y-19418000D01*
X38472700Y-19418000D01*
X38269817Y-19502037D01*
X38114537Y-19657317D01*
X38030500Y-19860200D01*
X5745750Y-19860200D01*
X5852588Y-19753362D01*
X6047000Y-19284011D01*
X6047000Y-18890200D01*
X7948000Y-18890200D01*
X7948000Y-19109800D01*
X8032037Y-19312683D01*
X8187317Y-19467963D01*
X8390200Y-19552000D01*
X8609800Y-19552000D01*
X8812683Y-19467963D01*
X8967963Y-19312683D01*
X9052000Y-19109800D01*
X9052000Y-18890200D01*
X9148000Y-18890200D01*
X9148000Y-19109800D01*
X9232037Y-19312683D01*
X9387317Y-19467963D01*
X9590200Y-19552000D01*
X9809800Y-19552000D01*
X10012683Y-19467963D01*
X10167963Y-19312683D01*
X10252000Y-19109800D01*
X10252000Y-18890200D01*
X10448000Y-18890200D01*
X10448000Y-19109800D01*
X10532037Y-19312683D01*
X10687317Y-19467963D01*
X10890200Y-19552000D01*
X11109800Y-19552000D01*
X11312683Y-19467963D01*
X11467963Y-19312683D01*
X11552000Y-19109800D01*
X11552000Y-18890200D01*
X11467963Y-18687317D01*
X11312683Y-18532037D01*
X11109800Y-18448000D01*
X10890200Y-18448000D01*
X10687317Y-18532037D01*
X10532037Y-18687317D01*
X10448000Y-18890200D01*
X10252000Y-18890200D01*
X10167963Y-18687317D01*
X10012683Y-18532037D01*
X9809800Y-18448000D01*
X9590200Y-18448000D01*
X9387317Y-18532037D01*
X9232037Y-18687317D01*
X9148000Y-18890200D01*
X9052000Y-18890200D01*
X8967963Y-18687317D01*
X8812683Y-18532037D01*
X8609800Y-18448000D01*
X8390200Y-18448000D01*
X8187317Y-18532037D01*
X8032037Y-18687317D01*
X7948000Y-18890200D01*
X6047000Y-18890200D01*
X6047000Y-18775989D01*
X5852588Y-18306638D01*
X5736150Y-18190200D01*
X11748000Y-18190200D01*
X11748000Y-18409800D01*
X11832037Y-18612683D01*
X11987317Y-18767963D01*
X12190200Y-18852000D01*
X12409800Y-18852000D01*
X12558998Y-18790200D01*
X12948000Y-18790200D01*
X12948000Y-19009800D01*
X13032037Y-19212683D01*
X13187317Y-19367963D01*
X13390200Y-19452000D01*
X13609800Y-19452000D01*
X13812683Y-19367963D01*
X13967963Y-19212683D01*
X14052000Y-19009800D01*
X14052000Y-18790200D01*
X13989868Y-18640200D01*
X26948000Y-18640200D01*
X26948000Y-18859800D01*
X27032037Y-19062683D01*
X27187317Y-19217963D01*
X27390200Y-19302000D01*
X27609800Y-19302000D01*
X27812683Y-19217963D01*
X27890446Y-19140200D01*
X30948000Y-19140200D01*
X30948000Y-19359800D01*
X31032037Y-19562683D01*
X31187317Y-19717963D01*
X31390200Y-19802000D01*
X31609800Y-19802000D01*
X31812683Y-19717963D01*
X31967963Y-19562683D01*
X32052000Y-19359800D01*
X32052000Y-19140200D01*
X31967963Y-18937317D01*
X31812683Y-18782037D01*
X31609800Y-18698000D01*
X31390200Y-18698000D01*
X31187317Y-18782037D01*
X31032037Y-18937317D01*
X30948000Y-19140200D01*
X27890446Y-19140200D01*
X27967963Y-19062683D01*
X28052000Y-18859800D01*
X28052000Y-18640200D01*
X27967963Y-18437317D01*
X27812683Y-18282037D01*
X27609800Y-18198000D01*
X27390200Y-18198000D01*
X27187317Y-18282037D01*
X27032037Y-18437317D01*
X26948000Y-18640200D01*
X13989868Y-18640200D01*
X13967963Y-18587317D01*
X13812683Y-18432037D01*
X13609800Y-18348000D01*
X13390200Y-18348000D01*
X13187317Y-18432037D01*
X13032037Y-18587317D01*
X12948000Y-18790200D01*
X12558998Y-18790200D01*
X12612683Y-18767963D01*
X12767963Y-18612683D01*
X12852000Y-18409800D01*
X12852000Y-18190200D01*
X12767963Y-17987317D01*
X12612683Y-17832037D01*
X12409800Y-17748000D01*
X12190200Y-17748000D01*
X11987317Y-17832037D01*
X11832037Y-17987317D01*
X11748000Y-18190200D01*
X5736150Y-18190200D01*
X5493362Y-17947412D01*
X5040910Y-17760000D01*
X5493362Y-17572588D01*
X5852588Y-17213362D01*
X5945024Y-16990200D01*
X10948000Y-16990200D01*
X10948000Y-17209800D01*
X11032037Y-17412683D01*
X11187317Y-17567963D01*
X11390200Y-17652000D01*
X11609800Y-17652000D01*
X11812683Y-17567963D01*
X11967963Y-17412683D01*
X12052000Y-17209800D01*
X12052000Y-16990200D01*
X11967963Y-16787317D01*
X11812683Y-16632037D01*
X11609800Y-16548000D01*
X11390200Y-16548000D01*
X11187317Y-16632037D01*
X11032037Y-16787317D01*
X10948000Y-16990200D01*
X5945024Y-16990200D01*
X6047000Y-16744011D01*
X6047000Y-16235989D01*
X5903770Y-15890200D01*
X19698000Y-15890200D01*
X19698000Y-16109800D01*
X19782037Y-16312683D01*
X19937317Y-16467963D01*
X20039661Y-16510355D01*
X19987317Y-16532037D01*
X19832037Y-16687317D01*
X19748000Y-16890200D01*
X19748000Y-17109800D01*
X19832037Y-17312683D01*
X19987317Y-17467963D01*
X20190200Y-17552000D01*
X20409800Y-17552000D01*
X20612683Y-17467963D01*
X20767963Y-17312683D01*
X20852000Y-17109800D01*
X20852000Y-16890200D01*
X20767963Y-16687317D01*
X20612683Y-16532037D01*
X20510339Y-16489645D01*
X20562683Y-16467963D01*
X20717963Y-16312683D01*
X20802000Y-16109800D01*
X20802000Y-15890200D01*
X21948000Y-15890200D01*
X21948000Y-16109800D01*
X22032037Y-16312683D01*
X22187317Y-16467963D01*
X22390200Y-16552000D01*
X22609800Y-16552000D01*
X22812683Y-16467963D01*
X22967963Y-16312683D01*
X23052000Y-16109800D01*
X23052000Y-15890200D01*
X22967963Y-15687317D01*
X22920846Y-15640200D01*
X44110500Y-15640200D01*
X44110500Y-15859800D01*
X44194537Y-16062683D01*
X44349817Y-16217963D01*
X44552700Y-16302000D01*
X44772300Y-16302000D01*
X44975183Y-16217963D01*
X45000000Y-16193146D01*
X45024817Y-16217963D01*
X45227700Y-16302000D01*
X45447300Y-16302000D01*
X45650183Y-16217963D01*
X45805463Y-16062683D01*
X45876907Y-15890200D01*
X46948000Y-15890200D01*
X46948000Y-16109800D01*
X47032037Y-16312683D01*
X47187317Y-16467963D01*
X47390200Y-16552000D01*
X47609800Y-16552000D01*
X47812683Y-16467963D01*
X47967963Y-16312683D01*
X48000000Y-16235339D01*
X48032037Y-16312683D01*
X48187317Y-16467963D01*
X48390200Y-16552000D01*
X48609800Y-16552000D01*
X48812683Y-16467963D01*
X48967963Y-16312683D01*
X49000000Y-16235339D01*
X49032037Y-16312683D01*
X49187317Y-16467963D01*
X49390200Y-16552000D01*
X49609800Y-16552000D01*
X49812683Y-16467963D01*
X49967963Y-16312683D01*
X50000000Y-16235339D01*
X50032037Y-16312683D01*
X50187317Y-16467963D01*
X50390200Y-16552000D01*
X50609800Y-16552000D01*
X50812683Y-16467963D01*
X50967963Y-16312683D01*
X51052000Y-16109800D01*
X51052000Y-15890200D01*
X51011303Y-15791949D01*
X51087317Y-15867963D01*
X51290200Y-15952000D01*
X51509800Y-15952000D01*
X51712683Y-15867963D01*
X51867963Y-15712683D01*
X51952000Y-15509800D01*
X51952000Y-15290200D01*
X51867963Y-15087317D01*
X51712683Y-14932037D01*
X51509800Y-14848000D01*
X51290200Y-14848000D01*
X51087317Y-14932037D01*
X50932037Y-15087317D01*
X50848000Y-15290200D01*
X50848000Y-15509800D01*
X50888697Y-15608051D01*
X50812683Y-15532037D01*
X50609800Y-15448000D01*
X50390200Y-15448000D01*
X50187317Y-15532037D01*
X50032037Y-15687317D01*
X50000000Y-15764661D01*
X49967963Y-15687317D01*
X49812683Y-15532037D01*
X49609800Y-15448000D01*
X49390200Y-15448000D01*
X49187317Y-15532037D01*
X49032037Y-15687317D01*
X49000000Y-15764661D01*
X48967963Y-15687317D01*
X48812683Y-15532037D01*
X48609800Y-15448000D01*
X48390200Y-15448000D01*
X48187317Y-15532037D01*
X48032037Y-15687317D01*
X48000000Y-15764661D01*
X47967963Y-15687317D01*
X47812683Y-15532037D01*
X47609800Y-15448000D01*
X47390200Y-15448000D01*
X47187317Y-15532037D01*
X47032037Y-15687317D01*
X46948000Y-15890200D01*
X45876907Y-15890200D01*
X45889500Y-15859800D01*
X45889500Y-15640200D01*
X45805463Y-15437317D01*
X45650183Y-15282037D01*
X45447300Y-15198000D01*
X45227700Y-15198000D01*
X45024817Y-15282037D01*
X45000000Y-15306854D01*
X44975183Y-15282037D01*
X44772300Y-15198000D01*
X44552700Y-15198000D01*
X44349817Y-15282037D01*
X44194537Y-15437317D01*
X44110500Y-15640200D01*
X22920846Y-15640200D01*
X22812683Y-15532037D01*
X22609800Y-15448000D01*
X22390200Y-15448000D01*
X22187317Y-15532037D01*
X22032037Y-15687317D01*
X21948000Y-15890200D01*
X20802000Y-15890200D01*
X20717963Y-15687317D01*
X20562683Y-15532037D01*
X20359800Y-15448000D01*
X20140200Y-15448000D01*
X19937317Y-15532037D01*
X19782037Y-15687317D01*
X19698000Y-15890200D01*
X5903770Y-15890200D01*
X5852588Y-15766638D01*
X5493362Y-15407412D01*
X5040910Y-15220000D01*
X5493362Y-15032588D01*
X5852588Y-14673362D01*
X6011299Y-14290200D01*
X7448000Y-14290200D01*
X7448000Y-14509800D01*
X7532037Y-14712683D01*
X7687317Y-14867963D01*
X7890200Y-14952000D01*
X8109800Y-14952000D01*
X8312683Y-14867963D01*
X8467963Y-14712683D01*
X8552000Y-14509800D01*
X8552000Y-14390200D01*
X26948000Y-14390200D01*
X26948000Y-14609800D01*
X27032037Y-14812683D01*
X27187317Y-14967963D01*
X27390200Y-15052000D01*
X27609800Y-15052000D01*
X27812683Y-14967963D01*
X27890446Y-14890200D01*
X31448000Y-14890200D01*
X31448000Y-15109800D01*
X31532037Y-15312683D01*
X31687317Y-15467963D01*
X31890200Y-15552000D01*
X32109800Y-15552000D01*
X32312683Y-15467963D01*
X32467963Y-15312683D01*
X32552000Y-15109800D01*
X32552000Y-14890200D01*
X32467963Y-14687317D01*
X32312683Y-14532037D01*
X32109800Y-14448000D01*
X31890200Y-14448000D01*
X31687317Y-14532037D01*
X31532037Y-14687317D01*
X31448000Y-14890200D01*
X27890446Y-14890200D01*
X27967963Y-14812683D01*
X28052000Y-14609800D01*
X28052000Y-14390200D01*
X27967963Y-14187317D01*
X27812683Y-14032037D01*
X27609800Y-13948000D01*
X27390200Y-13948000D01*
X27187317Y-14032037D01*
X27032037Y-14187317D01*
X26948000Y-14390200D01*
X8552000Y-14390200D01*
X8552000Y-14290200D01*
X8467963Y-14087317D01*
X8312683Y-13932037D01*
X8109800Y-13848000D01*
X7890200Y-13848000D01*
X7687317Y-13932037D01*
X7532037Y-14087317D01*
X7448000Y-14290200D01*
X6011299Y-14290200D01*
X6047000Y-14204011D01*
X6047000Y-13695989D01*
X5920338Y-13390200D01*
X14198000Y-13390200D01*
X14198000Y-13609800D01*
X14282037Y-13812683D01*
X14437317Y-13967963D01*
X14640200Y-14052000D01*
X14859800Y-14052000D01*
X15062683Y-13967963D01*
X15217963Y-13812683D01*
X15302000Y-13609800D01*
X15302000Y-13390200D01*
X16048000Y-13390200D01*
X16048000Y-13609800D01*
X16132037Y-13812683D01*
X16287317Y-13967963D01*
X16490200Y-14052000D01*
X16709800Y-14052000D01*
X16912683Y-13967963D01*
X17067963Y-13812683D01*
X17152000Y-13609800D01*
X17152000Y-13390200D01*
X17067963Y-13187317D01*
X16912683Y-13032037D01*
X16709800Y-12948000D01*
X16490200Y-12948000D01*
X16287317Y-13032037D01*
X16132037Y-13187317D01*
X16048000Y-13390200D01*
X15302000Y-13390200D01*
X15217963Y-13187317D01*
X15062683Y-13032037D01*
X14859800Y-12948000D01*
X14640200Y-12948000D01*
X14437317Y-13032037D01*
X14282037Y-13187317D01*
X14198000Y-13390200D01*
X5920338Y-13390200D01*
X5852588Y-13226638D01*
X5493362Y-12867412D01*
X5040910Y-12680000D01*
X5493362Y-12492588D01*
X5852588Y-12133362D01*
X5953309Y-11890200D01*
X10948000Y-11890200D01*
X10948000Y-12109800D01*
X11032037Y-12312683D01*
X11187317Y-12467963D01*
X11390200Y-12552000D01*
X11609800Y-12552000D01*
X11812683Y-12467963D01*
X11967963Y-12312683D01*
X12052000Y-12109800D01*
X12052000Y-11890200D01*
X12017414Y-11806702D01*
X21720075Y-11806702D01*
X21725860Y-11996442D01*
X22062930Y-12098128D01*
X22413257Y-12063083D01*
X22574140Y-11996442D01*
X22579925Y-11806702D01*
X23120075Y-11806702D01*
X23125860Y-11996442D01*
X23462930Y-12098128D01*
X23813257Y-12063083D01*
X23974140Y-11996442D01*
X23979925Y-11806702D01*
X24520075Y-11806702D01*
X24525860Y-11996442D01*
X24862930Y-12098128D01*
X25213257Y-12063083D01*
X25374140Y-11996442D01*
X25379925Y-11806702D01*
X25920075Y-11806702D01*
X25925860Y-11996442D01*
X26262930Y-12098128D01*
X26613257Y-12063083D01*
X26774140Y-11996442D01*
X26779925Y-11806702D01*
X26350000Y-11376777D01*
X25920075Y-11806702D01*
X25379925Y-11806702D01*
X24950000Y-11376777D01*
X24520075Y-11806702D01*
X23979925Y-11806702D01*
X23550000Y-11376777D01*
X23120075Y-11806702D01*
X22579925Y-11806702D01*
X22150000Y-11376777D01*
X21720075Y-11806702D01*
X12017414Y-11806702D01*
X11967963Y-11687317D01*
X11812683Y-11532037D01*
X11609800Y-11448000D01*
X11390200Y-11448000D01*
X11187317Y-11532037D01*
X11032037Y-11687317D01*
X10948000Y-11890200D01*
X5953309Y-11890200D01*
X6047000Y-11664011D01*
X6047000Y-11155989D01*
X5852588Y-10686638D01*
X5510672Y-10344722D01*
X5642301Y-10290200D01*
X9248000Y-10290200D01*
X9248000Y-10509800D01*
X9332037Y-10712683D01*
X9469354Y-10850000D01*
X9332037Y-10987317D01*
X9248000Y-11190200D01*
X9248000Y-11409800D01*
X9332037Y-11612683D01*
X9487317Y-11767963D01*
X9690200Y-11852000D01*
X9909800Y-11852000D01*
X10112683Y-11767963D01*
X10267963Y-11612683D01*
X10352000Y-11409800D01*
X10352000Y-11190200D01*
X10310579Y-11090200D01*
X14848000Y-11090200D01*
X14848000Y-11309800D01*
X14932037Y-11512683D01*
X15087317Y-11667963D01*
X15290200Y-11752000D01*
X15509800Y-11752000D01*
X15712683Y-11667963D01*
X15867963Y-11512683D01*
X15952000Y-11309800D01*
X15952000Y-11090200D01*
X15867963Y-10887317D01*
X15770846Y-10790200D01*
X17648000Y-10790200D01*
X17648000Y-11009800D01*
X17732037Y-11212683D01*
X17887317Y-11367963D01*
X18090200Y-11452000D01*
X18309800Y-11452000D01*
X18512683Y-11367963D01*
X18667963Y-11212683D01*
X18709282Y-11112930D01*
X21251872Y-11112930D01*
X21286917Y-11463257D01*
X21353558Y-11624140D01*
X21543298Y-11629925D01*
X21973223Y-11200000D01*
X22326777Y-11200000D01*
X22756702Y-11629925D01*
X22850000Y-11627080D01*
X22943298Y-11629925D01*
X23373223Y-11200000D01*
X23726777Y-11200000D01*
X24156702Y-11629925D01*
X24250000Y-11627080D01*
X24343298Y-11629925D01*
X24773223Y-11200000D01*
X25126777Y-11200000D01*
X25556702Y-11629925D01*
X25650000Y-11627080D01*
X25743298Y-11629925D01*
X26173223Y-11200000D01*
X26526777Y-11200000D01*
X26956702Y-11629925D01*
X27146442Y-11624140D01*
X27248128Y-11287070D01*
X27228435Y-11090200D01*
X29348000Y-11090200D01*
X29348000Y-11309800D01*
X29432037Y-11512683D01*
X29587317Y-11667963D01*
X29790200Y-11752000D01*
X30009800Y-11752000D01*
X30212683Y-11667963D01*
X30367963Y-11512683D01*
X30452000Y-11309800D01*
X30452000Y-11090200D01*
X30369158Y-10890200D01*
X31648000Y-10890200D01*
X31648000Y-11109800D01*
X31732037Y-11312683D01*
X31887317Y-11467963D01*
X32090200Y-11552000D01*
X32309800Y-11552000D01*
X32512683Y-11467963D01*
X32667963Y-11312683D01*
X32752000Y-11109800D01*
X32752000Y-10890200D01*
X32667963Y-10687317D01*
X32512683Y-10532037D01*
X32309800Y-10448000D01*
X32090200Y-10448000D01*
X31887317Y-10532037D01*
X31732037Y-10687317D01*
X31648000Y-10890200D01*
X30369158Y-10890200D01*
X30367963Y-10887317D01*
X30212683Y-10732037D01*
X30009800Y-10648000D01*
X29790200Y-10648000D01*
X29587317Y-10732037D01*
X29432037Y-10887317D01*
X29348000Y-11090200D01*
X27228435Y-11090200D01*
X27213083Y-10936743D01*
X27146442Y-10775860D01*
X26956702Y-10770075D01*
X26526777Y-11200000D01*
X26173223Y-11200000D01*
X25743298Y-10770075D01*
X25650000Y-10772920D01*
X25556702Y-10770075D01*
X25126777Y-11200000D01*
X24773223Y-11200000D01*
X24343298Y-10770075D01*
X24250000Y-10772920D01*
X24156702Y-10770075D01*
X23726777Y-11200000D01*
X23373223Y-11200000D01*
X22943298Y-10770075D01*
X22850000Y-10772920D01*
X22756702Y-10770075D01*
X22326777Y-11200000D01*
X21973223Y-11200000D01*
X21543298Y-10770075D01*
X21353558Y-10775860D01*
X21251872Y-11112930D01*
X18709282Y-11112930D01*
X18752000Y-11009800D01*
X18752000Y-10790200D01*
X18667963Y-10587317D01*
X18512683Y-10432037D01*
X18451519Y-10406702D01*
X21720075Y-10406702D01*
X21722920Y-10500000D01*
X21720075Y-10593298D01*
X22150000Y-11023223D01*
X22579925Y-10593298D01*
X22577080Y-10500000D01*
X22579925Y-10406702D01*
X23120075Y-10406702D01*
X23122920Y-10500000D01*
X23120075Y-10593298D01*
X23550000Y-11023223D01*
X23979925Y-10593298D01*
X23977080Y-10500000D01*
X23979925Y-10406702D01*
X24520075Y-10406702D01*
X24522920Y-10500000D01*
X24520075Y-10593298D01*
X24950000Y-11023223D01*
X25379925Y-10593298D01*
X25377080Y-10500000D01*
X25379925Y-10406702D01*
X25920075Y-10406702D01*
X25922920Y-10500000D01*
X25920075Y-10593298D01*
X26350000Y-11023223D01*
X26779925Y-10593298D01*
X26777080Y-10500000D01*
X26779925Y-10406702D01*
X26350000Y-9976777D01*
X25920075Y-10406702D01*
X25379925Y-10406702D01*
X24950000Y-9976777D01*
X24520075Y-10406702D01*
X23979925Y-10406702D01*
X23550000Y-9976777D01*
X23120075Y-10406702D01*
X22579925Y-10406702D01*
X22150000Y-9976777D01*
X21720075Y-10406702D01*
X18451519Y-10406702D01*
X18309800Y-10348000D01*
X18090200Y-10348000D01*
X17887317Y-10432037D01*
X17732037Y-10587317D01*
X17648000Y-10790200D01*
X15770846Y-10790200D01*
X15712683Y-10732037D01*
X15509800Y-10648000D01*
X15290200Y-10648000D01*
X15087317Y-10732037D01*
X14932037Y-10887317D01*
X14848000Y-11090200D01*
X10310579Y-11090200D01*
X10267963Y-10987317D01*
X10130646Y-10850000D01*
X10267963Y-10712683D01*
X10352000Y-10509800D01*
X10352000Y-10290200D01*
X10267963Y-10087317D01*
X10112683Y-9932037D01*
X9909800Y-9848000D01*
X9690200Y-9848000D01*
X9487317Y-9932037D01*
X9332037Y-10087317D01*
X9248000Y-10290200D01*
X5642301Y-10290200D01*
X5644264Y-10289387D01*
X5742927Y-10022532D01*
X4770000Y-9049605D01*
X3797073Y-10022532D01*
X3895736Y-10289387D01*
X4033487Y-10340563D01*
X3687412Y-10686638D01*
X3500000Y-11139090D01*
X3312588Y-10686638D01*
X2953362Y-10327412D01*
X2500910Y-10140000D01*
X2953362Y-9952588D01*
X3295278Y-9610672D01*
X3350613Y-9744264D01*
X3617468Y-9842927D01*
X4590395Y-8870000D01*
X4949605Y-8870000D01*
X5922532Y-9842927D01*
X6189387Y-9744264D01*
X6415908Y-9134539D01*
X6397807Y-8645362D01*
X17802986Y-8645362D01*
X17802986Y-8864962D01*
X17887023Y-9067845D01*
X18042303Y-9223125D01*
X18245186Y-9307162D01*
X18287654Y-9307162D01*
X18287654Y-9334790D01*
X18371691Y-9537673D01*
X18526971Y-9692953D01*
X18729854Y-9776990D01*
X18949454Y-9776990D01*
X19104108Y-9712930D01*
X21251872Y-9712930D01*
X21286917Y-10063257D01*
X21353558Y-10224140D01*
X21543298Y-10229925D01*
X21973223Y-9800000D01*
X22326777Y-9800000D01*
X22756702Y-10229925D01*
X22850000Y-10227080D01*
X22943298Y-10229925D01*
X23373223Y-9800000D01*
X23726777Y-9800000D01*
X24156702Y-10229925D01*
X24250000Y-10227080D01*
X24343298Y-10229925D01*
X24773223Y-9800000D01*
X25126777Y-9800000D01*
X25556702Y-10229925D01*
X25650000Y-10227080D01*
X25743298Y-10229925D01*
X26173223Y-9800000D01*
X26526777Y-9800000D01*
X26956702Y-10229925D01*
X27146442Y-10224140D01*
X27247183Y-9890200D01*
X32348000Y-9890200D01*
X32348000Y-10109800D01*
X32432037Y-10312683D01*
X32587317Y-10467963D01*
X32790200Y-10552000D01*
X33009800Y-10552000D01*
X33212683Y-10467963D01*
X33367963Y-10312683D01*
X33452000Y-10109800D01*
X33452000Y-9890200D01*
X33367963Y-9687317D01*
X33212683Y-9532037D01*
X33009800Y-9448000D01*
X32790200Y-9448000D01*
X32587317Y-9532037D01*
X32432037Y-9687317D01*
X32348000Y-9890200D01*
X27247183Y-9890200D01*
X27248128Y-9887070D01*
X27213083Y-9536743D01*
X27146442Y-9375860D01*
X26956702Y-9370075D01*
X26526777Y-9800000D01*
X26173223Y-9800000D01*
X25743298Y-9370075D01*
X25650000Y-9372920D01*
X25556702Y-9370075D01*
X25126777Y-9800000D01*
X24773223Y-9800000D01*
X24343298Y-9370075D01*
X24250000Y-9372920D01*
X24156702Y-9370075D01*
X23726777Y-9800000D01*
X23373223Y-9800000D01*
X22943298Y-9370075D01*
X22850000Y-9372920D01*
X22756702Y-9370075D01*
X22326777Y-9800000D01*
X21973223Y-9800000D01*
X21543298Y-9370075D01*
X21353558Y-9375860D01*
X21251872Y-9712930D01*
X19104108Y-9712930D01*
X19152337Y-9692953D01*
X19307617Y-9537673D01*
X19391654Y-9334790D01*
X19391654Y-9115190D01*
X19346717Y-9006702D01*
X21720075Y-9006702D01*
X21722920Y-9100000D01*
X21720075Y-9193298D01*
X22150000Y-9623223D01*
X22579925Y-9193298D01*
X22577080Y-9100000D01*
X22579925Y-9006702D01*
X23120075Y-9006702D01*
X23122920Y-9100000D01*
X23120075Y-9193298D01*
X23550000Y-9623223D01*
X23979925Y-9193298D01*
X23977080Y-9100000D01*
X23979925Y-9006702D01*
X24520075Y-9006702D01*
X24522920Y-9100000D01*
X24520075Y-9193298D01*
X24950000Y-9623223D01*
X25379925Y-9193298D01*
X25377080Y-9100000D01*
X25379925Y-9006702D01*
X25920075Y-9006702D01*
X25922920Y-9100000D01*
X25920075Y-9193298D01*
X26350000Y-9623223D01*
X26779925Y-9193298D01*
X26777080Y-9100000D01*
X26779925Y-9006702D01*
X26350000Y-8576777D01*
X25920075Y-9006702D01*
X25379925Y-9006702D01*
X24950000Y-8576777D01*
X24520075Y-9006702D01*
X23979925Y-9006702D01*
X23550000Y-8576777D01*
X23120075Y-9006702D01*
X22579925Y-9006702D01*
X22150000Y-8576777D01*
X21720075Y-9006702D01*
X19346717Y-9006702D01*
X19307617Y-8912307D01*
X19152337Y-8757027D01*
X18949454Y-8672990D01*
X18906986Y-8672990D01*
X18906986Y-8645362D01*
X18822949Y-8442479D01*
X18667669Y-8287199D01*
X18464786Y-8203162D01*
X18245186Y-8203162D01*
X18042303Y-8287199D01*
X17887023Y-8442479D01*
X17802986Y-8645362D01*
X6397807Y-8645362D01*
X6391856Y-8484540D01*
X6189387Y-7995736D01*
X5922532Y-7897073D01*
X4949605Y-8870000D01*
X4590395Y-8870000D01*
X3617468Y-7897073D01*
X3350613Y-7995736D01*
X3299437Y-8133487D01*
X2953362Y-7787412D01*
X2784503Y-7717468D01*
X3797073Y-7717468D01*
X4770000Y-8690395D01*
X5742927Y-7717468D01*
X5714360Y-7640200D01*
X20448000Y-7640200D01*
X20448000Y-7859800D01*
X20532037Y-8062683D01*
X20687317Y-8217963D01*
X20890200Y-8302000D01*
X21109800Y-8302000D01*
X21275928Y-8233187D01*
X21251872Y-8312930D01*
X21286917Y-8663257D01*
X21353558Y-8824140D01*
X21543298Y-8829925D01*
X21973223Y-8400000D01*
X22326777Y-8400000D01*
X22756702Y-8829925D01*
X22850000Y-8827080D01*
X22943298Y-8829925D01*
X23373223Y-8400000D01*
X23726777Y-8400000D01*
X24156702Y-8829925D01*
X24250000Y-8827080D01*
X24343298Y-8829925D01*
X24773223Y-8400000D01*
X25126777Y-8400000D01*
X25556702Y-8829925D01*
X25650000Y-8827080D01*
X25743298Y-8829925D01*
X26173223Y-8400000D01*
X26526777Y-8400000D01*
X26956702Y-8829925D01*
X27146442Y-8824140D01*
X27248128Y-8487070D01*
X27213083Y-8136743D01*
X27146442Y-7975860D01*
X26956702Y-7970075D01*
X26526777Y-8400000D01*
X26173223Y-8400000D01*
X25743298Y-7970075D01*
X25650000Y-7972920D01*
X25556702Y-7970075D01*
X25126777Y-8400000D01*
X24773223Y-8400000D01*
X24343298Y-7970075D01*
X24250000Y-7972920D01*
X24156702Y-7970075D01*
X23726777Y-8400000D01*
X23373223Y-8400000D01*
X22943298Y-7970075D01*
X22850000Y-7972920D01*
X22756702Y-7970075D01*
X22326777Y-8400000D01*
X21973223Y-8400000D01*
X21957667Y-8384444D01*
X22134444Y-8207667D01*
X22150000Y-8223223D01*
X22579925Y-7793298D01*
X22577080Y-7700000D01*
X22579925Y-7606702D01*
X23120075Y-7606702D01*
X23122920Y-7700000D01*
X23120075Y-7793298D01*
X23550000Y-8223223D01*
X23979925Y-7793298D01*
X23977080Y-7700000D01*
X23979925Y-7606702D01*
X24520075Y-7606702D01*
X24522920Y-7700000D01*
X24520075Y-7793298D01*
X24950000Y-8223223D01*
X25379925Y-7793298D01*
X25377080Y-7700000D01*
X25379925Y-7606702D01*
X25920075Y-7606702D01*
X25922920Y-7700000D01*
X25920075Y-7793298D01*
X26350000Y-8223223D01*
X26779925Y-7793298D01*
X26777080Y-7700000D01*
X26779925Y-7606702D01*
X26350000Y-7176777D01*
X25920075Y-7606702D01*
X25379925Y-7606702D01*
X24950000Y-7176777D01*
X24520075Y-7606702D01*
X23979925Y-7606702D01*
X23550000Y-7176777D01*
X23120075Y-7606702D01*
X22579925Y-7606702D01*
X22150000Y-7176777D01*
X22134444Y-7192334D01*
X21957667Y-7015557D01*
X21973223Y-7000000D01*
X22326777Y-7000000D01*
X22756702Y-7429925D01*
X22850000Y-7427080D01*
X22943298Y-7429925D01*
X23373223Y-7000000D01*
X23726777Y-7000000D01*
X24156702Y-7429925D01*
X24250000Y-7427080D01*
X24343298Y-7429925D01*
X24773223Y-7000000D01*
X25126777Y-7000000D01*
X25556702Y-7429925D01*
X25650000Y-7427080D01*
X25743298Y-7429925D01*
X26173223Y-7000000D01*
X26526777Y-7000000D01*
X26956702Y-7429925D01*
X27146442Y-7424140D01*
X27248128Y-7087070D01*
X27213083Y-6736743D01*
X27146442Y-6575860D01*
X26956702Y-6570075D01*
X26526777Y-7000000D01*
X26173223Y-7000000D01*
X25743298Y-6570075D01*
X25650000Y-6572920D01*
X25556702Y-6570075D01*
X25126777Y-7000000D01*
X24773223Y-7000000D01*
X24343298Y-6570075D01*
X24250000Y-6572920D01*
X24156702Y-6570075D01*
X23726777Y-7000000D01*
X23373223Y-7000000D01*
X22943298Y-6570075D01*
X22850000Y-6572920D01*
X22756702Y-6570075D01*
X22326777Y-7000000D01*
X21973223Y-7000000D01*
X21543298Y-6570075D01*
X21353558Y-6575860D01*
X21251872Y-6912930D01*
X21286917Y-7263257D01*
X21290971Y-7273043D01*
X21109800Y-7198000D01*
X20890200Y-7198000D01*
X20687317Y-7282037D01*
X20532037Y-7437317D01*
X20448000Y-7640200D01*
X5714360Y-7640200D01*
X5644264Y-7450613D01*
X5034539Y-7224092D01*
X4384540Y-7248144D01*
X3895736Y-7450613D01*
X3797073Y-7717468D01*
X2784503Y-7717468D01*
X2484011Y-7593000D01*
X1975989Y-7593000D01*
X1506638Y-7787412D01*
X1147412Y-8146638D01*
X953000Y-8615989D01*
X352000Y-8615989D01*
X352000Y-6140200D01*
X17698000Y-6140200D01*
X17698000Y-6359800D01*
X17782037Y-6562683D01*
X17937317Y-6717963D01*
X18140200Y-6802000D01*
X18359800Y-6802000D01*
X18562683Y-6717963D01*
X18717963Y-6562683D01*
X18788124Y-6393298D01*
X21720075Y-6393298D01*
X22150000Y-6823223D01*
X22579925Y-6393298D01*
X23120075Y-6393298D01*
X23550000Y-6823223D01*
X23979925Y-6393298D01*
X24520075Y-6393298D01*
X24950000Y-6823223D01*
X25379925Y-6393298D01*
X25920075Y-6393298D01*
X26350000Y-6823223D01*
X26779925Y-6393298D01*
X26779831Y-6390200D01*
X34048000Y-6390200D01*
X34048000Y-6609800D01*
X34132037Y-6812683D01*
X34287317Y-6967963D01*
X34490200Y-7052000D01*
X34709800Y-7052000D01*
X34912683Y-6967963D01*
X35067963Y-6812683D01*
X35152000Y-6609800D01*
X35152000Y-6390200D01*
X35067963Y-6187317D01*
X34912683Y-6032037D01*
X34709800Y-5948000D01*
X34490200Y-5948000D01*
X34287317Y-6032037D01*
X34132037Y-6187317D01*
X34048000Y-6390200D01*
X26779831Y-6390200D01*
X26774140Y-6203558D01*
X26437070Y-6101872D01*
X26086743Y-6136917D01*
X25925860Y-6203558D01*
X25920075Y-6393298D01*
X25379925Y-6393298D01*
X25374140Y-6203558D01*
X25037070Y-6101872D01*
X24686743Y-6136917D01*
X24525860Y-6203558D01*
X24520075Y-6393298D01*
X23979925Y-6393298D01*
X23974140Y-6203558D01*
X23637070Y-6101872D01*
X23286743Y-6136917D01*
X23125860Y-6203558D01*
X23120075Y-6393298D01*
X22579925Y-6393298D01*
X22574140Y-6203558D01*
X22237070Y-6101872D01*
X21886743Y-6136917D01*
X21725860Y-6203558D01*
X21720075Y-6393298D01*
X18788124Y-6393298D01*
X18802000Y-6359800D01*
X18802000Y-6140200D01*
X18717963Y-5937317D01*
X18562683Y-5782037D01*
X18359800Y-5698000D01*
X18140200Y-5698000D01*
X17937317Y-5782037D01*
X17782037Y-5937317D01*
X17698000Y-6140200D01*
X352000Y-6140200D01*
X352000Y-4390200D01*
X18348000Y-4390200D01*
X18348000Y-4609800D01*
X18432037Y-4812683D01*
X18587317Y-4967963D01*
X18790200Y-5052000D01*
X19009800Y-5052000D01*
X19212683Y-4967963D01*
X19367963Y-4812683D01*
X19452000Y-4609800D01*
X19452000Y-4390200D01*
X19367963Y-4187317D01*
X19212683Y-4032037D01*
X19009800Y-3948000D01*
X18790200Y-3948000D01*
X18587317Y-4032037D01*
X18432037Y-4187317D01*
X18348000Y-4390200D01*
X352000Y-4390200D01*
X352000Y-3690200D01*
X20148000Y-3690200D01*
X20148000Y-3909800D01*
X20232037Y-4112683D01*
X20387317Y-4267963D01*
X20590200Y-4352000D01*
X20809800Y-4352000D01*
X21012683Y-4267963D01*
X21167963Y-4112683D01*
X21208531Y-4014744D01*
X21293949Y-4050126D01*
X21513549Y-4050126D01*
X21716432Y-3966089D01*
X21871712Y-3810809D01*
X21888832Y-3769478D01*
X21987317Y-3867963D01*
X22190200Y-3952000D01*
X22409800Y-3952000D01*
X22612683Y-3867963D01*
X22690446Y-3790200D01*
X28148000Y-3790200D01*
X28148000Y-4009800D01*
X28232037Y-4212683D01*
X28387317Y-4367963D01*
X28590200Y-4452000D01*
X28809800Y-4452000D01*
X29012683Y-4367963D01*
X29167963Y-4212683D01*
X29252000Y-4009800D01*
X29252000Y-3790200D01*
X29167963Y-3587317D01*
X29012683Y-3432037D01*
X28809800Y-3348000D01*
X28590200Y-3348000D01*
X28387317Y-3432037D01*
X28232037Y-3587317D01*
X28148000Y-3790200D01*
X22690446Y-3790200D01*
X22767963Y-3712683D01*
X22852000Y-3509800D01*
X22852000Y-3290200D01*
X22767963Y-3087317D01*
X22612683Y-2932037D01*
X22409800Y-2848000D01*
X22190200Y-2848000D01*
X21987317Y-2932037D01*
X21832037Y-3087317D01*
X21814917Y-3128648D01*
X21716432Y-3030163D01*
X21513549Y-2946126D01*
X21293949Y-2946126D01*
X21091066Y-3030163D01*
X20935786Y-3185443D01*
X20895218Y-3283382D01*
X20809800Y-3248000D01*
X20590200Y-3248000D01*
X20387317Y-3332037D01*
X20232037Y-3487317D01*
X20148000Y-3690200D01*
X352000Y-3690200D01*
X352000Y-2390200D01*
X19048000Y-2390200D01*
X19048000Y-2609800D01*
X19132037Y-2812683D01*
X19287317Y-2967963D01*
X19490200Y-3052000D01*
X19709800Y-3052000D01*
X19912683Y-2967963D01*
X20067963Y-2812683D01*
X20152000Y-2609800D01*
X20152000Y-2390200D01*
X20067963Y-2187317D01*
X19912683Y-2032037D01*
X19709800Y-1948000D01*
X19490200Y-1948000D01*
X19287317Y-2032037D01*
X19132037Y-2187317D01*
X19048000Y-2390200D01*
X352000Y-2390200D01*
X352000Y-1390200D01*
X23948000Y-1390200D01*
X23948000Y-1609800D01*
X24032037Y-1812683D01*
X24187317Y-1967963D01*
X24390200Y-2052000D01*
X24609800Y-2052000D01*
X24812683Y-1967963D01*
X24967963Y-1812683D01*
X25052000Y-1609800D01*
X25052000Y-1490200D01*
X26548000Y-1490200D01*
X26548000Y-1709800D01*
X26632037Y-1912683D01*
X26787317Y-2067963D01*
X26990200Y-2152000D01*
X27209800Y-2152000D01*
X27412683Y-2067963D01*
X27567963Y-1912683D01*
X27652000Y-1709800D01*
X27652000Y-1490200D01*
X27567963Y-1287317D01*
X27412683Y-1132037D01*
X27209800Y-1048000D01*
X26990200Y-1048000D01*
X26787317Y-1132037D01*
X26632037Y-1287317D01*
X26548000Y-1490200D01*
X25052000Y-1490200D01*
X25052000Y-1390200D01*
X24967963Y-1187317D01*
X24812683Y-1032037D01*
X24609800Y-948000D01*
X24390200Y-948000D01*
X24187317Y-1032037D01*
X24032037Y-1187317D01*
X23948000Y-1390200D01*
X352000Y-1390200D01*
X352000Y-352000D01*
X55648001Y-352000D01*
X55648000Y-65648000D01*
G04 #@! TD*
M02*
