G04 #@! TF.GenerationSoftware,KiCad,Pcbnew,5.1.4+dfsg1-1~bpo9+1*
G04 #@! TF.CreationDate,2019-11-28T12:10:45+01:00*
G04 #@! TF.ProjectId,zglue-demo-board,7a676c75-652d-4646-956d-6f2d626f6172,rev?*
G04 #@! TF.SameCoordinates,Original*
G04 #@! TF.FileFunction,Copper,L3,Inr*
G04 #@! TF.FilePolarity,Positive*
%FSLAX46Y46*%
G04 Gerber Fmt 4.6, Leading zero omitted, Abs format (unit mm)*
G04 Created by KiCad (PCBNEW 5.1.4+dfsg1-1~bpo9+1) date 2019-11-28 12:10:45*
%MOMM*%
%LPD*%
G04 APERTURE LIST*
%ADD10C,0.500000*%
%ADD11C,1.100000*%
%ADD12C,6.200000*%
%ADD13C,2.000000*%
%ADD14C,0.550000*%
%ADD15C,0.200000*%
%ADD16C,0.150000*%
%ADD17C,0.250000*%
G04 APERTURE END LIST*
D10*
X50450000Y-42350000D03*
X51850000Y-42350000D03*
X53250000Y-42350000D03*
X54650000Y-42350000D03*
X50450000Y-40950000D03*
X51850000Y-40950000D03*
X53250000Y-40950000D03*
X54650000Y-40950000D03*
X50450000Y-39550000D03*
X51850000Y-39550000D03*
X53250000Y-39550000D03*
X54650000Y-39550000D03*
X50450000Y-38150000D03*
X51850000Y-38150000D03*
X53250000Y-38150000D03*
X54650000Y-38150000D03*
D11*
X58040000Y-86370000D03*
X59310000Y-86370000D03*
X58040000Y-87640000D03*
X59310000Y-87640000D03*
X58040000Y-88910000D03*
X59310000Y-88910000D03*
X58040000Y-90180000D03*
X59310000Y-90180000D03*
X58040000Y-91450000D03*
X59310000Y-91450000D03*
X36990000Y-49740000D03*
X38260000Y-49740000D03*
X36990000Y-51010000D03*
X38260000Y-51010000D03*
X36990000Y-52280000D03*
X38260000Y-52280000D03*
X36990000Y-53550000D03*
X38260000Y-53550000D03*
X36990000Y-54820000D03*
X38260000Y-54820000D03*
D12*
X31300000Y-34250000D03*
X31300000Y-92250000D03*
X80300000Y-92250000D03*
X80300000Y-34250000D03*
D13*
X32570000Y-87380000D03*
X30030000Y-87380000D03*
X32570000Y-84840000D03*
X30030000Y-84840000D03*
X32570000Y-82300000D03*
X30030000Y-82300000D03*
X32570000Y-79760000D03*
X30030000Y-79760000D03*
X32570000Y-77220000D03*
X30030000Y-77220000D03*
X32570000Y-74680000D03*
X30030000Y-74680000D03*
X32570000Y-72140000D03*
X30030000Y-72140000D03*
X32570000Y-69600000D03*
X30030000Y-69600000D03*
X32570000Y-67060000D03*
X30030000Y-67060000D03*
X32570000Y-64520000D03*
X30030000Y-64520000D03*
X32570000Y-61980000D03*
X30030000Y-61980000D03*
X32570000Y-59440000D03*
X30030000Y-59440000D03*
X32570000Y-56900000D03*
X30030000Y-56900000D03*
X32570000Y-54360000D03*
X30030000Y-54360000D03*
X32570000Y-51820000D03*
X30030000Y-51820000D03*
X32570000Y-49280000D03*
X30030000Y-49280000D03*
X32570000Y-46740000D03*
X30030000Y-46740000D03*
X32570000Y-44200000D03*
X30030000Y-44200000D03*
X32570000Y-41660000D03*
X30030000Y-41660000D03*
X32570000Y-39120000D03*
X30030000Y-39120000D03*
D14*
X51078649Y-59048649D03*
X71441351Y-75638649D03*
X69835801Y-46504351D03*
X36270000Y-70950000D03*
X68730000Y-49960000D03*
X50090000Y-31710000D03*
X73970876Y-56979124D03*
X41165000Y-41550000D03*
X35615000Y-43760000D03*
X58274987Y-76000000D03*
X39540000Y-91480000D03*
X39510000Y-88630000D03*
X42770000Y-34120000D03*
X43120000Y-45680000D03*
X54360000Y-46950000D03*
X53110000Y-74425000D03*
X63580000Y-93040000D03*
X62520000Y-35370000D03*
X58530000Y-43900000D03*
X65290000Y-50370000D03*
X69220000Y-55080000D03*
X74560000Y-62110000D03*
X60300000Y-43850000D03*
X51800000Y-57650000D03*
X74300000Y-49750000D03*
X73900000Y-55800000D03*
X34480494Y-86588254D03*
X34820000Y-85860000D03*
X43700000Y-63375010D03*
X44039117Y-43360883D03*
X75358420Y-56784458D03*
X38200000Y-32050000D03*
X75290000Y-70287510D03*
X74800000Y-51050000D03*
X67900000Y-61750000D03*
X67900000Y-64950000D03*
X67700000Y-68050000D03*
X61400000Y-66050000D03*
X60600000Y-65250000D03*
X61400000Y-63050000D03*
X58700000Y-62050000D03*
X60500000Y-59250000D03*
X60100000Y-58450000D03*
X50200000Y-65950000D03*
X50200000Y-64550000D03*
X51100000Y-63950000D03*
X51300000Y-61450000D03*
X47400000Y-58450000D03*
X51000000Y-57750000D03*
X43900000Y-61550000D03*
X71300000Y-46750000D03*
X76550000Y-55000000D03*
X76550000Y-54000000D03*
X78550000Y-60750000D03*
X78800000Y-51500000D03*
X77300000Y-69250000D03*
X77550000Y-68350000D03*
X78800000Y-74500000D03*
X79050000Y-66000000D03*
X45800000Y-38100000D03*
X44800000Y-38100000D03*
X65300000Y-77000000D03*
X68300000Y-77000000D03*
X71300000Y-77000000D03*
X74300000Y-77000000D03*
X52300000Y-78000000D03*
X37050000Y-89050000D03*
X55300000Y-45600000D03*
X49800000Y-47850000D03*
X56300000Y-47850000D03*
X57550000Y-48600000D03*
X59300000Y-47850000D03*
X58420000Y-37490000D03*
X60300000Y-39850000D03*
X47135883Y-42014117D03*
X47050000Y-44100000D03*
X45800000Y-42600000D03*
X44800000Y-42600000D03*
X47050000Y-37850000D03*
X47050000Y-36850000D03*
X52800000Y-34600000D03*
X51048649Y-62411351D03*
X64990000Y-74922500D03*
X50571351Y-62888649D03*
X64990000Y-75597500D03*
X50761351Y-60081351D03*
X67508649Y-76638649D03*
X51238649Y-60558649D03*
X67031351Y-76161351D03*
X50601351Y-58571351D03*
X71918649Y-75161351D03*
X40730000Y-69820000D03*
X58270000Y-80250000D03*
X60750000Y-91910000D03*
X67940000Y-33460000D03*
X58995876Y-45725876D03*
X50670000Y-72350010D03*
X37058471Y-46666283D03*
X41810000Y-46850000D03*
X74700000Y-58220000D03*
X51520000Y-76670000D03*
X75260000Y-53060000D03*
X38920000Y-88060000D03*
X54300000Y-46150000D03*
X59889124Y-51160876D03*
X46875000Y-48550000D03*
X61400000Y-55150000D03*
X79200000Y-79650000D03*
X79200000Y-45650000D03*
X54700000Y-62150000D03*
X73137500Y-46000000D03*
X64888649Y-59761351D03*
X66382500Y-50220000D03*
X59501351Y-60208649D03*
X67057500Y-50220000D03*
X59978649Y-59731351D03*
X69482500Y-50080000D03*
X60328649Y-62908649D03*
X70157500Y-50080000D03*
X59851351Y-62431351D03*
X72462500Y-46000000D03*
X64411351Y-60238649D03*
X76950011Y-71809999D03*
X74997079Y-57354610D03*
X46654986Y-40594838D03*
X75000000Y-56150000D03*
X47139654Y-40125010D03*
X62390000Y-41270000D03*
X76800000Y-58500000D03*
X76800000Y-60850000D03*
X74600000Y-70487500D03*
X51338649Y-66588649D03*
X74600000Y-69812500D03*
X50861351Y-66111351D03*
X42420000Y-47875000D03*
X45920000Y-31040000D03*
X71790000Y-49840000D03*
X44550000Y-49600000D03*
X44550000Y-51840000D03*
X73600000Y-49750000D03*
X45090000Y-54365000D03*
X46930000Y-31040000D03*
X46040000Y-49650000D03*
X46040000Y-51800000D03*
X72660000Y-51280000D03*
X71000000Y-50050000D03*
X65845261Y-49696491D03*
X70980000Y-43410000D03*
X46800000Y-66150000D03*
X41200871Y-64399386D03*
X72200000Y-41150000D03*
X70428868Y-45717220D03*
X38100000Y-62647018D03*
X57294393Y-53569252D03*
X46030000Y-65610000D03*
X38380000Y-61630000D03*
X57719475Y-53044912D03*
X71160000Y-45780000D03*
X46500000Y-65035010D03*
X71880000Y-45605010D03*
X57970000Y-52370000D03*
X45940000Y-64600000D03*
X37705000Y-61380000D03*
X47910000Y-31040000D03*
X61222746Y-55994857D03*
X47090000Y-56590000D03*
X47480000Y-49620000D03*
X67616541Y-52166541D03*
X44930000Y-31040000D03*
X42980000Y-49580000D03*
X42990000Y-51900000D03*
X67810000Y-50575000D03*
X55950000Y-31040000D03*
X53840000Y-57860000D03*
X54020000Y-51590000D03*
X54010000Y-49600000D03*
X69400000Y-57450000D03*
X53920000Y-31040000D03*
X51207227Y-57107594D03*
X51530000Y-52930000D03*
X52570000Y-49680000D03*
X69190000Y-56499999D03*
X51888000Y-31040000D03*
X49550000Y-51830000D03*
X49490000Y-49670000D03*
X57900000Y-78600000D03*
X55100000Y-53450000D03*
X40750000Y-65710000D03*
X40790000Y-67000000D03*
X48480000Y-49860000D03*
X59300000Y-52430000D03*
X47825000Y-35475000D03*
X59700000Y-50300000D03*
X60550000Y-56050000D03*
X46050000Y-44400000D03*
X44650000Y-48675000D03*
X46900000Y-74550000D03*
X40750000Y-68410000D03*
X56890000Y-31040000D03*
X57040000Y-51600000D03*
X57080000Y-49590000D03*
X57280000Y-79110000D03*
X54930000Y-31040000D03*
X73210000Y-55970000D03*
X55640000Y-56525000D03*
X46390000Y-56590000D03*
X55590000Y-51630000D03*
X55600000Y-49600000D03*
X52900000Y-31040000D03*
X52990000Y-57650000D03*
X51070000Y-51790000D03*
X51080000Y-49690000D03*
X68340000Y-57070000D03*
X43700000Y-38150000D03*
X49000000Y-45550000D03*
X49703749Y-45851874D03*
X43050000Y-35850000D03*
X39800000Y-37350000D03*
X37535000Y-44680000D03*
X50474990Y-45950000D03*
X35770000Y-50610000D03*
X43020000Y-82710000D03*
X50700000Y-69050000D03*
X50800000Y-67850000D03*
X75300000Y-63000000D03*
X78300000Y-63000000D03*
X78050000Y-76000000D03*
X75550000Y-76000000D03*
X45400000Y-89920000D03*
X44330000Y-91270000D03*
X38280000Y-91550000D03*
X38270000Y-88630000D03*
X39790000Y-87700000D03*
X40420000Y-81460000D03*
X34625000Y-88175000D03*
X51280000Y-75300000D03*
X59330000Y-78700000D03*
X74250021Y-64490000D03*
X72450000Y-56130000D03*
X73975010Y-65410000D03*
X71720000Y-56310000D03*
X73900000Y-66560000D03*
X70900000Y-56310000D03*
X73900000Y-67520000D03*
X70130000Y-56130000D03*
X60110000Y-81180000D03*
X40975020Y-75510000D03*
X68510000Y-53170000D03*
X73100000Y-55150000D03*
X59220000Y-81100000D03*
X43920000Y-75560000D03*
X68436316Y-59493684D03*
X72610000Y-61050000D03*
X70560000Y-63060000D03*
X74020000Y-72280000D03*
X71324748Y-63604339D03*
X73880000Y-71220000D03*
X71950000Y-63350000D03*
X74660000Y-69110000D03*
X72600000Y-63020000D03*
X73840000Y-68990000D03*
X43800000Y-59500000D03*
X55870000Y-90860000D03*
X43300000Y-60000000D03*
X43300000Y-59000000D03*
X43800000Y-58500000D03*
X60940000Y-31040000D03*
X61950000Y-31040000D03*
X36260000Y-58884659D03*
X35710000Y-56360000D03*
X47150000Y-63650000D03*
X37181843Y-58714583D03*
X36729124Y-56440876D03*
X47200000Y-62900000D03*
X40158916Y-57648667D03*
X34710000Y-56390000D03*
X46600000Y-62300000D03*
X48510000Y-95100000D03*
X47274980Y-66675000D03*
X42210000Y-60080000D03*
X46130000Y-61730000D03*
X43300000Y-61000000D03*
X43890000Y-60527000D03*
X40960000Y-33130000D03*
X57490000Y-59270000D03*
X34170000Y-31210000D03*
X36730000Y-60220000D03*
X59339444Y-71125000D03*
X35820330Y-60109670D03*
X60900000Y-72000000D03*
X34780000Y-60170000D03*
X60050000Y-72000000D03*
X65500000Y-58550000D03*
X71154767Y-64655233D03*
X71050000Y-65480000D03*
X71120000Y-66510000D03*
X71200000Y-67430000D03*
X41775000Y-53220000D03*
X61400000Y-75922500D03*
X62630000Y-76110000D03*
X65500000Y-61550000D03*
X71090000Y-68920000D03*
X70677779Y-69487500D03*
X71210000Y-70960000D03*
X71160000Y-72050000D03*
X65200000Y-64450000D03*
X64559637Y-65150000D03*
X39663251Y-56450000D03*
X36270000Y-53970000D03*
X65200000Y-65450000D03*
X64639844Y-66100001D03*
X65162623Y-66527000D03*
X60600000Y-67150000D03*
X64722702Y-67072702D03*
X43040000Y-54380000D03*
X40850000Y-57830000D03*
X60600000Y-68050000D03*
X65200000Y-67550000D03*
X48670000Y-33130000D03*
X58640000Y-48270000D03*
X52800000Y-47850000D03*
X61200000Y-39350000D03*
X60300000Y-34350000D03*
X55800000Y-34850000D03*
X49670000Y-41500000D03*
X46550000Y-43100000D03*
X47960000Y-33280000D03*
X50175426Y-32482515D03*
X40829710Y-32467692D03*
X35430000Y-37460000D03*
X60500000Y-38350000D03*
X44900000Y-35850000D03*
X50910000Y-31040000D03*
X49360000Y-38390000D03*
X47200000Y-44850000D03*
X58200000Y-38150000D03*
X55400000Y-47750000D03*
X57000000Y-45450000D03*
X68920000Y-36360000D03*
X55670000Y-41710000D03*
X57950000Y-31040000D03*
X37199999Y-74260000D03*
X58570000Y-51650000D03*
X58570000Y-49630000D03*
X58540000Y-79390000D03*
X54200000Y-78050000D03*
X40070000Y-32249999D03*
X37910000Y-64920000D03*
X37390000Y-31200000D03*
X40970000Y-34700000D03*
X36460000Y-32040000D03*
X37400000Y-62890000D03*
X40230047Y-60679952D03*
X40250001Y-42160000D03*
X35615000Y-40435000D03*
X37598248Y-57050000D03*
X35915200Y-48255200D03*
X40970000Y-37870000D03*
X37706633Y-57868702D03*
X40920000Y-35540000D03*
X35780000Y-46550000D03*
X41750000Y-38275000D03*
X35615000Y-39260000D03*
X35420000Y-58870000D03*
X37484989Y-62174989D03*
X40717558Y-61146814D03*
X42240000Y-41360000D03*
X69980000Y-39635000D03*
X68170000Y-43120000D03*
X78350000Y-44350000D03*
X68090000Y-41787500D03*
X77350000Y-44300000D03*
X76178459Y-49591541D03*
X76210000Y-51720000D03*
X68580000Y-43705000D03*
X70170000Y-41290000D03*
X68130000Y-39710000D03*
X78300000Y-79575010D03*
X70890000Y-41787500D03*
X77300000Y-79575010D03*
X61020000Y-86650000D03*
X76300000Y-79575010D03*
X60835000Y-82715000D03*
X75300000Y-79575010D03*
X68675000Y-46869124D03*
X63760000Y-46810000D03*
X68043524Y-49397625D03*
X60840000Y-54199999D03*
X63620000Y-47490000D03*
X67990000Y-46860000D03*
X62240000Y-54480000D03*
X65150000Y-43260000D03*
X65125001Y-41675001D03*
X62970000Y-54580000D03*
X63490000Y-53930000D03*
X63440000Y-43200000D03*
X65400000Y-40750000D03*
X63772124Y-48866124D03*
X75000000Y-41150000D03*
X63300000Y-48250000D03*
X75000000Y-42325000D03*
X62659637Y-48036546D03*
X75000000Y-43550000D03*
X61900000Y-48050000D03*
X75000000Y-44750000D03*
X60920000Y-33790000D03*
X58910000Y-31040000D03*
X50474990Y-48475000D03*
X61320000Y-36260000D03*
X59900000Y-31040000D03*
X61860000Y-34250000D03*
X60275000Y-36270000D03*
X48775000Y-48575000D03*
X65116356Y-46017947D03*
X70370000Y-46930000D03*
X69150000Y-46340000D03*
X65630000Y-45580000D03*
X64020000Y-33445000D03*
X64165000Y-35290000D03*
D15*
X69676709Y-74244855D02*
X69657278Y-74204505D01*
X69779999Y-74327225D02*
X69739649Y-74307794D01*
X53522690Y-58662500D02*
X51217310Y-58662500D01*
X69704634Y-74279871D02*
X69676709Y-74244855D01*
X69823663Y-74337192D02*
X69779999Y-74327225D01*
X70092712Y-74202644D02*
X70052362Y-74222076D01*
X69868449Y-74337192D02*
X69823663Y-74337192D01*
X69987476Y-74279870D02*
X69952461Y-74307793D01*
X57267500Y-62407310D02*
X53522690Y-58662500D01*
X69912111Y-74327225D02*
X69868449Y-74337192D01*
X69647311Y-74160841D02*
X69647311Y-74116055D01*
X69952461Y-74307793D02*
X69912111Y-74327225D01*
X69657278Y-74204505D02*
X69647311Y-74160841D01*
X70300190Y-74250000D02*
X70265176Y-74222077D01*
X61952690Y-71642500D02*
X57267500Y-66957310D01*
X71441351Y-75391161D02*
X70300190Y-74250000D01*
X70265176Y-74222077D02*
X70224824Y-74202644D01*
X70017348Y-74250001D02*
X69987476Y-74279870D01*
X71441351Y-75638649D02*
X71441351Y-75391161D01*
X69734504Y-73967157D02*
X69762427Y-73932142D01*
X70181162Y-74192679D02*
X70136376Y-74192679D01*
X67692690Y-71642500D02*
X61952690Y-71642500D01*
X70224824Y-74202644D02*
X70181162Y-74192679D01*
X69657278Y-74072393D02*
X69676710Y-74032043D01*
X69676710Y-74032043D02*
X69704633Y-73997027D01*
X69647311Y-74116055D02*
X69657278Y-74072393D01*
X69739649Y-74307794D02*
X69704634Y-74279871D01*
X70136376Y-74192679D02*
X70092712Y-74202644D01*
X69791824Y-73803342D02*
X69781859Y-73759680D01*
X70052362Y-74222076D02*
X70017348Y-74250001D01*
X69704633Y-73997027D02*
X69734504Y-73967157D01*
X69762427Y-73932142D02*
X69781859Y-73891792D01*
X69781859Y-73891792D02*
X69791824Y-73848128D01*
X69791824Y-73848128D02*
X69791824Y-73803342D01*
X69781859Y-73759680D02*
X69762426Y-73719328D01*
X69762426Y-73719328D02*
X69734504Y-73684314D01*
X57267500Y-66957310D02*
X57267500Y-62407310D01*
X69734504Y-73684314D02*
X67692690Y-71642500D01*
X51217310Y-58662500D02*
X51078649Y-58801161D01*
X51078649Y-58801161D02*
X51078649Y-59048649D01*
X53099602Y-70452886D02*
X53061899Y-70434729D01*
X53140400Y-70462198D02*
X53099602Y-70452886D01*
X53260748Y-70434729D02*
X53223045Y-70452886D01*
X53429289Y-70272815D02*
X53293465Y-70408638D01*
X53716332Y-70134582D02*
X53611037Y-70158615D01*
X53293465Y-70408638D02*
X53260748Y-70434729D01*
X53824334Y-70134582D02*
X53716332Y-70134582D01*
X53929629Y-70158615D02*
X53824334Y-70134582D01*
X54111377Y-70272815D02*
X54026937Y-70205476D01*
X54285965Y-70514951D02*
X54239104Y-70417644D01*
X53223045Y-70452886D02*
X53182247Y-70462198D01*
X53382685Y-71830544D02*
X53400842Y-71792842D01*
X53373374Y-71913190D02*
X53373373Y-71871342D01*
X53400841Y-71991690D02*
X53382686Y-71953988D01*
X53426933Y-72024408D02*
X53400841Y-71991690D01*
X52312511Y-63675213D02*
X51048649Y-62411351D01*
X53478211Y-72069059D02*
X53445492Y-72042967D01*
X53598558Y-72096527D02*
X53556712Y-72096528D01*
X53639356Y-72087215D02*
X53598558Y-72096527D01*
X53709776Y-72042967D02*
X53677059Y-72069058D01*
X53611037Y-70158615D02*
X53513729Y-70205476D01*
X54071735Y-71681008D02*
X53956828Y-71795918D01*
X54548329Y-71240076D02*
X54463889Y-71307415D01*
X53445492Y-72042967D02*
X53426933Y-72024408D01*
X54750932Y-71169182D02*
X54645637Y-71193215D01*
X54035942Y-71151115D02*
X54171766Y-71015291D01*
X54858934Y-71169182D02*
X54750932Y-71169182D01*
X55206366Y-71367804D02*
X55145977Y-71307415D01*
X55061537Y-71240076D02*
X54964229Y-71193215D01*
X55320565Y-71549551D02*
X55273705Y-71452244D01*
X55344598Y-71762849D02*
X55344598Y-71654846D01*
X54285965Y-70833544D02*
X54309998Y-70728249D01*
X55145977Y-71307415D02*
X55061537Y-71240076D01*
X55320565Y-71868144D02*
X55344598Y-71762849D01*
X54239104Y-70930851D02*
X54285965Y-70833544D01*
X55016983Y-72296934D02*
X55026295Y-72256136D01*
X55016983Y-72338781D02*
X55016983Y-72296934D01*
X54309998Y-70728249D02*
X54309998Y-70620246D01*
X55026295Y-72379579D02*
X55016983Y-72338781D01*
X54964229Y-71193215D02*
X54858934Y-71169182D01*
X55044452Y-72417282D02*
X55026295Y-72379579D01*
X55070543Y-72449999D02*
X55044452Y-72417282D01*
X57718033Y-75097489D02*
X55070543Y-72449999D01*
X64426103Y-75097489D02*
X57718033Y-75097489D01*
X64990000Y-74922500D02*
X64601092Y-74922500D01*
X64601092Y-74922500D02*
X64426103Y-75097489D01*
X53029181Y-70408638D02*
X52312511Y-69691967D01*
X54171766Y-70333204D02*
X54111377Y-70272815D01*
X54239104Y-70417644D02*
X54171766Y-70333204D01*
X55273705Y-71965451D02*
X55320565Y-71868144D01*
X54460000Y-71290000D02*
X54077126Y-71672873D01*
X54645637Y-71193215D02*
X54548329Y-71240076D01*
X53061899Y-70434729D02*
X53029181Y-70408638D01*
X54309998Y-70620246D02*
X54285965Y-70514951D01*
X54026937Y-70205476D02*
X53929629Y-70158615D01*
X53956828Y-71795918D02*
X53709776Y-72042967D01*
X55044452Y-72218433D02*
X55070543Y-72185715D01*
X55206366Y-72049891D02*
X55273705Y-71965451D01*
X55273705Y-71452244D02*
X55206366Y-71367804D01*
X53677059Y-72069058D02*
X53639356Y-72087215D01*
X53182247Y-70462198D02*
X53140400Y-70462198D01*
X53373373Y-71871342D02*
X53382685Y-71830544D01*
X54171766Y-71015291D02*
X54239104Y-70930851D01*
X53556712Y-72096528D02*
X53515914Y-72087216D01*
X55026295Y-72256136D02*
X55044452Y-72218433D01*
X52312511Y-69691967D02*
X52312511Y-63675213D01*
X53382686Y-71953988D02*
X53373374Y-71913190D01*
X53400842Y-71792842D02*
X53426933Y-71760124D01*
X53515914Y-72087216D02*
X53478211Y-72069059D01*
X55344598Y-71654846D02*
X55320565Y-71549551D01*
X53513729Y-70205476D02*
X53429289Y-70272815D01*
X53426933Y-71760124D02*
X54035942Y-71151115D01*
X55070543Y-72185715D02*
X55206366Y-72049891D01*
X50846350Y-63163648D02*
X50571351Y-62888649D01*
X51093838Y-63163648D02*
X50846350Y-63163648D01*
X51987500Y-64057310D02*
X51093838Y-63163648D01*
X52820280Y-70659369D02*
X51987500Y-69826590D01*
X52904720Y-70726708D02*
X52820280Y-70659369D01*
X53215325Y-70797601D02*
X53107322Y-70797601D01*
X53417927Y-70726708D02*
X53320620Y-70773568D01*
X53502367Y-70659369D02*
X53417927Y-70726708D01*
X54981725Y-71808272D02*
X54999882Y-71770569D01*
X53974594Y-70695171D02*
X53974594Y-70653324D01*
X54840726Y-71955898D02*
X54955634Y-71840989D01*
X54981725Y-71609423D02*
X54955634Y-71576705D01*
X54752472Y-72061254D02*
X54819811Y-71976814D01*
X54819811Y-72658901D02*
X54752472Y-72574461D01*
X53947125Y-70574823D02*
X53921034Y-70542105D01*
X54955634Y-71840989D02*
X54981725Y-71808272D01*
X63775302Y-75466134D02*
X63743633Y-75497803D01*
X63100000Y-75422500D02*
X57583410Y-75422500D01*
X54784009Y-71504586D02*
X54743211Y-71513898D01*
X63294985Y-75577996D02*
X63280193Y-75535724D01*
X63305014Y-75709242D02*
X63300000Y-75664737D01*
X53107322Y-70797601D02*
X53002027Y-70773568D01*
X53921034Y-70806389D02*
X53947125Y-70773672D01*
X54705612Y-72477154D02*
X54681579Y-72371859D01*
X54681579Y-72371859D02*
X54681579Y-72263856D01*
X63743633Y-75497803D02*
X63719806Y-75535724D01*
X63144504Y-75427515D02*
X63100000Y-75422500D01*
X54752472Y-72574461D02*
X54705612Y-72477154D01*
X63186776Y-75442307D02*
X63144504Y-75427515D01*
X63224697Y-75466134D02*
X63186776Y-75442307D01*
X53708611Y-70479298D02*
X53670908Y-70497454D01*
X51987500Y-69826590D02*
X51987500Y-64057310D01*
X54819811Y-71976814D02*
X54840726Y-71955898D01*
X64601092Y-75597500D02*
X64426092Y-75422500D01*
X63719806Y-75535724D02*
X63705014Y-75577996D01*
X63343633Y-75789435D02*
X63319806Y-75751514D01*
X53176203Y-72233311D02*
X53108863Y-72148870D01*
X63544504Y-75859723D02*
X63500000Y-75864737D01*
X63280193Y-75535724D02*
X63256366Y-75497803D01*
X63455495Y-75859723D02*
X63413223Y-75844931D01*
X63855495Y-75427515D02*
X63813223Y-75442307D01*
X54681579Y-72263856D02*
X54705612Y-72158561D01*
X53921034Y-70542105D02*
X53902475Y-70523546D01*
X53176203Y-71551223D02*
X53197118Y-71530308D01*
X64990000Y-75597500D02*
X64601092Y-75597500D01*
X63256366Y-75497803D02*
X63224697Y-75466134D01*
X63656366Y-75789435D02*
X63624697Y-75821104D01*
X63813223Y-75442307D02*
X63775302Y-75466134D01*
X53638191Y-70523546D02*
X53502367Y-70659369D01*
X63586776Y-75844931D02*
X63544504Y-75859723D01*
X63413223Y-75844931D02*
X63375302Y-75821104D01*
X63700000Y-75622500D02*
X63700000Y-75664737D01*
X53062003Y-71732971D02*
X53108863Y-71635662D01*
X63700000Y-75664737D02*
X63694985Y-75709242D01*
X63375302Y-75821104D02*
X63343633Y-75789435D01*
X64426092Y-75422500D02*
X63900000Y-75422500D01*
X63300000Y-75622500D02*
X63294985Y-75577996D01*
X54999882Y-71647126D02*
X54981725Y-71609423D01*
X63680193Y-75751514D02*
X63656366Y-75789435D01*
X53236592Y-72293700D02*
X53176203Y-72233311D01*
X54705612Y-72158561D02*
X54752472Y-72061254D01*
X53736931Y-72407898D02*
X53631636Y-72431931D01*
X63694985Y-75709242D02*
X63680193Y-75751514D01*
X63624697Y-75821104D02*
X63586776Y-75844931D01*
X53749409Y-70469986D02*
X53708611Y-70479298D01*
X63900000Y-75422500D02*
X63855495Y-75427515D01*
X63500000Y-75864737D02*
X63455495Y-75859723D01*
X53559075Y-71168348D02*
X53921034Y-70806389D01*
X57583410Y-75422500D02*
X54819811Y-72658901D01*
X63300000Y-75664737D02*
X63300000Y-75622500D01*
X54999882Y-71770569D02*
X55009194Y-71729771D01*
X55009194Y-71729771D02*
X55009194Y-71687924D01*
X55009194Y-71687924D02*
X54999882Y-71647126D01*
X53902475Y-70523546D02*
X53869757Y-70497454D01*
X54310832Y-71920104D02*
X53927958Y-72302978D01*
X54955634Y-71576705D02*
X54937075Y-71558146D01*
X54937075Y-71558146D02*
X54904357Y-71532054D01*
X54825856Y-71504586D02*
X54784009Y-71504586D01*
X53037970Y-71946268D02*
X53037970Y-71838266D01*
X53418339Y-72407899D02*
X53321032Y-72361038D01*
X54904357Y-71532054D02*
X54866654Y-71513898D01*
X54866654Y-71513898D02*
X54825856Y-71504586D01*
X53631636Y-72431931D02*
X53523634Y-72431932D01*
X54743211Y-71513898D02*
X54705508Y-71532054D01*
X54705508Y-71532054D02*
X54672791Y-71558146D01*
X53974594Y-70653324D02*
X53965282Y-70612526D01*
X53320620Y-70773568D02*
X53215325Y-70797601D01*
X54672791Y-71558146D02*
X54310832Y-71920104D01*
X53062003Y-72051563D02*
X53037970Y-71946268D01*
X53918678Y-72293699D02*
X53834238Y-72361037D01*
X53108863Y-71635662D02*
X53176203Y-71551223D01*
X53834238Y-72361037D02*
X53736931Y-72407898D01*
X53523634Y-72431932D02*
X53418339Y-72407899D01*
X53321032Y-72361038D02*
X53236592Y-72293700D01*
X53108863Y-72148870D02*
X53062003Y-72051563D01*
X53037970Y-71838266D02*
X53062003Y-71732971D01*
X53197118Y-71530308D02*
X53559075Y-71168348D01*
X63705014Y-75577996D02*
X63700000Y-75622500D01*
X53947125Y-70773672D02*
X53965282Y-70735969D01*
X63319806Y-75751514D02*
X63305014Y-75709242D01*
X53965282Y-70612526D02*
X53947125Y-70574823D01*
X53002027Y-70773568D02*
X52904720Y-70726708D01*
X53869757Y-70497454D02*
X53832054Y-70479298D01*
X53832054Y-70479298D02*
X53791256Y-70469986D01*
X53791256Y-70469986D02*
X53749409Y-70469986D01*
X53965282Y-70735969D02*
X53974594Y-70695171D01*
X53670908Y-70497454D02*
X53638191Y-70523546D01*
X58140319Y-71826894D02*
X58055336Y-71894665D01*
X57159847Y-72226508D02*
X57227617Y-72141525D01*
X51008839Y-60081351D02*
X50761351Y-60081351D01*
X58643257Y-73016704D02*
X58624780Y-72978336D01*
X58055336Y-71894665D02*
X57670000Y-72280000D01*
X56997340Y-72598119D02*
X56978862Y-72559751D01*
X58352188Y-71763510D02*
X58246216Y-71787698D01*
X51422690Y-59667500D02*
X51008839Y-60081351D01*
X58615304Y-72936817D02*
X58615304Y-72894231D01*
X52267310Y-59667500D02*
X51422690Y-59667500D01*
X57138797Y-71518988D02*
X54072500Y-68452690D01*
X57227617Y-71625019D02*
X57159846Y-71540036D01*
X57298967Y-71828924D02*
X57274780Y-71722953D01*
X57274780Y-72043593D02*
X57298966Y-71937620D01*
X58624780Y-72852713D02*
X58643257Y-72814344D01*
X56997340Y-72395759D02*
X57023891Y-72362463D01*
X56969385Y-72475645D02*
X56978861Y-72434127D01*
X58669809Y-72781049D02*
X58805764Y-72645093D01*
X58615304Y-72894231D02*
X58624780Y-72852713D01*
X58873535Y-72043605D02*
X58805764Y-71958622D01*
X57023891Y-72362463D02*
X57159847Y-72226508D01*
X67852500Y-74412690D02*
X66737310Y-73297500D01*
X58460885Y-71763510D02*
X58352188Y-71763510D01*
X58805764Y-72645093D02*
X58873535Y-72560111D01*
X57023892Y-72631415D02*
X56997340Y-72598119D01*
X58917310Y-73297500D02*
X58669809Y-73050000D01*
X57671020Y-72281020D02*
X57306734Y-72645306D01*
X67508649Y-76391161D02*
X67852500Y-76047310D01*
X58246216Y-71787698D02*
X58148284Y-71834860D01*
X54072500Y-61472690D02*
X52267310Y-59667500D01*
X67852500Y-76047310D02*
X67852500Y-74412690D01*
X57071078Y-72671858D02*
X57037784Y-72645307D01*
X67508649Y-76638649D02*
X67508649Y-76391161D01*
X57037784Y-72645307D02*
X57023892Y-72631415D01*
X58805764Y-71958622D02*
X58749772Y-71902631D01*
X54072500Y-68452690D02*
X54072500Y-61472690D01*
X58944884Y-72356206D02*
X58944884Y-72247509D01*
X57150965Y-72699811D02*
X57109447Y-72690335D01*
X58669809Y-73050000D02*
X58643257Y-73016704D01*
X58944884Y-72247509D02*
X58920697Y-72141538D01*
X57235071Y-72690336D02*
X57193551Y-72699811D01*
X58566857Y-71787698D02*
X58460885Y-71763510D01*
X58664789Y-71834860D02*
X58566857Y-71787698D01*
X58920697Y-72462178D02*
X58944884Y-72356206D01*
X66737310Y-73297500D02*
X58917310Y-73297500D01*
X57159846Y-71540036D02*
X57138797Y-71518988D01*
X58920697Y-72141538D02*
X58873535Y-72043605D01*
X58643257Y-72814344D02*
X58669809Y-72781049D01*
X57273440Y-72671859D02*
X57235071Y-72690336D01*
X58873535Y-72560111D02*
X58920697Y-72462178D01*
X58624780Y-72978336D02*
X58615304Y-72936817D01*
X57109447Y-72690335D02*
X57071078Y-72671858D01*
X56978862Y-72559751D02*
X56969385Y-72518231D01*
X58749772Y-71902631D02*
X58664789Y-71834860D01*
X57274780Y-71722953D02*
X57227617Y-71625019D01*
X57306734Y-72645306D02*
X57273440Y-72671859D01*
X57298966Y-71937620D02*
X57298967Y-71828924D01*
X57193551Y-72699811D02*
X57150965Y-72699811D01*
X57227617Y-72141525D02*
X57274780Y-72043593D01*
X56969385Y-72518231D02*
X56969385Y-72475645D01*
X56978861Y-72434127D02*
X56997340Y-72395759D01*
X64280193Y-73735724D02*
X64256366Y-73697803D01*
X64300000Y-73864746D02*
X64300000Y-73822500D01*
X64455495Y-74059732D02*
X64413223Y-74044940D01*
X58541013Y-72153490D02*
X58507717Y-72126938D01*
X56935538Y-71782090D02*
X56908987Y-71748796D01*
X64319806Y-73951523D02*
X64305014Y-73909251D01*
X64624697Y-74021113D02*
X64586776Y-74044940D01*
X64700000Y-73864746D02*
X64694985Y-73909251D01*
X64700000Y-73822500D02*
X64700000Y-73864746D01*
X64186776Y-73642307D02*
X64144504Y-73627515D01*
X64705014Y-73777996D02*
X64700000Y-73822500D01*
X58351179Y-73173777D02*
X58304017Y-73075844D01*
X64413223Y-74044940D02*
X64375302Y-74021113D01*
X67031351Y-76161351D02*
X67278839Y-76161351D01*
X64586776Y-74044940D02*
X64544504Y-74059732D01*
X64656366Y-73989444D02*
X64624697Y-74021113D01*
X64719806Y-73735724D02*
X64705014Y-73777996D01*
X64813223Y-73642307D02*
X64775302Y-73666134D01*
X53747500Y-61607310D02*
X52132690Y-59992500D01*
X64855495Y-73627515D02*
X64813223Y-73642307D01*
X53747500Y-68587310D02*
X53747500Y-61607310D01*
X66602690Y-73622500D02*
X64900000Y-73622500D01*
X57430510Y-72963935D02*
X57332578Y-73011097D01*
X67527500Y-75912690D02*
X67527500Y-74547310D01*
X67278839Y-76161351D02*
X67527500Y-75912690D01*
X64680193Y-73951523D02*
X64656366Y-73989444D01*
X58609411Y-72280564D02*
X58599935Y-72239046D01*
X64743633Y-73697803D02*
X64719806Y-73735724D01*
X58599935Y-72239046D02*
X58581457Y-72200677D01*
X58279829Y-72969873D02*
X58279829Y-72861176D01*
X56963493Y-71861978D02*
X56954017Y-71820460D01*
X64694985Y-73909251D02*
X64680193Y-73951523D01*
X64294985Y-73777996D02*
X64280193Y-73735724D01*
X56908986Y-72017746D02*
X56935539Y-71984452D01*
X67527500Y-74547310D02*
X66602690Y-73622500D01*
X58427830Y-72098984D02*
X58385244Y-72098984D01*
X58385244Y-72098984D02*
X58343726Y-72108460D01*
X64900000Y-73622500D02*
X64855495Y-73627515D01*
X58507717Y-72126938D02*
X58469349Y-72108460D01*
X56914006Y-72963936D02*
X56829023Y-72896165D01*
X56908987Y-71748796D02*
X53747500Y-68587310D01*
X64224697Y-73666134D02*
X64186776Y-73642307D01*
X64500000Y-74064746D02*
X64455495Y-74059732D01*
X64300000Y-73822500D02*
X64294985Y-73777996D01*
X58599935Y-72364669D02*
X58609411Y-72323151D01*
X64775302Y-73666134D02*
X64743633Y-73697803D01*
X56705261Y-72238686D02*
X56773032Y-72153703D01*
X58343726Y-72108460D02*
X58305357Y-72126938D01*
X56954017Y-71820460D02*
X56935538Y-71782090D01*
X64256366Y-73697803D02*
X64224697Y-73666134D01*
X64544504Y-74059732D02*
X64500000Y-74064746D01*
X58418950Y-72572289D02*
X58554905Y-72436333D01*
X64305014Y-73909251D02*
X64300000Y-73864746D01*
X64343633Y-73989444D02*
X64319806Y-73951523D01*
X56773032Y-72153703D02*
X56794082Y-72132653D01*
X57117911Y-73035286D02*
X57011938Y-73011098D01*
X56829023Y-72896165D02*
X56773031Y-72840173D01*
X64375302Y-74021113D02*
X64343633Y-73989444D01*
X56935539Y-71984452D02*
X56954016Y-71946082D01*
X64144504Y-73627515D02*
X64100000Y-73622500D01*
X58554905Y-72167382D02*
X58541013Y-72153490D01*
X64100000Y-73622500D02*
X58782690Y-73622500D01*
X58782690Y-73622500D02*
X58418950Y-73258760D01*
X58418950Y-73258760D02*
X58351179Y-73173777D01*
X58304017Y-73075844D02*
X58279829Y-72969873D01*
X58279829Y-72861176D02*
X58304017Y-72755204D01*
X58304017Y-72755204D02*
X58351179Y-72657271D01*
X58351179Y-72657271D02*
X58418950Y-72572289D01*
X58554905Y-72436333D02*
X58581457Y-72403038D01*
X58581457Y-72403038D02*
X58599935Y-72364669D01*
X58609411Y-72323151D02*
X58609411Y-72280564D01*
X58581457Y-72200677D02*
X58554905Y-72167382D01*
X58469349Y-72108460D02*
X58427830Y-72098984D01*
X58305357Y-72126938D02*
X58272062Y-72153490D01*
X58272062Y-72153490D02*
X57907776Y-72517775D01*
X57905336Y-72514665D02*
X57520000Y-72900000D01*
X57515493Y-72896164D02*
X57430510Y-72963935D01*
X57332578Y-73011097D02*
X57226607Y-73035285D01*
X57226607Y-73035285D02*
X57117911Y-73035286D01*
X57011938Y-73011098D02*
X56914006Y-72963936D01*
X56773031Y-72840173D02*
X56705260Y-72755190D01*
X56705260Y-72755190D02*
X56658098Y-72657258D01*
X56658098Y-72657258D02*
X56633910Y-72551286D01*
X56633910Y-72551286D02*
X56633911Y-72442590D01*
X56633911Y-72442590D02*
X56658099Y-72336618D01*
X56658099Y-72336618D02*
X56705261Y-72238686D01*
X56794082Y-72132653D02*
X56908986Y-72017746D01*
X56954016Y-71946082D02*
X56963492Y-71904564D01*
X56963492Y-71904564D02*
X56963493Y-71861978D01*
X52132690Y-59992500D02*
X51557310Y-59992500D01*
X51557310Y-59992500D02*
X51238649Y-60311161D01*
X51238649Y-60311161D02*
X51238649Y-60558649D01*
X53657310Y-58337500D02*
X57592500Y-62272690D01*
X67827310Y-71317500D02*
X71671161Y-75161351D01*
X50848839Y-58571351D02*
X51082690Y-58337500D01*
X50601351Y-58571351D02*
X50848839Y-58571351D01*
X51082690Y-58337500D02*
X53657310Y-58337500D01*
X57592500Y-62272690D02*
X57592500Y-66822690D01*
X57592500Y-66822690D02*
X62087310Y-71317500D01*
X62087310Y-71317500D02*
X67827310Y-71317500D01*
X71671161Y-75161351D02*
X71918649Y-75161351D01*
D16*
X61400000Y-52320000D02*
X60420000Y-51340000D01*
X61400000Y-55150000D02*
X61400000Y-52320000D01*
X60420000Y-51340000D02*
X60420000Y-51302844D01*
X60420000Y-51302844D02*
X60278032Y-51160876D01*
X60278032Y-51160876D02*
X59889124Y-51160876D01*
X58270000Y-83320000D02*
X60475001Y-85525001D01*
X60475001Y-85525001D02*
X60475001Y-91635001D01*
X60475001Y-91635001D02*
X60750000Y-91910000D01*
X58270000Y-80250000D02*
X58270000Y-83320000D01*
X58964124Y-45725876D02*
X58995876Y-45725876D01*
X58540000Y-46150000D02*
X58964124Y-45725876D01*
X54300000Y-46150000D02*
X58540000Y-46150000D01*
D17*
X50660000Y-75810000D02*
X50660000Y-72360010D01*
X51520000Y-76670000D02*
X50660000Y-75810000D01*
X50660000Y-72360010D02*
X50670000Y-72350010D01*
D15*
X67980708Y-56489125D02*
X67937808Y-56532027D01*
X68049771Y-56402523D02*
X67980708Y-56489125D01*
X68097833Y-56302722D02*
X68049771Y-56402523D01*
X67616062Y-54828855D02*
X67550000Y-54776173D01*
X68122481Y-56194731D02*
X68097833Y-56302722D01*
X67530000Y-55320000D02*
X67963781Y-55753781D01*
X65651304Y-57215600D02*
X65616290Y-57243523D01*
X67125350Y-54914532D02*
X67135888Y-54927746D01*
X67118017Y-54899304D02*
X67125350Y-54914532D01*
X67114256Y-54865924D02*
X67114256Y-54882825D01*
X67980706Y-55789567D02*
X68049771Y-55876169D01*
X67430000Y-55220000D02*
X67544906Y-55334903D01*
X67118017Y-54849445D02*
X67114256Y-54865924D01*
X66618107Y-57699106D02*
X66507337Y-57699107D01*
X64382500Y-58477310D02*
X64382500Y-59502690D01*
X67125350Y-54834217D02*
X67118017Y-54849445D01*
X67114256Y-54882825D02*
X67118017Y-54899304D01*
X67390289Y-54627032D02*
X67373811Y-54623271D01*
X67692191Y-54865517D02*
X67616062Y-54828855D01*
X67859066Y-54884320D02*
X67774569Y-54884320D01*
X67550000Y-54776173D02*
X67533637Y-54759809D01*
X66091546Y-55948337D02*
X66102084Y-55961551D01*
X67941445Y-54865517D02*
X67859066Y-54884320D01*
X67751405Y-56649152D02*
X67643412Y-56673801D01*
X67024466Y-57427828D02*
X66955403Y-57514430D01*
X64382500Y-59502690D02*
X64641161Y-59761351D01*
X67532642Y-56673802D02*
X67424649Y-56649153D01*
X67311988Y-54644904D02*
X67135888Y-54821003D01*
X67356909Y-54623271D02*
X67340431Y-54627032D01*
X68083636Y-54776173D02*
X68017574Y-54828855D01*
X67373811Y-54623271D02*
X67356909Y-54623271D01*
X66102084Y-55961551D02*
X66385265Y-56244732D01*
X73137500Y-46000000D02*
X73137500Y-46395000D01*
X73137500Y-46395000D02*
X72942500Y-46590000D01*
X67959257Y-55768115D02*
X67980706Y-55789567D01*
X66726100Y-57674457D02*
X66618107Y-57699106D01*
X67340431Y-54627032D02*
X67325203Y-54634365D01*
X66084213Y-55883250D02*
X66080452Y-55899729D01*
X65780104Y-57186201D02*
X65735318Y-57186201D01*
X67135888Y-54927746D02*
X67419069Y-55210927D01*
X68122481Y-56083961D02*
X68122481Y-56194731D01*
X66933952Y-56793420D02*
X66955401Y-56814872D01*
X67135888Y-54821003D02*
X67125350Y-54834217D01*
X72942500Y-49917310D02*
X68083636Y-54776173D01*
X68017574Y-54828855D02*
X67941445Y-54865517D01*
X67533637Y-54759809D02*
X67418732Y-54644904D01*
X67643412Y-56673801D02*
X67532642Y-56673802D01*
X68097831Y-55975970D02*
X68122481Y-56083961D01*
X67418732Y-54644904D02*
X67405517Y-54634365D01*
X67405517Y-54634365D02*
X67390289Y-54627032D01*
X67774569Y-54884320D02*
X67692191Y-54865517D01*
X67097176Y-57220036D02*
X67072528Y-57328027D01*
X65691654Y-57196168D02*
X65651304Y-57215600D01*
X67325203Y-54634365D02*
X67311988Y-54644904D01*
X67324850Y-56601091D02*
X67238246Y-56532028D01*
X66641593Y-56501061D02*
X66933952Y-56793420D01*
X67238246Y-56532028D02*
X66384927Y-55678709D01*
X65823766Y-57196168D02*
X65780104Y-57186201D01*
X66384927Y-55678709D02*
X66371713Y-55668171D01*
X66371713Y-55668171D02*
X66356485Y-55660837D01*
X66212941Y-57557333D02*
X65899132Y-57243524D01*
X66356485Y-55660837D02*
X66340006Y-55657076D01*
X66340006Y-55657076D02*
X66323105Y-55657076D01*
X66323105Y-55657076D02*
X66306626Y-55660837D01*
X67424649Y-56649153D02*
X67324850Y-56601091D01*
X66306626Y-55660837D02*
X66291398Y-55668171D01*
X66091546Y-55868022D02*
X66084213Y-55883250D01*
X66299545Y-57626396D02*
X66212941Y-57557333D01*
X66385265Y-56244736D02*
X66641593Y-56501061D01*
X66102084Y-55854808D02*
X66091546Y-55868022D01*
X66080452Y-55916630D02*
X66084213Y-55933109D01*
X66084213Y-55933109D02*
X66091546Y-55948337D01*
X66385265Y-56244732D02*
X66385265Y-56244736D01*
X67937808Y-56532027D02*
X67851204Y-56601091D01*
X67024466Y-56901474D02*
X67072526Y-57001275D01*
X72942500Y-46590000D02*
X72942500Y-49917310D01*
X66278184Y-55678709D02*
X66102084Y-55854808D01*
X67072526Y-57001275D02*
X67097176Y-57109266D01*
X67851204Y-56601091D02*
X67751405Y-56649152D01*
X66080452Y-55899729D02*
X66080452Y-55916630D01*
X66291398Y-55668171D02*
X66278184Y-55678709D01*
X67097176Y-57109266D02*
X67097176Y-57220036D01*
X67072528Y-57328027D02*
X67024466Y-57427828D01*
X66507337Y-57699107D02*
X66399344Y-57674458D01*
X66955403Y-57514430D02*
X66912503Y-57557332D01*
X66912503Y-57557332D02*
X66825899Y-57626396D01*
X68049771Y-55876169D02*
X68097831Y-55975970D01*
X66955401Y-56814872D02*
X67024466Y-56901474D01*
X66825899Y-57626396D02*
X66726100Y-57674457D01*
X66399344Y-57674458D02*
X66299545Y-57626396D01*
X65899132Y-57243524D02*
X65864118Y-57215599D01*
X65864118Y-57215599D02*
X65823766Y-57196168D01*
X65735318Y-57186201D02*
X65691654Y-57196168D01*
X65616290Y-57243523D02*
X64382500Y-58477310D01*
X64641161Y-59761351D02*
X64888649Y-59761351D01*
X66049135Y-52469345D02*
X66039169Y-52513008D01*
X66039169Y-52380896D02*
X66049135Y-52424559D01*
X65991815Y-52588375D02*
X65956800Y-52616298D01*
X66019737Y-52340545D02*
X66039169Y-52380896D01*
X62673613Y-56831240D02*
X62665111Y-56848895D01*
X65838363Y-51991959D02*
X65828397Y-52035622D01*
X65885719Y-51916594D02*
X65857795Y-51951608D01*
X66393685Y-52080011D02*
X66350022Y-52070045D01*
X66004747Y-51859273D02*
X65961084Y-51869239D01*
X66093196Y-51869239D02*
X66049533Y-51859273D01*
X66168561Y-51916594D02*
X66133547Y-51888671D01*
X66274657Y-52022690D02*
X66168561Y-51916594D01*
X65320065Y-53260125D02*
X63130190Y-55450000D01*
X66309672Y-52050613D02*
X66274657Y-52022690D01*
X65272678Y-52557644D02*
X65262712Y-52601307D01*
X66438471Y-52080011D02*
X66393685Y-52080011D01*
X66039169Y-52513008D02*
X66019737Y-52553358D01*
X65885719Y-52199436D02*
X65991814Y-52305531D01*
X66522485Y-52050613D02*
X66482134Y-52070045D01*
X65395399Y-52434924D02*
X65355049Y-52454356D01*
X65838363Y-52124071D02*
X65857795Y-52164421D01*
X62673612Y-56773442D02*
X62677973Y-56792544D01*
X59142690Y-59602500D02*
X59501351Y-59961161D01*
X65828397Y-52080408D02*
X65838363Y-52124071D01*
X58627310Y-59602500D02*
X59142690Y-59602500D01*
X65872786Y-52645696D02*
X65828000Y-52645696D01*
X65916449Y-52635730D02*
X65872786Y-52645696D01*
X61958397Y-55260611D02*
X61915496Y-55303512D01*
X62252793Y-55118837D02*
X62144800Y-55143486D01*
X65473484Y-52946581D02*
X65483450Y-52990244D01*
X65355049Y-52454356D02*
X65320034Y-52482279D01*
X66557500Y-52022690D02*
X66522485Y-52050613D01*
X65828000Y-52645696D02*
X65784337Y-52635730D01*
X66049135Y-52424559D02*
X66049135Y-52469345D01*
X62847347Y-55450000D02*
X62657958Y-55260611D01*
X65857795Y-52164421D02*
X65885719Y-52199436D01*
X62045001Y-55191547D02*
X61958397Y-55260611D01*
X65483848Y-52424958D02*
X65439062Y-52424958D01*
X65920734Y-51888671D02*
X65885719Y-51916594D01*
X65828397Y-52035622D02*
X65828397Y-52080408D01*
X61835099Y-56799528D02*
X61756685Y-56837290D01*
X66482134Y-52070045D02*
X66438471Y-52080011D01*
X62363562Y-55118837D02*
X62252793Y-55118837D01*
X66049533Y-51859273D02*
X66004747Y-51859273D01*
X66557500Y-50395000D02*
X66557500Y-52022690D01*
X65426129Y-52871216D02*
X65454052Y-52906230D01*
X61846432Y-55390116D02*
X61798371Y-55489915D01*
X66382500Y-50220000D02*
X66557500Y-50395000D01*
X65956800Y-52616298D02*
X65916449Y-52635730D01*
X62471555Y-55143486D02*
X62363562Y-55118837D01*
X66133547Y-51888671D02*
X66093196Y-51869239D01*
X62460823Y-57044031D02*
X62441722Y-57048391D01*
X65743987Y-52616298D02*
X65708972Y-52588375D01*
X62966375Y-55507321D02*
X62922712Y-55497355D01*
X66350022Y-52070045D02*
X66309672Y-52050613D01*
X66019737Y-52553358D02*
X65991815Y-52588375D01*
X61773722Y-55708677D02*
X61798371Y-55816670D01*
X65857795Y-51951608D02*
X65838363Y-51991959D01*
X62423084Y-56510660D02*
X62652894Y-56740470D01*
X61756685Y-56837290D02*
X61688639Y-56891555D01*
X58897310Y-61167500D02*
X58232500Y-60502690D01*
X62652894Y-56740470D02*
X62665111Y-56755789D01*
X65292110Y-52730106D02*
X65320034Y-52765121D01*
X63095175Y-55477923D02*
X63054824Y-55497355D01*
X62665111Y-56755789D02*
X62673612Y-56773442D01*
X62922712Y-55497355D02*
X62882362Y-55477923D01*
X62677973Y-56812138D02*
X62673613Y-56831240D01*
X62882362Y-55477923D02*
X62847347Y-55450000D01*
X65961084Y-51869239D02*
X65920734Y-51888671D01*
X62665111Y-56848895D02*
X62652894Y-56864214D01*
X65991814Y-52305531D02*
X66019737Y-52340545D01*
X65784337Y-52635730D02*
X65743987Y-52616298D01*
X65708972Y-52588375D02*
X65602876Y-52482279D01*
X65602876Y-52482279D02*
X65567862Y-52454356D01*
X65567862Y-52454356D02*
X65527511Y-52434924D01*
X65527511Y-52434924D02*
X65483848Y-52424958D01*
X65439062Y-52424958D02*
X65395399Y-52434924D01*
X65320034Y-52482279D02*
X65292110Y-52517293D01*
X65292110Y-52517293D02*
X65272678Y-52557644D01*
X65262712Y-52601307D02*
X65262712Y-52646093D01*
X65262712Y-52646093D02*
X65272678Y-52689756D01*
X65272678Y-52689756D02*
X65292110Y-52730106D01*
X61798371Y-55816670D02*
X61846432Y-55916470D01*
X62238293Y-56891555D02*
X62170249Y-56837290D01*
X65320034Y-52765121D02*
X65426129Y-52871216D01*
X65454052Y-52906230D02*
X65473484Y-52946581D01*
X62006984Y-56780161D02*
X61919950Y-56780161D01*
X65483450Y-52990244D02*
X65483450Y-53035030D01*
X65483450Y-53035030D02*
X65473484Y-53078693D01*
X65473484Y-53078693D02*
X65454052Y-53119043D01*
X65454052Y-53119043D02*
X65426129Y-53154060D01*
X65426129Y-53154060D02*
X65320065Y-53260125D01*
X63130190Y-55450000D02*
X63095175Y-55477923D01*
X63054824Y-55497355D02*
X63011161Y-55507321D01*
X63011161Y-55507321D02*
X62966375Y-55507321D01*
X62361214Y-56448787D02*
X62423084Y-56510660D01*
X62657958Y-55260611D02*
X62571355Y-55191547D01*
X62677973Y-56792544D02*
X62677973Y-56812138D01*
X62571355Y-55191547D02*
X62471555Y-55143486D01*
X62144800Y-55143486D02*
X62045001Y-55191547D01*
X61915496Y-55303512D02*
X61846432Y-55390116D01*
X61798371Y-55489915D02*
X61773722Y-55597908D01*
X61773722Y-55597908D02*
X61773722Y-55708677D01*
X61846432Y-55916470D02*
X61915496Y-56003073D01*
X61915496Y-56003073D02*
X62361211Y-56448788D01*
X62361211Y-56448788D02*
X62361214Y-56448787D01*
X58232500Y-59997310D02*
X58627310Y-59602500D01*
X62652894Y-56864214D02*
X62493796Y-57023313D01*
X62493796Y-57023313D02*
X62478476Y-57035530D01*
X62478476Y-57035530D02*
X62460823Y-57044031D01*
X62441722Y-57048391D02*
X62422128Y-57048391D01*
X62422128Y-57048391D02*
X62403025Y-57044030D01*
X58232500Y-60502690D02*
X58232500Y-59997310D01*
X62403025Y-57044030D02*
X62385372Y-57035529D01*
X62385372Y-57035529D02*
X62370052Y-57023314D01*
X62370052Y-57023314D02*
X62238293Y-56891555D01*
X59501351Y-59961161D02*
X59501351Y-60208649D01*
X62170249Y-56837290D02*
X62091835Y-56799528D01*
X62091835Y-56799528D02*
X62006984Y-56780161D01*
X61919950Y-56780161D02*
X61835099Y-56799528D01*
X61688639Y-56891555D02*
X61671786Y-56908409D01*
X61671786Y-56908409D02*
X61017500Y-57562690D01*
X61017500Y-57562690D02*
X61017500Y-60292690D01*
X61017500Y-60292690D02*
X60142690Y-61167500D01*
X60142690Y-61167500D02*
X58897310Y-61167500D01*
X62119585Y-57254904D02*
X62004681Y-57140000D01*
X62991585Y-56930709D02*
X62953824Y-57009123D01*
X62285784Y-55454550D02*
X62242121Y-55464515D01*
X61934567Y-57117500D02*
X61916914Y-57126001D01*
X62991584Y-56673975D02*
X63010951Y-56758826D01*
X58762690Y-61492500D02*
X57907500Y-60637310D01*
X59731161Y-59731351D02*
X59978649Y-59731351D01*
X60277310Y-61492500D02*
X58762690Y-61492500D01*
X62475442Y-57381369D02*
X62388408Y-57381369D01*
X61342500Y-60427310D02*
X60277310Y-61492500D01*
X58492690Y-59277500D02*
X59277310Y-59277500D01*
X61342500Y-57697310D02*
X61342500Y-60427310D01*
X61916914Y-57126001D02*
X61901595Y-57138218D01*
X61953669Y-57113141D02*
X61934567Y-57117500D01*
X61973263Y-57113141D02*
X61953669Y-57113141D01*
X66882500Y-52157310D02*
X63338548Y-55701260D01*
X61997655Y-57128500D02*
X61980000Y-57120000D01*
X62138832Y-55759698D02*
X62166756Y-55794713D01*
X62374233Y-55464515D02*
X62330570Y-55454550D01*
X62109434Y-55630899D02*
X62109434Y-55675685D01*
X57907500Y-60637310D02*
X57907500Y-59862690D01*
X62109434Y-55675685D02*
X62119400Y-55719348D01*
X62388408Y-57381369D02*
X62303557Y-57362002D01*
X62414584Y-55483947D02*
X62374233Y-55464515D01*
X63010951Y-56758826D02*
X63010952Y-56845858D01*
X62725591Y-55770324D02*
X62638988Y-55701260D01*
X62330570Y-55454550D02*
X62285784Y-55454550D01*
X59277310Y-59277500D02*
X59731161Y-59731351D01*
X62201771Y-55483947D02*
X62166756Y-55511871D01*
X63251945Y-55770324D02*
X63152145Y-55818385D01*
X62449599Y-55511871D02*
X62414584Y-55483947D01*
X67057500Y-50220000D02*
X66882500Y-50395000D01*
X62156854Y-57276855D02*
X62140000Y-57260000D01*
X62638988Y-55701260D02*
X62449599Y-55511871D01*
X62225143Y-57324240D02*
X62157097Y-57269977D01*
X62166756Y-55511871D02*
X62138832Y-55546885D01*
X62706751Y-57269977D02*
X62638707Y-57324240D01*
X62825391Y-55818385D02*
X62725591Y-55770324D01*
X63044153Y-55843034D02*
X62933384Y-55843034D01*
X62242121Y-55464515D02*
X62201771Y-55483947D01*
X66882500Y-50395000D02*
X66882500Y-52157310D01*
X62933384Y-55843034D02*
X62825391Y-55818385D01*
X62560293Y-57362002D02*
X62475442Y-57381369D01*
X62166756Y-55787197D02*
X62899557Y-56520000D01*
X57907500Y-59862690D02*
X58492690Y-59277500D01*
X61901595Y-57138218D02*
X61342500Y-57697310D01*
X62899557Y-56527516D02*
X62953822Y-56595561D01*
X63152145Y-55818385D02*
X63044153Y-55843034D01*
X62119400Y-55719348D02*
X62138832Y-55759698D01*
X62020000Y-57152217D02*
X62004681Y-57140000D01*
X62953822Y-56595561D02*
X62991584Y-56673975D01*
X62138832Y-55546885D02*
X62119400Y-55587236D01*
X63010952Y-56845858D02*
X62991585Y-56930709D01*
X62119400Y-55587236D02*
X62109434Y-55630899D01*
X62953824Y-57009123D02*
X62899559Y-57077168D01*
X62899559Y-57077168D02*
X62706751Y-57269977D01*
X62638707Y-57324240D02*
X62560293Y-57362002D01*
X61980449Y-57127820D02*
X61961347Y-57123460D01*
X63338548Y-55701260D02*
X63251945Y-55770324D01*
X62303557Y-57362002D02*
X62225143Y-57324240D01*
X61419806Y-63819717D02*
X61443633Y-63781796D01*
X61405014Y-63861989D02*
X61419806Y-63819717D01*
X60924697Y-63750127D02*
X60956366Y-63781796D01*
X61400000Y-63906493D02*
X61405014Y-63861989D01*
X60580193Y-64174277D02*
X60594985Y-64132005D01*
X60328649Y-62908649D02*
X60081161Y-62908649D01*
X61394985Y-64132005D02*
X61400000Y-64087500D01*
X60886776Y-63726300D02*
X60924697Y-63750127D01*
X62000000Y-64287500D02*
X62782690Y-64287500D01*
X61286776Y-64267694D02*
X61324697Y-64243867D01*
X69657500Y-50832690D02*
X69657500Y-50255000D01*
X61200000Y-64287500D02*
X61244504Y-64282486D01*
X61155495Y-64282486D02*
X61200000Y-64287500D01*
X60081161Y-62908649D02*
X59572500Y-63417310D01*
X61113223Y-64267694D02*
X61155495Y-64282486D01*
X60600000Y-63906493D02*
X60605014Y-63861989D01*
X60755495Y-63711508D02*
X60800000Y-63706493D01*
X61075302Y-64243867D02*
X61113223Y-64267694D01*
X61000000Y-64087500D02*
X61005014Y-64132005D01*
X60675302Y-63750127D02*
X60713223Y-63726300D01*
X61000000Y-63906493D02*
X61000000Y-64087500D01*
X61043633Y-64212198D02*
X61075302Y-64243867D01*
X60994985Y-63861989D02*
X61000000Y-63906493D01*
X61805014Y-64132005D02*
X61819806Y-64174277D01*
X60980193Y-63819717D02*
X60994985Y-63861989D01*
X61800000Y-64087500D02*
X61805014Y-64132005D01*
X62782690Y-64287500D02*
X63187500Y-63882690D01*
X60524697Y-64243867D02*
X60556366Y-64212198D01*
X61356366Y-64212198D02*
X61380193Y-64174277D01*
X59572500Y-64052690D02*
X59807310Y-64287500D01*
X60444504Y-64282486D02*
X60486776Y-64267694D01*
X61794985Y-63861989D02*
X61800000Y-63906493D01*
X61324697Y-64243867D02*
X61356366Y-64212198D01*
X60800000Y-63706493D02*
X60844504Y-63711508D01*
X61955495Y-64282486D02*
X62000000Y-64287500D01*
X60844504Y-63711508D02*
X60886776Y-63726300D01*
X59807310Y-64287500D02*
X60400000Y-64287500D01*
X60956366Y-63781796D02*
X60980193Y-63819717D01*
X61005014Y-64132005D02*
X61019806Y-64174277D01*
X60556366Y-64212198D02*
X60580193Y-64174277D01*
X61400000Y-64087500D02*
X61400000Y-63906493D01*
X61019806Y-64174277D02*
X61043633Y-64212198D01*
X61380193Y-64174277D02*
X61394985Y-64132005D01*
X61913223Y-64267694D02*
X61955495Y-64282486D01*
X60400000Y-64287500D02*
X60444504Y-64282486D01*
X60643633Y-63781796D02*
X60675302Y-63750127D01*
X59572500Y-63417310D02*
X59572500Y-64052690D01*
X60605014Y-63861989D02*
X60619806Y-63819717D01*
X61843633Y-64212198D02*
X61875302Y-64243867D01*
X60619806Y-63819717D02*
X60643633Y-63781796D01*
X61875302Y-64243867D02*
X61913223Y-64267694D01*
X60594985Y-64132005D02*
X60600000Y-64087500D01*
X60600000Y-64087500D02*
X60600000Y-63906493D01*
X60713223Y-63726300D02*
X60755495Y-63711508D01*
X61244504Y-64282486D02*
X61286776Y-64267694D01*
X60486776Y-64267694D02*
X60524697Y-64243867D01*
X61443633Y-63781796D02*
X61475302Y-63750127D01*
X61475302Y-63750127D02*
X61513223Y-63726300D01*
X61513223Y-63726300D02*
X61555495Y-63711508D01*
X61555495Y-63711508D02*
X61600000Y-63706493D01*
X61600000Y-63706493D02*
X61644504Y-63711508D01*
X61644504Y-63711508D02*
X61686776Y-63726300D01*
X61686776Y-63726300D02*
X61724697Y-63750127D01*
X61724697Y-63750127D02*
X61756366Y-63781796D01*
X61756366Y-63781796D02*
X61780193Y-63819717D01*
X61780193Y-63819717D02*
X61794985Y-63861989D01*
X61800000Y-63906493D02*
X61800000Y-64087500D01*
X61819806Y-64174277D02*
X61843633Y-64212198D01*
X63187500Y-63882690D02*
X63187500Y-57302690D01*
X63187500Y-57302690D02*
X69657500Y-50832690D01*
X69657500Y-50255000D02*
X69482500Y-50080000D01*
X63512500Y-64017310D02*
X63512500Y-57437310D01*
X69982500Y-50255000D02*
X70157500Y-50080000D01*
X69982500Y-50967310D02*
X69982500Y-50255000D01*
X63512500Y-57437310D02*
X69982500Y-50967310D01*
X62917310Y-64612500D02*
X63512500Y-64017310D01*
X59672690Y-64612500D02*
X62917310Y-64612500D01*
X59247500Y-64187310D02*
X59672690Y-64612500D01*
X59247500Y-63282690D02*
X59247500Y-64187310D01*
X59851351Y-62431351D02*
X59851351Y-62678839D01*
X59851351Y-62678839D02*
X59247500Y-63282690D01*
X64057500Y-58342690D02*
X64057500Y-59637310D01*
X65386480Y-57013713D02*
X64057500Y-58342690D01*
X65702327Y-56850488D02*
X65594334Y-56875137D01*
X65494533Y-56923199D02*
X65407931Y-56992262D01*
X66107491Y-56992263D02*
X66020887Y-56923199D01*
X66456316Y-57333995D02*
X66421300Y-57306072D01*
X66540328Y-57363394D02*
X66496666Y-57353427D01*
X65594334Y-56875137D02*
X65494533Y-56923199D01*
X66669128Y-57333996D02*
X66628778Y-57353427D01*
X66704142Y-57306072D02*
X66669128Y-57333996D01*
X66761464Y-57187043D02*
X66751497Y-57230707D01*
X66732066Y-57058243D02*
X66751497Y-57098595D01*
X65872274Y-56200000D02*
X66704142Y-57031869D01*
X65855911Y-56174997D02*
X65872274Y-56191361D01*
X65803228Y-56108935D02*
X65855911Y-56174997D01*
X65766566Y-56032806D02*
X65803228Y-56108935D01*
X65747764Y-55950428D02*
X65766566Y-56032806D01*
X66751497Y-57230707D02*
X66732065Y-57271057D01*
X66064737Y-55432536D02*
X65855911Y-55641361D01*
X66206929Y-55343191D02*
X66130800Y-55379853D01*
X66289307Y-55324389D02*
X66206929Y-55343191D01*
X66373804Y-55324389D02*
X66289307Y-55324389D01*
X66456182Y-55343191D02*
X66373804Y-55324389D01*
X66532311Y-55379853D02*
X66456182Y-55343191D01*
X67446605Y-56280767D02*
X66598374Y-55432536D01*
X67521971Y-56328122D02*
X67481621Y-56308690D01*
X67694433Y-56308691D02*
X67654083Y-56328122D01*
X67610419Y-56338089D02*
X67565633Y-56338089D01*
X67654083Y-56328122D02*
X67610419Y-56338089D01*
X67786769Y-56161738D02*
X67776802Y-56205402D01*
X67786769Y-56116952D02*
X67786769Y-56161738D01*
X67776802Y-56073290D02*
X67786769Y-56116952D01*
X67757371Y-56032938D02*
X67776802Y-56073290D01*
X67295666Y-55564144D02*
X67729447Y-55997925D01*
X67180763Y-55449238D02*
X67295666Y-55564144D01*
X67189259Y-55440738D02*
X67180763Y-55449238D01*
X67565633Y-56338089D02*
X67521971Y-56328122D01*
X66906078Y-55157557D02*
X67189259Y-55440738D01*
X66421300Y-57306072D02*
X66107491Y-56992263D01*
X66889715Y-55141193D02*
X66906078Y-55157557D01*
X66837032Y-54673619D02*
X66800370Y-54749748D01*
X67082178Y-54415095D02*
X66889715Y-54607557D01*
X67098541Y-54398731D02*
X67082178Y-54415095D01*
X67164603Y-54346049D02*
X67098541Y-54398731D01*
X66751497Y-57098595D02*
X66761464Y-57142257D01*
X66781568Y-54832127D02*
X66781568Y-54916624D01*
X67407608Y-54290584D02*
X67323111Y-54290584D01*
X67489986Y-54309387D02*
X67407608Y-54290584D01*
X67566115Y-54346049D02*
X67489986Y-54309387D01*
X67632177Y-54398731D02*
X67566115Y-54346049D01*
X67763446Y-54530000D02*
X67632177Y-54398731D01*
X65766566Y-55783552D02*
X65747764Y-55865931D01*
X67791889Y-54547871D02*
X67776661Y-54540538D01*
X66781568Y-54916624D02*
X66800370Y-54999002D01*
X67808367Y-54551632D02*
X67791889Y-54547871D01*
X72617500Y-49782690D02*
X67870190Y-54530000D01*
X72617500Y-46590000D02*
X72617500Y-49782690D01*
X72462500Y-46435000D02*
X72617500Y-46590000D01*
X66800370Y-54749748D02*
X66781568Y-54832127D01*
X66704142Y-57023230D02*
X66732066Y-57058243D01*
X67240732Y-54309387D02*
X67164603Y-54346049D01*
X67323111Y-54290584D02*
X67240732Y-54309387D01*
X67825269Y-54551632D02*
X67808367Y-54551632D01*
X67729447Y-56280767D02*
X67694433Y-56308691D01*
X67856975Y-54540538D02*
X67841747Y-54547871D01*
X64411351Y-59991161D02*
X64411351Y-60238649D01*
X67841747Y-54547871D02*
X67825269Y-54551632D01*
X66130800Y-55379853D02*
X66064737Y-55432536D01*
X66761464Y-57142257D02*
X66761464Y-57187043D01*
X65921088Y-56875138D02*
X65813095Y-56850489D01*
X64057500Y-59637310D02*
X64411351Y-59991161D01*
X66496666Y-57353427D02*
X66456316Y-57333995D01*
X66800370Y-54999002D02*
X66837032Y-55075131D01*
X66598374Y-55432536D02*
X66532311Y-55379853D01*
X67870190Y-54530000D02*
X67856975Y-54540538D01*
X66889715Y-54607557D02*
X66837032Y-54673619D01*
X66020887Y-56923199D02*
X65921088Y-56875138D01*
X66585114Y-57363394D02*
X66540328Y-57363394D01*
X72462500Y-46000000D02*
X72462500Y-46435000D01*
X66837032Y-55075131D02*
X66889715Y-55141193D01*
X66628778Y-57353427D02*
X66585114Y-57363394D01*
X67757370Y-56245752D02*
X67729447Y-56280767D01*
X65747764Y-55865931D02*
X65747764Y-55950428D01*
X67776802Y-56205402D02*
X67757370Y-56245752D01*
X65813095Y-56850489D02*
X65702327Y-56850488D01*
X66732065Y-57271057D02*
X66704142Y-57306072D01*
X67481621Y-56308690D02*
X67446605Y-56280767D01*
X65803228Y-55707423D02*
X65766566Y-55783552D01*
X67776661Y-54540538D02*
X67763446Y-54530000D01*
X67729447Y-55997925D02*
X67757371Y-56032938D01*
X65407931Y-56992262D02*
X65386480Y-57013713D01*
X65855911Y-55641361D02*
X65803228Y-55707423D01*
X46654986Y-40354820D02*
X46654986Y-40594838D01*
X48367310Y-38487500D02*
X46682690Y-38487500D01*
X46187500Y-38982690D02*
X46187500Y-39887334D01*
X75937500Y-56912500D02*
X76967310Y-56912500D01*
X49062500Y-42032690D02*
X49062500Y-39182690D01*
X78562500Y-55317310D02*
X78562500Y-52682690D01*
X59832690Y-42987500D02*
X50017310Y-42987500D01*
X74997079Y-57354610D02*
X75495390Y-57354610D01*
X75495390Y-57354610D02*
X75937500Y-56912500D01*
X76967310Y-56912500D02*
X78562500Y-55317310D01*
X78562500Y-52682690D02*
X74462500Y-48582690D01*
X71467310Y-42287500D02*
X60532690Y-42287500D01*
X74462500Y-48582690D02*
X74462500Y-45282690D01*
X74462500Y-45282690D02*
X71467310Y-42287500D01*
X60532690Y-42287500D02*
X59832690Y-42987500D01*
X50017310Y-42987500D02*
X49062500Y-42032690D01*
X49062500Y-39182690D02*
X48367310Y-38487500D01*
X46682690Y-38487500D02*
X46187500Y-38982690D01*
X46187500Y-39887334D02*
X46654986Y-40354820D01*
X77464336Y-52204268D02*
X77423986Y-52223700D01*
X77552786Y-52194303D02*
X77508000Y-52194303D01*
X77671814Y-52251624D02*
X77636800Y-52223701D01*
X77508000Y-52194303D02*
X77464336Y-52204268D01*
X77729134Y-52370652D02*
X77719169Y-52326989D01*
X77699738Y-52286639D02*
X77671814Y-52251624D01*
X77729135Y-52415438D02*
X77729134Y-52370652D01*
X77719170Y-52459101D02*
X77729135Y-52415438D01*
X77201494Y-53111278D02*
X77201494Y-53066492D01*
X77506645Y-53258232D02*
X77466293Y-53277663D01*
X77699737Y-52499451D02*
X77719170Y-52459101D01*
X77211461Y-53154942D02*
X77201494Y-53111278D01*
X77671814Y-52534467D02*
X77699737Y-52499451D01*
X76975973Y-52664621D02*
X76940959Y-52692546D01*
X46817310Y-38812500D02*
X46512500Y-39117310D01*
X77423986Y-52223700D02*
X77388972Y-52251625D01*
X78073686Y-52759989D02*
X78030022Y-52769954D01*
X74137500Y-45417310D02*
X71332690Y-42612500D01*
X77211461Y-53022830D02*
X77230893Y-52982480D01*
X77293831Y-53258231D02*
X77258817Y-53230308D01*
X76900607Y-52711977D02*
X76856944Y-52721942D01*
X48737500Y-42167310D02*
X48737500Y-39317310D01*
X77201494Y-53066492D02*
X77211461Y-53022830D01*
X59967310Y-43312500D02*
X49882690Y-43312500D01*
X77388972Y-52251625D02*
X76975973Y-52664621D01*
X78030022Y-52769954D02*
X77989672Y-52789386D01*
X78237500Y-52817310D02*
X78202486Y-52789387D01*
X76200000Y-56587500D02*
X76832690Y-56587500D01*
X60667310Y-42612500D02*
X59967310Y-43312500D01*
X78162134Y-52769954D02*
X78118472Y-52759989D01*
X77636800Y-52223701D02*
X77596448Y-52204268D01*
X77134052Y-51720953D02*
X77106128Y-51685938D01*
X77258816Y-52947464D02*
X77671814Y-52534467D01*
X78202486Y-52789387D02*
X78162134Y-52769954D01*
X76832690Y-56587500D02*
X78237500Y-55182690D01*
X76812160Y-52721943D02*
X76768497Y-52711978D01*
X77466293Y-53277663D02*
X77422630Y-53287628D01*
X78118472Y-52759989D02*
X78073686Y-52759989D01*
X76856944Y-52721942D02*
X76812160Y-52721943D01*
X78237500Y-55182690D02*
X78237500Y-52817310D01*
X77596448Y-52204268D02*
X77552786Y-52194303D01*
X77989672Y-52789386D02*
X77954658Y-52817311D01*
X77954658Y-52817311D02*
X77541659Y-53230307D01*
X77541659Y-53230307D02*
X77506645Y-53258232D01*
X77377846Y-53287629D02*
X77334183Y-53277664D01*
X77422630Y-53287628D02*
X77377846Y-53287629D01*
X76940959Y-52692546D02*
X76900607Y-52711977D01*
X77334183Y-53277664D02*
X77293831Y-53258231D01*
X77719169Y-52326989D02*
X77699738Y-52286639D01*
X77230893Y-52982480D02*
X77258816Y-52947464D01*
X76645775Y-52457144D02*
X76665207Y-52416794D01*
X77258817Y-53230308D02*
X77230892Y-53195292D01*
X77230892Y-53195292D02*
X77211461Y-53154942D01*
X76768497Y-52711978D02*
X76728145Y-52692545D01*
X77106128Y-51968781D02*
X77134051Y-51933765D01*
X76728145Y-52692545D02*
X76693131Y-52664622D01*
X76693131Y-52664622D02*
X76665206Y-52629606D01*
X76665206Y-52629606D02*
X76645775Y-52589256D01*
X77106128Y-51685938D02*
X74137500Y-48717310D01*
X76645775Y-52589256D02*
X76635808Y-52545592D01*
X76635808Y-52545592D02*
X76635808Y-52500806D01*
X76635808Y-52500806D02*
X76645775Y-52457144D01*
X77163448Y-51804966D02*
X77153483Y-51761303D01*
X76665207Y-52416794D02*
X76693130Y-52381778D01*
X76693130Y-52381778D02*
X77106128Y-51968781D01*
X77134051Y-51933765D02*
X77153484Y-51893415D01*
X77153484Y-51893415D02*
X77163449Y-51849752D01*
X77163449Y-51849752D02*
X77163448Y-51804966D01*
X77153483Y-51761303D02*
X77134052Y-51720953D01*
X74137500Y-48717310D02*
X74137500Y-45417310D01*
X71332690Y-42612500D02*
X60667310Y-42612500D01*
X49882690Y-43312500D02*
X48737500Y-42167310D01*
X48737500Y-39317310D02*
X48232690Y-38812500D01*
X48232690Y-38812500D02*
X46817310Y-38812500D01*
X46512500Y-39117310D02*
X46512500Y-39752714D01*
X46512500Y-39752714D02*
X46884796Y-40125010D01*
X46884796Y-40125010D02*
X47139654Y-40125010D01*
X75937500Y-56587500D02*
X75500000Y-56150000D01*
X75500000Y-56150000D02*
X75000000Y-56150000D01*
X76200000Y-56587500D02*
X76100000Y-56587500D01*
X76200000Y-56587500D02*
X75937500Y-56587500D01*
D16*
X65880000Y-49400000D02*
X65730000Y-49550000D01*
X65880000Y-47980000D02*
X65880000Y-49400000D01*
X70450000Y-43410000D02*
X65880000Y-47980000D01*
X70980000Y-43410000D02*
X70450000Y-43410000D01*
X61160000Y-56057603D02*
X61222746Y-55994857D01*
X61160000Y-56290000D02*
X61160000Y-56057603D01*
X60760000Y-56690000D02*
X61160000Y-56290000D01*
X59510000Y-56690000D02*
X60760000Y-56690000D01*
X58470000Y-55650000D02*
X59510000Y-56690000D01*
X58470000Y-52556998D02*
X58470000Y-55650000D01*
X58094999Y-50471997D02*
X59045001Y-51421999D01*
X57243002Y-49050000D02*
X58094999Y-49901997D01*
X59045001Y-51981997D02*
X58470000Y-52556998D01*
X59045001Y-51421999D02*
X59045001Y-51981997D01*
X55520000Y-49050000D02*
X57243002Y-49050000D01*
X58094999Y-49901997D02*
X58094999Y-50471997D01*
X52496998Y-49050000D02*
X55520000Y-49050000D01*
X52496998Y-49050000D02*
X52521999Y-49075001D01*
X47905001Y-49194999D02*
X52351999Y-49194999D01*
X47480000Y-49620000D02*
X47905001Y-49194999D01*
X52351999Y-49194999D02*
X52496998Y-49050000D01*
X45324999Y-37394999D02*
X44424999Y-36494999D01*
X44424999Y-36494999D02*
X44424999Y-35621999D01*
X44846997Y-35200001D02*
X47550001Y-35200001D01*
X44424999Y-35621999D02*
X44846997Y-35200001D01*
X47550001Y-35200001D02*
X47825000Y-35475000D01*
X46050000Y-44400000D02*
X45324999Y-43674999D01*
X45324999Y-43674999D02*
X45324999Y-37394999D01*
X59300000Y-52430000D02*
X59300000Y-54800000D01*
X59300000Y-54800000D02*
X60610000Y-56110000D01*
X44924999Y-49244999D02*
X45805001Y-50125001D01*
X45805001Y-50125001D02*
X47826091Y-50125001D01*
X48091092Y-49860000D02*
X48480000Y-49860000D01*
X47826091Y-50125001D02*
X48091092Y-49860000D01*
X44650000Y-48675000D02*
X44924999Y-48949999D01*
X44924999Y-48949999D02*
X44924999Y-49244999D01*
X46050000Y-44400000D02*
X44650000Y-45800000D01*
X44650000Y-45800000D02*
X44650000Y-48675000D01*
X55640000Y-56340000D02*
X55640000Y-56525000D01*
X55240000Y-55940000D02*
X55640000Y-56340000D01*
X47036998Y-55940000D02*
X55240000Y-55940000D01*
X46490000Y-56590000D02*
X46614999Y-56465001D01*
X46390000Y-56590000D02*
X46490000Y-56590000D01*
X46614999Y-56465001D02*
X46614999Y-56361999D01*
X46614999Y-56361999D02*
X47036998Y-55940000D01*
X51280000Y-75300000D02*
X55930000Y-75300000D01*
X55930000Y-75300000D02*
X59330000Y-78700000D01*
X60110000Y-80840000D02*
X60110000Y-81180000D01*
X62270000Y-78680000D02*
X60110000Y-80840000D01*
X70950000Y-78680000D02*
X62270000Y-78680000D01*
X74660000Y-74970000D02*
X70950000Y-78680000D01*
X74660000Y-72216998D02*
X74660000Y-74970000D01*
X73454999Y-71804999D02*
X74248001Y-71804999D01*
X71612501Y-69962501D02*
X73454999Y-71804999D01*
X74248001Y-71804999D02*
X74660000Y-72216998D01*
X68800000Y-68680000D02*
X70082501Y-69962501D01*
X70082501Y-69962501D02*
X71612501Y-69962501D01*
X68800000Y-61230000D02*
X68800000Y-68680000D01*
X73754999Y-56275001D02*
X68800000Y-61230000D01*
X74128001Y-56275001D02*
X73754999Y-56275001D01*
X74375001Y-56014999D02*
X74375001Y-56028001D01*
X74375001Y-56028001D02*
X74128001Y-56275001D01*
X74000000Y-55150000D02*
X74375001Y-55525001D01*
X74375001Y-55525001D02*
X74375001Y-56014999D01*
X73100000Y-55150000D02*
X74000000Y-55150000D01*
X61960000Y-78360000D02*
X59220000Y-81100000D01*
X70720000Y-78360000D02*
X61960000Y-78360000D01*
X73390000Y-75690000D02*
X70720000Y-78360000D01*
X73390000Y-72436998D02*
X73390000Y-75690000D01*
X70061078Y-70330000D02*
X71283002Y-70330000D01*
X71283002Y-70330000D02*
X73390000Y-72436998D01*
X68436316Y-59493684D02*
X68436316Y-68705238D01*
X68436316Y-68705238D02*
X70061078Y-70330000D01*
X55300000Y-83000000D02*
X55300000Y-88710000D01*
X55300000Y-88710000D02*
X58040000Y-91450000D01*
X52450000Y-81525010D02*
X53825010Y-81525010D01*
X53825010Y-81525010D02*
X55300000Y-83000000D01*
X52450000Y-81525010D02*
X52575010Y-81525010D01*
X51050000Y-81525010D02*
X52450000Y-81525010D01*
X45300000Y-59500000D02*
X48024990Y-62224990D01*
X48024990Y-62224990D02*
X48024990Y-79363912D01*
X48024990Y-79363912D02*
X50186088Y-81525010D01*
X50186088Y-81525010D02*
X51050000Y-81525010D01*
X43800000Y-59500000D02*
X45300000Y-59500000D01*
X54950000Y-89940000D02*
X55870000Y-90860000D01*
X54950000Y-83150000D02*
X54950000Y-89940000D01*
X53600020Y-81800020D02*
X54950000Y-83150000D01*
X52461098Y-81800020D02*
X53600020Y-81800020D01*
X50072176Y-81800020D02*
X52461098Y-81800020D01*
X47749980Y-79477824D02*
X50072176Y-81800020D01*
X47749980Y-62449980D02*
X47749980Y-79477824D01*
X45300000Y-60000000D02*
X47749980Y-62449980D01*
X43300000Y-60000000D02*
X45300000Y-60000000D01*
X55680000Y-81250000D02*
X56360000Y-81930000D01*
X56360000Y-88220000D02*
X57050000Y-88910000D01*
X54950000Y-81250000D02*
X55680000Y-81250000D01*
X56360000Y-81930000D02*
X56360000Y-88220000D01*
X57050000Y-88910000D02*
X58040000Y-88910000D01*
X50300000Y-81250000D02*
X54950000Y-81250000D01*
X54950000Y-81250000D02*
X55050000Y-81250000D01*
X48300000Y-79250000D02*
X50300000Y-81250000D01*
X48300000Y-62000000D02*
X48300000Y-79250000D01*
X45300000Y-59000000D02*
X48300000Y-62000000D01*
X43300000Y-59000000D02*
X45300000Y-59000000D01*
X50413913Y-80974989D02*
X56464989Y-80974989D01*
X48575011Y-61886087D02*
X48575011Y-79136087D01*
X43800000Y-58500000D02*
X45188924Y-58500000D01*
X48575011Y-79136087D02*
X50413913Y-80974989D01*
X45188924Y-58500000D02*
X48575011Y-61886087D01*
X57210000Y-81720000D02*
X57210000Y-86810000D01*
X56464989Y-80974989D02*
X57210000Y-81720000D01*
X57210000Y-86810000D02*
X58040000Y-87640000D01*
X34300000Y-77375000D02*
X34300000Y-56683002D01*
X46345001Y-33755001D02*
X58684999Y-33755001D01*
X30030000Y-79760000D02*
X31230001Y-78559999D01*
X34234999Y-37111999D02*
X39571999Y-31774999D01*
X39571999Y-31774999D02*
X44364999Y-31774999D01*
X34234999Y-56618001D02*
X34234999Y-37111999D01*
X31230001Y-78559999D02*
X33115001Y-78559999D01*
X58684999Y-33755001D02*
X60940000Y-31500000D01*
X60940000Y-31500000D02*
X60940000Y-31040000D01*
X44364999Y-31774999D02*
X46345001Y-33755001D01*
X34300000Y-56683002D02*
X34234999Y-56618001D01*
X33115001Y-78559999D02*
X34300000Y-77375000D01*
X47881999Y-32654999D02*
X47086998Y-33450000D01*
X31230001Y-76019999D02*
X31029999Y-76220001D01*
X47086998Y-33450000D02*
X46586998Y-33450000D01*
X46586998Y-33450000D02*
X44636987Y-31499989D01*
X44636987Y-31499989D02*
X39458087Y-31499989D01*
X39458087Y-31499989D02*
X33959989Y-36998087D01*
X31029999Y-76220001D02*
X30030000Y-77220000D01*
X33959989Y-36998087D02*
X33959989Y-75495011D01*
X33959989Y-75495011D02*
X33435001Y-76019999D01*
X33435001Y-76019999D02*
X31230001Y-76019999D01*
X50469900Y-33479991D02*
X58253009Y-33479991D01*
X60464999Y-30811999D02*
X60751988Y-30525010D01*
X47881999Y-32654999D02*
X49644908Y-32654999D01*
X61485010Y-30525010D02*
X61675001Y-30715001D01*
X61675001Y-30715001D02*
X61950000Y-30990000D01*
X58253009Y-33479991D02*
X60464999Y-31268001D01*
X60464999Y-31268001D02*
X60464999Y-30811999D01*
X49644908Y-32654999D02*
X50469900Y-33479991D01*
X60751988Y-30525010D02*
X61485010Y-30525010D01*
X47230000Y-33306998D02*
X47881999Y-32654999D01*
X47230000Y-33310000D02*
X47230000Y-33306998D01*
X37064999Y-59174999D02*
X36474999Y-59174999D01*
X47150000Y-63650000D02*
X46875001Y-63924999D01*
X36474999Y-59174999D02*
X36260000Y-58960000D01*
X39069978Y-61179978D02*
X37064999Y-59174999D01*
X46875001Y-63924999D02*
X41224999Y-63924999D01*
X41224999Y-63924999D02*
X40475011Y-63175011D01*
X40475011Y-63175011D02*
X39546086Y-63175010D01*
X39546086Y-63175010D02*
X39069978Y-62698902D01*
X39069978Y-62698902D02*
X39069978Y-61179978D01*
X36260000Y-58960000D02*
X36200000Y-58900000D01*
X36260000Y-58960000D02*
X36260000Y-58884659D01*
X39344989Y-62584989D02*
X39344989Y-60877729D01*
X37456842Y-58989582D02*
X37181843Y-58714583D01*
X39660000Y-62900000D02*
X39344989Y-62584989D01*
X39344989Y-60877729D02*
X37456842Y-58989582D01*
X47200000Y-62900000D02*
X39660000Y-62900000D01*
X39620000Y-58356998D02*
X40158916Y-57818082D01*
X39620000Y-62000000D02*
X39620000Y-58356998D01*
X46600000Y-62300000D02*
X46290000Y-62610000D01*
X40230000Y-62610000D02*
X39620000Y-62000000D01*
X46290000Y-62610000D02*
X40230000Y-62610000D01*
X40158916Y-57818082D02*
X40158916Y-57648667D01*
X47474970Y-67263898D02*
X47474970Y-79591736D01*
X48960000Y-81076766D02*
X48960000Y-94650000D01*
X48960000Y-94650000D02*
X48510000Y-95100000D01*
X47390536Y-67179464D02*
X47474970Y-67263898D01*
X47474970Y-79591736D02*
X48960000Y-81076766D01*
X47274980Y-67063908D02*
X47390536Y-67179464D01*
X47390536Y-67179464D02*
X47409464Y-67179464D01*
X47409464Y-67179464D02*
X47474970Y-67244970D01*
X47274980Y-66675000D02*
X47274980Y-67063908D01*
X41000000Y-33130000D02*
X40960000Y-33130000D01*
X41470000Y-33600000D02*
X41000000Y-33130000D01*
X41470000Y-34973002D02*
X41470000Y-33600000D01*
X42715001Y-42934999D02*
X42715001Y-36218003D01*
X42715001Y-36218003D02*
X41470000Y-34973002D01*
X41334999Y-44315001D02*
X42715001Y-42934999D01*
X42385001Y-52375001D02*
X41334999Y-51324999D01*
X41334999Y-51324999D02*
X41334999Y-44315001D01*
X55340000Y-52510000D02*
X55205001Y-52375001D01*
X55205001Y-52375001D02*
X42385001Y-52375001D01*
X57480000Y-54650000D02*
X55340000Y-52510000D01*
X57480000Y-58871092D02*
X57480000Y-54650000D01*
X57490000Y-59270000D02*
X57490000Y-58881092D01*
X57490000Y-58881092D02*
X57480000Y-58871092D01*
X56674999Y-48325001D02*
X57004999Y-47995001D01*
X57004999Y-47995001D02*
X58365001Y-47995001D01*
X58365001Y-47995001D02*
X58640000Y-48270000D01*
X52800000Y-47850000D02*
X53275001Y-48325001D01*
X53275001Y-48325001D02*
X56674999Y-48325001D01*
X40762308Y-32467692D02*
X40829710Y-32467692D01*
X40190000Y-33040000D02*
X40762308Y-32467692D01*
X39420000Y-33040000D02*
X35430000Y-37030000D01*
X39420000Y-33040000D02*
X40190000Y-33040000D01*
X35430000Y-37030000D02*
X35430000Y-37460000D01*
X51796002Y-38830000D02*
X49130000Y-36163998D01*
X60500000Y-38350000D02*
X60020000Y-38830000D01*
X60020000Y-38830000D02*
X51796002Y-38830000D01*
X49115001Y-36124999D02*
X45174999Y-36124999D01*
X45174999Y-36124999D02*
X44900000Y-35850000D01*
X66405001Y-38874999D02*
X68920000Y-36360000D01*
X57680000Y-41710000D02*
X60515001Y-38874999D01*
X60515001Y-38874999D02*
X66405001Y-38874999D01*
X55670000Y-41710000D02*
X57680000Y-41710000D01*
X39870010Y-32050009D02*
X40070000Y-32249999D01*
X39769991Y-32050009D02*
X39870010Y-32050009D01*
X39040000Y-32880000D02*
X39040000Y-32780000D01*
X39040000Y-32780000D02*
X39769991Y-32050009D01*
X36100000Y-35820000D02*
X39040000Y-32880000D01*
X34954999Y-36975001D02*
X36100000Y-35830000D01*
X36100000Y-35830000D02*
X36100000Y-35820000D01*
X35234999Y-55725001D02*
X34954999Y-55445001D01*
X34954999Y-55445001D02*
X34954999Y-36975001D01*
X35255001Y-59408003D02*
X34944999Y-59098001D01*
X34944999Y-58567171D02*
X35234999Y-58277171D01*
X35255001Y-62265001D02*
X35255001Y-59408003D01*
X34944999Y-59098001D02*
X34944999Y-58567171D01*
X37910000Y-64920000D02*
X35255001Y-62265001D01*
X35234999Y-58277171D02*
X35234999Y-55725001D01*
X40230048Y-60679952D02*
X40230047Y-60679952D01*
X41564990Y-59345010D02*
X40230048Y-60679952D01*
X41564990Y-57094990D02*
X41564990Y-58765010D01*
X41564990Y-58765010D02*
X41564990Y-58966088D01*
X41564990Y-58765010D02*
X41564990Y-59345010D01*
X40720000Y-56250000D02*
X41564990Y-57094990D01*
X40720000Y-44560000D02*
X40720000Y-56050000D01*
X40720000Y-56050000D02*
X40720000Y-56220000D01*
X40720000Y-56050000D02*
X40720000Y-56250000D01*
X40720000Y-56220000D02*
X40730000Y-56230000D01*
X40250001Y-42548908D02*
X40784979Y-43083886D01*
X40250001Y-42160000D02*
X40250001Y-42548908D01*
X40784979Y-44495021D02*
X40720000Y-44560000D01*
X40784979Y-43083886D02*
X40784979Y-44495021D01*
X39560000Y-54810000D02*
X39560000Y-55760000D01*
X37981632Y-57593703D02*
X37706633Y-57868702D01*
X37981632Y-57338368D02*
X37981632Y-57593703D01*
X39560000Y-55760000D02*
X37981632Y-57338368D01*
X39560000Y-48210000D02*
X39560000Y-54810000D01*
X39560000Y-54810000D02*
X39560000Y-54920000D01*
X37060000Y-45710000D02*
X39560000Y-48210000D01*
X37060000Y-39400000D02*
X37060000Y-45710000D01*
X40920000Y-35540000D02*
X37060000Y-39400000D01*
X36090001Y-39790001D02*
X35710000Y-39410000D01*
X35710000Y-39410000D02*
X35650000Y-39350000D01*
X35710000Y-39410000D02*
X35710000Y-39355000D01*
X35710000Y-39355000D02*
X35615000Y-39260000D01*
X37204125Y-56212875D02*
X35294999Y-54303749D01*
X37204125Y-56696967D02*
X37204125Y-56212875D01*
X35420000Y-58481092D02*
X37204125Y-56696967D01*
X35294999Y-54303749D02*
X35294999Y-44783003D01*
X35420000Y-58870000D02*
X35420000Y-58481092D01*
X35294999Y-44783003D02*
X36090001Y-43988001D01*
X36090001Y-43988001D02*
X36090001Y-39790001D01*
X41840000Y-59458922D02*
X40834461Y-60464461D01*
X40834461Y-61029911D02*
X40717558Y-61146814D01*
X40834461Y-60464461D02*
X40834461Y-61029911D01*
X41840000Y-59080000D02*
X41840000Y-59458922D01*
X41840000Y-56480000D02*
X41840000Y-59080000D01*
X41059989Y-55699989D02*
X41840000Y-56480000D01*
X41059989Y-44050011D02*
X41059989Y-55699989D01*
X42240000Y-41360000D02*
X42240000Y-42870000D01*
X42240000Y-42870000D02*
X41059989Y-44050011D01*
X70045000Y-39700000D02*
X69980000Y-39635000D01*
X74738922Y-39700000D02*
X70045000Y-39700000D01*
X78350000Y-44350000D02*
X78350000Y-43311078D01*
X78350000Y-43311078D02*
X74738922Y-39700000D01*
X74760000Y-40110000D02*
X77350000Y-42700000D01*
X77350000Y-42700000D02*
X77350000Y-44300000D01*
X69767500Y-40110000D02*
X74760000Y-40110000D01*
X68090000Y-41787500D02*
X69767500Y-40110000D01*
X70170000Y-41290000D02*
X71648922Y-41290000D01*
X78300000Y-46250000D02*
X78375000Y-46325000D01*
X73433921Y-43074999D02*
X75364999Y-43074999D01*
X78375000Y-46325000D02*
X81800000Y-49750000D01*
X71648922Y-41290000D02*
X73433921Y-43074999D01*
X75364999Y-43074999D02*
X76880000Y-44590000D01*
X76880000Y-44590000D02*
X76880000Y-44830000D01*
X76880000Y-44830000D02*
X78375000Y-46325000D01*
X78574999Y-79300011D02*
X78300000Y-79575010D01*
X81800000Y-49750000D02*
X81800000Y-76075010D01*
X81800000Y-76075010D02*
X78574999Y-79300011D01*
X81300000Y-50580000D02*
X81300000Y-75575010D01*
X81300000Y-50500000D02*
X81300000Y-50580000D01*
X76820000Y-45170000D02*
X76831078Y-45170000D01*
X76831078Y-45170000D02*
X81300000Y-49638922D01*
X81300000Y-49638922D02*
X81300000Y-50580000D01*
X75675001Y-44025001D02*
X76820000Y-45170000D01*
X73995001Y-44025001D02*
X75275001Y-44025001D01*
X75275001Y-44025001D02*
X75694999Y-44025001D01*
X75275001Y-44025001D02*
X75675001Y-44025001D01*
X71757500Y-41787500D02*
X73995001Y-44025001D01*
X70890000Y-41787500D02*
X71757500Y-41787500D01*
X77574999Y-79300011D02*
X77300000Y-79575010D01*
X81300000Y-75575010D02*
X77574999Y-79300011D01*
X61020000Y-86650000D02*
X69225010Y-86650000D01*
X60900000Y-86650000D02*
X61020000Y-86650000D01*
X69225010Y-86650000D02*
X76025001Y-79850009D01*
X76025001Y-79850009D02*
X76300000Y-79575010D01*
X60835000Y-82715000D02*
X63974990Y-79575010D01*
X74911092Y-79575010D02*
X75300000Y-79575010D01*
X63974990Y-79575010D02*
X74911092Y-79575010D01*
X68675000Y-48775000D02*
X68675000Y-46869124D01*
X68327374Y-49122626D02*
X68675000Y-48775000D01*
X68043524Y-49397625D02*
X68318523Y-49122626D01*
X68318523Y-49122626D02*
X68327374Y-49122626D01*
X63580000Y-46990000D02*
X63760000Y-46810000D01*
X61868076Y-46990000D02*
X63580000Y-46990000D01*
X59224999Y-51199753D02*
X59224999Y-49633077D01*
X59661123Y-51635877D02*
X59224999Y-51199753D01*
X59224999Y-49633077D02*
X61868076Y-46990000D01*
X60840000Y-54199999D02*
X60840000Y-52814754D01*
X60840000Y-52814754D02*
X59661123Y-51635877D01*
X63600000Y-47470000D02*
X63620000Y-47490000D01*
X61776998Y-47470000D02*
X63600000Y-47470000D01*
X61424999Y-48278001D02*
X61424999Y-47821999D01*
X61424999Y-47821999D02*
X61776998Y-47470000D01*
X62240000Y-52590000D02*
X61424999Y-51774999D01*
X61424999Y-51774999D02*
X61424999Y-48278001D01*
X62240000Y-54480000D02*
X62240000Y-52590000D01*
X63575912Y-54580000D02*
X64590000Y-53565912D01*
X62970000Y-54580000D02*
X63575912Y-54580000D01*
X64590000Y-53565912D02*
X64590000Y-43820000D01*
X64590000Y-43820000D02*
X65150000Y-43260000D01*
X64314990Y-44239990D02*
X64314990Y-53105010D01*
X63450000Y-43375000D02*
X64314990Y-44239990D01*
X64314990Y-53105010D02*
X63490000Y-53930000D01*
M02*
