G04 #@! TF.GenerationSoftware,KiCad,Pcbnew,5.1.4+dfsg1-1~bpo9+1*
G04 #@! TF.CreationDate,2019-11-25T12:29:00+01:00*
G04 #@! TF.ProjectId,zglue-demo-board,7a676c75-652d-4646-956d-6f2d626f6172,rev?*
G04 #@! TF.SameCoordinates,Original*
G04 #@! TF.FileFunction,Soldermask,Top*
G04 #@! TF.FilePolarity,Negative*
%FSLAX46Y46*%
G04 Gerber Fmt 4.6, Leading zero omitted, Abs format (unit mm)*
G04 Created by KiCad (PCBNEW 5.1.4+dfsg1-1~bpo9+1) date 2019-11-25 12:29:00*
%MOMM*%
%LPD*%
G04 APERTURE LIST*
%ADD10C,0.180000*%
%ADD11C,0.001860*%
%ADD12C,0.100000*%
G04 APERTURE END LIST*
D10*
X15150476Y-52394523D02*
X14867142Y-51989761D01*
X14664761Y-52394523D02*
X14664761Y-51544523D01*
X14988571Y-51544523D01*
X15069523Y-51585000D01*
X15110000Y-51625476D01*
X15150476Y-51706428D01*
X15150476Y-51827857D01*
X15110000Y-51908809D01*
X15069523Y-51949285D01*
X14988571Y-51989761D01*
X14664761Y-51989761D01*
X15838571Y-52354047D02*
X15757619Y-52394523D01*
X15595714Y-52394523D01*
X15514761Y-52354047D01*
X15474285Y-52273095D01*
X15474285Y-51949285D01*
X15514761Y-51868333D01*
X15595714Y-51827857D01*
X15757619Y-51827857D01*
X15838571Y-51868333D01*
X15879047Y-51949285D01*
X15879047Y-52030238D01*
X15474285Y-52111190D01*
X16162380Y-51827857D02*
X16364761Y-52394523D01*
X16567142Y-51827857D01*
X16890952Y-52313571D02*
X16931428Y-52354047D01*
X16890952Y-52394523D01*
X16850476Y-52354047D01*
X16890952Y-52313571D01*
X16890952Y-52394523D01*
X18388571Y-52394523D02*
X17902857Y-52394523D01*
X18145714Y-52394523D02*
X18145714Y-51544523D01*
X18064761Y-51665952D01*
X17983809Y-51746904D01*
X17902857Y-51787380D01*
X18752857Y-52313571D02*
X18793333Y-52354047D01*
X18752857Y-52394523D01*
X18712380Y-52354047D01*
X18752857Y-52313571D01*
X18752857Y-52394523D01*
X19602857Y-52394523D02*
X19117142Y-52394523D01*
X19360000Y-52394523D02*
X19360000Y-51544523D01*
X19279047Y-51665952D01*
X19198095Y-51746904D01*
X19117142Y-51787380D01*
X21707619Y-52394523D02*
X21221904Y-52394523D01*
X21464761Y-52394523D02*
X21464761Y-51544523D01*
X21383809Y-51665952D01*
X21302857Y-51746904D01*
X21221904Y-51787380D01*
X22517142Y-52394523D02*
X22031428Y-52394523D01*
X22274285Y-52394523D02*
X22274285Y-51544523D01*
X22193333Y-51665952D01*
X22112380Y-51746904D01*
X22031428Y-51787380D01*
X23488571Y-51504047D02*
X22760000Y-52596904D01*
X23731428Y-51625476D02*
X23771904Y-51585000D01*
X23852857Y-51544523D01*
X24055238Y-51544523D01*
X24136190Y-51585000D01*
X24176666Y-51625476D01*
X24217142Y-51706428D01*
X24217142Y-51787380D01*
X24176666Y-51908809D01*
X23690952Y-52394523D01*
X24217142Y-52394523D01*
X24743333Y-51544523D02*
X24824285Y-51544523D01*
X24905238Y-51585000D01*
X24945714Y-51625476D01*
X24986190Y-51706428D01*
X25026666Y-51868333D01*
X25026666Y-52070714D01*
X24986190Y-52232619D01*
X24945714Y-52313571D01*
X24905238Y-52354047D01*
X24824285Y-52394523D01*
X24743333Y-52394523D01*
X24662380Y-52354047D01*
X24621904Y-52313571D01*
X24581428Y-52232619D01*
X24540952Y-52070714D01*
X24540952Y-51868333D01*
X24581428Y-51706428D01*
X24621904Y-51625476D01*
X24662380Y-51585000D01*
X24743333Y-51544523D01*
X25836190Y-52394523D02*
X25350476Y-52394523D01*
X25593333Y-52394523D02*
X25593333Y-51544523D01*
X25512380Y-51665952D01*
X25431428Y-51746904D01*
X25350476Y-51787380D01*
X26240952Y-52394523D02*
X26402857Y-52394523D01*
X26483809Y-52354047D01*
X26524285Y-52313571D01*
X26605238Y-52192142D01*
X26645714Y-52030238D01*
X26645714Y-51706428D01*
X26605238Y-51625476D01*
X26564761Y-51585000D01*
X26483809Y-51544523D01*
X26321904Y-51544523D01*
X26240952Y-51585000D01*
X26200476Y-51625476D01*
X26160000Y-51706428D01*
X26160000Y-51908809D01*
X26200476Y-51989761D01*
X26240952Y-52030238D01*
X26321904Y-52070714D01*
X26483809Y-52070714D01*
X26564761Y-52030238D01*
X26605238Y-51989761D01*
X26645714Y-51908809D01*
X14636190Y-50252857D02*
X15081428Y-50252857D01*
X14636190Y-50819523D01*
X15081428Y-50819523D01*
X15850476Y-50010000D02*
X15769523Y-49969523D01*
X15648095Y-49969523D01*
X15526666Y-50010000D01*
X15445714Y-50090952D01*
X15405238Y-50171904D01*
X15364761Y-50333809D01*
X15364761Y-50455238D01*
X15405238Y-50617142D01*
X15445714Y-50698095D01*
X15526666Y-50779047D01*
X15648095Y-50819523D01*
X15729047Y-50819523D01*
X15850476Y-50779047D01*
X15890952Y-50738571D01*
X15890952Y-50455238D01*
X15729047Y-50455238D01*
X16376666Y-50819523D02*
X16295714Y-50779047D01*
X16255238Y-50698095D01*
X16255238Y-49969523D01*
X17064761Y-50252857D02*
X17064761Y-50819523D01*
X16700476Y-50252857D02*
X16700476Y-50698095D01*
X16740952Y-50779047D01*
X16821904Y-50819523D01*
X16943333Y-50819523D01*
X17024285Y-50779047D01*
X17064761Y-50738571D01*
X17793333Y-50779047D02*
X17712380Y-50819523D01*
X17550476Y-50819523D01*
X17469523Y-50779047D01*
X17429047Y-50698095D01*
X17429047Y-50374285D01*
X17469523Y-50293333D01*
X17550476Y-50252857D01*
X17712380Y-50252857D01*
X17793333Y-50293333D01*
X17833809Y-50374285D01*
X17833809Y-50455238D01*
X17429047Y-50536190D01*
X18845714Y-50819523D02*
X18845714Y-49969523D01*
X19048095Y-49969523D01*
X19169523Y-50010000D01*
X19250476Y-50090952D01*
X19290952Y-50171904D01*
X19331428Y-50333809D01*
X19331428Y-50455238D01*
X19290952Y-50617142D01*
X19250476Y-50698095D01*
X19169523Y-50779047D01*
X19048095Y-50819523D01*
X18845714Y-50819523D01*
X20019523Y-50779047D02*
X19938571Y-50819523D01*
X19776666Y-50819523D01*
X19695714Y-50779047D01*
X19655238Y-50698095D01*
X19655238Y-50374285D01*
X19695714Y-50293333D01*
X19776666Y-50252857D01*
X19938571Y-50252857D01*
X20019523Y-50293333D01*
X20060000Y-50374285D01*
X20060000Y-50455238D01*
X19655238Y-50536190D01*
X20424285Y-50819523D02*
X20424285Y-50252857D01*
X20424285Y-50333809D02*
X20464761Y-50293333D01*
X20545714Y-50252857D01*
X20667142Y-50252857D01*
X20748095Y-50293333D01*
X20788571Y-50374285D01*
X20788571Y-50819523D01*
X20788571Y-50374285D02*
X20829047Y-50293333D01*
X20909999Y-50252857D01*
X21031428Y-50252857D01*
X21112380Y-50293333D01*
X21152857Y-50374285D01*
X21152857Y-50819523D01*
X21679047Y-50819523D02*
X21598095Y-50779047D01*
X21557619Y-50738571D01*
X21517142Y-50657619D01*
X21517142Y-50414761D01*
X21557619Y-50333809D01*
X21598095Y-50293333D01*
X21679047Y-50252857D01*
X21800476Y-50252857D01*
X21881428Y-50293333D01*
X21921904Y-50333809D01*
X21962380Y-50414761D01*
X21962380Y-50657619D01*
X21921904Y-50738571D01*
X21881428Y-50779047D01*
X21800476Y-50819523D01*
X21679047Y-50819523D01*
X23257619Y-50374285D02*
X23379047Y-50414761D01*
X23419523Y-50455238D01*
X23459999Y-50536190D01*
X23459999Y-50657619D01*
X23419523Y-50738571D01*
X23379047Y-50779047D01*
X23298095Y-50819523D01*
X22974285Y-50819523D01*
X22974285Y-49969523D01*
X23257619Y-49969523D01*
X23338571Y-50010000D01*
X23379047Y-50050476D01*
X23419523Y-50131428D01*
X23419523Y-50212380D01*
X23379047Y-50293333D01*
X23338571Y-50333809D01*
X23257619Y-50374285D01*
X22974285Y-50374285D01*
X23945714Y-50819523D02*
X23864761Y-50779047D01*
X23824285Y-50738571D01*
X23783809Y-50657619D01*
X23783809Y-50414761D01*
X23824285Y-50333809D01*
X23864761Y-50293333D01*
X23945714Y-50252857D01*
X24067142Y-50252857D01*
X24148095Y-50293333D01*
X24188571Y-50333809D01*
X24229047Y-50414761D01*
X24229047Y-50657619D01*
X24188571Y-50738571D01*
X24148095Y-50779047D01*
X24067142Y-50819523D01*
X23945714Y-50819523D01*
X24957619Y-50819523D02*
X24957619Y-50374285D01*
X24917142Y-50293333D01*
X24836190Y-50252857D01*
X24674285Y-50252857D01*
X24593333Y-50293333D01*
X24957619Y-50779047D02*
X24876666Y-50819523D01*
X24674285Y-50819523D01*
X24593333Y-50779047D01*
X24552857Y-50698095D01*
X24552857Y-50617142D01*
X24593333Y-50536190D01*
X24674285Y-50495714D01*
X24876666Y-50495714D01*
X24957619Y-50455238D01*
X25362380Y-50819523D02*
X25362380Y-50252857D01*
X25362380Y-50414761D02*
X25402857Y-50333809D01*
X25443333Y-50293333D01*
X25524285Y-50252857D01*
X25605238Y-50252857D01*
X26252857Y-50819523D02*
X26252857Y-49969523D01*
X26252857Y-50779047D02*
X26171904Y-50819523D01*
X26009999Y-50819523D01*
X25929047Y-50779047D01*
X25888571Y-50738571D01*
X25848095Y-50657619D01*
X25848095Y-50414761D01*
X25888571Y-50333809D01*
X25929047Y-50293333D01*
X26009999Y-50252857D01*
X26171904Y-50252857D01*
X26252857Y-50293333D01*
D11*
G36*
X17240096Y-46845833D02*
G01*
X17323898Y-46848024D01*
X17388323Y-46852309D01*
X17439422Y-46859157D01*
X17483244Y-46869040D01*
X17500273Y-46874005D01*
X17643061Y-46928660D01*
X17758414Y-46996545D01*
X17848001Y-47078851D01*
X17906914Y-47164274D01*
X17925724Y-47199641D01*
X17941717Y-47233023D01*
X17955121Y-47267213D01*
X17966164Y-47305004D01*
X17975075Y-47349189D01*
X17982082Y-47402558D01*
X17987413Y-47467906D01*
X17991297Y-47548025D01*
X17993963Y-47645707D01*
X17995638Y-47763744D01*
X17996552Y-47904930D01*
X17996932Y-48072056D01*
X17997008Y-48265671D01*
X17997008Y-49104880D01*
X17619056Y-49104880D01*
X17619056Y-48273094D01*
X17618976Y-48077306D01*
X17618574Y-47910372D01*
X17617603Y-47769653D01*
X17615819Y-47652508D01*
X17612976Y-47556295D01*
X17608829Y-47478374D01*
X17603134Y-47416104D01*
X17595644Y-47366845D01*
X17586116Y-47327955D01*
X17574302Y-47296794D01*
X17559959Y-47270721D01*
X17542841Y-47247096D01*
X17522702Y-47223276D01*
X17521446Y-47221844D01*
X17456309Y-47163065D01*
X17376879Y-47121799D01*
X17276472Y-47094899D01*
X17238921Y-47088826D01*
X17133340Y-47082045D01*
X17016487Y-47087786D01*
X16902948Y-47104728D01*
X16820197Y-47126855D01*
X16760790Y-47147420D01*
X16756734Y-48126150D01*
X16752678Y-49104880D01*
X16374964Y-49104880D01*
X16374964Y-46982877D01*
X16520633Y-46935092D01*
X16620874Y-46903410D01*
X16706056Y-46880087D01*
X16784621Y-46863881D01*
X16865008Y-46853549D01*
X16955659Y-46847849D01*
X17065014Y-46845539D01*
X17130868Y-46845265D01*
X17240096Y-46845833D01*
X17240096Y-46845833D01*
G37*
X17240096Y-46845833D02*
X17323898Y-46848024D01*
X17388323Y-46852309D01*
X17439422Y-46859157D01*
X17483244Y-46869040D01*
X17500273Y-46874005D01*
X17643061Y-46928660D01*
X17758414Y-46996545D01*
X17848001Y-47078851D01*
X17906914Y-47164274D01*
X17925724Y-47199641D01*
X17941717Y-47233023D01*
X17955121Y-47267213D01*
X17966164Y-47305004D01*
X17975075Y-47349189D01*
X17982082Y-47402558D01*
X17987413Y-47467906D01*
X17991297Y-47548025D01*
X17993963Y-47645707D01*
X17995638Y-47763744D01*
X17996552Y-47904930D01*
X17996932Y-48072056D01*
X17997008Y-48265671D01*
X17997008Y-49104880D01*
X17619056Y-49104880D01*
X17619056Y-48273094D01*
X17618976Y-48077306D01*
X17618574Y-47910372D01*
X17617603Y-47769653D01*
X17615819Y-47652508D01*
X17612976Y-47556295D01*
X17608829Y-47478374D01*
X17603134Y-47416104D01*
X17595644Y-47366845D01*
X17586116Y-47327955D01*
X17574302Y-47296794D01*
X17559959Y-47270721D01*
X17542841Y-47247096D01*
X17522702Y-47223276D01*
X17521446Y-47221844D01*
X17456309Y-47163065D01*
X17376879Y-47121799D01*
X17276472Y-47094899D01*
X17238921Y-47088826D01*
X17133340Y-47082045D01*
X17016487Y-47087786D01*
X16902948Y-47104728D01*
X16820197Y-47126855D01*
X16760790Y-47147420D01*
X16756734Y-48126150D01*
X16752678Y-49104880D01*
X16374964Y-49104880D01*
X16374964Y-46982877D01*
X16520633Y-46935092D01*
X16620874Y-46903410D01*
X16706056Y-46880087D01*
X16784621Y-46863881D01*
X16865008Y-46853549D01*
X16955659Y-46847849D01*
X17065014Y-46845539D01*
X17130868Y-46845265D01*
X17240096Y-46845833D01*
G36*
X10932215Y-46680051D02*
G01*
X10946347Y-46685622D01*
X11018666Y-46732561D01*
X11071408Y-46799424D01*
X11100947Y-46879122D01*
X11103655Y-46964568D01*
X11099816Y-46985555D01*
X11068544Y-47066231D01*
X11014460Y-47126716D01*
X10959909Y-47159985D01*
X10894660Y-47191464D01*
X10894660Y-47561576D01*
X11169509Y-47561576D01*
X11282689Y-47449152D01*
X11395869Y-47336727D01*
X11387507Y-47255710D01*
X11387410Y-47254008D01*
X11494373Y-47254008D01*
X11511982Y-47290710D01*
X11548662Y-47307814D01*
X11593019Y-47304171D01*
X11625817Y-47284861D01*
X11648318Y-47247955D01*
X11640421Y-47210148D01*
X11619068Y-47183624D01*
X11589108Y-47158208D01*
X11564285Y-47155670D01*
X11530538Y-47174930D01*
X11528084Y-47176643D01*
X11500241Y-47211537D01*
X11494373Y-47254008D01*
X11387410Y-47254008D01*
X11384542Y-47203801D01*
X11391500Y-47168590D01*
X11412038Y-47135911D01*
X11421379Y-47124501D01*
X11478604Y-47076113D01*
X11541563Y-47054002D01*
X11604937Y-47055265D01*
X11663411Y-47076996D01*
X11711667Y-47116289D01*
X11744389Y-47170240D01*
X11756260Y-47235944D01*
X11745157Y-47301414D01*
X11709669Y-47363422D01*
X11652722Y-47403344D01*
X11576802Y-47419557D01*
X11563938Y-47419844D01*
X11531051Y-47420986D01*
X11503722Y-47426875D01*
X11475835Y-47441207D01*
X11441270Y-47467677D01*
X11393910Y-47509983D01*
X11355393Y-47545828D01*
X11220738Y-47671812D01*
X10894660Y-47671812D01*
X10894660Y-47923780D01*
X11492275Y-47923780D01*
X11515608Y-47878659D01*
X11558228Y-47827311D01*
X11617020Y-47796573D01*
X11683506Y-47787446D01*
X11749214Y-47800930D01*
X11805668Y-47838024D01*
X11811137Y-47843797D01*
X11851843Y-47907561D01*
X11865384Y-47972604D01*
X11855548Y-48034391D01*
X11826122Y-48088385D01*
X11780896Y-48130049D01*
X11723658Y-48154847D01*
X11658196Y-48158242D01*
X11588299Y-48135699D01*
X11574080Y-48127654D01*
X11537635Y-48099145D01*
X11515066Y-48069859D01*
X11513188Y-48064721D01*
X11508818Y-48054131D01*
X11499219Y-48046300D01*
X11480165Y-48040814D01*
X11447428Y-48037257D01*
X11396778Y-48035215D01*
X11323990Y-48034275D01*
X11224835Y-48034021D01*
X11199909Y-48034016D01*
X10894660Y-48034016D01*
X10894660Y-48270236D01*
X11218189Y-48270236D01*
X11479690Y-48533102D01*
X11553316Y-48526776D01*
X11632246Y-48532277D01*
X11693593Y-48562930D01*
X11735389Y-48617519D01*
X11746259Y-48646008D01*
X11756919Y-48721329D01*
X11738838Y-48786394D01*
X11699371Y-48838024D01*
X11638368Y-48880694D01*
X11573554Y-48896176D01*
X11510575Y-48887327D01*
X11455073Y-48857001D01*
X11412695Y-48808054D01*
X11389085Y-48743341D01*
X11388051Y-48696062D01*
X11496080Y-48696062D01*
X11501207Y-48735239D01*
X11516274Y-48757947D01*
X11552110Y-48785572D01*
X11586657Y-48783295D01*
X11619068Y-48758424D01*
X11646406Y-48720002D01*
X11643840Y-48685600D01*
X11620367Y-48657237D01*
X11580539Y-48636719D01*
X11542228Y-48640531D01*
X11511914Y-48662402D01*
X11496080Y-48696062D01*
X11388051Y-48696062D01*
X11387707Y-48680357D01*
X11396517Y-48605965D01*
X11169509Y-48380472D01*
X10894660Y-48380472D01*
X10894660Y-48753640D01*
X10959590Y-48782920D01*
X11027745Y-48828992D01*
X11074748Y-48892023D01*
X11100422Y-48965668D01*
X11104593Y-49043578D01*
X11087084Y-49119408D01*
X11047720Y-49186812D01*
X10986325Y-49239441D01*
X10972440Y-49247101D01*
X10889980Y-49272908D01*
X10802152Y-49272912D01*
X10720600Y-49247149D01*
X10719035Y-49246330D01*
X10654463Y-49196303D01*
X10612029Y-49130488D01*
X10591509Y-49055275D01*
X10592062Y-49018266D01*
X10699385Y-49018266D01*
X10705776Y-49065110D01*
X10729820Y-49102985D01*
X10750027Y-49122623D01*
X10808283Y-49159758D01*
X10865642Y-49165474D01*
X10923420Y-49139772D01*
X10944805Y-49122623D01*
X10980047Y-49083675D01*
X10994090Y-49043063D01*
X10995447Y-49018266D01*
X10981274Y-48961047D01*
X10944367Y-48911472D01*
X10893146Y-48878050D01*
X10847416Y-48868660D01*
X10790800Y-48882984D01*
X10741747Y-48920283D01*
X10708676Y-48972049D01*
X10699385Y-49018266D01*
X10592062Y-49018266D01*
X10592679Y-48977057D01*
X10615317Y-48902225D01*
X10659199Y-48837171D01*
X10724100Y-48788286D01*
X10735242Y-48782920D01*
X10800172Y-48753640D01*
X10800172Y-48380472D01*
X10525323Y-48380472D01*
X10298314Y-48605965D01*
X10307125Y-48680357D01*
X10303168Y-48755890D01*
X10275803Y-48818004D01*
X10230675Y-48863845D01*
X10173429Y-48890556D01*
X10109710Y-48895282D01*
X10045162Y-48875168D01*
X9995461Y-48838024D01*
X9951676Y-48777689D01*
X9937704Y-48711493D01*
X9940923Y-48692097D01*
X10048274Y-48692097D01*
X10051279Y-48726768D01*
X10075764Y-48758424D01*
X10114105Y-48785740D01*
X10148479Y-48783165D01*
X10177552Y-48759058D01*
X10197278Y-48718550D01*
X10192090Y-48677439D01*
X10164837Y-48646507D01*
X10145756Y-48638687D01*
X10099303Y-48640960D01*
X10075129Y-48656636D01*
X10048274Y-48692097D01*
X9940923Y-48692097D01*
X9948573Y-48646008D01*
X9981934Y-48582117D01*
X10035639Y-48541672D01*
X10107720Y-48525890D01*
X10141516Y-48526776D01*
X10215142Y-48533102D01*
X10476643Y-48270236D01*
X10800172Y-48270236D01*
X10800172Y-48034016D01*
X10494147Y-48034016D01*
X10388795Y-48034151D01*
X10310674Y-48034847D01*
X10255522Y-48036545D01*
X10219073Y-48039682D01*
X10197064Y-48044700D01*
X10185231Y-48052035D01*
X10179311Y-48062129D01*
X10177781Y-48066598D01*
X10152381Y-48102863D01*
X10106726Y-48134605D01*
X10051998Y-48155375D01*
X10015927Y-48159941D01*
X9943215Y-48146775D01*
X9886393Y-48111090D01*
X9847968Y-48058880D01*
X9830446Y-47996137D01*
X9832322Y-47974693D01*
X9936210Y-47974693D01*
X9940771Y-47997426D01*
X9956680Y-48017192D01*
X9997905Y-48045650D01*
X10039984Y-48043659D01*
X10066765Y-48025017D01*
X10089431Y-47984419D01*
X10084602Y-47958084D01*
X11605666Y-47958084D01*
X11611630Y-48002252D01*
X11628067Y-48025017D01*
X11668435Y-48047675D01*
X11710681Y-48039691D01*
X11738152Y-48017192D01*
X11757334Y-47991088D01*
X11756433Y-47967353D01*
X11744003Y-47942389D01*
X11710677Y-47906050D01*
X11670609Y-47895782D01*
X11631825Y-47913410D01*
X11628905Y-47916193D01*
X11605666Y-47958084D01*
X10084602Y-47958084D01*
X10081679Y-47942143D01*
X10061188Y-47916966D01*
X10020674Y-47895879D01*
X9982344Y-47905548D01*
X9950844Y-47942500D01*
X9936210Y-47974693D01*
X9832322Y-47974693D01*
X9836333Y-47928853D01*
X9868137Y-47863022D01*
X9883695Y-47843797D01*
X9939938Y-47802562D01*
X10005565Y-47786699D01*
X10072593Y-47795304D01*
X10133035Y-47827476D01*
X10175771Y-47876790D01*
X10203529Y-47923780D01*
X10800172Y-47923780D01*
X10800172Y-47671812D01*
X10474094Y-47671812D01*
X10339439Y-47545828D01*
X10281311Y-47491985D01*
X10239786Y-47456183D01*
X10208655Y-47434745D01*
X10181708Y-47423995D01*
X10152737Y-47420257D01*
X10126650Y-47419844D01*
X10049234Y-47408553D01*
X9992593Y-47373955D01*
X9955181Y-47314964D01*
X9948094Y-47294442D01*
X9941244Y-47237617D01*
X10044268Y-47237617D01*
X10057813Y-47273549D01*
X10091034Y-47298624D01*
X10132808Y-47308578D01*
X10172015Y-47299153D01*
X10182850Y-47290710D01*
X10200521Y-47253547D01*
X10194401Y-47211088D01*
X10166748Y-47176643D01*
X10136585Y-47158384D01*
X10119504Y-47152128D01*
X10096679Y-47163934D01*
X10069604Y-47191197D01*
X10049043Y-47221688D01*
X10044268Y-47237617D01*
X9941244Y-47237617D01*
X9939184Y-47220533D01*
X9955580Y-47156566D01*
X9991908Y-47105348D01*
X10042799Y-47069683D01*
X10102879Y-47052377D01*
X10166777Y-47056237D01*
X10229122Y-47084068D01*
X10273453Y-47124501D01*
X10298771Y-47159180D01*
X10309413Y-47192146D01*
X10309036Y-47237567D01*
X10307325Y-47255710D01*
X10298963Y-47336727D01*
X10412143Y-47449152D01*
X10525323Y-47561576D01*
X10800172Y-47561576D01*
X10800172Y-47189685D01*
X10737558Y-47162060D01*
X10664259Y-47114630D01*
X10614666Y-47046794D01*
X10595469Y-46994725D01*
X10588039Y-46920715D01*
X10695743Y-46920715D01*
X10701671Y-46956834D01*
X10713021Y-46983418D01*
X10753355Y-47037736D01*
X10806974Y-47067287D01*
X10866916Y-47070287D01*
X10926215Y-47044951D01*
X10933082Y-47039824D01*
X10979543Y-46989685D01*
X10995324Y-46935240D01*
X10982834Y-46877843D01*
X10944641Y-46818882D01*
X10894225Y-46785153D01*
X10838063Y-46776546D01*
X10782636Y-46792949D01*
X10734422Y-46834253D01*
X10706451Y-46882560D01*
X10695743Y-46920715D01*
X10588039Y-46920715D01*
X10586978Y-46910142D01*
X10605008Y-46832025D01*
X10644966Y-46764421D01*
X10702260Y-46711375D01*
X10772294Y-46676933D01*
X10850477Y-46665143D01*
X10932215Y-46680051D01*
X10932215Y-46680051D01*
G37*
X10932215Y-46680051D02*
X10946347Y-46685622D01*
X11018666Y-46732561D01*
X11071408Y-46799424D01*
X11100947Y-46879122D01*
X11103655Y-46964568D01*
X11099816Y-46985555D01*
X11068544Y-47066231D01*
X11014460Y-47126716D01*
X10959909Y-47159985D01*
X10894660Y-47191464D01*
X10894660Y-47561576D01*
X11169509Y-47561576D01*
X11282689Y-47449152D01*
X11395869Y-47336727D01*
X11387507Y-47255710D01*
X11387410Y-47254008D01*
X11494373Y-47254008D01*
X11511982Y-47290710D01*
X11548662Y-47307814D01*
X11593019Y-47304171D01*
X11625817Y-47284861D01*
X11648318Y-47247955D01*
X11640421Y-47210148D01*
X11619068Y-47183624D01*
X11589108Y-47158208D01*
X11564285Y-47155670D01*
X11530538Y-47174930D01*
X11528084Y-47176643D01*
X11500241Y-47211537D01*
X11494373Y-47254008D01*
X11387410Y-47254008D01*
X11384542Y-47203801D01*
X11391500Y-47168590D01*
X11412038Y-47135911D01*
X11421379Y-47124501D01*
X11478604Y-47076113D01*
X11541563Y-47054002D01*
X11604937Y-47055265D01*
X11663411Y-47076996D01*
X11711667Y-47116289D01*
X11744389Y-47170240D01*
X11756260Y-47235944D01*
X11745157Y-47301414D01*
X11709669Y-47363422D01*
X11652722Y-47403344D01*
X11576802Y-47419557D01*
X11563938Y-47419844D01*
X11531051Y-47420986D01*
X11503722Y-47426875D01*
X11475835Y-47441207D01*
X11441270Y-47467677D01*
X11393910Y-47509983D01*
X11355393Y-47545828D01*
X11220738Y-47671812D01*
X10894660Y-47671812D01*
X10894660Y-47923780D01*
X11492275Y-47923780D01*
X11515608Y-47878659D01*
X11558228Y-47827311D01*
X11617020Y-47796573D01*
X11683506Y-47787446D01*
X11749214Y-47800930D01*
X11805668Y-47838024D01*
X11811137Y-47843797D01*
X11851843Y-47907561D01*
X11865384Y-47972604D01*
X11855548Y-48034391D01*
X11826122Y-48088385D01*
X11780896Y-48130049D01*
X11723658Y-48154847D01*
X11658196Y-48158242D01*
X11588299Y-48135699D01*
X11574080Y-48127654D01*
X11537635Y-48099145D01*
X11515066Y-48069859D01*
X11513188Y-48064721D01*
X11508818Y-48054131D01*
X11499219Y-48046300D01*
X11480165Y-48040814D01*
X11447428Y-48037257D01*
X11396778Y-48035215D01*
X11323990Y-48034275D01*
X11224835Y-48034021D01*
X11199909Y-48034016D01*
X10894660Y-48034016D01*
X10894660Y-48270236D01*
X11218189Y-48270236D01*
X11479690Y-48533102D01*
X11553316Y-48526776D01*
X11632246Y-48532277D01*
X11693593Y-48562930D01*
X11735389Y-48617519D01*
X11746259Y-48646008D01*
X11756919Y-48721329D01*
X11738838Y-48786394D01*
X11699371Y-48838024D01*
X11638368Y-48880694D01*
X11573554Y-48896176D01*
X11510575Y-48887327D01*
X11455073Y-48857001D01*
X11412695Y-48808054D01*
X11389085Y-48743341D01*
X11388051Y-48696062D01*
X11496080Y-48696062D01*
X11501207Y-48735239D01*
X11516274Y-48757947D01*
X11552110Y-48785572D01*
X11586657Y-48783295D01*
X11619068Y-48758424D01*
X11646406Y-48720002D01*
X11643840Y-48685600D01*
X11620367Y-48657237D01*
X11580539Y-48636719D01*
X11542228Y-48640531D01*
X11511914Y-48662402D01*
X11496080Y-48696062D01*
X11388051Y-48696062D01*
X11387707Y-48680357D01*
X11396517Y-48605965D01*
X11169509Y-48380472D01*
X10894660Y-48380472D01*
X10894660Y-48753640D01*
X10959590Y-48782920D01*
X11027745Y-48828992D01*
X11074748Y-48892023D01*
X11100422Y-48965668D01*
X11104593Y-49043578D01*
X11087084Y-49119408D01*
X11047720Y-49186812D01*
X10986325Y-49239441D01*
X10972440Y-49247101D01*
X10889980Y-49272908D01*
X10802152Y-49272912D01*
X10720600Y-49247149D01*
X10719035Y-49246330D01*
X10654463Y-49196303D01*
X10612029Y-49130488D01*
X10591509Y-49055275D01*
X10592062Y-49018266D01*
X10699385Y-49018266D01*
X10705776Y-49065110D01*
X10729820Y-49102985D01*
X10750027Y-49122623D01*
X10808283Y-49159758D01*
X10865642Y-49165474D01*
X10923420Y-49139772D01*
X10944805Y-49122623D01*
X10980047Y-49083675D01*
X10994090Y-49043063D01*
X10995447Y-49018266D01*
X10981274Y-48961047D01*
X10944367Y-48911472D01*
X10893146Y-48878050D01*
X10847416Y-48868660D01*
X10790800Y-48882984D01*
X10741747Y-48920283D01*
X10708676Y-48972049D01*
X10699385Y-49018266D01*
X10592062Y-49018266D01*
X10592679Y-48977057D01*
X10615317Y-48902225D01*
X10659199Y-48837171D01*
X10724100Y-48788286D01*
X10735242Y-48782920D01*
X10800172Y-48753640D01*
X10800172Y-48380472D01*
X10525323Y-48380472D01*
X10298314Y-48605965D01*
X10307125Y-48680357D01*
X10303168Y-48755890D01*
X10275803Y-48818004D01*
X10230675Y-48863845D01*
X10173429Y-48890556D01*
X10109710Y-48895282D01*
X10045162Y-48875168D01*
X9995461Y-48838024D01*
X9951676Y-48777689D01*
X9937704Y-48711493D01*
X9940923Y-48692097D01*
X10048274Y-48692097D01*
X10051279Y-48726768D01*
X10075764Y-48758424D01*
X10114105Y-48785740D01*
X10148479Y-48783165D01*
X10177552Y-48759058D01*
X10197278Y-48718550D01*
X10192090Y-48677439D01*
X10164837Y-48646507D01*
X10145756Y-48638687D01*
X10099303Y-48640960D01*
X10075129Y-48656636D01*
X10048274Y-48692097D01*
X9940923Y-48692097D01*
X9948573Y-48646008D01*
X9981934Y-48582117D01*
X10035639Y-48541672D01*
X10107720Y-48525890D01*
X10141516Y-48526776D01*
X10215142Y-48533102D01*
X10476643Y-48270236D01*
X10800172Y-48270236D01*
X10800172Y-48034016D01*
X10494147Y-48034016D01*
X10388795Y-48034151D01*
X10310674Y-48034847D01*
X10255522Y-48036545D01*
X10219073Y-48039682D01*
X10197064Y-48044700D01*
X10185231Y-48052035D01*
X10179311Y-48062129D01*
X10177781Y-48066598D01*
X10152381Y-48102863D01*
X10106726Y-48134605D01*
X10051998Y-48155375D01*
X10015927Y-48159941D01*
X9943215Y-48146775D01*
X9886393Y-48111090D01*
X9847968Y-48058880D01*
X9830446Y-47996137D01*
X9832322Y-47974693D01*
X9936210Y-47974693D01*
X9940771Y-47997426D01*
X9956680Y-48017192D01*
X9997905Y-48045650D01*
X10039984Y-48043659D01*
X10066765Y-48025017D01*
X10089431Y-47984419D01*
X10084602Y-47958084D01*
X11605666Y-47958084D01*
X11611630Y-48002252D01*
X11628067Y-48025017D01*
X11668435Y-48047675D01*
X11710681Y-48039691D01*
X11738152Y-48017192D01*
X11757334Y-47991088D01*
X11756433Y-47967353D01*
X11744003Y-47942389D01*
X11710677Y-47906050D01*
X11670609Y-47895782D01*
X11631825Y-47913410D01*
X11628905Y-47916193D01*
X11605666Y-47958084D01*
X10084602Y-47958084D01*
X10081679Y-47942143D01*
X10061188Y-47916966D01*
X10020674Y-47895879D01*
X9982344Y-47905548D01*
X9950844Y-47942500D01*
X9936210Y-47974693D01*
X9832322Y-47974693D01*
X9836333Y-47928853D01*
X9868137Y-47863022D01*
X9883695Y-47843797D01*
X9939938Y-47802562D01*
X10005565Y-47786699D01*
X10072593Y-47795304D01*
X10133035Y-47827476D01*
X10175771Y-47876790D01*
X10203529Y-47923780D01*
X10800172Y-47923780D01*
X10800172Y-47671812D01*
X10474094Y-47671812D01*
X10339439Y-47545828D01*
X10281311Y-47491985D01*
X10239786Y-47456183D01*
X10208655Y-47434745D01*
X10181708Y-47423995D01*
X10152737Y-47420257D01*
X10126650Y-47419844D01*
X10049234Y-47408553D01*
X9992593Y-47373955D01*
X9955181Y-47314964D01*
X9948094Y-47294442D01*
X9941244Y-47237617D01*
X10044268Y-47237617D01*
X10057813Y-47273549D01*
X10091034Y-47298624D01*
X10132808Y-47308578D01*
X10172015Y-47299153D01*
X10182850Y-47290710D01*
X10200521Y-47253547D01*
X10194401Y-47211088D01*
X10166748Y-47176643D01*
X10136585Y-47158384D01*
X10119504Y-47152128D01*
X10096679Y-47163934D01*
X10069604Y-47191197D01*
X10049043Y-47221688D01*
X10044268Y-47237617D01*
X9941244Y-47237617D01*
X9939184Y-47220533D01*
X9955580Y-47156566D01*
X9991908Y-47105348D01*
X10042799Y-47069683D01*
X10102879Y-47052377D01*
X10166777Y-47056237D01*
X10229122Y-47084068D01*
X10273453Y-47124501D01*
X10298771Y-47159180D01*
X10309413Y-47192146D01*
X10309036Y-47237567D01*
X10307325Y-47255710D01*
X10298963Y-47336727D01*
X10412143Y-47449152D01*
X10525323Y-47561576D01*
X10800172Y-47561576D01*
X10800172Y-47189685D01*
X10737558Y-47162060D01*
X10664259Y-47114630D01*
X10614666Y-47046794D01*
X10595469Y-46994725D01*
X10588039Y-46920715D01*
X10695743Y-46920715D01*
X10701671Y-46956834D01*
X10713021Y-46983418D01*
X10753355Y-47037736D01*
X10806974Y-47067287D01*
X10866916Y-47070287D01*
X10926215Y-47044951D01*
X10933082Y-47039824D01*
X10979543Y-46989685D01*
X10995324Y-46935240D01*
X10982834Y-46877843D01*
X10944641Y-46818882D01*
X10894225Y-46785153D01*
X10838063Y-46776546D01*
X10782636Y-46792949D01*
X10734422Y-46834253D01*
X10706451Y-46882560D01*
X10695743Y-46920715D01*
X10588039Y-46920715D01*
X10586978Y-46910142D01*
X10605008Y-46832025D01*
X10644966Y-46764421D01*
X10702260Y-46711375D01*
X10772294Y-46676933D01*
X10850477Y-46665143D01*
X10932215Y-46680051D01*
G36*
X21817209Y-46848934D02*
G01*
X21970880Y-46882412D01*
X22103095Y-46937819D01*
X22213265Y-47014863D01*
X22300801Y-47113253D01*
X22342829Y-47183624D01*
X22359474Y-47217557D01*
X22373617Y-47250367D01*
X22385461Y-47284841D01*
X22395210Y-47323765D01*
X22403065Y-47369924D01*
X22409232Y-47426106D01*
X22413914Y-47495097D01*
X22417313Y-47579681D01*
X22419633Y-47682646D01*
X22421078Y-47806778D01*
X22421850Y-47954862D01*
X22422153Y-48129686D01*
X22422196Y-48271011D01*
X22422196Y-49104880D01*
X22045262Y-49104880D01*
X22040816Y-48234803D01*
X22036370Y-47364726D01*
X21990412Y-47281777D01*
X21927906Y-47199302D01*
X21846589Y-47138216D01*
X21751109Y-47098890D01*
X21646111Y-47081694D01*
X21536242Y-47086999D01*
X21426150Y-47115177D01*
X21320480Y-47166598D01*
X21245033Y-47222281D01*
X21178104Y-47280566D01*
X21178104Y-49104880D01*
X20800152Y-49104880D01*
X20800152Y-48252378D01*
X20799876Y-48038481D01*
X20799034Y-47855047D01*
X20797607Y-47701049D01*
X20795573Y-47575459D01*
X20792913Y-47477251D01*
X20789606Y-47405395D01*
X20785633Y-47358864D01*
X20782177Y-47339880D01*
X20739945Y-47250763D01*
X20673117Y-47179454D01*
X20583646Y-47126820D01*
X20473489Y-47093729D01*
X20344600Y-47081047D01*
X20214025Y-47087821D01*
X20142817Y-47096477D01*
X20091721Y-47104687D01*
X20049488Y-47114918D01*
X20004870Y-47129640D01*
X19977319Y-47139767D01*
X19934012Y-47155949D01*
X19934012Y-49104880D01*
X19571808Y-49104880D01*
X19571808Y-46980379D01*
X19721830Y-46932322D01*
X19890788Y-46884581D01*
X20048628Y-46854775D01*
X20208725Y-46841038D01*
X20374956Y-46841166D01*
X20508348Y-46849028D01*
X20617653Y-46863977D01*
X20709872Y-46888053D01*
X20792008Y-46923302D01*
X20871063Y-46971767D01*
X20903587Y-46995460D01*
X21007015Y-47073744D01*
X21072874Y-47020309D01*
X21200383Y-46936051D01*
X21343556Y-46877892D01*
X21503665Y-46845425D01*
X21642670Y-46837674D01*
X21817209Y-46848934D01*
X21817209Y-46848934D01*
G37*
X21817209Y-46848934D02*
X21970880Y-46882412D01*
X22103095Y-46937819D01*
X22213265Y-47014863D01*
X22300801Y-47113253D01*
X22342829Y-47183624D01*
X22359474Y-47217557D01*
X22373617Y-47250367D01*
X22385461Y-47284841D01*
X22395210Y-47323765D01*
X22403065Y-47369924D01*
X22409232Y-47426106D01*
X22413914Y-47495097D01*
X22417313Y-47579681D01*
X22419633Y-47682646D01*
X22421078Y-47806778D01*
X22421850Y-47954862D01*
X22422153Y-48129686D01*
X22422196Y-48271011D01*
X22422196Y-49104880D01*
X22045262Y-49104880D01*
X22040816Y-48234803D01*
X22036370Y-47364726D01*
X21990412Y-47281777D01*
X21927906Y-47199302D01*
X21846589Y-47138216D01*
X21751109Y-47098890D01*
X21646111Y-47081694D01*
X21536242Y-47086999D01*
X21426150Y-47115177D01*
X21320480Y-47166598D01*
X21245033Y-47222281D01*
X21178104Y-47280566D01*
X21178104Y-49104880D01*
X20800152Y-49104880D01*
X20800152Y-48252378D01*
X20799876Y-48038481D01*
X20799034Y-47855047D01*
X20797607Y-47701049D01*
X20795573Y-47575459D01*
X20792913Y-47477251D01*
X20789606Y-47405395D01*
X20785633Y-47358864D01*
X20782177Y-47339880D01*
X20739945Y-47250763D01*
X20673117Y-47179454D01*
X20583646Y-47126820D01*
X20473489Y-47093729D01*
X20344600Y-47081047D01*
X20214025Y-47087821D01*
X20142817Y-47096477D01*
X20091721Y-47104687D01*
X20049488Y-47114918D01*
X20004870Y-47129640D01*
X19977319Y-47139767D01*
X19934012Y-47155949D01*
X19934012Y-49104880D01*
X19571808Y-49104880D01*
X19571808Y-46980379D01*
X19721830Y-46932322D01*
X19890788Y-46884581D01*
X20048628Y-46854775D01*
X20208725Y-46841038D01*
X20374956Y-46841166D01*
X20508348Y-46849028D01*
X20617653Y-46863977D01*
X20709872Y-46888053D01*
X20792008Y-46923302D01*
X20871063Y-46971767D01*
X20903587Y-46995460D01*
X21007015Y-47073744D01*
X21072874Y-47020309D01*
X21200383Y-46936051D01*
X21343556Y-46877892D01*
X21503665Y-46845425D01*
X21642670Y-46837674D01*
X21817209Y-46848934D01*
G36*
X26224969Y-46839638D02*
G01*
X26253264Y-46843617D01*
X26264251Y-46850188D01*
X26264708Y-46852370D01*
X26260245Y-46875495D01*
X26248330Y-46920461D01*
X26231173Y-46979131D01*
X26223348Y-47004583D01*
X26202216Y-47068978D01*
X26186092Y-47107883D01*
X26172163Y-47126315D01*
X26157618Y-47129294D01*
X26154006Y-47128358D01*
X26056101Y-47107472D01*
X25946769Y-47100592D01*
X25838397Y-47107540D01*
X25743375Y-47128137D01*
X25725339Y-47134542D01*
X25682032Y-47151348D01*
X25682032Y-49104880D01*
X25304080Y-49104880D01*
X25304080Y-46982095D01*
X25418253Y-46941184D01*
X25517469Y-46907852D01*
X25608226Y-46883075D01*
X25699168Y-46865379D01*
X25798939Y-46853289D01*
X25916184Y-46845333D01*
X26000929Y-46841847D01*
X26102332Y-46838894D01*
X26175835Y-46838110D01*
X26224969Y-46839638D01*
X26224969Y-46839638D01*
G37*
X26224969Y-46839638D02*
X26253264Y-46843617D01*
X26264251Y-46850188D01*
X26264708Y-46852370D01*
X26260245Y-46875495D01*
X26248330Y-46920461D01*
X26231173Y-46979131D01*
X26223348Y-47004583D01*
X26202216Y-47068978D01*
X26186092Y-47107883D01*
X26172163Y-47126315D01*
X26157618Y-47129294D01*
X26154006Y-47128358D01*
X26056101Y-47107472D01*
X25946769Y-47100592D01*
X25838397Y-47107540D01*
X25743375Y-47128137D01*
X25725339Y-47134542D01*
X25682032Y-47151348D01*
X25682032Y-49104880D01*
X25304080Y-49104880D01*
X25304080Y-46982095D01*
X25418253Y-46941184D01*
X25517469Y-46907852D01*
X25608226Y-46883075D01*
X25699168Y-46865379D01*
X25798939Y-46853289D01*
X25916184Y-46845333D01*
X26000929Y-46841847D01*
X26102332Y-46838894D01*
X26175835Y-46838110D01*
X26224969Y-46839638D01*
G36*
X23272588Y-49104880D02*
G01*
X22894636Y-49104880D01*
X22894636Y-46868664D01*
X23272588Y-46868664D01*
X23272588Y-49104880D01*
X23272588Y-49104880D01*
G37*
X23272588Y-49104880D02*
X22894636Y-49104880D01*
X22894636Y-46868664D01*
X23272588Y-46868664D01*
X23272588Y-49104880D01*
G36*
X24540642Y-46840011D02*
G01*
X24644340Y-46850059D01*
X24702021Y-46860910D01*
X24761468Y-46878026D01*
X24825304Y-46901271D01*
X24885268Y-46927041D01*
X24933099Y-46951732D01*
X24960536Y-46971740D01*
X24962731Y-46974663D01*
X24961034Y-46994245D01*
X24949691Y-47032719D01*
X24932257Y-47081037D01*
X24912289Y-47130151D01*
X24893344Y-47171015D01*
X24878977Y-47194581D01*
X24875277Y-47197140D01*
X24855840Y-47191467D01*
X24817145Y-47175946D01*
X24777966Y-47158637D01*
X24657556Y-47116817D01*
X24538303Y-47100564D01*
X24425741Y-47110051D01*
X24327082Y-47144575D01*
X24244633Y-47203565D01*
X24169079Y-47290093D01*
X24102796Y-47400527D01*
X24048158Y-47531237D01*
X24024987Y-47606560D01*
X24006700Y-47699379D01*
X23994948Y-47813674D01*
X23989731Y-47940106D01*
X23991048Y-48069342D01*
X23998899Y-48192043D01*
X24013283Y-48298876D01*
X24025029Y-48351403D01*
X24078441Y-48507854D01*
X24145682Y-48636208D01*
X24226949Y-48736760D01*
X24322433Y-48809803D01*
X24329842Y-48813997D01*
X24378046Y-48838461D01*
X24420476Y-48852533D01*
X24469360Y-48858899D01*
X24536928Y-48860247D01*
X24540302Y-48860234D01*
X24611196Y-48857119D01*
X24673423Y-48846543D01*
X24736539Y-48825628D01*
X24810104Y-48791498D01*
X24865132Y-48762451D01*
X24871994Y-48766864D01*
X24883881Y-48787522D01*
X24902273Y-48827671D01*
X24928648Y-48890555D01*
X24964485Y-48979421D01*
X24967856Y-48987878D01*
X24958997Y-49004820D01*
X24926949Y-49028588D01*
X24878267Y-49055640D01*
X24819502Y-49082438D01*
X24757208Y-49105441D01*
X24740962Y-49110446D01*
X24656243Y-49128476D01*
X24554197Y-49140035D01*
X24448370Y-49144337D01*
X24352302Y-49140592D01*
X24311956Y-49135421D01*
X24252955Y-49120449D01*
X24181933Y-49095569D01*
X24115106Y-49066553D01*
X23984393Y-48985216D01*
X23871546Y-48878355D01*
X23777058Y-48746718D01*
X23701420Y-48591051D01*
X23645125Y-48412101D01*
X23626382Y-48324966D01*
X23612710Y-48221836D01*
X23605515Y-48099652D01*
X23604535Y-47967268D01*
X23609505Y-47833541D01*
X23620163Y-47707326D01*
X23636246Y-47597478D01*
X23649781Y-47537966D01*
X23710979Y-47363646D01*
X23791770Y-47211736D01*
X23891148Y-47083374D01*
X24008105Y-46979697D01*
X24141634Y-46901841D01*
X24247885Y-46862292D01*
X24330746Y-46846163D01*
X24432221Y-46838724D01*
X24540642Y-46840011D01*
X24540642Y-46840011D01*
G37*
X24540642Y-46840011D02*
X24644340Y-46850059D01*
X24702021Y-46860910D01*
X24761468Y-46878026D01*
X24825304Y-46901271D01*
X24885268Y-46927041D01*
X24933099Y-46951732D01*
X24960536Y-46971740D01*
X24962731Y-46974663D01*
X24961034Y-46994245D01*
X24949691Y-47032719D01*
X24932257Y-47081037D01*
X24912289Y-47130151D01*
X24893344Y-47171015D01*
X24878977Y-47194581D01*
X24875277Y-47197140D01*
X24855840Y-47191467D01*
X24817145Y-47175946D01*
X24777966Y-47158637D01*
X24657556Y-47116817D01*
X24538303Y-47100564D01*
X24425741Y-47110051D01*
X24327082Y-47144575D01*
X24244633Y-47203565D01*
X24169079Y-47290093D01*
X24102796Y-47400527D01*
X24048158Y-47531237D01*
X24024987Y-47606560D01*
X24006700Y-47699379D01*
X23994948Y-47813674D01*
X23989731Y-47940106D01*
X23991048Y-48069342D01*
X23998899Y-48192043D01*
X24013283Y-48298876D01*
X24025029Y-48351403D01*
X24078441Y-48507854D01*
X24145682Y-48636208D01*
X24226949Y-48736760D01*
X24322433Y-48809803D01*
X24329842Y-48813997D01*
X24378046Y-48838461D01*
X24420476Y-48852533D01*
X24469360Y-48858899D01*
X24536928Y-48860247D01*
X24540302Y-48860234D01*
X24611196Y-48857119D01*
X24673423Y-48846543D01*
X24736539Y-48825628D01*
X24810104Y-48791498D01*
X24865132Y-48762451D01*
X24871994Y-48766864D01*
X24883881Y-48787522D01*
X24902273Y-48827671D01*
X24928648Y-48890555D01*
X24964485Y-48979421D01*
X24967856Y-48987878D01*
X24958997Y-49004820D01*
X24926949Y-49028588D01*
X24878267Y-49055640D01*
X24819502Y-49082438D01*
X24757208Y-49105441D01*
X24740962Y-49110446D01*
X24656243Y-49128476D01*
X24554197Y-49140035D01*
X24448370Y-49144337D01*
X24352302Y-49140592D01*
X24311956Y-49135421D01*
X24252955Y-49120449D01*
X24181933Y-49095569D01*
X24115106Y-49066553D01*
X23984393Y-48985216D01*
X23871546Y-48878355D01*
X23777058Y-48746718D01*
X23701420Y-48591051D01*
X23645125Y-48412101D01*
X23626382Y-48324966D01*
X23612710Y-48221836D01*
X23605515Y-48099652D01*
X23604535Y-47967268D01*
X23609505Y-47833541D01*
X23620163Y-47707326D01*
X23636246Y-47597478D01*
X23649781Y-47537966D01*
X23710979Y-47363646D01*
X23791770Y-47211736D01*
X23891148Y-47083374D01*
X24008105Y-46979697D01*
X24141634Y-46901841D01*
X24247885Y-46862292D01*
X24330746Y-46846163D01*
X24432221Y-46838724D01*
X24540642Y-46840011D01*
G36*
X18855755Y-46269444D02*
G01*
X18858630Y-46311116D01*
X18860930Y-46374735D01*
X18862488Y-46455527D01*
X18863139Y-46548716D01*
X18863148Y-46561578D01*
X18863148Y-46868664D01*
X19241100Y-46868664D01*
X19241100Y-47120632D01*
X18863148Y-47120632D01*
X18863148Y-48658982D01*
X18898973Y-48726729D01*
X18945039Y-48791264D01*
X19004279Y-48831205D01*
X19081404Y-48848928D01*
X19142708Y-48849690D01*
X19241166Y-48845038D01*
X19241133Y-48966155D01*
X19238348Y-49040811D01*
X19230140Y-49086070D01*
X19221415Y-49099626D01*
X19198007Y-49105325D01*
X19150929Y-49110669D01*
X19088005Y-49114906D01*
X19044250Y-49116653D01*
X18957887Y-49117443D01*
X18892757Y-49113166D01*
X18838855Y-49102783D01*
X18803384Y-49091661D01*
X18707529Y-49046432D01*
X18631230Y-48983573D01*
X18568105Y-48897316D01*
X18548188Y-48861009D01*
X18493070Y-48753781D01*
X18488593Y-47937206D01*
X18484117Y-47120632D01*
X18233228Y-47120632D01*
X18233228Y-46868664D01*
X18485196Y-46868664D01*
X18485196Y-46365812D01*
X18663495Y-46310152D01*
X18733943Y-46288426D01*
X18793143Y-46270669D01*
X18834786Y-46258739D01*
X18852471Y-46254492D01*
X18855755Y-46269444D01*
X18855755Y-46269444D01*
G37*
X18855755Y-46269444D02*
X18858630Y-46311116D01*
X18860930Y-46374735D01*
X18862488Y-46455527D01*
X18863139Y-46548716D01*
X18863148Y-46561578D01*
X18863148Y-46868664D01*
X19241100Y-46868664D01*
X19241100Y-47120632D01*
X18863148Y-47120632D01*
X18863148Y-48658982D01*
X18898973Y-48726729D01*
X18945039Y-48791264D01*
X19004279Y-48831205D01*
X19081404Y-48848928D01*
X19142708Y-48849690D01*
X19241166Y-48845038D01*
X19241133Y-48966155D01*
X19238348Y-49040811D01*
X19230140Y-49086070D01*
X19221415Y-49099626D01*
X19198007Y-49105325D01*
X19150929Y-49110669D01*
X19088005Y-49114906D01*
X19044250Y-49116653D01*
X18957887Y-49117443D01*
X18892757Y-49113166D01*
X18838855Y-49102783D01*
X18803384Y-49091661D01*
X18707529Y-49046432D01*
X18631230Y-48983573D01*
X18568105Y-48897316D01*
X18548188Y-48861009D01*
X18493070Y-48753781D01*
X18488593Y-47937206D01*
X18484117Y-47120632D01*
X18233228Y-47120632D01*
X18233228Y-46868664D01*
X18485196Y-46868664D01*
X18485196Y-46365812D01*
X18663495Y-46310152D01*
X18733943Y-46288426D01*
X18793143Y-46270669D01*
X18834786Y-46258739D01*
X18852471Y-46254492D01*
X18855755Y-46269444D01*
G36*
X27338500Y-46847934D02*
G01*
X27479271Y-46879987D01*
X27603888Y-46935132D01*
X27716461Y-47014942D01*
X27768553Y-47063613D01*
X27868300Y-47185569D01*
X27947318Y-47329028D01*
X28005961Y-47494900D01*
X28044585Y-47684095D01*
X28058095Y-47806636D01*
X28065731Y-48026880D01*
X28052844Y-48232824D01*
X28020106Y-48422524D01*
X27968183Y-48594035D01*
X27897744Y-48745411D01*
X27809459Y-48874707D01*
X27703995Y-48979978D01*
X27638549Y-49027161D01*
X27535336Y-49078408D01*
X27412499Y-49116601D01*
X27279808Y-49140004D01*
X27147028Y-49146884D01*
X27026072Y-49135896D01*
X26870713Y-49093331D01*
X26733021Y-49024959D01*
X26613580Y-48931436D01*
X26512970Y-48813416D01*
X26431776Y-48671552D01*
X26370581Y-48506499D01*
X26337228Y-48362757D01*
X26309196Y-48149469D01*
X26303315Y-47978157D01*
X26679775Y-47978157D01*
X26686639Y-48153941D01*
X26707674Y-48323017D01*
X26742896Y-48478411D01*
X26790663Y-48609537D01*
X26852305Y-48712891D01*
X26930412Y-48793717D01*
X27021038Y-48850398D01*
X27120232Y-48881318D01*
X27224048Y-48884859D01*
X27328537Y-48859405D01*
X27363274Y-48843979D01*
X27451728Y-48785796D01*
X27525071Y-48706116D01*
X27584047Y-48603338D01*
X27629396Y-48475865D01*
X27661861Y-48322097D01*
X27680669Y-48160000D01*
X27688833Y-47962406D01*
X27680784Y-47778380D01*
X27657156Y-47610675D01*
X27618579Y-47462044D01*
X27565687Y-47335239D01*
X27499111Y-47233014D01*
X27457763Y-47189068D01*
X27367830Y-47125409D01*
X27270287Y-47089846D01*
X27169492Y-47081338D01*
X27069802Y-47098846D01*
X26975575Y-47141331D01*
X26891168Y-47207753D01*
X26820939Y-47297073D01*
X26793695Y-47347455D01*
X26744043Y-47480314D01*
X26708494Y-47634368D01*
X26687066Y-47802641D01*
X26679775Y-47978157D01*
X26303315Y-47978157D01*
X26302077Y-47942113D01*
X26315237Y-47743981D01*
X26348043Y-47558364D01*
X26399862Y-47388555D01*
X26470060Y-47237845D01*
X26558004Y-47109525D01*
X26584035Y-47079872D01*
X26697280Y-46978968D01*
X26825238Y-46905332D01*
X26968825Y-46858588D01*
X27128958Y-46838362D01*
X27177464Y-46837401D01*
X27338500Y-46847934D01*
X27338500Y-46847934D01*
G37*
X27338500Y-46847934D02*
X27479271Y-46879987D01*
X27603888Y-46935132D01*
X27716461Y-47014942D01*
X27768553Y-47063613D01*
X27868300Y-47185569D01*
X27947318Y-47329028D01*
X28005961Y-47494900D01*
X28044585Y-47684095D01*
X28058095Y-47806636D01*
X28065731Y-48026880D01*
X28052844Y-48232824D01*
X28020106Y-48422524D01*
X27968183Y-48594035D01*
X27897744Y-48745411D01*
X27809459Y-48874707D01*
X27703995Y-48979978D01*
X27638549Y-49027161D01*
X27535336Y-49078408D01*
X27412499Y-49116601D01*
X27279808Y-49140004D01*
X27147028Y-49146884D01*
X27026072Y-49135896D01*
X26870713Y-49093331D01*
X26733021Y-49024959D01*
X26613580Y-48931436D01*
X26512970Y-48813416D01*
X26431776Y-48671552D01*
X26370581Y-48506499D01*
X26337228Y-48362757D01*
X26309196Y-48149469D01*
X26303315Y-47978157D01*
X26679775Y-47978157D01*
X26686639Y-48153941D01*
X26707674Y-48323017D01*
X26742896Y-48478411D01*
X26790663Y-48609537D01*
X26852305Y-48712891D01*
X26930412Y-48793717D01*
X27021038Y-48850398D01*
X27120232Y-48881318D01*
X27224048Y-48884859D01*
X27328537Y-48859405D01*
X27363274Y-48843979D01*
X27451728Y-48785796D01*
X27525071Y-48706116D01*
X27584047Y-48603338D01*
X27629396Y-48475865D01*
X27661861Y-48322097D01*
X27680669Y-48160000D01*
X27688833Y-47962406D01*
X27680784Y-47778380D01*
X27657156Y-47610675D01*
X27618579Y-47462044D01*
X27565687Y-47335239D01*
X27499111Y-47233014D01*
X27457763Y-47189068D01*
X27367830Y-47125409D01*
X27270287Y-47089846D01*
X27169492Y-47081338D01*
X27069802Y-47098846D01*
X26975575Y-47141331D01*
X26891168Y-47207753D01*
X26820939Y-47297073D01*
X26793695Y-47347455D01*
X26744043Y-47480314D01*
X26708494Y-47634368D01*
X26687066Y-47802641D01*
X26679775Y-47978157D01*
X26303315Y-47978157D01*
X26302077Y-47942113D01*
X26315237Y-47743981D01*
X26348043Y-47558364D01*
X26399862Y-47388555D01*
X26470060Y-47237845D01*
X26558004Y-47109525D01*
X26584035Y-47079872D01*
X26697280Y-46978968D01*
X26825238Y-46905332D01*
X26968825Y-46858588D01*
X27128958Y-46838362D01*
X27177464Y-46837401D01*
X27338500Y-46847934D01*
G36*
X15297751Y-46847833D02*
G01*
X15397450Y-46866497D01*
X15510608Y-46901190D01*
X15601916Y-46944245D01*
X15680837Y-47000654D01*
X15719641Y-47036444D01*
X15776867Y-47107912D01*
X15828247Y-47199412D01*
X15868063Y-47299483D01*
X15886450Y-47370881D01*
X15890100Y-47406332D01*
X15893376Y-47470657D01*
X15896231Y-47561233D01*
X15898613Y-47675439D01*
X15900475Y-47810653D01*
X15901765Y-47964254D01*
X15902436Y-48133621D01*
X15902524Y-48224404D01*
X15902524Y-48993170D01*
X15828716Y-49025819D01*
X15696561Y-49073297D01*
X15543469Y-49109980D01*
X15378484Y-49134719D01*
X15210650Y-49146367D01*
X15049012Y-49143776D01*
X14963755Y-49135571D01*
X14796711Y-49102290D01*
X14653931Y-49049385D01*
X14535703Y-48977171D01*
X14442314Y-48885962D01*
X14374051Y-48776070D01*
X14331202Y-48647809D01*
X14314054Y-48501493D01*
X14314884Y-48428039D01*
X14316891Y-48414154D01*
X14677704Y-48414154D01*
X14680632Y-48544438D01*
X14708945Y-48657040D01*
X14762035Y-48751021D01*
X14839297Y-48825443D01*
X14940127Y-48879368D01*
X14988361Y-48895398D01*
X15049981Y-48905934D01*
X15132502Y-48910730D01*
X15225929Y-48910162D01*
X15320266Y-48904607D01*
X15405517Y-48894439D01*
X15471688Y-48880036D01*
X15481265Y-48876856D01*
X15556068Y-48849951D01*
X15556068Y-47858522D01*
X15465517Y-47869447D01*
X15407727Y-47878538D01*
X15332910Y-47893205D01*
X15254431Y-47910765D01*
X15229756Y-47916800D01*
X15068315Y-47966434D01*
X14935748Y-48027420D01*
X14831297Y-48100441D01*
X14754201Y-48186184D01*
X14703701Y-48285331D01*
X14679037Y-48398569D01*
X14677704Y-48414154D01*
X14316891Y-48414154D01*
X14335388Y-48286169D01*
X14382933Y-48160045D01*
X14458113Y-48048308D01*
X14501016Y-48002457D01*
X14595816Y-47927132D01*
X14717700Y-47857807D01*
X14862579Y-47795995D01*
X15026361Y-47743213D01*
X15204957Y-47700977D01*
X15394275Y-47670801D01*
X15397104Y-47670456D01*
X15560366Y-47650670D01*
X15550927Y-47516926D01*
X15532663Y-47390797D01*
X15496434Y-47289588D01*
X15440603Y-47211285D01*
X15363535Y-47153874D01*
X15263592Y-47115341D01*
X15215755Y-47104557D01*
X15085531Y-47093216D01*
X14940788Y-47104064D01*
X14788300Y-47136084D01*
X14634839Y-47188258D01*
X14621329Y-47193858D01*
X14572899Y-47213070D01*
X14537419Y-47224946D01*
X14523320Y-47226989D01*
X14515289Y-47210365D01*
X14500176Y-47173295D01*
X14481470Y-47125006D01*
X14462660Y-47074722D01*
X14447235Y-47031667D01*
X14438684Y-47005065D01*
X14437960Y-47001296D01*
X14451145Y-46991016D01*
X14485372Y-46972840D01*
X14523843Y-46954933D01*
X14665211Y-46903792D01*
X14821962Y-46866633D01*
X14985420Y-46844335D01*
X15146908Y-46837775D01*
X15297751Y-46847833D01*
X15297751Y-46847833D01*
G37*
X15297751Y-46847833D02*
X15397450Y-46866497D01*
X15510608Y-46901190D01*
X15601916Y-46944245D01*
X15680837Y-47000654D01*
X15719641Y-47036444D01*
X15776867Y-47107912D01*
X15828247Y-47199412D01*
X15868063Y-47299483D01*
X15886450Y-47370881D01*
X15890100Y-47406332D01*
X15893376Y-47470657D01*
X15896231Y-47561233D01*
X15898613Y-47675439D01*
X15900475Y-47810653D01*
X15901765Y-47964254D01*
X15902436Y-48133621D01*
X15902524Y-48224404D01*
X15902524Y-48993170D01*
X15828716Y-49025819D01*
X15696561Y-49073297D01*
X15543469Y-49109980D01*
X15378484Y-49134719D01*
X15210650Y-49146367D01*
X15049012Y-49143776D01*
X14963755Y-49135571D01*
X14796711Y-49102290D01*
X14653931Y-49049385D01*
X14535703Y-48977171D01*
X14442314Y-48885962D01*
X14374051Y-48776070D01*
X14331202Y-48647809D01*
X14314054Y-48501493D01*
X14314884Y-48428039D01*
X14316891Y-48414154D01*
X14677704Y-48414154D01*
X14680632Y-48544438D01*
X14708945Y-48657040D01*
X14762035Y-48751021D01*
X14839297Y-48825443D01*
X14940127Y-48879368D01*
X14988361Y-48895398D01*
X15049981Y-48905934D01*
X15132502Y-48910730D01*
X15225929Y-48910162D01*
X15320266Y-48904607D01*
X15405517Y-48894439D01*
X15471688Y-48880036D01*
X15481265Y-48876856D01*
X15556068Y-48849951D01*
X15556068Y-47858522D01*
X15465517Y-47869447D01*
X15407727Y-47878538D01*
X15332910Y-47893205D01*
X15254431Y-47910765D01*
X15229756Y-47916800D01*
X15068315Y-47966434D01*
X14935748Y-48027420D01*
X14831297Y-48100441D01*
X14754201Y-48186184D01*
X14703701Y-48285331D01*
X14679037Y-48398569D01*
X14677704Y-48414154D01*
X14316891Y-48414154D01*
X14335388Y-48286169D01*
X14382933Y-48160045D01*
X14458113Y-48048308D01*
X14501016Y-48002457D01*
X14595816Y-47927132D01*
X14717700Y-47857807D01*
X14862579Y-47795995D01*
X15026361Y-47743213D01*
X15204957Y-47700977D01*
X15394275Y-47670801D01*
X15397104Y-47670456D01*
X15560366Y-47650670D01*
X15550927Y-47516926D01*
X15532663Y-47390797D01*
X15496434Y-47289588D01*
X15440603Y-47211285D01*
X15363535Y-47153874D01*
X15263592Y-47115341D01*
X15215755Y-47104557D01*
X15085531Y-47093216D01*
X14940788Y-47104064D01*
X14788300Y-47136084D01*
X14634839Y-47188258D01*
X14621329Y-47193858D01*
X14572899Y-47213070D01*
X14537419Y-47224946D01*
X14523320Y-47226989D01*
X14515289Y-47210365D01*
X14500176Y-47173295D01*
X14481470Y-47125006D01*
X14462660Y-47074722D01*
X14447235Y-47031667D01*
X14438684Y-47005065D01*
X14437960Y-47001296D01*
X14451145Y-46991016D01*
X14485372Y-46972840D01*
X14523843Y-46954933D01*
X14665211Y-46903792D01*
X14821962Y-46866633D01*
X14985420Y-46844335D01*
X15146908Y-46837775D01*
X15297751Y-46847833D01*
G36*
X10907858Y-44794154D02*
G01*
X10973014Y-44809089D01*
X10974103Y-44809539D01*
X10994597Y-44820232D01*
X11039945Y-44845318D01*
X11107742Y-44883414D01*
X11195582Y-44933138D01*
X11301060Y-44993105D01*
X11421770Y-45061933D01*
X11555306Y-45138238D01*
X11699263Y-45220638D01*
X11851236Y-45307750D01*
X12008818Y-45398190D01*
X12169605Y-45490575D01*
X12331190Y-45583522D01*
X12491169Y-45675648D01*
X12647134Y-45765570D01*
X12796682Y-45851904D01*
X12937406Y-45933268D01*
X13066901Y-46008279D01*
X13182761Y-46075553D01*
X13282580Y-46133707D01*
X13363954Y-46181359D01*
X13424476Y-46217124D01*
X13461741Y-46239621D01*
X13465999Y-46242284D01*
X13532798Y-46297139D01*
X13584109Y-46362739D01*
X13626938Y-46435594D01*
X13631185Y-47936694D01*
X13631822Y-48223912D01*
X13632033Y-48483067D01*
X13631819Y-48713768D01*
X13631183Y-48915625D01*
X13630130Y-49088247D01*
X13628661Y-49231242D01*
X13626779Y-49344219D01*
X13624489Y-49426788D01*
X13621791Y-49478558D01*
X13619421Y-49497256D01*
X13612991Y-49520965D01*
X13606136Y-49542589D01*
X13597223Y-49563216D01*
X13584614Y-49583937D01*
X13566676Y-49605840D01*
X13541773Y-49630014D01*
X13508270Y-49657548D01*
X13464531Y-49689532D01*
X13408923Y-49727053D01*
X13339809Y-49771202D01*
X13255555Y-49823068D01*
X13154525Y-49883738D01*
X13035084Y-49954304D01*
X12895598Y-50035853D01*
X12734430Y-50129474D01*
X12549947Y-50236257D01*
X12340513Y-50357291D01*
X12247302Y-50411142D01*
X10981274Y-51142603D01*
X10863164Y-51148672D01*
X10745054Y-51154742D01*
X10280488Y-50887563D01*
X9996010Y-50723979D01*
X9737538Y-50575352D01*
X9503807Y-50440884D01*
X9293550Y-50319777D01*
X9105501Y-50211231D01*
X8938394Y-50114450D01*
X8790963Y-50028634D01*
X8661943Y-49952986D01*
X8550066Y-49886708D01*
X8454068Y-49829000D01*
X8372682Y-49779066D01*
X8304642Y-49736106D01*
X8248682Y-49699323D01*
X8203535Y-49667918D01*
X8167937Y-49641094D01*
X8140621Y-49618051D01*
X8120322Y-49597992D01*
X8105772Y-49580119D01*
X8095706Y-49563633D01*
X8088858Y-49547736D01*
X8083961Y-49531630D01*
X8079751Y-49514516D01*
X8075421Y-49497290D01*
X8072405Y-49469658D01*
X8069795Y-49410912D01*
X8067593Y-49321435D01*
X8065802Y-49201605D01*
X8064425Y-49051803D01*
X8063466Y-48872410D01*
X8062926Y-48663806D01*
X8062809Y-48426373D01*
X8063118Y-48160489D01*
X8063566Y-47971024D01*
X9036396Y-47971024D01*
X9036417Y-48175721D01*
X9036598Y-48351328D01*
X9037116Y-48500252D01*
X9038149Y-48624899D01*
X9039873Y-48727676D01*
X9042465Y-48810988D01*
X9046103Y-48877244D01*
X9050964Y-48928847D01*
X9057225Y-48968206D01*
X9065063Y-48997727D01*
X9074655Y-49019815D01*
X9086178Y-49036878D01*
X9099810Y-49051321D01*
X9115727Y-49065552D01*
X9117043Y-49066700D01*
X9138142Y-49081079D01*
X9183539Y-49109185D01*
X9250268Y-49149311D01*
X9335363Y-49199750D01*
X9435858Y-49258796D01*
X9548787Y-49324740D01*
X9671184Y-49395876D01*
X9800083Y-49470497D01*
X9932519Y-49546896D01*
X10065524Y-49623365D01*
X10196134Y-49698198D01*
X10321382Y-49769687D01*
X10438302Y-49836126D01*
X10543929Y-49895807D01*
X10635296Y-49947023D01*
X10709437Y-49988068D01*
X10763387Y-50017233D01*
X10794179Y-50032813D01*
X10799008Y-50034762D01*
X10838054Y-50045408D01*
X10865348Y-50046037D01*
X10897695Y-50035649D01*
X10916880Y-50027739D01*
X10943112Y-50014599D01*
X10993026Y-49987524D01*
X11063637Y-49948241D01*
X11151960Y-49898476D01*
X11255011Y-49839956D01*
X11369804Y-49774405D01*
X11493356Y-49703552D01*
X11622682Y-49629121D01*
X11754798Y-49552839D01*
X11886718Y-49476433D01*
X12015459Y-49401628D01*
X12138035Y-49330151D01*
X12251463Y-49263728D01*
X12352757Y-49204084D01*
X12438933Y-49152947D01*
X12507006Y-49112043D01*
X12553993Y-49083097D01*
X12576907Y-49067836D01*
X12577789Y-49067104D01*
X12593891Y-49052621D01*
X12607693Y-49038146D01*
X12619373Y-49021271D01*
X12629107Y-48999588D01*
X12637073Y-48970687D01*
X12643448Y-48932161D01*
X12648409Y-48881599D01*
X12652133Y-48816593D01*
X12654798Y-48734736D01*
X12656581Y-48633616D01*
X12657659Y-48510827D01*
X12658210Y-48363959D01*
X12658409Y-48190603D01*
X12658436Y-47988351D01*
X12658436Y-47971024D01*
X12658433Y-47765425D01*
X12658286Y-47588931D01*
X12657785Y-47439151D01*
X12656720Y-47313693D01*
X12654883Y-47210166D01*
X12652065Y-47126179D01*
X12648055Y-47059341D01*
X12642645Y-47007260D01*
X12635625Y-46967546D01*
X12626787Y-46937806D01*
X12615921Y-46915651D01*
X12602818Y-46898689D01*
X12587268Y-46884528D01*
X12569063Y-46870778D01*
X12561682Y-46865367D01*
X12538559Y-46850489D01*
X12490728Y-46821464D01*
X12420802Y-46779824D01*
X12331389Y-46727098D01*
X12225101Y-46664817D01*
X12104547Y-46594511D01*
X11972339Y-46517711D01*
X11831087Y-46435947D01*
X11712007Y-46367229D01*
X11541856Y-46269299D01*
X11396715Y-46186096D01*
X11274403Y-46116459D01*
X11172734Y-46059225D01*
X11089526Y-46013232D01*
X11022595Y-45977319D01*
X10969758Y-45950324D01*
X10928831Y-45931084D01*
X10897631Y-45918437D01*
X10873975Y-45911223D01*
X10855678Y-45908279D01*
X10849103Y-45908036D01*
X10832641Y-45909524D01*
X10811755Y-45914750D01*
X10784300Y-45924861D01*
X10748133Y-45941000D01*
X10701110Y-45964313D01*
X10641086Y-45995945D01*
X10565917Y-46037041D01*
X10473461Y-46088745D01*
X10361573Y-46152204D01*
X10228109Y-46228561D01*
X10070925Y-46318962D01*
X9960890Y-46382410D01*
X9812796Y-46467998D01*
X9672296Y-46549465D01*
X9541858Y-46625359D01*
X9423955Y-46694231D01*
X9321056Y-46754630D01*
X9235632Y-46805107D01*
X9170154Y-46844212D01*
X9127094Y-46870493D01*
X9109025Y-46882409D01*
X9094524Y-46895426D01*
X9082094Y-46909199D01*
X9071576Y-46926121D01*
X9062809Y-46948583D01*
X9055635Y-46978976D01*
X9049894Y-47019694D01*
X9045426Y-47073129D01*
X9042072Y-47141671D01*
X9039671Y-47227713D01*
X9038066Y-47333647D01*
X9037095Y-47461865D01*
X9036599Y-47614759D01*
X9036420Y-47794721D01*
X9036396Y-47971024D01*
X8063566Y-47971024D01*
X8063647Y-47936694D01*
X8064326Y-47681526D01*
X8064912Y-47455932D01*
X8065528Y-47257989D01*
X8066293Y-47085776D01*
X8067330Y-46937371D01*
X8068759Y-46810852D01*
X8070703Y-46704298D01*
X8073282Y-46615786D01*
X8076617Y-46543395D01*
X8080830Y-46485202D01*
X8086043Y-46439287D01*
X8092376Y-46403727D01*
X8099950Y-46376600D01*
X8108888Y-46355985D01*
X8119310Y-46339960D01*
X8131338Y-46326603D01*
X8145092Y-46313992D01*
X8160695Y-46300205D01*
X8167316Y-46294086D01*
X8187386Y-46280068D01*
X8232768Y-46251538D01*
X8301464Y-46209677D01*
X8391476Y-46155663D01*
X8500806Y-46090676D01*
X8627456Y-46015895D01*
X8769428Y-45932500D01*
X8924725Y-45841669D01*
X9091348Y-45744582D01*
X9267300Y-45642419D01*
X9450582Y-45536358D01*
X9470141Y-45525061D01*
X9683799Y-45401694D01*
X9871960Y-45293139D01*
X10036390Y-45198439D01*
X10178857Y-45116639D01*
X10301128Y-45046782D01*
X10404970Y-44987911D01*
X10492150Y-44939071D01*
X10564435Y-44899306D01*
X10623592Y-44867659D01*
X10671390Y-44843174D01*
X10709594Y-44824896D01*
X10739972Y-44811867D01*
X10764292Y-44803131D01*
X10784319Y-44797733D01*
X10801823Y-44794716D01*
X10818569Y-44793125D01*
X10823480Y-44792797D01*
X10907858Y-44794154D01*
X10907858Y-44794154D01*
G37*
X10907858Y-44794154D02*
X10973014Y-44809089D01*
X10974103Y-44809539D01*
X10994597Y-44820232D01*
X11039945Y-44845318D01*
X11107742Y-44883414D01*
X11195582Y-44933138D01*
X11301060Y-44993105D01*
X11421770Y-45061933D01*
X11555306Y-45138238D01*
X11699263Y-45220638D01*
X11851236Y-45307750D01*
X12008818Y-45398190D01*
X12169605Y-45490575D01*
X12331190Y-45583522D01*
X12491169Y-45675648D01*
X12647134Y-45765570D01*
X12796682Y-45851904D01*
X12937406Y-45933268D01*
X13066901Y-46008279D01*
X13182761Y-46075553D01*
X13282580Y-46133707D01*
X13363954Y-46181359D01*
X13424476Y-46217124D01*
X13461741Y-46239621D01*
X13465999Y-46242284D01*
X13532798Y-46297139D01*
X13584109Y-46362739D01*
X13626938Y-46435594D01*
X13631185Y-47936694D01*
X13631822Y-48223912D01*
X13632033Y-48483067D01*
X13631819Y-48713768D01*
X13631183Y-48915625D01*
X13630130Y-49088247D01*
X13628661Y-49231242D01*
X13626779Y-49344219D01*
X13624489Y-49426788D01*
X13621791Y-49478558D01*
X13619421Y-49497256D01*
X13612991Y-49520965D01*
X13606136Y-49542589D01*
X13597223Y-49563216D01*
X13584614Y-49583937D01*
X13566676Y-49605840D01*
X13541773Y-49630014D01*
X13508270Y-49657548D01*
X13464531Y-49689532D01*
X13408923Y-49727053D01*
X13339809Y-49771202D01*
X13255555Y-49823068D01*
X13154525Y-49883738D01*
X13035084Y-49954304D01*
X12895598Y-50035853D01*
X12734430Y-50129474D01*
X12549947Y-50236257D01*
X12340513Y-50357291D01*
X12247302Y-50411142D01*
X10981274Y-51142603D01*
X10863164Y-51148672D01*
X10745054Y-51154742D01*
X10280488Y-50887563D01*
X9996010Y-50723979D01*
X9737538Y-50575352D01*
X9503807Y-50440884D01*
X9293550Y-50319777D01*
X9105501Y-50211231D01*
X8938394Y-50114450D01*
X8790963Y-50028634D01*
X8661943Y-49952986D01*
X8550066Y-49886708D01*
X8454068Y-49829000D01*
X8372682Y-49779066D01*
X8304642Y-49736106D01*
X8248682Y-49699323D01*
X8203535Y-49667918D01*
X8167937Y-49641094D01*
X8140621Y-49618051D01*
X8120322Y-49597992D01*
X8105772Y-49580119D01*
X8095706Y-49563633D01*
X8088858Y-49547736D01*
X8083961Y-49531630D01*
X8079751Y-49514516D01*
X8075421Y-49497290D01*
X8072405Y-49469658D01*
X8069795Y-49410912D01*
X8067593Y-49321435D01*
X8065802Y-49201605D01*
X8064425Y-49051803D01*
X8063466Y-48872410D01*
X8062926Y-48663806D01*
X8062809Y-48426373D01*
X8063118Y-48160489D01*
X8063566Y-47971024D01*
X9036396Y-47971024D01*
X9036417Y-48175721D01*
X9036598Y-48351328D01*
X9037116Y-48500252D01*
X9038149Y-48624899D01*
X9039873Y-48727676D01*
X9042465Y-48810988D01*
X9046103Y-48877244D01*
X9050964Y-48928847D01*
X9057225Y-48968206D01*
X9065063Y-48997727D01*
X9074655Y-49019815D01*
X9086178Y-49036878D01*
X9099810Y-49051321D01*
X9115727Y-49065552D01*
X9117043Y-49066700D01*
X9138142Y-49081079D01*
X9183539Y-49109185D01*
X9250268Y-49149311D01*
X9335363Y-49199750D01*
X9435858Y-49258796D01*
X9548787Y-49324740D01*
X9671184Y-49395876D01*
X9800083Y-49470497D01*
X9932519Y-49546896D01*
X10065524Y-49623365D01*
X10196134Y-49698198D01*
X10321382Y-49769687D01*
X10438302Y-49836126D01*
X10543929Y-49895807D01*
X10635296Y-49947023D01*
X10709437Y-49988068D01*
X10763387Y-50017233D01*
X10794179Y-50032813D01*
X10799008Y-50034762D01*
X10838054Y-50045408D01*
X10865348Y-50046037D01*
X10897695Y-50035649D01*
X10916880Y-50027739D01*
X10943112Y-50014599D01*
X10993026Y-49987524D01*
X11063637Y-49948241D01*
X11151960Y-49898476D01*
X11255011Y-49839956D01*
X11369804Y-49774405D01*
X11493356Y-49703552D01*
X11622682Y-49629121D01*
X11754798Y-49552839D01*
X11886718Y-49476433D01*
X12015459Y-49401628D01*
X12138035Y-49330151D01*
X12251463Y-49263728D01*
X12352757Y-49204084D01*
X12438933Y-49152947D01*
X12507006Y-49112043D01*
X12553993Y-49083097D01*
X12576907Y-49067836D01*
X12577789Y-49067104D01*
X12593891Y-49052621D01*
X12607693Y-49038146D01*
X12619373Y-49021271D01*
X12629107Y-48999588D01*
X12637073Y-48970687D01*
X12643448Y-48932161D01*
X12648409Y-48881599D01*
X12652133Y-48816593D01*
X12654798Y-48734736D01*
X12656581Y-48633616D01*
X12657659Y-48510827D01*
X12658210Y-48363959D01*
X12658409Y-48190603D01*
X12658436Y-47988351D01*
X12658436Y-47971024D01*
X12658433Y-47765425D01*
X12658286Y-47588931D01*
X12657785Y-47439151D01*
X12656720Y-47313693D01*
X12654883Y-47210166D01*
X12652065Y-47126179D01*
X12648055Y-47059341D01*
X12642645Y-47007260D01*
X12635625Y-46967546D01*
X12626787Y-46937806D01*
X12615921Y-46915651D01*
X12602818Y-46898689D01*
X12587268Y-46884528D01*
X12569063Y-46870778D01*
X12561682Y-46865367D01*
X12538559Y-46850489D01*
X12490728Y-46821464D01*
X12420802Y-46779824D01*
X12331389Y-46727098D01*
X12225101Y-46664817D01*
X12104547Y-46594511D01*
X11972339Y-46517711D01*
X11831087Y-46435947D01*
X11712007Y-46367229D01*
X11541856Y-46269299D01*
X11396715Y-46186096D01*
X11274403Y-46116459D01*
X11172734Y-46059225D01*
X11089526Y-46013232D01*
X11022595Y-45977319D01*
X10969758Y-45950324D01*
X10928831Y-45931084D01*
X10897631Y-45918437D01*
X10873975Y-45911223D01*
X10855678Y-45908279D01*
X10849103Y-45908036D01*
X10832641Y-45909524D01*
X10811755Y-45914750D01*
X10784300Y-45924861D01*
X10748133Y-45941000D01*
X10701110Y-45964313D01*
X10641086Y-45995945D01*
X10565917Y-46037041D01*
X10473461Y-46088745D01*
X10361573Y-46152204D01*
X10228109Y-46228561D01*
X10070925Y-46318962D01*
X9960890Y-46382410D01*
X9812796Y-46467998D01*
X9672296Y-46549465D01*
X9541858Y-46625359D01*
X9423955Y-46694231D01*
X9321056Y-46754630D01*
X9235632Y-46805107D01*
X9170154Y-46844212D01*
X9127094Y-46870493D01*
X9109025Y-46882409D01*
X9094524Y-46895426D01*
X9082094Y-46909199D01*
X9071576Y-46926121D01*
X9062809Y-46948583D01*
X9055635Y-46978976D01*
X9049894Y-47019694D01*
X9045426Y-47073129D01*
X9042072Y-47141671D01*
X9039671Y-47227713D01*
X9038066Y-47333647D01*
X9037095Y-47461865D01*
X9036599Y-47614759D01*
X9036420Y-47794721D01*
X9036396Y-47971024D01*
X8063566Y-47971024D01*
X8063647Y-47936694D01*
X8064326Y-47681526D01*
X8064912Y-47455932D01*
X8065528Y-47257989D01*
X8066293Y-47085776D01*
X8067330Y-46937371D01*
X8068759Y-46810852D01*
X8070703Y-46704298D01*
X8073282Y-46615786D01*
X8076617Y-46543395D01*
X8080830Y-46485202D01*
X8086043Y-46439287D01*
X8092376Y-46403727D01*
X8099950Y-46376600D01*
X8108888Y-46355985D01*
X8119310Y-46339960D01*
X8131338Y-46326603D01*
X8145092Y-46313992D01*
X8160695Y-46300205D01*
X8167316Y-46294086D01*
X8187386Y-46280068D01*
X8232768Y-46251538D01*
X8301464Y-46209677D01*
X8391476Y-46155663D01*
X8500806Y-46090676D01*
X8627456Y-46015895D01*
X8769428Y-45932500D01*
X8924725Y-45841669D01*
X9091348Y-45744582D01*
X9267300Y-45642419D01*
X9450582Y-45536358D01*
X9470141Y-45525061D01*
X9683799Y-45401694D01*
X9871960Y-45293139D01*
X10036390Y-45198439D01*
X10178857Y-45116639D01*
X10301128Y-45046782D01*
X10404970Y-44987911D01*
X10492150Y-44939071D01*
X10564435Y-44899306D01*
X10623592Y-44867659D01*
X10671390Y-44843174D01*
X10709594Y-44824896D01*
X10739972Y-44811867D01*
X10764292Y-44803131D01*
X10784319Y-44797733D01*
X10801823Y-44794716D01*
X10818569Y-44793125D01*
X10823480Y-44792797D01*
X10907858Y-44794154D01*
D12*
G36*
X4207668Y-58928032D02*
G01*
X4419113Y-58970091D01*
X4595408Y-59043115D01*
X4990125Y-59206612D01*
X4992558Y-59207620D01*
X5508645Y-59552459D01*
X5947541Y-59991355D01*
X6284437Y-60495554D01*
X6292381Y-60507444D01*
X6302138Y-60531000D01*
X6502148Y-61013865D01*
X6529909Y-61080888D01*
X6646460Y-61666827D01*
X6651000Y-61689654D01*
X6651000Y-62310346D01*
X6529909Y-62919113D01*
X6292380Y-63492558D01*
X5947541Y-64008645D01*
X5508645Y-64447541D01*
X4992558Y-64792380D01*
X4419113Y-65029909D01*
X4216191Y-65070273D01*
X3810348Y-65151000D01*
X3189652Y-65151000D01*
X2783809Y-65070273D01*
X2580887Y-65029909D01*
X2007442Y-64792380D01*
X1491355Y-64447541D01*
X1052459Y-64008645D01*
X707620Y-63492558D01*
X470091Y-62919113D01*
X349000Y-62310346D01*
X349000Y-61689654D01*
X353541Y-61666827D01*
X470091Y-61080888D01*
X497853Y-61013865D01*
X697862Y-60531000D01*
X707619Y-60507444D01*
X715564Y-60495554D01*
X1052459Y-59991355D01*
X1491355Y-59552459D01*
X2007442Y-59207620D01*
X2009876Y-59206612D01*
X2404592Y-59043115D01*
X2580887Y-58970091D01*
X2792332Y-58928032D01*
X3189652Y-58849000D01*
X3810348Y-58849000D01*
X4207668Y-58928032D01*
X4207668Y-58928032D01*
G37*
G36*
X53207668Y-58928032D02*
G01*
X53419113Y-58970091D01*
X53595408Y-59043115D01*
X53990125Y-59206612D01*
X53992558Y-59207620D01*
X54508645Y-59552459D01*
X54947541Y-59991355D01*
X55284437Y-60495554D01*
X55292381Y-60507444D01*
X55302138Y-60531000D01*
X55502148Y-61013865D01*
X55529909Y-61080888D01*
X55646460Y-61666827D01*
X55651000Y-61689654D01*
X55651000Y-62310346D01*
X55529909Y-62919113D01*
X55292380Y-63492558D01*
X54947541Y-64008645D01*
X54508645Y-64447541D01*
X53992558Y-64792380D01*
X53419113Y-65029909D01*
X53216191Y-65070273D01*
X52810348Y-65151000D01*
X52189652Y-65151000D01*
X51783809Y-65070273D01*
X51580887Y-65029909D01*
X51007442Y-64792380D01*
X50491355Y-64447541D01*
X50052459Y-64008645D01*
X49707620Y-63492558D01*
X49470091Y-62919113D01*
X49349000Y-62310346D01*
X49349000Y-61689654D01*
X49353541Y-61666827D01*
X49470091Y-61080888D01*
X49497853Y-61013865D01*
X49697862Y-60531000D01*
X49707619Y-60507444D01*
X49715564Y-60495554D01*
X50052459Y-59991355D01*
X50491355Y-59552459D01*
X51007442Y-59207620D01*
X51009876Y-59206612D01*
X51404592Y-59043115D01*
X51580887Y-58970091D01*
X51792332Y-58928032D01*
X52189652Y-58849000D01*
X52810348Y-58849000D01*
X53207668Y-58928032D01*
X53207668Y-58928032D01*
G37*
G36*
X30376601Y-55534397D02*
G01*
X30415305Y-55542096D01*
X30447340Y-55555365D01*
X30524680Y-55587400D01*
X30623115Y-55653173D01*
X30706828Y-55736886D01*
X30771067Y-55833026D01*
X30786613Y-55851968D01*
X30805555Y-55867513D01*
X30827165Y-55879064D01*
X30850614Y-55886177D01*
X30875000Y-55888579D01*
X30899386Y-55886177D01*
X30922835Y-55879064D01*
X30944446Y-55867513D01*
X30963388Y-55851967D01*
X30978933Y-55833026D01*
X31043172Y-55736886D01*
X31126885Y-55653173D01*
X31225320Y-55587400D01*
X31302660Y-55555365D01*
X31334695Y-55542096D01*
X31373399Y-55534397D01*
X31450805Y-55519000D01*
X31569195Y-55519000D01*
X31646601Y-55534397D01*
X31685305Y-55542096D01*
X31717340Y-55555365D01*
X31794680Y-55587400D01*
X31893115Y-55653173D01*
X31976827Y-55736885D01*
X32042600Y-55835320D01*
X32087904Y-55944696D01*
X32111000Y-56060805D01*
X32111000Y-56179195D01*
X32087904Y-56295304D01*
X32042600Y-56404680D01*
X31976827Y-56503115D01*
X31893114Y-56586828D01*
X31796974Y-56651067D01*
X31778032Y-56666613D01*
X31762487Y-56685555D01*
X31750936Y-56707165D01*
X31743823Y-56730614D01*
X31741421Y-56755000D01*
X31743823Y-56779386D01*
X31750936Y-56802835D01*
X31762487Y-56824446D01*
X31778033Y-56843388D01*
X31796974Y-56858933D01*
X31893114Y-56923172D01*
X31976827Y-57006885D01*
X32042600Y-57105320D01*
X32087904Y-57214696D01*
X32111000Y-57330805D01*
X32111000Y-57449195D01*
X32087904Y-57565304D01*
X32042600Y-57674680D01*
X31976827Y-57773115D01*
X31893114Y-57856828D01*
X31796974Y-57921067D01*
X31778032Y-57936613D01*
X31762487Y-57955555D01*
X31750936Y-57977165D01*
X31743823Y-58000614D01*
X31741421Y-58025000D01*
X31743823Y-58049386D01*
X31750936Y-58072835D01*
X31762487Y-58094446D01*
X31778033Y-58113388D01*
X31796974Y-58128933D01*
X31893114Y-58193172D01*
X31976827Y-58276885D01*
X32042600Y-58375320D01*
X32087904Y-58484696D01*
X32111000Y-58600805D01*
X32111000Y-58719195D01*
X32087904Y-58835304D01*
X32042600Y-58944680D01*
X31976827Y-59043115D01*
X31893114Y-59126828D01*
X31796974Y-59191067D01*
X31778032Y-59206613D01*
X31762487Y-59225555D01*
X31750936Y-59247165D01*
X31743823Y-59270614D01*
X31741421Y-59295000D01*
X31743823Y-59319386D01*
X31750936Y-59342835D01*
X31762487Y-59364446D01*
X31778033Y-59383388D01*
X31796974Y-59398933D01*
X31893114Y-59463172D01*
X31976827Y-59546885D01*
X32042600Y-59645320D01*
X32087904Y-59754696D01*
X32111000Y-59870805D01*
X32111000Y-59989195D01*
X32087904Y-60105304D01*
X32042600Y-60214680D01*
X31976827Y-60313115D01*
X31893114Y-60396828D01*
X31796974Y-60461067D01*
X31778032Y-60476613D01*
X31762487Y-60495555D01*
X31750936Y-60517165D01*
X31743823Y-60540614D01*
X31741421Y-60565000D01*
X31743823Y-60589386D01*
X31750936Y-60612835D01*
X31762487Y-60634446D01*
X31778033Y-60653388D01*
X31796974Y-60668933D01*
X31893114Y-60733172D01*
X31976827Y-60816885D01*
X32042600Y-60915320D01*
X32055934Y-60947513D01*
X32083418Y-61013864D01*
X32087904Y-61024696D01*
X32111000Y-61140805D01*
X32111000Y-61259195D01*
X32087904Y-61375304D01*
X32042600Y-61484680D01*
X31976827Y-61583115D01*
X31893115Y-61666827D01*
X31794680Y-61732600D01*
X31717340Y-61764635D01*
X31685305Y-61777904D01*
X31646601Y-61785603D01*
X31569195Y-61801000D01*
X31450805Y-61801000D01*
X31373399Y-61785603D01*
X31334695Y-61777904D01*
X31302660Y-61764635D01*
X31225320Y-61732600D01*
X31126885Y-61666827D01*
X31043172Y-61583114D01*
X30978933Y-61486974D01*
X30963387Y-61468032D01*
X30944445Y-61452487D01*
X30922835Y-61440936D01*
X30899386Y-61433823D01*
X30875000Y-61431421D01*
X30850614Y-61433823D01*
X30827165Y-61440936D01*
X30805554Y-61452487D01*
X30786612Y-61468033D01*
X30771067Y-61486974D01*
X30706828Y-61583114D01*
X30623115Y-61666827D01*
X30524680Y-61732600D01*
X30447340Y-61764635D01*
X30415305Y-61777904D01*
X30376601Y-61785603D01*
X30299195Y-61801000D01*
X30180805Y-61801000D01*
X30103399Y-61785603D01*
X30064695Y-61777904D01*
X30032660Y-61764635D01*
X29955320Y-61732600D01*
X29856885Y-61666827D01*
X29773173Y-61583115D01*
X29707400Y-61484680D01*
X29662096Y-61375304D01*
X29639000Y-61259195D01*
X29639000Y-61140805D01*
X29662096Y-61024696D01*
X29666583Y-61013864D01*
X29694066Y-60947513D01*
X29707400Y-60915320D01*
X29773173Y-60816885D01*
X29856886Y-60733172D01*
X29953026Y-60668933D01*
X29971968Y-60653387D01*
X29987513Y-60634445D01*
X29999064Y-60612835D01*
X30006177Y-60589386D01*
X30008579Y-60565000D01*
X30471421Y-60565000D01*
X30473823Y-60589386D01*
X30480936Y-60612835D01*
X30492487Y-60634446D01*
X30508033Y-60653388D01*
X30526974Y-60668933D01*
X30623114Y-60733172D01*
X30706828Y-60816886D01*
X30771067Y-60913026D01*
X30786613Y-60931968D01*
X30805555Y-60947513D01*
X30827165Y-60959064D01*
X30850614Y-60966177D01*
X30875000Y-60968579D01*
X30899386Y-60966177D01*
X30922835Y-60959064D01*
X30944446Y-60947513D01*
X30963388Y-60931967D01*
X30978933Y-60913026D01*
X31043172Y-60816886D01*
X31126886Y-60733172D01*
X31223026Y-60668933D01*
X31241968Y-60653387D01*
X31257513Y-60634445D01*
X31269064Y-60612835D01*
X31276177Y-60589386D01*
X31278579Y-60565000D01*
X31276177Y-60540614D01*
X31269064Y-60517165D01*
X31257513Y-60495554D01*
X31241967Y-60476612D01*
X31223026Y-60461067D01*
X31126886Y-60396828D01*
X31043172Y-60313114D01*
X30978933Y-60216974D01*
X30963387Y-60198032D01*
X30944445Y-60182487D01*
X30922835Y-60170936D01*
X30899386Y-60163823D01*
X30875000Y-60161421D01*
X30850614Y-60163823D01*
X30827165Y-60170936D01*
X30805554Y-60182487D01*
X30786612Y-60198033D01*
X30771067Y-60216974D01*
X30706828Y-60313114D01*
X30623114Y-60396828D01*
X30526974Y-60461067D01*
X30508032Y-60476613D01*
X30492487Y-60495555D01*
X30480936Y-60517165D01*
X30473823Y-60540614D01*
X30471421Y-60565000D01*
X30008579Y-60565000D01*
X30006177Y-60540614D01*
X29999064Y-60517165D01*
X29987513Y-60495554D01*
X29971967Y-60476612D01*
X29953026Y-60461067D01*
X29856886Y-60396828D01*
X29773173Y-60313115D01*
X29707400Y-60214680D01*
X29662096Y-60105304D01*
X29639000Y-59989195D01*
X29639000Y-59870805D01*
X29662096Y-59754696D01*
X29707400Y-59645320D01*
X29773173Y-59546885D01*
X29856886Y-59463172D01*
X29953026Y-59398933D01*
X29971968Y-59383387D01*
X29987513Y-59364445D01*
X29999064Y-59342835D01*
X30006177Y-59319386D01*
X30008579Y-59295000D01*
X30471421Y-59295000D01*
X30473823Y-59319386D01*
X30480936Y-59342835D01*
X30492487Y-59364446D01*
X30508033Y-59383388D01*
X30526974Y-59398933D01*
X30623114Y-59463172D01*
X30706828Y-59546886D01*
X30771067Y-59643026D01*
X30786613Y-59661968D01*
X30805555Y-59677513D01*
X30827165Y-59689064D01*
X30850614Y-59696177D01*
X30875000Y-59698579D01*
X30899386Y-59696177D01*
X30922835Y-59689064D01*
X30944446Y-59677513D01*
X30963388Y-59661967D01*
X30978933Y-59643026D01*
X31043172Y-59546886D01*
X31126886Y-59463172D01*
X31223026Y-59398933D01*
X31241968Y-59383387D01*
X31257513Y-59364445D01*
X31269064Y-59342835D01*
X31276177Y-59319386D01*
X31278579Y-59295000D01*
X31276177Y-59270614D01*
X31269064Y-59247165D01*
X31257513Y-59225554D01*
X31241967Y-59206612D01*
X31223026Y-59191067D01*
X31126886Y-59126828D01*
X31043172Y-59043114D01*
X30978933Y-58946974D01*
X30963387Y-58928032D01*
X30944445Y-58912487D01*
X30922835Y-58900936D01*
X30899386Y-58893823D01*
X30875000Y-58891421D01*
X30850614Y-58893823D01*
X30827165Y-58900936D01*
X30805554Y-58912487D01*
X30786612Y-58928033D01*
X30771067Y-58946974D01*
X30706828Y-59043114D01*
X30623114Y-59126828D01*
X30526974Y-59191067D01*
X30508032Y-59206613D01*
X30492487Y-59225555D01*
X30480936Y-59247165D01*
X30473823Y-59270614D01*
X30471421Y-59295000D01*
X30008579Y-59295000D01*
X30006177Y-59270614D01*
X29999064Y-59247165D01*
X29987513Y-59225554D01*
X29971967Y-59206612D01*
X29953026Y-59191067D01*
X29856886Y-59126828D01*
X29773173Y-59043115D01*
X29707400Y-58944680D01*
X29662096Y-58835304D01*
X29639000Y-58719195D01*
X29639000Y-58600805D01*
X29662096Y-58484696D01*
X29707400Y-58375320D01*
X29773173Y-58276885D01*
X29856886Y-58193172D01*
X29953026Y-58128933D01*
X29971968Y-58113387D01*
X29987513Y-58094445D01*
X29999064Y-58072835D01*
X30006177Y-58049386D01*
X30008579Y-58025000D01*
X30471421Y-58025000D01*
X30473823Y-58049386D01*
X30480936Y-58072835D01*
X30492487Y-58094446D01*
X30508033Y-58113388D01*
X30526974Y-58128933D01*
X30623114Y-58193172D01*
X30706828Y-58276886D01*
X30771067Y-58373026D01*
X30786613Y-58391968D01*
X30805555Y-58407513D01*
X30827165Y-58419064D01*
X30850614Y-58426177D01*
X30875000Y-58428579D01*
X30899386Y-58426177D01*
X30922835Y-58419064D01*
X30944446Y-58407513D01*
X30963388Y-58391967D01*
X30978933Y-58373026D01*
X31043172Y-58276886D01*
X31126886Y-58193172D01*
X31223026Y-58128933D01*
X31241968Y-58113387D01*
X31257513Y-58094445D01*
X31269064Y-58072835D01*
X31276177Y-58049386D01*
X31278579Y-58025000D01*
X31276177Y-58000614D01*
X31269064Y-57977165D01*
X31257513Y-57955554D01*
X31241967Y-57936612D01*
X31223026Y-57921067D01*
X31126886Y-57856828D01*
X31043172Y-57773114D01*
X30978933Y-57676974D01*
X30963387Y-57658032D01*
X30944445Y-57642487D01*
X30922835Y-57630936D01*
X30899386Y-57623823D01*
X30875000Y-57621421D01*
X30850614Y-57623823D01*
X30827165Y-57630936D01*
X30805554Y-57642487D01*
X30786612Y-57658033D01*
X30771067Y-57676974D01*
X30706828Y-57773114D01*
X30623114Y-57856828D01*
X30526974Y-57921067D01*
X30508032Y-57936613D01*
X30492487Y-57955555D01*
X30480936Y-57977165D01*
X30473823Y-58000614D01*
X30471421Y-58025000D01*
X30008579Y-58025000D01*
X30006177Y-58000614D01*
X29999064Y-57977165D01*
X29987513Y-57955554D01*
X29971967Y-57936612D01*
X29953026Y-57921067D01*
X29856886Y-57856828D01*
X29773173Y-57773115D01*
X29707400Y-57674680D01*
X29662096Y-57565304D01*
X29639000Y-57449195D01*
X29639000Y-57330805D01*
X29662096Y-57214696D01*
X29707400Y-57105320D01*
X29773173Y-57006885D01*
X29856886Y-56923172D01*
X29953026Y-56858933D01*
X29971968Y-56843387D01*
X29987513Y-56824445D01*
X29999064Y-56802835D01*
X30006177Y-56779386D01*
X30008579Y-56755000D01*
X30471421Y-56755000D01*
X30473823Y-56779386D01*
X30480936Y-56802835D01*
X30492487Y-56824446D01*
X30508033Y-56843388D01*
X30526974Y-56858933D01*
X30623114Y-56923172D01*
X30706828Y-57006886D01*
X30771067Y-57103026D01*
X30786613Y-57121968D01*
X30805555Y-57137513D01*
X30827165Y-57149064D01*
X30850614Y-57156177D01*
X30875000Y-57158579D01*
X30899386Y-57156177D01*
X30922835Y-57149064D01*
X30944446Y-57137513D01*
X30963388Y-57121967D01*
X30978933Y-57103026D01*
X31043172Y-57006886D01*
X31126886Y-56923172D01*
X31223026Y-56858933D01*
X31241968Y-56843387D01*
X31257513Y-56824445D01*
X31269064Y-56802835D01*
X31276177Y-56779386D01*
X31278579Y-56755000D01*
X31276177Y-56730614D01*
X31269064Y-56707165D01*
X31257513Y-56685554D01*
X31241967Y-56666612D01*
X31223026Y-56651067D01*
X31126886Y-56586828D01*
X31043172Y-56503114D01*
X30978933Y-56406974D01*
X30963387Y-56388032D01*
X30944445Y-56372487D01*
X30922835Y-56360936D01*
X30899386Y-56353823D01*
X30875000Y-56351421D01*
X30850614Y-56353823D01*
X30827165Y-56360936D01*
X30805554Y-56372487D01*
X30786612Y-56388033D01*
X30771067Y-56406974D01*
X30706828Y-56503114D01*
X30623114Y-56586828D01*
X30526974Y-56651067D01*
X30508032Y-56666613D01*
X30492487Y-56685555D01*
X30480936Y-56707165D01*
X30473823Y-56730614D01*
X30471421Y-56755000D01*
X30008579Y-56755000D01*
X30006177Y-56730614D01*
X29999064Y-56707165D01*
X29987513Y-56685554D01*
X29971967Y-56666612D01*
X29953026Y-56651067D01*
X29856886Y-56586828D01*
X29773173Y-56503115D01*
X29707400Y-56404680D01*
X29662096Y-56295304D01*
X29639000Y-56179195D01*
X29639000Y-56060805D01*
X29662096Y-55944696D01*
X29707400Y-55835320D01*
X29773173Y-55736885D01*
X29856885Y-55653173D01*
X29955320Y-55587400D01*
X30032660Y-55555365D01*
X30064695Y-55542096D01*
X30103399Y-55534397D01*
X30180805Y-55519000D01*
X30299195Y-55519000D01*
X30376601Y-55534397D01*
X30376601Y-55534397D01*
G37*
G36*
X12891579Y-60667401D02*
G01*
X12946136Y-60678253D01*
X12983902Y-60693896D01*
X13037311Y-60716019D01*
X13037312Y-60716020D01*
X13119369Y-60770848D01*
X13189152Y-60840631D01*
X13189153Y-60840633D01*
X13243981Y-60922689D01*
X13247824Y-60931967D01*
X13281747Y-61013864D01*
X13291374Y-61062260D01*
X13301000Y-61110655D01*
X13301000Y-61209345D01*
X13281747Y-61306135D01*
X13243981Y-61397311D01*
X13243980Y-61397312D01*
X13189152Y-61479369D01*
X13119369Y-61549152D01*
X13078062Y-61576752D01*
X13037311Y-61603981D01*
X12983902Y-61626104D01*
X12946136Y-61641747D01*
X12897740Y-61651374D01*
X12849345Y-61661000D01*
X12750655Y-61661000D01*
X12702260Y-61651374D01*
X12653864Y-61641747D01*
X12616098Y-61626104D01*
X12562689Y-61603981D01*
X12521938Y-61576752D01*
X12480631Y-61549152D01*
X12410848Y-61479369D01*
X12356020Y-61397312D01*
X12356019Y-61397311D01*
X12318253Y-61306135D01*
X12299000Y-61209345D01*
X12299000Y-61110655D01*
X12308626Y-61062260D01*
X12318253Y-61013864D01*
X12352176Y-60931967D01*
X12356019Y-60922689D01*
X12410847Y-60840633D01*
X12410848Y-60840631D01*
X12480631Y-60770848D01*
X12562688Y-60716020D01*
X12562689Y-60716019D01*
X12616098Y-60693896D01*
X12653864Y-60678253D01*
X12708421Y-60667401D01*
X12750655Y-60659000D01*
X12849345Y-60659000D01*
X12891579Y-60667401D01*
X12891579Y-60667401D01*
G37*
G36*
X9541579Y-60667401D02*
G01*
X9596136Y-60678253D01*
X9633902Y-60693896D01*
X9687311Y-60716019D01*
X9687312Y-60716020D01*
X9769369Y-60770848D01*
X9839152Y-60840631D01*
X9839153Y-60840633D01*
X9893981Y-60922689D01*
X9897824Y-60931967D01*
X9931747Y-61013864D01*
X9941374Y-61062260D01*
X9951000Y-61110655D01*
X9951000Y-61209345D01*
X9931747Y-61306135D01*
X9893981Y-61397311D01*
X9893980Y-61397312D01*
X9839152Y-61479369D01*
X9769369Y-61549152D01*
X9728062Y-61576752D01*
X9687311Y-61603981D01*
X9633902Y-61626104D01*
X9596136Y-61641747D01*
X9547740Y-61651374D01*
X9499345Y-61661000D01*
X9400655Y-61661000D01*
X9352260Y-61651374D01*
X9303864Y-61641747D01*
X9266098Y-61626104D01*
X9212689Y-61603981D01*
X9171938Y-61576752D01*
X9130631Y-61549152D01*
X9060848Y-61479369D01*
X9006020Y-61397312D01*
X9006019Y-61397311D01*
X8968253Y-61306135D01*
X8949000Y-61209345D01*
X8949000Y-61110655D01*
X8958626Y-61062260D01*
X8968253Y-61013864D01*
X9002176Y-60931967D01*
X9006019Y-60922689D01*
X9060847Y-60840633D01*
X9060848Y-60840631D01*
X9130631Y-60770848D01*
X9212688Y-60716020D01*
X9212689Y-60716019D01*
X9266098Y-60693896D01*
X9303864Y-60678253D01*
X9358421Y-60667401D01*
X9400655Y-60659000D01*
X9499345Y-60659000D01*
X9541579Y-60667401D01*
X9541579Y-60667401D01*
G37*
G36*
X5076564Y-56119389D02*
G01*
X5267833Y-56198615D01*
X5267835Y-56198616D01*
X5412539Y-56295304D01*
X5439973Y-56313635D01*
X5586365Y-56460027D01*
X5701385Y-56632167D01*
X5780611Y-56823436D01*
X5821000Y-57026484D01*
X5821000Y-57233516D01*
X5780611Y-57436564D01*
X5775379Y-57449195D01*
X5701384Y-57627835D01*
X5586365Y-57799973D01*
X5439973Y-57946365D01*
X5267835Y-58061384D01*
X5267834Y-58061385D01*
X5267833Y-58061385D01*
X5076564Y-58140611D01*
X4873516Y-58181000D01*
X4666484Y-58181000D01*
X4463436Y-58140611D01*
X4272167Y-58061385D01*
X4272166Y-58061385D01*
X4272165Y-58061384D01*
X4100027Y-57946365D01*
X3953635Y-57799973D01*
X3838616Y-57627835D01*
X3764621Y-57449195D01*
X3759389Y-57436564D01*
X3719000Y-57233516D01*
X3719000Y-57026484D01*
X3759389Y-56823436D01*
X3838615Y-56632167D01*
X3953635Y-56460027D01*
X4100027Y-56313635D01*
X4127461Y-56295304D01*
X4272165Y-56198616D01*
X4272167Y-56198615D01*
X4463436Y-56119389D01*
X4666484Y-56079000D01*
X4873516Y-56079000D01*
X5076564Y-56119389D01*
X5076564Y-56119389D01*
G37*
G36*
X2536564Y-56119389D02*
G01*
X2727833Y-56198615D01*
X2727835Y-56198616D01*
X2872539Y-56295304D01*
X2899973Y-56313635D01*
X3046365Y-56460027D01*
X3161385Y-56632167D01*
X3240611Y-56823436D01*
X3281000Y-57026484D01*
X3281000Y-57233516D01*
X3240611Y-57436564D01*
X3235379Y-57449195D01*
X3161384Y-57627835D01*
X3046365Y-57799973D01*
X2899973Y-57946365D01*
X2727835Y-58061384D01*
X2727834Y-58061385D01*
X2727833Y-58061385D01*
X2536564Y-58140611D01*
X2333516Y-58181000D01*
X2126484Y-58181000D01*
X1923436Y-58140611D01*
X1732167Y-58061385D01*
X1732166Y-58061385D01*
X1732165Y-58061384D01*
X1560027Y-57946365D01*
X1413635Y-57799973D01*
X1298616Y-57627835D01*
X1224621Y-57449195D01*
X1219389Y-57436564D01*
X1179000Y-57233516D01*
X1179000Y-57026484D01*
X1219389Y-56823436D01*
X1298615Y-56632167D01*
X1413635Y-56460027D01*
X1560027Y-56313635D01*
X1587461Y-56295304D01*
X1732165Y-56198616D01*
X1732167Y-56198615D01*
X1923436Y-56119389D01*
X2126484Y-56079000D01*
X2333516Y-56079000D01*
X2536564Y-56119389D01*
X2536564Y-56119389D01*
G37*
G36*
X2536564Y-53579389D02*
G01*
X2727833Y-53658615D01*
X2727835Y-53658616D01*
X2899973Y-53773635D01*
X3046365Y-53920027D01*
X3161385Y-54092167D01*
X3240611Y-54283436D01*
X3281000Y-54486484D01*
X3281000Y-54693516D01*
X3240611Y-54896564D01*
X3161385Y-55087833D01*
X3161384Y-55087835D01*
X3046365Y-55259973D01*
X2899973Y-55406365D01*
X2727835Y-55521384D01*
X2727834Y-55521385D01*
X2727833Y-55521385D01*
X2536564Y-55600611D01*
X2333516Y-55641000D01*
X2126484Y-55641000D01*
X1923436Y-55600611D01*
X1732167Y-55521385D01*
X1732166Y-55521385D01*
X1732165Y-55521384D01*
X1560027Y-55406365D01*
X1413635Y-55259973D01*
X1298616Y-55087835D01*
X1298615Y-55087833D01*
X1219389Y-54896564D01*
X1179000Y-54693516D01*
X1179000Y-54486484D01*
X1219389Y-54283436D01*
X1298615Y-54092167D01*
X1413635Y-53920027D01*
X1560027Y-53773635D01*
X1732165Y-53658616D01*
X1732167Y-53658615D01*
X1923436Y-53579389D01*
X2126484Y-53539000D01*
X2333516Y-53539000D01*
X2536564Y-53579389D01*
X2536564Y-53579389D01*
G37*
G36*
X5076564Y-53579389D02*
G01*
X5267833Y-53658615D01*
X5267835Y-53658616D01*
X5439973Y-53773635D01*
X5586365Y-53920027D01*
X5701385Y-54092167D01*
X5780611Y-54283436D01*
X5821000Y-54486484D01*
X5821000Y-54693516D01*
X5780611Y-54896564D01*
X5701385Y-55087833D01*
X5701384Y-55087835D01*
X5586365Y-55259973D01*
X5439973Y-55406365D01*
X5267835Y-55521384D01*
X5267834Y-55521385D01*
X5267833Y-55521385D01*
X5076564Y-55600611D01*
X4873516Y-55641000D01*
X4666484Y-55641000D01*
X4463436Y-55600611D01*
X4272167Y-55521385D01*
X4272166Y-55521385D01*
X4272165Y-55521384D01*
X4100027Y-55406365D01*
X3953635Y-55259973D01*
X3838616Y-55087835D01*
X3838615Y-55087833D01*
X3759389Y-54896564D01*
X3719000Y-54693516D01*
X3719000Y-54486484D01*
X3759389Y-54283436D01*
X3838615Y-54092167D01*
X3953635Y-53920027D01*
X4100027Y-53773635D01*
X4272165Y-53658616D01*
X4272167Y-53658615D01*
X4463436Y-53579389D01*
X4666484Y-53539000D01*
X4873516Y-53539000D01*
X5076564Y-53579389D01*
X5076564Y-53579389D01*
G37*
G36*
X5076564Y-51039389D02*
G01*
X5267833Y-51118615D01*
X5267835Y-51118616D01*
X5439973Y-51233635D01*
X5586365Y-51380027D01*
X5701385Y-51552167D01*
X5780611Y-51743436D01*
X5821000Y-51946484D01*
X5821000Y-52153516D01*
X5780611Y-52356564D01*
X5701385Y-52547833D01*
X5701384Y-52547835D01*
X5586365Y-52719973D01*
X5439973Y-52866365D01*
X5267835Y-52981384D01*
X5267834Y-52981385D01*
X5267833Y-52981385D01*
X5076564Y-53060611D01*
X4873516Y-53101000D01*
X4666484Y-53101000D01*
X4463436Y-53060611D01*
X4272167Y-52981385D01*
X4272166Y-52981385D01*
X4272165Y-52981384D01*
X4100027Y-52866365D01*
X3953635Y-52719973D01*
X3838616Y-52547835D01*
X3838615Y-52547833D01*
X3759389Y-52356564D01*
X3719000Y-52153516D01*
X3719000Y-51946484D01*
X3759389Y-51743436D01*
X3838615Y-51552167D01*
X3953635Y-51380027D01*
X4100027Y-51233635D01*
X4272165Y-51118616D01*
X4272167Y-51118615D01*
X4463436Y-51039389D01*
X4666484Y-50999000D01*
X4873516Y-50999000D01*
X5076564Y-51039389D01*
X5076564Y-51039389D01*
G37*
G36*
X2536564Y-51039389D02*
G01*
X2727833Y-51118615D01*
X2727835Y-51118616D01*
X2899973Y-51233635D01*
X3046365Y-51380027D01*
X3161385Y-51552167D01*
X3240611Y-51743436D01*
X3281000Y-51946484D01*
X3281000Y-52153516D01*
X3240611Y-52356564D01*
X3161385Y-52547833D01*
X3161384Y-52547835D01*
X3046365Y-52719973D01*
X2899973Y-52866365D01*
X2727835Y-52981384D01*
X2727834Y-52981385D01*
X2727833Y-52981385D01*
X2536564Y-53060611D01*
X2333516Y-53101000D01*
X2126484Y-53101000D01*
X1923436Y-53060611D01*
X1732167Y-52981385D01*
X1732166Y-52981385D01*
X1732165Y-52981384D01*
X1560027Y-52866365D01*
X1413635Y-52719973D01*
X1298616Y-52547835D01*
X1298615Y-52547833D01*
X1219389Y-52356564D01*
X1179000Y-52153516D01*
X1179000Y-51946484D01*
X1219389Y-51743436D01*
X1298615Y-51552167D01*
X1413635Y-51380027D01*
X1560027Y-51233635D01*
X1732165Y-51118616D01*
X1732167Y-51118615D01*
X1923436Y-51039389D01*
X2126484Y-50999000D01*
X2333516Y-50999000D01*
X2536564Y-51039389D01*
X2536564Y-51039389D01*
G37*
G36*
X36251000Y-51701000D02*
G01*
X34149000Y-51701000D01*
X34149000Y-49799000D01*
X36251000Y-49799000D01*
X36251000Y-51701000D01*
X36251000Y-51701000D01*
G37*
G36*
X54851000Y-51701000D02*
G01*
X52749000Y-51701000D01*
X52749000Y-49799000D01*
X54851000Y-49799000D01*
X54851000Y-51701000D01*
X54851000Y-51701000D01*
G37*
G36*
X2536564Y-48499389D02*
G01*
X2727833Y-48578615D01*
X2727835Y-48578616D01*
X2899973Y-48693635D01*
X3046365Y-48840027D01*
X3161385Y-49012167D01*
X3240611Y-49203436D01*
X3281000Y-49406484D01*
X3281000Y-49613516D01*
X3240611Y-49816564D01*
X3161385Y-50007833D01*
X3161384Y-50007835D01*
X3046365Y-50179973D01*
X2899973Y-50326365D01*
X2727835Y-50441384D01*
X2727834Y-50441385D01*
X2727833Y-50441385D01*
X2536564Y-50520611D01*
X2333516Y-50561000D01*
X2126484Y-50561000D01*
X1923436Y-50520611D01*
X1732167Y-50441385D01*
X1732166Y-50441385D01*
X1732165Y-50441384D01*
X1560027Y-50326365D01*
X1413635Y-50179973D01*
X1298616Y-50007835D01*
X1298615Y-50007833D01*
X1219389Y-49816564D01*
X1179000Y-49613516D01*
X1179000Y-49406484D01*
X1219389Y-49203436D01*
X1298615Y-49012167D01*
X1413635Y-48840027D01*
X1560027Y-48693635D01*
X1732165Y-48578616D01*
X1732167Y-48578615D01*
X1923436Y-48499389D01*
X2126484Y-48459000D01*
X2333516Y-48459000D01*
X2536564Y-48499389D01*
X2536564Y-48499389D01*
G37*
G36*
X5076564Y-48499389D02*
G01*
X5267833Y-48578615D01*
X5267835Y-48578616D01*
X5439973Y-48693635D01*
X5586365Y-48840027D01*
X5701385Y-49012167D01*
X5780611Y-49203436D01*
X5821000Y-49406484D01*
X5821000Y-49613516D01*
X5780611Y-49816564D01*
X5701385Y-50007833D01*
X5701384Y-50007835D01*
X5586365Y-50179973D01*
X5439973Y-50326365D01*
X5267835Y-50441384D01*
X5267834Y-50441385D01*
X5267833Y-50441385D01*
X5076564Y-50520611D01*
X4873516Y-50561000D01*
X4666484Y-50561000D01*
X4463436Y-50520611D01*
X4272167Y-50441385D01*
X4272166Y-50441385D01*
X4272165Y-50441384D01*
X4100027Y-50326365D01*
X3953635Y-50179973D01*
X3838616Y-50007835D01*
X3838615Y-50007833D01*
X3759389Y-49816564D01*
X3719000Y-49613516D01*
X3719000Y-49406484D01*
X3759389Y-49203436D01*
X3838615Y-49012167D01*
X3953635Y-48840027D01*
X4100027Y-48693635D01*
X4272165Y-48578616D01*
X4272167Y-48578615D01*
X4463436Y-48499389D01*
X4666484Y-48459000D01*
X4873516Y-48459000D01*
X5076564Y-48499389D01*
X5076564Y-48499389D01*
G37*
G36*
X44851000Y-48701000D02*
G01*
X44149000Y-48701000D01*
X44149000Y-47299000D01*
X44851000Y-47299000D01*
X44851000Y-48701000D01*
X44851000Y-48701000D01*
G37*
G36*
X43851000Y-48701000D02*
G01*
X43149000Y-48701000D01*
X43149000Y-47299000D01*
X43851000Y-47299000D01*
X43851000Y-48701000D01*
X43851000Y-48701000D01*
G37*
G36*
X42851000Y-48701000D02*
G01*
X42149000Y-48701000D01*
X42149000Y-47299000D01*
X42851000Y-47299000D01*
X42851000Y-48701000D01*
X42851000Y-48701000D01*
G37*
G36*
X41851000Y-48701000D02*
G01*
X41149000Y-48701000D01*
X41149000Y-47299000D01*
X41851000Y-47299000D01*
X41851000Y-48701000D01*
X41851000Y-48701000D01*
G37*
G36*
X40851000Y-48701000D02*
G01*
X40149000Y-48701000D01*
X40149000Y-47299000D01*
X40851000Y-47299000D01*
X40851000Y-48701000D01*
X40851000Y-48701000D01*
G37*
G36*
X38851000Y-48701000D02*
G01*
X38149000Y-48701000D01*
X38149000Y-47299000D01*
X38851000Y-47299000D01*
X38851000Y-48701000D01*
X38851000Y-48701000D01*
G37*
G36*
X37851000Y-48701000D02*
G01*
X37149000Y-48701000D01*
X37149000Y-47299000D01*
X37851000Y-47299000D01*
X37851000Y-48701000D01*
X37851000Y-48701000D01*
G37*
G36*
X46851000Y-48701000D02*
G01*
X46149000Y-48701000D01*
X46149000Y-47299000D01*
X46851000Y-47299000D01*
X46851000Y-48701000D01*
X46851000Y-48701000D01*
G37*
G36*
X47851000Y-48701000D02*
G01*
X47149000Y-48701000D01*
X47149000Y-47299000D01*
X47851000Y-47299000D01*
X47851000Y-48701000D01*
X47851000Y-48701000D01*
G37*
G36*
X50851000Y-48701000D02*
G01*
X50149000Y-48701000D01*
X50149000Y-47299000D01*
X50851000Y-47299000D01*
X50851000Y-48701000D01*
X50851000Y-48701000D01*
G37*
G36*
X51851000Y-48701000D02*
G01*
X51149000Y-48701000D01*
X51149000Y-47299000D01*
X51851000Y-47299000D01*
X51851000Y-48701000D01*
X51851000Y-48701000D01*
G37*
G36*
X49851000Y-48701000D02*
G01*
X49149000Y-48701000D01*
X49149000Y-47299000D01*
X49851000Y-47299000D01*
X49851000Y-48701000D01*
X49851000Y-48701000D01*
G37*
G36*
X48851000Y-48701000D02*
G01*
X48149000Y-48701000D01*
X48149000Y-47299000D01*
X48851000Y-47299000D01*
X48851000Y-48701000D01*
X48851000Y-48701000D01*
G37*
G36*
X45851000Y-48701000D02*
G01*
X45149000Y-48701000D01*
X45149000Y-47299000D01*
X45851000Y-47299000D01*
X45851000Y-48701000D01*
X45851000Y-48701000D01*
G37*
G36*
X39851000Y-48701000D02*
G01*
X39149000Y-48701000D01*
X39149000Y-47299000D01*
X39851000Y-47299000D01*
X39851000Y-48701000D01*
X39851000Y-48701000D01*
G37*
G36*
X5076564Y-45959389D02*
G01*
X5267833Y-46038615D01*
X5267835Y-46038616D01*
X5439973Y-46153635D01*
X5586365Y-46300027D01*
X5701385Y-46472167D01*
X5780611Y-46663436D01*
X5821000Y-46866484D01*
X5821000Y-47073516D01*
X5780611Y-47276564D01*
X5701385Y-47467833D01*
X5701384Y-47467835D01*
X5586365Y-47639973D01*
X5439973Y-47786365D01*
X5267835Y-47901384D01*
X5267834Y-47901385D01*
X5267833Y-47901385D01*
X5076564Y-47980611D01*
X4873516Y-48021000D01*
X4666484Y-48021000D01*
X4463436Y-47980611D01*
X4272167Y-47901385D01*
X4272166Y-47901385D01*
X4272165Y-47901384D01*
X4100027Y-47786365D01*
X3953635Y-47639973D01*
X3838616Y-47467835D01*
X3838615Y-47467833D01*
X3759389Y-47276564D01*
X3719000Y-47073516D01*
X3719000Y-46866484D01*
X3759389Y-46663436D01*
X3838615Y-46472167D01*
X3953635Y-46300027D01*
X4100027Y-46153635D01*
X4272165Y-46038616D01*
X4272167Y-46038615D01*
X4463436Y-45959389D01*
X4666484Y-45919000D01*
X4873516Y-45919000D01*
X5076564Y-45959389D01*
X5076564Y-45959389D01*
G37*
G36*
X2536564Y-45959389D02*
G01*
X2727833Y-46038615D01*
X2727835Y-46038616D01*
X2899973Y-46153635D01*
X3046365Y-46300027D01*
X3161385Y-46472167D01*
X3240611Y-46663436D01*
X3281000Y-46866484D01*
X3281000Y-47073516D01*
X3240611Y-47276564D01*
X3161385Y-47467833D01*
X3161384Y-47467835D01*
X3046365Y-47639973D01*
X2899973Y-47786365D01*
X2727835Y-47901384D01*
X2727834Y-47901385D01*
X2727833Y-47901385D01*
X2536564Y-47980611D01*
X2333516Y-48021000D01*
X2126484Y-48021000D01*
X1923436Y-47980611D01*
X1732167Y-47901385D01*
X1732166Y-47901385D01*
X1732165Y-47901384D01*
X1560027Y-47786365D01*
X1413635Y-47639973D01*
X1298616Y-47467835D01*
X1298615Y-47467833D01*
X1219389Y-47276564D01*
X1179000Y-47073516D01*
X1179000Y-46866484D01*
X1219389Y-46663436D01*
X1298615Y-46472167D01*
X1413635Y-46300027D01*
X1560027Y-46153635D01*
X1732165Y-46038616D01*
X1732167Y-46038615D01*
X1923436Y-45959389D01*
X2126484Y-45919000D01*
X2333516Y-45919000D01*
X2536564Y-45959389D01*
X2536564Y-45959389D01*
G37*
G36*
X2536564Y-43419389D02*
G01*
X2727833Y-43498615D01*
X2727835Y-43498616D01*
X2899973Y-43613635D01*
X3046365Y-43760027D01*
X3161385Y-43932167D01*
X3240611Y-44123436D01*
X3281000Y-44326484D01*
X3281000Y-44533516D01*
X3240611Y-44736564D01*
X3161385Y-44927833D01*
X3161384Y-44927835D01*
X3046365Y-45099973D01*
X2899973Y-45246365D01*
X2727835Y-45361384D01*
X2727834Y-45361385D01*
X2727833Y-45361385D01*
X2536564Y-45440611D01*
X2333516Y-45481000D01*
X2126484Y-45481000D01*
X1923436Y-45440611D01*
X1732167Y-45361385D01*
X1732166Y-45361385D01*
X1732165Y-45361384D01*
X1560027Y-45246365D01*
X1413635Y-45099973D01*
X1298616Y-44927835D01*
X1298615Y-44927833D01*
X1219389Y-44736564D01*
X1179000Y-44533516D01*
X1179000Y-44326484D01*
X1219389Y-44123436D01*
X1298615Y-43932167D01*
X1413635Y-43760027D01*
X1560027Y-43613635D01*
X1732165Y-43498616D01*
X1732167Y-43498615D01*
X1923436Y-43419389D01*
X2126484Y-43379000D01*
X2333516Y-43379000D01*
X2536564Y-43419389D01*
X2536564Y-43419389D01*
G37*
G36*
X5076564Y-43419389D02*
G01*
X5267833Y-43498615D01*
X5267835Y-43498616D01*
X5439973Y-43613635D01*
X5586365Y-43760027D01*
X5701385Y-43932167D01*
X5780611Y-44123436D01*
X5821000Y-44326484D01*
X5821000Y-44533516D01*
X5780611Y-44736564D01*
X5701385Y-44927833D01*
X5701384Y-44927835D01*
X5586365Y-45099973D01*
X5439973Y-45246365D01*
X5267835Y-45361384D01*
X5267834Y-45361385D01*
X5267833Y-45361385D01*
X5076564Y-45440611D01*
X4873516Y-45481000D01*
X4666484Y-45481000D01*
X4463436Y-45440611D01*
X4272167Y-45361385D01*
X4272166Y-45361385D01*
X4272165Y-45361384D01*
X4100027Y-45246365D01*
X3953635Y-45099973D01*
X3838616Y-44927835D01*
X3838615Y-44927833D01*
X3759389Y-44736564D01*
X3719000Y-44533516D01*
X3719000Y-44326484D01*
X3759389Y-44123436D01*
X3838615Y-43932167D01*
X3953635Y-43760027D01*
X4100027Y-43613635D01*
X4272165Y-43498616D01*
X4272167Y-43498615D01*
X4463436Y-43419389D01*
X4666484Y-43379000D01*
X4873516Y-43379000D01*
X5076564Y-43419389D01*
X5076564Y-43419389D01*
G37*
G36*
X55001000Y-39801000D02*
G01*
X52999000Y-39801000D01*
X52999000Y-38450999D01*
X52996598Y-38426613D01*
X52989485Y-38403164D01*
X52977934Y-38381553D01*
X52962389Y-38362611D01*
X52943447Y-38347066D01*
X52921836Y-38335515D01*
X52898387Y-38328402D01*
X52874001Y-38326000D01*
X52205999Y-38326000D01*
X52181613Y-38328402D01*
X52158164Y-38335515D01*
X52136553Y-38347066D01*
X52117611Y-38362611D01*
X52102066Y-38381553D01*
X52090515Y-38403164D01*
X52083402Y-38426613D01*
X52081000Y-38450999D01*
X52081000Y-41549001D01*
X52083402Y-41573387D01*
X52090515Y-41596836D01*
X52102066Y-41618447D01*
X52117611Y-41637389D01*
X52136553Y-41652934D01*
X52158164Y-41664485D01*
X52181613Y-41671598D01*
X52205999Y-41674000D01*
X52874001Y-41674000D01*
X52898387Y-41671598D01*
X52921836Y-41664485D01*
X52943447Y-41652934D01*
X52962389Y-41637389D01*
X52977934Y-41618447D01*
X52989485Y-41596836D01*
X52996598Y-41573387D01*
X52999000Y-41549001D01*
X52999000Y-40199000D01*
X55001000Y-40199000D01*
X55001000Y-44151000D01*
X52999000Y-44151000D01*
X52999000Y-43375999D01*
X52996598Y-43351613D01*
X52989485Y-43328164D01*
X52977934Y-43306553D01*
X52962389Y-43287611D01*
X52943447Y-43272066D01*
X52921836Y-43260515D01*
X52898387Y-43253402D01*
X52874001Y-43251000D01*
X50599000Y-43251000D01*
X50599000Y-36749000D01*
X52874001Y-36749000D01*
X52898387Y-36746598D01*
X52921836Y-36739485D01*
X52943447Y-36727934D01*
X52962389Y-36712389D01*
X52977934Y-36693447D01*
X52989485Y-36671836D01*
X52996598Y-36648387D01*
X52999000Y-36624001D01*
X52999000Y-35849000D01*
X55001000Y-35849000D01*
X55001000Y-39801000D01*
X55001000Y-39801000D01*
G37*
G36*
X5076564Y-40879389D02*
G01*
X5267833Y-40958615D01*
X5267835Y-40958616D01*
X5365689Y-41024000D01*
X5439973Y-41073635D01*
X5586365Y-41220027D01*
X5701385Y-41392167D01*
X5780611Y-41583436D01*
X5821000Y-41786484D01*
X5821000Y-41993516D01*
X5780611Y-42196564D01*
X5701385Y-42387833D01*
X5701384Y-42387835D01*
X5586365Y-42559973D01*
X5439973Y-42706365D01*
X5267835Y-42821384D01*
X5267834Y-42821385D01*
X5267833Y-42821385D01*
X5076564Y-42900611D01*
X4873516Y-42941000D01*
X4666484Y-42941000D01*
X4463436Y-42900611D01*
X4272167Y-42821385D01*
X4272166Y-42821385D01*
X4272165Y-42821384D01*
X4100027Y-42706365D01*
X3953635Y-42559973D01*
X3838616Y-42387835D01*
X3838615Y-42387833D01*
X3759389Y-42196564D01*
X3719000Y-41993516D01*
X3719000Y-41786484D01*
X3759389Y-41583436D01*
X3838615Y-41392167D01*
X3953635Y-41220027D01*
X4100027Y-41073635D01*
X4174311Y-41024000D01*
X4272165Y-40958616D01*
X4272167Y-40958615D01*
X4463436Y-40879389D01*
X4666484Y-40839000D01*
X4873516Y-40839000D01*
X5076564Y-40879389D01*
X5076564Y-40879389D01*
G37*
G36*
X2536564Y-40879389D02*
G01*
X2727833Y-40958615D01*
X2727835Y-40958616D01*
X2825689Y-41024000D01*
X2899973Y-41073635D01*
X3046365Y-41220027D01*
X3161385Y-41392167D01*
X3240611Y-41583436D01*
X3281000Y-41786484D01*
X3281000Y-41993516D01*
X3240611Y-42196564D01*
X3161385Y-42387833D01*
X3161384Y-42387835D01*
X3046365Y-42559973D01*
X2899973Y-42706365D01*
X2727835Y-42821384D01*
X2727834Y-42821385D01*
X2727833Y-42821385D01*
X2536564Y-42900611D01*
X2333516Y-42941000D01*
X2126484Y-42941000D01*
X1923436Y-42900611D01*
X1732167Y-42821385D01*
X1732166Y-42821385D01*
X1732165Y-42821384D01*
X1560027Y-42706365D01*
X1413635Y-42559973D01*
X1298616Y-42387835D01*
X1298615Y-42387833D01*
X1219389Y-42196564D01*
X1179000Y-41993516D01*
X1179000Y-41786484D01*
X1219389Y-41583436D01*
X1298615Y-41392167D01*
X1413635Y-41220027D01*
X1560027Y-41073635D01*
X1634311Y-41024000D01*
X1732165Y-40958616D01*
X1732167Y-40958615D01*
X1923436Y-40879389D01*
X2126484Y-40839000D01*
X2333516Y-40839000D01*
X2536564Y-40879389D01*
X2536564Y-40879389D01*
G37*
G36*
X48275000Y-40550000D02*
G01*
X47875000Y-40550000D01*
X47875000Y-40150000D01*
X48275000Y-40150000D01*
X48275000Y-40550000D01*
X48275000Y-40550000D01*
G37*
G36*
X2536564Y-38339389D02*
G01*
X2727833Y-38418615D01*
X2727835Y-38418616D01*
X2885553Y-38524000D01*
X2899973Y-38533635D01*
X3046365Y-38680027D01*
X3161385Y-38852167D01*
X3240611Y-39043436D01*
X3281000Y-39246484D01*
X3281000Y-39453516D01*
X3240611Y-39656564D01*
X3212678Y-39724000D01*
X3161384Y-39847835D01*
X3046365Y-40019973D01*
X2899973Y-40166365D01*
X2727835Y-40281384D01*
X2727834Y-40281385D01*
X2727833Y-40281385D01*
X2536564Y-40360611D01*
X2333516Y-40401000D01*
X2126484Y-40401000D01*
X1923436Y-40360611D01*
X1732167Y-40281385D01*
X1732166Y-40281385D01*
X1732165Y-40281384D01*
X1560027Y-40166365D01*
X1413635Y-40019973D01*
X1298616Y-39847835D01*
X1247322Y-39724000D01*
X1219389Y-39656564D01*
X1179000Y-39453516D01*
X1179000Y-39246484D01*
X1219389Y-39043436D01*
X1298615Y-38852167D01*
X1413635Y-38680027D01*
X1560027Y-38533635D01*
X1574447Y-38524000D01*
X1732165Y-38418616D01*
X1732167Y-38418615D01*
X1923436Y-38339389D01*
X2126484Y-38299000D01*
X2333516Y-38299000D01*
X2536564Y-38339389D01*
X2536564Y-38339389D01*
G37*
G36*
X5076564Y-38339389D02*
G01*
X5267833Y-38418615D01*
X5267835Y-38418616D01*
X5425553Y-38524000D01*
X5439973Y-38533635D01*
X5586365Y-38680027D01*
X5701385Y-38852167D01*
X5780611Y-39043436D01*
X5821000Y-39246484D01*
X5821000Y-39453516D01*
X5780611Y-39656564D01*
X5752678Y-39724000D01*
X5701384Y-39847835D01*
X5586365Y-40019973D01*
X5439973Y-40166365D01*
X5267835Y-40281384D01*
X5267834Y-40281385D01*
X5267833Y-40281385D01*
X5076564Y-40360611D01*
X4873516Y-40401000D01*
X4666484Y-40401000D01*
X4463436Y-40360611D01*
X4272167Y-40281385D01*
X4272166Y-40281385D01*
X4272165Y-40281384D01*
X4100027Y-40166365D01*
X3953635Y-40019973D01*
X3838616Y-39847835D01*
X3787322Y-39724000D01*
X3759389Y-39656564D01*
X3719000Y-39453516D01*
X3719000Y-39246484D01*
X3759389Y-39043436D01*
X3838615Y-38852167D01*
X3953635Y-38680027D01*
X4100027Y-38533635D01*
X4114447Y-38524000D01*
X4272165Y-38418616D01*
X4272167Y-38418615D01*
X4463436Y-38339389D01*
X4666484Y-38299000D01*
X4873516Y-38299000D01*
X5076564Y-38339389D01*
X5076564Y-38339389D01*
G37*
G36*
X49125000Y-40200000D02*
G01*
X48725000Y-40200000D01*
X48725000Y-39800000D01*
X49125000Y-39800000D01*
X49125000Y-40200000D01*
X49125000Y-40200000D01*
G37*
G36*
X48275000Y-39850000D02*
G01*
X47875000Y-39850000D01*
X47875000Y-39450000D01*
X48275000Y-39450000D01*
X48275000Y-39850000D01*
X48275000Y-39850000D01*
G37*
G36*
X18152740Y-39659500D02*
G01*
X16730740Y-39659500D01*
X16730740Y-38257500D01*
X18152740Y-38257500D01*
X18152740Y-39659500D01*
X18152740Y-39659500D01*
G37*
G36*
X35652740Y-39659500D02*
G01*
X34230740Y-39659500D01*
X34230740Y-38257500D01*
X35652740Y-38257500D01*
X35652740Y-39659500D01*
X35652740Y-39659500D01*
G37*
G36*
X21793380Y-39654420D02*
G01*
X20371380Y-39654420D01*
X20371380Y-38252420D01*
X21793380Y-38252420D01*
X21793380Y-39654420D01*
X21793380Y-39654420D01*
G37*
G36*
X39293380Y-39654420D02*
G01*
X37871380Y-39654420D01*
X37871380Y-38252420D01*
X39293380Y-38252420D01*
X39293380Y-39654420D01*
X39293380Y-39654420D01*
G37*
G36*
X17854780Y-37953000D02*
G01*
X16652780Y-37953000D01*
X16652780Y-28051000D01*
X17854780Y-28051000D01*
X17854780Y-37953000D01*
X17854780Y-37953000D01*
G37*
G36*
X21873880Y-37953000D02*
G01*
X20671880Y-37953000D01*
X20671880Y-28051000D01*
X21873880Y-28051000D01*
X21873880Y-37953000D01*
X21873880Y-37953000D01*
G37*
G36*
X39373880Y-37953000D02*
G01*
X38171880Y-37953000D01*
X38171880Y-28051000D01*
X39373880Y-28051000D01*
X39373880Y-37953000D01*
X39373880Y-37953000D01*
G37*
G36*
X35354780Y-37953000D02*
G01*
X34152780Y-37953000D01*
X34152780Y-28051000D01*
X35354780Y-28051000D01*
X35354780Y-37953000D01*
X35354780Y-37953000D01*
G37*
G36*
X2536564Y-35799389D02*
G01*
X2727833Y-35878615D01*
X2727835Y-35878616D01*
X2839158Y-35953000D01*
X2899973Y-35993635D01*
X3046365Y-36140027D01*
X3161385Y-36312167D01*
X3240611Y-36503436D01*
X3281000Y-36706484D01*
X3281000Y-36913516D01*
X3240611Y-37116564D01*
X3161385Y-37307833D01*
X3161384Y-37307835D01*
X3046365Y-37479973D01*
X2899973Y-37626365D01*
X2727835Y-37741384D01*
X2727834Y-37741385D01*
X2727833Y-37741385D01*
X2536564Y-37820611D01*
X2333516Y-37861000D01*
X2126484Y-37861000D01*
X1923436Y-37820611D01*
X1732167Y-37741385D01*
X1732166Y-37741385D01*
X1732165Y-37741384D01*
X1560027Y-37626365D01*
X1413635Y-37479973D01*
X1298616Y-37307835D01*
X1298615Y-37307833D01*
X1219389Y-37116564D01*
X1179000Y-36913516D01*
X1179000Y-36706484D01*
X1219389Y-36503436D01*
X1298615Y-36312167D01*
X1413635Y-36140027D01*
X1560027Y-35993635D01*
X1620842Y-35953000D01*
X1732165Y-35878616D01*
X1732167Y-35878615D01*
X1923436Y-35799389D01*
X2126484Y-35759000D01*
X2333516Y-35759000D01*
X2536564Y-35799389D01*
X2536564Y-35799389D01*
G37*
G36*
X5076564Y-35799389D02*
G01*
X5267833Y-35878615D01*
X5267835Y-35878616D01*
X5379158Y-35953000D01*
X5439973Y-35993635D01*
X5586365Y-36140027D01*
X5701385Y-36312167D01*
X5780611Y-36503436D01*
X5821000Y-36706484D01*
X5821000Y-36913516D01*
X5780611Y-37116564D01*
X5701385Y-37307833D01*
X5701384Y-37307835D01*
X5586365Y-37479973D01*
X5439973Y-37626365D01*
X5267835Y-37741384D01*
X5267834Y-37741385D01*
X5267833Y-37741385D01*
X5076564Y-37820611D01*
X4873516Y-37861000D01*
X4666484Y-37861000D01*
X4463436Y-37820611D01*
X4272167Y-37741385D01*
X4272166Y-37741385D01*
X4272165Y-37741384D01*
X4100027Y-37626365D01*
X3953635Y-37479973D01*
X3838616Y-37307835D01*
X3838615Y-37307833D01*
X3759389Y-37116564D01*
X3719000Y-36913516D01*
X3719000Y-36706484D01*
X3759389Y-36503436D01*
X3838615Y-36312167D01*
X3953635Y-36140027D01*
X4100027Y-35993635D01*
X4160842Y-35953000D01*
X4272165Y-35878616D01*
X4272167Y-35878615D01*
X4463436Y-35799389D01*
X4666484Y-35759000D01*
X4873516Y-35759000D01*
X5076564Y-35799389D01*
X5076564Y-35799389D01*
G37*
G36*
X5076564Y-33259389D02*
G01*
X5267833Y-33338615D01*
X5267835Y-33338616D01*
X5439023Y-33453000D01*
X5439973Y-33453635D01*
X5586365Y-33600027D01*
X5701385Y-33772167D01*
X5780611Y-33963436D01*
X5821000Y-34166484D01*
X5821000Y-34373516D01*
X5780611Y-34576564D01*
X5701385Y-34767833D01*
X5701384Y-34767835D01*
X5586365Y-34939973D01*
X5439973Y-35086365D01*
X5267835Y-35201384D01*
X5267834Y-35201385D01*
X5267833Y-35201385D01*
X5076564Y-35280611D01*
X4873516Y-35321000D01*
X4666484Y-35321000D01*
X4463436Y-35280611D01*
X4272167Y-35201385D01*
X4272166Y-35201385D01*
X4272165Y-35201384D01*
X4100027Y-35086365D01*
X3953635Y-34939973D01*
X3838616Y-34767835D01*
X3838615Y-34767833D01*
X3759389Y-34576564D01*
X3719000Y-34373516D01*
X3719000Y-34166484D01*
X3759389Y-33963436D01*
X3838615Y-33772167D01*
X3953635Y-33600027D01*
X4100027Y-33453635D01*
X4100977Y-33453000D01*
X4272165Y-33338616D01*
X4272167Y-33338615D01*
X4463436Y-33259389D01*
X4666484Y-33219000D01*
X4873516Y-33219000D01*
X5076564Y-33259389D01*
X5076564Y-33259389D01*
G37*
G36*
X2536564Y-33259389D02*
G01*
X2727833Y-33338615D01*
X2727835Y-33338616D01*
X2899023Y-33453000D01*
X2899973Y-33453635D01*
X3046365Y-33600027D01*
X3161385Y-33772167D01*
X3240611Y-33963436D01*
X3281000Y-34166484D01*
X3281000Y-34373516D01*
X3240611Y-34576564D01*
X3161385Y-34767833D01*
X3161384Y-34767835D01*
X3046365Y-34939973D01*
X2899973Y-35086365D01*
X2727835Y-35201384D01*
X2727834Y-35201385D01*
X2727833Y-35201385D01*
X2536564Y-35280611D01*
X2333516Y-35321000D01*
X2126484Y-35321000D01*
X1923436Y-35280611D01*
X1732167Y-35201385D01*
X1732166Y-35201385D01*
X1732165Y-35201384D01*
X1560027Y-35086365D01*
X1413635Y-34939973D01*
X1298616Y-34767835D01*
X1298615Y-34767833D01*
X1219389Y-34576564D01*
X1179000Y-34373516D01*
X1179000Y-34166484D01*
X1219389Y-33963436D01*
X1298615Y-33772167D01*
X1413635Y-33600027D01*
X1560027Y-33453635D01*
X1560977Y-33453000D01*
X1732165Y-33338616D01*
X1732167Y-33338615D01*
X1923436Y-33259389D01*
X2126484Y-33219000D01*
X2333516Y-33219000D01*
X2536564Y-33259389D01*
X2536564Y-33259389D01*
G37*
G36*
X2536564Y-30719389D02*
G01*
X2727833Y-30798615D01*
X2727835Y-30798616D01*
X2899973Y-30913635D01*
X3046365Y-31060027D01*
X3161385Y-31232167D01*
X3240611Y-31423436D01*
X3281000Y-31626484D01*
X3281000Y-31833516D01*
X3240611Y-32036564D01*
X3234631Y-32051000D01*
X3161384Y-32227835D01*
X3046365Y-32399973D01*
X2899973Y-32546365D01*
X2727835Y-32661384D01*
X2727834Y-32661385D01*
X2727833Y-32661385D01*
X2536564Y-32740611D01*
X2333516Y-32781000D01*
X2126484Y-32781000D01*
X1923436Y-32740611D01*
X1732167Y-32661385D01*
X1732166Y-32661385D01*
X1732165Y-32661384D01*
X1560027Y-32546365D01*
X1413635Y-32399973D01*
X1298616Y-32227835D01*
X1225369Y-32051000D01*
X1219389Y-32036564D01*
X1179000Y-31833516D01*
X1179000Y-31626484D01*
X1219389Y-31423436D01*
X1298615Y-31232167D01*
X1413635Y-31060027D01*
X1560027Y-30913635D01*
X1732165Y-30798616D01*
X1732167Y-30798615D01*
X1923436Y-30719389D01*
X2126484Y-30679000D01*
X2333516Y-30679000D01*
X2536564Y-30719389D01*
X2536564Y-30719389D01*
G37*
G36*
X5076564Y-30719389D02*
G01*
X5267833Y-30798615D01*
X5267835Y-30798616D01*
X5439973Y-30913635D01*
X5586365Y-31060027D01*
X5701385Y-31232167D01*
X5780611Y-31423436D01*
X5821000Y-31626484D01*
X5821000Y-31833516D01*
X5780611Y-32036564D01*
X5774631Y-32051000D01*
X5701384Y-32227835D01*
X5586365Y-32399973D01*
X5439973Y-32546365D01*
X5267835Y-32661384D01*
X5267834Y-32661385D01*
X5267833Y-32661385D01*
X5076564Y-32740611D01*
X4873516Y-32781000D01*
X4666484Y-32781000D01*
X4463436Y-32740611D01*
X4272167Y-32661385D01*
X4272166Y-32661385D01*
X4272165Y-32661384D01*
X4100027Y-32546365D01*
X3953635Y-32399973D01*
X3838616Y-32227835D01*
X3765369Y-32051000D01*
X3759389Y-32036564D01*
X3719000Y-31833516D01*
X3719000Y-31626484D01*
X3759389Y-31423436D01*
X3838615Y-31232167D01*
X3953635Y-31060027D01*
X4100027Y-30913635D01*
X4272165Y-30798616D01*
X4272167Y-30798615D01*
X4463436Y-30719389D01*
X4666484Y-30679000D01*
X4873516Y-30679000D01*
X5076564Y-30719389D01*
X5076564Y-30719389D01*
G37*
G36*
X5076564Y-28179389D02*
G01*
X5267833Y-28258615D01*
X5267835Y-28258616D01*
X5439973Y-28373635D01*
X5586365Y-28520027D01*
X5607061Y-28551000D01*
X5701385Y-28692167D01*
X5780611Y-28883436D01*
X5821000Y-29086484D01*
X5821000Y-29293516D01*
X5780611Y-29496564D01*
X5701385Y-29687833D01*
X5701384Y-29687835D01*
X5586365Y-29859973D01*
X5439973Y-30006365D01*
X5267835Y-30121384D01*
X5267834Y-30121385D01*
X5267833Y-30121385D01*
X5076564Y-30200611D01*
X4873516Y-30241000D01*
X4666484Y-30241000D01*
X4463436Y-30200611D01*
X4272167Y-30121385D01*
X4272166Y-30121385D01*
X4272165Y-30121384D01*
X4100027Y-30006365D01*
X3953635Y-29859973D01*
X3838616Y-29687835D01*
X3838615Y-29687833D01*
X3759389Y-29496564D01*
X3719000Y-29293516D01*
X3719000Y-29086484D01*
X3759389Y-28883436D01*
X3838615Y-28692167D01*
X3932940Y-28551000D01*
X3953635Y-28520027D01*
X4100027Y-28373635D01*
X4272165Y-28258616D01*
X4272167Y-28258615D01*
X4463436Y-28179389D01*
X4666484Y-28139000D01*
X4873516Y-28139000D01*
X5076564Y-28179389D01*
X5076564Y-28179389D01*
G37*
G36*
X2536564Y-28179389D02*
G01*
X2727833Y-28258615D01*
X2727835Y-28258616D01*
X2899973Y-28373635D01*
X3046365Y-28520027D01*
X3067061Y-28551000D01*
X3161385Y-28692167D01*
X3240611Y-28883436D01*
X3281000Y-29086484D01*
X3281000Y-29293516D01*
X3240611Y-29496564D01*
X3161385Y-29687833D01*
X3161384Y-29687835D01*
X3046365Y-29859973D01*
X2899973Y-30006365D01*
X2727835Y-30121384D01*
X2727834Y-30121385D01*
X2727833Y-30121385D01*
X2536564Y-30200611D01*
X2333516Y-30241000D01*
X2126484Y-30241000D01*
X1923436Y-30200611D01*
X1732167Y-30121385D01*
X1732166Y-30121385D01*
X1732165Y-30121384D01*
X1560027Y-30006365D01*
X1413635Y-29859973D01*
X1298616Y-29687835D01*
X1298615Y-29687833D01*
X1219389Y-29496564D01*
X1179000Y-29293516D01*
X1179000Y-29086484D01*
X1219389Y-28883436D01*
X1298615Y-28692167D01*
X1392940Y-28551000D01*
X1413635Y-28520027D01*
X1560027Y-28373635D01*
X1732165Y-28258616D01*
X1732167Y-28258615D01*
X1923436Y-28179389D01*
X2126484Y-28139000D01*
X2333516Y-28139000D01*
X2536564Y-28179389D01*
X2536564Y-28179389D01*
G37*
G36*
X55001000Y-25801000D02*
G01*
X52999000Y-25801000D01*
X52999000Y-24450999D01*
X52996598Y-24426613D01*
X52989485Y-24403164D01*
X52977934Y-24381553D01*
X52962389Y-24362611D01*
X52943447Y-24347066D01*
X52921836Y-24335515D01*
X52898387Y-24328402D01*
X52874001Y-24326000D01*
X52205999Y-24326000D01*
X52181613Y-24328402D01*
X52158164Y-24335515D01*
X52136553Y-24347066D01*
X52117611Y-24362611D01*
X52102066Y-24381553D01*
X52090515Y-24403164D01*
X52083402Y-24426613D01*
X52081000Y-24450999D01*
X52081000Y-27549001D01*
X52083402Y-27573387D01*
X52090515Y-27596836D01*
X52102066Y-27618447D01*
X52117611Y-27637389D01*
X52136553Y-27652934D01*
X52158164Y-27664485D01*
X52181613Y-27671598D01*
X52205999Y-27674000D01*
X52874001Y-27674000D01*
X52898387Y-27671598D01*
X52921836Y-27664485D01*
X52943447Y-27652934D01*
X52962389Y-27637389D01*
X52977934Y-27618447D01*
X52989485Y-27596836D01*
X52996598Y-27573387D01*
X52999000Y-27549001D01*
X52999000Y-26199000D01*
X55001000Y-26199000D01*
X55001000Y-30151000D01*
X52999000Y-30151000D01*
X52999000Y-29375999D01*
X52996598Y-29351613D01*
X52989485Y-29328164D01*
X52977934Y-29306553D01*
X52962389Y-29287611D01*
X52943447Y-29272066D01*
X52921836Y-29260515D01*
X52898387Y-29253402D01*
X52874001Y-29251000D01*
X50599000Y-29251000D01*
X50599000Y-22749000D01*
X52874001Y-22749000D01*
X52898387Y-22746598D01*
X52921836Y-22739485D01*
X52943447Y-22727934D01*
X52962389Y-22712389D01*
X52977934Y-22693447D01*
X52989485Y-22671836D01*
X52996598Y-22648387D01*
X52999000Y-22624001D01*
X52999000Y-21849000D01*
X55001000Y-21849000D01*
X55001000Y-25801000D01*
X55001000Y-25801000D01*
G37*
G36*
X18152740Y-27751980D02*
G01*
X16730740Y-27751980D01*
X16730740Y-26349980D01*
X18152740Y-26349980D01*
X18152740Y-27751980D01*
X18152740Y-27751980D01*
G37*
G36*
X35652740Y-27751980D02*
G01*
X34230740Y-27751980D01*
X34230740Y-26349980D01*
X35652740Y-26349980D01*
X35652740Y-27751980D01*
X35652740Y-27751980D01*
G37*
G36*
X39293380Y-27751980D02*
G01*
X37871380Y-27751980D01*
X37871380Y-26349980D01*
X39293380Y-26349980D01*
X39293380Y-27751980D01*
X39293380Y-27751980D01*
G37*
G36*
X21793380Y-27751980D02*
G01*
X20371380Y-27751980D01*
X20371380Y-26349980D01*
X21793380Y-26349980D01*
X21793380Y-27751980D01*
X21793380Y-27751980D01*
G37*
G36*
X2536564Y-25639389D02*
G01*
X2727833Y-25718615D01*
X2727835Y-25718616D01*
X2851131Y-25801000D01*
X2899973Y-25833635D01*
X3046365Y-25980027D01*
X3161385Y-26152167D01*
X3240611Y-26343436D01*
X3281000Y-26546484D01*
X3281000Y-26753516D01*
X3240611Y-26956564D01*
X3161385Y-27147833D01*
X3161384Y-27147835D01*
X3046365Y-27319973D01*
X2899973Y-27466365D01*
X2727835Y-27581384D01*
X2727834Y-27581385D01*
X2727833Y-27581385D01*
X2536564Y-27660611D01*
X2333516Y-27701000D01*
X2126484Y-27701000D01*
X1923436Y-27660611D01*
X1732167Y-27581385D01*
X1732166Y-27581385D01*
X1732165Y-27581384D01*
X1560027Y-27466365D01*
X1413635Y-27319973D01*
X1298616Y-27147835D01*
X1298615Y-27147833D01*
X1219389Y-26956564D01*
X1179000Y-26753516D01*
X1179000Y-26546484D01*
X1219389Y-26343436D01*
X1298615Y-26152167D01*
X1413635Y-25980027D01*
X1560027Y-25833635D01*
X1608869Y-25801000D01*
X1732165Y-25718616D01*
X1732167Y-25718615D01*
X1923436Y-25639389D01*
X2126484Y-25599000D01*
X2333516Y-25599000D01*
X2536564Y-25639389D01*
X2536564Y-25639389D01*
G37*
G36*
X5076564Y-25639389D02*
G01*
X5267833Y-25718615D01*
X5267835Y-25718616D01*
X5391131Y-25801000D01*
X5439973Y-25833635D01*
X5586365Y-25980027D01*
X5701385Y-26152167D01*
X5780611Y-26343436D01*
X5821000Y-26546484D01*
X5821000Y-26753516D01*
X5780611Y-26956564D01*
X5701385Y-27147833D01*
X5701384Y-27147835D01*
X5586365Y-27319973D01*
X5439973Y-27466365D01*
X5267835Y-27581384D01*
X5267834Y-27581385D01*
X5267833Y-27581385D01*
X5076564Y-27660611D01*
X4873516Y-27701000D01*
X4666484Y-27701000D01*
X4463436Y-27660611D01*
X4272167Y-27581385D01*
X4272166Y-27581385D01*
X4272165Y-27581384D01*
X4100027Y-27466365D01*
X3953635Y-27319973D01*
X3838616Y-27147835D01*
X3838615Y-27147833D01*
X3759389Y-26956564D01*
X3719000Y-26753516D01*
X3719000Y-26546484D01*
X3759389Y-26343436D01*
X3838615Y-26152167D01*
X3953635Y-25980027D01*
X4100027Y-25833635D01*
X4148869Y-25801000D01*
X4272165Y-25718616D01*
X4272167Y-25718615D01*
X4463436Y-25639389D01*
X4666484Y-25599000D01*
X4873516Y-25599000D01*
X5076564Y-25639389D01*
X5076564Y-25639389D01*
G37*
G36*
X48275000Y-27050000D02*
G01*
X47875000Y-27050000D01*
X47875000Y-26650000D01*
X48275000Y-26650000D01*
X48275000Y-27050000D01*
X48275000Y-27050000D01*
G37*
G36*
X49125000Y-26700000D02*
G01*
X48725000Y-26700000D01*
X48725000Y-26300000D01*
X49125000Y-26300000D01*
X49125000Y-26700000D01*
X49125000Y-26700000D01*
G37*
G36*
X48275000Y-26350000D02*
G01*
X47875000Y-26350000D01*
X47875000Y-25950000D01*
X48275000Y-25950000D01*
X48275000Y-26350000D01*
X48275000Y-26350000D01*
G37*
G36*
X9326601Y-18904397D02*
G01*
X9365305Y-18912096D01*
X9397340Y-18925365D01*
X9474680Y-18957400D01*
X9573115Y-19023173D01*
X9656828Y-19106886D01*
X9721067Y-19203026D01*
X9736613Y-19221968D01*
X9755555Y-19237513D01*
X9777165Y-19249064D01*
X9800614Y-19256177D01*
X9825000Y-19258579D01*
X9849386Y-19256177D01*
X9872835Y-19249064D01*
X9894446Y-19237513D01*
X9913388Y-19221967D01*
X9928933Y-19203026D01*
X9993172Y-19106886D01*
X10076885Y-19023173D01*
X10175320Y-18957400D01*
X10252660Y-18925365D01*
X10284695Y-18912096D01*
X10323399Y-18904397D01*
X10400805Y-18889000D01*
X10519195Y-18889000D01*
X10596601Y-18904397D01*
X10635305Y-18912096D01*
X10667340Y-18925365D01*
X10744680Y-18957400D01*
X10843115Y-19023173D01*
X10926827Y-19106885D01*
X10992600Y-19205320D01*
X11037904Y-19314696D01*
X11061000Y-19430805D01*
X11061000Y-19549195D01*
X11037904Y-19665304D01*
X10992600Y-19774680D01*
X10926827Y-19873115D01*
X10843114Y-19956828D01*
X10746974Y-20021067D01*
X10728032Y-20036613D01*
X10712487Y-20055555D01*
X10700936Y-20077165D01*
X10693823Y-20100614D01*
X10691421Y-20125000D01*
X10693823Y-20149386D01*
X10700936Y-20172835D01*
X10712487Y-20194446D01*
X10728033Y-20213388D01*
X10746974Y-20228933D01*
X10843114Y-20293172D01*
X10926827Y-20376885D01*
X10992600Y-20475320D01*
X11037904Y-20584696D01*
X11061000Y-20700805D01*
X11061000Y-20819195D01*
X11037904Y-20935304D01*
X10992600Y-21044680D01*
X10926827Y-21143115D01*
X10843114Y-21226828D01*
X10746974Y-21291067D01*
X10728032Y-21306613D01*
X10712487Y-21325555D01*
X10700936Y-21347165D01*
X10693823Y-21370614D01*
X10691421Y-21395000D01*
X10693823Y-21419386D01*
X10700936Y-21442835D01*
X10712487Y-21464446D01*
X10728033Y-21483388D01*
X10746974Y-21498933D01*
X10843114Y-21563172D01*
X10926827Y-21646885D01*
X10992600Y-21745320D01*
X11037904Y-21854696D01*
X11061000Y-21970805D01*
X11061000Y-22089195D01*
X11037904Y-22205304D01*
X10992600Y-22314680D01*
X10926827Y-22413115D01*
X10843114Y-22496828D01*
X10746974Y-22561067D01*
X10728032Y-22576613D01*
X10712487Y-22595555D01*
X10700936Y-22617165D01*
X10693823Y-22640614D01*
X10691421Y-22665000D01*
X10693823Y-22689386D01*
X10700936Y-22712835D01*
X10712487Y-22734446D01*
X10728033Y-22753388D01*
X10746974Y-22768933D01*
X10843114Y-22833172D01*
X10926827Y-22916885D01*
X10992600Y-23015320D01*
X11037904Y-23124696D01*
X11061000Y-23240805D01*
X11061000Y-23359195D01*
X11037904Y-23475304D01*
X10992600Y-23584680D01*
X10926827Y-23683115D01*
X10843114Y-23766828D01*
X10746974Y-23831067D01*
X10728032Y-23846613D01*
X10712487Y-23865555D01*
X10700936Y-23887165D01*
X10693823Y-23910614D01*
X10691421Y-23935000D01*
X10693823Y-23959386D01*
X10700936Y-23982835D01*
X10712487Y-24004446D01*
X10728033Y-24023388D01*
X10746974Y-24038933D01*
X10843114Y-24103172D01*
X10926827Y-24186885D01*
X10992600Y-24285320D01*
X11010719Y-24329064D01*
X11037904Y-24394695D01*
X11042254Y-24416564D01*
X11061000Y-24510805D01*
X11061000Y-24629195D01*
X11037904Y-24745304D01*
X10992600Y-24854680D01*
X10926827Y-24953115D01*
X10843115Y-25036827D01*
X10744680Y-25102600D01*
X10667340Y-25134635D01*
X10635305Y-25147904D01*
X10596601Y-25155603D01*
X10519195Y-25171000D01*
X10400805Y-25171000D01*
X10323399Y-25155603D01*
X10284695Y-25147904D01*
X10252660Y-25134635D01*
X10175320Y-25102600D01*
X10076885Y-25036827D01*
X9993172Y-24953114D01*
X9928933Y-24856974D01*
X9913387Y-24838032D01*
X9894445Y-24822487D01*
X9872835Y-24810936D01*
X9849386Y-24803823D01*
X9825000Y-24801421D01*
X9800614Y-24803823D01*
X9777165Y-24810936D01*
X9755554Y-24822487D01*
X9736612Y-24838033D01*
X9721067Y-24856974D01*
X9656828Y-24953114D01*
X9573115Y-25036827D01*
X9474680Y-25102600D01*
X9397340Y-25134635D01*
X9365305Y-25147904D01*
X9326601Y-25155603D01*
X9249195Y-25171000D01*
X9130805Y-25171000D01*
X9053399Y-25155603D01*
X9014695Y-25147904D01*
X8982660Y-25134635D01*
X8905320Y-25102600D01*
X8806885Y-25036827D01*
X8723173Y-24953115D01*
X8657400Y-24854680D01*
X8612096Y-24745304D01*
X8589000Y-24629195D01*
X8589000Y-24510805D01*
X8607746Y-24416564D01*
X8612096Y-24394695D01*
X8639281Y-24329064D01*
X8657400Y-24285320D01*
X8723173Y-24186885D01*
X8806886Y-24103172D01*
X8903026Y-24038933D01*
X8921968Y-24023387D01*
X8937513Y-24004445D01*
X8949064Y-23982835D01*
X8956177Y-23959386D01*
X8958579Y-23935000D01*
X9421421Y-23935000D01*
X9423823Y-23959386D01*
X9430936Y-23982835D01*
X9442487Y-24004446D01*
X9458033Y-24023388D01*
X9476974Y-24038933D01*
X9573114Y-24103172D01*
X9656828Y-24186886D01*
X9721067Y-24283026D01*
X9736613Y-24301968D01*
X9755555Y-24317513D01*
X9777165Y-24329064D01*
X9800614Y-24336177D01*
X9825000Y-24338579D01*
X9849386Y-24336177D01*
X9872835Y-24329064D01*
X9894446Y-24317513D01*
X9913388Y-24301967D01*
X9928933Y-24283026D01*
X9993172Y-24186886D01*
X10076886Y-24103172D01*
X10173026Y-24038933D01*
X10191968Y-24023387D01*
X10207513Y-24004445D01*
X10219064Y-23982835D01*
X10226177Y-23959386D01*
X10228579Y-23935000D01*
X10226177Y-23910614D01*
X10219064Y-23887165D01*
X10207513Y-23865554D01*
X10191967Y-23846612D01*
X10173026Y-23831067D01*
X10076886Y-23766828D01*
X9993172Y-23683114D01*
X9928933Y-23586974D01*
X9913387Y-23568032D01*
X9894445Y-23552487D01*
X9872835Y-23540936D01*
X9849386Y-23533823D01*
X9825000Y-23531421D01*
X9800614Y-23533823D01*
X9777165Y-23540936D01*
X9755554Y-23552487D01*
X9736612Y-23568033D01*
X9721067Y-23586974D01*
X9656828Y-23683114D01*
X9573114Y-23766828D01*
X9476974Y-23831067D01*
X9458032Y-23846613D01*
X9442487Y-23865555D01*
X9430936Y-23887165D01*
X9423823Y-23910614D01*
X9421421Y-23935000D01*
X8958579Y-23935000D01*
X8956177Y-23910614D01*
X8949064Y-23887165D01*
X8937513Y-23865554D01*
X8921967Y-23846612D01*
X8903026Y-23831067D01*
X8806886Y-23766828D01*
X8723173Y-23683115D01*
X8657400Y-23584680D01*
X8612096Y-23475304D01*
X8589000Y-23359195D01*
X8589000Y-23240805D01*
X8612096Y-23124696D01*
X8657400Y-23015320D01*
X8723173Y-22916885D01*
X8806886Y-22833172D01*
X8903026Y-22768933D01*
X8921968Y-22753387D01*
X8937513Y-22734445D01*
X8949064Y-22712835D01*
X8956177Y-22689386D01*
X8958579Y-22665000D01*
X9421421Y-22665000D01*
X9423823Y-22689386D01*
X9430936Y-22712835D01*
X9442487Y-22734446D01*
X9458033Y-22753388D01*
X9476974Y-22768933D01*
X9573114Y-22833172D01*
X9656828Y-22916886D01*
X9721067Y-23013026D01*
X9736613Y-23031968D01*
X9755555Y-23047513D01*
X9777165Y-23059064D01*
X9800614Y-23066177D01*
X9825000Y-23068579D01*
X9849386Y-23066177D01*
X9872835Y-23059064D01*
X9894446Y-23047513D01*
X9913388Y-23031967D01*
X9928933Y-23013026D01*
X9993172Y-22916886D01*
X10076886Y-22833172D01*
X10173026Y-22768933D01*
X10191968Y-22753387D01*
X10207513Y-22734445D01*
X10219064Y-22712835D01*
X10226177Y-22689386D01*
X10228579Y-22665000D01*
X10226177Y-22640614D01*
X10219064Y-22617165D01*
X10207513Y-22595554D01*
X10191967Y-22576612D01*
X10173026Y-22561067D01*
X10076886Y-22496828D01*
X9993172Y-22413114D01*
X9928933Y-22316974D01*
X9913387Y-22298032D01*
X9894445Y-22282487D01*
X9872835Y-22270936D01*
X9849386Y-22263823D01*
X9825000Y-22261421D01*
X9800614Y-22263823D01*
X9777165Y-22270936D01*
X9755554Y-22282487D01*
X9736612Y-22298033D01*
X9721067Y-22316974D01*
X9656828Y-22413114D01*
X9573114Y-22496828D01*
X9476974Y-22561067D01*
X9458032Y-22576613D01*
X9442487Y-22595555D01*
X9430936Y-22617165D01*
X9423823Y-22640614D01*
X9421421Y-22665000D01*
X8958579Y-22665000D01*
X8956177Y-22640614D01*
X8949064Y-22617165D01*
X8937513Y-22595554D01*
X8921967Y-22576612D01*
X8903026Y-22561067D01*
X8806886Y-22496828D01*
X8723173Y-22413115D01*
X8657400Y-22314680D01*
X8612096Y-22205304D01*
X8589000Y-22089195D01*
X8589000Y-21970805D01*
X8612096Y-21854696D01*
X8657400Y-21745320D01*
X8723173Y-21646885D01*
X8806886Y-21563172D01*
X8903026Y-21498933D01*
X8921968Y-21483387D01*
X8937513Y-21464445D01*
X8949064Y-21442835D01*
X8956177Y-21419386D01*
X8958579Y-21395000D01*
X9421421Y-21395000D01*
X9423823Y-21419386D01*
X9430936Y-21442835D01*
X9442487Y-21464446D01*
X9458033Y-21483388D01*
X9476974Y-21498933D01*
X9573114Y-21563172D01*
X9656828Y-21646886D01*
X9721067Y-21743026D01*
X9736613Y-21761968D01*
X9755555Y-21777513D01*
X9777165Y-21789064D01*
X9800614Y-21796177D01*
X9825000Y-21798579D01*
X9849386Y-21796177D01*
X9872835Y-21789064D01*
X9894446Y-21777513D01*
X9913388Y-21761967D01*
X9928933Y-21743026D01*
X9993172Y-21646886D01*
X10076886Y-21563172D01*
X10173026Y-21498933D01*
X10191968Y-21483387D01*
X10207513Y-21464445D01*
X10219064Y-21442835D01*
X10226177Y-21419386D01*
X10228579Y-21395000D01*
X10226177Y-21370614D01*
X10219064Y-21347165D01*
X10207513Y-21325554D01*
X10191967Y-21306612D01*
X10173026Y-21291067D01*
X10076886Y-21226828D01*
X9993172Y-21143114D01*
X9928933Y-21046974D01*
X9913387Y-21028032D01*
X9894445Y-21012487D01*
X9872835Y-21000936D01*
X9849386Y-20993823D01*
X9825000Y-20991421D01*
X9800614Y-20993823D01*
X9777165Y-21000936D01*
X9755554Y-21012487D01*
X9736612Y-21028033D01*
X9721067Y-21046974D01*
X9656828Y-21143114D01*
X9573114Y-21226828D01*
X9476974Y-21291067D01*
X9458032Y-21306613D01*
X9442487Y-21325555D01*
X9430936Y-21347165D01*
X9423823Y-21370614D01*
X9421421Y-21395000D01*
X8958579Y-21395000D01*
X8956177Y-21370614D01*
X8949064Y-21347165D01*
X8937513Y-21325554D01*
X8921967Y-21306612D01*
X8903026Y-21291067D01*
X8806886Y-21226828D01*
X8723173Y-21143115D01*
X8657400Y-21044680D01*
X8612096Y-20935304D01*
X8589000Y-20819195D01*
X8589000Y-20700805D01*
X8612096Y-20584696D01*
X8657400Y-20475320D01*
X8723173Y-20376885D01*
X8806886Y-20293172D01*
X8903026Y-20228933D01*
X8921968Y-20213387D01*
X8937513Y-20194445D01*
X8949064Y-20172835D01*
X8956177Y-20149386D01*
X8958579Y-20125000D01*
X9421421Y-20125000D01*
X9423823Y-20149386D01*
X9430936Y-20172835D01*
X9442487Y-20194446D01*
X9458033Y-20213388D01*
X9476974Y-20228933D01*
X9573114Y-20293172D01*
X9656828Y-20376886D01*
X9721067Y-20473026D01*
X9736613Y-20491968D01*
X9755555Y-20507513D01*
X9777165Y-20519064D01*
X9800614Y-20526177D01*
X9825000Y-20528579D01*
X9849386Y-20526177D01*
X9872835Y-20519064D01*
X9894446Y-20507513D01*
X9913388Y-20491967D01*
X9928933Y-20473026D01*
X9993172Y-20376886D01*
X10076886Y-20293172D01*
X10173026Y-20228933D01*
X10191968Y-20213387D01*
X10207513Y-20194445D01*
X10219064Y-20172835D01*
X10226177Y-20149386D01*
X10228579Y-20125000D01*
X10226177Y-20100614D01*
X10219064Y-20077165D01*
X10207513Y-20055554D01*
X10191967Y-20036612D01*
X10173026Y-20021067D01*
X10076886Y-19956828D01*
X9993172Y-19873114D01*
X9928933Y-19776974D01*
X9913387Y-19758032D01*
X9894445Y-19742487D01*
X9872835Y-19730936D01*
X9849386Y-19723823D01*
X9825000Y-19721421D01*
X9800614Y-19723823D01*
X9777165Y-19730936D01*
X9755554Y-19742487D01*
X9736612Y-19758033D01*
X9721067Y-19776974D01*
X9656828Y-19873114D01*
X9573114Y-19956828D01*
X9476974Y-20021067D01*
X9458032Y-20036613D01*
X9442487Y-20055555D01*
X9430936Y-20077165D01*
X9423823Y-20100614D01*
X9421421Y-20125000D01*
X8958579Y-20125000D01*
X8956177Y-20100614D01*
X8949064Y-20077165D01*
X8937513Y-20055554D01*
X8921967Y-20036612D01*
X8903026Y-20021067D01*
X8806886Y-19956828D01*
X8723173Y-19873115D01*
X8657400Y-19774680D01*
X8612096Y-19665304D01*
X8589000Y-19549195D01*
X8589000Y-19430805D01*
X8612096Y-19314696D01*
X8657400Y-19205320D01*
X8723173Y-19106885D01*
X8806885Y-19023173D01*
X8905320Y-18957400D01*
X8982660Y-18925365D01*
X9014695Y-18912096D01*
X9053399Y-18904397D01*
X9130805Y-18889000D01*
X9249195Y-18889000D01*
X9326601Y-18904397D01*
X9326601Y-18904397D01*
G37*
G36*
X2536564Y-23099389D02*
G01*
X2727833Y-23178615D01*
X2727835Y-23178616D01*
X2899973Y-23293635D01*
X3046365Y-23440027D01*
X3109038Y-23533823D01*
X3161385Y-23612167D01*
X3240611Y-23803436D01*
X3281000Y-24006484D01*
X3281000Y-24213516D01*
X3240611Y-24416564D01*
X3161385Y-24607833D01*
X3161384Y-24607835D01*
X3046365Y-24779973D01*
X2899973Y-24926365D01*
X2727835Y-25041384D01*
X2727834Y-25041385D01*
X2727833Y-25041385D01*
X2536564Y-25120611D01*
X2333516Y-25161000D01*
X2126484Y-25161000D01*
X1923436Y-25120611D01*
X1732167Y-25041385D01*
X1732166Y-25041385D01*
X1732165Y-25041384D01*
X1560027Y-24926365D01*
X1413635Y-24779973D01*
X1298616Y-24607835D01*
X1298615Y-24607833D01*
X1219389Y-24416564D01*
X1179000Y-24213516D01*
X1179000Y-24006484D01*
X1219389Y-23803436D01*
X1298615Y-23612167D01*
X1350963Y-23533823D01*
X1413635Y-23440027D01*
X1560027Y-23293635D01*
X1732165Y-23178616D01*
X1732167Y-23178615D01*
X1923436Y-23099389D01*
X2126484Y-23059000D01*
X2333516Y-23059000D01*
X2536564Y-23099389D01*
X2536564Y-23099389D01*
G37*
G36*
X5076564Y-23099389D02*
G01*
X5267833Y-23178615D01*
X5267835Y-23178616D01*
X5439973Y-23293635D01*
X5586365Y-23440027D01*
X5649038Y-23533823D01*
X5701385Y-23612167D01*
X5780611Y-23803436D01*
X5821000Y-24006484D01*
X5821000Y-24213516D01*
X5780611Y-24416564D01*
X5701385Y-24607833D01*
X5701384Y-24607835D01*
X5586365Y-24779973D01*
X5439973Y-24926365D01*
X5267835Y-25041384D01*
X5267834Y-25041385D01*
X5267833Y-25041385D01*
X5076564Y-25120611D01*
X4873516Y-25161000D01*
X4666484Y-25161000D01*
X4463436Y-25120611D01*
X4272167Y-25041385D01*
X4272166Y-25041385D01*
X4272165Y-25041384D01*
X4100027Y-24926365D01*
X3953635Y-24779973D01*
X3838616Y-24607835D01*
X3838615Y-24607833D01*
X3759389Y-24416564D01*
X3719000Y-24213516D01*
X3719000Y-24006484D01*
X3759389Y-23803436D01*
X3838615Y-23612167D01*
X3890963Y-23533823D01*
X3953635Y-23440027D01*
X4100027Y-23293635D01*
X4272165Y-23178616D01*
X4272167Y-23178615D01*
X4463436Y-23099389D01*
X4666484Y-23059000D01*
X4873516Y-23059000D01*
X5076564Y-23099389D01*
X5076564Y-23099389D01*
G37*
G36*
X5076564Y-20559389D02*
G01*
X5267833Y-20638615D01*
X5267835Y-20638616D01*
X5439973Y-20753635D01*
X5586365Y-20900027D01*
X5649038Y-20993823D01*
X5701385Y-21072167D01*
X5780611Y-21263436D01*
X5821000Y-21466484D01*
X5821000Y-21673516D01*
X5780611Y-21876564D01*
X5741575Y-21970805D01*
X5701384Y-22067835D01*
X5586365Y-22239973D01*
X5439973Y-22386365D01*
X5267835Y-22501384D01*
X5267834Y-22501385D01*
X5267833Y-22501385D01*
X5076564Y-22580611D01*
X4873516Y-22621000D01*
X4666484Y-22621000D01*
X4463436Y-22580611D01*
X4272167Y-22501385D01*
X4272166Y-22501385D01*
X4272165Y-22501384D01*
X4100027Y-22386365D01*
X3953635Y-22239973D01*
X3838616Y-22067835D01*
X3798425Y-21970805D01*
X3759389Y-21876564D01*
X3719000Y-21673516D01*
X3719000Y-21466484D01*
X3759389Y-21263436D01*
X3838615Y-21072167D01*
X3890963Y-20993823D01*
X3953635Y-20900027D01*
X4100027Y-20753635D01*
X4272165Y-20638616D01*
X4272167Y-20638615D01*
X4463436Y-20559389D01*
X4666484Y-20519000D01*
X4873516Y-20519000D01*
X5076564Y-20559389D01*
X5076564Y-20559389D01*
G37*
G36*
X2536564Y-20559389D02*
G01*
X2727833Y-20638615D01*
X2727835Y-20638616D01*
X2899973Y-20753635D01*
X3046365Y-20900027D01*
X3109038Y-20993823D01*
X3161385Y-21072167D01*
X3240611Y-21263436D01*
X3281000Y-21466484D01*
X3281000Y-21673516D01*
X3240611Y-21876564D01*
X3201575Y-21970805D01*
X3161384Y-22067835D01*
X3046365Y-22239973D01*
X2899973Y-22386365D01*
X2727835Y-22501384D01*
X2727834Y-22501385D01*
X2727833Y-22501385D01*
X2536564Y-22580611D01*
X2333516Y-22621000D01*
X2126484Y-22621000D01*
X1923436Y-22580611D01*
X1732167Y-22501385D01*
X1732166Y-22501385D01*
X1732165Y-22501384D01*
X1560027Y-22386365D01*
X1413635Y-22239973D01*
X1298616Y-22067835D01*
X1258425Y-21970805D01*
X1219389Y-21876564D01*
X1179000Y-21673516D01*
X1179000Y-21466484D01*
X1219389Y-21263436D01*
X1298615Y-21072167D01*
X1350963Y-20993823D01*
X1413635Y-20900027D01*
X1560027Y-20753635D01*
X1732165Y-20638616D01*
X1732167Y-20638615D01*
X1923436Y-20559389D01*
X2126484Y-20519000D01*
X2333516Y-20519000D01*
X2536564Y-20559389D01*
X2536564Y-20559389D01*
G37*
G36*
X5076564Y-18019389D02*
G01*
X5267833Y-18098615D01*
X5267835Y-18098616D01*
X5439973Y-18213635D01*
X5586365Y-18360027D01*
X5701385Y-18532167D01*
X5780611Y-18723436D01*
X5821000Y-18926484D01*
X5821000Y-19133516D01*
X5780611Y-19336564D01*
X5741575Y-19430805D01*
X5701384Y-19527835D01*
X5586365Y-19699973D01*
X5439973Y-19846365D01*
X5267835Y-19961384D01*
X5267834Y-19961385D01*
X5267833Y-19961385D01*
X5076564Y-20040611D01*
X4873516Y-20081000D01*
X4666484Y-20081000D01*
X4463436Y-20040611D01*
X4272167Y-19961385D01*
X4272166Y-19961385D01*
X4272165Y-19961384D01*
X4100027Y-19846365D01*
X3953635Y-19699973D01*
X3838616Y-19527835D01*
X3798425Y-19430805D01*
X3759389Y-19336564D01*
X3719000Y-19133516D01*
X3719000Y-18926484D01*
X3759389Y-18723436D01*
X3838615Y-18532167D01*
X3953635Y-18360027D01*
X4100027Y-18213635D01*
X4272165Y-18098616D01*
X4272167Y-18098615D01*
X4463436Y-18019389D01*
X4666484Y-17979000D01*
X4873516Y-17979000D01*
X5076564Y-18019389D01*
X5076564Y-18019389D01*
G37*
G36*
X2536564Y-18019389D02*
G01*
X2727833Y-18098615D01*
X2727835Y-18098616D01*
X2899973Y-18213635D01*
X3046365Y-18360027D01*
X3161385Y-18532167D01*
X3240611Y-18723436D01*
X3281000Y-18926484D01*
X3281000Y-19133516D01*
X3240611Y-19336564D01*
X3201575Y-19430805D01*
X3161384Y-19527835D01*
X3046365Y-19699973D01*
X2899973Y-19846365D01*
X2727835Y-19961384D01*
X2727834Y-19961385D01*
X2727833Y-19961385D01*
X2536564Y-20040611D01*
X2333516Y-20081000D01*
X2126484Y-20081000D01*
X1923436Y-20040611D01*
X1732167Y-19961385D01*
X1732166Y-19961385D01*
X1732165Y-19961384D01*
X1560027Y-19846365D01*
X1413635Y-19699973D01*
X1298616Y-19527835D01*
X1258425Y-19430805D01*
X1219389Y-19336564D01*
X1179000Y-19133516D01*
X1179000Y-18926484D01*
X1219389Y-18723436D01*
X1298615Y-18532167D01*
X1413635Y-18360027D01*
X1560027Y-18213635D01*
X1732165Y-18098616D01*
X1732167Y-18098615D01*
X1923436Y-18019389D01*
X2126484Y-17979000D01*
X2333516Y-17979000D01*
X2536564Y-18019389D01*
X2536564Y-18019389D01*
G37*
G36*
X42851000Y-18701000D02*
G01*
X42149000Y-18701000D01*
X42149000Y-17299000D01*
X42851000Y-17299000D01*
X42851000Y-18701000D01*
X42851000Y-18701000D01*
G37*
G36*
X39851000Y-18701000D02*
G01*
X39149000Y-18701000D01*
X39149000Y-17299000D01*
X39851000Y-17299000D01*
X39851000Y-18701000D01*
X39851000Y-18701000D01*
G37*
G36*
X38851000Y-18701000D02*
G01*
X38149000Y-18701000D01*
X38149000Y-17299000D01*
X38851000Y-17299000D01*
X38851000Y-18701000D01*
X38851000Y-18701000D01*
G37*
G36*
X37851000Y-18701000D02*
G01*
X37149000Y-18701000D01*
X37149000Y-17299000D01*
X37851000Y-17299000D01*
X37851000Y-18701000D01*
X37851000Y-18701000D01*
G37*
G36*
X40851000Y-18701000D02*
G01*
X40149000Y-18701000D01*
X40149000Y-17299000D01*
X40851000Y-17299000D01*
X40851000Y-18701000D01*
X40851000Y-18701000D01*
G37*
G36*
X41851000Y-18701000D02*
G01*
X41149000Y-18701000D01*
X41149000Y-17299000D01*
X41851000Y-17299000D01*
X41851000Y-18701000D01*
X41851000Y-18701000D01*
G37*
G36*
X43851000Y-18701000D02*
G01*
X43149000Y-18701000D01*
X43149000Y-17299000D01*
X43851000Y-17299000D01*
X43851000Y-18701000D01*
X43851000Y-18701000D01*
G37*
G36*
X45851000Y-18701000D02*
G01*
X45149000Y-18701000D01*
X45149000Y-17299000D01*
X45851000Y-17299000D01*
X45851000Y-18701000D01*
X45851000Y-18701000D01*
G37*
G36*
X44851000Y-18701000D02*
G01*
X44149000Y-18701000D01*
X44149000Y-17299000D01*
X44851000Y-17299000D01*
X44851000Y-18701000D01*
X44851000Y-18701000D01*
G37*
G36*
X47851000Y-18701000D02*
G01*
X47149000Y-18701000D01*
X47149000Y-17299000D01*
X47851000Y-17299000D01*
X47851000Y-18701000D01*
X47851000Y-18701000D01*
G37*
G36*
X48851000Y-18701000D02*
G01*
X48149000Y-18701000D01*
X48149000Y-17299000D01*
X48851000Y-17299000D01*
X48851000Y-18701000D01*
X48851000Y-18701000D01*
G37*
G36*
X49851000Y-18701000D02*
G01*
X49149000Y-18701000D01*
X49149000Y-17299000D01*
X49851000Y-17299000D01*
X49851000Y-18701000D01*
X49851000Y-18701000D01*
G37*
G36*
X50851000Y-18701000D02*
G01*
X50149000Y-18701000D01*
X50149000Y-17299000D01*
X50851000Y-17299000D01*
X50851000Y-18701000D01*
X50851000Y-18701000D01*
G37*
G36*
X51851000Y-18701000D02*
G01*
X51149000Y-18701000D01*
X51149000Y-17299000D01*
X51851000Y-17299000D01*
X51851000Y-18701000D01*
X51851000Y-18701000D01*
G37*
G36*
X46851000Y-18701000D02*
G01*
X46149000Y-18701000D01*
X46149000Y-17299000D01*
X46851000Y-17299000D01*
X46851000Y-18701000D01*
X46851000Y-18701000D01*
G37*
G36*
X2536564Y-15479389D02*
G01*
X2727833Y-15558615D01*
X2727835Y-15558616D01*
X2899973Y-15673635D01*
X3046365Y-15820027D01*
X3161385Y-15992167D01*
X3240611Y-16183436D01*
X3281000Y-16386484D01*
X3281000Y-16593516D01*
X3240611Y-16796564D01*
X3161385Y-16987833D01*
X3161384Y-16987835D01*
X3046365Y-17159973D01*
X2899973Y-17306365D01*
X2727835Y-17421384D01*
X2727834Y-17421385D01*
X2727833Y-17421385D01*
X2536564Y-17500611D01*
X2333516Y-17541000D01*
X2126484Y-17541000D01*
X1923436Y-17500611D01*
X1732167Y-17421385D01*
X1732166Y-17421385D01*
X1732165Y-17421384D01*
X1560027Y-17306365D01*
X1413635Y-17159973D01*
X1298616Y-16987835D01*
X1298615Y-16987833D01*
X1219389Y-16796564D01*
X1179000Y-16593516D01*
X1179000Y-16386484D01*
X1219389Y-16183436D01*
X1298615Y-15992167D01*
X1413635Y-15820027D01*
X1560027Y-15673635D01*
X1732165Y-15558616D01*
X1732167Y-15558615D01*
X1923436Y-15479389D01*
X2126484Y-15439000D01*
X2333516Y-15439000D01*
X2536564Y-15479389D01*
X2536564Y-15479389D01*
G37*
G36*
X5076564Y-15479389D02*
G01*
X5267833Y-15558615D01*
X5267835Y-15558616D01*
X5439973Y-15673635D01*
X5586365Y-15820027D01*
X5701385Y-15992167D01*
X5780611Y-16183436D01*
X5821000Y-16386484D01*
X5821000Y-16593516D01*
X5780611Y-16796564D01*
X5701385Y-16987833D01*
X5701384Y-16987835D01*
X5586365Y-17159973D01*
X5439973Y-17306365D01*
X5267835Y-17421384D01*
X5267834Y-17421385D01*
X5267833Y-17421385D01*
X5076564Y-17500611D01*
X4873516Y-17541000D01*
X4666484Y-17541000D01*
X4463436Y-17500611D01*
X4272167Y-17421385D01*
X4272166Y-17421385D01*
X4272165Y-17421384D01*
X4100027Y-17306365D01*
X3953635Y-17159973D01*
X3838616Y-16987835D01*
X3838615Y-16987833D01*
X3759389Y-16796564D01*
X3719000Y-16593516D01*
X3719000Y-16386484D01*
X3759389Y-16183436D01*
X3838615Y-15992167D01*
X3953635Y-15820027D01*
X4100027Y-15673635D01*
X4272165Y-15558616D01*
X4272167Y-15558615D01*
X4463436Y-15479389D01*
X4666484Y-15439000D01*
X4873516Y-15439000D01*
X5076564Y-15479389D01*
X5076564Y-15479389D01*
G37*
G36*
X54851000Y-16201000D02*
G01*
X52749000Y-16201000D01*
X52749000Y-14299000D01*
X54851000Y-14299000D01*
X54851000Y-16201000D01*
X54851000Y-16201000D01*
G37*
G36*
X36251000Y-16201000D02*
G01*
X34149000Y-16201000D01*
X34149000Y-14299000D01*
X36251000Y-14299000D01*
X36251000Y-16201000D01*
X36251000Y-16201000D01*
G37*
G36*
X2536564Y-12939389D02*
G01*
X2727833Y-13018615D01*
X2727835Y-13018616D01*
X2899973Y-13133635D01*
X3046365Y-13280027D01*
X3161385Y-13452167D01*
X3240611Y-13643436D01*
X3281000Y-13846484D01*
X3281000Y-14053516D01*
X3240611Y-14256564D01*
X3223033Y-14299000D01*
X3161384Y-14447835D01*
X3046365Y-14619973D01*
X2899973Y-14766365D01*
X2727835Y-14881384D01*
X2727834Y-14881385D01*
X2727833Y-14881385D01*
X2536564Y-14960611D01*
X2333516Y-15001000D01*
X2126484Y-15001000D01*
X1923436Y-14960611D01*
X1732167Y-14881385D01*
X1732166Y-14881385D01*
X1732165Y-14881384D01*
X1560027Y-14766365D01*
X1413635Y-14619973D01*
X1298616Y-14447835D01*
X1236967Y-14299000D01*
X1219389Y-14256564D01*
X1179000Y-14053516D01*
X1179000Y-13846484D01*
X1219389Y-13643436D01*
X1298615Y-13452167D01*
X1413635Y-13280027D01*
X1560027Y-13133635D01*
X1732165Y-13018616D01*
X1732167Y-13018615D01*
X1923436Y-12939389D01*
X2126484Y-12899000D01*
X2333516Y-12899000D01*
X2536564Y-12939389D01*
X2536564Y-12939389D01*
G37*
G36*
X5076564Y-12939389D02*
G01*
X5267833Y-13018615D01*
X5267835Y-13018616D01*
X5439973Y-13133635D01*
X5586365Y-13280027D01*
X5701385Y-13452167D01*
X5780611Y-13643436D01*
X5821000Y-13846484D01*
X5821000Y-14053516D01*
X5780611Y-14256564D01*
X5763033Y-14299000D01*
X5701384Y-14447835D01*
X5586365Y-14619973D01*
X5439973Y-14766365D01*
X5267835Y-14881384D01*
X5267834Y-14881385D01*
X5267833Y-14881385D01*
X5076564Y-14960611D01*
X4873516Y-15001000D01*
X4666484Y-15001000D01*
X4463436Y-14960611D01*
X4272167Y-14881385D01*
X4272166Y-14881385D01*
X4272165Y-14881384D01*
X4100027Y-14766365D01*
X3953635Y-14619973D01*
X3838616Y-14447835D01*
X3776967Y-14299000D01*
X3759389Y-14256564D01*
X3719000Y-14053516D01*
X3719000Y-13846484D01*
X3759389Y-13643436D01*
X3838615Y-13452167D01*
X3953635Y-13280027D01*
X4100027Y-13133635D01*
X4272165Y-13018616D01*
X4272167Y-13018615D01*
X4463436Y-12939389D01*
X4666484Y-12899000D01*
X4873516Y-12899000D01*
X5076564Y-12939389D01*
X5076564Y-12939389D01*
G37*
G36*
X9101000Y-13851000D02*
G01*
X8199000Y-13851000D01*
X8199000Y-12949000D01*
X9101000Y-12949000D01*
X9101000Y-13851000D01*
X9101000Y-13851000D01*
G37*
G36*
X10601000Y-13851000D02*
G01*
X9699000Y-13851000D01*
X9699000Y-12949000D01*
X10601000Y-12949000D01*
X10601000Y-13851000D01*
X10601000Y-13851000D01*
G37*
G36*
X5076564Y-10399389D02*
G01*
X5267833Y-10478615D01*
X5267835Y-10478616D01*
X5439973Y-10593635D01*
X5586365Y-10740027D01*
X5701385Y-10912167D01*
X5780611Y-11103436D01*
X5821000Y-11306484D01*
X5821000Y-11513516D01*
X5780611Y-11716564D01*
X5701385Y-11907833D01*
X5701384Y-11907835D01*
X5586365Y-12079973D01*
X5439973Y-12226365D01*
X5267835Y-12341384D01*
X5267834Y-12341385D01*
X5267833Y-12341385D01*
X5076564Y-12420611D01*
X4873516Y-12461000D01*
X4666484Y-12461000D01*
X4463436Y-12420611D01*
X4272167Y-12341385D01*
X4272166Y-12341385D01*
X4272165Y-12341384D01*
X4100027Y-12226365D01*
X3953635Y-12079973D01*
X3838616Y-11907835D01*
X3838615Y-11907833D01*
X3759389Y-11716564D01*
X3719000Y-11513516D01*
X3719000Y-11306484D01*
X3759389Y-11103436D01*
X3838615Y-10912167D01*
X3953635Y-10740027D01*
X4100027Y-10593635D01*
X4272165Y-10478616D01*
X4272167Y-10478615D01*
X4463436Y-10399389D01*
X4666484Y-10359000D01*
X4873516Y-10359000D01*
X5076564Y-10399389D01*
X5076564Y-10399389D01*
G37*
G36*
X2536564Y-10399389D02*
G01*
X2727833Y-10478615D01*
X2727835Y-10478616D01*
X2899973Y-10593635D01*
X3046365Y-10740027D01*
X3161385Y-10912167D01*
X3240611Y-11103436D01*
X3281000Y-11306484D01*
X3281000Y-11513516D01*
X3240611Y-11716564D01*
X3161385Y-11907833D01*
X3161384Y-11907835D01*
X3046365Y-12079973D01*
X2899973Y-12226365D01*
X2727835Y-12341384D01*
X2727834Y-12341385D01*
X2727833Y-12341385D01*
X2536564Y-12420611D01*
X2333516Y-12461000D01*
X2126484Y-12461000D01*
X1923436Y-12420611D01*
X1732167Y-12341385D01*
X1732166Y-12341385D01*
X1732165Y-12341384D01*
X1560027Y-12226365D01*
X1413635Y-12079973D01*
X1298616Y-11907835D01*
X1298615Y-11907833D01*
X1219389Y-11716564D01*
X1179000Y-11513516D01*
X1179000Y-11306484D01*
X1219389Y-11103436D01*
X1298615Y-10912167D01*
X1413635Y-10740027D01*
X1560027Y-10593635D01*
X1732165Y-10478616D01*
X1732167Y-10478615D01*
X1923436Y-10399389D01*
X2126484Y-10359000D01*
X2333516Y-10359000D01*
X2536564Y-10399389D01*
X2536564Y-10399389D01*
G37*
G36*
X10601000Y-12351000D02*
G01*
X9699000Y-12351000D01*
X9699000Y-11449000D01*
X10601000Y-11449000D01*
X10601000Y-12351000D01*
X10601000Y-12351000D01*
G37*
G36*
X9101000Y-12351000D02*
G01*
X8199000Y-12351000D01*
X8199000Y-11449000D01*
X9101000Y-11449000D01*
X9101000Y-12351000D01*
X9101000Y-12351000D01*
G37*
G36*
X10601000Y-10851000D02*
G01*
X9699000Y-10851000D01*
X9699000Y-9949000D01*
X10601000Y-9949000D01*
X10601000Y-10851000D01*
X10601000Y-10851000D01*
G37*
G36*
X9101000Y-10851000D02*
G01*
X8199000Y-10851000D01*
X8199000Y-9949000D01*
X9101000Y-9949000D01*
X9101000Y-10851000D01*
X9101000Y-10851000D01*
G37*
G36*
X5076564Y-7859389D02*
G01*
X5267833Y-7938615D01*
X5267835Y-7938616D01*
X5439973Y-8053635D01*
X5586365Y-8200027D01*
X5701385Y-8372167D01*
X5780611Y-8563436D01*
X5821000Y-8766484D01*
X5821000Y-8973516D01*
X5780611Y-9176564D01*
X5708357Y-9351000D01*
X5701384Y-9367835D01*
X5586365Y-9539973D01*
X5439973Y-9686365D01*
X5267835Y-9801384D01*
X5267834Y-9801385D01*
X5267833Y-9801385D01*
X5076564Y-9880611D01*
X4873516Y-9921000D01*
X4666484Y-9921000D01*
X4463436Y-9880611D01*
X4272167Y-9801385D01*
X4272166Y-9801385D01*
X4272165Y-9801384D01*
X4100027Y-9686365D01*
X3953635Y-9539973D01*
X3838616Y-9367835D01*
X3831643Y-9351000D01*
X3759389Y-9176564D01*
X3719000Y-8973516D01*
X3719000Y-8766484D01*
X3759389Y-8563436D01*
X3838615Y-8372167D01*
X3953635Y-8200027D01*
X4100027Y-8053635D01*
X4272165Y-7938616D01*
X4272167Y-7938615D01*
X4463436Y-7859389D01*
X4666484Y-7819000D01*
X4873516Y-7819000D01*
X5076564Y-7859389D01*
X5076564Y-7859389D01*
G37*
G36*
X2536564Y-7859389D02*
G01*
X2727833Y-7938615D01*
X2727835Y-7938616D01*
X2899973Y-8053635D01*
X3046365Y-8200027D01*
X3161385Y-8372167D01*
X3240611Y-8563436D01*
X3281000Y-8766484D01*
X3281000Y-8973516D01*
X3240611Y-9176564D01*
X3168357Y-9351000D01*
X3161384Y-9367835D01*
X3046365Y-9539973D01*
X2899973Y-9686365D01*
X2727835Y-9801384D01*
X2727834Y-9801385D01*
X2727833Y-9801385D01*
X2536564Y-9880611D01*
X2333516Y-9921000D01*
X2126484Y-9921000D01*
X1923436Y-9880611D01*
X1732167Y-9801385D01*
X1732166Y-9801385D01*
X1732165Y-9801384D01*
X1560027Y-9686365D01*
X1413635Y-9539973D01*
X1298616Y-9367835D01*
X1291643Y-9351000D01*
X1219389Y-9176564D01*
X1179000Y-8973516D01*
X1179000Y-8766484D01*
X1219389Y-8563436D01*
X1298615Y-8372167D01*
X1413635Y-8200027D01*
X1560027Y-8053635D01*
X1732165Y-7938616D01*
X1732167Y-7938615D01*
X1923436Y-7859389D01*
X2126484Y-7819000D01*
X2333516Y-7819000D01*
X2536564Y-7859389D01*
X2536564Y-7859389D01*
G37*
G36*
X10601000Y-9351000D02*
G01*
X9699000Y-9351000D01*
X9699000Y-8449000D01*
X10601000Y-8449000D01*
X10601000Y-9351000D01*
X10601000Y-9351000D01*
G37*
G36*
X9101000Y-9351000D02*
G01*
X8199000Y-9351000D01*
X8199000Y-8449000D01*
X9101000Y-8449000D01*
X9101000Y-9351000D01*
X9101000Y-9351000D01*
G37*
G36*
X9101000Y-7851000D02*
G01*
X8199000Y-7851000D01*
X8199000Y-6949000D01*
X9101000Y-6949000D01*
X9101000Y-7851000D01*
X9101000Y-7851000D01*
G37*
G36*
X10601000Y-7851000D02*
G01*
X9699000Y-7851000D01*
X9699000Y-6949000D01*
X10601000Y-6949000D01*
X10601000Y-7851000D01*
X10601000Y-7851000D01*
G37*
G36*
X53216191Y-929727D02*
G01*
X53419113Y-970091D01*
X53992558Y-1207620D01*
X54508645Y-1552459D01*
X54947541Y-1991355D01*
X55292380Y-2507442D01*
X55529909Y-3080887D01*
X55651000Y-3689654D01*
X55651000Y-4310346D01*
X55529909Y-4919113D01*
X55292380Y-5492558D01*
X54947541Y-6008645D01*
X54508645Y-6447541D01*
X53992558Y-6792380D01*
X53419113Y-7029909D01*
X53216191Y-7070273D01*
X52810348Y-7151000D01*
X52189652Y-7151000D01*
X51783809Y-7070273D01*
X51580887Y-7029909D01*
X51007442Y-6792380D01*
X50491355Y-6447541D01*
X50052459Y-6008645D01*
X49707620Y-5492558D01*
X49470091Y-4919113D01*
X49349000Y-4310346D01*
X49349000Y-3689654D01*
X49470091Y-3080887D01*
X49707620Y-2507442D01*
X50052459Y-1991355D01*
X50491355Y-1552459D01*
X51007442Y-1207620D01*
X51580887Y-970091D01*
X51783809Y-929727D01*
X52189652Y-849000D01*
X52810348Y-849000D01*
X53216191Y-929727D01*
X53216191Y-929727D01*
G37*
G36*
X4216191Y-929727D02*
G01*
X4419113Y-970091D01*
X4992558Y-1207620D01*
X5508645Y-1552459D01*
X5947541Y-1991355D01*
X6292380Y-2507442D01*
X6529909Y-3080887D01*
X6651000Y-3689654D01*
X6651000Y-4310346D01*
X6529909Y-4919113D01*
X6292380Y-5492558D01*
X5947541Y-6008645D01*
X5508645Y-6447541D01*
X4992558Y-6792380D01*
X4419113Y-7029909D01*
X4216191Y-7070273D01*
X3810348Y-7151000D01*
X3189652Y-7151000D01*
X2783809Y-7070273D01*
X2580887Y-7029909D01*
X2007442Y-6792380D01*
X1491355Y-6447541D01*
X1052459Y-6008645D01*
X707620Y-5492558D01*
X470091Y-4919113D01*
X349000Y-4310346D01*
X349000Y-3689654D01*
X470091Y-3080887D01*
X707620Y-2507442D01*
X1052459Y-1991355D01*
X1491355Y-1552459D01*
X2007442Y-1207620D01*
X2580887Y-970091D01*
X2783809Y-929727D01*
X3189652Y-849000D01*
X3810348Y-849000D01*
X4216191Y-929727D01*
X4216191Y-929727D01*
G37*
G36*
X10601000Y-6351000D02*
G01*
X9699000Y-6351000D01*
X9699000Y-5449000D01*
X10601000Y-5449000D01*
X10601000Y-6351000D01*
X10601000Y-6351000D01*
G37*
G36*
X9101000Y-6351000D02*
G01*
X8199000Y-6351000D01*
X8199000Y-5449000D01*
X9101000Y-5449000D01*
X9101000Y-6351000D01*
X9101000Y-6351000D01*
G37*
G36*
X10601000Y-4851000D02*
G01*
X9699000Y-4851000D01*
X9699000Y-3949000D01*
X10601000Y-3949000D01*
X10601000Y-4851000D01*
X10601000Y-4851000D01*
G37*
G36*
X9101000Y-4851000D02*
G01*
X8199000Y-4851000D01*
X8199000Y-3949000D01*
X9101000Y-3949000D01*
X9101000Y-4851000D01*
X9101000Y-4851000D01*
G37*
G36*
X10601000Y-3351000D02*
G01*
X9699000Y-3351000D01*
X9699000Y-2449000D01*
X10601000Y-2449000D01*
X10601000Y-3351000D01*
X10601000Y-3351000D01*
G37*
G36*
X9101000Y-3351000D02*
G01*
X8199000Y-3351000D01*
X8199000Y-2449000D01*
X9101000Y-2449000D01*
X9101000Y-3351000D01*
X9101000Y-3351000D01*
G37*
M02*
