G04 #@! TF.GenerationSoftware,KiCad,Pcbnew,5.1.4+dfsg1-1~bpo9+1*
G04 #@! TF.CreationDate,2019-11-25T12:29:00+01:00*
G04 #@! TF.ProjectId,zglue-demo-board,7a676c75-652d-4646-956d-6f2d626f6172,rev?*
G04 #@! TF.SameCoordinates,Original*
G04 #@! TF.FileFunction,Paste,Top*
G04 #@! TF.FilePolarity,Positive*
%FSLAX46Y46*%
G04 Gerber Fmt 4.6, Leading zero omitted, Abs format (unit mm)*
G04 Created by KiCad (PCBNEW 5.1.4+dfsg1-1~bpo9+1) date 2019-11-25 12:29:00*
%MOMM*%
%LPD*%
G04 APERTURE LIST*
%ADD10R,0.800000X0.800000*%
%ADD11R,0.600000X1.300000*%
%ADD12R,2.000000X1.800000*%
%ADD13R,0.300000X0.300000*%
%ADD14R,1.100000X0.300000*%
%ADD15R,1.320000X1.300000*%
%ADD16R,1.380000X0.450000*%
%ADD17R,2.100000X1.475000*%
%ADD18R,1.900000X1.175000*%
%ADD19R,1.900000X2.375000*%
G04 APERTURE END LIST*
D10*
X10150000Y-8900000D03*
X8650000Y-8900000D03*
D11*
X44500000Y-18000000D03*
X45500000Y-18000000D03*
X46500000Y-18000000D03*
X47500000Y-18000000D03*
X48500000Y-18000000D03*
X49500000Y-18000000D03*
X50500000Y-18000000D03*
X51500000Y-18000000D03*
X43500000Y-18000000D03*
X42500000Y-18000000D03*
X41500000Y-18000000D03*
X40500000Y-18000000D03*
X39500000Y-18000000D03*
X38500000Y-18000000D03*
X37500000Y-18000000D03*
D12*
X35200000Y-15250000D03*
X53800000Y-15250000D03*
D10*
X8650000Y-10400000D03*
X10150000Y-10400000D03*
X8650000Y-13400000D03*
X10150000Y-13400000D03*
X10150000Y-5900000D03*
X8650000Y-5900000D03*
X8650000Y-7400000D03*
X10150000Y-7400000D03*
X10150000Y-4400000D03*
X8650000Y-4400000D03*
X8650000Y-11900000D03*
X10150000Y-11900000D03*
X8650000Y-2900000D03*
X10150000Y-2900000D03*
D11*
X44500000Y-48000000D03*
X43500000Y-48000000D03*
X42500000Y-48000000D03*
X41500000Y-48000000D03*
X40500000Y-48000000D03*
X39500000Y-48000000D03*
X38500000Y-48000000D03*
X37500000Y-48000000D03*
X45500000Y-48000000D03*
X46500000Y-48000000D03*
X47500000Y-48000000D03*
X48500000Y-48000000D03*
X49500000Y-48000000D03*
X50500000Y-48000000D03*
X51500000Y-48000000D03*
D12*
X53800000Y-50750000D03*
X35200000Y-50750000D03*
D13*
X48075000Y-26150000D03*
X48925000Y-26500000D03*
X48075000Y-26850000D03*
D14*
X17253780Y-37752000D03*
X17253780Y-37252000D03*
X17253780Y-36752000D03*
X17253780Y-36252000D03*
X17253780Y-35752000D03*
X17253780Y-35252000D03*
X17253780Y-34752000D03*
X17253780Y-34252000D03*
X17253780Y-33752000D03*
X17253780Y-33252000D03*
X17253780Y-32752000D03*
X17253780Y-32252000D03*
X17253780Y-31752000D03*
X17253780Y-31252000D03*
X17253780Y-30752000D03*
X17253780Y-30252000D03*
X17253780Y-29752000D03*
X17253780Y-29252000D03*
X17253780Y-28752000D03*
X17253780Y-28252000D03*
X21272880Y-37752000D03*
X21272880Y-37252000D03*
X21272880Y-36752000D03*
X21272880Y-36252000D03*
X21272880Y-35752000D03*
X21272880Y-35252000D03*
X21272880Y-34752000D03*
X21272880Y-34252000D03*
X21272880Y-33752000D03*
X21272880Y-33252000D03*
X21272880Y-32752000D03*
X21272880Y-32252000D03*
X21272880Y-31752000D03*
X21272880Y-31252000D03*
X21272880Y-30752000D03*
X21272880Y-30252000D03*
X21272880Y-29752000D03*
X21272880Y-29252000D03*
X21272880Y-28752000D03*
X21272880Y-28252000D03*
D15*
X17441740Y-38958500D03*
X21082380Y-38953420D03*
X17441740Y-27050980D03*
X21082380Y-27050980D03*
D14*
X34753780Y-37752000D03*
X34753780Y-37252000D03*
X34753780Y-36752000D03*
X34753780Y-36252000D03*
X34753780Y-35752000D03*
X34753780Y-35252000D03*
X34753780Y-34752000D03*
X34753780Y-34252000D03*
X34753780Y-33752000D03*
X34753780Y-33252000D03*
X34753780Y-32752000D03*
X34753780Y-32252000D03*
X34753780Y-31752000D03*
X34753780Y-31252000D03*
X34753780Y-30752000D03*
X34753780Y-30252000D03*
X34753780Y-29752000D03*
X34753780Y-29252000D03*
X34753780Y-28752000D03*
X34753780Y-28252000D03*
X38772880Y-37752000D03*
X38772880Y-37252000D03*
X38772880Y-36752000D03*
X38772880Y-36252000D03*
X38772880Y-35752000D03*
X38772880Y-35252000D03*
X38772880Y-34752000D03*
X38772880Y-34252000D03*
X38772880Y-33752000D03*
X38772880Y-33252000D03*
X38772880Y-32752000D03*
X38772880Y-32252000D03*
X38772880Y-31752000D03*
X38772880Y-31252000D03*
X38772880Y-30752000D03*
X38772880Y-30252000D03*
X38772880Y-29752000D03*
X38772880Y-29252000D03*
X38772880Y-28752000D03*
X38772880Y-28252000D03*
D15*
X34941740Y-38958500D03*
X38582380Y-38953420D03*
X34941740Y-27050980D03*
X38582380Y-27050980D03*
D13*
X48075000Y-39650000D03*
X48925000Y-40000000D03*
X48075000Y-40350000D03*
D16*
X51340000Y-38700000D03*
X51340000Y-39350000D03*
X51340000Y-40000000D03*
X51340000Y-40650000D03*
X51340000Y-41300000D03*
D17*
X51700000Y-42462500D03*
D18*
X54000000Y-40837500D03*
D19*
X54000000Y-37087500D03*
X54000000Y-42912500D03*
D18*
X54000000Y-39162500D03*
D17*
X51700000Y-37537500D03*
X51700000Y-23537500D03*
D18*
X54000000Y-25162500D03*
D19*
X54000000Y-28912500D03*
X54000000Y-23087500D03*
D18*
X54000000Y-26837500D03*
D17*
X51700000Y-28462500D03*
D16*
X51340000Y-27300000D03*
X51340000Y-26650000D03*
X51340000Y-26000000D03*
X51340000Y-25350000D03*
X51340000Y-24700000D03*
M02*
