G04 #@! TF.GenerationSoftware,KiCad,Pcbnew,5.0.2+dfsg1-1~bpo9+1*
G04 #@! TF.CreationDate,2019-10-23T09:45:10+02:00*
G04 #@! TF.ProjectId,zglue-demo-board,7a676c75-652d-4646-956d-6f2d626f6172,rev?*
G04 #@! TF.SameCoordinates,Original*
G04 #@! TF.FileFunction,Legend,Top*
G04 #@! TF.FilePolarity,Positive*
%FSLAX46Y46*%
G04 Gerber Fmt 4.6, Leading zero omitted, Abs format (unit mm)*
G04 Created by KiCad (PCBNEW 5.0.2+dfsg1-1~bpo9+1) date Wed 23 Oct 2019 09:45:10 AM CEST*
%MOMM*%
%LPD*%
G01*
G04 APERTURE LIST*
%ADD10C,0.150000*%
%ADD11C,0.200000*%
%ADD12C,0.100000*%
%ADD13C,0.120000*%
G04 APERTURE END LIST*
D10*
X50783333Y-34950000D02*
X50550000Y-34950000D01*
X50550000Y-35316666D02*
X50550000Y-34616666D01*
X50883333Y-34616666D01*
X51150000Y-35316666D02*
X51150000Y-34616666D01*
X51416666Y-34616666D01*
X51483333Y-34650000D01*
X51516666Y-34683333D01*
X51550000Y-34750000D01*
X51550000Y-34850000D01*
X51516666Y-34916666D01*
X51483333Y-34950000D01*
X51416666Y-34983333D01*
X51150000Y-34983333D01*
X52216666Y-34650000D02*
X52150000Y-34616666D01*
X52050000Y-34616666D01*
X51950000Y-34650000D01*
X51883333Y-34716666D01*
X51850000Y-34783333D01*
X51816666Y-34916666D01*
X51816666Y-35016666D01*
X51850000Y-35150000D01*
X51883333Y-35216666D01*
X51950000Y-35283333D01*
X52050000Y-35316666D01*
X52116666Y-35316666D01*
X52216666Y-35283333D01*
X52250000Y-35250000D01*
X52250000Y-35016666D01*
X52116666Y-35016666D01*
X52516666Y-35116666D02*
X52850000Y-35116666D01*
X52450000Y-35316666D02*
X52683333Y-34616666D01*
X52916666Y-35316666D01*
X53683333Y-34616666D02*
X53683333Y-35183333D01*
X53716666Y-35250000D01*
X53750000Y-35283333D01*
X53816666Y-35316666D01*
X53950000Y-35316666D01*
X54016666Y-35283333D01*
X54050000Y-35250000D01*
X54083333Y-35183333D01*
X54083333Y-34616666D01*
X54383333Y-35283333D02*
X54483333Y-35316666D01*
X54650000Y-35316666D01*
X54716666Y-35283333D01*
X54750000Y-35250000D01*
X54783333Y-35183333D01*
X54783333Y-35116666D01*
X54750000Y-35050000D01*
X54716666Y-35016666D01*
X54650000Y-34983333D01*
X54516666Y-34950000D01*
X54450000Y-34916666D01*
X54416666Y-34883333D01*
X54383333Y-34816666D01*
X54383333Y-34750000D01*
X54416666Y-34683333D01*
X54450000Y-34650000D01*
X54516666Y-34616666D01*
X54683333Y-34616666D01*
X54783333Y-34650000D01*
X55316666Y-34950000D02*
X55416666Y-34983333D01*
X55450000Y-35016666D01*
X55483333Y-35083333D01*
X55483333Y-35183333D01*
X55450000Y-35250000D01*
X55416666Y-35283333D01*
X55350000Y-35316666D01*
X55083333Y-35316666D01*
X55083333Y-34616666D01*
X55316666Y-34616666D01*
X55383333Y-34650000D01*
X55416666Y-34683333D01*
X55450000Y-34750000D01*
X55450000Y-34816666D01*
X55416666Y-34883333D01*
X55383333Y-34916666D01*
X55316666Y-34950000D01*
X55083333Y-34950000D01*
X51000000Y-31450000D02*
X50766666Y-31450000D01*
X50766666Y-31816666D02*
X50766666Y-31116666D01*
X51100000Y-31116666D01*
X51266666Y-31116666D02*
X51666666Y-31116666D01*
X51466666Y-31816666D02*
X51466666Y-31116666D01*
X51900000Y-31816666D02*
X51900000Y-31116666D01*
X52066666Y-31116666D01*
X52166666Y-31150000D01*
X52233333Y-31216666D01*
X52266666Y-31283333D01*
X52300000Y-31416666D01*
X52300000Y-31516666D01*
X52266666Y-31650000D01*
X52233333Y-31716666D01*
X52166666Y-31783333D01*
X52066666Y-31816666D01*
X51900000Y-31816666D01*
X52600000Y-31816666D02*
X52600000Y-31116666D01*
X53466666Y-31116666D02*
X53466666Y-31683333D01*
X53500000Y-31750000D01*
X53533333Y-31783333D01*
X53600000Y-31816666D01*
X53733333Y-31816666D01*
X53800000Y-31783333D01*
X53833333Y-31750000D01*
X53866666Y-31683333D01*
X53866666Y-31116666D01*
X54166666Y-31783333D02*
X54266666Y-31816666D01*
X54433333Y-31816666D01*
X54500000Y-31783333D01*
X54533333Y-31750000D01*
X54566666Y-31683333D01*
X54566666Y-31616666D01*
X54533333Y-31550000D01*
X54500000Y-31516666D01*
X54433333Y-31483333D01*
X54300000Y-31450000D01*
X54233333Y-31416666D01*
X54200000Y-31383333D01*
X54166666Y-31316666D01*
X54166666Y-31250000D01*
X54200000Y-31183333D01*
X54233333Y-31150000D01*
X54300000Y-31116666D01*
X54466666Y-31116666D01*
X54566666Y-31150000D01*
X55100000Y-31450000D02*
X55200000Y-31483333D01*
X55233333Y-31516666D01*
X55266666Y-31583333D01*
X55266666Y-31683333D01*
X55233333Y-31750000D01*
X55200000Y-31783333D01*
X55133333Y-31816666D01*
X54866666Y-31816666D01*
X54866666Y-31116666D01*
X55100000Y-31116666D01*
X55166666Y-31150000D01*
X55200000Y-31183333D01*
X55233333Y-31250000D01*
X55233333Y-31316666D01*
X55200000Y-31383333D01*
X55166666Y-31416666D01*
X55100000Y-31450000D01*
X54866666Y-31450000D01*
X9916666Y-58325000D02*
X9850000Y-58291666D01*
X9750000Y-58291666D01*
X9650000Y-58325000D01*
X9583333Y-58391666D01*
X9550000Y-58458333D01*
X9516666Y-58591666D01*
X9516666Y-58691666D01*
X9550000Y-58825000D01*
X9583333Y-58891666D01*
X9650000Y-58958333D01*
X9750000Y-58991666D01*
X9816666Y-58991666D01*
X9916666Y-58958333D01*
X9950000Y-58925000D01*
X9950000Y-58691666D01*
X9816666Y-58691666D01*
X10250000Y-58991666D02*
X10250000Y-58291666D01*
X10650000Y-58991666D01*
X10650000Y-58291666D01*
X10983333Y-58991666D02*
X10983333Y-58291666D01*
X11150000Y-58291666D01*
X11250000Y-58325000D01*
X11316666Y-58391666D01*
X11350000Y-58458333D01*
X11383333Y-58591666D01*
X11383333Y-58691666D01*
X11350000Y-58825000D01*
X11316666Y-58891666D01*
X11250000Y-58958333D01*
X11150000Y-58991666D01*
X10983333Y-58991666D01*
X12316666Y-58291666D02*
X11983333Y-58291666D01*
X11950000Y-58625000D01*
X11983333Y-58591666D01*
X12050000Y-58558333D01*
X12216666Y-58558333D01*
X12283333Y-58591666D01*
X12316666Y-58625000D01*
X12350000Y-58691666D01*
X12350000Y-58858333D01*
X12316666Y-58925000D01*
X12283333Y-58958333D01*
X12216666Y-58991666D01*
X12050000Y-58991666D01*
X11983333Y-58958333D01*
X11950000Y-58925000D01*
X12550000Y-58291666D02*
X12783333Y-58991666D01*
X13016666Y-58291666D01*
X41966666Y-11250000D02*
X41933333Y-11283333D01*
X41833333Y-11316666D01*
X41766666Y-11316666D01*
X41666666Y-11283333D01*
X41600000Y-11216666D01*
X41566666Y-11150000D01*
X41533333Y-11016666D01*
X41533333Y-10916666D01*
X41566666Y-10783333D01*
X41600000Y-10716666D01*
X41666666Y-10650000D01*
X41766666Y-10616666D01*
X41833333Y-10616666D01*
X41933333Y-10650000D01*
X41966666Y-10683333D01*
X42233333Y-11283333D02*
X42333333Y-11316666D01*
X42500000Y-11316666D01*
X42566666Y-11283333D01*
X42600000Y-11250000D01*
X42633333Y-11183333D01*
X42633333Y-11116666D01*
X42600000Y-11050000D01*
X42566666Y-11016666D01*
X42500000Y-10983333D01*
X42366666Y-10950000D01*
X42300000Y-10916666D01*
X42266666Y-10883333D01*
X42233333Y-10816666D01*
X42233333Y-10750000D01*
X42266666Y-10683333D01*
X42300000Y-10650000D01*
X42366666Y-10616666D01*
X42533333Y-10616666D01*
X42633333Y-10650000D01*
X42933333Y-11316666D02*
X42933333Y-10616666D01*
X43933333Y-10616666D02*
X44066666Y-10616666D01*
X44133333Y-10650000D01*
X44200000Y-10716666D01*
X44233333Y-10850000D01*
X44233333Y-11083333D01*
X44200000Y-11216666D01*
X44133333Y-11283333D01*
X44066666Y-11316666D01*
X43933333Y-11316666D01*
X43866666Y-11283333D01*
X43800000Y-11216666D01*
X43766666Y-11083333D01*
X43766666Y-10850000D01*
X43800000Y-10716666D01*
X43866666Y-10650000D01*
X43933333Y-10616666D01*
X44533333Y-10616666D02*
X44533333Y-11183333D01*
X44566666Y-11250000D01*
X44600000Y-11283333D01*
X44666666Y-11316666D01*
X44800000Y-11316666D01*
X44866666Y-11283333D01*
X44900000Y-11250000D01*
X44933333Y-11183333D01*
X44933333Y-10616666D01*
X45166666Y-10616666D02*
X45566666Y-10616666D01*
X45366666Y-11316666D02*
X45366666Y-10616666D01*
X45800000Y-11316666D02*
X45800000Y-10616666D01*
X46066666Y-10616666D01*
X46133333Y-10650000D01*
X46166666Y-10683333D01*
X46200000Y-10750000D01*
X46200000Y-10850000D01*
X46166666Y-10916666D01*
X46133333Y-10950000D01*
X46066666Y-10983333D01*
X45800000Y-10983333D01*
X46500000Y-10616666D02*
X46500000Y-11183333D01*
X46533333Y-11250000D01*
X46566666Y-11283333D01*
X46633333Y-11316666D01*
X46766666Y-11316666D01*
X46833333Y-11283333D01*
X46866666Y-11250000D01*
X46900000Y-11183333D01*
X46900000Y-10616666D01*
X47133333Y-10616666D02*
X47533333Y-10616666D01*
X47333333Y-11316666D02*
X47333333Y-10616666D01*
X41966666Y-55250000D02*
X41933333Y-55283333D01*
X41833333Y-55316666D01*
X41766666Y-55316666D01*
X41666666Y-55283333D01*
X41599999Y-55216666D01*
X41566666Y-55150000D01*
X41533333Y-55016666D01*
X41533333Y-54916666D01*
X41566666Y-54783333D01*
X41599999Y-54716666D01*
X41666666Y-54650000D01*
X41766666Y-54616666D01*
X41833333Y-54616666D01*
X41933333Y-54650000D01*
X41966666Y-54683333D01*
X42233333Y-55283333D02*
X42333333Y-55316666D01*
X42499999Y-55316666D01*
X42566666Y-55283333D01*
X42599999Y-55250000D01*
X42633333Y-55183333D01*
X42633333Y-55116666D01*
X42599999Y-55050000D01*
X42566666Y-55016666D01*
X42499999Y-54983333D01*
X42366666Y-54950000D01*
X42299999Y-54916666D01*
X42266666Y-54883333D01*
X42233333Y-54816666D01*
X42233333Y-54750000D01*
X42266666Y-54683333D01*
X42299999Y-54650000D01*
X42366666Y-54616666D01*
X42533333Y-54616666D01*
X42633333Y-54650000D01*
X42933333Y-55316666D02*
X42933333Y-54616666D01*
X43799999Y-55316666D02*
X43799999Y-54616666D01*
X44133333Y-55316666D02*
X44133333Y-54616666D01*
X44533333Y-55316666D01*
X44533333Y-54616666D01*
X44866666Y-55316666D02*
X44866666Y-54616666D01*
X45133333Y-54616666D01*
X45199999Y-54650000D01*
X45233333Y-54683333D01*
X45266666Y-54750000D01*
X45266666Y-54850000D01*
X45233333Y-54916666D01*
X45199999Y-54950000D01*
X45133333Y-54983333D01*
X44866666Y-54983333D01*
X45566666Y-54616666D02*
X45566666Y-55183333D01*
X45599999Y-55250000D01*
X45633333Y-55283333D01*
X45699999Y-55316666D01*
X45833333Y-55316666D01*
X45899999Y-55283333D01*
X45933333Y-55250000D01*
X45966666Y-55183333D01*
X45966666Y-54616666D01*
X46199999Y-54616666D02*
X46599999Y-54616666D01*
X46399999Y-55316666D02*
X46399999Y-54616666D01*
D11*
X40500000Y-23000000D02*
X40500000Y-43000000D01*
X15500000Y-23000000D02*
X15500000Y-43000000D01*
X15500000Y-43000000D02*
X40500000Y-43000000D01*
X15500000Y-23000000D02*
X40500000Y-23000000D01*
D10*
G04 #@! TO.C,J8*
X54375000Y-52250000D02*
X54375000Y-53800000D01*
X34625000Y-52250000D02*
X34625000Y-53800000D01*
X34625000Y-53800000D02*
X54375000Y-53800000D01*
X54375000Y-48000000D02*
X54375000Y-49500000D01*
X34625000Y-48000000D02*
X34625000Y-49500000D01*
X52500000Y-48000000D02*
X54375000Y-48000000D01*
X36500000Y-48000000D02*
X34625000Y-48000000D01*
D12*
G04 #@! TO.C,Y1*
X9318114Y-5940000D02*
G75*
G03X9318114Y-5940000I-158114J0D01*
G01*
X14440000Y-5500000D02*
X14440000Y-2200000D01*
X9100000Y-5500000D02*
X9100000Y-2200000D01*
G04 #@! TO.C,U5*
X10140000Y-12750000D02*
X10140000Y-15770000D01*
X12370000Y-15750000D02*
X12370000Y-12740000D01*
D13*
G04 #@! TO.C,U6*
X20140000Y-4490000D02*
X19640000Y-4490000D01*
X28860000Y-13710000D02*
X28860000Y-13210000D01*
X28360000Y-13710000D02*
X28860000Y-13710000D01*
X19640000Y-13710000D02*
X19640000Y-13210000D01*
X20140000Y-13710000D02*
X19640000Y-13710000D01*
X28860000Y-4490000D02*
X28860000Y-4990000D01*
X28360000Y-4490000D02*
X28860000Y-4490000D01*
D12*
G04 #@! TO.C,D4*
X48025000Y-45125000D02*
X49975000Y-45125000D01*
X48025000Y-45225000D02*
X49975000Y-45225000D01*
X48025000Y-42675000D02*
X48250000Y-42675000D01*
X48025000Y-42975000D02*
X48025000Y-42675000D01*
X49975000Y-42675000D02*
X49975000Y-42925000D01*
X49725000Y-42675000D02*
X49975000Y-42675000D01*
X48025000Y-45325000D02*
X49975000Y-45325000D01*
X48025000Y-44975000D02*
X48025000Y-45325000D01*
X49975000Y-44975000D02*
X49975000Y-45325000D01*
G04 #@! TO.C,D3*
X19600000Y-60675000D02*
X17650000Y-60675000D01*
X19600000Y-60575000D02*
X17650000Y-60575000D01*
X19600000Y-63125000D02*
X19375000Y-63125000D01*
X19600000Y-62825000D02*
X19600000Y-63125000D01*
X17650000Y-63125000D02*
X17650000Y-62875000D01*
X17900000Y-63125000D02*
X17650000Y-63125000D01*
X19600000Y-60475000D02*
X17650000Y-60475000D01*
X19600000Y-60825000D02*
X19600000Y-60475000D01*
X17650000Y-60825000D02*
X17650000Y-60475000D01*
G04 #@! TO.C,D1*
X48025000Y-32125000D02*
X49975000Y-32125000D01*
X48025000Y-32225000D02*
X49975000Y-32225000D01*
X48025000Y-29675000D02*
X48250000Y-29675000D01*
X48025000Y-29975000D02*
X48025000Y-29675000D01*
X49975000Y-29675000D02*
X49975000Y-29925000D01*
X49725000Y-29675000D02*
X49975000Y-29675000D01*
X48025000Y-32325000D02*
X49975000Y-32325000D01*
X48025000Y-31975000D02*
X48025000Y-32325000D01*
X49975000Y-31975000D02*
X49975000Y-32325000D01*
G04 #@! TO.C,J3*
X25200000Y-59200000D02*
X25200000Y-59500000D01*
X25500000Y-59200000D02*
X25200000Y-59200000D01*
X31800000Y-59200000D02*
X31800000Y-59500000D01*
X31500000Y-59200000D02*
X31800000Y-59200000D01*
X31800000Y-62800000D02*
X31800000Y-62500000D01*
X31500000Y-62800000D02*
X31800000Y-62800000D01*
X25200000Y-62800000D02*
X25200000Y-62500000D01*
X25500000Y-62800000D02*
X25200000Y-62800000D01*
D13*
G04 #@! TO.C,C4*
X33050000Y-6200000D02*
X32450000Y-6200000D01*
X33050000Y-6800000D02*
X32450000Y-6800000D01*
D12*
G04 #@! TO.C,U1*
X31825000Y-1850000D02*
X31550000Y-1850000D01*
X31550000Y-1850000D02*
X31175000Y-2125000D01*
X31175000Y-2125000D02*
X31175000Y-2175000D01*
X31175000Y-2175000D02*
X30400000Y-2175000D01*
X31650000Y-5150000D02*
X31175000Y-5150000D01*
X31175000Y-5150000D02*
X31175000Y-4800000D01*
X32825000Y-4925000D02*
X32825000Y-4800000D01*
X32825000Y-4850000D02*
X32825000Y-5150000D01*
X32825000Y-5150000D02*
X32375000Y-5150000D01*
X32450000Y-1850000D02*
X32825000Y-1850000D01*
X32825000Y-1850000D02*
X32825000Y-2150000D01*
D13*
G04 #@! TO.C,C5*
X29550000Y-2550000D02*
X29550000Y-1950000D01*
X28950000Y-2550000D02*
X28950000Y-1950000D01*
D12*
G04 #@! TO.C,D5*
X48225000Y-25850000D02*
X48350000Y-25850000D01*
X48225000Y-25850000D02*
X48125000Y-25925000D01*
X48125000Y-25925000D02*
X47975000Y-25925000D01*
X49050000Y-26175000D02*
X49050000Y-25850000D01*
X49050000Y-25850000D02*
X48775000Y-25850000D01*
X48225000Y-27150000D02*
X47950000Y-27150000D01*
X47950000Y-27150000D02*
X47950000Y-27050000D01*
X49050000Y-26750000D02*
X49050000Y-27150000D01*
X49050000Y-27150000D02*
X48675000Y-27150000D01*
D10*
G04 #@! TO.C,J9*
X34625000Y-13750000D02*
X34625000Y-12200000D01*
X54375000Y-13750000D02*
X54375000Y-12200000D01*
X54375000Y-12200000D02*
X34625000Y-12200000D01*
X34625000Y-18000000D02*
X34625000Y-16500000D01*
X54375000Y-18000000D02*
X54375000Y-16500000D01*
X36500000Y-18000000D02*
X34625000Y-18000000D01*
X52500000Y-18000000D02*
X54375000Y-18000000D01*
D13*
G04 #@! TO.C,JP3*
X8900000Y-47700000D02*
X9200000Y-48000000D01*
X8600000Y-48000000D02*
X9200000Y-48000000D01*
X8900000Y-47700000D02*
X8600000Y-48000000D01*
X8150000Y-47500000D02*
X8150000Y-45500000D01*
X12250000Y-47500000D02*
X8150000Y-47500000D01*
X12250000Y-45500000D02*
X12250000Y-47500000D01*
X8150000Y-45500000D02*
X12250000Y-45500000D01*
G04 #@! TO.C,JP2*
X13450000Y-45500000D02*
X17550000Y-45500000D01*
X17550000Y-45500000D02*
X17550000Y-47500000D01*
X17550000Y-47500000D02*
X13450000Y-47500000D01*
X13450000Y-47500000D02*
X13450000Y-45500000D01*
X14200000Y-47700000D02*
X13900000Y-48000000D01*
X13900000Y-48000000D02*
X14500000Y-48000000D01*
X14200000Y-47700000D02*
X14500000Y-48000000D01*
G04 #@! TO.C,JP1*
X19700000Y-47700000D02*
X20000000Y-48000000D01*
X19400000Y-48000000D02*
X20000000Y-48000000D01*
X19700000Y-47700000D02*
X19400000Y-48000000D01*
X18950000Y-47500000D02*
X18950000Y-45500000D01*
X23050000Y-47500000D02*
X18950000Y-47500000D01*
X23050000Y-45500000D02*
X23050000Y-47500000D01*
X18950000Y-45500000D02*
X23050000Y-45500000D01*
G04 #@! TO.C,FB1*
X11200000Y-7700000D02*
X11800000Y-7700000D01*
X11200000Y-8300000D02*
X11800000Y-8300000D01*
G04 #@! TO.C,FB2*
X11200000Y-9800000D02*
X11800000Y-9800000D01*
X11200000Y-9200000D02*
X11800000Y-9200000D01*
D10*
G04 #@! TO.C,J6*
X21657000Y-25674980D02*
X21657000Y-26274980D01*
X21647000Y-40364980D02*
X16867000Y-40364980D01*
X16867000Y-40364980D02*
X16867000Y-39764980D01*
X21657000Y-39761380D02*
X21657000Y-40361380D01*
X16857000Y-25674980D02*
X21657000Y-25674980D01*
X16857000Y-26274980D02*
X16857000Y-25674980D01*
G04 #@! TO.C,J7*
X39157000Y-25674980D02*
X39157000Y-26274980D01*
X39147000Y-40364980D02*
X34367000Y-40364980D01*
X34367000Y-40364980D02*
X34367000Y-39764980D01*
X39157000Y-39761380D02*
X39157000Y-40361380D01*
X34357000Y-25674980D02*
X39157000Y-25674980D01*
X34357000Y-26274980D02*
X34357000Y-25674980D01*
D13*
G04 #@! TO.C,C2*
X23200000Y-62700000D02*
X23200000Y-63300000D01*
X23800000Y-62700000D02*
X23800000Y-63300000D01*
G04 #@! TO.C,C1*
X8950000Y-55350000D02*
X8950000Y-54750000D01*
X9550000Y-55350000D02*
X9550000Y-54750000D01*
G04 #@! TO.C,C3*
X7825000Y-55350000D02*
X7825000Y-54750000D01*
X7225000Y-55350000D02*
X7225000Y-54750000D01*
G04 #@! TO.C,R1*
X8350000Y-57350000D02*
X7750000Y-57350000D01*
X8350000Y-57950000D02*
X7750000Y-57950000D01*
D10*
G04 #@! TO.C,U3*
X45850000Y-30400000D02*
X46150000Y-30400000D01*
X46150000Y-30400000D02*
X46150000Y-30250000D01*
X45850000Y-27600000D02*
X46150000Y-27600000D01*
X46150000Y-27600000D02*
X46150000Y-27800000D01*
X43150000Y-27600000D02*
X42850000Y-27600000D01*
X42850000Y-27600000D02*
X42850000Y-27800000D01*
X43150000Y-30400000D02*
X42850000Y-30400000D01*
X42850000Y-30400000D02*
X42850000Y-30250000D01*
D11*
X42800000Y-29650000D02*
G75*
G03X42800000Y-29650000I-100000J0D01*
G01*
G04 #@! TO.C,U4*
X42800000Y-23150000D02*
G75*
G03X42800000Y-23150000I-100000J0D01*
G01*
D10*
X42850000Y-23900000D02*
X42850000Y-23750000D01*
X43150000Y-23900000D02*
X42850000Y-23900000D01*
X42850000Y-21100000D02*
X42850000Y-21300000D01*
X43150000Y-21100000D02*
X42850000Y-21100000D01*
X46150000Y-21100000D02*
X46150000Y-21300000D01*
X45850000Y-21100000D02*
X46150000Y-21100000D01*
X46150000Y-23900000D02*
X46150000Y-23750000D01*
X45850000Y-23900000D02*
X46150000Y-23900000D01*
G04 #@! TO.C,U2*
X30350000Y-47400000D02*
X30650000Y-47400000D01*
X30650000Y-47400000D02*
X30650000Y-47250000D01*
X30350000Y-44600000D02*
X30650000Y-44600000D01*
X30650000Y-44600000D02*
X30650000Y-44800000D01*
X27650000Y-44600000D02*
X27350000Y-44600000D01*
X27350000Y-44600000D02*
X27350000Y-44800000D01*
X27650000Y-47400000D02*
X27350000Y-47400000D01*
X27350000Y-47400000D02*
X27350000Y-47250000D01*
D11*
X27300000Y-46650000D02*
G75*
G03X27300000Y-46650000I-100000J0D01*
G01*
D12*
G04 #@! TO.C,D2*
X48225000Y-39350000D02*
X48350000Y-39350000D01*
X48225000Y-39350000D02*
X48125000Y-39425000D01*
X48125000Y-39425000D02*
X47975000Y-39425000D01*
X49050000Y-39675000D02*
X49050000Y-39350000D01*
X49050000Y-39350000D02*
X48775000Y-39350000D01*
X48225000Y-40650000D02*
X47950000Y-40650000D01*
X47950000Y-40650000D02*
X47950000Y-40550000D01*
X49050000Y-40250000D02*
X49050000Y-40650000D01*
X49050000Y-40650000D02*
X48675000Y-40650000D01*
G04 #@! TO.C,J5*
X50450000Y-44000000D02*
X50950000Y-44000000D01*
X50450000Y-44000000D02*
X50450000Y-43500000D01*
X55700000Y-44000000D02*
X55150000Y-44000000D01*
X55700000Y-44000000D02*
X55700000Y-43500000D01*
X50700000Y-41600000D02*
X52000000Y-41600000D01*
X50450000Y-36000000D02*
X50950000Y-36000000D01*
X50450000Y-36000000D02*
X50450000Y-36500000D01*
X55700000Y-36000000D02*
X55200000Y-36000000D01*
X55700000Y-36000000D02*
X55700000Y-36500000D01*
G04 #@! TO.C,J10*
X55700000Y-22000000D02*
X55700000Y-22500000D01*
X55700000Y-22000000D02*
X55200000Y-22000000D01*
X50450000Y-22000000D02*
X50450000Y-22500000D01*
X50450000Y-22000000D02*
X50950000Y-22000000D01*
X50700000Y-27600000D02*
X52000000Y-27600000D01*
X55700000Y-30000000D02*
X55700000Y-29500000D01*
X55700000Y-30000000D02*
X55150000Y-30000000D01*
X50450000Y-30000000D02*
X50450000Y-29500000D01*
X50450000Y-30000000D02*
X50950000Y-30000000D01*
G04 #@! TO.C,J8*
D10*
X33266666Y-48116666D02*
X33266666Y-48616666D01*
X33233333Y-48716666D01*
X33166666Y-48783333D01*
X33066666Y-48816666D01*
X33000000Y-48816666D01*
X33700000Y-48416666D02*
X33633333Y-48383333D01*
X33600000Y-48350000D01*
X33566666Y-48283333D01*
X33566666Y-48250000D01*
X33600000Y-48183333D01*
X33633333Y-48150000D01*
X33700000Y-48116666D01*
X33833333Y-48116666D01*
X33900000Y-48150000D01*
X33933333Y-48183333D01*
X33966666Y-48250000D01*
X33966666Y-48283333D01*
X33933333Y-48350000D01*
X33900000Y-48383333D01*
X33833333Y-48416666D01*
X33700000Y-48416666D01*
X33633333Y-48450000D01*
X33600000Y-48483333D01*
X33566666Y-48550000D01*
X33566666Y-48683333D01*
X33600000Y-48750000D01*
X33633333Y-48783333D01*
X33700000Y-48816666D01*
X33833333Y-48816666D01*
X33900000Y-48783333D01*
X33933333Y-48750000D01*
X33966666Y-48683333D01*
X33966666Y-48550000D01*
X33933333Y-48483333D01*
X33900000Y-48450000D01*
X33833333Y-48416666D01*
D11*
X51319047Y-46361904D02*
X50776190Y-46361904D01*
X51047619Y-46361904D02*
X51047619Y-45561904D01*
X50957142Y-45676190D01*
X50866666Y-45752380D01*
X50776190Y-45790476D01*
X52178571Y-45561904D02*
X51726190Y-45561904D01*
X51680952Y-45942857D01*
X51726190Y-45904761D01*
X51816666Y-45866666D01*
X52042857Y-45866666D01*
X52133333Y-45904761D01*
X52178571Y-45942857D01*
X52223809Y-46019047D01*
X52223809Y-46209523D01*
X52178571Y-46285714D01*
X52133333Y-46323809D01*
X52042857Y-46361904D01*
X51816666Y-46361904D01*
X51726190Y-46323809D01*
X51680952Y-46285714D01*
X37771428Y-46361904D02*
X37228571Y-46361904D01*
X37500000Y-46361904D02*
X37500000Y-45561904D01*
X37409523Y-45676190D01*
X37319047Y-45752380D01*
X37228571Y-45790476D01*
G04 #@! TO.C,Y1*
D10*
X15166666Y-2733333D02*
X15166666Y-3066666D01*
X14933333Y-2366666D02*
X15166666Y-2733333D01*
X15400000Y-2366666D01*
X16000000Y-3066666D02*
X15600000Y-3066666D01*
X15800000Y-3066666D02*
X15800000Y-2366666D01*
X15733333Y-2466666D01*
X15666666Y-2533333D01*
X15600000Y-2566666D01*
G04 #@! TO.C,U5*
X10716666Y-16516666D02*
X10716666Y-17083333D01*
X10750000Y-17150000D01*
X10783333Y-17183333D01*
X10850000Y-17216666D01*
X10983333Y-17216666D01*
X11050000Y-17183333D01*
X11083333Y-17150000D01*
X11116666Y-17083333D01*
X11116666Y-16516666D01*
X11783333Y-16516666D02*
X11450000Y-16516666D01*
X11416666Y-16850000D01*
X11450000Y-16816666D01*
X11516666Y-16783333D01*
X11683333Y-16783333D01*
X11750000Y-16816666D01*
X11783333Y-16850000D01*
X11816666Y-16916666D01*
X11816666Y-17083333D01*
X11783333Y-17150000D01*
X11750000Y-17183333D01*
X11683333Y-17216666D01*
X11516666Y-17216666D01*
X11450000Y-17183333D01*
X11416666Y-17150000D01*
G04 #@! TO.C,U6*
X17966666Y-3116666D02*
X17966666Y-3683333D01*
X18000000Y-3750000D01*
X18033333Y-3783333D01*
X18100000Y-3816666D01*
X18233333Y-3816666D01*
X18300000Y-3783333D01*
X18333333Y-3750000D01*
X18366666Y-3683333D01*
X18366666Y-3116666D01*
X19000000Y-3116666D02*
X18866666Y-3116666D01*
X18800000Y-3150000D01*
X18766666Y-3183333D01*
X18700000Y-3283333D01*
X18666666Y-3416666D01*
X18666666Y-3683333D01*
X18700000Y-3750000D01*
X18733333Y-3783333D01*
X18800000Y-3816666D01*
X18933333Y-3816666D01*
X19000000Y-3783333D01*
X19033333Y-3750000D01*
X19066666Y-3683333D01*
X19066666Y-3516666D01*
X19033333Y-3450000D01*
X19000000Y-3416666D01*
X18933333Y-3383333D01*
X18800000Y-3383333D01*
X18733333Y-3416666D01*
X18700000Y-3450000D01*
X18666666Y-3516666D01*
G04 #@! TO.C,D4*
X47316666Y-45766666D02*
X46616666Y-45766666D01*
X46616666Y-45600000D01*
X46650000Y-45500000D01*
X46716666Y-45433333D01*
X46783333Y-45400000D01*
X46916666Y-45366666D01*
X47016666Y-45366666D01*
X47150000Y-45400000D01*
X47216666Y-45433333D01*
X47283333Y-45500000D01*
X47316666Y-45600000D01*
X47316666Y-45766666D01*
X46850000Y-44766666D02*
X47316666Y-44766666D01*
X46583333Y-44933333D02*
X47083333Y-45100000D01*
X47083333Y-44666666D01*
G04 #@! TO.C,D3*
X16941666Y-61816666D02*
X16241666Y-61816666D01*
X16241666Y-61650000D01*
X16275000Y-61550000D01*
X16341666Y-61483333D01*
X16408333Y-61450000D01*
X16541666Y-61416666D01*
X16641666Y-61416666D01*
X16775000Y-61450000D01*
X16841666Y-61483333D01*
X16908333Y-61550000D01*
X16941666Y-61650000D01*
X16941666Y-61816666D01*
X16241666Y-61183333D02*
X16241666Y-60750000D01*
X16508333Y-60983333D01*
X16508333Y-60883333D01*
X16541666Y-60816666D01*
X16575000Y-60783333D01*
X16641666Y-60750000D01*
X16808333Y-60750000D01*
X16875000Y-60783333D01*
X16908333Y-60816666D01*
X16941666Y-60883333D01*
X16941666Y-61083333D01*
X16908333Y-61150000D01*
X16875000Y-61183333D01*
G04 #@! TO.C,D1*
X47316666Y-32516666D02*
X46616666Y-32516666D01*
X46616666Y-32350000D01*
X46650000Y-32250000D01*
X46716666Y-32183333D01*
X46783333Y-32150000D01*
X46916666Y-32116666D01*
X47016666Y-32116666D01*
X47150000Y-32150000D01*
X47216666Y-32183333D01*
X47283333Y-32250000D01*
X47316666Y-32350000D01*
X47316666Y-32516666D01*
X47316666Y-31450000D02*
X47316666Y-31850000D01*
X47316666Y-31650000D02*
X46616666Y-31650000D01*
X46716666Y-31716666D01*
X46783333Y-31783333D01*
X46816666Y-31850000D01*
G04 #@! TO.C,J3*
X32766666Y-61616666D02*
X32766666Y-62116666D01*
X32733333Y-62216666D01*
X32666666Y-62283333D01*
X32566666Y-62316666D01*
X32500000Y-62316666D01*
X33033333Y-61616666D02*
X33466666Y-61616666D01*
X33233333Y-61883333D01*
X33333333Y-61883333D01*
X33400000Y-61916666D01*
X33433333Y-61950000D01*
X33466666Y-62016666D01*
X33466666Y-62183333D01*
X33433333Y-62250000D01*
X33400000Y-62283333D01*
X33333333Y-62316666D01*
X33133333Y-62316666D01*
X33066666Y-62283333D01*
X33033333Y-62250000D01*
G04 #@! TO.C,C4*
X30383333Y-6750000D02*
X30350000Y-6783333D01*
X30250000Y-6816666D01*
X30183333Y-6816666D01*
X30083333Y-6783333D01*
X30016666Y-6716666D01*
X29983333Y-6650000D01*
X29950000Y-6516666D01*
X29950000Y-6416666D01*
X29983333Y-6283333D01*
X30016666Y-6216666D01*
X30083333Y-6150000D01*
X30183333Y-6116666D01*
X30250000Y-6116666D01*
X30350000Y-6150000D01*
X30383333Y-6183333D01*
X30983333Y-6350000D02*
X30983333Y-6816666D01*
X30816666Y-6083333D02*
X30650000Y-6583333D01*
X31083333Y-6583333D01*
G04 #@! TO.C,U1*
X34216666Y-4616666D02*
X34216666Y-5183333D01*
X34250000Y-5250000D01*
X34283333Y-5283333D01*
X34350000Y-5316666D01*
X34483333Y-5316666D01*
X34550000Y-5283333D01*
X34583333Y-5250000D01*
X34616666Y-5183333D01*
X34616666Y-4616666D01*
X35316666Y-5316666D02*
X34916666Y-5316666D01*
X35116666Y-5316666D02*
X35116666Y-4616666D01*
X35050000Y-4716666D01*
X34983333Y-4783333D01*
X34916666Y-4816666D01*
G04 #@! TO.C,TP10*
X23116666Y-21216666D02*
X23116666Y-20816666D01*
X23816666Y-21016666D02*
X23116666Y-21016666D01*
X23816666Y-20583333D02*
X23116666Y-20583333D01*
X23116666Y-20316666D01*
X23150000Y-20250000D01*
X23183333Y-20216666D01*
X23250000Y-20183333D01*
X23350000Y-20183333D01*
X23416666Y-20216666D01*
X23450000Y-20250000D01*
X23483333Y-20316666D01*
X23483333Y-20583333D01*
X23816666Y-19516666D02*
X23816666Y-19916666D01*
X23816666Y-19716666D02*
X23116666Y-19716666D01*
X23216666Y-19783333D01*
X23283333Y-19850000D01*
X23316666Y-19916666D01*
X23116666Y-19083333D02*
X23116666Y-19016666D01*
X23150000Y-18950000D01*
X23183333Y-18916666D01*
X23250000Y-18883333D01*
X23383333Y-18850000D01*
X23550000Y-18850000D01*
X23683333Y-18883333D01*
X23750000Y-18916666D01*
X23783333Y-18950000D01*
X23816666Y-19016666D01*
X23816666Y-19083333D01*
X23783333Y-19150000D01*
X23750000Y-19183333D01*
X23683333Y-19216666D01*
X23550000Y-19250000D01*
X23383333Y-19250000D01*
X23250000Y-19216666D01*
X23183333Y-19183333D01*
X23150000Y-19150000D01*
X23116666Y-19083333D01*
G04 #@! TO.C,TP8*
X27616666Y-20883333D02*
X27616666Y-20483333D01*
X28316666Y-20683333D02*
X27616666Y-20683333D01*
X28316666Y-20250000D02*
X27616666Y-20250000D01*
X27616666Y-19983333D01*
X27650000Y-19916666D01*
X27683333Y-19883333D01*
X27750000Y-19850000D01*
X27850000Y-19850000D01*
X27916666Y-19883333D01*
X27950000Y-19916666D01*
X27983333Y-19983333D01*
X27983333Y-20250000D01*
X27916666Y-19450000D02*
X27883333Y-19516666D01*
X27850000Y-19550000D01*
X27783333Y-19583333D01*
X27750000Y-19583333D01*
X27683333Y-19550000D01*
X27650000Y-19516666D01*
X27616666Y-19450000D01*
X27616666Y-19316666D01*
X27650000Y-19250000D01*
X27683333Y-19216666D01*
X27750000Y-19183333D01*
X27783333Y-19183333D01*
X27850000Y-19216666D01*
X27883333Y-19250000D01*
X27916666Y-19316666D01*
X27916666Y-19450000D01*
X27950000Y-19516666D01*
X27983333Y-19550000D01*
X28050000Y-19583333D01*
X28183333Y-19583333D01*
X28250000Y-19550000D01*
X28283333Y-19516666D01*
X28316666Y-19450000D01*
X28316666Y-19316666D01*
X28283333Y-19250000D01*
X28250000Y-19216666D01*
X28183333Y-19183333D01*
X28050000Y-19183333D01*
X27983333Y-19216666D01*
X27950000Y-19250000D01*
X27916666Y-19316666D01*
G04 #@! TO.C,TP7*
X29116666Y-20883333D02*
X29116666Y-20483333D01*
X29816666Y-20683333D02*
X29116666Y-20683333D01*
X29816666Y-20250000D02*
X29116666Y-20250000D01*
X29116666Y-19983333D01*
X29150000Y-19916666D01*
X29183333Y-19883333D01*
X29250000Y-19850000D01*
X29350000Y-19850000D01*
X29416666Y-19883333D01*
X29450000Y-19916666D01*
X29483333Y-19983333D01*
X29483333Y-20250000D01*
X29116666Y-19616666D02*
X29116666Y-19150000D01*
X29816666Y-19450000D01*
G04 #@! TO.C,TP6*
X21616666Y-20883333D02*
X21616666Y-20483333D01*
X22316666Y-20683333D02*
X21616666Y-20683333D01*
X22316666Y-20250000D02*
X21616666Y-20250000D01*
X21616666Y-19983333D01*
X21650000Y-19916666D01*
X21683333Y-19883333D01*
X21750000Y-19850000D01*
X21850000Y-19850000D01*
X21916666Y-19883333D01*
X21950000Y-19916666D01*
X21983333Y-19983333D01*
X21983333Y-20250000D01*
X21616666Y-19250000D02*
X21616666Y-19383333D01*
X21650000Y-19450000D01*
X21683333Y-19483333D01*
X21783333Y-19550000D01*
X21916666Y-19583333D01*
X22183333Y-19583333D01*
X22250000Y-19550000D01*
X22283333Y-19516666D01*
X22316666Y-19450000D01*
X22316666Y-19316666D01*
X22283333Y-19250000D01*
X22250000Y-19216666D01*
X22183333Y-19183333D01*
X22016666Y-19183333D01*
X21950000Y-19216666D01*
X21916666Y-19250000D01*
X21883333Y-19316666D01*
X21883333Y-19450000D01*
X21916666Y-19516666D01*
X21950000Y-19550000D01*
X22016666Y-19583333D01*
G04 #@! TO.C,TP4*
X9366666Y-38366666D02*
X9766666Y-38366666D01*
X9566666Y-39066666D02*
X9566666Y-38366666D01*
X10000000Y-39066666D02*
X10000000Y-38366666D01*
X10266666Y-38366666D01*
X10333333Y-38400000D01*
X10366666Y-38433333D01*
X10400000Y-38500000D01*
X10400000Y-38600000D01*
X10366666Y-38666666D01*
X10333333Y-38700000D01*
X10266666Y-38733333D01*
X10000000Y-38733333D01*
X11000000Y-38600000D02*
X11000000Y-39066666D01*
X10833333Y-38333333D02*
X10666666Y-38833333D01*
X11100000Y-38833333D01*
G04 #@! TO.C,TP3*
X9366666Y-36866666D02*
X9766666Y-36866666D01*
X9566666Y-37566666D02*
X9566666Y-36866666D01*
X10000000Y-37566666D02*
X10000000Y-36866666D01*
X10266666Y-36866666D01*
X10333333Y-36900000D01*
X10366666Y-36933333D01*
X10400000Y-37000000D01*
X10400000Y-37100000D01*
X10366666Y-37166666D01*
X10333333Y-37200000D01*
X10266666Y-37233333D01*
X10000000Y-37233333D01*
X10633333Y-36866666D02*
X11066666Y-36866666D01*
X10833333Y-37133333D01*
X10933333Y-37133333D01*
X11000000Y-37166666D01*
X11033333Y-37200000D01*
X11066666Y-37266666D01*
X11066666Y-37433333D01*
X11033333Y-37500000D01*
X11000000Y-37533333D01*
X10933333Y-37566666D01*
X10733333Y-37566666D01*
X10666666Y-37533333D01*
X10633333Y-37500000D01*
G04 #@! TO.C,TP2*
X9366666Y-35366666D02*
X9766666Y-35366666D01*
X9566666Y-36066666D02*
X9566666Y-35366666D01*
X10000000Y-36066666D02*
X10000000Y-35366666D01*
X10266666Y-35366666D01*
X10333333Y-35400000D01*
X10366666Y-35433333D01*
X10400000Y-35500000D01*
X10400000Y-35600000D01*
X10366666Y-35666666D01*
X10333333Y-35700000D01*
X10266666Y-35733333D01*
X10000000Y-35733333D01*
X10666666Y-35433333D02*
X10700000Y-35400000D01*
X10766666Y-35366666D01*
X10933333Y-35366666D01*
X11000000Y-35400000D01*
X11033333Y-35433333D01*
X11066666Y-35500000D01*
X11066666Y-35566666D01*
X11033333Y-35666666D01*
X10633333Y-36066666D01*
X11066666Y-36066666D01*
G04 #@! TO.C,TP1*
X9366666Y-33866666D02*
X9766666Y-33866666D01*
X9566666Y-34566666D02*
X9566666Y-33866666D01*
X10000000Y-34566666D02*
X10000000Y-33866666D01*
X10266666Y-33866666D01*
X10333333Y-33900000D01*
X10366666Y-33933333D01*
X10400000Y-34000000D01*
X10400000Y-34100000D01*
X10366666Y-34166666D01*
X10333333Y-34200000D01*
X10266666Y-34233333D01*
X10000000Y-34233333D01*
X11066666Y-34566666D02*
X10666666Y-34566666D01*
X10866666Y-34566666D02*
X10866666Y-33866666D01*
X10800000Y-33966666D01*
X10733333Y-34033333D01*
X10666666Y-34066666D01*
G04 #@! TO.C,TP5*
X30616666Y-20883333D02*
X30616666Y-20483333D01*
X31316666Y-20683333D02*
X30616666Y-20683333D01*
X31316666Y-20250000D02*
X30616666Y-20250000D01*
X30616666Y-19983333D01*
X30650000Y-19916666D01*
X30683333Y-19883333D01*
X30750000Y-19850000D01*
X30850000Y-19850000D01*
X30916666Y-19883333D01*
X30950000Y-19916666D01*
X30983333Y-19983333D01*
X30983333Y-20250000D01*
X30616666Y-19216666D02*
X30616666Y-19550000D01*
X30950000Y-19583333D01*
X30916666Y-19550000D01*
X30883333Y-19483333D01*
X30883333Y-19316666D01*
X30916666Y-19250000D01*
X30950000Y-19216666D01*
X31016666Y-19183333D01*
X31183333Y-19183333D01*
X31250000Y-19216666D01*
X31283333Y-19250000D01*
X31316666Y-19316666D01*
X31316666Y-19483333D01*
X31283333Y-19550000D01*
X31250000Y-19583333D01*
G04 #@! TO.C,TP9*
X24667466Y-20883333D02*
X24667466Y-20483333D01*
X25367466Y-20683333D02*
X24667466Y-20683333D01*
X25367466Y-20250000D02*
X24667466Y-20250000D01*
X24667466Y-19983333D01*
X24700800Y-19916666D01*
X24734133Y-19883333D01*
X24800800Y-19850000D01*
X24900800Y-19850000D01*
X24967466Y-19883333D01*
X25000800Y-19916666D01*
X25034133Y-19983333D01*
X25034133Y-20250000D01*
X25367466Y-19516666D02*
X25367466Y-19383333D01*
X25334133Y-19316666D01*
X25300800Y-19283333D01*
X25200800Y-19216666D01*
X25067466Y-19183333D01*
X24800800Y-19183333D01*
X24734133Y-19216666D01*
X24700800Y-19250000D01*
X24667466Y-19316666D01*
X24667466Y-19450000D01*
X24700800Y-19516666D01*
X24734133Y-19550000D01*
X24800800Y-19583333D01*
X24967466Y-19583333D01*
X25034133Y-19550000D01*
X25067466Y-19516666D01*
X25100800Y-19450000D01*
X25100800Y-19316666D01*
X25067466Y-19250000D01*
X25034133Y-19216666D01*
X24967466Y-19183333D01*
G04 #@! TO.C,TP11*
X26116666Y-21216666D02*
X26116666Y-20816666D01*
X26816666Y-21016666D02*
X26116666Y-21016666D01*
X26816666Y-20583333D02*
X26116666Y-20583333D01*
X26116666Y-20316666D01*
X26150000Y-20250000D01*
X26183333Y-20216666D01*
X26250000Y-20183333D01*
X26350000Y-20183333D01*
X26416666Y-20216666D01*
X26450000Y-20250000D01*
X26483333Y-20316666D01*
X26483333Y-20583333D01*
X26816666Y-19516666D02*
X26816666Y-19916666D01*
X26816666Y-19716666D02*
X26116666Y-19716666D01*
X26216666Y-19783333D01*
X26283333Y-19850000D01*
X26316666Y-19916666D01*
X26816666Y-18850000D02*
X26816666Y-19250000D01*
X26816666Y-19050000D02*
X26116666Y-19050000D01*
X26216666Y-19116666D01*
X26283333Y-19183333D01*
X26316666Y-19250000D01*
G04 #@! TO.C,TP13*
X16616666Y-21216666D02*
X16616666Y-20816666D01*
X17316666Y-21016666D02*
X16616666Y-21016666D01*
X17316666Y-20583333D02*
X16616666Y-20583333D01*
X16616666Y-20316666D01*
X16650000Y-20250000D01*
X16683333Y-20216666D01*
X16750000Y-20183333D01*
X16850000Y-20183333D01*
X16916666Y-20216666D01*
X16950000Y-20250000D01*
X16983333Y-20316666D01*
X16983333Y-20583333D01*
X17316666Y-19516666D02*
X17316666Y-19916666D01*
X17316666Y-19716666D02*
X16616666Y-19716666D01*
X16716666Y-19783333D01*
X16783333Y-19850000D01*
X16816666Y-19916666D01*
X16616666Y-19283333D02*
X16616666Y-18850000D01*
X16883333Y-19083333D01*
X16883333Y-18983333D01*
X16916666Y-18916666D01*
X16950000Y-18883333D01*
X17016666Y-18850000D01*
X17183333Y-18850000D01*
X17250000Y-18883333D01*
X17283333Y-18916666D01*
X17316666Y-18983333D01*
X17316666Y-19183333D01*
X17283333Y-19250000D01*
X17250000Y-19283333D01*
G04 #@! TO.C,TP15*
X19565866Y-21216666D02*
X19565866Y-20816666D01*
X20265866Y-21016666D02*
X19565866Y-21016666D01*
X20265866Y-20583333D02*
X19565866Y-20583333D01*
X19565866Y-20316666D01*
X19599200Y-20250000D01*
X19632533Y-20216666D01*
X19699200Y-20183333D01*
X19799200Y-20183333D01*
X19865866Y-20216666D01*
X19899200Y-20250000D01*
X19932533Y-20316666D01*
X19932533Y-20583333D01*
X20265866Y-19516666D02*
X20265866Y-19916666D01*
X20265866Y-19716666D02*
X19565866Y-19716666D01*
X19665866Y-19783333D01*
X19732533Y-19850000D01*
X19765866Y-19916666D01*
X19565866Y-18883333D02*
X19565866Y-19216666D01*
X19899200Y-19250000D01*
X19865866Y-19216666D01*
X19832533Y-19150000D01*
X19832533Y-18983333D01*
X19865866Y-18916666D01*
X19899200Y-18883333D01*
X19965866Y-18850000D01*
X20132533Y-18850000D01*
X20199200Y-18883333D01*
X20232533Y-18916666D01*
X20265866Y-18983333D01*
X20265866Y-19150000D01*
X20232533Y-19216666D01*
X20199200Y-19250000D01*
G04 #@! TO.C,TP16*
X8983333Y-27841666D02*
X9383333Y-27841666D01*
X9183333Y-28541666D02*
X9183333Y-27841666D01*
X9616666Y-28541666D02*
X9616666Y-27841666D01*
X9883333Y-27841666D01*
X9950000Y-27875000D01*
X9983333Y-27908333D01*
X10016666Y-27975000D01*
X10016666Y-28075000D01*
X9983333Y-28141666D01*
X9950000Y-28175000D01*
X9883333Y-28208333D01*
X9616666Y-28208333D01*
X10683333Y-28541666D02*
X10283333Y-28541666D01*
X10483333Y-28541666D02*
X10483333Y-27841666D01*
X10416666Y-27941666D01*
X10350000Y-28008333D01*
X10283333Y-28041666D01*
X11283333Y-27841666D02*
X11150000Y-27841666D01*
X11083333Y-27875000D01*
X11050000Y-27908333D01*
X10983333Y-28008333D01*
X10949999Y-28141666D01*
X10949999Y-28408333D01*
X10983333Y-28475000D01*
X11016666Y-28508333D01*
X11083333Y-28541666D01*
X11216666Y-28541666D01*
X11283333Y-28508333D01*
X11316666Y-28475000D01*
X11350000Y-28408333D01*
X11350000Y-28241666D01*
X11316666Y-28175000D01*
X11283333Y-28141666D01*
X11216666Y-28108333D01*
X11083333Y-28108333D01*
X11016666Y-28141666D01*
X10983333Y-28175000D01*
X10949999Y-28241666D01*
G04 #@! TO.C,TP17*
X8983333Y-29341666D02*
X9383333Y-29341666D01*
X9183333Y-30041666D02*
X9183333Y-29341666D01*
X9616666Y-30041666D02*
X9616666Y-29341666D01*
X9883333Y-29341666D01*
X9950000Y-29375000D01*
X9983333Y-29408333D01*
X10016666Y-29475000D01*
X10016666Y-29575000D01*
X9983333Y-29641666D01*
X9950000Y-29675000D01*
X9883333Y-29708333D01*
X9616666Y-29708333D01*
X10683333Y-30041666D02*
X10283333Y-30041666D01*
X10483333Y-30041666D02*
X10483333Y-29341666D01*
X10416666Y-29441666D01*
X10350000Y-29508333D01*
X10283333Y-29541666D01*
X10916666Y-29341666D02*
X11383333Y-29341666D01*
X11083333Y-30041666D01*
G04 #@! TO.C,TP18*
X8983333Y-30841666D02*
X9383333Y-30841666D01*
X9183333Y-31541666D02*
X9183333Y-30841666D01*
X9616666Y-31541666D02*
X9616666Y-30841666D01*
X9883333Y-30841666D01*
X9950000Y-30875000D01*
X9983333Y-30908333D01*
X10016666Y-30975000D01*
X10016666Y-31075000D01*
X9983333Y-31141666D01*
X9950000Y-31175000D01*
X9883333Y-31208333D01*
X9616666Y-31208333D01*
X10683333Y-31541666D02*
X10283333Y-31541666D01*
X10483333Y-31541666D02*
X10483333Y-30841666D01*
X10416666Y-30941666D01*
X10350000Y-31008333D01*
X10283333Y-31041666D01*
X11083333Y-31141666D02*
X11016666Y-31108333D01*
X10983333Y-31075000D01*
X10949999Y-31008333D01*
X10949999Y-30975000D01*
X10983333Y-30908333D01*
X11016666Y-30875000D01*
X11083333Y-30841666D01*
X11216666Y-30841666D01*
X11283333Y-30875000D01*
X11316666Y-30908333D01*
X11350000Y-30975000D01*
X11350000Y-31008333D01*
X11316666Y-31075000D01*
X11283333Y-31108333D01*
X11216666Y-31141666D01*
X11083333Y-31141666D01*
X11016666Y-31175000D01*
X10983333Y-31208333D01*
X10949999Y-31275000D01*
X10949999Y-31408333D01*
X10983333Y-31475000D01*
X11016666Y-31508333D01*
X11083333Y-31541666D01*
X11216666Y-31541666D01*
X11283333Y-31508333D01*
X11316666Y-31475000D01*
X11350000Y-31408333D01*
X11350000Y-31275000D01*
X11316666Y-31208333D01*
X11283333Y-31175000D01*
X11216666Y-31141666D01*
G04 #@! TO.C,TP12*
X18116666Y-21216666D02*
X18116666Y-20816666D01*
X18816666Y-21016666D02*
X18116666Y-21016666D01*
X18816666Y-20583333D02*
X18116666Y-20583333D01*
X18116666Y-20316666D01*
X18150000Y-20250000D01*
X18183333Y-20216666D01*
X18250000Y-20183333D01*
X18350000Y-20183333D01*
X18416666Y-20216666D01*
X18450000Y-20250000D01*
X18483333Y-20316666D01*
X18483333Y-20583333D01*
X18816666Y-19516666D02*
X18816666Y-19916666D01*
X18816666Y-19716666D02*
X18116666Y-19716666D01*
X18216666Y-19783333D01*
X18283333Y-19850000D01*
X18316666Y-19916666D01*
X18183333Y-19250000D02*
X18150000Y-19216666D01*
X18116666Y-19150000D01*
X18116666Y-18983333D01*
X18150000Y-18916666D01*
X18183333Y-18883333D01*
X18250000Y-18850000D01*
X18316666Y-18850000D01*
X18416666Y-18883333D01*
X18816666Y-19283333D01*
X18816666Y-18850000D01*
G04 #@! TO.C,TP19*
X8983333Y-32290866D02*
X9383333Y-32290866D01*
X9183333Y-32990866D02*
X9183333Y-32290866D01*
X9616666Y-32990866D02*
X9616666Y-32290866D01*
X9883333Y-32290866D01*
X9950000Y-32324200D01*
X9983333Y-32357533D01*
X10016666Y-32424200D01*
X10016666Y-32524200D01*
X9983333Y-32590866D01*
X9950000Y-32624200D01*
X9883333Y-32657533D01*
X9616666Y-32657533D01*
X10683333Y-32990866D02*
X10283333Y-32990866D01*
X10483333Y-32990866D02*
X10483333Y-32290866D01*
X10416666Y-32390866D01*
X10350000Y-32457533D01*
X10283333Y-32490866D01*
X11016666Y-32990866D02*
X11150000Y-32990866D01*
X11216666Y-32957533D01*
X11250000Y-32924200D01*
X11316666Y-32824200D01*
X11350000Y-32690866D01*
X11350000Y-32424200D01*
X11316666Y-32357533D01*
X11283333Y-32324200D01*
X11216666Y-32290866D01*
X11083333Y-32290866D01*
X11016666Y-32324200D01*
X10983333Y-32357533D01*
X10949999Y-32424200D01*
X10949999Y-32590866D01*
X10983333Y-32657533D01*
X11016666Y-32690866D01*
X11083333Y-32724200D01*
X11216666Y-32724200D01*
X11283333Y-32690866D01*
X11316666Y-32657533D01*
X11350000Y-32590866D01*
G04 #@! TO.C,TP14*
X15065866Y-21216666D02*
X15065866Y-20816666D01*
X15765866Y-21016666D02*
X15065866Y-21016666D01*
X15765866Y-20583333D02*
X15065866Y-20583333D01*
X15065866Y-20316666D01*
X15099200Y-20250000D01*
X15132533Y-20216666D01*
X15199200Y-20183333D01*
X15299200Y-20183333D01*
X15365866Y-20216666D01*
X15399200Y-20250000D01*
X15432533Y-20316666D01*
X15432533Y-20583333D01*
X15765866Y-19516666D02*
X15765866Y-19916666D01*
X15765866Y-19716666D02*
X15065866Y-19716666D01*
X15165866Y-19783333D01*
X15232533Y-19850000D01*
X15265866Y-19916666D01*
X15299200Y-18916666D02*
X15765866Y-18916666D01*
X15032533Y-19083333D02*
X15532533Y-19250000D01*
X15532533Y-18816666D01*
G04 #@! TO.C,C11*
X41800000Y-31620000D02*
X41833333Y-31653333D01*
X41866666Y-31753333D01*
X41866666Y-31820000D01*
X41833333Y-31920000D01*
X41766666Y-31986666D01*
X41700000Y-32020000D01*
X41566666Y-32053333D01*
X41466666Y-32053333D01*
X41333333Y-32020000D01*
X41266666Y-31986666D01*
X41200000Y-31920000D01*
X41166666Y-31820000D01*
X41166666Y-31753333D01*
X41200000Y-31653333D01*
X41233333Y-31620000D01*
X41866666Y-30953333D02*
X41866666Y-31353333D01*
X41866666Y-31153333D02*
X41166666Y-31153333D01*
X41266666Y-31220000D01*
X41333333Y-31286666D01*
X41366666Y-31353333D01*
X41866666Y-30286666D02*
X41866666Y-30686666D01*
X41866666Y-30486666D02*
X41166666Y-30486666D01*
X41266666Y-30553333D01*
X41333333Y-30620000D01*
X41366666Y-30686666D01*
G04 #@! TO.C,C13*
X40500000Y-21700000D02*
X40533333Y-21733333D01*
X40566666Y-21833333D01*
X40566666Y-21900000D01*
X40533333Y-22000000D01*
X40466666Y-22066666D01*
X40400000Y-22100000D01*
X40266666Y-22133333D01*
X40166666Y-22133333D01*
X40033333Y-22100000D01*
X39966666Y-22066666D01*
X39900000Y-22000000D01*
X39866666Y-21900000D01*
X39866666Y-21833333D01*
X39900000Y-21733333D01*
X39933333Y-21700000D01*
X40566666Y-21033333D02*
X40566666Y-21433333D01*
X40566666Y-21233333D02*
X39866666Y-21233333D01*
X39966666Y-21300000D01*
X40033333Y-21366666D01*
X40066666Y-21433333D01*
X39866666Y-20800000D02*
X39866666Y-20366666D01*
X40133333Y-20600000D01*
X40133333Y-20500000D01*
X40166666Y-20433333D01*
X40200000Y-20400000D01*
X40266666Y-20366666D01*
X40433333Y-20366666D01*
X40500000Y-20400000D01*
X40533333Y-20433333D01*
X40566666Y-20500000D01*
X40566666Y-20700000D01*
X40533333Y-20766666D01*
X40500000Y-20800000D01*
G04 #@! TO.C,C14*
X41750000Y-26200000D02*
X41783333Y-26233333D01*
X41816666Y-26333333D01*
X41816666Y-26400000D01*
X41783333Y-26500000D01*
X41716666Y-26566666D01*
X41650000Y-26600000D01*
X41516666Y-26633333D01*
X41416666Y-26633333D01*
X41283333Y-26600000D01*
X41216666Y-26566666D01*
X41150000Y-26500000D01*
X41116666Y-26400000D01*
X41116666Y-26333333D01*
X41150000Y-26233333D01*
X41183333Y-26200000D01*
X41816666Y-25533333D02*
X41816666Y-25933333D01*
X41816666Y-25733333D02*
X41116666Y-25733333D01*
X41216666Y-25800000D01*
X41283333Y-25866666D01*
X41316666Y-25933333D01*
X41350000Y-24933333D02*
X41816666Y-24933333D01*
X41083333Y-25100000D02*
X41583333Y-25266666D01*
X41583333Y-24833333D01*
G04 #@! TO.C,C15*
X31250000Y-11700000D02*
X31283333Y-11733333D01*
X31316666Y-11833333D01*
X31316666Y-11900000D01*
X31283333Y-12000000D01*
X31216666Y-12066666D01*
X31150000Y-12100000D01*
X31016666Y-12133333D01*
X30916666Y-12133333D01*
X30783333Y-12100000D01*
X30716666Y-12066666D01*
X30650000Y-12000000D01*
X30616666Y-11900000D01*
X30616666Y-11833333D01*
X30650000Y-11733333D01*
X30683333Y-11700000D01*
X31316666Y-11033333D02*
X31316666Y-11433333D01*
X31316666Y-11233333D02*
X30616666Y-11233333D01*
X30716666Y-11300000D01*
X30783333Y-11366666D01*
X30816666Y-11433333D01*
X30616666Y-10400000D02*
X30616666Y-10733333D01*
X30950000Y-10766666D01*
X30916666Y-10733333D01*
X30883333Y-10666666D01*
X30883333Y-10500000D01*
X30916666Y-10433333D01*
X30950000Y-10400000D01*
X31016666Y-10366666D01*
X31183333Y-10366666D01*
X31250000Y-10400000D01*
X31283333Y-10433333D01*
X31316666Y-10500000D01*
X31316666Y-10666666D01*
X31283333Y-10733333D01*
X31250000Y-10766666D01*
G04 #@! TO.C,C16*
X14000000Y-14200000D02*
X14033333Y-14233333D01*
X14066666Y-14333333D01*
X14066666Y-14400000D01*
X14033333Y-14500000D01*
X13966666Y-14566666D01*
X13900000Y-14600000D01*
X13766666Y-14633333D01*
X13666666Y-14633333D01*
X13533333Y-14600000D01*
X13466666Y-14566666D01*
X13400000Y-14500000D01*
X13366666Y-14400000D01*
X13366666Y-14333333D01*
X13400000Y-14233333D01*
X13433333Y-14200000D01*
X14066666Y-13533333D02*
X14066666Y-13933333D01*
X14066666Y-13733333D02*
X13366666Y-13733333D01*
X13466666Y-13800000D01*
X13533333Y-13866666D01*
X13566666Y-13933333D01*
X13366666Y-12933333D02*
X13366666Y-13066666D01*
X13400000Y-13133333D01*
X13433333Y-13166666D01*
X13533333Y-13233333D01*
X13666666Y-13266666D01*
X13933333Y-13266666D01*
X14000000Y-13233333D01*
X14033333Y-13200000D01*
X14066666Y-13133333D01*
X14066666Y-13000000D01*
X14033333Y-12933333D01*
X14000000Y-12900000D01*
X13933333Y-12866666D01*
X13766666Y-12866666D01*
X13700000Y-12900000D01*
X13666666Y-12933333D01*
X13633333Y-13000000D01*
X13633333Y-13133333D01*
X13666666Y-13200000D01*
X13700000Y-13233333D01*
X13766666Y-13266666D01*
G04 #@! TO.C,C26*
X14750000Y-10450000D02*
X14783333Y-10483333D01*
X14816666Y-10583333D01*
X14816666Y-10650000D01*
X14783333Y-10750000D01*
X14716666Y-10816666D01*
X14650000Y-10850000D01*
X14516666Y-10883333D01*
X14416666Y-10883333D01*
X14283333Y-10850000D01*
X14216666Y-10816666D01*
X14150000Y-10750000D01*
X14116666Y-10650000D01*
X14116666Y-10583333D01*
X14150000Y-10483333D01*
X14183333Y-10450000D01*
X14183333Y-10183333D02*
X14150000Y-10150000D01*
X14116666Y-10083333D01*
X14116666Y-9916666D01*
X14150000Y-9850000D01*
X14183333Y-9816666D01*
X14250000Y-9783333D01*
X14316666Y-9783333D01*
X14416666Y-9816666D01*
X14816666Y-10216666D01*
X14816666Y-9783333D01*
X14116666Y-9183333D02*
X14116666Y-9316666D01*
X14150000Y-9383333D01*
X14183333Y-9416666D01*
X14283333Y-9483333D01*
X14416666Y-9516666D01*
X14683333Y-9516666D01*
X14750000Y-9483333D01*
X14783333Y-9450000D01*
X14816666Y-9383333D01*
X14816666Y-9250000D01*
X14783333Y-9183333D01*
X14750000Y-9150000D01*
X14683333Y-9116666D01*
X14516666Y-9116666D01*
X14450000Y-9150000D01*
X14416666Y-9183333D01*
X14383333Y-9250000D01*
X14383333Y-9383333D01*
X14416666Y-9450000D01*
X14450000Y-9483333D01*
X14516666Y-9516666D01*
G04 #@! TO.C,C25*
X14750000Y-8450000D02*
X14783333Y-8483333D01*
X14816666Y-8583333D01*
X14816666Y-8650000D01*
X14783333Y-8750000D01*
X14716666Y-8816666D01*
X14650000Y-8850000D01*
X14516666Y-8883333D01*
X14416666Y-8883333D01*
X14283333Y-8850000D01*
X14216666Y-8816666D01*
X14150000Y-8750000D01*
X14116666Y-8650000D01*
X14116666Y-8583333D01*
X14150000Y-8483333D01*
X14183333Y-8450000D01*
X14183333Y-8183333D02*
X14150000Y-8150000D01*
X14116666Y-8083333D01*
X14116666Y-7916666D01*
X14150000Y-7850000D01*
X14183333Y-7816666D01*
X14250000Y-7783333D01*
X14316666Y-7783333D01*
X14416666Y-7816666D01*
X14816666Y-8216666D01*
X14816666Y-7783333D01*
X14116666Y-7150000D02*
X14116666Y-7483333D01*
X14450000Y-7516666D01*
X14416666Y-7483333D01*
X14383333Y-7416666D01*
X14383333Y-7250000D01*
X14416666Y-7183333D01*
X14450000Y-7150000D01*
X14516666Y-7116666D01*
X14683333Y-7116666D01*
X14750000Y-7150000D01*
X14783333Y-7183333D01*
X14816666Y-7250000D01*
X14816666Y-7416666D01*
X14783333Y-7483333D01*
X14750000Y-7516666D01*
G04 #@! TO.C,C22*
X15750000Y-10450000D02*
X15783333Y-10483333D01*
X15816666Y-10583333D01*
X15816666Y-10650000D01*
X15783333Y-10750000D01*
X15716666Y-10816666D01*
X15650000Y-10850000D01*
X15516666Y-10883333D01*
X15416666Y-10883333D01*
X15283333Y-10850000D01*
X15216666Y-10816666D01*
X15150000Y-10750000D01*
X15116666Y-10650000D01*
X15116666Y-10583333D01*
X15150000Y-10483333D01*
X15183333Y-10450000D01*
X15183333Y-10183333D02*
X15150000Y-10150000D01*
X15116666Y-10083333D01*
X15116666Y-9916666D01*
X15150000Y-9850000D01*
X15183333Y-9816666D01*
X15250000Y-9783333D01*
X15316666Y-9783333D01*
X15416666Y-9816666D01*
X15816666Y-10216666D01*
X15816666Y-9783333D01*
X15183333Y-9516666D02*
X15150000Y-9483333D01*
X15116666Y-9416666D01*
X15116666Y-9250000D01*
X15150000Y-9183333D01*
X15183333Y-9150000D01*
X15250000Y-9116666D01*
X15316666Y-9116666D01*
X15416666Y-9150000D01*
X15816666Y-9550000D01*
X15816666Y-9116666D01*
G04 #@! TO.C,R28*
X45840000Y-41316666D02*
X45606666Y-40983333D01*
X45440000Y-41316666D02*
X45440000Y-40616666D01*
X45706666Y-40616666D01*
X45773333Y-40650000D01*
X45806666Y-40683333D01*
X45840000Y-40750000D01*
X45840000Y-40850000D01*
X45806666Y-40916666D01*
X45773333Y-40950000D01*
X45706666Y-40983333D01*
X45440000Y-40983333D01*
X46106666Y-40683333D02*
X46140000Y-40650000D01*
X46206666Y-40616666D01*
X46373333Y-40616666D01*
X46440000Y-40650000D01*
X46473333Y-40683333D01*
X46506666Y-40750000D01*
X46506666Y-40816666D01*
X46473333Y-40916666D01*
X46073333Y-41316666D01*
X46506666Y-41316666D01*
X46906666Y-40916666D02*
X46840000Y-40883333D01*
X46806666Y-40850000D01*
X46773333Y-40783333D01*
X46773333Y-40750000D01*
X46806666Y-40683333D01*
X46840000Y-40650000D01*
X46906666Y-40616666D01*
X47040000Y-40616666D01*
X47106666Y-40650000D01*
X47140000Y-40683333D01*
X47173333Y-40750000D01*
X47173333Y-40783333D01*
X47140000Y-40850000D01*
X47106666Y-40883333D01*
X47040000Y-40916666D01*
X46906666Y-40916666D01*
X46840000Y-40950000D01*
X46806666Y-40983333D01*
X46773333Y-41050000D01*
X46773333Y-41183333D01*
X46806666Y-41250000D01*
X46840000Y-41283333D01*
X46906666Y-41316666D01*
X47040000Y-41316666D01*
X47106666Y-41283333D01*
X47140000Y-41250000D01*
X47173333Y-41183333D01*
X47173333Y-41050000D01*
X47140000Y-40983333D01*
X47106666Y-40950000D01*
X47040000Y-40916666D01*
G04 #@! TO.C,R2*
X30816666Y-15941666D02*
X30483333Y-16175000D01*
X30816666Y-16341666D02*
X30116666Y-16341666D01*
X30116666Y-16075000D01*
X30150000Y-16008333D01*
X30183333Y-15975000D01*
X30250000Y-15941666D01*
X30350000Y-15941666D01*
X30416666Y-15975000D01*
X30450000Y-16008333D01*
X30483333Y-16075000D01*
X30483333Y-16341666D01*
X30183333Y-15675000D02*
X30150000Y-15641666D01*
X30116666Y-15575000D01*
X30116666Y-15408333D01*
X30150000Y-15341666D01*
X30183333Y-15308333D01*
X30250000Y-15275000D01*
X30316666Y-15275000D01*
X30416666Y-15308333D01*
X30816666Y-15708333D01*
X30816666Y-15275000D01*
G04 #@! TO.C,R33*
X45840000Y-37316666D02*
X45606666Y-36983333D01*
X45440000Y-37316666D02*
X45440000Y-36616666D01*
X45706666Y-36616666D01*
X45773333Y-36650000D01*
X45806666Y-36683333D01*
X45840000Y-36750000D01*
X45840000Y-36850000D01*
X45806666Y-36916666D01*
X45773333Y-36950000D01*
X45706666Y-36983333D01*
X45440000Y-36983333D01*
X46073333Y-36616666D02*
X46506666Y-36616666D01*
X46273333Y-36883333D01*
X46373333Y-36883333D01*
X46440000Y-36916666D01*
X46473333Y-36950000D01*
X46506666Y-37016666D01*
X46506666Y-37183333D01*
X46473333Y-37250000D01*
X46440000Y-37283333D01*
X46373333Y-37316666D01*
X46173333Y-37316666D01*
X46106666Y-37283333D01*
X46073333Y-37250000D01*
X46740000Y-36616666D02*
X47173333Y-36616666D01*
X46940000Y-36883333D01*
X47040000Y-36883333D01*
X47106666Y-36916666D01*
X47140000Y-36950000D01*
X47173333Y-37016666D01*
X47173333Y-37183333D01*
X47140000Y-37250000D01*
X47106666Y-37283333D01*
X47040000Y-37316666D01*
X46840000Y-37316666D01*
X46773333Y-37283333D01*
X46740000Y-37250000D01*
G04 #@! TO.C,R3*
X31816666Y-15941666D02*
X31483333Y-16175000D01*
X31816666Y-16341666D02*
X31116666Y-16341666D01*
X31116666Y-16075000D01*
X31150000Y-16008333D01*
X31183333Y-15975000D01*
X31250000Y-15941666D01*
X31350000Y-15941666D01*
X31416666Y-15975000D01*
X31450000Y-16008333D01*
X31483333Y-16075000D01*
X31483333Y-16341666D01*
X31116666Y-15708333D02*
X31116666Y-15275000D01*
X31383333Y-15508333D01*
X31383333Y-15408333D01*
X31416666Y-15341666D01*
X31450000Y-15308333D01*
X31516666Y-15275000D01*
X31683333Y-15275000D01*
X31750000Y-15308333D01*
X31783333Y-15341666D01*
X31816666Y-15408333D01*
X31816666Y-15608333D01*
X31783333Y-15675000D01*
X31750000Y-15708333D01*
G04 #@! TO.C,R30*
X45840000Y-34316666D02*
X45606666Y-33983333D01*
X45440000Y-34316666D02*
X45440000Y-33616666D01*
X45706666Y-33616666D01*
X45773333Y-33650000D01*
X45806666Y-33683333D01*
X45840000Y-33750000D01*
X45840000Y-33850000D01*
X45806666Y-33916666D01*
X45773333Y-33950000D01*
X45706666Y-33983333D01*
X45440000Y-33983333D01*
X46073333Y-33616666D02*
X46506666Y-33616666D01*
X46273333Y-33883333D01*
X46373333Y-33883333D01*
X46440000Y-33916666D01*
X46473333Y-33950000D01*
X46506666Y-34016666D01*
X46506666Y-34183333D01*
X46473333Y-34250000D01*
X46440000Y-34283333D01*
X46373333Y-34316666D01*
X46173333Y-34316666D01*
X46106666Y-34283333D01*
X46073333Y-34250000D01*
X46940000Y-33616666D02*
X47006666Y-33616666D01*
X47073333Y-33650000D01*
X47106666Y-33683333D01*
X47140000Y-33750000D01*
X47173333Y-33883333D01*
X47173333Y-34050000D01*
X47140000Y-34183333D01*
X47106666Y-34250000D01*
X47073333Y-34283333D01*
X47006666Y-34316666D01*
X46940000Y-34316666D01*
X46873333Y-34283333D01*
X46840000Y-34250000D01*
X46806666Y-34183333D01*
X46773333Y-34050000D01*
X46773333Y-33883333D01*
X46806666Y-33750000D01*
X46840000Y-33683333D01*
X46873333Y-33650000D01*
X46940000Y-33616666D01*
G04 #@! TO.C,R27*
X45840000Y-40316666D02*
X45606666Y-39983333D01*
X45440000Y-40316666D02*
X45440000Y-39616666D01*
X45706666Y-39616666D01*
X45773333Y-39650000D01*
X45806666Y-39683333D01*
X45840000Y-39750000D01*
X45840000Y-39850000D01*
X45806666Y-39916666D01*
X45773333Y-39950000D01*
X45706666Y-39983333D01*
X45440000Y-39983333D01*
X46106666Y-39683333D02*
X46140000Y-39650000D01*
X46206666Y-39616666D01*
X46373333Y-39616666D01*
X46440000Y-39650000D01*
X46473333Y-39683333D01*
X46506666Y-39750000D01*
X46506666Y-39816666D01*
X46473333Y-39916666D01*
X46073333Y-40316666D01*
X46506666Y-40316666D01*
X46740000Y-39616666D02*
X47206666Y-39616666D01*
X46906666Y-40316666D01*
G04 #@! TO.C,R26*
X45840000Y-39316666D02*
X45606666Y-38983333D01*
X45440000Y-39316666D02*
X45440000Y-38616666D01*
X45706666Y-38616666D01*
X45773333Y-38650000D01*
X45806666Y-38683333D01*
X45840000Y-38750000D01*
X45840000Y-38850000D01*
X45806666Y-38916666D01*
X45773333Y-38950000D01*
X45706666Y-38983333D01*
X45440000Y-38983333D01*
X46106666Y-38683333D02*
X46140000Y-38650000D01*
X46206666Y-38616666D01*
X46373333Y-38616666D01*
X46440000Y-38650000D01*
X46473333Y-38683333D01*
X46506666Y-38750000D01*
X46506666Y-38816666D01*
X46473333Y-38916666D01*
X46073333Y-39316666D01*
X46506666Y-39316666D01*
X47106666Y-38616666D02*
X46973333Y-38616666D01*
X46906666Y-38650000D01*
X46873333Y-38683333D01*
X46806666Y-38783333D01*
X46773333Y-38916666D01*
X46773333Y-39183333D01*
X46806666Y-39250000D01*
X46840000Y-39283333D01*
X46906666Y-39316666D01*
X47040000Y-39316666D01*
X47106666Y-39283333D01*
X47140000Y-39250000D01*
X47173333Y-39183333D01*
X47173333Y-39016666D01*
X47140000Y-38950000D01*
X47106666Y-38916666D01*
X47040000Y-38883333D01*
X46906666Y-38883333D01*
X46840000Y-38916666D01*
X46806666Y-38950000D01*
X46773333Y-39016666D01*
G04 #@! TO.C,R25*
X35065000Y-44816666D02*
X34831666Y-44483333D01*
X34665000Y-44816666D02*
X34665000Y-44116666D01*
X34931666Y-44116666D01*
X34998333Y-44150000D01*
X35031666Y-44183333D01*
X35065000Y-44250000D01*
X35065000Y-44350000D01*
X35031666Y-44416666D01*
X34998333Y-44450000D01*
X34931666Y-44483333D01*
X34665000Y-44483333D01*
X35331666Y-44183333D02*
X35365000Y-44150000D01*
X35431666Y-44116666D01*
X35598333Y-44116666D01*
X35665000Y-44150000D01*
X35698333Y-44183333D01*
X35731666Y-44250000D01*
X35731666Y-44316666D01*
X35698333Y-44416666D01*
X35298333Y-44816666D01*
X35731666Y-44816666D01*
X36365000Y-44116666D02*
X36031666Y-44116666D01*
X35998333Y-44450000D01*
X36031666Y-44416666D01*
X36098333Y-44383333D01*
X36265000Y-44383333D01*
X36331666Y-44416666D01*
X36365000Y-44450000D01*
X36398333Y-44516666D01*
X36398333Y-44683333D01*
X36365000Y-44750000D01*
X36331666Y-44783333D01*
X36265000Y-44816666D01*
X36098333Y-44816666D01*
X36031666Y-44783333D01*
X35998333Y-44750000D01*
G04 #@! TO.C,R31*
X45840000Y-35316666D02*
X45606666Y-34983333D01*
X45440000Y-35316666D02*
X45440000Y-34616666D01*
X45706666Y-34616666D01*
X45773333Y-34650000D01*
X45806666Y-34683333D01*
X45840000Y-34750000D01*
X45840000Y-34850000D01*
X45806666Y-34916666D01*
X45773333Y-34950000D01*
X45706666Y-34983333D01*
X45440000Y-34983333D01*
X46073333Y-34616666D02*
X46506666Y-34616666D01*
X46273333Y-34883333D01*
X46373333Y-34883333D01*
X46440000Y-34916666D01*
X46473333Y-34950000D01*
X46506666Y-35016666D01*
X46506666Y-35183333D01*
X46473333Y-35250000D01*
X46440000Y-35283333D01*
X46373333Y-35316666D01*
X46173333Y-35316666D01*
X46106666Y-35283333D01*
X46073333Y-35250000D01*
X47173333Y-35316666D02*
X46773333Y-35316666D01*
X46973333Y-35316666D02*
X46973333Y-34616666D01*
X46906666Y-34716666D01*
X46840000Y-34783333D01*
X46773333Y-34816666D01*
G04 #@! TO.C,R21*
X28816666Y-15950000D02*
X28483333Y-16183333D01*
X28816666Y-16350000D02*
X28116666Y-16350000D01*
X28116666Y-16083333D01*
X28150000Y-16016666D01*
X28183333Y-15983333D01*
X28250000Y-15950000D01*
X28350000Y-15950000D01*
X28416666Y-15983333D01*
X28450000Y-16016666D01*
X28483333Y-16083333D01*
X28483333Y-16350000D01*
X28183333Y-15683333D02*
X28150000Y-15650000D01*
X28116666Y-15583333D01*
X28116666Y-15416666D01*
X28150000Y-15350000D01*
X28183333Y-15316666D01*
X28250000Y-15283333D01*
X28316666Y-15283333D01*
X28416666Y-15316666D01*
X28816666Y-15716666D01*
X28816666Y-15283333D01*
X28816666Y-14616666D02*
X28816666Y-15016666D01*
X28816666Y-14816666D02*
X28116666Y-14816666D01*
X28216666Y-14883333D01*
X28283333Y-14950000D01*
X28316666Y-15016666D01*
G04 #@! TO.C,R4*
X8316666Y-15366666D02*
X7983333Y-15600000D01*
X8316666Y-15766666D02*
X7616666Y-15766666D01*
X7616666Y-15500000D01*
X7650000Y-15433333D01*
X7683333Y-15400000D01*
X7750000Y-15366666D01*
X7850000Y-15366666D01*
X7916666Y-15400000D01*
X7950000Y-15433333D01*
X7983333Y-15500000D01*
X7983333Y-15766666D01*
X7850000Y-14766666D02*
X8316666Y-14766666D01*
X7583333Y-14933333D02*
X8083333Y-15100000D01*
X8083333Y-14666666D01*
G04 #@! TO.C,R19*
X26816666Y-15965000D02*
X26483333Y-16198333D01*
X26816666Y-16365000D02*
X26116666Y-16365000D01*
X26116666Y-16098333D01*
X26150000Y-16031666D01*
X26183333Y-15998333D01*
X26250000Y-15965000D01*
X26350000Y-15965000D01*
X26416666Y-15998333D01*
X26450000Y-16031666D01*
X26483333Y-16098333D01*
X26483333Y-16365000D01*
X26816666Y-15298333D02*
X26816666Y-15698333D01*
X26816666Y-15498333D02*
X26116666Y-15498333D01*
X26216666Y-15565000D01*
X26283333Y-15631666D01*
X26316666Y-15698333D01*
X26816666Y-14965000D02*
X26816666Y-14831666D01*
X26783333Y-14765000D01*
X26750000Y-14731666D01*
X26650000Y-14665000D01*
X26516666Y-14631666D01*
X26250000Y-14631666D01*
X26183333Y-14665000D01*
X26150000Y-14698333D01*
X26116666Y-14765000D01*
X26116666Y-14898333D01*
X26150000Y-14965000D01*
X26183333Y-14998333D01*
X26250000Y-15031666D01*
X26416666Y-15031666D01*
X26483333Y-14998333D01*
X26516666Y-14965000D01*
X26550000Y-14898333D01*
X26550000Y-14765000D01*
X26516666Y-14698333D01*
X26483333Y-14665000D01*
X26416666Y-14631666D01*
G04 #@! TO.C,R16*
X23816666Y-15950000D02*
X23483333Y-16183333D01*
X23816666Y-16350000D02*
X23116666Y-16350000D01*
X23116666Y-16083333D01*
X23150000Y-16016666D01*
X23183333Y-15983333D01*
X23250000Y-15950000D01*
X23350000Y-15950000D01*
X23416666Y-15983333D01*
X23450000Y-16016666D01*
X23483333Y-16083333D01*
X23483333Y-16350000D01*
X23816666Y-15283333D02*
X23816666Y-15683333D01*
X23816666Y-15483333D02*
X23116666Y-15483333D01*
X23216666Y-15550000D01*
X23283333Y-15616666D01*
X23316666Y-15683333D01*
X23116666Y-14683333D02*
X23116666Y-14816666D01*
X23150000Y-14883333D01*
X23183333Y-14916666D01*
X23283333Y-14983333D01*
X23416666Y-15016666D01*
X23683333Y-15016666D01*
X23750000Y-14983333D01*
X23783333Y-14950000D01*
X23816666Y-14883333D01*
X23816666Y-14750000D01*
X23783333Y-14683333D01*
X23750000Y-14650000D01*
X23683333Y-14616666D01*
X23516666Y-14616666D01*
X23450000Y-14650000D01*
X23416666Y-14683333D01*
X23383333Y-14750000D01*
X23383333Y-14883333D01*
X23416666Y-14950000D01*
X23450000Y-14983333D01*
X23516666Y-15016666D01*
G04 #@! TO.C,R15*
X22816666Y-15950000D02*
X22483333Y-16183333D01*
X22816666Y-16350000D02*
X22116666Y-16350000D01*
X22116666Y-16083333D01*
X22150000Y-16016666D01*
X22183333Y-15983333D01*
X22250000Y-15950000D01*
X22350000Y-15950000D01*
X22416666Y-15983333D01*
X22450000Y-16016666D01*
X22483333Y-16083333D01*
X22483333Y-16350000D01*
X22816666Y-15283333D02*
X22816666Y-15683333D01*
X22816666Y-15483333D02*
X22116666Y-15483333D01*
X22216666Y-15550000D01*
X22283333Y-15616666D01*
X22316666Y-15683333D01*
X22116666Y-14650000D02*
X22116666Y-14983333D01*
X22450000Y-15016666D01*
X22416666Y-14983333D01*
X22383333Y-14916666D01*
X22383333Y-14750000D01*
X22416666Y-14683333D01*
X22450000Y-14650000D01*
X22516666Y-14616666D01*
X22683333Y-14616666D01*
X22750000Y-14650000D01*
X22783333Y-14683333D01*
X22816666Y-14750000D01*
X22816666Y-14916666D01*
X22783333Y-14983333D01*
X22750000Y-15016666D01*
G04 #@! TO.C,R14*
X19816666Y-15965000D02*
X19483333Y-16198333D01*
X19816666Y-16365000D02*
X19116666Y-16365000D01*
X19116666Y-16098333D01*
X19150000Y-16031666D01*
X19183333Y-15998333D01*
X19250000Y-15965000D01*
X19350000Y-15965000D01*
X19416666Y-15998333D01*
X19450000Y-16031666D01*
X19483333Y-16098333D01*
X19483333Y-16365000D01*
X19816666Y-15298333D02*
X19816666Y-15698333D01*
X19816666Y-15498333D02*
X19116666Y-15498333D01*
X19216666Y-15565000D01*
X19283333Y-15631666D01*
X19316666Y-15698333D01*
X19350000Y-14698333D02*
X19816666Y-14698333D01*
X19083333Y-14865000D02*
X19583333Y-15031666D01*
X19583333Y-14598333D01*
G04 #@! TO.C,R12*
X17816666Y-15950000D02*
X17483333Y-16183333D01*
X17816666Y-16350000D02*
X17116666Y-16350000D01*
X17116666Y-16083333D01*
X17150000Y-16016666D01*
X17183333Y-15983333D01*
X17250000Y-15950000D01*
X17350000Y-15950000D01*
X17416666Y-15983333D01*
X17450000Y-16016666D01*
X17483333Y-16083333D01*
X17483333Y-16350000D01*
X17816666Y-15283333D02*
X17816666Y-15683333D01*
X17816666Y-15483333D02*
X17116666Y-15483333D01*
X17216666Y-15550000D01*
X17283333Y-15616666D01*
X17316666Y-15683333D01*
X17183333Y-15016666D02*
X17150000Y-14983333D01*
X17116666Y-14916666D01*
X17116666Y-14750000D01*
X17150000Y-14683333D01*
X17183333Y-14650000D01*
X17250000Y-14616666D01*
X17316666Y-14616666D01*
X17416666Y-14650000D01*
X17816666Y-15050000D01*
X17816666Y-14616666D01*
G04 #@! TO.C,R17*
X24816666Y-15950000D02*
X24483333Y-16183333D01*
X24816666Y-16350000D02*
X24116666Y-16350000D01*
X24116666Y-16083333D01*
X24150000Y-16016666D01*
X24183333Y-15983333D01*
X24250000Y-15950000D01*
X24350000Y-15950000D01*
X24416666Y-15983333D01*
X24450000Y-16016666D01*
X24483333Y-16083333D01*
X24483333Y-16350000D01*
X24816666Y-15283333D02*
X24816666Y-15683333D01*
X24816666Y-15483333D02*
X24116666Y-15483333D01*
X24216666Y-15550000D01*
X24283333Y-15616666D01*
X24316666Y-15683333D01*
X24116666Y-15050000D02*
X24116666Y-14583333D01*
X24816666Y-14883333D01*
G04 #@! TO.C,R18*
X25816666Y-15935000D02*
X25483333Y-16168333D01*
X25816666Y-16335000D02*
X25116666Y-16335000D01*
X25116666Y-16068333D01*
X25150000Y-16001666D01*
X25183333Y-15968333D01*
X25250000Y-15935000D01*
X25350000Y-15935000D01*
X25416666Y-15968333D01*
X25450000Y-16001666D01*
X25483333Y-16068333D01*
X25483333Y-16335000D01*
X25816666Y-15268333D02*
X25816666Y-15668333D01*
X25816666Y-15468333D02*
X25116666Y-15468333D01*
X25216666Y-15535000D01*
X25283333Y-15601666D01*
X25316666Y-15668333D01*
X25416666Y-14868333D02*
X25383333Y-14935000D01*
X25350000Y-14968333D01*
X25283333Y-15001666D01*
X25250000Y-15001666D01*
X25183333Y-14968333D01*
X25150000Y-14935000D01*
X25116666Y-14868333D01*
X25116666Y-14735000D01*
X25150000Y-14668333D01*
X25183333Y-14635000D01*
X25250000Y-14601666D01*
X25283333Y-14601666D01*
X25350000Y-14635000D01*
X25383333Y-14668333D01*
X25416666Y-14735000D01*
X25416666Y-14868333D01*
X25450000Y-14935000D01*
X25483333Y-14968333D01*
X25550000Y-15001666D01*
X25683333Y-15001666D01*
X25750000Y-14968333D01*
X25783333Y-14935000D01*
X25816666Y-14868333D01*
X25816666Y-14735000D01*
X25783333Y-14668333D01*
X25750000Y-14635000D01*
X25683333Y-14601666D01*
X25550000Y-14601666D01*
X25483333Y-14635000D01*
X25450000Y-14668333D01*
X25416666Y-14735000D01*
G04 #@! TO.C,R20*
X27816666Y-15950000D02*
X27483333Y-16183333D01*
X27816666Y-16350000D02*
X27116666Y-16350000D01*
X27116666Y-16083333D01*
X27150000Y-16016666D01*
X27183333Y-15983333D01*
X27250000Y-15950000D01*
X27350000Y-15950000D01*
X27416666Y-15983333D01*
X27450000Y-16016666D01*
X27483333Y-16083333D01*
X27483333Y-16350000D01*
X27183333Y-15683333D02*
X27150000Y-15650000D01*
X27116666Y-15583333D01*
X27116666Y-15416666D01*
X27150000Y-15350000D01*
X27183333Y-15316666D01*
X27250000Y-15283333D01*
X27316666Y-15283333D01*
X27416666Y-15316666D01*
X27816666Y-15716666D01*
X27816666Y-15283333D01*
X27116666Y-14850000D02*
X27116666Y-14783333D01*
X27150000Y-14716666D01*
X27183333Y-14683333D01*
X27250000Y-14650000D01*
X27383333Y-14616666D01*
X27550000Y-14616666D01*
X27683333Y-14650000D01*
X27750000Y-14683333D01*
X27783333Y-14716666D01*
X27816666Y-14783333D01*
X27816666Y-14850000D01*
X27783333Y-14916666D01*
X27750000Y-14950000D01*
X27683333Y-14983333D01*
X27550000Y-15016666D01*
X27383333Y-15016666D01*
X27250000Y-14983333D01*
X27183333Y-14950000D01*
X27150000Y-14916666D01*
X27116666Y-14850000D01*
G04 #@! TO.C,R13*
X18816666Y-15950000D02*
X18483333Y-16183333D01*
X18816666Y-16350000D02*
X18116666Y-16350000D01*
X18116666Y-16083333D01*
X18150000Y-16016666D01*
X18183333Y-15983333D01*
X18250000Y-15950000D01*
X18350000Y-15950000D01*
X18416666Y-15983333D01*
X18450000Y-16016666D01*
X18483333Y-16083333D01*
X18483333Y-16350000D01*
X18816666Y-15283333D02*
X18816666Y-15683333D01*
X18816666Y-15483333D02*
X18116666Y-15483333D01*
X18216666Y-15550000D01*
X18283333Y-15616666D01*
X18316666Y-15683333D01*
X18116666Y-15050000D02*
X18116666Y-14616666D01*
X18383333Y-14850000D01*
X18383333Y-14750000D01*
X18416666Y-14683333D01*
X18450000Y-14650000D01*
X18516666Y-14616666D01*
X18683333Y-14616666D01*
X18750000Y-14650000D01*
X18783333Y-14683333D01*
X18816666Y-14750000D01*
X18816666Y-14950000D01*
X18783333Y-15016666D01*
X18750000Y-15050000D01*
G04 #@! TO.C,R11*
X16816666Y-15950000D02*
X16483333Y-16183333D01*
X16816666Y-16350000D02*
X16116666Y-16350000D01*
X16116666Y-16083333D01*
X16150000Y-16016666D01*
X16183333Y-15983333D01*
X16250000Y-15950000D01*
X16350000Y-15950000D01*
X16416666Y-15983333D01*
X16450000Y-16016666D01*
X16483333Y-16083333D01*
X16483333Y-16350000D01*
X16816666Y-15283333D02*
X16816666Y-15683333D01*
X16816666Y-15483333D02*
X16116666Y-15483333D01*
X16216666Y-15550000D01*
X16283333Y-15616666D01*
X16316666Y-15683333D01*
X16816666Y-14616666D02*
X16816666Y-15016666D01*
X16816666Y-14816666D02*
X16116666Y-14816666D01*
X16216666Y-14883333D01*
X16283333Y-14950000D01*
X16316666Y-15016666D01*
G04 #@! TO.C,R10*
X16550000Y-11816666D02*
X16316666Y-11483333D01*
X16150000Y-11816666D02*
X16150000Y-11116666D01*
X16416666Y-11116666D01*
X16483333Y-11150000D01*
X16516666Y-11183333D01*
X16550000Y-11250000D01*
X16550000Y-11350000D01*
X16516666Y-11416666D01*
X16483333Y-11450000D01*
X16416666Y-11483333D01*
X16150000Y-11483333D01*
X17216666Y-11816666D02*
X16816666Y-11816666D01*
X17016666Y-11816666D02*
X17016666Y-11116666D01*
X16950000Y-11216666D01*
X16883333Y-11283333D01*
X16816666Y-11316666D01*
X17650000Y-11116666D02*
X17716666Y-11116666D01*
X17783333Y-11150000D01*
X17816666Y-11183333D01*
X17850000Y-11250000D01*
X17883333Y-11383333D01*
X17883333Y-11550000D01*
X17850000Y-11683333D01*
X17816666Y-11750000D01*
X17783333Y-11783333D01*
X17716666Y-11816666D01*
X17650000Y-11816666D01*
X17583333Y-11783333D01*
X17550000Y-11750000D01*
X17516666Y-11683333D01*
X17483333Y-11550000D01*
X17483333Y-11383333D01*
X17516666Y-11250000D01*
X17550000Y-11183333D01*
X17583333Y-11150000D01*
X17650000Y-11116666D01*
G04 #@! TO.C,R9*
X16883333Y-5316666D02*
X16650000Y-4983333D01*
X16483333Y-5316666D02*
X16483333Y-4616666D01*
X16750000Y-4616666D01*
X16816666Y-4650000D01*
X16850000Y-4683333D01*
X16883333Y-4750000D01*
X16883333Y-4850000D01*
X16850000Y-4916666D01*
X16816666Y-4950000D01*
X16750000Y-4983333D01*
X16483333Y-4983333D01*
X17216666Y-5316666D02*
X17350000Y-5316666D01*
X17416666Y-5283333D01*
X17450000Y-5250000D01*
X17516666Y-5150000D01*
X17550000Y-5016666D01*
X17550000Y-4750000D01*
X17516666Y-4683333D01*
X17483333Y-4650000D01*
X17416666Y-4616666D01*
X17283333Y-4616666D01*
X17216666Y-4650000D01*
X17183333Y-4683333D01*
X17150000Y-4750000D01*
X17150000Y-4916666D01*
X17183333Y-4983333D01*
X17216666Y-5016666D01*
X17283333Y-5050000D01*
X17416666Y-5050000D01*
X17483333Y-5016666D01*
X17516666Y-4983333D01*
X17550000Y-4916666D01*
G04 #@! TO.C,R8*
X32383333Y-9986666D02*
X32150000Y-9653333D01*
X31983333Y-9986666D02*
X31983333Y-9286666D01*
X32250000Y-9286666D01*
X32316666Y-9320000D01*
X32350000Y-9353333D01*
X32383333Y-9420000D01*
X32383333Y-9520000D01*
X32350000Y-9586666D01*
X32316666Y-9620000D01*
X32250000Y-9653333D01*
X31983333Y-9653333D01*
X32783333Y-9586666D02*
X32716666Y-9553333D01*
X32683333Y-9520000D01*
X32650000Y-9453333D01*
X32650000Y-9420000D01*
X32683333Y-9353333D01*
X32716666Y-9320000D01*
X32783333Y-9286666D01*
X32916666Y-9286666D01*
X32983333Y-9320000D01*
X33016666Y-9353333D01*
X33050000Y-9420000D01*
X33050000Y-9453333D01*
X33016666Y-9520000D01*
X32983333Y-9553333D01*
X32916666Y-9586666D01*
X32783333Y-9586666D01*
X32716666Y-9620000D01*
X32683333Y-9653333D01*
X32650000Y-9720000D01*
X32650000Y-9853333D01*
X32683333Y-9920000D01*
X32716666Y-9953333D01*
X32783333Y-9986666D01*
X32916666Y-9986666D01*
X32983333Y-9953333D01*
X33016666Y-9920000D01*
X33050000Y-9853333D01*
X33050000Y-9720000D01*
X33016666Y-9653333D01*
X32983333Y-9620000D01*
X32916666Y-9586666D01*
G04 #@! TO.C,R5*
X8383333Y-10816666D02*
X8150000Y-10483333D01*
X7983333Y-10816666D02*
X7983333Y-10116666D01*
X8250000Y-10116666D01*
X8316666Y-10150000D01*
X8350000Y-10183333D01*
X8383333Y-10250000D01*
X8383333Y-10350000D01*
X8350000Y-10416666D01*
X8316666Y-10450000D01*
X8250000Y-10483333D01*
X7983333Y-10483333D01*
X9016666Y-10116666D02*
X8683333Y-10116666D01*
X8650000Y-10450000D01*
X8683333Y-10416666D01*
X8750000Y-10383333D01*
X8916666Y-10383333D01*
X8983333Y-10416666D01*
X9016666Y-10450000D01*
X9050000Y-10516666D01*
X9050000Y-10683333D01*
X9016666Y-10750000D01*
X8983333Y-10783333D01*
X8916666Y-10816666D01*
X8750000Y-10816666D01*
X8683333Y-10783333D01*
X8650000Y-10750000D01*
G04 #@! TO.C,R6*
X15566666Y-14866666D02*
X15233333Y-15100000D01*
X15566666Y-15266666D02*
X14866666Y-15266666D01*
X14866666Y-15000000D01*
X14900000Y-14933333D01*
X14933333Y-14900000D01*
X15000000Y-14866666D01*
X15100000Y-14866666D01*
X15166666Y-14900000D01*
X15200000Y-14933333D01*
X15233333Y-15000000D01*
X15233333Y-15266666D01*
X14866666Y-14266666D02*
X14866666Y-14400000D01*
X14900000Y-14466666D01*
X14933333Y-14500000D01*
X15033333Y-14566666D01*
X15166666Y-14600000D01*
X15433333Y-14600000D01*
X15500000Y-14566666D01*
X15533333Y-14533333D01*
X15566666Y-14466666D01*
X15566666Y-14333333D01*
X15533333Y-14266666D01*
X15500000Y-14233333D01*
X15433333Y-14200000D01*
X15266666Y-14200000D01*
X15200000Y-14233333D01*
X15166666Y-14266666D01*
X15133333Y-14333333D01*
X15133333Y-14466666D01*
X15166666Y-14533333D01*
X15200000Y-14566666D01*
X15266666Y-14600000D01*
G04 #@! TO.C,R23*
X35050000Y-46816666D02*
X34816666Y-46483333D01*
X34650000Y-46816666D02*
X34650000Y-46116666D01*
X34916666Y-46116666D01*
X34983333Y-46150000D01*
X35016666Y-46183333D01*
X35050000Y-46250000D01*
X35050000Y-46350000D01*
X35016666Y-46416666D01*
X34983333Y-46450000D01*
X34916666Y-46483333D01*
X34650000Y-46483333D01*
X35316666Y-46183333D02*
X35350000Y-46150000D01*
X35416666Y-46116666D01*
X35583333Y-46116666D01*
X35650000Y-46150000D01*
X35683333Y-46183333D01*
X35716666Y-46250000D01*
X35716666Y-46316666D01*
X35683333Y-46416666D01*
X35283333Y-46816666D01*
X35716666Y-46816666D01*
X35950000Y-46116666D02*
X36383333Y-46116666D01*
X36150000Y-46383333D01*
X36250000Y-46383333D01*
X36316666Y-46416666D01*
X36350000Y-46450000D01*
X36383333Y-46516666D01*
X36383333Y-46683333D01*
X36350000Y-46750000D01*
X36316666Y-46783333D01*
X36250000Y-46816666D01*
X36050000Y-46816666D01*
X35983333Y-46783333D01*
X35950000Y-46750000D01*
G04 #@! TO.C,C5*
X30883333Y-1250000D02*
X30850000Y-1283333D01*
X30750000Y-1316666D01*
X30683333Y-1316666D01*
X30583333Y-1283333D01*
X30516666Y-1216666D01*
X30483333Y-1150000D01*
X30450000Y-1016666D01*
X30450000Y-916666D01*
X30483333Y-783333D01*
X30516666Y-716666D01*
X30583333Y-650000D01*
X30683333Y-616666D01*
X30750000Y-616666D01*
X30850000Y-650000D01*
X30883333Y-683333D01*
X31516666Y-616666D02*
X31183333Y-616666D01*
X31150000Y-950000D01*
X31183333Y-916666D01*
X31250000Y-883333D01*
X31416666Y-883333D01*
X31483333Y-916666D01*
X31516666Y-950000D01*
X31550000Y-1016666D01*
X31550000Y-1183333D01*
X31516666Y-1250000D01*
X31483333Y-1283333D01*
X31416666Y-1316666D01*
X31250000Y-1316666D01*
X31183333Y-1283333D01*
X31150000Y-1250000D01*
G04 #@! TO.C,D5*
X47983333Y-25316666D02*
X47983333Y-24616666D01*
X48150000Y-24616666D01*
X48250000Y-24650000D01*
X48316666Y-24716666D01*
X48350000Y-24783333D01*
X48383333Y-24916666D01*
X48383333Y-25016666D01*
X48350000Y-25150000D01*
X48316666Y-25216666D01*
X48250000Y-25283333D01*
X48150000Y-25316666D01*
X47983333Y-25316666D01*
X49016666Y-24616666D02*
X48683333Y-24616666D01*
X48650000Y-24950000D01*
X48683333Y-24916666D01*
X48750000Y-24883333D01*
X48916666Y-24883333D01*
X48983333Y-24916666D01*
X49016666Y-24950000D01*
X49050000Y-25016666D01*
X49050000Y-25183333D01*
X49016666Y-25250000D01*
X48983333Y-25283333D01*
X48916666Y-25316666D01*
X48750000Y-25316666D01*
X48683333Y-25283333D01*
X48650000Y-25250000D01*
G04 #@! TO.C,J9*
X33316666Y-17116666D02*
X33316666Y-17616666D01*
X33283333Y-17716666D01*
X33216666Y-17783333D01*
X33116666Y-17816666D01*
X33050000Y-17816666D01*
X33683333Y-17816666D02*
X33816666Y-17816666D01*
X33883333Y-17783333D01*
X33916666Y-17750000D01*
X33983333Y-17650000D01*
X34016666Y-17516666D01*
X34016666Y-17250000D01*
X33983333Y-17183333D01*
X33950000Y-17150000D01*
X33883333Y-17116666D01*
X33750000Y-17116666D01*
X33683333Y-17150000D01*
X33650000Y-17183333D01*
X33616666Y-17250000D01*
X33616666Y-17416666D01*
X33650000Y-17483333D01*
X33683333Y-17516666D01*
X33750000Y-17550000D01*
X33883333Y-17550000D01*
X33950000Y-17516666D01*
X33983333Y-17483333D01*
X34016666Y-17416666D01*
D11*
X51819047Y-20361904D02*
X51276190Y-20361904D01*
X51547619Y-20361904D02*
X51547619Y-19561904D01*
X51457142Y-19676190D01*
X51366666Y-19752380D01*
X51276190Y-19790476D01*
X52678571Y-19561904D02*
X52226190Y-19561904D01*
X52180952Y-19942857D01*
X52226190Y-19904761D01*
X52316666Y-19866666D01*
X52542857Y-19866666D01*
X52633333Y-19904761D01*
X52678571Y-19942857D01*
X52723809Y-20019047D01*
X52723809Y-20209523D01*
X52678571Y-20285714D01*
X52633333Y-20323809D01*
X52542857Y-20361904D01*
X52316666Y-20361904D01*
X52226190Y-20323809D01*
X52180952Y-20285714D01*
X37521428Y-20361904D02*
X36978571Y-20361904D01*
X37250000Y-20361904D02*
X37250000Y-19561904D01*
X37159523Y-19676190D01*
X37069047Y-19752380D01*
X36978571Y-19790476D01*
G04 #@! TO.C,JP3*
D10*
X9616666Y-44316666D02*
X9616666Y-44816666D01*
X9583333Y-44916666D01*
X9516666Y-44983333D01*
X9416666Y-45016666D01*
X9350000Y-45016666D01*
X9950000Y-45016666D02*
X9950000Y-44316666D01*
X10216666Y-44316666D01*
X10283333Y-44350000D01*
X10316666Y-44383333D01*
X10350000Y-44450000D01*
X10350000Y-44550000D01*
X10316666Y-44616666D01*
X10283333Y-44650000D01*
X10216666Y-44683333D01*
X9950000Y-44683333D01*
X10583333Y-44316666D02*
X11016666Y-44316666D01*
X10783333Y-44583333D01*
X10883333Y-44583333D01*
X10950000Y-44616666D01*
X10983333Y-44650000D01*
X11016666Y-44716666D01*
X11016666Y-44883333D01*
X10983333Y-44950000D01*
X10950000Y-44983333D01*
X10883333Y-45016666D01*
X10683333Y-45016666D01*
X10616666Y-44983333D01*
X10583333Y-44950000D01*
G04 #@! TO.C,JP2*
X14916666Y-44316666D02*
X14916666Y-44816666D01*
X14883333Y-44916666D01*
X14816666Y-44983333D01*
X14716666Y-45016666D01*
X14650000Y-45016666D01*
X15250000Y-45016666D02*
X15250000Y-44316666D01*
X15516666Y-44316666D01*
X15583333Y-44350000D01*
X15616666Y-44383333D01*
X15650000Y-44450000D01*
X15650000Y-44550000D01*
X15616666Y-44616666D01*
X15583333Y-44650000D01*
X15516666Y-44683333D01*
X15250000Y-44683333D01*
X15916666Y-44383333D02*
X15950000Y-44350000D01*
X16016666Y-44316666D01*
X16183333Y-44316666D01*
X16250000Y-44350000D01*
X16283333Y-44383333D01*
X16316666Y-44450000D01*
X16316666Y-44516666D01*
X16283333Y-44616666D01*
X15883333Y-45016666D01*
X16316666Y-45016666D01*
G04 #@! TO.C,JP1*
X20416666Y-44316666D02*
X20416666Y-44816666D01*
X20383333Y-44916666D01*
X20316666Y-44983333D01*
X20216666Y-45016666D01*
X20150000Y-45016666D01*
X20750000Y-45016666D02*
X20750000Y-44316666D01*
X21016666Y-44316666D01*
X21083333Y-44350000D01*
X21116666Y-44383333D01*
X21150000Y-44450000D01*
X21150000Y-44550000D01*
X21116666Y-44616666D01*
X21083333Y-44650000D01*
X21016666Y-44683333D01*
X20750000Y-44683333D01*
X21816666Y-45016666D02*
X21416666Y-45016666D01*
X21616666Y-45016666D02*
X21616666Y-44316666D01*
X21550000Y-44416666D01*
X21483333Y-44483333D01*
X21416666Y-44516666D01*
G04 #@! TO.C,FB1*
X7916666Y-7450000D02*
X7683333Y-7450000D01*
X7683333Y-7816666D02*
X7683333Y-7116666D01*
X8016666Y-7116666D01*
X8516666Y-7450000D02*
X8616666Y-7483333D01*
X8650000Y-7516666D01*
X8683333Y-7583333D01*
X8683333Y-7683333D01*
X8650000Y-7750000D01*
X8616666Y-7783333D01*
X8550000Y-7816666D01*
X8283333Y-7816666D01*
X8283333Y-7116666D01*
X8516666Y-7116666D01*
X8583333Y-7150000D01*
X8616666Y-7183333D01*
X8650000Y-7250000D01*
X8650000Y-7316666D01*
X8616666Y-7383333D01*
X8583333Y-7416666D01*
X8516666Y-7450000D01*
X8283333Y-7450000D01*
X9350000Y-7816666D02*
X8950000Y-7816666D01*
X9150000Y-7816666D02*
X9150000Y-7116666D01*
X9083333Y-7216666D01*
X9016666Y-7283333D01*
X8950000Y-7316666D01*
G04 #@! TO.C,FB2*
X7916666Y-8950000D02*
X7683333Y-8950000D01*
X7683333Y-9316666D02*
X7683333Y-8616666D01*
X8016666Y-8616666D01*
X8516666Y-8950000D02*
X8616666Y-8983333D01*
X8650000Y-9016666D01*
X8683333Y-9083333D01*
X8683333Y-9183333D01*
X8650000Y-9250000D01*
X8616666Y-9283333D01*
X8550000Y-9316666D01*
X8283333Y-9316666D01*
X8283333Y-8616666D01*
X8516666Y-8616666D01*
X8583333Y-8650000D01*
X8616666Y-8683333D01*
X8650000Y-8750000D01*
X8650000Y-8816666D01*
X8616666Y-8883333D01*
X8583333Y-8916666D01*
X8516666Y-8950000D01*
X8283333Y-8950000D01*
X8950000Y-8683333D02*
X8983333Y-8650000D01*
X9050000Y-8616666D01*
X9216666Y-8616666D01*
X9283333Y-8650000D01*
X9316666Y-8683333D01*
X9350000Y-8750000D01*
X9350000Y-8816666D01*
X9316666Y-8916666D01*
X8916666Y-9316666D01*
X9350000Y-9316666D01*
G04 #@! TO.C,J6*
X21299466Y-41616666D02*
X21299466Y-42116666D01*
X21266133Y-42216666D01*
X21199466Y-42283333D01*
X21099466Y-42316666D01*
X21032800Y-42316666D01*
X21932800Y-41616666D02*
X21799466Y-41616666D01*
X21732800Y-41650000D01*
X21699466Y-41683333D01*
X21632800Y-41783333D01*
X21599466Y-41916666D01*
X21599466Y-42183333D01*
X21632800Y-42250000D01*
X21666133Y-42283333D01*
X21732800Y-42316666D01*
X21866133Y-42316666D01*
X21932800Y-42283333D01*
X21966133Y-42250000D01*
X21999466Y-42183333D01*
X21999466Y-42016666D01*
X21966133Y-41950000D01*
X21932800Y-41916666D01*
X21866133Y-41883333D01*
X21732800Y-41883333D01*
X21666133Y-41916666D01*
X21632800Y-41950000D01*
X21599466Y-42016666D01*
G04 #@! TO.C,J7*
X38799466Y-41616666D02*
X38799466Y-42116666D01*
X38766133Y-42216666D01*
X38699466Y-42283333D01*
X38599466Y-42316666D01*
X38532800Y-42316666D01*
X39066133Y-41616666D02*
X39532800Y-41616666D01*
X39232800Y-42316666D01*
G04 #@! TO.C,C12*
X41800000Y-34120000D02*
X41833333Y-34153333D01*
X41866666Y-34253333D01*
X41866666Y-34320000D01*
X41833333Y-34420000D01*
X41766666Y-34486666D01*
X41700000Y-34520000D01*
X41566666Y-34553333D01*
X41466666Y-34553333D01*
X41333333Y-34520000D01*
X41266666Y-34486666D01*
X41200000Y-34420000D01*
X41166666Y-34320000D01*
X41166666Y-34253333D01*
X41200000Y-34153333D01*
X41233333Y-34120000D01*
X41866666Y-33453333D02*
X41866666Y-33853333D01*
X41866666Y-33653333D02*
X41166666Y-33653333D01*
X41266666Y-33720000D01*
X41333333Y-33786666D01*
X41366666Y-33853333D01*
X41233333Y-33186666D02*
X41200000Y-33153333D01*
X41166666Y-33086666D01*
X41166666Y-32920000D01*
X41200000Y-32853333D01*
X41233333Y-32820000D01*
X41300000Y-32786666D01*
X41366666Y-32786666D01*
X41466666Y-32820000D01*
X41866666Y-33220000D01*
X41866666Y-32786666D01*
G04 #@! TO.C,C10*
X24750000Y-48450000D02*
X24783333Y-48483333D01*
X24816666Y-48583333D01*
X24816666Y-48650000D01*
X24783333Y-48750000D01*
X24716666Y-48816666D01*
X24650000Y-48850000D01*
X24516666Y-48883333D01*
X24416666Y-48883333D01*
X24283333Y-48850000D01*
X24216666Y-48816666D01*
X24150000Y-48750000D01*
X24116666Y-48650000D01*
X24116666Y-48583333D01*
X24150000Y-48483333D01*
X24183333Y-48450000D01*
X24816666Y-47783333D02*
X24816666Y-48183333D01*
X24816666Y-47983333D02*
X24116666Y-47983333D01*
X24216666Y-48050000D01*
X24283333Y-48116666D01*
X24316666Y-48183333D01*
X24116666Y-47350000D02*
X24116666Y-47283333D01*
X24150000Y-47216666D01*
X24183333Y-47183333D01*
X24250000Y-47150000D01*
X24383333Y-47116666D01*
X24550000Y-47116666D01*
X24683333Y-47150000D01*
X24750000Y-47183333D01*
X24783333Y-47216666D01*
X24816666Y-47283333D01*
X24816666Y-47350000D01*
X24783333Y-47416666D01*
X24750000Y-47450000D01*
X24683333Y-47483333D01*
X24550000Y-47516666D01*
X24383333Y-47516666D01*
X24250000Y-47483333D01*
X24183333Y-47450000D01*
X24150000Y-47416666D01*
X24116666Y-47350000D01*
G04 #@! TO.C,C24*
X20550000Y-1750000D02*
X20516666Y-1783333D01*
X20416666Y-1816666D01*
X20350000Y-1816666D01*
X20250000Y-1783333D01*
X20183333Y-1716666D01*
X20150000Y-1650000D01*
X20116666Y-1516666D01*
X20116666Y-1416666D01*
X20150000Y-1283333D01*
X20183333Y-1216666D01*
X20250000Y-1150000D01*
X20350000Y-1116666D01*
X20416666Y-1116666D01*
X20516666Y-1150000D01*
X20550000Y-1183333D01*
X20816666Y-1183333D02*
X20850000Y-1150000D01*
X20916666Y-1116666D01*
X21083333Y-1116666D01*
X21150000Y-1150000D01*
X21183333Y-1183333D01*
X21216666Y-1250000D01*
X21216666Y-1316666D01*
X21183333Y-1416666D01*
X20783333Y-1816666D01*
X21216666Y-1816666D01*
X21816666Y-1350000D02*
X21816666Y-1816666D01*
X21650000Y-1083333D02*
X21483333Y-1583333D01*
X21916666Y-1583333D01*
G04 #@! TO.C,C23*
X32050000Y-13250000D02*
X32016666Y-13283333D01*
X31916666Y-13316666D01*
X31850000Y-13316666D01*
X31750000Y-13283333D01*
X31683333Y-13216666D01*
X31650000Y-13150000D01*
X31616666Y-13016666D01*
X31616666Y-12916666D01*
X31650000Y-12783333D01*
X31683333Y-12716666D01*
X31750000Y-12650000D01*
X31850000Y-12616666D01*
X31916666Y-12616666D01*
X32016666Y-12650000D01*
X32050000Y-12683333D01*
X32316666Y-12683333D02*
X32350000Y-12650000D01*
X32416666Y-12616666D01*
X32583333Y-12616666D01*
X32650000Y-12650000D01*
X32683333Y-12683333D01*
X32716666Y-12750000D01*
X32716666Y-12816666D01*
X32683333Y-12916666D01*
X32283333Y-13316666D01*
X32716666Y-13316666D01*
X32950000Y-12616666D02*
X33383333Y-12616666D01*
X33150000Y-12883333D01*
X33250000Y-12883333D01*
X33316666Y-12916666D01*
X33350000Y-12950000D01*
X33383333Y-13016666D01*
X33383333Y-13183333D01*
X33350000Y-13250000D01*
X33316666Y-13283333D01*
X33250000Y-13316666D01*
X33050000Y-13316666D01*
X32983333Y-13283333D01*
X32950000Y-13250000D01*
G04 #@! TO.C,C21*
X15750000Y-8450000D02*
X15783333Y-8483333D01*
X15816666Y-8583333D01*
X15816666Y-8650000D01*
X15783333Y-8750000D01*
X15716666Y-8816666D01*
X15650000Y-8850000D01*
X15516666Y-8883333D01*
X15416666Y-8883333D01*
X15283333Y-8850000D01*
X15216666Y-8816666D01*
X15150000Y-8750000D01*
X15116666Y-8650000D01*
X15116666Y-8583333D01*
X15150000Y-8483333D01*
X15183333Y-8450000D01*
X15183333Y-8183333D02*
X15150000Y-8150000D01*
X15116666Y-8083333D01*
X15116666Y-7916666D01*
X15150000Y-7850000D01*
X15183333Y-7816666D01*
X15250000Y-7783333D01*
X15316666Y-7783333D01*
X15416666Y-7816666D01*
X15816666Y-8216666D01*
X15816666Y-7783333D01*
X15816666Y-7116666D02*
X15816666Y-7516666D01*
X15816666Y-7316666D02*
X15116666Y-7316666D01*
X15216666Y-7383333D01*
X15283333Y-7450000D01*
X15316666Y-7516666D01*
G04 #@! TO.C,C9*
X24750000Y-45116666D02*
X24783333Y-45150000D01*
X24816666Y-45250000D01*
X24816666Y-45316666D01*
X24783333Y-45416666D01*
X24716666Y-45483333D01*
X24650000Y-45516666D01*
X24516666Y-45550000D01*
X24416666Y-45550000D01*
X24283333Y-45516666D01*
X24216666Y-45483333D01*
X24150000Y-45416666D01*
X24116666Y-45316666D01*
X24116666Y-45250000D01*
X24150000Y-45150000D01*
X24183333Y-45116666D01*
X24816666Y-44783333D02*
X24816666Y-44650000D01*
X24783333Y-44583333D01*
X24750000Y-44550000D01*
X24650000Y-44483333D01*
X24516666Y-44450000D01*
X24250000Y-44450000D01*
X24183333Y-44483333D01*
X24150000Y-44516666D01*
X24116666Y-44583333D01*
X24116666Y-44716666D01*
X24150000Y-44783333D01*
X24183333Y-44816666D01*
X24250000Y-44850000D01*
X24416666Y-44850000D01*
X24483333Y-44816666D01*
X24516666Y-44783333D01*
X24550000Y-44716666D01*
X24550000Y-44583333D01*
X24516666Y-44516666D01*
X24483333Y-44483333D01*
X24416666Y-44450000D01*
G04 #@! TO.C,C20*
X27050000Y-1750000D02*
X27016666Y-1783333D01*
X26916666Y-1816666D01*
X26850000Y-1816666D01*
X26750000Y-1783333D01*
X26683333Y-1716666D01*
X26650000Y-1650000D01*
X26616666Y-1516666D01*
X26616666Y-1416666D01*
X26650000Y-1283333D01*
X26683333Y-1216666D01*
X26750000Y-1150000D01*
X26850000Y-1116666D01*
X26916666Y-1116666D01*
X27016666Y-1150000D01*
X27050000Y-1183333D01*
X27316666Y-1183333D02*
X27350000Y-1150000D01*
X27416666Y-1116666D01*
X27583333Y-1116666D01*
X27650000Y-1150000D01*
X27683333Y-1183333D01*
X27716666Y-1250000D01*
X27716666Y-1316666D01*
X27683333Y-1416666D01*
X27283333Y-1816666D01*
X27716666Y-1816666D01*
X28150000Y-1116666D02*
X28216666Y-1116666D01*
X28283333Y-1150000D01*
X28316666Y-1183333D01*
X28350000Y-1250000D01*
X28383333Y-1383333D01*
X28383333Y-1550000D01*
X28350000Y-1683333D01*
X28316666Y-1750000D01*
X28283333Y-1783333D01*
X28216666Y-1816666D01*
X28150000Y-1816666D01*
X28083333Y-1783333D01*
X28050000Y-1750000D01*
X28016666Y-1683333D01*
X27983333Y-1550000D01*
X27983333Y-1383333D01*
X28016666Y-1250000D01*
X28050000Y-1183333D01*
X28083333Y-1150000D01*
X28150000Y-1116666D01*
G04 #@! TO.C,C19*
X24550000Y-1750000D02*
X24516666Y-1783333D01*
X24416666Y-1816666D01*
X24350000Y-1816666D01*
X24250000Y-1783333D01*
X24183333Y-1716666D01*
X24150000Y-1650000D01*
X24116666Y-1516666D01*
X24116666Y-1416666D01*
X24150000Y-1283333D01*
X24183333Y-1216666D01*
X24250000Y-1150000D01*
X24350000Y-1116666D01*
X24416666Y-1116666D01*
X24516666Y-1150000D01*
X24550000Y-1183333D01*
X25216666Y-1816666D02*
X24816666Y-1816666D01*
X25016666Y-1816666D02*
X25016666Y-1116666D01*
X24950000Y-1216666D01*
X24883333Y-1283333D01*
X24816666Y-1316666D01*
X25550000Y-1816666D02*
X25683333Y-1816666D01*
X25750000Y-1783333D01*
X25783333Y-1750000D01*
X25850000Y-1650000D01*
X25883333Y-1516666D01*
X25883333Y-1250000D01*
X25850000Y-1183333D01*
X25816666Y-1150000D01*
X25750000Y-1116666D01*
X25616666Y-1116666D01*
X25550000Y-1150000D01*
X25516666Y-1183333D01*
X25483333Y-1250000D01*
X25483333Y-1416666D01*
X25516666Y-1483333D01*
X25550000Y-1516666D01*
X25616666Y-1550000D01*
X25750000Y-1550000D01*
X25816666Y-1516666D01*
X25850000Y-1483333D01*
X25883333Y-1416666D01*
G04 #@! TO.C,C18*
X21250000Y-15950000D02*
X21283333Y-15983333D01*
X21316666Y-16083333D01*
X21316666Y-16150000D01*
X21283333Y-16250000D01*
X21216666Y-16316666D01*
X21150000Y-16350000D01*
X21016666Y-16383333D01*
X20916666Y-16383333D01*
X20783333Y-16350000D01*
X20716666Y-16316666D01*
X20650000Y-16250000D01*
X20616666Y-16150000D01*
X20616666Y-16083333D01*
X20650000Y-15983333D01*
X20683333Y-15950000D01*
X21316666Y-15283333D02*
X21316666Y-15683333D01*
X21316666Y-15483333D02*
X20616666Y-15483333D01*
X20716666Y-15550000D01*
X20783333Y-15616666D01*
X20816666Y-15683333D01*
X20916666Y-14883333D02*
X20883333Y-14950000D01*
X20850000Y-14983333D01*
X20783333Y-15016666D01*
X20750000Y-15016666D01*
X20683333Y-14983333D01*
X20650000Y-14950000D01*
X20616666Y-14883333D01*
X20616666Y-14750000D01*
X20650000Y-14683333D01*
X20683333Y-14650000D01*
X20750000Y-14616666D01*
X20783333Y-14616666D01*
X20850000Y-14650000D01*
X20883333Y-14683333D01*
X20916666Y-14750000D01*
X20916666Y-14883333D01*
X20950000Y-14950000D01*
X20983333Y-14983333D01*
X21050000Y-15016666D01*
X21183333Y-15016666D01*
X21250000Y-14983333D01*
X21283333Y-14950000D01*
X21316666Y-14883333D01*
X21316666Y-14750000D01*
X21283333Y-14683333D01*
X21250000Y-14650000D01*
X21183333Y-14616666D01*
X21050000Y-14616666D01*
X20983333Y-14650000D01*
X20950000Y-14683333D01*
X20916666Y-14750000D01*
G04 #@! TO.C,C17*
X8250000Y-2199999D02*
X8283333Y-2233333D01*
X8316666Y-2333333D01*
X8316666Y-2399999D01*
X8283333Y-2499999D01*
X8216666Y-2566666D01*
X8150000Y-2599999D01*
X8016666Y-2633333D01*
X7916666Y-2633333D01*
X7783333Y-2599999D01*
X7716666Y-2566666D01*
X7650000Y-2499999D01*
X7616666Y-2399999D01*
X7616666Y-2333333D01*
X7650000Y-2233333D01*
X7683333Y-2199999D01*
X8316666Y-1533333D02*
X8316666Y-1933333D01*
X8316666Y-1733333D02*
X7616666Y-1733333D01*
X7716666Y-1799999D01*
X7783333Y-1866666D01*
X7816666Y-1933333D01*
X7616666Y-1300000D02*
X7616666Y-833333D01*
X8316666Y-1133333D01*
G04 #@! TO.C,R32*
X45840000Y-36316666D02*
X45606666Y-35983333D01*
X45440000Y-36316666D02*
X45440000Y-35616666D01*
X45706666Y-35616666D01*
X45773333Y-35650000D01*
X45806666Y-35683333D01*
X45840000Y-35750000D01*
X45840000Y-35850000D01*
X45806666Y-35916666D01*
X45773333Y-35950000D01*
X45706666Y-35983333D01*
X45440000Y-35983333D01*
X46073333Y-35616666D02*
X46506666Y-35616666D01*
X46273333Y-35883333D01*
X46373333Y-35883333D01*
X46440000Y-35916666D01*
X46473333Y-35950000D01*
X46506666Y-36016666D01*
X46506666Y-36183333D01*
X46473333Y-36250000D01*
X46440000Y-36283333D01*
X46373333Y-36316666D01*
X46173333Y-36316666D01*
X46106666Y-36283333D01*
X46073333Y-36250000D01*
X46773333Y-35683333D02*
X46806666Y-35650000D01*
X46873333Y-35616666D01*
X47040000Y-35616666D01*
X47106666Y-35650000D01*
X47140000Y-35683333D01*
X47173333Y-35750000D01*
X47173333Y-35816666D01*
X47140000Y-35916666D01*
X46740000Y-36316666D01*
X47173333Y-36316666D01*
G04 #@! TO.C,R24*
X35065000Y-45816666D02*
X34831666Y-45483333D01*
X34665000Y-45816666D02*
X34665000Y-45116666D01*
X34931666Y-45116666D01*
X34998333Y-45150000D01*
X35031666Y-45183333D01*
X35065000Y-45250000D01*
X35065000Y-45350000D01*
X35031666Y-45416666D01*
X34998333Y-45450000D01*
X34931666Y-45483333D01*
X34665000Y-45483333D01*
X35331666Y-45183333D02*
X35365000Y-45150000D01*
X35431666Y-45116666D01*
X35598333Y-45116666D01*
X35665000Y-45150000D01*
X35698333Y-45183333D01*
X35731666Y-45250000D01*
X35731666Y-45316666D01*
X35698333Y-45416666D01*
X35298333Y-45816666D01*
X35731666Y-45816666D01*
X36331666Y-45350000D02*
X36331666Y-45816666D01*
X36165000Y-45083333D02*
X35998333Y-45583333D01*
X36431666Y-45583333D01*
G04 #@! TO.C,R29*
X45825000Y-42316666D02*
X45591666Y-41983333D01*
X45425000Y-42316666D02*
X45425000Y-41616666D01*
X45691666Y-41616666D01*
X45758333Y-41650000D01*
X45791666Y-41683333D01*
X45825000Y-41750000D01*
X45825000Y-41850000D01*
X45791666Y-41916666D01*
X45758333Y-41950000D01*
X45691666Y-41983333D01*
X45425000Y-41983333D01*
X46091666Y-41683333D02*
X46125000Y-41650000D01*
X46191666Y-41616666D01*
X46358333Y-41616666D01*
X46425000Y-41650000D01*
X46458333Y-41683333D01*
X46491666Y-41750000D01*
X46491666Y-41816666D01*
X46458333Y-41916666D01*
X46058333Y-42316666D01*
X46491666Y-42316666D01*
X46825000Y-42316666D02*
X46958333Y-42316666D01*
X47025000Y-42283333D01*
X47058333Y-42250000D01*
X47125000Y-42150000D01*
X47158333Y-42016666D01*
X47158333Y-41750000D01*
X47125000Y-41683333D01*
X47091666Y-41650000D01*
X47025000Y-41616666D01*
X46891666Y-41616666D01*
X46825000Y-41650000D01*
X46791666Y-41683333D01*
X46758333Y-41750000D01*
X46758333Y-41916666D01*
X46791666Y-41983333D01*
X46825000Y-42016666D01*
X46891666Y-42050000D01*
X47025000Y-42050000D01*
X47091666Y-42016666D01*
X47125000Y-41983333D01*
X47158333Y-41916666D01*
G04 #@! TO.C,R22*
X29816666Y-15950000D02*
X29483333Y-16183333D01*
X29816666Y-16350000D02*
X29116666Y-16350000D01*
X29116666Y-16083333D01*
X29150000Y-16016666D01*
X29183333Y-15983333D01*
X29250000Y-15950000D01*
X29350000Y-15950000D01*
X29416666Y-15983333D01*
X29450000Y-16016666D01*
X29483333Y-16083333D01*
X29483333Y-16350000D01*
X29183333Y-15683333D02*
X29150000Y-15650000D01*
X29116666Y-15583333D01*
X29116666Y-15416666D01*
X29150000Y-15350000D01*
X29183333Y-15316666D01*
X29250000Y-15283333D01*
X29316666Y-15283333D01*
X29416666Y-15316666D01*
X29816666Y-15716666D01*
X29816666Y-15283333D01*
X29183333Y-15016666D02*
X29150000Y-14983333D01*
X29116666Y-14916666D01*
X29116666Y-14750000D01*
X29150000Y-14683333D01*
X29183333Y-14650000D01*
X29250000Y-14616666D01*
X29316666Y-14616666D01*
X29416666Y-14650000D01*
X29816666Y-15050000D01*
X29816666Y-14616666D01*
G04 #@! TO.C,R7*
X12898333Y-11566666D02*
X12665000Y-11233333D01*
X12498333Y-11566666D02*
X12498333Y-10866666D01*
X12765000Y-10866666D01*
X12831666Y-10900000D01*
X12865000Y-10933333D01*
X12898333Y-11000000D01*
X12898333Y-11100000D01*
X12865000Y-11166666D01*
X12831666Y-11200000D01*
X12765000Y-11233333D01*
X12498333Y-11233333D01*
X13131666Y-10866666D02*
X13598333Y-10866666D01*
X13298333Y-11566666D01*
G04 #@! TO.C,C2*
X22250000Y-63116666D02*
X22283333Y-63150000D01*
X22316666Y-63250000D01*
X22316666Y-63316666D01*
X22283333Y-63416666D01*
X22216666Y-63483333D01*
X22150000Y-63516666D01*
X22016666Y-63550000D01*
X21916666Y-63550000D01*
X21783333Y-63516666D01*
X21716666Y-63483333D01*
X21650000Y-63416666D01*
X21616666Y-63316666D01*
X21616666Y-63250000D01*
X21650000Y-63150000D01*
X21683333Y-63116666D01*
X21683333Y-62850000D02*
X21650000Y-62816666D01*
X21616666Y-62750000D01*
X21616666Y-62583333D01*
X21650000Y-62516666D01*
X21683333Y-62483333D01*
X21750000Y-62450000D01*
X21816666Y-62450000D01*
X21916666Y-62483333D01*
X22316666Y-62883333D01*
X22316666Y-62450000D01*
G04 #@! TO.C,C1*
X9500000Y-52666666D02*
X9533333Y-52700000D01*
X9566666Y-52800000D01*
X9566666Y-52866666D01*
X9533333Y-52966666D01*
X9466666Y-53033333D01*
X9400000Y-53066666D01*
X9266666Y-53100000D01*
X9166666Y-53100000D01*
X9033333Y-53066666D01*
X8966666Y-53033333D01*
X8900000Y-52966666D01*
X8866666Y-52866666D01*
X8866666Y-52800000D01*
X8900000Y-52700000D01*
X8933333Y-52666666D01*
X9566666Y-52000000D02*
X9566666Y-52400000D01*
X9566666Y-52200000D02*
X8866666Y-52200000D01*
X8966666Y-52266666D01*
X9033333Y-52333333D01*
X9066666Y-52400000D01*
G04 #@! TO.C,C3*
X7775000Y-52666666D02*
X7808333Y-52700000D01*
X7841666Y-52800000D01*
X7841666Y-52866666D01*
X7808333Y-52966666D01*
X7741666Y-53033333D01*
X7675000Y-53066666D01*
X7541666Y-53100000D01*
X7441666Y-53100000D01*
X7308333Y-53066666D01*
X7241666Y-53033333D01*
X7175000Y-52966666D01*
X7141666Y-52866666D01*
X7141666Y-52800000D01*
X7175000Y-52700000D01*
X7208333Y-52666666D01*
X7141666Y-52433333D02*
X7141666Y-52000000D01*
X7408333Y-52233333D01*
X7408333Y-52133333D01*
X7441666Y-52066666D01*
X7475000Y-52033333D01*
X7541666Y-52000000D01*
X7708333Y-52000000D01*
X7775000Y-52033333D01*
X7808333Y-52066666D01*
X7841666Y-52133333D01*
X7841666Y-52333333D01*
X7808333Y-52400000D01*
X7775000Y-52433333D01*
G04 #@! TO.C,R1*
X7258333Y-59391666D02*
X7025000Y-59058333D01*
X6858333Y-59391666D02*
X6858333Y-58691666D01*
X7125000Y-58691666D01*
X7191666Y-58725000D01*
X7225000Y-58758333D01*
X7258333Y-58825000D01*
X7258333Y-58925000D01*
X7225000Y-58991666D01*
X7191666Y-59025000D01*
X7125000Y-59058333D01*
X6858333Y-59058333D01*
X7925000Y-59391666D02*
X7525000Y-59391666D01*
X7725000Y-59391666D02*
X7725000Y-58691666D01*
X7658333Y-58791666D01*
X7591666Y-58858333D01*
X7525000Y-58891666D01*
G04 #@! TO.C,J2*
X14466666Y-60091666D02*
X14466666Y-60591666D01*
X14433333Y-60691666D01*
X14366666Y-60758333D01*
X14266666Y-60791666D01*
X14200000Y-60791666D01*
X14766666Y-60158333D02*
X14800000Y-60125000D01*
X14866666Y-60091666D01*
X15033333Y-60091666D01*
X15100000Y-60125000D01*
X15133333Y-60158333D01*
X15166666Y-60225000D01*
X15166666Y-60291666D01*
X15133333Y-60391666D01*
X14733333Y-60791666D01*
X15166666Y-60791666D01*
G04 #@! TO.C,U3*
X42966666Y-31116666D02*
X42966666Y-31683333D01*
X43000000Y-31750000D01*
X43033333Y-31783333D01*
X43100000Y-31816666D01*
X43233333Y-31816666D01*
X43300000Y-31783333D01*
X43333333Y-31750000D01*
X43366666Y-31683333D01*
X43366666Y-31116666D01*
X43633333Y-31116666D02*
X44066666Y-31116666D01*
X43833333Y-31383333D01*
X43933333Y-31383333D01*
X44000000Y-31416666D01*
X44033333Y-31450000D01*
X44066666Y-31516666D01*
X44066666Y-31683333D01*
X44033333Y-31750000D01*
X44000000Y-31783333D01*
X43933333Y-31816666D01*
X43733333Y-31816666D01*
X43666666Y-31783333D01*
X43633333Y-31750000D01*
G04 #@! TO.C,U4*
X43466666Y-24616666D02*
X43466666Y-25183333D01*
X43500000Y-25250000D01*
X43533333Y-25283333D01*
X43600000Y-25316666D01*
X43733333Y-25316666D01*
X43800000Y-25283333D01*
X43833333Y-25250000D01*
X43866666Y-25183333D01*
X43866666Y-24616666D01*
X44500000Y-24850000D02*
X44500000Y-25316666D01*
X44333333Y-24583333D02*
X44166666Y-25083333D01*
X44600000Y-25083333D01*
G04 #@! TO.C,U2*
X29966666Y-48616666D02*
X29966666Y-49183333D01*
X30000000Y-49250000D01*
X30033333Y-49283333D01*
X30100000Y-49316666D01*
X30233333Y-49316666D01*
X30300000Y-49283333D01*
X30333333Y-49250000D01*
X30366666Y-49183333D01*
X30366666Y-48616666D01*
X30666666Y-48683333D02*
X30700000Y-48650000D01*
X30766666Y-48616666D01*
X30933333Y-48616666D01*
X31000000Y-48650000D01*
X31033333Y-48683333D01*
X31066666Y-48750000D01*
X31066666Y-48816666D01*
X31033333Y-48916666D01*
X30633333Y-49316666D01*
X31066666Y-49316666D01*
G04 #@! TO.C,D2*
X47983333Y-38566666D02*
X47983333Y-37866666D01*
X48150000Y-37866666D01*
X48250000Y-37900000D01*
X48316666Y-37966666D01*
X48350000Y-38033333D01*
X48383333Y-38166666D01*
X48383333Y-38266666D01*
X48350000Y-38400000D01*
X48316666Y-38466666D01*
X48250000Y-38533333D01*
X48150000Y-38566666D01*
X47983333Y-38566666D01*
X48650000Y-37933333D02*
X48683333Y-37900000D01*
X48750000Y-37866666D01*
X48916666Y-37866666D01*
X48983333Y-37900000D01*
X49016666Y-37933333D01*
X49050000Y-38000000D01*
X49050000Y-38066666D01*
X49016666Y-38166666D01*
X48616666Y-38566666D01*
X49050000Y-38566666D01*
G04 #@! TO.C,J5*
X54616666Y-45733333D02*
X55116666Y-45733333D01*
X55216666Y-45766666D01*
X55283333Y-45833333D01*
X55316666Y-45933333D01*
X55316666Y-46000000D01*
X54616666Y-45066666D02*
X54616666Y-45400000D01*
X54950000Y-45433333D01*
X54916666Y-45400000D01*
X54883333Y-45333333D01*
X54883333Y-45166666D01*
X54916666Y-45100000D01*
X54950000Y-45066666D01*
X55016666Y-45033333D01*
X55183333Y-45033333D01*
X55250000Y-45066666D01*
X55283333Y-45100000D01*
X55316666Y-45166666D01*
X55316666Y-45333333D01*
X55283333Y-45400000D01*
X55250000Y-45433333D01*
G04 #@! TO.C,J10*
X54616666Y-20566666D02*
X55116666Y-20566666D01*
X55216666Y-20600000D01*
X55283333Y-20666666D01*
X55316666Y-20766666D01*
X55316666Y-20833333D01*
X55316666Y-19866666D02*
X55316666Y-20266666D01*
X55316666Y-20066666D02*
X54616666Y-20066666D01*
X54716666Y-20133333D01*
X54783333Y-20200000D01*
X54816666Y-20266666D01*
X54616666Y-19433333D02*
X54616666Y-19366666D01*
X54650000Y-19300000D01*
X54683333Y-19266666D01*
X54750000Y-19233333D01*
X54883333Y-19200000D01*
X55050000Y-19200000D01*
X55183333Y-19233333D01*
X55250000Y-19266666D01*
X55283333Y-19300000D01*
X55316666Y-19366666D01*
X55316666Y-19433333D01*
X55283333Y-19500000D01*
X55250000Y-19533333D01*
X55183333Y-19566666D01*
X55050000Y-19600000D01*
X54883333Y-19600000D01*
X54750000Y-19566666D01*
X54683333Y-19533333D01*
X54650000Y-19500000D01*
X54616666Y-19433333D01*
G04 #@! TD*
M02*
