G04 #@! TF.GenerationSoftware,KiCad,Pcbnew,5.0.2+dfsg1-1~bpo9+1*
G04 #@! TF.CreationDate,2019-11-04T18:03:59+01:00*
G04 #@! TF.ProjectId,zglue-demo-board,7a676c75-652d-4646-956d-6f2d626f6172,rev?*
G04 #@! TF.SameCoordinates,Original*
G04 #@! TF.FileFunction,Copper,L4,Inr*
G04 #@! TF.FilePolarity,Positive*
%FSLAX46Y46*%
G04 Gerber Fmt 4.6, Leading zero omitted, Abs format (unit mm)*
G04 Created by KiCad (PCBNEW 5.0.2+dfsg1-1~bpo9+1) date Mon 04 Nov 2019 06:03:59 PM CET*
%MOMM*%
%LPD*%
G01*
G04 APERTURE LIST*
G04 #@! TA.AperFunction,ViaPad*
%ADD10C,0.500000*%
G04 #@! TD*
G04 #@! TA.AperFunction,ViaPad*
%ADD11C,2.000000*%
G04 #@! TD*
G04 #@! TA.AperFunction,ViaPad*
%ADD12C,0.550000*%
G04 #@! TD*
G04 #@! TA.AperFunction,Conductor*
%ADD13C,0.250000*%
G04 #@! TD*
G04 #@! TA.AperFunction,Conductor*
%ADD14C,0.200000*%
G04 #@! TD*
G04 #@! TA.AperFunction,Conductor*
%ADD15C,0.150000*%
G04 #@! TD*
G04 APERTURE END LIST*
D10*
G04 #@! TO.N,GND*
G04 #@! TO.C,U6*
X26350000Y-11200000D03*
X24950000Y-11200000D03*
X23550000Y-11200000D03*
X22150000Y-11200000D03*
X26350000Y-9800000D03*
X24950000Y-9800000D03*
X23550000Y-9800000D03*
X22150000Y-9800000D03*
X26350000Y-8400000D03*
X24950000Y-8400000D03*
X23550000Y-8400000D03*
X22150000Y-8400000D03*
X26350000Y-7000000D03*
X24950000Y-7000000D03*
X23550000Y-7000000D03*
X22150000Y-7000000D03*
G04 #@! TD*
D11*
G04 #@! TO.N,Net-(J4-Pad40)*
G04 #@! TO.C,J4*
X2230000Y-8870000D03*
G04 #@! TO.N,GND*
X4770000Y-8870000D03*
G04 #@! TO.N,Net-(J4-Pad38)*
X2230000Y-11410000D03*
G04 #@! TO.N,Net-(J4-Pad37)*
X4770000Y-11410000D03*
G04 #@! TO.N,Net-(J4-Pad36)*
X2230000Y-13950000D03*
G04 #@! TO.N,Net-(J4-Pad35)*
X4770000Y-13950000D03*
G04 #@! TO.N,GND*
X2230000Y-16490000D03*
G04 #@! TO.N,Net-(J4-Pad33)*
X4770000Y-16490000D03*
G04 #@! TO.N,Net-(J4-Pad32)*
X2230000Y-19030000D03*
G04 #@! TO.N,Net-(J4-Pad31)*
X4770000Y-19030000D03*
G04 #@! TO.N,GND*
X2230000Y-21570000D03*
G04 #@! TO.N,Net-(J4-Pad29)*
X4770000Y-21570000D03*
G04 #@! TO.N,Net-(J4-Pad28)*
X2230000Y-24110000D03*
G04 #@! TO.N,Net-(J4-Pad27)*
X4770000Y-24110000D03*
G04 #@! TO.N,Net-(J4-Pad26)*
X2230000Y-26650000D03*
G04 #@! TO.N,GND*
X4770000Y-26650000D03*
G04 #@! TO.N,Net-(J4-Pad24)*
X2230000Y-29190000D03*
G04 #@! TO.N,Net-(J4-Pad23)*
X4770000Y-29190000D03*
G04 #@! TO.N,Net-(J4-Pad22)*
X2230000Y-31730000D03*
G04 #@! TO.N,Net-(J4-Pad21)*
X4770000Y-31730000D03*
G04 #@! TO.N,GND*
X2230000Y-34270000D03*
G04 #@! TO.N,Net-(J4-Pad19)*
X4770000Y-34270000D03*
G04 #@! TO.N,Net-(J4-Pad18)*
X2230000Y-36810000D03*
G04 #@! TO.N,Net-(J4-Pad1)*
X4770000Y-36810000D03*
G04 #@! TO.N,Net-(J4-Pad16)*
X2230000Y-39350000D03*
G04 #@! TO.N,Net-(J4-Pad15)*
X4770000Y-39350000D03*
G04 #@! TO.N,GND*
X2230000Y-41890000D03*
G04 #@! TO.N,Net-(J4-Pad13)*
X4770000Y-41890000D03*
G04 #@! TO.N,Net-(J4-Pad12)*
X2230000Y-44430000D03*
G04 #@! TO.N,Net-(J4-Pad11)*
X4770000Y-44430000D03*
G04 #@! TO.N,Net-(J4-Pad10)*
X2230000Y-46970000D03*
G04 #@! TO.N,GND*
X4770000Y-46970000D03*
G04 #@! TO.N,Net-(J4-Pad8)*
X2230000Y-49510000D03*
G04 #@! TO.N,Net-(J4-Pad7)*
X4770000Y-49510000D03*
G04 #@! TO.N,GND*
X2230000Y-52050000D03*
G04 #@! TO.N,Net-(J4-Pad5)*
X4770000Y-52050000D03*
G04 #@! TO.N,/5V0_IN*
X2230000Y-54590000D03*
G04 #@! TO.N,Net-(J4-Pad3)*
X4770000Y-54590000D03*
G04 #@! TO.N,/5V0_IN*
X2230000Y-57130000D03*
G04 #@! TO.N,Net-(J4-Pad1)*
X4770000Y-57130000D03*
G04 #@! TD*
D12*
G04 #@! TO.N,/CSI_CLK_IN_N*
X43641351Y-45388649D03*
X23278649Y-28798649D03*
G04 #@! TO.N,GND*
X24500000Y-14750000D03*
X18750000Y-12500000D03*
X18750000Y-11500000D03*
X16500000Y-6750000D03*
X17500000Y-6750000D03*
X18750000Y-5250000D03*
X18750000Y-10250000D03*
X18835883Y-7335883D03*
X8000000Y-5250000D03*
X21000000Y-18750000D03*
X32000000Y-9500000D03*
X33000000Y-13250000D03*
X30000000Y-12000000D03*
X31000000Y-1500000D03*
X29250000Y-750000D03*
X28000000Y-1500000D03*
X25500000Y-1500000D03*
X21500000Y-1500000D03*
X27000000Y-3750000D03*
X30000000Y-5750000D03*
X32000000Y-5500000D03*
X33750000Y-63750000D03*
X7500000Y-53500000D03*
X9250000Y-53500000D03*
X25500000Y-44250000D03*
X25500000Y-48750000D03*
X46500000Y-46750000D03*
X43500000Y-46750000D03*
X40500000Y-46750000D03*
X37500000Y-46750000D03*
X16500000Y-11250000D03*
X17500000Y-11250000D03*
X13000000Y-6250000D03*
X51250000Y-35750000D03*
X51000000Y-44250000D03*
X49750000Y-38100000D03*
X49500000Y-39000000D03*
X51000000Y-21250000D03*
X50750000Y-30500000D03*
X48750000Y-23750000D03*
X48750000Y-24750000D03*
X37500000Y-16500000D03*
X40500000Y-16500000D03*
X43500000Y-16500000D03*
X41500000Y-24750000D03*
X41500000Y-26000000D03*
X42000000Y-30500000D03*
X16100000Y-31300000D03*
X23200000Y-27500000D03*
X19600000Y-28200000D03*
X23500000Y-31200000D03*
X23300000Y-33700000D03*
X22400000Y-34300000D03*
X22400000Y-35700000D03*
X32300000Y-28200000D03*
X32700000Y-29000000D03*
X30900000Y-31800000D03*
X33600000Y-32800000D03*
X32800000Y-35000000D03*
X33600000Y-35800000D03*
X39900000Y-37800000D03*
X40100000Y-34700000D03*
X40100000Y-31500000D03*
X40600000Y-20000000D03*
X47200000Y-22700000D03*
X47100000Y-29500000D03*
X47490000Y-40037510D03*
X13800000Y-14400000D03*
X9900000Y-17300000D03*
X31600000Y-46375013D03*
X47558420Y-26534458D03*
X46500000Y-19500000D03*
X15739117Y-5989117D03*
X9700000Y-26600000D03*
X9400000Y-39800000D03*
X21650000Y-64650000D03*
X15900000Y-33125010D03*
X4750000Y-6650000D03*
X4800000Y-1100000D03*
X5950000Y-60700000D03*
X6900000Y-59150000D03*
G04 #@! TO.N,/CSI_D2_IN_P*
X37190000Y-44672500D03*
X23248649Y-32161351D03*
G04 #@! TO.N,/CSI_D2_IN_N*
X37190000Y-45347500D03*
X22771351Y-32638649D03*
G04 #@! TO.N,/CSI_D1_IN_P*
X39708649Y-46388649D03*
X22961351Y-29831351D03*
G04 #@! TO.N,/CSI_D1_IN_N*
X39231351Y-45911351D03*
X23438649Y-30308649D03*
G04 #@! TO.N,/CSI_CLK_IN_P*
X44118649Y-44911351D03*
X22801351Y-28321351D03*
G04 #@! TO.N,/CAM_GPIO*
X47500000Y-49250000D03*
X47500000Y-16000000D03*
G04 #@! TO.N,/CAM_CLK*
X48500000Y-49250000D03*
X48500000Y-16000000D03*
G04 #@! TO.N,/CAM_SCL*
X49500000Y-49250000D03*
X49500000Y-16000000D03*
G04 #@! TO.N,/CAM_SDA*
X50500000Y-49250000D03*
X50500000Y-16000000D03*
G04 #@! TO.N,/3V3_SYS*
X16800000Y-45100000D03*
X11500000Y-45100000D03*
X22300000Y-45100000D03*
X26900000Y-31900000D03*
X51400000Y-15400000D03*
X51400000Y-49400000D03*
X33600000Y-24900000D03*
G04 #@! TO.N,/CSI_CLK_OUT_P*
X37088649Y-29511351D03*
X45337500Y-15750000D03*
G04 #@! TO.N,/CSI_D1_OUT_N*
X31701351Y-29958649D03*
X38582500Y-19970000D03*
G04 #@! TO.N,/CSI_D1_OUT_P*
X32178649Y-29481351D03*
X39257500Y-19970000D03*
G04 #@! TO.N,/CSI_D2_OUT_N*
X32528649Y-32658649D03*
X41682500Y-19830000D03*
G04 #@! TO.N,/CSI_D2_OUT_P*
X32051351Y-32181351D03*
X42357500Y-19830000D03*
G04 #@! TO.N,/CSI_CLK_OUT_N*
X36611351Y-29988649D03*
X44662500Y-15750000D03*
G04 #@! TO.N,/PROG_USB_D_N*
X18354986Y-8755162D03*
X47197079Y-27104610D03*
G04 #@! TO.N,/PROG_USB_D_P*
X18839654Y-9224990D03*
X47200000Y-25900000D03*
G04 #@! TO.N,/5V0_DBG_USB*
X34600000Y-6500000D03*
X49000000Y-30600000D03*
G04 #@! TO.N,/USB_D_N*
X23538649Y-36338649D03*
X46800000Y-40237500D03*
G04 #@! TO.N,/USB_D_P*
X23061351Y-35861351D03*
X46800000Y-39562500D03*
G04 #@! TO.N,/E_PROC_SO_3V3*
X43800000Y-19400000D03*
X17400000Y-23300000D03*
G04 #@! TO.N,/E_PROC_SI_3V3*
X43200000Y-19800000D03*
X18600000Y-23300000D03*
G04 #@! TO.N,/E_PROC_SS_3V3*
X46400000Y-20200000D03*
X19600000Y-26300000D03*
G04 #@! TO.N,/E_PROC_SCK_3V3*
X45800000Y-19500000D03*
X16300000Y-23400000D03*
G04 #@! TO.N,/E_CTRL_SS_3V3*
X26250000Y-21000000D03*
X27500000Y-18750000D03*
X46000000Y-26400000D03*
X26600000Y-27800000D03*
G04 #@! TO.N,/E_CTRL_SO_3V3*
X44100000Y-26300000D03*
X25000000Y-27300000D03*
G04 #@! TO.N,/E_PROC_RST_3V3*
X27300000Y-23200000D03*
X22000000Y-23300000D03*
G04 #@! TO.N,/1V8_SYS*
X11100000Y-35700000D03*
X14200000Y-44300000D03*
X19100000Y-44300000D03*
X18200000Y-46500000D03*
X7625010Y-46502963D03*
G04 #@! TO.N,/E_CTRL_SI_3V3*
X42400000Y-26600000D03*
X28100000Y-26800000D03*
G04 #@! TO.N,/E_CTRL_SCK_3V3*
X46300000Y-25700000D03*
X24000000Y-27400000D03*
G04 #@! TO.N,Net-(R7-Pad1)*
X20700000Y-3800000D03*
X15400000Y-11200000D03*
G04 #@! TO.N,Net-(R6-Pad1)*
X11500000Y-12000000D03*
X14750000Y-13500000D03*
X21403749Y-3498126D03*
G04 #@! TO.N,Net-(R5-Pad2)*
X9800000Y-10400000D03*
X22300000Y-3400000D03*
G04 #@! TO.N,/VUSB*
X47750000Y-45750000D03*
X50250000Y-45750000D03*
X50500000Y-32750000D03*
X47500000Y-32750000D03*
X23000000Y-37600000D03*
X22900000Y-38800000D03*
X14960000Y-40630000D03*
X16100000Y-58650000D03*
X16050000Y-59800000D03*
G04 #@! TO.N,/5V0_IN*
X7500000Y-56500000D03*
X6680494Y-55961746D03*
X11850000Y-57600000D03*
X11850000Y-59800000D03*
X8150000Y-59100000D03*
X9100000Y-60650000D03*
G04 #@! TO.N,/VCCIO1*
X31600000Y-45700000D03*
X22900000Y-44300000D03*
X24600000Y-47000000D03*
G04 #@! TO.N,Net-(R25-Pad2)*
X29000000Y-48500000D03*
X32000000Y-44200000D03*
G04 #@! TO.N,Net-(R30-Pad2)*
X45484655Y-34095345D03*
X42950000Y-25080000D03*
G04 #@! TO.N,Net-(R31-Pad2)*
X45560000Y-35040000D03*
X43680000Y-25260000D03*
G04 #@! TO.N,Net-(R32-Pad2)*
X45560000Y-36010000D03*
X44500000Y-25260000D03*
G04 #@! TO.N,Net-(R33-Pad2)*
X45600000Y-37000000D03*
X45400000Y-25260000D03*
G04 #@! TO.N,/VCCIO3*
X42300000Y-24100000D03*
X47100000Y-21800000D03*
X10200000Y-42800000D03*
X47100000Y-30900000D03*
G04 #@! TO.N,/VCCIO2*
X42400000Y-29900000D03*
X47100000Y-28700000D03*
X15500000Y-43700000D03*
G04 #@! TO.N,Net-(R29-Pad2)*
X45700000Y-42000000D03*
X47600000Y-38500000D03*
G04 #@! TO.N,/TMS*
X16000000Y-29250000D03*
X27500000Y-58000000D03*
G04 #@! TO.N,/TCK*
X15500000Y-29750000D03*
X28750000Y-58000000D03*
X26900000Y-57400000D03*
G04 #@! TO.N,/TDO*
X15500000Y-28750000D03*
X30000000Y-58000000D03*
G04 #@! TO.N,/TDI*
X16000000Y-28250000D03*
X31250000Y-58000000D03*
G04 #@! TO.N,/LED3_ISINK*
X8400000Y-28650000D03*
X19350000Y-33400000D03*
G04 #@! TO.N,/LED2_ISINK*
X9650000Y-28650000D03*
X19400000Y-32650000D03*
G04 #@! TO.N,/LED1_ISINK*
X7150000Y-28650000D03*
X18800000Y-32050000D03*
G04 #@! TO.N,/PWR_BTN*
X14749199Y-17749199D03*
X5350000Y-5800000D03*
G04 #@! TO.N,/DBG_RX*
X15500000Y-30750000D03*
X32000000Y-20500000D03*
G04 #@! TO.N,/DBG_TX*
X16000000Y-30250000D03*
X31500000Y-19250000D03*
G04 #@! TO.N,/CTRL_OUT*
X32850000Y-57400000D03*
X16600000Y-64700000D03*
G04 #@! TO.N,/PROC_OUT_0*
X9650000Y-32400000D03*
X31539444Y-40875000D03*
G04 #@! TO.N,/PROC_OUT_1*
X8400000Y-32400000D03*
X33100000Y-41750000D03*
G04 #@! TO.N,/PROC_OUT_2*
X7150000Y-32400000D03*
X32250000Y-41750000D03*
G04 #@! TO.N,/E_PROC_RST*
X35200000Y-46000000D03*
X37700000Y-28300000D03*
G04 #@! TO.N,/CTRL_RST_FLASH_SOC_CS*
X35200000Y-47100000D03*
X37700000Y-31300000D03*
X8500000Y-19000000D03*
G04 #@! TO.N,/DONE*
X35275010Y-44200000D03*
X37400000Y-34200000D03*
X13500000Y-18900000D03*
G04 #@! TO.N,/FLASH_CLK*
X36759637Y-34900000D03*
X13600000Y-26600000D03*
G04 #@! TO.N,/FLASH_CS*
X37400000Y-35200000D03*
X9700000Y-19000000D03*
G04 #@! TO.N,/FLASH_IO0*
X36839365Y-35850587D03*
X11100000Y-26600000D03*
G04 #@! TO.N,/FLASH_IO1*
X37362623Y-36277000D03*
X11000000Y-19000000D03*
G04 #@! TO.N,/FLASH_IO2*
X36922702Y-36822702D03*
X32800000Y-36900000D03*
X12000000Y-27200000D03*
G04 #@! TO.N,/FLASH_IO3*
X37400000Y-37300000D03*
X32800000Y-37800000D03*
X12300000Y-18300000D03*
G04 #@! TO.N,/VCCIO*
X27500000Y-14500000D03*
X32000000Y-15000000D03*
X20300000Y-17000000D03*
X32900000Y-10000000D03*
X24500000Y-1500000D03*
G04 #@! TO.N,Net-(R9-Pad2)*
X18250000Y-6250000D03*
X21000000Y-7750000D03*
G04 #@! TO.N,Net-(R14-Pad1)*
X20250000Y-16000000D03*
X22500000Y-16000000D03*
G04 #@! TO.N,/3V3_FTDI*
X8000000Y-14400000D03*
X11500000Y-17100000D03*
X9800000Y-11300000D03*
X16600000Y-13500000D03*
X32200000Y-11000000D03*
G04 #@! TO.N,/1V8_FTDI*
X28700000Y-3900000D03*
X27100000Y-1600000D03*
X19600000Y-2500000D03*
X29900000Y-11200000D03*
X18200000Y-10900000D03*
X18900000Y-4500000D03*
G04 #@! TO.N,/CTRL_RST_FLASH_SOC_CS_3V3*
X27400000Y-44200000D03*
X30669474Y-44175010D03*
G04 #@! TO.N,Net-(D6-Pad2)*
X10380000Y-39770000D03*
X12240000Y-39690000D03*
G04 #@! TO.N,Net-(D7-Pad2)*
X13300000Y-64650000D03*
X15650000Y-61550000D03*
G04 #@! TO.N,Net-(D11-Pad2)*
X20150000Y-60900000D03*
X8400000Y-34900000D03*
G04 #@! TO.N,Net-(D8-Pad2)*
X24150000Y-60900000D03*
X7150000Y-31150000D03*
G04 #@! TO.N,Net-(D10-Pad2)*
X24150000Y-59150000D03*
X9650000Y-31150000D03*
G04 #@! TO.N,Net-(D13-Pad2)*
X20150000Y-62650000D03*
X7150000Y-34900000D03*
G04 #@! TO.N,Net-(D12-Pad2)*
X24150000Y-62650000D03*
X8400000Y-31150000D03*
G04 #@! TO.N,Net-(D9-Pad2)*
X20150000Y-59150000D03*
X9650000Y-34900000D03*
G04 #@! TD*
D13*
G04 #@! TO.N,/5V0_DBG_USB*
X34600000Y-6500000D02*
X44900000Y-6500000D01*
X44900000Y-6500000D02*
X53400000Y-15000000D01*
X53400000Y-15000000D02*
X53400000Y-25000000D01*
X53400000Y-25000000D02*
X49000000Y-29400000D01*
X49000000Y-29400000D02*
X49000000Y-30600000D01*
D14*
G04 #@! TO.N,/USB_D_N*
X23538649Y-36091161D02*
X23767310Y-35862500D01*
X23538649Y-36338649D02*
X23538649Y-36091161D01*
X23767310Y-35862500D02*
X26832690Y-35862500D01*
X26832690Y-35862500D02*
X31032690Y-40062500D01*
X46625000Y-40062500D02*
X46800000Y-40237500D01*
X31032690Y-40062500D02*
X46625000Y-40062500D01*
G04 #@! TO.N,/USB_D_P*
X23632690Y-35537500D02*
X26967310Y-35537500D01*
X31167310Y-39737500D02*
X46625000Y-39737500D01*
X23308839Y-35861351D02*
X23632690Y-35537500D01*
X26967310Y-35537500D02*
X31167310Y-39737500D01*
X23061351Y-35861351D02*
X23308839Y-35861351D01*
X46625000Y-39737500D02*
X46800000Y-39562500D01*
D15*
G04 #@! TO.N,/E_PROC_SO_3V3*
X30300000Y-25400000D02*
X19500000Y-25400000D01*
X19500000Y-25400000D02*
X18000000Y-23900000D01*
X34600000Y-21100000D02*
X30300000Y-25400000D01*
X18000000Y-23900000D02*
X17400000Y-23300000D01*
X43800000Y-19400000D02*
X44000000Y-19600000D01*
X43974999Y-20025001D02*
X42900000Y-21100000D01*
X42900000Y-21100000D02*
X34600000Y-21100000D01*
X44000000Y-19600000D02*
X44000000Y-20025001D01*
X44000000Y-20025001D02*
X43974999Y-20025001D01*
G04 #@! TO.N,/E_PROC_SI_3V3*
X18900000Y-23600000D02*
X18600000Y-23300000D01*
X20300000Y-25000000D02*
X18900000Y-23600000D01*
X43200000Y-19800000D02*
X43200000Y-20400000D01*
X30200000Y-25000000D02*
X20300000Y-25000000D01*
X34400000Y-20800000D02*
X30200000Y-25000000D01*
X43200000Y-20400000D02*
X42800000Y-20800000D01*
X42800000Y-20800000D02*
X34400000Y-20800000D01*
G04 #@! TO.N,/E_PROC_SS_3V3*
X46400000Y-20200000D02*
X46011092Y-20200000D01*
X46011092Y-20200000D02*
X45000000Y-20200000D01*
X45000000Y-20200000D02*
X43500000Y-21700000D01*
X43500000Y-21700000D02*
X42200000Y-21700000D01*
X42200000Y-21700000D02*
X35200000Y-21700000D01*
X35200000Y-21700000D02*
X33800000Y-23100000D01*
X33800000Y-23100000D02*
X30700000Y-26200000D01*
X19700000Y-26200000D02*
X19600000Y-26300000D01*
X30700000Y-26200000D02*
X19700000Y-26200000D01*
G04 #@! TO.N,/E_PROC_SCK_3V3*
X16600000Y-23700000D02*
X16300000Y-23400000D01*
X30500000Y-25800000D02*
X18700000Y-25800000D01*
X18700000Y-25800000D02*
X16600000Y-23700000D01*
X45800000Y-19500000D02*
X45000000Y-19500000D01*
X34900000Y-21400000D02*
X30500000Y-25800000D01*
X45000000Y-19500000D02*
X43100000Y-21400000D01*
X43100000Y-21400000D02*
X34900000Y-21400000D01*
G04 #@! TO.N,/E_CTRL_SS_3V3*
X45400000Y-26400000D02*
X44400000Y-27400000D01*
X46000000Y-26400000D02*
X45400000Y-26400000D01*
X29600000Y-27400000D02*
X28700000Y-27400000D01*
X44400000Y-27400000D02*
X29600000Y-27400000D01*
X29600000Y-27400000D02*
X29500000Y-27400000D01*
X28300000Y-27800000D02*
X26600000Y-27800000D01*
X28700000Y-27400000D02*
X28300000Y-27800000D01*
G04 #@! TO.N,/E_CTRL_SO_3V3*
X44100000Y-26300000D02*
X43275011Y-27124989D01*
X43275011Y-27124989D02*
X29386086Y-27124990D01*
X29386086Y-27124990D02*
X28575010Y-27124990D01*
X28575010Y-27124990D02*
X28400000Y-27300000D01*
X28400000Y-27300000D02*
X25000000Y-27300000D01*
G04 #@! TO.N,/E_PROC_RST_3V3*
X27200000Y-23300000D02*
X27300000Y-23200000D01*
X22000000Y-23300000D02*
X27200000Y-23300000D01*
G04 #@! TO.N,/E_CTRL_SI_3V3*
X42400000Y-26600000D02*
X42200000Y-26800000D01*
X29600000Y-26800000D02*
X28900000Y-26800000D01*
X42200000Y-26800000D02*
X29600000Y-26800000D01*
X29600000Y-26800000D02*
X29500000Y-26800000D01*
X28900000Y-26800000D02*
X28100000Y-26800000D01*
G04 #@! TO.N,/E_CTRL_SCK_3V3*
X28100000Y-28400000D02*
X25000000Y-28400000D01*
X25000000Y-28400000D02*
X24000000Y-27400000D01*
X46300000Y-25700000D02*
X46500000Y-25900000D01*
X46500000Y-25900000D02*
X46500000Y-26800000D01*
X46500000Y-26800000D02*
X45600000Y-27700000D01*
X28800000Y-27700000D02*
X28100000Y-28400000D01*
X45600000Y-27700000D02*
X28800000Y-27700000D01*
G04 #@! TO.N,/VCCIO1*
X30300000Y-47000000D02*
X31600000Y-45700000D01*
X24600000Y-47000000D02*
X30300000Y-47000000D01*
G04 #@! TO.N,/VCCIO3*
X10474999Y-43074999D02*
X15574999Y-43074999D01*
X10200000Y-42800000D02*
X10474999Y-43074999D01*
X15574999Y-43074999D02*
X15800000Y-43300000D01*
X15800000Y-43300000D02*
X46800000Y-43300000D01*
X46800000Y-43300000D02*
X48400000Y-41700000D01*
X48400000Y-41700000D02*
X48400000Y-31400000D01*
X48400000Y-31400000D02*
X47900000Y-30900000D01*
X47900000Y-30900000D02*
X47100000Y-30900000D01*
G04 #@! TO.N,/VCCIO2*
X42400000Y-29900000D02*
X42400000Y-29500000D01*
X42400000Y-29500000D02*
X43200000Y-28700000D01*
X43200000Y-28700000D02*
X47100000Y-28700000D01*
X15500000Y-43700000D02*
X46788924Y-43700000D01*
X46788924Y-43700000D02*
X48675011Y-41813913D01*
X48675011Y-41813913D02*
X48675010Y-31286086D01*
X47374999Y-28974999D02*
X47100000Y-28700000D01*
X48300000Y-29900000D02*
X47374999Y-28974999D01*
X48300000Y-30911076D02*
X48300000Y-29900000D01*
X48675010Y-31286086D02*
X48300000Y-30911076D01*
G04 #@! TO.N,/PWR_BTN*
X14749199Y-17360291D02*
X9688908Y-12300000D01*
X14749199Y-17749199D02*
X14749199Y-17360291D01*
X6950000Y-9561092D02*
X6950000Y-7600000D01*
X9688908Y-12300000D02*
X6950000Y-9561092D01*
X5350000Y-6000000D02*
X5350000Y-5800000D01*
X6950000Y-7600000D02*
X5350000Y-6000000D01*
G04 #@! TO.N,/CTRL_OUT*
X32850000Y-57400000D02*
X32850000Y-59400000D01*
X28075001Y-64174999D02*
X17125001Y-64174999D01*
X32850000Y-59400000D02*
X28075001Y-64174999D01*
X17125001Y-64174999D02*
X16600000Y-64700000D01*
G04 #@! TO.N,/PROC_OUT_0*
X9650000Y-32400000D02*
X13200000Y-32400000D01*
X13200000Y-32400000D02*
X21850000Y-41050000D01*
X21850000Y-41050000D02*
X30800000Y-41050000D01*
X30975000Y-40875000D02*
X31539444Y-40875000D01*
X30800000Y-41050000D02*
X30975000Y-40875000D01*
G04 #@! TO.N,/PROC_OUT_1*
X8400000Y-32788908D02*
X8761092Y-33150000D01*
X8400000Y-32400000D02*
X8400000Y-32788908D01*
X8761092Y-33150000D02*
X13450000Y-33150000D01*
X13450000Y-33150000D02*
X13550000Y-33150000D01*
X21411078Y-41000000D02*
X21761078Y-41350000D01*
X21400000Y-41000000D02*
X21411078Y-41000000D01*
X13550000Y-33150000D02*
X21400000Y-41000000D01*
X21761078Y-41350000D02*
X29950000Y-41350000D01*
X31988922Y-41350000D02*
X32063923Y-41274999D01*
X32063923Y-41274999D02*
X32624999Y-41274999D01*
X29950000Y-41350000D02*
X31988922Y-41350000D01*
X32624999Y-41274999D02*
X33100000Y-41750000D01*
G04 #@! TO.N,/PROC_OUT_2*
X7150000Y-32788908D02*
X7786102Y-33425010D01*
X7786102Y-33425010D02*
X8647180Y-33425010D01*
X7150000Y-32400000D02*
X7150000Y-32788908D01*
X8647180Y-33425010D02*
X13425010Y-33425010D01*
X13425010Y-33425010D02*
X21625010Y-41625010D01*
X24974990Y-41750000D02*
X32250000Y-41750000D01*
X24850000Y-41625010D02*
X24974990Y-41750000D01*
X21625010Y-41625010D02*
X24850000Y-41625010D01*
X24850000Y-41625010D02*
X25425010Y-41625010D01*
G04 #@! TO.N,/CTRL_RST_FLASH_SOC_CS*
X37700000Y-31300000D02*
X25200000Y-31300000D01*
X23173650Y-29273650D02*
X19473650Y-29273650D01*
X25200000Y-31300000D02*
X23173650Y-29273650D01*
X19473650Y-29273650D02*
X14400000Y-24200000D01*
X14400000Y-24200000D02*
X14400000Y-18900000D01*
X13275001Y-17775001D02*
X9624999Y-17775001D01*
X14400000Y-18900000D02*
X13275001Y-17775001D01*
X8500000Y-18900000D02*
X8500000Y-19000000D01*
X9624999Y-17775001D02*
X8500000Y-18900000D01*
G04 #@! TO.N,/DONE*
X37011092Y-34200000D02*
X36211092Y-33400000D01*
X37400000Y-34200000D02*
X37011092Y-34200000D01*
X23465301Y-31675001D02*
X21375001Y-31675001D01*
X25190300Y-33400000D02*
X23465301Y-31675001D01*
X36211092Y-33400000D02*
X25190300Y-33400000D01*
X21375001Y-31675001D02*
X13500000Y-23800000D01*
X13500000Y-23800000D02*
X13500000Y-18900000D01*
G04 #@! TO.N,/FLASH_CLK*
X35448101Y-33675010D02*
X33424990Y-33675010D01*
X36759637Y-34986546D02*
X35448101Y-33675010D01*
X33424990Y-33675010D02*
X26500000Y-33675010D01*
X26500000Y-33675010D02*
X24675010Y-33675010D01*
X26500000Y-33675010D02*
X26300000Y-33675010D01*
X24113650Y-33113650D02*
X22999352Y-33113650D01*
X24675010Y-33675010D02*
X24113650Y-33113650D01*
X22999352Y-33113650D02*
X22313650Y-33113650D01*
X22313650Y-33113650D02*
X15800000Y-26600000D01*
X15800000Y-26600000D02*
X13600000Y-26600000D01*
G04 #@! TO.N,/FLASH_CS*
X37162639Y-35200000D02*
X36987638Y-35375001D01*
X36987638Y-35375001D02*
X36363793Y-35375001D01*
X37400000Y-35200000D02*
X37162639Y-35200000D01*
X36363793Y-35375001D02*
X35388792Y-34400000D01*
X35388792Y-34400000D02*
X23200000Y-34400000D01*
X15875001Y-27075001D02*
X12775001Y-27075001D01*
X23200000Y-34400000D02*
X15875001Y-27075001D01*
X11975001Y-26275001D02*
X11975001Y-18975001D01*
X12775001Y-27075001D02*
X11975001Y-26275001D01*
X11975001Y-18975001D02*
X11200000Y-18200000D01*
X11200000Y-18200000D02*
X10200000Y-18200000D01*
X9700000Y-18700000D02*
X9700000Y-19000000D01*
X10200000Y-18200000D02*
X9700000Y-18700000D01*
G04 #@! TO.N,/FLASH_IO0*
X36450457Y-35850587D02*
X35899870Y-35300000D01*
X36839365Y-35850587D02*
X36450457Y-35850587D01*
X35899870Y-35300000D02*
X33203002Y-35300000D01*
X33028001Y-35475001D02*
X33024999Y-35475001D01*
X33203002Y-35300000D02*
X33028001Y-35475001D01*
X33024999Y-35475001D02*
X32500000Y-36000000D01*
X32500000Y-36000000D02*
X29488922Y-36000000D01*
X28263923Y-34775001D02*
X22628001Y-34775001D01*
X29488922Y-36000000D02*
X28263923Y-34775001D01*
X22628001Y-34775001D02*
X19775001Y-34775001D01*
X19775001Y-34775001D02*
X17000000Y-32000000D01*
X17000000Y-32000000D02*
X15900000Y-32000000D01*
X15900000Y-32000000D02*
X11100000Y-27200000D01*
X11100000Y-27200000D02*
X11100000Y-26600000D01*
G04 #@! TO.N,/FLASH_IO1*
X28200000Y-35100000D02*
X19700000Y-35100000D01*
X37362623Y-36277000D02*
X37115954Y-36277000D01*
X29425588Y-36325588D02*
X28200000Y-35100000D01*
X37115954Y-36277000D02*
X37067366Y-36325588D01*
X37067366Y-36325588D02*
X29425588Y-36325588D01*
X18700000Y-34100000D02*
X17000000Y-32400000D01*
X19700000Y-35100000D02*
X18700000Y-34100000D01*
X18700000Y-34100000D02*
X18600000Y-34000000D01*
X17000000Y-32400000D02*
X16900000Y-32300000D01*
X16900000Y-32300000D02*
X15300000Y-32300000D01*
X15300000Y-32300000D02*
X10500000Y-27500000D01*
X10500000Y-27500000D02*
X10500000Y-24400000D01*
X10500000Y-24400000D02*
X11000000Y-23900000D01*
X11000000Y-23900000D02*
X11000000Y-19000000D01*
G04 #@! TO.N,/FLASH_IO2*
X32877298Y-36822702D02*
X32800000Y-36900000D01*
X36922702Y-36822702D02*
X32877298Y-36822702D01*
G04 #@! TO.N,/FLASH_IO3*
X37400000Y-37300000D02*
X33400000Y-37300000D01*
X32900000Y-37800000D02*
X32800000Y-37800000D01*
X33400000Y-37300000D02*
X32900000Y-37800000D01*
G04 #@! TD*
M02*
